<?xml version="1.0" standalone="no"?>
<!DOCTYPE svg PUBLIC "-//W3C//DTD SVG 1.1//EN" "http://www.w3.org/Graphics/SVG/1.1/DTD/svg11.dtd" >
<svg xmlns="http://www.w3.org/2000/svg" xmlns:xlink="http://www.w3.org/1999/xlink" version="1.1">
<metadata>
Created by FontForge 20170731 at Tue Jul 28 13:23:43 2020
 By Aleksey,,,
Copyright 2017 The Literata Project Authors (https://github.com/googlefonts/literata)
</metadata>
<defs>
<font id="Literata7pt-Light" horiz-adv-x="821" >
  <font-face 
    font-family="Literata 7pt Light"
    font-weight="300"
    font-stretch="normal"
    units-per-em="1000"
    panose-1="0 0 0 0 0 0 0 0 0 0"
    ascent="800"
    descent="-200"
    x-height="515"
    cap-height="700"
    bbox="-377 -273 1520 1135"
    underline-thickness="50"
    underline-position="-175"
    unicode-range="U+000D-FB02"
  />
<missing-glyph horiz-adv-x="500" 
d="M50 700h400v-700h-400v700zM110 640v-580h280v580h-280z" />
    <glyph glyph-name="fi" unicode="fi" horiz-adv-x="702" 
d="M63 0v43l48 2q17 1 25.5 9.5t8.5 37.5v373h-84v41l84 10v48q0 74 31 122t83.5 72t117.5 24q40 0 75 -5.5t61 -17.5t40 -29.5t14 -41.5q0 -31 -16 -48t-51 -17q-20 0 -36.5 9.5t-16.5 27.5q0 10 5.5 25.5t13.5 32.5q-28 10 -49.5 12t-41.5 2q-49 0 -85 -16t-55 -52.5
t-19 -100.5v-46h341l13 -7v-419q0 -18 4 -31t27 -15l63 -3v-42h-259v42l62 3q19 1 25.5 12t6.5 38v299q0 41 -8 55.5t-43 14.5l-232 1v-370q0 -26 8 -37t26 -12l78 -5v-41h-265z" />
    <glyph glyph-name="fl" unicode="fl" horiz-adv-x="729" 
d="M63 0v43l48 2q15 0 24.5 7.5t9.5 39.5v372h-84v41l84 10v51q0 52 17 92t47 67.5t72 42t90 14.5q61 0 97.5 -15t56.5 -26l58 25l12 -9v-669q0 -25 6 -34t23 -10l54 -2v-42h-239v43l55 4q16 1 23 9.5t7 34.5v504q0 45 -14.5 75.5t-47.5 46.5t-87 16t-89 -18.5t-52.5 -54
t-17.5 -84.5v-59h152v-53h-152v-367q0 -27 9 -38t26 -12l89 -5v-42h-277z" />
    <glyph glyph-name="f_f" unicode="ff" horiz-adv-x="781" 
d="M216 517h308v64q0 59 -31.5 94.5t-113.5 35.5q-52 0 -89 -20.5t-55.5 -57t-18.5 -86.5v-30zM63 0v43l48 2q15 0 24.5 7.5t9.5 39.5v372h-84v41l84 10v20q0 55 17 97t47.5 70.5t73.5 43t93 14.5q71 0 110.5 -21.5t60.5 -54.5q16 36 39.5 57t53 31t62.5 10q39 0 69.5 -11.5
t48 -32t17.5 -51.5q0 -27 -14.5 -42.5t-38.5 -15.5q-18 0 -31 8.5t-13 25.5q0 10 5 22t18 33q-12 7 -26 11t-38 4q-37 0 -60 -19t-33.5 -52t-10.5 -77v-68h160v-52h-160v-370q0 -28 8.5 -37.5t25.5 -11.5l82 -5v-41h-272v43l51 3q15 2 24.5 9.5t9.5 39.5v369h-308v-367
q0 -27 9 -38t26 -12l89 -5v-42h-277z" />
    <glyph glyph-name="f_k" unicode="fk" horiz-adv-x="1021" 
d="M63 0v43l48 2q15 0 24.5 7.5t9.5 39.5v372h-84v41l84 10v66q0 46 17 83.5t47.5 63.5t72 40t89.5 14q40 0 69.5 -7t50.5 -16.5t34 -17.5l58 25l12 -9v-669q0 -25 6 -34t26 -9l63 -4v-41h-244v42l48 3q16 2 23 9t7 37v504q0 45 -15 75.5t-50 46.5t-95 16q-44 0 -77 -20
t-52 -52.5t-19 -74.5v-69h152v-53h-152v-367q0 -27 9 -38t26 -12l89 -5v-42h-277zM924 -8q-22 0 -41.5 5t-40 20.5t-47.5 45.5l-183 212l1 7l189 149q15 11 14.5 24.5t-20.5 15.5l-43 3l10 43h220v-41h-26q-24 -1 -42.5 -11t-39.5 -28l-178 -149l160 -186q25 -31 47.5 -42.5
t44.5 -11.5q13 0 25.5 3t28.5 8l12 -30q-21 -18 -44.5 -27.5t-46.5 -9.5z" />
    <glyph glyph-name="f_b" unicode="fb" horiz-adv-x="1056" 
d="M547 -11l-23 6v600q0 45 -15 75.5t-49.5 46.5t-93.5 16q-49 0 -83 -16.5t-50.5 -52t-16.5 -93.5v-54h152v-53h-152v-367q0 -27 9 -38t26 -12l89 -5v-42h-277v43l48 2q15 0 24.5 7.5t9.5 39.5v372h-84v41l84 10v44q0 59 18 101.5t49.5 69t72.5 39.5t86 13q41 0 70.5 -7
t50 -16.5t33.5 -17.5l58 25l12 -11v-311h2q24 36 53 54t61 25.5t63 7.5q68 0 117 -30t75 -87t26 -138q0 -87 -28.5 -152.5t-85.5 -101.5t-142 -36q-24 0 -50.5 5.5t-52.5 15t-48 23.5zM737 42q47 0 88.5 22.5t67 72.5t25.5 132q0 80 -20.5 123t-56 60.5t-80.5 17.5
q-51 0 -89 -20t-57.5 -53.5t-19.5 -77.5v-234q28 -20 66 -31.5t76 -11.5z" />
    <glyph glyph-name="f_h" unicode="fh" horiz-adv-x="1085" 
d="M63 0v43l48 2q15 0 24.5 7.5t9.5 39.5v372h-84v41l84 10v59q0 48 18.5 87t50 65.5t73.5 41t89 14.5q37 0 65.5 -7t49.5 -16.5t34 -17.5l58 25l12 -9v-318v0q30 47 82.5 69.5t103.5 22.5t90 -17t62 -54t23 -98v-275q0 -18 5 -29.5t28 -12.5l55 -3v-42h-236v43l44 2
q20 1 26.5 9t6.5 33v250q0 48 -12.5 76.5t-40.5 41.5t-71 13q-52 0 -89 -20t-57 -54t-20 -74v-229q0 -24 5.5 -33t21.5 -10l55 -5v-43h-238v42l56 4q17 1 23 10.5t6 36.5v505q0 43 -14.5 73t-47.5 46t-87 16q-49 0 -84.5 -19.5t-55 -53.5t-19.5 -78v-65h152v-53h-152v-367
q0 -27 9 -38t26 -12l89 -5v-42h-277z" />
    <glyph glyph-name="f_t" unicode="ft" horiz-adv-x="796" 
d="M63 0v43l48 2q15 0 24.5 7.5t9.5 39.5v373h-84v41l84 10v48q0 56 13 97t37 68t56.5 40t71.5 13t71 -11.5t50.5 -32t18.5 -51.5q0 -27 -14.5 -42.5t-38.5 -15.5q-18 0 -31 8.5t-13 25.5q0 10 5 22t18 33q-12 6 -28.5 10.5t-40.5 4.5q-37 0 -60 -19t-33.5 -52t-10.5 -77
v-68h186q36 0 60.5 11t38.5 45t19 104l36 5l11 -6v-159h173v-52h-173v-330q0 -50 21 -70t60 -20q27 0 50.5 10t49.5 30l27 -37q-38 -36 -74.5 -49t-70.5 -13q-48 0 -77.5 17.5t-43 51t-13.5 80.5v330h-280v-370q0 -28 8.5 -37.5t25.5 -11.5l82 -5v-41h-269z" />
    <glyph glyph-name="f_f_i" unicode="ffi" horiz-adv-x="1069" 
d="M63 0v43l48 2q15 0 24.5 7.5t9.5 39.5v372h-84v41l84 10v27q0 52 17.5 92.5t48.5 68.5t74.5 42.5t93.5 14.5q69 0 112 -22.5t64 -64.5q21 34 52.5 58.5t70.5 37.5t79 13q42 0 77 -6t60.5 -18t39 -29.5t13.5 -40.5q0 -33 -16 -50.5t-50 -17.5q-18 0 -36.5 7.5t-18.5 28.5
q0 10 5 27t14 36q-26 8 -47.5 10.5t-44.5 2.5q-37 0 -73.5 -15.5t-60.5 -48.5t-24 -83v-68h330l12 -7v-419q0 -20 5 -32t27 -14l62 -3v-42h-256v43l60 4q18 1 24.5 11.5t6.5 36.5v306q0 37 -9 49.5t-40 12.5l-222 1v-367q0 -27 9 -38t26 -12l74 -5v-42h-266v44l52 2
q15 1 24.5 9t9.5 40v369h-308v-367q0 -27 9 -38t26 -12l89 -5v-42h-277zM216 517h308v52q0 68 -32.5 105t-118.5 37q-51 0 -86 -20t-53 -55t-18 -81v-38z" />
    <glyph glyph-name="f_f_l" unicode="ffl" horiz-adv-x="1107" 
d="M63 0v43l48 2q15 0 24.5 7.5t9.5 39.5v372h-84v41l84 10v29q0 51 18 91.5t49.5 68t72.5 42t86 14.5q70 0 111.5 -20.5t68.5 -60.5q35 52 88.5 77.5t113.5 25.5q44 0 72 -7t46.5 -16.5t31.5 -17.5l58 25l12 -9v-669q0 -25 6 -34t23 -10l54 -2v-42h-239v43l55 4
q16 1 23 9.5t7 34.5v510q0 42 -16 71.5t-48.5 45t-83.5 15.5q-48 0 -84 -20t-56 -52.5t-20 -74.5v-69h152v-53h-152v-367q0 -27 8.5 -38t26.5 -12l89 -5v-42h-280v43l51 3q16 2 25 10t9 40v368h-307v-367q0 -27 8.5 -38t26.5 -12l89 -5v-42h-277zM216 517h307v52
q0 68 -32 105t-121 37q-43 0 -77.5 -19.5t-55.5 -52t-21 -75.5v-47z" />
    <glyph glyph-name="f_f_k" unicode="ffk" horiz-adv-x="1399" 
d="M1302 -8q-22 0 -41.5 5t-40 20.5t-47.5 45.5l-183 212l1 7l189 149q15 11 14.5 24.5t-20.5 15.5l-43 3l10 43h220v-41h-26q-24 -1 -42.5 -11t-39.5 -28l-178 -149l160 -186q25 -31 47.5 -42.5t44.5 -11.5q13 0 25.5 3t28.5 8l12 -30q-21 -18 -44.5 -27.5t-46.5 -9.5z
M63 0v43l48 2q15 0 24.5 7.5t9.5 39.5v372h-84v41l84 10v40q0 49 17.5 87t48 64.5t72 40t88.5 13.5q65 0 109.5 -20t74.5 -60q29 47 83.5 74.5t114.5 27.5q44 0 72 -7t46.5 -16.5t31.5 -17.5l58 25l12 -9v-667q0 -25 6 -34.5t22 -10.5l54 -4v-41h-236v42l55 3q17 2 22.5 12
t5.5 34v495q0 48 -16 80.5t-48 49.5t-83 17q-50 0 -86.5 -20t-55.5 -52.5t-19 -74.5v-69h152v-53h-152v-367q0 -27 9 -38t26 -12l89 -5v-42h-281v43l48 3q18 2 28 8t10 38v372h-307v-367q0 -27 9 -38t26 -12l89 -5v-42h-277zM216 517h307v48q0 68 -32 107t-120 39
q-51 0 -85 -20t-52 -52.5t-18 -74.5v-47z" />
    <glyph glyph-name="f_f_b" unicode="ffb" horiz-adv-x="1434" 
d="M216 517h307v52q0 68 -31 105t-111 37q-57 0 -93.5 -20.5t-54 -58.5t-17.5 -92v-23zM1115 42q47 0 88.5 22.5t67 72.5t25.5 132q0 80 -20 123t-56 60.5t-81 17.5q-51 0 -89 -20t-57.5 -53.5t-19.5 -77.5v-234q28 -20 66 -31.5t76 -11.5zM63 0v43l48 2q15 0 24.5 7.5
t9.5 39.5v372h-84v41l84 10v20q0 55 15.5 97t45.5 70.5t74 43t100 14.5q59 0 101.5 -21.5t70.5 -58.5q34 54 87.5 78t115.5 24q43 0 70.5 -7t46 -16.5t31.5 -17.5l58 25l12 -9v-313h2q24 36 53 54t61 25.5t63 7.5q68 0 117 -30t75 -87t26 -138q0 -87 -28.5 -152.5
t-85.5 -101.5t-142 -36q-24 0 -50.5 5.5t-52.5 15t-48 23.5l-38 -41l-23 6v600q0 45 -16 75.5t-48.5 46.5t-83.5 16q-47 0 -83 -20t-56.5 -52.5t-20.5 -74.5v-69h152v-53h-152v-367q0 -27 9 -38t26 -12l89 -5v-42h-281v43l48 3q18 2 28 8t10 38v372h-307v-367q0 -27 9 -38
t26 -12l89 -5v-42h-277z" />
    <glyph glyph-name="f_f_t" unicode="fft" horiz-adv-x="1170" 
d="M63 0v43l48 2q15 0 24.5 7.5t9.5 39.5v372h-84v41l84 10v31q0 55 18.5 95.5t50.5 66.5t75 39t91 13q65 0 105.5 -20.5t61.5 -55.5q22 50 62.5 74t92.5 24q39 0 71 -11.5t50.5 -32t18.5 -51.5q0 -27 -14.5 -42.5t-38.5 -15.5q-18 0 -31 8.5t-13 25.5q0 10 5 22t17 33
q-11 7 -29 11t-39 4q-37 0 -60 -19t-33.5 -52t-10.5 -77v-68h181q36 0 61 11t38.5 45t18.5 104l36 5l11 -6v-159h173v-52h-173v-330q0 -50 21 -70t60 -20q27 0 50.5 10t49.5 30l27 -37q-38 -36 -74.5 -49t-70.5 -13q-48 0 -77.5 17.5t-43 51t-13.5 80.5v330h-275v-370
q0 -28 8.5 -37.5t25.5 -11.5l82 -5v-41h-276v44l55 2q15 1 24.5 9t9.5 40v369h-308v-367q0 -27 9 -38t26 -12l89 -5v-42h-277zM216 517h308v54q0 70 -33.5 105t-112.5 35q-54 0 -90 -20t-54 -54t-18 -79v-41z" />
    <glyph glyph-name="f_iacute" unicode="f&#xed;" horiz-adv-x="690" 
d="M481 593l-27 27l106 129q11 13 19.5 19t18.5 6q11 0 19.5 -6t13 -15t4.5 -19q0 -13 -8 -25t-26 -26zM63 0v43l48 2q15 0 24.5 7.5t9.5 39.5v373h-84v41l84 10v68q0 48 10.5 84.5t30.5 62t47.5 38.5t59.5 13q29 0 56.5 -11t45.5 -31.5t18 -52.5q0 -27 -14.5 -42.5
t-38.5 -15.5q-18 0 -31 8.5t-13 25.5q0 10 5 22t18 33q-10 6 -20.5 10.5t-28.5 4.5q-26 0 -42.5 -15t-24 -44.5t-7.5 -74.5v-82h330l12 -7v-419q0 -20 5 -32t27 -14l62 -3v-42h-256v43l60 4q18 1 24.5 11.5t6.5 36.5v306q0 37 -9 50t-40 13l-222 1v-370q0 -28 8.5 -37.5
t25.5 -11.5l77 -5v-41h-264z" />
    <glyph glyph-name="T_h" unicode="Th" horiz-adv-x="1254" 
d="M208 0v42l89 7q17 2 26.5 11.5t9.5 37.5v550h-85q-34 0 -56.5 -2.5t-39 -16.5t-31.5 -46t-35 -89l-40 9l39 197h479q39 0 70 8t57.5 22t47.5 34l25 -11v-315h1q29 47 81.5 70t104.5 23q50 0 89.5 -17t62.5 -54t23 -98v-275q0 -18 5 -29.5t28 -12.5l55 -3v-42h-237v43
l45 2q19 1 26 9t7 33v250q0 48 -13 76.5t-40.5 41.5t-70.5 13q-52 0 -89.5 -20t-57.5 -54t-20 -74v-229q0 -24 6 -33t21 -10l56 -5v-43h-239v42l56 4q17 1 23 10.5t6 36.5v555h-287v-554q0 -25 7 -33.5t29 -11.5l88 -7v-42h-322z" />
    <glyph glyph-name=".notdef" horiz-adv-x="500" 
d="M50 700h400v-700h-400v700zM110 640v-580h280v580h-280z" />
    <glyph glyph-name=".null" horiz-adv-x="0" 
 />
    <glyph glyph-name="nonmarkingreturn" horiz-adv-x="333" 
 />
    <glyph glyph-name="CR" unicode="&#xd;" horiz-adv-x="0" 
 />
    <glyph glyph-name="space" unicode=" " horiz-adv-x="245" 
 />
    <glyph glyph-name="exclam" unicode="!" horiz-adv-x="326" 
d="M142 197v80q0 47 -3.5 91t-7.5 83t-8 73t-7.5 63t-3.5 53q0 21 6.5 38t19 26.5t33.5 9.5q29 0 41.5 -20t12.5 -54q0 -26 -5 -60.5t-10.5 -80t-10.5 -101t-5 -122.5v-79h-52zM162 -12q-28 0 -46 18t-18 46t18 46.5t46 18.5q30 0 48 -18t18 -46t-18 -46.5t-48 -18.5z" />
    <glyph glyph-name="quotedbl" unicode="&#x22;" horiz-adv-x="416" 
d="M105 543l-21 161q-1 9 -1.5 15t-0.5 9q0 22 14 36.5t36 14.5q17 0 28.5 -8.5t11.5 -23.5q0 -7 -1 -14.5t-2 -14.5l-24 -175h-40zM266 543l-21 161q-1 9 -1.5 15t-0.5 9q0 22 14 36.5t36 14.5q17 0 28.5 -8.5t11.5 -23.5q0 -7 -1 -14.5t-2 -14.5l-24 -175h-40z" />
    <glyph glyph-name="numbersign" unicode="#" horiz-adv-x="708" 
d="M161 3l22 136h-128l14 57h125l28 168h-130l11 56h128l20 127h61l-20 -127h174l19 127h62l-20 -127h126l-9 -56h-126l-28 -168h133l-10 -57h-133l-23 -136h-61l23 136h-174l-23 -136h-61zM255 196h173l29 168h-175z" />
    <glyph glyph-name="dollar" unicode="$" horiz-adv-x="644" 
d="M304 -97v85q-49 6 -91 25.5t-71 46.5l-15 -66h-35l-25 227l39 4q20 -62 51 -99.5t68 -55t79 -22.5v284q-12 4 -22.5 7t-20.5 7q-48 18 -79.5 36.5t-49.5 41t-26.5 50t-8.5 59.5q0 42 16 74.5t45 55.5t66 36.5t80 14.5v84h52v-87q32 -6 62.5 -19.5t55.5 -33.5l16 56h36
l19 -194l-40 -9q-16 47 -37.5 76.5t-49.5 45.5t-62 21v-258q6 -1 10 -2.5t9 -3.5q58 -20 95.5 -41t58.5 -46t30 -53t9 -61q0 -43 -15 -79t-43 -62.5t-67 -42.5t-87 -18v-84h-52zM356 47q38 3 68 15t48.5 39.5t18.5 71.5q0 31 -11 56t-40.5 46.5t-83.5 40.5v-269zM304 413
v243q-58 -2 -94 -28.5t-36 -77.5q0 -30 11 -54t39.5 -43.5t79.5 -39.5z" />
    <glyph glyph-name="percent" unicode="%" horiz-adv-x="920" 
d="M228 -14l392 611h69l-390 -611h-71zM224 275q-52 0 -89.5 20t-58 55t-20.5 80q0 62 25.5 99t65 53t82.5 16q44 0 81.5 -17t61 -50.5t23.5 -84.5q0 -56 -23.5 -94t-62.5 -57.5t-85 -19.5zM226 330q47 0 71 27.5t24 79.5q0 54 -25 80.5t-72 26.5q-44 0 -68.5 -26t-24.5 -78
t24 -81t71 -29zM688 -15q-52 0 -89.5 20t-58 55t-20.5 80q0 62 25.5 99t65 53t82.5 16q44 0 81.5 -16.5t61 -50.5t23.5 -85q0 -56 -23.5 -94t-62.5 -57.5t-85 -19.5zM690 40q47 0 71 28t24 80q0 36 -11 59.5t-33 35t-53 11.5q-44 0 -68.5 -25.5t-24.5 -77.5t24 -81.5
t71 -29.5z" />
    <glyph glyph-name="ampersand" unicode="&#x26;" horiz-adv-x="884" 
d="M318 -14q-72 0 -128 23t-87.5 67t-31.5 105q0 39 14 72t38 58t55 44.5t66 32.5q-21 19 -41.5 42.5t-34.5 53.5t-14 65q0 39 15 69.5t42 52t64.5 32.5t80.5 11q75 0 122 -39.5t47 -101.5q0 -39 -20 -75.5t-56 -66.5t-83 -52l183 -166q19 84 45 138.5t55.5 83.5t59.5 40.5
t59 11.5q31 0 53.5 -17t22.5 -48q0 -18 -6.5 -32.5t-18 -22t-25.5 -7.5q-12 0 -21 5.5t-17 18.5t-17 36q-25 -5 -51.5 -28t-50.5 -75.5t-41 -144.5q45 -43 69.5 -66t39.5 -30.5t32 -7.5q27 0 55 13.5t39 25.5l26 -36q-10 -15 -31.5 -33t-49 -31.5t-52.5 -13.5
q-27 0 -49.5 10t-49 32t-67.5 61q-18 -29 -52 -54t-80.5 -40.5t-107.5 -15.5zM325 41q72 0 120 24t72 69l-228 211q-35 -12 -65.5 -30.5t-50 -47.5t-19.5 -74q0 -49 21.5 -83t60 -51.5t89.5 -17.5zM318 420q56 21 86 47t42 53t12 50q0 39 -29 63t-76 24q-57 0 -90.5 -23
t-33.5 -71q0 -21 9 -43t28.5 -46.5t51.5 -53.5z" />
    <glyph glyph-name="quotesingle" unicode="'" horiz-adv-x="255" 
d="M105 543l-21 161q-1 9 -1.5 15t-0.5 9q0 22 14 36.5t36 14.5q17 0 28.5 -8.5t11.5 -23.5q0 -7 -1 -14.5t-2 -14.5l-24 -175h-40z" />
    <glyph glyph-name="parenleft" unicode="(" horiz-adv-x="337" 
d="M266 -201q-30 34 -63.5 85.5t-63.5 117t-49 142t-19 159.5q0 87 19.5 165t51 144t66 117.5t64.5 84.5l36 -20q-45 -71 -82.5 -148t-59 -159.5t-21.5 -169.5q0 -94 20.5 -176.5t55.5 -160.5t81 -160z" />
    <glyph glyph-name="parenright" unicode=")" horiz-adv-x="340" 
d="M69 -201l-35 19q49 85 85.5 162.5t56 159.5t19.5 177q0 86 -20 168t-55.5 159.5t-81.5 149.5l36 20q29 -31 62.5 -82t64 -117.5t49.5 -144t19 -160.5q0 -86 -19 -163.5t-49.5 -143t-65.5 -117t-66 -87.5z" />
    <glyph glyph-name="asterisk" unicode="*" horiz-adv-x="468" 
d="M228 409q-23 0 -31 12.5t-4 31.5l22 111l-89 -66q-19 -13 -36.5 -13.5t-31.5 22.5q-10 20 -2.5 31t27.5 19l115 38l-106 38q-26 10 -34.5 24t5.5 36q13 18 27 18.5t30 -12.5l95 -74l-17 103q-4 24 5 38.5t39 14.5q19 0 27.5 -10.5t4.5 -33.5l-23 -112l90 67
q17 13 36.5 15t32.5 -25q10 -20 4 -30.5t-28 -17.5l-118 -39l107 -39q23 -8 32.5 -23t-4.5 -37q-12 -18 -25.5 -18.5t-30.5 11.5l-95 75l16 -102q4 -23 -3.5 -38t-36.5 -15z" />
    <glyph glyph-name="plus" unicode="+" horiz-adv-x="620" 
d="M275 89v188h-172v61h172v176h64v-176h179v-61h-179v-188h-64z" />
    <glyph glyph-name="comma" unicode="," horiz-adv-x="305" 
d="M111 -141l-23 35q28 22 41.5 37.5t19.5 31.5t7 37h-11q-11 0 -23 7t-19 19.5t-7 27.5q0 24 14 40t43 16q35 0 50 -21t15 -55q0 -31 -10.5 -62t-34 -59.5t-62.5 -53.5z" />
    <glyph glyph-name="hyphen" unicode="-" horiz-adv-x="375" 
d="M62 260v61h250v-61h-250z" />
    <glyph glyph-name="period" unicode="." horiz-adv-x="306" 
d="M153 -10q-27 0 -44.5 17t-17.5 44t17.5 44.5t44.5 17.5q28 0 45 -17t17 -44t-17 -44.5t-45 -17.5z" />
    <glyph glyph-name="slash" unicode="/" horiz-adv-x="470" 
d="M29 -110l339 912h73l-338 -912h-74z" />
    <glyph glyph-name="zero" unicode="0" horiz-adv-x="676" 
d="M338 -12q-87 0 -147 45.5t-91 124.5t-31 180q0 105 22 177t61 116t88.5 63.5t104.5 19.5q70 0 130 -37.5t96.5 -115.5t36.5 -198q0 -124 -35.5 -207.5t-96.5 -125.5t-138 -42zM344 48q43 0 77.5 18t58 55.5t35.5 94t12 132.5q0 75 -11.5 132t-35 95.5t-59.5 58t-84 19.5
q-40 0 -75 -16t-60 -52t-39 -93t-14 -136q0 -69 12 -125.5t36 -97.5t61 -63t86 -22z" />
    <glyph glyph-name="one" unicode="1" horiz-adv-x="453" 
d="M72 0v42l95 5q24 1 32 15t8 39v470q0 33 -6 48.5t-45 16.5l-88 2l4 42l202 30l10 -9v-603q0 -28 8 -38.5t32 -12.5l92 -5v-42h-344z" />
    <glyph glyph-name="two" unicode="2" horiz-adv-x="566" 
d="M57 0l-9 51q87 87 149 151t102 111.5t63 83t32 66.5t9 61q0 64 -38.5 99.5t-109.5 35.5q-45 0 -78.5 -13t-50.5 -35q12 -13 19 -23.5t10.5 -19t3.5 -16.5q0 -19 -14.5 -31.5t-39.5 -12.5q-28 0 -42 19t-14 43q0 40 27 72t76 52t115 20q64 0 112 -22.5t75 -64t27 -101.5
q0 -33 -9.5 -66.5t-32 -72t-61 -84.5t-96.5 -104.5t-140 -133.5h170q34 0 57 2t38 12t26.5 35t23.5 70h44l-19 -184h-425z" />
    <glyph glyph-name="three" unicode="3" horiz-adv-x="571" 
d="M275 -13q-51 0 -90.5 11t-67.5 29.5t-48 42t-34 47.5l44 32q22 -31 49 -53t61.5 -33.5t79.5 -11.5q55 0 90.5 19.5t52.5 53t17 75.5q0 67 -52.5 102t-153.5 34l5 54q61 5 101 27t59.5 56t19.5 71q0 50 -32 84.5t-103 34.5q-44 0 -78 -13.5t-50 -34.5q23 -22 29 -35t6 -23
q0 -12 -6 -22.5t-18 -16.5t-30 -6q-21 0 -34 8.5t-18.5 23t-5.5 29.5q0 36 25 68.5t73 53t113 20.5t110.5 -21t69.5 -59t24 -90q0 -41 -18.5 -77t-50 -61t-70.5 -35v-2q47 -8 84 -29t58.5 -57t21.5 -90q0 -47 -16.5 -84.5t-46.5 -65t-73 -42t-97 -14.5z" />
    <glyph glyph-name="four" unicode="4" horiz-adv-x="619" 
d="M243 0v40l100 8q21 1 28 13.5t7 38.5v71h-334l-9 47l342 480l65 11l10 -8v-469h122v-61h-122v-72q0 -21 5 -34.5t32 -15.5l63 -5v-44h-309zM115 232h263v366l-6 -5z" />
    <glyph glyph-name="five" unicode="5" horiz-adv-x="576" 
d="M275 -14q-48 0 -91.5 15t-79.5 43.5t-64 71.5l43 32q40 -48 85.5 -72.5t99.5 -24.5q57 0 93.5 22t54 62t17.5 91q0 69 -38 112t-115 43q-47 0 -86.5 -12t-74.5 -38l-30 32l39 337h360v-20l-17 -49h-291l-29 -226q31 20 69.5 31t76.5 11q71 0 118.5 -28t72 -76.5
t24.5 -109.5q0 -58 -15.5 -104t-45.5 -77.5t-74.5 -48.5t-101.5 -17z" />
    <glyph glyph-name="six" unicode="6" horiz-adv-x="613" 
d="M315 -12q-86 0 -138.5 40.5t-77.5 109.5t-25 154q0 80 15 155t50 135.5t94 96t146 35.5q42 0 82 -11.5t66.5 -36.5t26.5 -64q0 -19 -8 -32.5t-21 -21t-30 -7.5q-19 0 -30 5t-16 14t-5 20q0 8 2.5 15.5t7.5 16.5t12 21q-14 12 -36.5 18.5t-57.5 6.5q-52 0 -88.5 -19.5
t-61 -51.5t-39 -72.5t-21.5 -83t-10 -81.5q24 38 73.5 68.5t120.5 30.5q60 0 107.5 -25t74.5 -73.5t27 -116.5q0 -82 -31 -137t-85.5 -82t-123.5 -27zM319 44q47 0 83 18.5t56 58t20 104.5q0 56 -19.5 92t-53.5 53t-81 17q-39 0 -77.5 -17t-64 -49.5t-25.5 -78.5
q0 -56 15.5 -101.5t51 -71t95.5 -25.5z" />
    <glyph glyph-name="seven" unicode="7" horiz-adv-x="550" 
d="M233 -9l-10 8q1 66 9 139t32 152.5t71 165.5t126 178h-229q-31 0 -50.5 -3t-31.5 -13t-20.5 -31t-19.5 -59h-48l19 172h455l9 -49q-63 -79 -108.5 -154.5t-74 -152.5t-42 -161.5t-11.5 -182.5z" />
    <glyph glyph-name="eight" unicode="8" horiz-adv-x="614" 
d="M306 -12q-73 0 -130 19.5t-89.5 60t-32.5 102.5q0 37 14.5 74t52.5 71t106 60q-53 22 -83 47.5t-42.5 55t-12.5 64.5q0 41 21.5 81t70.5 65.5t130 25.5q73 0 120.5 -19.5t71 -53t23.5 -76.5t-18.5 -77t-47 -60.5t-60.5 -48.5q59 -23 93.5 -51.5t50 -62t15.5 -73.5
q0 -50 -20.5 -88t-56.5 -64t-81.5 -39t-94.5 -13zM311 44q50 0 88.5 16t60 46.5t21.5 72.5q0 35 -13.5 60t-39 44.5t-63 35.5t-84.5 33q-74 -34 -111.5 -75t-37.5 -99q0 -41 22 -71.5t62.5 -46.5t94.5 -16zM342 400q49 35 80 72t31 79q0 38 -20 62t-53 34.5t-74 10.5
q-38 0 -71 -10t-53.5 -32.5t-20.5 -60.5q0 -29 14 -55t53 -50t114 -50z" />
    <glyph glyph-name="nine" unicode="9" horiz-adv-x="609" 
d="M271 -14q-63 0 -117 23.5t-92 67.5l37 42q36 -31 76 -51t97 -20q52 0 86.5 20t56.5 58.5t32 93.5t13 124q-28 -41 -75.5 -67t-112.5 -26t-112 27t-72.5 76t-25.5 117q0 81 31 135t83.5 81t119.5 27q64 0 109.5 -22t74.5 -62t42.5 -96t13.5 -123q0 -222 -60 -323.5
t-205 -101.5zM292 316q30 0 59.5 9t53.5 28t38.5 50t14.5 77q0 45 -16.5 86t-52 66.5t-94.5 25.5q-35 0 -65 -10t-51 -31t-33 -53.5t-12 -79.5q0 -58 19.5 -95t55.5 -55t83 -18z" />
    <glyph glyph-name="colon" unicode=":" horiz-adv-x="306" 
d="M153 -10q-27 0 -44.5 17t-17.5 44t17.5 44.5t44.5 17.5q28 0 45 -17t17 -44t-17 -44.5t-45 -17.5zM153 406q-27 0 -44.5 17t-17.5 44t17.5 44.5t44.5 17.5q28 0 45 -17t17 -44t-17 -44.5t-45 -17.5z" />
    <glyph glyph-name="semicolon" unicode=";" horiz-adv-x="314" 
d="M116 -141l-23 35q28 22 41.5 37.5t19.5 31.5t7 37h-11q-11 0 -23 7t-19 19.5t-7 27.5q0 24 14 40t43 16q35 0 50 -21t15 -55q0 -31 -10.5 -62t-34 -59.5t-62.5 -53.5zM159 406q-27 0 -44 17t-17 44t17 44.5t44 17.5q28 0 45.5 -17t17.5 -44t-17.5 -44.5t-45.5 -17.5z" />
    <glyph glyph-name="less" unicode="&#x3c;" horiz-adv-x="620" 
d="M473 37l-378 226v42l378 227l31 -51l-331 -196l331 -195z" />
    <glyph glyph-name="equal" unicode="=" horiz-adv-x="620" 
d="M101 363v61h418v-61h-418zM101 183v62h418v-62h-418z" />
    <glyph glyph-name="greater" unicode="&#x3e;" horiz-adv-x="620" 
d="M107 37l-31 53l332 195l-332 196l31 51l378 -227v-42z" />
    <glyph glyph-name="question" unicode="?" horiz-adv-x="573" 
d="M235 197v108q0 17 5.5 32.5t22.5 36.5t48 50q44 42 63.5 75t19.5 66q0 40 -34 67.5t-92 27.5q-36 0 -63.5 -9.5t-44.5 -30.5q13 -16 20 -28t7 -25q0 -17 -15.5 -30.5t-39.5 -13.5q-29 0 -42.5 16t-13.5 42q0 39 28 69t74.5 47t98.5 17q60 0 103.5 -19t67 -53.5
t23.5 -81.5q0 -35 -15 -66.5t-37 -58.5t-44 -49q-32 -32 -50.5 -51.5t-26 -32t-9.5 -21.5t-2 -19v-65h-52zM256 -12q-28 0 -46 18t-18 46t18 46.5t46 18.5q29 0 47.5 -18t18.5 -46t-18.5 -46.5t-47.5 -18.5z" />
    <glyph glyph-name="at" unicode="@" horiz-adv-x="916" 
d="M443 -181q-74 0 -141.5 21.5t-120.5 66t-84 115.5t-31 169q0 78 28 146t81 119.5t128.5 81t171.5 29.5q86 0 155.5 -20t118.5 -61t75 -101.5t26 -140.5q0 -88 -29 -143.5t-75.5 -82t-100.5 -26.5q-39 0 -58 12.5t-23.5 34.5t-4.5 47l8 131h-3l-27 -73q-13 -34 -27 -62.5
t-32 -48.5t-40 -30.5t-52 -10.5q-34 0 -59.5 12t-42 33t-25 49.5t-8.5 60.5q0 86 28.5 139.5t76.5 78.5t103 25q39 0 68 -7t54 -20l41 26l13 -4l-12 -275q-1 -37 4.5 -52.5t32.5 -15.5q36 0 65 21.5t46.5 65t17.5 107.5q0 66 -18 117t-55.5 86.5t-97 54t-143.5 18.5
q-100 0 -178.5 -38t-123 -110t-44.5 -177q0 -88 28 -148.5t75 -96.5t103.5 -52t114.5 -16q81 0 129 20t86 49l33 -37q-47 -41 -111.5 -64t-143.5 -23zM399 47q27 0 46.5 18.5t37 59.5t38.5 107l30 97q-19 7 -38 11t-44 4q-36 0 -62.5 -15.5t-44 -41.5t-26 -60t-8.5 -72
q0 -37 7.5 -61t23.5 -35.5t40 -11.5z" />
    <glyph glyph-name="A" unicode="A" horiz-adv-x="763" 
d="M14 0v43l54 5q17 2 26.5 9.5t22.5 41.5l232 601h78l228 -604q8 -23 17 -35t31 -14l47 -4v-43h-260v43l62 4q16 1 24 9.5t-4 40.5l-48 132h-294l-49 -130q-8 -22 -4 -37t29 -17l60 -3v-42h-252zM248 284h257l-124 340h-7z" />
    <glyph glyph-name="B" unicode="B" horiz-adv-x="703" 
d="M72 0v42l68 4q17 1 25.5 10.5t8.5 40.5v509q0 21 -6 33.5t-31 13.5l-65 4v43h260q76 0 136.5 -14t95.5 -49.5t35 -100.5q0 -37 -20 -70.5t-56 -56.5t-85 -34v-4q106 -9 155.5 -54t49.5 -120q0 -67 -39 -111t-108.5 -65t-159.5 -21h-264zM332 50q70 0 121.5 15t79 48
t27.5 86q0 45 -24 76.5t-72 48t-119 16.5q-72 0 -98 -4v-281q10 -1 33.5 -3t51.5 -2zM318 391q59 0 104 16.5t70 48t25 77.5q0 49 -23 74t-65 34t-100 9h-82v-257q11 -1 26.5 -1.5t44.5 -0.5z" />
    <glyph glyph-name="C" unicode="C" horiz-adv-x="738" 
d="M407 -14q-104 0 -179.5 43t-115.5 124.5t-40 195.5q0 87 23.5 154.5t68 114.5t105 71.5t134.5 24.5q61 0 105.5 -17.5t78.5 -47.5l12 64h36l38 -224l-41 -10q-23 63 -54.5 102t-74 57.5t-99.5 18.5q-75 0 -131.5 -32.5t-87.5 -96.5t-31 -161q0 -78 18.5 -137.5
t52.5 -99.5t81.5 -60.5t107.5 -20.5q48 0 88 11.5t75 36.5t69 64l36 -32q-26 -38 -58 -65.5t-67.5 -44.5t-73 -25t-76.5 -8z" />
    <glyph glyph-name="D" unicode="D" horiz-adv-x="822" 
d="M72 0v42l68 4q21 2 27.5 12.5t6.5 38.5v509q0 26 -6 36t-31 11l-65 4v43h300q74 0 134.5 -13.5t106 -40.5t76 -66.5t46 -91.5t15.5 -116q0 -95 -28 -165.5t-80 -115.5t-125 -68t-164 -23h-281zM345 52q78 0 138.5 16.5t101.5 52.5t62 95.5t21 145.5q0 98 -32.5 161
t-99 94t-169.5 31h-120v-596h42.5h55.5z" />
    <glyph glyph-name="E" unicode="E" horiz-adv-x="671" 
d="M72 0v42l69 4q18 1 25.5 11t7.5 40v509q0 24 -6 35t-30 12l-66 4v43h480l37 -163l-43 -13q-17 45 -31 70.5t-32 37t-42.5 14t-62.5 2.5h-131v-267h121q34 0 51 5t25 22.5t17 54.5l39 5v-218l-39 -6q-7 41 -17 59.5t-29 23.5t-56 5h-112v-279h167q38 0 63 5.5t41.5 20
t27.5 39.5t21 64h43l-22 -182h-516z" />
    <glyph glyph-name="F" unicode="F" horiz-adv-x="633" 
d="M72 0v42l69 4q17 1 25 10.5t8 40.5v509q0 25 -6.5 35.5t-29.5 11.5l-66 4v43h475l38 -165l-42 -12q-17 48 -32.5 73.5t-33.5 36.5t-43 13t-60 2h-127v-279h120q35 0 51.5 5.5t25.5 23.5t17 55l39 4v-219l-38 -6q-6 43 -16.5 61.5t-29.5 23t-54 4.5h-115v-226q0 -26 9 -36
t30 -12l94 -6v-41h-308z" />
    <glyph glyph-name="G" unicode="G" horiz-adv-x="807" 
d="M407 -14q-105 0 -180 43.5t-115 125t-40 193.5q0 91 23.5 160t67 114.5t104 68.5t134.5 23q64 0 110.5 -16t84.5 -46l11 61h36l38 -216l-42 -10q-25 63 -58.5 99.5t-79 52.5t-104.5 16q-51 0 -95.5 -16.5t-77.5 -51t-51.5 -89t-18.5 -129.5q0 -72 17 -130t50.5 -99.5
t84.5 -64.5t118 -23q38 0 71 7.5t60.5 20t46.5 28.5v131q0 21 -6 32.5t-31 12.5l-67 4v43h267v-43l-56 -4q-15 0 -23 -9.5t-8 -39.5v-238h-43l-22 58q-30 -22 -63.5 -37.5t-69.5 -23.5t-73 -8z" />
    <glyph glyph-name="H" unicode="H" horiz-adv-x="896" 
d="M72 0v42l69 4q17 1 25 10.5t8 40.5v509q0 21 -5.5 33.5t-30.5 13.5l-66 4v43h276v-43l-69 -4q-17 -1 -24.5 -11.5t-7.5 -39.5v-216h405v220q0 19 -4.5 32.5t-31.5 14.5l-64 4v43h273v-43l-68 -4q-19 -1 -25.5 -11t-6.5 -40v-509q0 -19 4.5 -32t30.5 -15l65 -4v-42h-273
v42l67 4q20 2 26.5 12.5t6.5 38.5v237h-405v-241q0 -25 7 -35t28 -12l66 -4v-42h-276z" />
    <glyph glyph-name="I" unicode="I" horiz-adv-x="416" 
d="M72 0v42l67 4q17 1 25 10.5t8 40.5v509q0 21 -5.5 33.5t-30.5 13.5l-64 4v43h272v-43l-67 -4q-19 -1 -25.5 -12t-6.5 -39v-509q0 -22 6 -33.5t28 -13.5l65 -4v-42h-272z" />
    <glyph glyph-name="J" unicode="J" horiz-adv-x="560" 
d="M215 -14q-57 0 -98.5 15t-64 41t-22.5 59q0 21 9 37t25.5 25t37.5 9q22 0 36.5 -11.5t14.5 -30.5q0 -12 -5 -25.5t-21 -41.5q15 -11 41.5 -17t51.5 -6q42 0 70 18.5t42.5 55t14.5 88.5v403q0 22 -6 35t-30 14l-84 4v42h303v-43l-77 -4q-20 -1 -26.5 -13.5t-6.5 -37.5
v-383q0 -111 -49.5 -172t-155.5 -61z" />
    <glyph glyph-name="K" unicode="K" horiz-adv-x="744" 
d="M641 -14q-34 0 -58 10t-41.5 26.5t-31 35.5t-25.5 37l-170 249l-70 -69v-182q0 -25 7 -35t28 -12l64 -4v-42h-272v42l67 4q17 1 25 10.5t8 40.5v509q0 26 -7 36t-29 11l-64 4v43h271v-43l-66 -4q-19 -1 -25.5 -12.5t-6.5 -38.5v-255l270 258q12 12 17.5 23t-0.5 18.5
t-25 7.5l-49 2l7 44h242v-42l-43 -4q-10 -1 -17.5 -4t-17.5 -11t-28 -26l-226 -218l185 -268q19 -28 34.5 -46.5t32 -27.5t39.5 -9q16 0 33.5 3t30.5 8l12 -31q-17 -16 -43 -27t-58 -11z" />
    <glyph glyph-name="L" unicode="L" horiz-adv-x="630" 
d="M72 0v42l68 4q16 1 25 10.5t9 40.5v510q0 26 -7 35.5t-30 10.5l-65 4v43h289v-42l-79 -5q-21 -1 -28 -11t-7 -36v-554h144q35 0 58.5 3t39.5 16t30.5 44.5t32.5 88.5h43l-24 -204h-499z" />
    <glyph glyph-name="M" unicode="M" horiz-adv-x="1009" 
d="M53 0v42l65 4q21 1 26.5 16.5t6.5 37.5l34 507q2 22 -4 34t-29 13l-60 3v43h206l207 -515l3 -5l209 520h205v-43l-66 -3q-13 0 -23 -7.5t-8 -43.5l35 -510q2 -20 6.5 -32.5t29.5 -14.5l66 -4v-42h-279v42l69 3q18 1 27.5 10t7.5 41l-36 535l-2 -4l-214 -531h-74l-215 532
l-2 4l-34 -540q-1 -26 7 -35t28 -11l61 -4v-42h-253z" />
    <glyph glyph-name="N" unicode="N" horiz-adv-x="889" 
d="M72 0v42l68 4q17 0 25.5 11.5t8.5 39.5v510q0 25 -6 35t-28 11l-68 4v43h197l389 -576l6 -4v486q0 25 -7 35.5t-30 11.5l-64 4v43h263v-43l-65 -3q-19 -1 -27 -11.5t-8 -38.5v-604h-69l-417 609l-5 4v-520q0 -20 4.5 -32.5t30.5 -14.5l68 -4v-42h-266z" />
    <glyph glyph-name="O" unicode="O" 
d="M406 -14q-104 0 -179 44t-115 123t-40 186q0 117 39.5 201t116 129t186.5 45q104 0 179.5 -42.5t115.5 -121t40 -185.5q0 -86 -24.5 -156t-69.5 -119.5t-108.5 -76.5t-140.5 -27zM415 46q61 0 108 20t79 59.5t49 96t17 130.5q0 73 -17.5 129.5t-51.5 95t-83.5 58
t-112.5 19.5q-60 0 -106.5 -20t-78 -58.5t-48 -95t-16.5 -127.5q0 -74 18 -131t51.5 -96t82 -59.5t109.5 -20.5z" />
    <glyph glyph-name="P" unicode="P" horiz-adv-x="641" 
d="M72 0v42l68 4q16 1 25 10.5t9 40.5v509q0 22 -6 34t-31 13l-65 4v43h252q56 0 100.5 -7t77.5 -22t54.5 -39t32.5 -57t11 -76q0 -41 -9.5 -75t-30.5 -60.5t-52.5 -45t-75 -28t-99.5 -9.5q-30 0 -50.5 1.5t-35.5 3.5v-192q0 -24 8.5 -35.5t30.5 -12.5l94 -5v-41h-308z
M324 333q99 0 146.5 37t47.5 126q0 64 -24.5 96.5t-70 44.5t-105.5 12h-71v-312q15 -2 34 -3t43 -1z" />
    <glyph glyph-name="Q" unicode="Q" horiz-adv-x="831" 
d="M754 -191q-44 0 -85 18.5t-79.5 60t-77.5 109.5q-23 -5 -47 -8t-49 -3q-106 0 -183.5 44t-119 123t-41.5 186q0 117 41.5 201t120 129t190.5 45q106 0 181.5 -42.5t115 -121t39.5 -185.5q0 -120 -45.5 -209t-133.5 -132q37 -54 69 -84.5t61.5 -43.5t60.5 -13
q45 0 81.5 13.5t75.5 44.5l20 -26q-36 -39 -67.5 -62.5t-61.5 -33.5t-66 -10zM425 42q20 0 34.5 1.5t25.5 3.5q-24 41 -44.5 71.5t-40.5 50.5t-40.5 30t-42.5 10q-30 0 -56 -13t-49 -52q20 -31 52 -54t72.5 -35.5t88.5 -12.5zM552 73q62 33 94.5 104.5t32.5 175.5
q0 72 -17.5 128t-51 95t-83 59t-114.5 20q-63 0 -111 -20t-81 -58.5t-50 -94.5t-17 -128q0 -47 9 -90t29 -82q29 42 63 58t71 16q36 0 70.5 -18t72.5 -58t83 -107z" />
    <glyph glyph-name="R" unicode="R" horiz-adv-x="725" 
d="M644 -14q-32 0 -58 10.5t-46 34.5t-37 65l-57 133q-14 35 -30 54t-40.5 27t-63.5 8q-20 0 -35.5 -1t-29.5 -3v-219q0 -27 7.5 -36.5t32.5 -11.5l75 -5v-42h-290v42l69 4q16 1 25 10t9 41v509q0 22 -6 34t-31 13l-66 4v43h256q70 0 121.5 -10t86 -32t51.5 -56.5t17 -82.5
q0 -25 -6.5 -49t-20 -45.5t-34 -39t-50 -30t-67.5 -17.5v-3q39 -12 62 -31.5t40 -58.5l36 -83q20 -46 35 -72t32 -36.5t42 -10.5q16 0 28.5 3t26.5 8l11 -32q-18 -17 -42.5 -26.5t-52.5 -9.5zM324 366q57 0 101.5 16.5t70.5 50t26 83.5q0 55 -27 84t-73.5 39t-106.5 10h-68
v-281q24 -1 45 -1.5t32 -0.5z" />
    <glyph glyph-name="S" unicode="S" horiz-adv-x="625" 
d="M335 -14q-58 0 -111 20.5t-86 53.5l-15 -66h-35l-25 227l39 4q17 -52 41.5 -87t54.5 -55t64.5 -28t70.5 -8q42 0 77.5 11.5t56 39.5t20.5 75q0 35 -14.5 61.5t-51.5 49.5t-109 44q-64 19 -106.5 39.5t-67 45t-35 53.5t-10.5 67q0 34 11.5 62.5t31.5 50.5t47.5 37.5
t59.5 23t68 7.5q44 0 84.5 -14.5t74.5 -41.5l16 56h36l19 -194l-40 -9q-18 55 -45.5 87t-63.5 45t-81 13q-63 0 -102 -26t-39 -80q0 -34 15 -60t52 -48t107 -43q66 -20 108.5 -42.5t67.5 -48t34.5 -55t9.5 -64.5q0 -45 -16 -82t-46.5 -64t-72.5 -42t-94 -15z" />
    <glyph glyph-name="T" unicode="T" horiz-adv-x="738" 
d="M208 0v42l89 7q18 2 27 12t9 37v550h-85q-34 0 -56.5 -3t-39 -17t-31.5 -45.5t-35 -88.5l-40 9l39 197h569l39 -197l-41 -9q-19 57 -34.5 88.5t-32.5 45.5t-39 17t-55 3h-85v-554q0 -24 7 -33t29 -12l88 -7v-42h-322z" />
    <glyph glyph-name="U" unicode="U" horiz-adv-x="887" 
d="M438 -14q-73 0 -125.5 17.5t-86.5 52.5t-51 88t-17 123v339q0 26 -7 36t-29 11l-61 4v43h271v-43l-65 -4q-15 0 -23.5 -10t-8.5 -41v-331q0 -72 19 -122t66 -77t130 -27q72 0 120.5 26t73 78.5t24.5 132.5v324q0 26 -7 36t-29 11l-61 4v43h256v-43l-64 -4q-16 -1 -24 -11
t-8 -40v-302q0 -101 -30.5 -171.5t-95 -106.5t-167.5 -36z" />
    <glyph glyph-name="V" unicode="V" horiz-adv-x="752" 
d="M337 0l-229 602q-10 30 -19 39t-29 12l-39 6v41h251v-42l-63 -3q-21 -1 -26 -12.5t5 -37.5l192 -519h4l193 514q12 30 6 43t-32 13l-54 1v43h234v-42l-39 -5q-18 -2 -27.5 -10t-22.5 -43l-231 -600h-74z" />
    <glyph glyph-name="W" unicode="W" horiz-adv-x="1128" 
d="M281 0l-169 602q-7 29 -17.5 38.5t-30.5 12.5l-43 6v41h251v-42l-58 -3q-20 -1 -25 -11t2 -39l141 -517h4l179 612h99l202 -614h3l129 516q6 26 2.5 38t-29.5 14l-54 3v43h240v-42l-47 -2q-13 -2 -23 -7.5t-16.5 -16.5t-11.5 -32l-148 -600h-94l-207 614h-3l-184 -614
h-92z" />
    <glyph glyph-name="X" unicode="X" horiz-adv-x="763" 
d="M19 0v41l37 4q14 2 24 6.5t22 14.5t28 30l204 256l-195 247q-19 24 -31.5 38.5t-37.5 16.5l-47 5l-2 41h257v-42l-41 -2q-22 0 -29 -9t11 -32l163 -208l157 200q14 18 17 31t-26 16l-45 4l-2 42h237v-42l-39 -4q-13 -2 -24.5 -7.5t-21 -15.5t-21.5 -24l-194 -246
l205 -259q20 -25 35.5 -38.5t42.5 -17.5l41 -6v-40h-263v41l47 4q25 3 26.5 16t-17.5 35l-165 208l-165 -210q-13 -16 -16.5 -30t26.5 -18l52 -5v-41h-250z" />
    <glyph glyph-name="Y" unicode="Y" horiz-adv-x="712" 
d="M214 0v42l65 4q17 1 25 10t8 41v200l-199 306q-14 21 -27 33.5t-38 16.5l-42 6v41h271v-42l-57 -1q-25 0 -31 -14.5t9 -36.5l162 -251h3l157 248q12 18 11.5 33.5t-32.5 18.5l-47 2v43h254v-43l-64 -2q-17 1 -30.5 -14t-29.5 -42l-196 -307v-199q0 -25 7 -35t28 -12
l63 -4v-42h-270z" />
    <glyph glyph-name="Z" unicode="Z" horiz-adv-x="696" 
d="M62 0v40l463 607h-278q-25 0 -44 -3.5t-34 -17t-27.5 -40.5t-26.5 -74l-42 -4l12 192h539v-42l-459 -606h260q34 0 59 5.5t43.5 21t32.5 44t29 74.5h43l-21 -197h-549z" />
    <glyph glyph-name="bracketleft" unicode="[" horiz-adv-x="358" 
d="M121 -212v1024h193l3 -45l-95 -5q-21 -1 -26 -12.5t-5 -38.5v-823q0 -29 5.5 -38t25.5 -11l95 -6l-3 -45h-193z" />
    <glyph glyph-name="backslash" unicode="\" horiz-adv-x="470" 
d="M367 -110l-338 912h73l339 -912h-74z" />
    <glyph glyph-name="bracketright" unicode="]" horiz-adv-x="368" 
d="M54 -212l-3 45l96 6q21 2 25.5 11t4.5 38v823q0 27 -4 38.5t-27 12.5l-95 5l3 45h193v-1024h-193z" />
    <glyph glyph-name="asciicircum" unicode="^" horiz-adv-x="620" 
d="M92 347l-45 27l244 338h39l243 -338l-44 -27l-219 299z" />
    <glyph glyph-name="underscore" unicode="_" horiz-adv-x="470" 
d="M0 -84v50h470v-50h-470z" />
    <glyph glyph-name="grave" unicode="`" horiz-adv-x="500" 
d="M285 593l-120 90q-18 14 -26 26t-8 25q0 10 4.5 19t13.5 15t19 6t19 -6t19 -19l106 -129z" />
    <glyph glyph-name="a" unicode="a" horiz-adv-x="586" 
d="M220 -14q-67 0 -109 36.5t-42 99.5q0 58 29 93.5t98.5 53.5t190.5 22v77q0 36 -12.5 60.5t-41.5 37.5t-75 13q-32 0 -60 -8t-42 -22q11 -16 17 -27.5t9 -19t3 -13.5q0 -20 -17 -32t-38 -12q-26 0 -41 14t-15 44q0 36 28 65t73 46t94 17q66 0 108 -20t61.5 -58.5
t19.5 -95.5v-257q0 -27 13.5 -40.5t38.5 -13.5q16 0 30.5 3.5t27.5 9.5l13 -38q-16 -15 -42.5 -25t-56.5 -10q-39 0 -61 21t-28 65q-21 -29 -47 -48t-58 -28.5t-68 -9.5zM246 47q37 0 69 14.5t52 40.5t20 57v78q-88 -1 -140.5 -11.5t-77 -32.5t-24.5 -59q0 -45 27.5 -66
t73.5 -21z" />
    <glyph glyph-name="b" unicode="b" horiz-adv-x="655" 
d="M145 -11l-23 6v658q0 37 -8.5 48.5t-40.5 13.5l-57 4l5 42l160 5l12 -11v-314l3 3q21 31 48 49.5t59.5 28t69.5 9.5q67 0 116 -30t75 -86.5t26 -138.5q0 -88 -29 -153.5t-86 -101t-141 -35.5q-36 0 -77 12t-74 32zM335 42q50 0 91 24t65.5 74t24.5 129q0 76 -19 119.5
t-54.5 62.5t-82.5 19t-85 -18t-60 -51t-22 -82v-234q28 -20 66 -31.5t76 -11.5z" />
    <glyph glyph-name="c" unicode="c" horiz-adv-x="548" 
d="M301 -14q-75 0 -127.5 31t-81 91t-28.5 146q0 89 30 150.5t84 94t125 32.5q55 0 98 -16.5t68 -45t25 -66.5q0 -21 -8.5 -35.5t-21 -22t-29.5 -7.5q-27 0 -39.5 13t-12.5 30q0 12 6.5 26.5t19.5 37.5q-16 13 -43.5 22t-59.5 9q-48 0 -86 -18.5t-61 -62.5t-23 -123
q0 -127 50.5 -175t125.5 -48q50 0 87.5 19t67.5 42l31 -35q-37 -42 -87.5 -65.5t-109.5 -23.5z" />
    <glyph glyph-name="d" unicode="d" horiz-adv-x="664" 
d="M285 -14q-71 0 -120 30t-74.5 88.5t-25.5 141.5q0 89 31 152.5t88.5 98t136.5 34.5q39 0 77 -9.5t63 -24.5v158q0 34 -8 46t-38 14l-60 4l5 42l160 5l12 -11v-668q0 -18 5 -31t30 -14l58 -3v-42l-144 -5l-11 78h-8q-20 -26 -46.5 -45.5t-59 -29t-71.5 -9.5zM302 49
q48 0 83.5 20t55.5 53.5t20 76.5v234q-27 20 -64 31t-81 11q-54 0 -93.5 -24.5t-61 -73.5t-21.5 -123q0 -67 18 -112.5t54.5 -69t89.5 -23.5z" />
    <glyph glyph-name="e" unicode="e" horiz-adv-x="552" 
d="M306 -14q-74 0 -128.5 32t-84 91.5t-29.5 141.5q0 86 29 148.5t81.5 97t127.5 34.5q61 0 103 -22.5t64.5 -63t22.5 -96.5q0 -26 -0.5 -49t-3.5 -49h-351q2 -71 25 -115t64.5 -64.5t95.5 -20.5q41 0 79 14.5t69 41.5l30 -33q-37 -42 -87.5 -65t-106.5 -23zM138 306h281
q2 13 2 24v25q0 53 -31 85.5t-92 32.5q-45 0 -79.5 -19t-54.5 -56t-26 -92z" />
    <glyph glyph-name="f" unicode="f" horiz-adv-x="402" 
d="M63 0v43l48 2q17 1 25.5 10t8.5 37v373h-84v41l84 10v39q0 59 12.5 101.5t36.5 70.5t56.5 41.5t72.5 13.5q37 0 68 -11t49 -31.5t18 -52.5q0 -25 -13.5 -41.5t-39.5 -16.5q-20 0 -32 9t-12 25q0 10 5 22t18 33q-13 7 -27.5 11t-36.5 4q-36 0 -59.5 -18.5t-34 -51.5
t-10.5 -78v-68h160v-52h-160v-370q0 -23 6.5 -35t27.5 -14l82 -5v-41h-269z" />
    <glyph glyph-name="g" unicode="g" horiz-adv-x="580" 
d="M270 -230q-51 0 -94 7.5t-75 23t-49.5 39.5t-17.5 58q0 25 10.5 45.5t31 39.5t51.5 35v3q-23 12 -38.5 31t-15.5 43q0 25 17 54t52 62v3q-41 23 -60.5 57.5t-19.5 80.5q0 53 25.5 93t72 62t111.5 22q25 0 47 -3.5t40.5 -9.5t33.5 -15q18 50 47.5 71.5t65.5 21.5
q20 0 34.5 -7t22 -17.5t7.5 -23.5q0 -20 -16 -35.5t-35 -15.5q-13 0 -23 6t-19 20l-12 18q-11 -13 -18.5 -29t-14.5 -37q22 -22 33.5 -51.5t11.5 -61.5q0 -55 -25.5 -94t-72 -60t-107.5 -21q-25 0 -44 2.5t-34 6.5q-18 -17 -33.5 -38.5t-15.5 -40.5q0 -16 9.5 -26.5
t27.5 -16t41 -5.5h146q75 0 123.5 -25.5t48.5 -92.5q0 -38 -14.5 -67.5t-41 -50.5t-61 -34.5t-73.5 -20t-80 -6.5zM274 -170q56 0 99 12.5t68 36t25 56.5t-26 49.5t-77 16.5h-194q-27 -16 -44.5 -38.5t-17.5 -50.5q0 -38 40.5 -60t126.5 -22zM269 244q64 0 98.5 29.5
t34.5 83.5q0 50 -36 81.5t-102 31.5q-60 0 -94.5 -31t-34.5 -82t37 -82t97 -31z" />
    <glyph glyph-name="h" unicode="h" horiz-adv-x="708" 
d="M62 0v42l56 4q18 1 23.5 11t5.5 36v563q0 32 -8 44t-36 14l-62 5l5 42l160 5l12 -11v-320l1 4q28 43 79 67.5t107 24.5q55 0 94 -19t60 -56.5t21 -93.5v-275q0 -16 4.5 -28.5t28.5 -13.5l55 -3v-42h-237v43l45 2q19 1 26 8.5t7 33.5v250q0 43 -11 71.5t-38.5 44
t-74.5 15.5q-48 0 -86 -18.5t-59.5 -52t-21.5 -77.5v-229q0 -22 5.5 -32t21.5 -11l56 -5v-43h-239z" />
    <glyph glyph-name="i" unicode="i" horiz-adv-x="355" 
d="M58 0v41l62 4q18 1 25 11.5t7 38.5v312q0 36 -7.5 47.5t-30.5 12.5l-62 4l6 43l152 12l13 -8v-427q0 -21 5 -32.5t26 -13.5l63 -3v-42h-259zM172 627q-27 0 -42 15.5t-15 39.5q0 25 15.5 41.5t41.5 16.5t41.5 -15t15.5 -40q0 -24 -15 -41t-42 -17z" />
    <glyph glyph-name="j" unicode="j" horiz-adv-x="314" 
d="M70 -229l-19 29q25 19 42 39.5t28.5 46t16.5 59t5 79.5v380q0 37 -7.5 49.5t-30.5 13.5l-62 4l6 43l152 12l13 -8v-424q0 -68 -5.5 -117.5t-20.5 -86.5t-43.5 -65t-74.5 -54zM163 627q-27 0 -42 15.5t-15 39.5q0 25 15.5 41.5t41.5 16.5t41.5 -15t15.5 -40q0 -24 -15 -41
t-42 -17z" />
    <glyph glyph-name="k" unicode="k" horiz-adv-x="644" 
d="M547 -8q-29 0 -50.5 8t-40 24.5t-38.5 38.5l-183 212l1 7l189 149q15 12 14 25.5t-20 14.5l-43 3l10 43h220v-41h-26q-25 -2 -43.5 -12t-38.5 -27l-178 -149l160 -186q24 -29 46.5 -41.5t45.5 -12.5q14 0 27.5 3t26.5 8l12 -30q-21 -18 -44.5 -27.5t-46.5 -9.5zM64 0v42
l55 3q17 2 22.5 12t5.5 34v566q0 31 -7.5 43t-34.5 14l-64 5l5 42l160 5l12 -11v-665q0 -22 5.5 -33t22.5 -12l54 -4v-41h-236z" />
    <glyph glyph-name="l" unicode="l" horiz-adv-x="352" 
d="M69 0v41l48 4q16 1 23 9.5t7 36.5v566q0 31 -8 43.5t-34 13.5l-64 5l4 42l161 5l12 -11v-667q0 -25 5.5 -33.5t23.5 -10.5l54 -2v-42h-232z" />
    <glyph glyph-name="m" unicode="m" horiz-adv-x="1044" 
d="M62 0v42l57 4q12 0 20 7.5t8 39.5v312q0 32 -6 45.5t-31 14.5l-58 4l6 43l133 12l12 -7l6 -85h5q21 34 50 56t63.5 32.5t70.5 10.5q62 0 103 -25t57 -78q27 48 80 75.5t109 27.5q50 0 87.5 -18t59 -56t21.5 -97v-274q0 -23 6.5 -31t27.5 -10l54 -3v-42h-242v43l48 2
q19 0 27 8t8 34v251q0 46 -11 74t-36 42t-67 14q-50 0 -86.5 -19.5t-57 -52.5t-20.5 -75v-231q0 -22 5.5 -31.5t26.5 -11.5l53 -4v-43h-234v43l43 2q18 1 27 8.5t9 36.5v246q0 44 -10 73t-35.5 44t-72.5 15q-46 0 -82.5 -19t-57 -52t-20.5 -75v-232q0 -21 5.5 -31t20.5 -11
l58 -4v-44h-240z" />
    <glyph glyph-name="n" unicode="n" horiz-adv-x="708" 
d="M62 0v42l57 4q13 0 20.5 9t7.5 39v314q0 32 -7 44t-30 13l-58 4l6 43l132 12l13 -7l6 -85h5q30 47 82 73t109 26q55 0 94 -19t59.5 -56.5t20.5 -93.5v-276q0 -20 6 -29.5t28 -11.5l54 -3v-42h-238v43l47 2q17 1 24.5 9t7.5 34v249q0 43 -10.5 71.5t-37.5 44t-74 15.5
q-49 0 -87 -18.5t-59.5 -52t-21.5 -77.5v-229q0 -24 5.5 -34t21.5 -11l56 -3v-43h-239z" />
    <glyph glyph-name="o" unicode="o" horiz-adv-x="622" 
d="M303 -14q-77 0 -130.5 32t-81 91t-27.5 141q0 87 30.5 150t87 97t135.5 34q77 0 131.5 -31.5t84 -90.5t29.5 -141q0 -89 -29 -152.5t-87 -96.5t-143 -33zM317 41q54 0 92.5 23.5t59 69t20.5 113.5q0 57 -12.5 100t-36.5 71t-58 42t-77 14q-52 0 -89.5 -23.5t-57.5 -70.5
t-20 -118q0 -72 22 -121.5t61.5 -74.5t95.5 -25z" />
    <glyph glyph-name="p" unicode="p" horiz-adv-x="667" 
d="M49 -216v43l57 3q13 1 21.5 9.5t8.5 37.5v519q0 38 -6.5 52.5t-32.5 16.5l-56 4l6 43l131 12l14 -7l6 -82h6q23 35 50.5 56t61.5 30.5t74 9.5q65 0 113 -29t74 -86.5t26 -143.5q0 -91 -30.5 -155t-86.5 -97.5t-131 -33.5q-39 0 -80 10.5t-68 24.5v-143q0 -23 6.5 -34.5
t27.5 -13.5l71 -4v-42h-263zM353 43q52 0 91.5 24t62 73.5t22.5 124.5t-19 119.5t-54 64.5t-83 20t-85.5 -18.5t-59 -52t-21.5 -79.5v-236q24 -18 65 -29t81 -11z" />
    <glyph glyph-name="q" unicode="q" horiz-adv-x="642" 
d="M360 -216v41l68 5q20 2 26.5 12.5t6.5 34.5v190l-3 -1q-23 -31 -51 -49t-58 -24.5t-62 -6.5q-71 0 -120.5 29.5t-75.5 87.5t-26 144q0 92 31.5 155t89 96t135.5 33q29 0 56.5 -5.5t52.5 -14.5t43 -21l35 36l24 -7v-644q0 -29 9 -36.5t22 -8.5l57 -4v-42h-260zM304 49
q46 0 82 19.5t55.5 54.5t19.5 80v233q-28 17 -64.5 28t-82.5 11q-55 0 -94 -25.5t-59.5 -74t-20.5 -118.5q0 -101 42.5 -154.5t121.5 -53.5z" />
    <glyph glyph-name="r" unicode="r" horiz-adv-x="506" 
d="M62 0v42l54 3q18 2 24.5 12t6.5 35v317q0 33 -7 44.5t-30 12.5l-58 4l6 42l134 12l13 -7l4 -88h5q31 49 70 75.5t86 26.5t73 -23t26 -63q0 -22 -6 -38t-19 -24t-33 -8q-23 0 -35.5 10.5t-12.5 28.5q0 7 2 14.5t6.5 18t12.5 25.5q-28 12 -57 3.5t-54 -31.5t-40 -54.5
t-15 -65.5v-234q0 -21 5 -33t24 -13l86 -3v-41h-271z" />
    <glyph glyph-name="s" unicode="s" horiz-adv-x="492" 
d="M61 -14l-10 168l45 3q13 -39 35.5 -64.5t53 -38.5t69.5 -13q54 0 83 25.5t29 64.5q0 28 -11.5 46.5t-40.5 32t-85 25.5q-39 9 -69 20.5t-50.5 29t-31.5 41.5t-11 57q0 44 22.5 78t61 52t87.5 18q35 0 68.5 -10.5t55.5 -28.5l8 39h42l8 -155l-49 4q-10 45 -45.5 72.5
t-86.5 27.5q-49 0 -75 -21t-26 -60q0 -33 15 -51.5t43 -29t68 -20.5q43 -10 76 -23.5t54.5 -30.5t32.5 -41.5t11 -57.5q0 -45 -23 -81t-64.5 -57t-95.5 -21q-43 0 -78.5 12t-62.5 31l-11 -43h-42z" />
    <glyph glyph-name="t" unicode="t" horiz-adv-x="431" 
d="M265 -14q-51 0 -80.5 19t-41.5 52.5t-12 77.5v330h-88v42q40 2 63.5 15t35.5 44.5t17 90.5l32 5l11 -6v-139h173v-52h-173v-330q0 -50 21 -70t60 -20q28 0 51.5 10.5t48.5 29.5l27 -37q-35 -33 -71 -47.5t-74 -14.5z" />
    <glyph glyph-name="u" unicode="u" horiz-adv-x="692" 
d="M306 -14q-82 0 -126.5 42.5t-44.5 126.5v249q0 32 -6 46t-31 16l-49 3l7 43l137 12l13 -7v-342q0 -40 9.5 -70t34.5 -46t71 -16q50 0 87.5 21.5t58 57.5t20.5 80v202q0 29 -5 44.5t-32 17.5l-51 3l6 43l140 12l13 -7v-426q0 -25 7 -35.5t27 -11.5l55 -2v-43l-147 -6
l-11 84h-2q-27 -33 -56.5 -53t-60.5 -29t-64 -9z" />
    <glyph glyph-name="v" unicode="v" horiz-adv-x="592" 
d="M265 0l-173 421q-9 20 -15 30.5t-14 15t-22 5.5l-37 2l9 43h221v-41l-45 -2q-22 -1 -26.5 -12t5.5 -37l137 -345h6l132 339q11 28 4.5 39.5t-29.5 13.5l-36 3l4 42h207v-41l-41 -2q-18 -1 -27 -10.5t-23 -44.5l-171 -419h-66z" />
    <glyph glyph-name="w" unicode="w" horiz-adv-x="890" 
d="M229 0l-136 420q-6 18 -11 28.5t-13 16t-25 6.5l-37 2l9 44h221v-42l-48 -1q-21 -1 -26 -12t4 -39l106 -343h5l137 437h75l136 -436h5l105 334q9 29 4 42t-27 15l-40 3l5 42h211v-42l-41 -2q-14 0 -26.5 -10t-24.5 -46l-135 -417h-82l-133 427h-4l-130 -427h-84z" />
    <glyph glyph-name="x" unicode="x" horiz-adv-x="612" 
d="M15 0v42h26q19 1 31 6t21 13.5t21 20.5l152 173l-137 165q-19 23 -31.5 36.5t-40.5 18.5l-35 4l8 38h235v-39l-44 -3q-24 -1 -29.5 -11t13.5 -33l107 -129l103 129q13 16 14 28.5t-32 15.5l-41 4l9 40h221v-39l-38 -4q-14 -2 -24 -6t-19.5 -14t-24.5 -29l-135 -165
l139 -168q14 -17 26 -28.5t27 -17t36 -7.5h25v-41h-254v42l45 2q26 2 28.5 13.5t-14.5 32.5l-105 126l-105 -126q-9 -10 -14.5 -19.5t0 -17t28.5 -8.5l47 -2v-43h-239z" />
    <glyph glyph-name="y" unicode="y" horiz-adv-x="614" 
d="M123 -230q-45 0 -71.5 22t-26.5 56q0 25 17.5 41t41.5 16q22 0 36.5 -10t14.5 -25q1 -7 0.5 -14.5t-5.5 -34.5q22 -2 40 9t37.5 41.5t45.5 86.5l26 57l-181 406q-13 29 -20 39.5t-25 11.5l-43 2l9 43h231v-41l-51 -2q-17 -1 -24.5 -10t4.5 -39l139 -327h4l138 321
q10 23 5.5 37t-29.5 16l-43 3l6 42h211v-41l-40 -2q-17 -1 -26.5 -10.5t-24.5 -44.5l-218 -486q-20 -43 -38 -74t-38.5 -50.5t-45.5 -29t-56 -9.5z" />
    <glyph glyph-name="z" unicode="z" horiz-adv-x="535" 
d="M57 0v36l322 431h-151q-41 0 -62.5 -7t-34 -32.5t-27.5 -80.5l-41 -4l13 172h401v-39l-321 -427h149q33 0 53 2t34.5 13.5t27.5 39t30 78.5h37l-16 -182h-414z" />
    <glyph glyph-name="braceleft" unicode="{" horiz-adv-x="383" 
d="M275 -227q-60 0 -93 32.5t-33 84.5q0 25 3 62t7 79t7 80.5t3 65.5q0 45 -12.5 66t-35 27.5t-54.5 6.5v49q32 2 54.5 7.5t35 27.5t12.5 67q0 27 -3 64.5t-7 77t-7 74.5t-3 59q0 55 32.5 87.5t88.5 32.5q17 0 33.5 -2.5t31.5 -7.5l-7 -40q-13 2 -23.5 3t-24.5 1
q-17 0 -30 -7.5t-20 -24.5t-7 -45q0 -15 3 -48.5t7 -74t7 -78.5t3 -63q0 -47 -13 -73.5t-33 -39t-45 -21.5q24 -8 44.5 -21t33.5 -39t13 -73q0 -24 -3 -63.5t-7 -81.5t-7 -77t-3 -50q0 -28 7 -45.5t21 -25.5t34 -8q13 0 25 1.5t23 2.5l7 -40q-15 -4 -31.5 -6.5t-33.5 -2.5z
" />
    <glyph glyph-name="bar" unicode="|" horiz-adv-x="473" 
d="M203 -110v912h67v-912h-67z" />
    <glyph glyph-name="braceright" unicode="}" horiz-adv-x="383" 
d="M108 -227q-17 0 -33.5 2.5t-31.5 6.5l8 40q11 -1 22.5 -2.5t24.5 -1.5q20 0 34 8t21 25.5t7 45.5q0 15 -3 50t-7 77t-7 81.5t-3 63.5q0 47 13 73.5t33.5 40t44.5 21.5q-22 8 -43 20.5t-34.5 38.5t-13.5 73q0 25 3 63t7 78.5t7 74t3 49.5q0 28 -7 44.5t-19.5 24.5t-30.5 8
q-14 0 -24 -1t-23 -3l-8 40q16 4 32.5 6.5t32.5 2.5q59 0 90 -32.5t31 -87.5q0 -24 -3 -59t-7 -74.5t-7 -77t-3 -64.5q0 -45 12.5 -66.5t35.5 -27t54 -6.5v-50q-32 0 -55 -7t-35 -28t-12 -66q0 -27 3 -65.5t6.5 -80t7 -78t3.5 -59.5q0 -55 -33.5 -88t-92.5 -33z" />
    <glyph glyph-name="asciitilde" unicode="~" horiz-adv-x="620" 
d="M132 238l-44 16q15 35 29.5 55.5t30.5 29.5t38 9q27 0 58.5 -4.5t73.5 -16.5q44 -11 68 -15.5t44 -4.5q24 0 34.5 10t23.5 35l44 -16q-16 -36 -31 -56.5t-31.5 -29t-37.5 -8.5q-32 0 -65 6t-90 20q-36 9 -54 12t-34 3q-22 0 -32.5 -9t-24.5 -36z" />
    <glyph glyph-name="uni00A0" unicode="&#xa0;" horiz-adv-x="245" 
 />
    <glyph glyph-name="exclamdown" unicode="&#xa1;" horiz-adv-x="326" 
d="M184 322v-80q0 -47 3.5 -91t7.5 -83t8 -73t7.5 -63t3.5 -53q0 -21 -6.5 -38t-19 -26.5t-33.5 -9.5q-29 0 -41.5 20t-12.5 54q0 26 5 60.5t10.5 80t10.5 101t5 122.5v79h52zM164 531q28 0 46 -18t18 -46t-18 -46.5t-46 -18.5q-30 0 -48 18t-18 46t18 46.5t48 18.5z" />
    <glyph glyph-name="cent" unicode="&#xa2;" horiz-adv-x="583" 
d="M191 -30l142 685h54l-142 -685h-54zM301 40q-75 0 -127.5 31t-81 91t-28.5 146q0 89 30 150.5t84 94t125 32.5q55 0 98 -16.5t68 -45t25 -66.5q0 -21 -8.5 -35.5t-21 -22t-29.5 -7.5q-27 0 -39.5 13t-12.5 30q0 12 6.5 26.5t19.5 37.5q-16 13 -43.5 22t-59.5 9
q-48 0 -86 -18.5t-61 -62.5t-23 -123q0 -127 50.5 -175t125.5 -48q50 0 87.5 19t67.5 42l31 -35q-37 -42 -87.5 -65.5t-109.5 -23.5z" />
    <glyph glyph-name="sterling" unicode="&#xa3;" horiz-adv-x="605" 
d="M65 0l-6 41q53 18 82.5 40t41 52t11.5 70q0 30 -7.5 56t-19.5 51h-119l6 52h89q-15 33 -27 70t-12 82q0 63 26.5 108t76 69.5t117.5 24.5q56 0 98 -15.5t65.5 -44t23.5 -67.5q0 -30 -15.5 -45.5t-42.5 -15.5q-23 0 -37.5 11t-14.5 32q0 9 3 17t9 18.5t16 26.5
q-19 16 -47 23.5t-62 7.5q-69 0 -105 -35t-36 -100q0 -32 7 -61t18.5 -55t22.5 -51h209v-52h-187q9 -19 13.5 -40t4.5 -44q0 -50 -23.5 -94.5t-66.5 -69.5l1 -3h173q36 0 58 3.5t37.5 16.5t26 37.5t22.5 67.5h47l-28 -184h-449z" />
    <glyph glyph-name="currency" unicode="&#xa4;" horiz-adv-x="580" 
d="M484 111l-90 64q-22 -13 -49 -19.5t-57 -6.5q-31 0 -57 7t-47 18l-87 -62l-33 33l64 75q-17 22 -26.5 49.5t-9.5 56.5q0 31 9.5 59.5t26.5 49.5l-65 76l33 33l86 -61q24 15 53.5 23t61.5 8q27 0 53.5 -6t50.5 -21l84 61l33 -33l-63 -73q18 -24 26 -50.5t8 -55.5
q0 -34 -11 -62.5t-28 -51.5l67 -78zM292 204q39 0 66.5 16.5t42 45.5t14.5 65q0 60 -31.5 93.5t-92.5 33.5q-55 0 -90 -33t-35 -94q0 -55 32.5 -91t93.5 -36z" />
    <glyph glyph-name="yen" unicode="&#xa5;" horiz-adv-x="770" 
d="M235 0v42l64 4q17 1 25 10t8 41v103h-197l5 49h192v48l-26 40h-168l5 49h130l-140 217q-14 21 -26.5 33.5t-38.5 16.5l-41 6v41h271v-42l-58 -1q-24 0 -30.5 -14.5t9.5 -36.5l161 -251h3l158 248q11 18 11 33.5t-32 18.5l-47 2v43h253v-43l-63 -2q-18 1 -31 -14t-30 -42
l-135 -213h165v-51h-198l-28 -43v-43h226v-49h-226v-107q0 -25 7 -35t29 -12l63 -4v-42h-270z" />
    <glyph glyph-name="brokenbar" unicode="&#xa6;" horiz-adv-x="473" 
d="M203 -110v395h68l-1 -395h-67zM203 437v366h68l-1 -366h-67z" />
    <glyph glyph-name="section" unicode="&#xa7;" horiz-adv-x="652" 
d="M303 -156q-47 0 -80 12t-51 34t-18 50q0 22 9 38t24.5 25t36.5 9q20 0 32.5 -11t12.5 -29q0 -12 -4.5 -23.5t-11 -22t-13.5 -20.5q7 -3 17.5 -5.5t23 -4t28.5 -1.5q36 0 63 9.5t42 28.5t15 46q0 32 -21.5 59.5t-59.5 54.5t-91 56q-47 26 -80 51t-54 50.5t-31 52t-10 56.5
q0 44 27.5 82.5t76.5 62.5q-7 15 -10.5 31.5t-3.5 32.5q0 45 23.5 77.5t65.5 50.5t95 18q45 0 77.5 -12t50 -33.5t17.5 -50.5q0 -20 -7.5 -36t-22.5 -25t-35 -9q-23 0 -37 10t-14 29q0 8 3.5 17t10 20.5t16.5 27.5q-7 4 -17 6t-21.5 3.5t-24.5 1.5q-48 0 -80 -20t-32 -61
q0 -33 19.5 -60t58 -54t94.5 -59q43 -25 75.5 -49.5t54.5 -49.5t32.5 -52t10.5 -57q0 -43 -28 -82.5t-77 -64.5q7 -14 11 -30.5t4 -32.5q0 -44 -24.5 -77t-68 -51.5t-99.5 -18.5zM455 97q27 12 44.5 35.5t17.5 57.5q0 27 -14.5 51t-43 47.5t-71.5 47.5t-76.5 45t-57.5 40.5
t-44 40.5q-26 -12 -43 -34.5t-17 -52.5q0 -22 8.5 -42.5t26.5 -39.5t43.5 -37.5t59.5 -37.5q54 -31 96.5 -60t70.5 -61z" />
    <glyph glyph-name="dieresis" unicode="&#xa8;" horiz-adv-x="500" 
d="M348 627q-25 0 -39 15t-14 38q0 24 14.5 40t39.5 16t39 -14.5t14 -38.5q0 -23 -14.5 -39.5t-39.5 -16.5zM152 627q-24 0 -38 15t-14 38q0 24 14 40t39 16t39 -14.5t14 -38.5q0 -23 -14 -39.5t-40 -16.5z" />
    <glyph glyph-name="copyright" unicode="&#xa9;" horiz-adv-x="854" 
d="M426 -20q-117 0 -196 42.5t-119 116.5t-40 168q0 83 28.5 146t78.5 107t114 66.5t136 22.5q83 0 149 -23.5t112 -66.5t70 -103.5t24 -133.5q0 -79 -26.5 -142.5t-75 -108t-113.5 -68t-142 -23.5zM428 27q68 0 123 19.5t94 57.5t60 92.5t21 122.5q0 93 -38 156t-105.5 95
t-154.5 32q-86 0 -154.5 -34.5t-107.5 -100t-39 -159.5q0 -67 21.5 -119.5t61.5 -88t95 -54.5t123 -19zM428 99q-66 0 -110 29t-66 78t-22 106q0 69 26.5 117t71.5 73t102 25q28 0 54 -10.5t39 -21.5l7 32h28l25 -134l-34 -6q-18 53 -48 74.5t-73 21.5q-37 0 -66 -20.5
t-45.5 -57.5t-16.5 -91q0 -38 9.5 -69t27 -53t42.5 -34.5t56 -12.5q45 0 73 14t57 42l27 -25q-20 -24 -43 -41t-52.5 -26.5t-68.5 -9.5z" />
    <glyph glyph-name="ordfeminine" unicode="&#xaa;" horiz-adv-x="415" 
d="M153 362q-28 0 -54 10t-42.5 32t-16.5 57q0 50 31 75t87 33q24 5 53.5 7t54.5 2v39q0 29 -10.5 45.5t-29.5 24.5t-46 8q-25 0 -39 -4.5t-26 -13.5q6 -13 9.5 -23t3.5 -17q0 -11 -11.5 -21t-31.5 -10t-31 12.5t-11 31.5q0 25 19.5 45.5t53 33.5t75.5 13q41 0 71 -12.5
t47 -41t17 -77.5v-166q0 -17 8 -26t25 -9q8 0 17 2t19 6l10 -31q-13 -11 -30 -18t-39 -7q-31 0 -46.5 14.5t-18.5 40.5q-22 -28 -50.5 -41.5t-67.5 -13.5zM174 413q21 0 42 10.5t35.5 29t14.5 45.5v37q-44 0 -81.5 -5.5t-59.5 -20t-22 -43.5q0 -30 18.5 -41.5t52.5 -11.5z
" />
    <glyph glyph-name="guillemotleft" unicode="&#xab;" horiz-adv-x="546" 
d="M464 58l-181 167q-9 10 -14.5 18.5t-5.5 20.5t5.5 20.5t16.5 18.5l178 168l36 -27l-141 -177l143 -181zM266 58l-181 167q-9 10 -14.5 18.5t-5.5 20.5t5.5 20.5t16.5 18.5l178 168l36 -27l-141 -177l143 -181z" />
    <glyph glyph-name="logicalnot" unicode="&#xac;" horiz-adv-x="620" 
d="M455 149v161h-354v62h418v-223h-64z" />
    <glyph glyph-name="uni00AD" unicode="&#xad;" horiz-adv-x="375" 
d="M62 260v61h250v-61h-250z" />
    <glyph glyph-name="registered" unicode="&#xae;" horiz-adv-x="529" 
d="M264 389q-63 0 -106 22.5t-64.5 63.5t-21.5 94q0 61 26.5 103t70.5 64t97 22q87 0 139 -48.5t52 -133.5q0 -57 -25 -99t-68.5 -65t-99.5 -23zM353 457q12 0 21.5 3t13.5 7l-7 13q-2 -2 -5.5 -2.5t-9.5 -0.5q-7 0 -13.5 4.5t-8.5 15.5l-5 23q-5 20 -17 35t-39 19v2
q14 1 30 6.5t28 18t12 33.5q0 32 -27 45t-70 13h-97l2 -18l18 -1q9 -1 12 -5t3 -13v-157q0 -7 -2.5 -12t-12.5 -7l-16 -1v-17h96v17l-19 1q-8 1 -11 5.5t-3 13.5v67h24q18 0 30 -9t20 -35l8 -29q4 -18 15 -26.5t30 -8.5zM226 587v85h25q20 0 44.5 -5t24.5 -34
q0 -25 -17.5 -35.5t-46.5 -10.5h-30z" />
    <glyph glyph-name="macron" unicode="&#xaf;" horiz-adv-x="500" 
d="M111 640v66h278v-66h-278z" />
    <glyph glyph-name="degree" unicode="&#xb0;" horiz-adv-x="357" 
d="M178 550q-66 0 -96.5 33.5t-30.5 83.5q0 46 32 80.5t97 34.5q62 0 94 -31.5t32 -82.5q0 -48 -32.5 -83t-95.5 -35zM180 594q37 0 57 21t20 51q0 34 -21 53.5t-59 19.5q-37 0 -56.5 -20.5t-19.5 -51.5t19 -52t60 -21z" />
    <glyph glyph-name="plusminus" unicode="&#xb1;" horiz-adv-x="620" 
d="M275 141v166h-174v61h174v153h64v-153h180v-61h-180v-166h-64zM101 1v62h418v-62h-418z" />
    <glyph glyph-name="uni00B2" unicode="&#xb2;" horiz-adv-x="407" 
d="M39 374l-4 36q74 66 123 111t76.5 77t39.5 58t12 53q0 37 -26 58.5t-80 21.5q-29 0 -46 -5t-33 -13q10 -14 16 -25.5t6 -20.5q0 -12 -10.5 -23.5t-31.5 -11.5q-25 0 -36.5 15.5t-11.5 33.5q0 30 19.5 52.5t54.5 35t79 12.5q51 0 88.5 -14.5t58 -43t20.5 -69.5
q0 -28 -10.5 -55.5t-36 -59.5t-70 -73t-112.5 -96h121q27 0 41 7.5t23 27.5t20 56h36l-14 -145h-312z" />
    <glyph glyph-name="uni00B3" unicode="&#xb3;" horiz-adv-x="404" 
d="M197 362q-58 0 -93.5 16t-53.5 36.5t-27 35.5l38 32q12 -15 27 -31t39 -26.5t60 -10.5q40 0 64 11.5t35.5 31t11.5 41.5q0 31 -15 50t-47 27t-83 6l4 49q68 5 97 31t29 60q0 32 -24 50t-73 18q-29 0 -46 -5t-36 -16q8 -12 14 -23t6 -20q0 -13 -11 -23.5t-31 -10.5
q-24 0 -36 14.5t-12 34.5q0 26 20.5 48.5t56.5 36.5t83 14q46 0 80.5 -14t53.5 -40t19 -62q0 -39 -25.5 -68.5t-65.5 -39.5v-3q49 -9 79.5 -35.5t30.5 -78.5q0 -42 -23 -73t-61.5 -47t-84.5 -16z" />
    <glyph glyph-name="acute" unicode="&#xb4;" horiz-adv-x="500" 
d="M216 593l-26 27l105 129q11 13 20 19t18 6q11 0 19.5 -6t13 -15t4.5 -19q0 -13 -7.5 -25t-26.5 -26z" />
    <glyph glyph-name="uni00B5" unicode="&#xb5;" horiz-adv-x="659" 
d="M112 -222l-13 7q-3 27 -5.5 66t-4 86.5t-1.5 102.5v24.5v46.5v68t-0.5 90.5t-0.5 113v135.5l72 6l13 -7q-1 -47 -3 -104t-3.5 -116t-2.5 -115.5t-1 -101.5q19 -18 50 -27.5t66 -9.5q72 0 116.5 44.5t44.5 114.5v41.5t-1 45.5t-1 50t-1 54.5t-1 60t-1 65.5l69 5l13 -7
q-2 -19 -3.5 -53t-3.5 -77t-3 -92t-2 -101t-1 -101q0 -13 6.5 -23.5t19 -17t30.5 -6.5q13 0 28 3.5t29 9.5l12 -38q-18 -16 -44 -25.5t-52 -9.5q-24 0 -43 12.5t-30 35t-13 51.5h-3q-27 -50 -69 -74.5t-101 -24.5q-35 0 -63.5 9.5t-45.5 27.5h-3q1 -42 3.5 -85.5t6.5 -83
t9 -72.5z" />
    <glyph glyph-name="paragraph" unicode="&#xb6;" horiz-adv-x="586" 
d="M245 -144v44l80 6q22 2 29.5 15.5t7.5 40.5v738h164v-45l-57 -5q-22 -1 -29 -15.5t-7 -40.5v-738h-188zM290 238q-69 0 -119 27t-77 78.5t-27 125.5q0 75 26 126.5t76.5 78t122.5 26.5h9v-462h-11z" />
    <glyph glyph-name="periodcentered" unicode="&#xb7;" horiz-adv-x="306" 
d="M153 250q-27 0 -44.5 17t-17.5 44t17.5 44.5t44.5 17.5q28 0 45 -17t17 -44t-17 -44.5t-45 -17.5z" />
    <glyph glyph-name="cedilla" unicode="&#xb8;" horiz-adv-x="500" 
d="M248 -229q-44 0 -71.5 13t-38.5 23l23 41q14 -9 37.5 -18t41.5 -9q22 0 39 9.5t17 34.5q0 24 -16.5 32t-43.5 8q-10 0 -17.5 -0.5t-14.5 -2.5l-8 21l35 90h47l-28 -68q33 1 56 -8t36.5 -26.5t13.5 -45.5q0 -27 -11.5 -48t-35.5 -33.5t-61 -12.5z" />
    <glyph glyph-name="uni00B9" unicode="&#xb9;" horiz-adv-x="308" 
d="M48 374v35l65 5q15 2 19.5 10t4.5 23v290q0 21 -4.5 31.5t-26.5 10.5l-60 2l4 32l143 20l8 -7v-381q0 -15 4.5 -22t20.5 -9l62 -5v-35h-240z" />
    <glyph glyph-name="ordmasculine" unicode="&#xba;" horiz-adv-x="426" 
d="M210 362q-59 0 -97.5 25t-57 67t-18.5 92q0 71 25 114t66.5 62.5t92.5 19.5q49 0 87 -21t59.5 -61.5t21.5 -99.5q0 -64 -21.5 -108t-62 -67t-95.5 -23zM220 410q35 0 59 16t36 46t12 73q0 47 -13 80t-39 51.5t-67 18.5q-33 0 -58 -14t-38.5 -42t-13.5 -73q0 -48 12.5 -83
t40 -54t69.5 -19z" />
    <glyph glyph-name="guillemotright" unicode="&#xbb;" horiz-adv-x="547" 
d="M85 59l-37 26l140 177l-143 182l39 28l180 -167q9 -9 14.5 -18t5.5 -21q0 -11 -5 -20t-17 -19zM283 59l-37 26l140 177l-143 182l39 28l180 -167q9 -9 14.5 -18t5.5 -21q0 -11 -5 -20t-17 -19z" />
    <glyph glyph-name="onequarter" unicode="&#xbc;" horiz-adv-x="898" 
d="M48 259v35l65 5q15 2 19.5 10t4.5 23v290q0 21 -4.5 31.5t-26.5 10.5l-60 2l4 32l143 20l8 -7v-381q0 -15 4.5 -22t20.5 -9l62 -5v-35h-240zM218 -14l417 728h72l-416 -728h-73zM740 0v96h-237l-8 41l239 321l60 7l8 -6v-317h78v-46h-78v-96h-62zM566 142h174v218v11z
" />
    <glyph glyph-name="onehalf" unicode="&#xbd;" horiz-adv-x="990" 
d="M48 259v35l65 5q15 2 19.5 10t4.5 23v290q0 21 -4.5 31.5t-26.5 10.5l-60 2l4 32l143 20l8 -7v-381q0 -15 4.5 -22t20.5 -9l62 -5v-35h-240zM217 -14l417 728h72l-416 -728h-73zM622 13l-4 36q74 66 123 111t76.5 77t39.5 58t12 53q0 37 -26 58.5t-80 21.5q-29 0 -46 -5
t-33 -13q10 -14 16 -25.5t6 -20.5q0 -12 -10.5 -23.5t-31.5 -11.5q-25 0 -36.5 15.5t-11.5 33.5q0 30 19.5 52.5t54.5 35t79 12.5q51 0 88.5 -14.5t58 -43t20.5 -69.5q0 -28 -10.5 -55.5t-36 -59.5t-70 -73t-112.5 -96h121q27 0 41 7.5t23 27.5t20 56h36l-14 -145h-312z" />
    <glyph glyph-name="threequarters" unicode="&#xbe;" horiz-adv-x="939" 
d="M260 -14l417 728h72l-416 -728h-73zM781 0v96h-237l-8 41l239 321l60 7l8 -6v-317h78v-46h-78v-96h-62zM607 142h174v218v11zM197 237q-58 0 -93.5 16t-53.5 36.5t-27 35.5l38 32q12 -15 27 -31t39 -26.5t60 -10.5q40 0 64 11.5t35.5 31t11.5 41.5q0 31 -15 50t-47 27
t-83 6l4 49q68 5 97 31t29 60q0 32 -24 50t-73 18q-29 0 -46 -5t-36 -16q8 -12 14 -23t6 -20q0 -13 -11 -23.5t-31 -10.5q-24 0 -36 14.5t-12 34.5q0 26 20.5 48.5t56.5 36.5t83 14q46 0 80.5 -14t53.5 -40t19 -62q0 -39 -25.5 -68.5t-65.5 -39.5v-3q49 -9 79.5 -35.5
t30.5 -78.5q0 -42 -23 -73t-61.5 -47t-84.5 -16z" />
    <glyph glyph-name="questiondown" unicode="&#xbf;" horiz-adv-x="573" 
d="M338 321v-108q0 -17 -5.5 -32.5t-22.5 -36.5t-48 -50q-44 -42 -63.5 -75t-19.5 -66q0 -40 34 -67.5t92 -27.5q36 0 63.5 9.5t44.5 30.5q-13 16 -20 28t-7 25q0 17 15.5 30.5t39.5 13.5q29 0 42.5 -16t13.5 -42q0 -39 -28 -69t-74.5 -47t-98.5 -17q-60 0 -103.5 19
t-67 53.5t-23.5 81.5q0 35 15 66.5t37 58.5t44 49q32 32 50.5 51.5t26 32t9.5 21.5t2 19v65h52zM317 530q28 0 46 -18t18 -46t-18 -46.5t-46 -18.5q-29 0 -47.5 18t-18.5 46t18.5 46.5t47.5 18.5z" />
    <glyph glyph-name="Agrave" unicode="&#xc0;" horiz-adv-x="763" 
d="M14 0v43l54 5q17 2 26.5 9.5t22.5 41.5l232 601h78l228 -604q8 -23 17 -35t31 -14l47 -4v-43h-260v43l62 4q16 1 24 9.5t-4 40.5l-48 132h-294l-49 -130q-8 -22 -4 -37t29 -17l60 -3v-42h-252zM248 284h257l-124 340h-7zM444 751l-143 74q-17 10 -27 21.5t-10 27.5
q0 15 10 29t24 14q9 0 17.5 -4.5t21.5 -15.5l129 -116z" />
    <glyph glyph-name="Aacute" unicode="&#xc1;" horiz-adv-x="763" 
d="M14 0v43l54 5q17 2 26.5 9.5t22.5 41.5l232 601h78l228 -604q8 -23 17 -35t31 -14l47 -4v-43h-260v43l62 4q16 1 24 9.5t-4 40.5l-48 132h-294l-49 -130q-8 -22 -4 -37t29 -17l60 -3v-42h-252zM248 284h257l-124 340h-7zM333 751l-22 30l128 116q14 11 22.5 15.5
t17.5 4.5q15 0 24.5 -14t9.5 -29q0 -16 -9.5 -27.5t-27.5 -21.5z" />
    <glyph glyph-name="Acircumflex" unicode="&#xc2;" horiz-adv-x="763" 
d="M14 0v43l54 5q17 2 26.5 9.5t22.5 41.5l232 601h78l228 -604q8 -23 17 -35t31 -14l47 -4v-43h-260v43l62 4q16 1 24 9.5t-4 40.5l-48 132h-294l-49 -130q-8 -22 -4 -37t29 -17l60 -3v-42h-252zM248 284h257l-124 340h-7zM250 745l-20 32l119 120q9 10 18.5 15.5t20.5 5.5
q10 0 19.5 -6t24.5 -21l113 -113l-21 -33l-136 88z" />
    <glyph glyph-name="Atilde" unicode="&#xc3;" horiz-adv-x="763" 
d="M14 0v43l54 5q17 2 26.5 9.5t22.5 41.5l232 601h78l228 -604q8 -23 17 -35t31 -14l47 -4v-43h-260v43l62 4q16 1 24 9.5t-4 40.5l-48 132h-294l-49 -130q-8 -22 -4 -37t29 -17l60 -3v-42h-252zM248 284h257l-124 340h-7zM463 779q-17 0 -35 5t-43 18q-21 12 -36 17.5
t-23.5 7.5t-15.5 2q-11 0 -19.5 -9t-23.5 -33l-36 21q15 32 29 48.5t28 23t30 6.5q20 0 38.5 -5.5t47.5 -19.5t44 -18.5t21 -4.5q10 0 18 8.5t21 33.5l36 -20q-15 -34 -28.5 -51t-26.5 -23.5t-26 -6.5z" />
    <glyph glyph-name="Adieresis" unicode="&#xc4;" horiz-adv-x="763" 
d="M14 0v43l54 5q17 2 26.5 9.5t22.5 41.5l232 601h78l228 -604q8 -23 17 -35t31 -14l47 -4v-43h-260v43l62 4q16 1 24 9.5t-4 40.5l-48 132h-294l-49 -130q-8 -22 -4 -37t29 -17l60 -3v-42h-252zM248 284h257l-124 340h-7zM482 773q-25 0 -39 15t-14 39t14.5 40t39.5 16
t39 -14.5t14 -38.5t-14 -40.5t-40 -16.5zM290 773q-25 0 -39 15t-14 39t14.5 40t39.5 16t39.5 -14.5t14.5 -38.5t-14.5 -40.5t-40.5 -16.5z" />
    <glyph glyph-name="Aring" unicode="&#xc5;" horiz-adv-x="763" 
d="M14 0v43l54 5q17 2 26.5 9.5t22.5 41.5l232 601h78l228 -604q8 -23 17 -35t31 -14l47 -4v-43h-260v43l62 4q16 1 24 9.5t-4 40.5l-48 132h-294l-49 -130q-8 -22 -4 -37t29 -17l60 -3v-42h-252zM248 284h257l-124 340h-7zM388 742q-63 0 -94 28t-31 78q0 31 15 55.5t43 40
t69 15.5q59 0 90 -28.5t31 -78.5q0 -33 -14.5 -58.5t-42 -38.5t-66.5 -13zM389 791q35 0 48 15t13 44q0 20 -6.5 34t-20 21t-37.5 7q-34 0 -48 -16.5t-14 -45.5q0 -18 6.5 -31.5t20.5 -20.5t38 -7z" />
    <glyph glyph-name="AE" unicode="&#xc6;" horiz-adv-x="1003" 
d="M14 0v43l43 5q8 1 14.5 3.5t13.5 12t17 28.5l276 561l-88 5v42h594l37 -163l-43 -13q-17 45 -31 70.5t-32 37t-42.5 14t-62.5 2.5h-131v-284h121q24 0 39 2.5t24 10.5t16 25t14 45l39 4v-220l-39 -6q-7 41 -18 59.5t-30 23.5t-54 5h-112v-260h167q38 0 63 5.5t41.5 20
t27.5 39.5t21 64h43l-22 -182h-516v42l69 4q18 1 25 11t7 40v216h-233l-102 -215q-6 -13 -8.5 -22.5t0 -16t10.5 -10t23 -4.5l50 -3v-42h-231zM297 364h208v284h-73z" />
    <glyph glyph-name="Ccedilla" unicode="&#xc7;" horiz-adv-x="738" 
d="M400 -229q-44 0 -71.5 13t-38.5 23l23 41q13 -9 37 -18t42 -9q22 0 39 9.5t17 34.5q0 24 -17 32t-44 8q-10 0 -17.5 -0.5t-14.5 -2.5l-8 21l26 64q-94 7 -161.5 52t-103.5 123.5t-36 186.5q0 87 23.5 154.5t68 114.5t105 71.5t134.5 24.5q61 0 105.5 -17.5t78.5 -47.5
l12 64h36l38 -224l-41 -10q-23 63 -54.5 102t-74 57.5t-99.5 18.5q-75 0 -131.5 -32.5t-87.5 -96.5t-31 -161q0 -78 18.5 -137.5t52.5 -99.5t81.5 -60.5t107.5 -20.5q48 0 88 11.5t75 36.5t69 64l36 -32q-21 -30 -45 -53t-50.5 -39.5t-54.5 -28t-58 -17.5q-14 -2 -27.5 -3.5
t-27.5 -1.5l-17 -41q32 1 55.5 -8t36.5 -26.5t13 -45.5q0 -27 -11.5 -48t-35 -33.5t-60.5 -12.5z" />
    <glyph glyph-name="Egrave" unicode="&#xc8;" horiz-adv-x="671" 
d="M72 0v42l69 4q18 1 25.5 11t7.5 40v509q0 24 -6 35t-30 12l-66 4v43h480l37 -163l-43 -13q-17 45 -31 70.5t-32 37t-42.5 14t-62.5 2.5h-131v-267h121q34 0 51 5t25 22.5t17 54.5l39 5v-218l-39 -6q-7 41 -17 59.5t-29 23.5t-56 5h-112v-279h167q38 0 63 5.5t41.5 20
t27.5 39.5t21 64h43l-22 -182h-516zM399 751l-143 74q-17 10 -27 21.5t-10 27.5q0 15 10 29t24 14q9 0 17.5 -4.5t21.5 -15.5l129 -116z" />
    <glyph glyph-name="Eacute" unicode="&#xc9;" horiz-adv-x="671" 
d="M72 0v42l69 4q18 1 25.5 11t7.5 40v509q0 24 -6 35t-30 12l-66 4v43h480l37 -163l-43 -13q-17 45 -31 70.5t-32 37t-42.5 14t-62.5 2.5h-131v-267h121q34 0 51 5t25 22.5t17 54.5l39 5v-218l-39 -6q-7 41 -17 59.5t-29 23.5t-56 5h-112v-279h167q38 0 63 5.5t41.5 20
t27.5 39.5t21 64h43l-22 -182h-516zM288 751l-22 30l128 116q14 11 22.5 15.5t17.5 4.5q15 0 24.5 -14t9.5 -29q0 -16 -9.5 -27.5t-27.5 -21.5z" />
    <glyph glyph-name="Ecircumflex" unicode="&#xca;" horiz-adv-x="671" 
d="M72 0v42l69 4q18 1 25.5 11t7.5 40v509q0 24 -6 35t-30 12l-66 4v43h480l37 -163l-43 -13q-17 45 -31 70.5t-32 37t-42.5 14t-62.5 2.5h-131v-267h121q34 0 51 5t25 22.5t17 54.5l39 5v-218l-39 -6q-7 41 -17 59.5t-29 23.5t-56 5h-112v-279h167q38 0 63 5.5t41.5 20
t27.5 39.5t21 64h43l-22 -182h-516zM205 745l-20 32l119 120q9 10 18.5 15.5t20.5 5.5q10 0 19.5 -6t24.5 -21l113 -113l-21 -33l-136 88z" />
    <glyph glyph-name="Edieresis" unicode="&#xcb;" horiz-adv-x="671" 
d="M72 0v42l69 4q18 1 25.5 11t7.5 40v509q0 24 -6 35t-30 12l-66 4v43h480l37 -163l-43 -13q-17 45 -31 70.5t-32 37t-42.5 14t-62.5 2.5h-131v-267h121q34 0 51 5t25 22.5t17 54.5l39 5v-218l-39 -6q-7 41 -17 59.5t-29 23.5t-56 5h-112v-279h167q38 0 63 5.5t41.5 20
t27.5 39.5t21 64h43l-22 -182h-516zM437 773q-25 0 -39 15t-14 39t14.5 40t39.5 16t39 -14.5t14 -38.5t-14 -40.5t-40 -16.5zM245 773q-25 0 -39 15t-14 39t14.5 40t39.5 16t39.5 -14.5t14.5 -38.5t-14.5 -40.5t-40.5 -16.5z" />
    <glyph glyph-name="Igrave" unicode="&#xcc;" horiz-adv-x="416" 
d="M72 0v42l67 4q17 1 25 10.5t8 40.5v509q0 21 -5.5 33.5t-30.5 13.5l-64 4v43h272v-43l-67 -4q-19 -1 -25.5 -12t-6.5 -39v-509q0 -22 6 -33.5t28 -13.5l65 -4v-42h-272zM266 747l-143 74q-17 10 -27 21.5t-10 27.5q0 15 10 29t24 14q9 0 17.5 -4.5t21.5 -15.5l129 -116z
" />
    <glyph glyph-name="Iacute" unicode="&#xcd;" horiz-adv-x="416" 
d="M72 0v42l67 4q17 1 25 10.5t8 40.5v509q0 21 -5.5 33.5t-30.5 13.5l-64 4v43h272v-43l-67 -4q-19 -1 -25.5 -12t-6.5 -39v-509q0 -22 6 -33.5t28 -13.5l65 -4v-42h-272zM155 747l-22 30l128 116q14 11 22.5 15.5t17.5 4.5q15 0 24.5 -14t9.5 -29q0 -16 -9.5 -27.5
t-27.5 -21.5z" />
    <glyph glyph-name="Icircumflex" unicode="&#xce;" horiz-adv-x="416" 
d="M72 0v42l67 4q17 1 25 10.5t8 40.5v509q0 21 -5.5 33.5t-30.5 13.5l-64 4v43h272v-43l-67 -4q-19 -1 -25.5 -12t-6.5 -39v-509q0 -22 6 -33.5t28 -13.5l65 -4v-42h-272zM72 741l-20 32l119 120q9 10 18.5 15.5t20.5 5.5q10 0 19.5 -6t24.5 -21l113 -113l-21 -33l-136 88z
" />
    <glyph glyph-name="Idieresis" unicode="&#xcf;" horiz-adv-x="416" 
d="M72 0v42l67 4q17 1 25 10.5t8 40.5v509q0 21 -5.5 33.5t-30.5 13.5l-64 4v43h272v-43l-67 -4q-19 -1 -25.5 -12t-6.5 -39v-509q0 -22 6 -33.5t28 -13.5l65 -4v-42h-272zM304 769q-25 0 -39 15t-14 39t14.5 40t39.5 16t39 -14.5t14 -38.5t-14 -40.5t-40 -16.5zM112 769
q-25 0 -39 15t-14 39t14.5 40t39.5 16t39.5 -14.5t14.5 -38.5t-14.5 -40.5t-40.5 -16.5z" />
    <glyph glyph-name="Eth" unicode="&#xd0;" horiz-adv-x="822" 
d="M372 700q74 0 134.5 -13.5t106 -40.5t76 -66.5t46 -91.5t15.5 -116q0 -95 -28 -165.5t-80 -115.5t-125 -68t-164 -23h-281v42l68 4q21 2 27.5 12.5t6.5 38.5v236h-111l7 53h104v220q0 26 -6 36t-31 11l-65 4v43h300zM345 52q78 0 138.5 16.5t101.5 52.5t62 95.5t21 145.5
q0 98 -32.5 161t-99 94t-169.5 31h-120v-262h202v-53h-202v-281h47.5h50.5z" />
    <glyph glyph-name="Ntilde" unicode="&#xd1;" horiz-adv-x="889" 
d="M72 0v42l68 4q17 0 25.5 11.5t8.5 39.5v510q0 25 -6 35t-28 11l-68 4v43h197l389 -576l6 -4v486q0 25 -7 35.5t-30 11.5l-64 4v43h263v-43l-65 -3q-19 -1 -27 -11.5t-8 -38.5v-604h-69l-417 609l-5 4v-520q0 -20 4.5 -32.5t30.5 -14.5l68 -4v-42h-266zM516 779
q-17 0 -35 5t-43 18q-21 12 -36 17.5t-23.5 7.5t-15.5 2q-11 0 -19.5 -9t-23.5 -33l-36 21q15 32 29 48.5t28 23t30 6.5q20 0 38.5 -5.5t47.5 -19.5t44 -18.5t21 -4.5q10 0 18 8.5t21 33.5l36 -20q-15 -34 -28.5 -51t-26.5 -23.5t-26 -6.5z" />
    <glyph glyph-name="Ograve" unicode="&#xd2;" 
d="M406 -14q-104 0 -179 44t-115 123t-40 186q0 117 39.5 201t116 129t186.5 45q104 0 179.5 -42.5t115.5 -121t40 -185.5q0 -86 -24.5 -156t-69.5 -119.5t-108.5 -76.5t-140.5 -27zM415 46q61 0 108 20t79 59.5t49 96t17 130.5q0 73 -17.5 129.5t-51.5 95t-83.5 58
t-112.5 19.5q-60 0 -106.5 -20t-78 -58.5t-48 -95t-16.5 -127.5q0 -74 18 -131t51.5 -96t82 -59.5t109.5 -20.5zM466 751l-143 74q-17 10 -27 21.5t-10 27.5q0 15 10 29t24 14q9 0 17.5 -4.5t21.5 -15.5l129 -116z" />
    <glyph glyph-name="Oacute" unicode="&#xd3;" 
d="M406 -14q-104 0 -179 44t-115 123t-40 186q0 117 39.5 201t116 129t186.5 45q104 0 179.5 -42.5t115.5 -121t40 -185.5q0 -86 -24.5 -156t-69.5 -119.5t-108.5 -76.5t-140.5 -27zM415 46q61 0 108 20t79 59.5t49 96t17 130.5q0 73 -17.5 129.5t-51.5 95t-83.5 58
t-112.5 19.5q-60 0 -106.5 -20t-78 -58.5t-48 -95t-16.5 -127.5q0 -74 18 -131t51.5 -96t82 -59.5t109.5 -20.5zM355 751l-22 30l128 116q14 11 22.5 15.5t17.5 4.5q15 0 24.5 -14t9.5 -29q0 -16 -9.5 -27.5t-27.5 -21.5z" />
    <glyph glyph-name="Ocircumflex" unicode="&#xd4;" 
d="M406 -14q-104 0 -179 44t-115 123t-40 186q0 117 39.5 201t116 129t186.5 45q104 0 179.5 -42.5t115.5 -121t40 -185.5q0 -86 -24.5 -156t-69.5 -119.5t-108.5 -76.5t-140.5 -27zM415 46q61 0 108 20t79 59.5t49 96t17 130.5q0 73 -17.5 129.5t-51.5 95t-83.5 58
t-112.5 19.5q-60 0 -106.5 -20t-78 -58.5t-48 -95t-16.5 -127.5q0 -74 18 -131t51.5 -96t82 -59.5t109.5 -20.5zM272 745l-20 32l119 120q9 10 18.5 15.5t20.5 5.5q10 0 19.5 -6t24.5 -21l113 -113l-21 -33l-136 88z" />
    <glyph glyph-name="Otilde" unicode="&#xd5;" 
d="M406 -14q-104 0 -179 44t-115 123t-40 186q0 117 39.5 201t116 129t186.5 45q104 0 179.5 -42.5t115.5 -121t40 -185.5q0 -86 -24.5 -156t-69.5 -119.5t-108.5 -76.5t-140.5 -27zM415 46q61 0 108 20t79 59.5t49 96t17 130.5q0 73 -17.5 129.5t-51.5 95t-83.5 58
t-112.5 19.5q-60 0 -106.5 -20t-78 -58.5t-48 -95t-16.5 -127.5q0 -74 18 -131t51.5 -96t82 -59.5t109.5 -20.5zM485 779q-17 0 -35 5t-43 18q-21 12 -36 17.5t-23.5 7.5t-15.5 2q-11 0 -19.5 -9t-23.5 -33l-36 21q15 32 29 48.5t28 23t30 6.5q20 0 38.5 -5.5t47.5 -19.5
t44 -18.5t21 -4.5q10 0 18 8.5t21 33.5l36 -20q-15 -34 -28.5 -51t-26.5 -23.5t-26 -6.5z" />
    <glyph glyph-name="Odieresis" unicode="&#xd6;" 
d="M406 -14q-104 0 -179 44t-115 123t-40 186q0 117 39.5 201t116 129t186.5 45q104 0 179.5 -42.5t115.5 -121t40 -185.5q0 -86 -24.5 -156t-69.5 -119.5t-108.5 -76.5t-140.5 -27zM415 46q61 0 108 20t79 59.5t49 96t17 130.5q0 73 -17.5 129.5t-51.5 95t-83.5 58
t-112.5 19.5q-60 0 -106.5 -20t-78 -58.5t-48 -95t-16.5 -127.5q0 -74 18 -131t51.5 -96t82 -59.5t109.5 -20.5zM504 773q-25 0 -39 15t-14 39t14.5 40t39.5 16t39 -14.5t14 -38.5t-14 -40.5t-40 -16.5zM312 773q-25 0 -39 15t-14 39t14.5 40t39.5 16t39.5 -14.5t14.5 -38.5
t-14.5 -40.5t-40.5 -16.5z" />
    <glyph glyph-name="multiply" unicode="&#xd7;" horiz-adv-x="620" 
d="M443 127l-134 135l-134 -133l-43 43l133 134l-134 133l46 44l133 -132l135 135l43 -44l-135 -135l135 -135z" />
    <glyph glyph-name="Oslash" unicode="&#xd8;" 
d="M78 -14l81 100q-43 46 -65 110t-22 143q0 117 39.5 201t116 129t186.5 45q63 0 115.5 -16t93.5 -47l51 63h77l-84 -103q39 -45 60.5 -107t21.5 -139q0 -86 -24 -156t-69.5 -119.5t-109 -76.5t-140.5 -27q-61 0 -112 15.5t-90 44.5l-49 -60h-77zM415 46q61 0 108 20.5
t79 59.5t49 95.5t17 130.5q0 63 -13 113t-36 87l-370 -451q22 -17 47.5 -30t55.5 -19t63 -6zM208 145l370 452q-22 20 -49 32t-58.5 18.5t-67.5 6.5q-60 0 -106.5 -20t-78 -58.5t-48 -94.5t-16.5 -128q0 -64 14.5 -116.5t39.5 -91.5z" />
    <glyph glyph-name="Ugrave" unicode="&#xd9;" horiz-adv-x="887" 
d="M438 -14q-73 0 -125.5 17.5t-86.5 52.5t-51 88t-17 123v339q0 26 -7 36t-29 11l-61 4v43h271v-43l-65 -4q-15 0 -23.5 -10t-8.5 -41v-331q0 -72 19 -122t66 -77t130 -27q72 0 120.5 26t73 78.5t24.5 132.5v324q0 26 -7 36t-29 11l-61 4v43h256v-43l-64 -4q-16 -1 -24 -11
t-8 -40v-302q0 -101 -30.5 -171.5t-95 -106.5t-167.5 -36zM505 751l-143 74q-17 10 -27 21.5t-10 27.5q0 15 10 29t24 14q9 0 17.5 -4.5t21.5 -15.5l129 -116z" />
    <glyph glyph-name="Uacute" unicode="&#xda;" horiz-adv-x="887" 
d="M438 -14q-73 0 -125.5 17.5t-86.5 52.5t-51 88t-17 123v339q0 26 -7 36t-29 11l-61 4v43h271v-43l-65 -4q-15 0 -23.5 -10t-8.5 -41v-331q0 -72 19 -122t66 -77t130 -27q72 0 120.5 26t73 78.5t24.5 132.5v324q0 26 -7 36t-29 11l-61 4v43h256v-43l-64 -4q-16 -1 -24 -11
t-8 -40v-302q0 -101 -30.5 -171.5t-95 -106.5t-167.5 -36zM394 751l-22 30l128 116q14 11 22.5 15.5t17.5 4.5q15 0 24.5 -14t9.5 -29q0 -16 -9.5 -27.5t-27.5 -21.5z" />
    <glyph glyph-name="Ucircumflex" unicode="&#xdb;" horiz-adv-x="887" 
d="M438 -14q-73 0 -125.5 17.5t-86.5 52.5t-51 88t-17 123v339q0 26 -7 36t-29 11l-61 4v43h271v-43l-65 -4q-15 0 -23.5 -10t-8.5 -41v-331q0 -72 19 -122t66 -77t130 -27q72 0 120.5 26t73 78.5t24.5 132.5v324q0 26 -7 36t-29 11l-61 4v43h256v-43l-64 -4q-16 -1 -24 -11
t-8 -40v-302q0 -101 -30.5 -171.5t-95 -106.5t-167.5 -36zM311 745l-20 32l119 120q9 10 18.5 15.5t20.5 5.5q10 0 19.5 -6t24.5 -21l113 -113l-21 -33l-136 88z" />
    <glyph glyph-name="Udieresis" unicode="&#xdc;" horiz-adv-x="887" 
d="M438 -14q-73 0 -125.5 17.5t-86.5 52.5t-51 88t-17 123v339q0 26 -7 36t-29 11l-61 4v43h271v-43l-65 -4q-15 0 -23.5 -10t-8.5 -41v-331q0 -72 19 -122t66 -77t130 -27q72 0 120.5 26t73 78.5t24.5 132.5v324q0 26 -7 36t-29 11l-61 4v43h256v-43l-64 -4q-16 -1 -24 -11
t-8 -40v-302q0 -101 -30.5 -171.5t-95 -106.5t-167.5 -36zM543 773q-25 0 -39 15t-14 39t14.5 40t39.5 16t39 -14.5t14 -38.5t-14 -40.5t-40 -16.5zM351 773q-25 0 -39 15t-14 39t14.5 40t39.5 16t39.5 -14.5t14.5 -38.5t-14.5 -40.5t-40.5 -16.5z" />
    <glyph glyph-name="Yacute" unicode="&#xdd;" horiz-adv-x="712" 
d="M214 0v42l65 4q17 1 25 10t8 41v200l-199 306q-14 21 -27 33.5t-38 16.5l-42 6v41h271v-42l-57 -1q-25 0 -31 -14.5t9 -36.5l162 -251h3l157 248q12 18 11.5 33.5t-32.5 18.5l-47 2v43h254v-43l-64 -2q-17 1 -30.5 -14t-29.5 -42l-196 -307v-199q0 -25 7 -35t28 -12
l63 -4v-42h-270zM305 751l-22 30l128 116q14 11 22.5 15.5t17.5 4.5q15 0 24.5 -14t9.5 -29q0 -16 -9.5 -27.5t-27.5 -21.5z" />
    <glyph glyph-name="Thorn" unicode="&#xde;" horiz-adv-x="641" 
d="M72 0v42l68 4q16 1 25 10.5t9 40.5v510q0 22 -6 34t-30 13l-66 4v42h308v-41l-94 -4q-21 -1 -30 -11.5t-9 -38.5v-57h77q56 0 100.5 -7t77.5 -21t54.5 -37t32.5 -52.5t11 -69.5q0 -37 -9.5 -68.5t-30.5 -57t-52.5 -42.5t-75 -26.5t-99.5 -9.5q-22 0 -39.5 1t-29 3
t-17.5 3v-70q0 -24 8.5 -35.5t30.5 -12.5l94 -5v-41h-308zM247 215q12 -2 31.5 -4t45.5 -2q49 0 86 8.5t60.5 26t35.5 46t12 68.5q0 58 -24.5 88t-70 40.5t-105.5 10.5h-71v-282z" />
    <glyph glyph-name="germandbls" unicode="&#xdf;" horiz-adv-x="737" 
d="M326 -14l-10 168l44 3q14 -39 33 -62t41 -35t44 -15.5t41 -3.5q34 0 57 11.5t34.5 33.5t11.5 53t-18 51.5t-46 35t-59 28t-59 31t-46 44t-18 67.5q0 32 13.5 56.5t33.5 45.5t40.5 41.5t34 44.5t13.5 56q0 38 -20.5 58t-50 28t-57.5 8q-30 0 -59 -8t-51.5 -26.5t-36 -50
t-13.5 -79.5v-570h-160v42l56 3q21 1 27 13t6 38v368h-84v40l84 11v44q0 49 15.5 90t45.5 71t74 46t102 16q48 0 94 -12.5t75 -42t29 -79.5q0 -31 -13.5 -55.5t-33.5 -46t-40.5 -41t-34 -41.5t-13.5 -49q0 -31 17 -51.5t44.5 -36t58.5 -30t58.5 -33.5t44.5 -47.5t17 -72.5
q0 -37 -18 -73.5t-56.5 -60.5t-99.5 -24q-49 0 -85.5 14t-55.5 29l-10 -43h-41z" />
    <glyph glyph-name="agrave" unicode="&#xe0;" horiz-adv-x="586" 
d="M220 -14q-67 0 -109 36.5t-42 99.5q0 58 29 93.5t98.5 53.5t190.5 22v77q0 36 -12.5 60.5t-41.5 37.5t-75 13q-32 0 -60 -8t-42 -22q11 -16 17 -27.5t9 -19t3 -13.5q0 -20 -17 -32t-38 -12q-26 0 -41 14t-15 44q0 36 28 65t73 46t94 17q66 0 108 -20t61.5 -58.5
t19.5 -95.5v-257q0 -27 13.5 -40.5t38.5 -13.5q16 0 30.5 3.5t27.5 9.5l13 -38q-16 -15 -42.5 -25t-56.5 -10q-39 0 -61 21t-28 65q-21 -29 -47 -48t-58 -28.5t-68 -9.5zM246 47q37 0 69 14.5t52 40.5t20 57v78q-88 -1 -140.5 -11.5t-77 -32.5t-24.5 -59q0 -45 27.5 -66
t73.5 -21zM302 593l-120 90q-18 14 -26 26t-8 25q0 10 4.5 19t13.5 15t19 6t19 -6t19 -19l106 -129z" />
    <glyph glyph-name="aacute" unicode="&#xe1;" horiz-adv-x="586" 
d="M220 -14q-67 0 -109 36.5t-42 99.5q0 58 29 93.5t98.5 53.5t190.5 22v77q0 36 -12.5 60.5t-41.5 37.5t-75 13q-32 0 -60 -8t-42 -22q11 -16 17 -27.5t9 -19t3 -13.5q0 -20 -17 -32t-38 -12q-26 0 -41 14t-15 44q0 36 28 65t73 46t94 17q66 0 108 -20t61.5 -58.5
t19.5 -95.5v-257q0 -27 13.5 -40.5t38.5 -13.5q16 0 30.5 3.5t27.5 9.5l13 -38q-16 -15 -42.5 -25t-56.5 -10q-39 0 -61 21t-28 65q-21 -29 -47 -48t-58 -28.5t-68 -9.5zM246 47q37 0 69 14.5t52 40.5t20 57v78q-88 -1 -140.5 -11.5t-77 -32.5t-24.5 -59q0 -45 27.5 -66
t73.5 -21zM233 593l-26 27l105 129q11 13 20 19t18 6q11 0 19.5 -6t13 -15t4.5 -19q0 -13 -7.5 -25t-26.5 -26z" />
    <glyph glyph-name="acircumflex" unicode="&#xe2;" horiz-adv-x="586" 
d="M220 -14q-67 0 -109 36.5t-42 99.5q0 58 29 93.5t98.5 53.5t190.5 22v77q0 36 -12.5 60.5t-41.5 37.5t-75 13q-32 0 -60 -8t-42 -22q11 -16 17 -27.5t9 -19t3 -13.5q0 -20 -17 -32t-38 -12q-26 0 -41 14t-15 44q0 36 28 65t73 46t94 17q66 0 108 -20t61.5 -58.5
t19.5 -95.5v-257q0 -27 13.5 -40.5t38.5 -13.5q16 0 30.5 3.5t27.5 9.5l13 -38q-16 -15 -42.5 -25t-56.5 -10q-39 0 -61 21t-28 65q-21 -29 -47 -48t-58 -28.5t-68 -9.5zM246 47q37 0 69 14.5t52 40.5t20 57v78q-88 -1 -140.5 -11.5t-77 -32.5t-24.5 -59q0 -45 27.5 -66
t73.5 -21zM142 593l-29 27l110 133q9 11 20.5 17.5t25.5 6.5q9 0 16 -3t14.5 -8.5t15.5 -16.5l107 -129l-29 -27l-124 103z" />
    <glyph glyph-name="atilde" unicode="&#xe3;" horiz-adv-x="586" 
d="M220 -14q-67 0 -109 36.5t-42 99.5q0 58 29 93.5t98.5 53.5t190.5 22v77q0 36 -12.5 60.5t-41.5 37.5t-75 13q-32 0 -60 -8t-42 -22q11 -16 17 -27.5t9 -19t3 -13.5q0 -20 -17 -32t-38 -12q-26 0 -41 14t-15 44q0 36 28 65t73 46t94 17q66 0 108 -20t61.5 -58.5
t19.5 -95.5v-257q0 -27 13.5 -40.5t38.5 -13.5q16 0 30.5 3.5t27.5 9.5l13 -38q-16 -15 -42.5 -25t-56.5 -10q-39 0 -61 21t-28 65q-21 -29 -47 -48t-58 -28.5t-68 -9.5zM246 47q37 0 69 14.5t52 40.5t20 57v78q-88 -1 -140.5 -11.5t-77 -32.5t-24.5 -59q0 -45 27.5 -66
t73.5 -21zM344 615q-17 0 -35.5 5t-43.5 18q-18 10 -33 16t-26 8t-18 2q-11 0 -19.5 -9t-23.5 -32l-36 21q15 33 29 49.5t28.5 22.5t29.5 6q19 0 38.5 -5.5t49.5 -19.5q28 -14 43.5 -19t22.5 -5q9 0 17 8.5t22 33.5l36 -20q-16 -33 -29.5 -50t-26 -23.5t-25.5 -6.5z" />
    <glyph glyph-name="adieresis" unicode="&#xe4;" horiz-adv-x="586" 
d="M220 -14q-67 0 -109 36.5t-42 99.5q0 58 29 93.5t98.5 53.5t190.5 22v77q0 36 -12.5 60.5t-41.5 37.5t-75 13q-32 0 -60 -8t-42 -22q11 -16 17 -27.5t9 -19t3 -13.5q0 -20 -17 -32t-38 -12q-26 0 -41 14t-15 44q0 36 28 65t73 46t94 17q66 0 108 -20t61.5 -58.5
t19.5 -95.5v-257q0 -27 13.5 -40.5t38.5 -13.5q16 0 30.5 3.5t27.5 9.5l13 -38q-16 -15 -42.5 -25t-56.5 -10q-39 0 -61 21t-28 65q-21 -29 -47 -48t-58 -28.5t-68 -9.5zM246 47q37 0 69 14.5t52 40.5t20 57v78q-88 -1 -140.5 -11.5t-77 -32.5t-24.5 -59q0 -45 27.5 -66
t73.5 -21zM360 627q-25 0 -39 15t-14 38q0 24 14.5 40t39.5 16t39 -14.5t14 -38.5q0 -23 -14.5 -39.5t-39.5 -16.5zM164 627q-24 0 -38 15t-14 38q0 24 14 40t39 16t39 -14.5t14 -38.5q0 -23 -14 -39.5t-40 -16.5z" />
    <glyph glyph-name="aring" unicode="&#xe5;" horiz-adv-x="586" 
d="M220 -14q-67 0 -109 36.5t-42 99.5q0 58 29 93.5t98.5 53.5t190.5 22v77q0 36 -12.5 60.5t-41.5 37.5t-75 13q-32 0 -60 -8t-42 -22q11 -16 17 -27.5t9 -19t3 -13.5q0 -20 -17 -32t-38 -12q-26 0 -41 14t-15 44q0 36 28 65t73 46t94 17q66 0 108 -20t61.5 -58.5
t19.5 -95.5v-257q0 -27 13.5 -40.5t38.5 -13.5q16 0 30.5 3.5t27.5 9.5l13 -38q-16 -15 -42.5 -25t-56.5 -10q-39 0 -61 21t-28 65q-21 -29 -47 -48t-58 -28.5t-68 -9.5zM246 47q37 0 69 14.5t52 40.5t20 57v78q-88 -1 -140.5 -11.5t-77 -32.5t-24.5 -59q0 -45 27.5 -66
t73.5 -21zM267 593q-64 0 -95 28.5t-31 79.5q0 31 15 56t43 40t70 15q60 0 91.5 -28.5t31.5 -78.5q0 -34 -15 -59.5t-42.5 -39t-67.5 -13.5zM268 642q24 0 38 6.5t19 20.5t5 34t-6.5 33.5t-20.5 21t-37 7.5t-37 -7.5t-20.5 -21t-6.5 -32.5t6.5 -33t21 -21.5t38.5 -7.5z" />
    <glyph glyph-name="ae" unicode="&#xe6;" horiz-adv-x="872" 
d="M220 -14q-49 0 -83 18t-51 49.5t-17 68.5q0 66 36 102t142 54q25 5 59.5 8.5t80.5 4.5v77q0 34 -12 58.5t-40.5 38.5t-76.5 14q-29 0 -58 -7.5t-44 -22.5q11 -16 17 -27t9 -19t3 -14q0 -21 -17.5 -32.5t-37.5 -11.5q-23 0 -39.5 13t-16.5 45q0 35 28 64t72.5 46.5
t94.5 17.5q74 0 114 -25.5t59 -69.5q30 46 75 70.5t104 24.5q63 0 105.5 -23t63.5 -63.5t21 -95.5v-47.5t-3 -50.5h-350q1 -67 22 -112t61 -66.5t100 -21.5q35 0 74 12t75 44l30 -33q-40 -47 -92 -67.5t-102 -20.5q-71 0 -123 27t-83 83q-20 -35 -47.5 -59.5t-65 -37.5
t-87.5 -13zM246 47q42 0 73.5 16.5t49.5 42.5t18 52v79q-40 -1 -72.5 -2.5t-59.5 -7.5q-55 -11 -82.5 -31t-27.5 -62t26 -64.5t75 -22.5zM458 306h280q2 13 2.5 24t0.5 25q0 52 -31 85t-93 33q-40 0 -73.5 -15.5t-55.5 -52t-30 -99.5z" />
    <glyph glyph-name="ccedilla" unicode="&#xe7;" horiz-adv-x="548" 
d="M297 -229q-44 0 -71.5 13t-38.5 23l23 41q14 -9 37.5 -18t41.5 -9q22 0 39 9.5t17 34.5q0 24 -16.5 32t-43.5 8q-10 0 -17.5 -0.5t-14.5 -2.5l-8 21l25 65q-64 7 -110.5 39.5t-71 89.5t-24.5 137q0 89 30 150.5t84 94t125 32.5q55 0 98 -16.5t68 -45t25 -66.5
q0 -21 -8.5 -35.5t-21 -22t-29.5 -7.5q-27 0 -39.5 13t-12.5 30q0 12 6.5 26.5t19.5 37.5q-16 13 -43.5 22t-59.5 9q-48 0 -86 -18.5t-61 -62.5t-23 -123q0 -127 50.5 -175t125.5 -48q50 0 87.5 19t67.5 42l31 -35q-34 -39 -81 -62t-101 -27l-17 -41q33 1 56 -8t36.5 -26.5
t13.5 -45.5q0 -27 -11.5 -48t-35.5 -33.5t-61 -12.5z" />
    <glyph glyph-name="egrave" unicode="&#xe8;" horiz-adv-x="552" 
d="M306 -14q-74 0 -128.5 32t-84 91.5t-29.5 141.5q0 86 29 148.5t81.5 97t127.5 34.5q61 0 103 -22.5t64.5 -63t22.5 -96.5q0 -26 -0.5 -49t-3.5 -49h-351q2 -71 25 -115t64.5 -64.5t95.5 -20.5q41 0 79 14.5t69 41.5l30 -33q-37 -42 -87.5 -65t-106.5 -23zM138 306h281
q2 13 2 24v25q0 53 -31 85.5t-92 32.5q-45 0 -79.5 -19t-54.5 -56t-26 -92zM331 593l-120 90q-18 14 -26 26t-8 25q0 10 4.5 19t13.5 15t19 6t19 -6t19 -19l106 -129z" />
    <glyph glyph-name="eacute" unicode="&#xe9;" horiz-adv-x="552" 
d="M306 -14q-74 0 -128.5 32t-84 91.5t-29.5 141.5q0 86 29 148.5t81.5 97t127.5 34.5q61 0 103 -22.5t64.5 -63t22.5 -96.5q0 -26 -0.5 -49t-3.5 -49h-351q2 -71 25 -115t64.5 -64.5t95.5 -20.5q41 0 79 14.5t69 41.5l30 -33q-37 -42 -87.5 -65t-106.5 -23zM138 306h281
q2 13 2 24v25q0 53 -31 85.5t-92 32.5q-45 0 -79.5 -19t-54.5 -56t-26 -92zM262 593l-26 27l105 129q11 13 20 19t18 6q11 0 19.5 -6t13 -15t4.5 -19q0 -13 -7.5 -25t-26.5 -26z" />
    <glyph glyph-name="ecircumflex" unicode="&#xea;" horiz-adv-x="552" 
d="M306 -14q-74 0 -128.5 32t-84 91.5t-29.5 141.5q0 86 29 148.5t81.5 97t127.5 34.5q61 0 103 -22.5t64.5 -63t22.5 -96.5q0 -26 -0.5 -49t-3.5 -49h-351q2 -71 25 -115t64.5 -64.5t95.5 -20.5q41 0 79 14.5t69 41.5l30 -33q-37 -42 -87.5 -65t-106.5 -23zM138 306h281
q2 13 2 24v25q0 53 -31 85.5t-92 32.5q-45 0 -79.5 -19t-54.5 -56t-26 -92zM171 593l-29 27l110 133q9 11 20.5 17.5t25.5 6.5q9 0 16 -3t14.5 -8.5t15.5 -16.5l107 -129l-29 -27l-124 103z" />
    <glyph glyph-name="edieresis" unicode="&#xeb;" horiz-adv-x="552" 
d="M306 -14q-74 0 -128.5 32t-84 91.5t-29.5 141.5q0 86 29 148.5t81.5 97t127.5 34.5q61 0 103 -22.5t64.5 -63t22.5 -96.5q0 -26 -0.5 -49t-3.5 -49h-351q2 -71 25 -115t64.5 -64.5t95.5 -20.5q41 0 79 14.5t69 41.5l30 -33q-37 -42 -87.5 -65t-106.5 -23zM138 306h281
q2 13 2 24v25q0 53 -31 85.5t-92 32.5q-45 0 -79.5 -19t-54.5 -56t-26 -92zM389 627q-25 0 -39 15t-14 38q0 24 14.5 40t39.5 16t39 -14.5t14 -38.5q0 -23 -14.5 -39.5t-39.5 -16.5zM193 627q-24 0 -38 15t-14 38q0 24 14 40t39 16t39 -14.5t14 -38.5q0 -23 -14 -39.5
t-40 -16.5z" />
    <glyph glyph-name="igrave" unicode="&#xec;" horiz-adv-x="355" 
d="M58 0v41l62 4q19 2 25.5 12.5t6.5 37.5v312q0 36 -7.5 47.5t-30.5 12.5l-62 4l6 43l152 12l13 -8v-427q0 -18 4 -31t27 -15l63 -3v-42h-259zM186 593l-120 90q-18 14 -26 26t-8 25q0 10 4.5 19t13.5 15t19 6t19 -6t19 -19l106 -129z" />
    <glyph glyph-name="iacute" unicode="&#xed;" horiz-adv-x="355" 
d="M58 0v41l62 4q19 2 25.5 12.5t6.5 37.5v312q0 36 -7.5 47.5t-30.5 12.5l-62 4l6 43l152 12l13 -8v-427q0 -18 4 -31t27 -15l63 -3v-42h-259zM117 593l-26 27l105 129q11 13 20 19t18 6q11 0 19.5 -6t13 -15t4.5 -19q0 -13 -7.5 -25t-26.5 -26z" />
    <glyph glyph-name="icircumflex" unicode="&#xee;" horiz-adv-x="355" 
d="M58 0v41l62 4q19 2 25.5 12.5t6.5 37.5v312q0 36 -7.5 47.5t-30.5 12.5l-62 4l6 43l152 12l13 -8v-427q0 -18 4 -31t27 -15l63 -3v-42h-259zM26 593l-29 27l110 133q9 11 20.5 17.5t25.5 6.5q9 0 16 -3t14.5 -8.5t15.5 -16.5l107 -129l-29 -27l-124 103z" />
    <glyph glyph-name="idieresis" unicode="&#xef;" horiz-adv-x="355" 
d="M58 0v41l62 4q19 2 25.5 12.5t6.5 37.5v312q0 36 -7.5 47.5t-30.5 12.5l-62 4l6 43l152 12l13 -8v-427q0 -18 4 -31t27 -15l63 -3v-42h-259zM244 627q-25 0 -39 15t-14 38q0 24 14.5 40t39.5 16t39 -14.5t14 -38.5q0 -23 -14.5 -39.5t-39.5 -16.5zM48 627q-24 0 -38 15
t-14 38q0 24 14 40t39 16t39 -14.5t14 -38.5q0 -23 -14 -39.5t-40 -16.5z" />
    <glyph glyph-name="eth" unicode="&#xf0;" horiz-adv-x="631" 
d="M305 -14q-109 0 -175 68t-66 188q0 67 21.5 115t57.5 79t78.5 45.5t84.5 14.5q67 0 112 -23t68 -62l6 1q-3 40 -16 82.5t-35 80t-51 64.5l-99 -71l-27 44l87 58q-37 23 -84 34.5t-96 17.5l12 47q59 -6 114 -19.5t102 -41.5l100 75l26 -44l-82 -61q38 -35 66 -83.5
t43.5 -112.5t15.5 -144q0 -85 -16 -150.5t-48 -110.5t-81.5 -68t-117.5 -23zM322 43q51 0 88 26.5t56 72t19 101.5q0 17 -3 36t-8.5 39.5t-15.5 41.5q-16 34 -51.5 57.5t-88.5 23.5q-48 0 -88 -21.5t-63 -65.5t-23 -114q0 -47 13 -84t36.5 -62t56 -38t72.5 -13z" />
    <glyph glyph-name="ntilde" unicode="&#xf1;" horiz-adv-x="708" 
d="M62 0v42l57 4q13 0 20.5 9t7.5 39v314q0 32 -7 44t-30 13l-58 4l6 43l132 12l13 -7l6 -85h5q30 47 82 73t109 26q55 0 94 -19t59.5 -56.5t20.5 -93.5v-276q0 -20 6 -29.5t28 -11.5l54 -3v-42h-238v43l47 2q17 1 24.5 9t7.5 34v249q0 43 -10.5 71.5t-37.5 44t-74 15.5
q-49 0 -87 -18.5t-59.5 -52t-21.5 -77.5v-229q0 -24 5.5 -34t21.5 -11l56 -3v-43h-239zM436 615q-17 0 -35.5 5t-43.5 18q-18 10 -33 16t-26 8t-18 2q-11 0 -19.5 -9t-23.5 -32l-36 21q15 33 29 49.5t28.5 22.5t29.5 6q19 0 38.5 -5.5t49.5 -19.5q28 -14 43.5 -19t22.5 -5
q9 0 17 8.5t22 33.5l36 -20q-16 -33 -29.5 -50t-26 -23.5t-25.5 -6.5z" />
    <glyph glyph-name="ograve" unicode="&#xf2;" horiz-adv-x="622" 
d="M303 -14q-77 0 -130.5 32t-81 91t-27.5 141q0 87 30.5 150t87 97t135.5 34q77 0 131.5 -31.5t84 -90.5t29.5 -141q0 -89 -29 -152.5t-87 -96.5t-143 -33zM317 41q54 0 92.5 23.5t59 69t20.5 113.5q0 57 -12.5 100t-36.5 71t-58 42t-77 14q-52 0 -89.5 -23.5t-57.5 -70.5
t-20 -118q0 -72 22 -121.5t61.5 -74.5t95.5 -25zM345 593l-120 90q-18 14 -26 26t-8 25q0 10 4.5 19t13.5 15t19 6t19 -6t19 -19l106 -129z" />
    <glyph glyph-name="oacute" unicode="&#xf3;" horiz-adv-x="622" 
d="M303 -14q-77 0 -130.5 32t-81 91t-27.5 141q0 87 30.5 150t87 97t135.5 34q77 0 131.5 -31.5t84 -90.5t29.5 -141q0 -89 -29 -152.5t-87 -96.5t-143 -33zM317 41q54 0 92.5 23.5t59 69t20.5 113.5q0 57 -12.5 100t-36.5 71t-58 42t-77 14q-52 0 -89.5 -23.5t-57.5 -70.5
t-20 -118q0 -72 22 -121.5t61.5 -74.5t95.5 -25zM276 593l-26 27l105 129q11 13 20 19t18 6q11 0 19.5 -6t13 -15t4.5 -19q0 -13 -7.5 -25t-26.5 -26z" />
    <glyph glyph-name="ocircumflex" unicode="&#xf4;" horiz-adv-x="622" 
d="M303 -14q-77 0 -130.5 32t-81 91t-27.5 141q0 87 30.5 150t87 97t135.5 34q77 0 131.5 -31.5t84 -90.5t29.5 -141q0 -89 -29 -152.5t-87 -96.5t-143 -33zM317 41q54 0 92.5 23.5t59 69t20.5 113.5q0 57 -12.5 100t-36.5 71t-58 42t-77 14q-52 0 -89.5 -23.5t-57.5 -70.5
t-20 -118q0 -72 22 -121.5t61.5 -74.5t95.5 -25zM185 593l-29 27l110 133q9 11 20.5 17.5t25.5 6.5q9 0 16 -3t14.5 -8.5t15.5 -16.5l107 -129l-29 -27l-124 103z" />
    <glyph glyph-name="otilde" unicode="&#xf5;" horiz-adv-x="622" 
d="M303 -14q-77 0 -130.5 32t-81 91t-27.5 141q0 87 30.5 150t87 97t135.5 34q77 0 131.5 -31.5t84 -90.5t29.5 -141q0 -89 -29 -152.5t-87 -96.5t-143 -33zM317 41q54 0 92.5 23.5t59 69t20.5 113.5q0 57 -12.5 100t-36.5 71t-58 42t-77 14q-52 0 -89.5 -23.5t-57.5 -70.5
t-20 -118q0 -72 22 -121.5t61.5 -74.5t95.5 -25zM387 615q-17 0 -35.5 5t-43.5 18q-18 10 -33 16t-26 8t-18 2q-11 0 -19.5 -9t-23.5 -32l-36 21q15 33 29 49.5t28.5 22.5t29.5 6q19 0 38.5 -5.5t49.5 -19.5q28 -14 43.5 -19t22.5 -5q9 0 17 8.5t22 33.5l36 -20
q-16 -33 -29.5 -50t-26 -23.5t-25.5 -6.5z" />
    <glyph glyph-name="odieresis" unicode="&#xf6;" horiz-adv-x="622" 
d="M303 -14q-77 0 -130.5 32t-81 91t-27.5 141q0 87 30.5 150t87 97t135.5 34q77 0 131.5 -31.5t84 -90.5t29.5 -141q0 -89 -29 -152.5t-87 -96.5t-143 -33zM317 41q54 0 92.5 23.5t59 69t20.5 113.5q0 57 -12.5 100t-36.5 71t-58 42t-77 14q-52 0 -89.5 -23.5t-57.5 -70.5
t-20 -118q0 -72 22 -121.5t61.5 -74.5t95.5 -25zM403 627q-25 0 -39 15t-14 38q0 24 14.5 40t39.5 16t39 -14.5t14 -38.5q0 -23 -14.5 -39.5t-39.5 -16.5zM207 627q-24 0 -38 15t-14 38q0 24 14 40t39 16t39 -14.5t14 -38.5q0 -23 -14 -39.5t-40 -16.5z" />
    <glyph glyph-name="divide" unicode="&#xf7;" horiz-adv-x="620" 
d="M91 276v61h428v-61h-428zM304 91q-26 0 -44.5 16.5t-18.5 42.5t18.5 43.5t44.5 17.5q27 0 46 -17t19 -43t-19 -43t-46 -17zM304 398q-26 0 -44.5 17t-18.5 43q0 27 18.5 44t44.5 17q27 0 46 -16.5t19 -43.5q0 -26 -19 -43.5t-46 -17.5z" />
    <glyph glyph-name="oslash" unicode="&#xf8;" horiz-adv-x="622" 
d="M55 -14l66 76q-28 34 -42.5 81.5t-14.5 106.5q0 87 30.5 150t87 97t135.5 34q52 0 94 -14.5t73 -42.5l40 45h70l-75 -85q21 -32 32 -74t11 -92q0 -89 -29 -152.5t-87 -96.5t-143 -33q-44 0 -79.5 10.5t-63.5 30.5l-35 -41h-70zM317 41q54 0 92.5 23.5t59 69t20.5 113.5
q0 40 -6 71.5t-17 56.5l-262 -299q14 -11 32 -19t38 -12t43 -4zM169 116l268 305q-16 18 -36 30t-44 17.5t-52 5.5q-52 0 -89.5 -23.5t-57.5 -70.5t-20 -118q0 -46 8.5 -82t22.5 -64z" />
    <glyph glyph-name="ugrave" unicode="&#xf9;" horiz-adv-x="692" 
d="M306 -14q-82 0 -126.5 42.5t-44.5 126.5v249q0 32 -6 46t-31 16l-49 3l7 43l137 12l13 -7v-342q0 -40 9.5 -70t34.5 -46t71 -16q50 0 87.5 21.5t58 57.5t20.5 80v202q0 29 -5 44.5t-32 17.5l-51 3l6 43l140 12l13 -7v-426q0 -25 7 -35.5t27 -11.5l55 -2v-43l-147 -6
l-11 84h-2q-27 -33 -56.5 -53t-60.5 -29t-64 -9zM368 593l-120 90q-18 14 -26 26t-8 25q0 10 4.5 19t13.5 15t19 6t19 -6t19 -19l106 -129z" />
    <glyph glyph-name="uacute" unicode="&#xfa;" horiz-adv-x="692" 
d="M306 -14q-82 0 -126.5 42.5t-44.5 126.5v249q0 32 -6 46t-31 16l-49 3l7 43l137 12l13 -7v-342q0 -40 9.5 -70t34.5 -46t71 -16q50 0 87.5 21.5t58 57.5t20.5 80v202q0 29 -5 44.5t-32 17.5l-51 3l6 43l140 12l13 -7v-426q0 -25 7 -35.5t27 -11.5l55 -2v-43l-147 -6
l-11 84h-2q-27 -33 -56.5 -53t-60.5 -29t-64 -9zM299 593l-26 27l105 129q11 13 20 19t18 6q11 0 19.5 -6t13 -15t4.5 -19q0 -13 -7.5 -25t-26.5 -26z" />
    <glyph glyph-name="ucircumflex" unicode="&#xfb;" horiz-adv-x="692" 
d="M306 -14q-82 0 -126.5 42.5t-44.5 126.5v249q0 32 -6 46t-31 16l-49 3l7 43l137 12l13 -7v-342q0 -40 9.5 -70t34.5 -46t71 -16q50 0 87.5 21.5t58 57.5t20.5 80v202q0 29 -5 44.5t-32 17.5l-51 3l6 43l140 12l13 -7v-426q0 -25 7 -35.5t27 -11.5l55 -2v-43l-147 -6
l-11 84h-2q-27 -33 -56.5 -53t-60.5 -29t-64 -9zM208 593l-29 27l110 133q9 11 20.5 17.5t25.5 6.5q9 0 16 -3t14.5 -8.5t15.5 -16.5l107 -129l-29 -27l-124 103z" />
    <glyph glyph-name="udieresis" unicode="&#xfc;" horiz-adv-x="692" 
d="M306 -14q-82 0 -126.5 42.5t-44.5 126.5v249q0 32 -6 46t-31 16l-49 3l7 43l137 12l13 -7v-342q0 -40 9.5 -70t34.5 -46t71 -16q50 0 87.5 21.5t58 57.5t20.5 80v202q0 29 -5 44.5t-32 17.5l-51 3l6 43l140 12l13 -7v-426q0 -25 7 -35.5t27 -11.5l55 -2v-43l-147 -6
l-11 84h-2q-27 -33 -56.5 -53t-60.5 -29t-64 -9zM426 627q-25 0 -39 15t-14 38q0 24 14.5 40t39.5 16t39 -14.5t14 -38.5q0 -23 -14.5 -39.5t-39.5 -16.5zM230 627q-24 0 -38 15t-14 38q0 24 14 40t39 16t39 -14.5t14 -38.5q0 -23 -14 -39.5t-40 -16.5z" />
    <glyph glyph-name="yacute" unicode="&#xfd;" horiz-adv-x="614" 
d="M123 -230q-45 0 -71.5 22t-26.5 56q0 25 17.5 41t41.5 16q22 0 36.5 -10t14.5 -25q1 -7 0.5 -14.5t-5.5 -34.5q22 -2 40 9t37.5 41.5t45.5 86.5l26 57l-181 406q-13 29 -20 39.5t-25 11.5l-43 2l9 43h231v-41l-51 -2q-17 -1 -24.5 -10t4.5 -39l139 -327h4l138 321
q10 23 5.5 37t-29.5 16l-43 3l6 42h211v-41l-40 -2q-17 -1 -26.5 -10.5t-24.5 -44.5l-218 -486q-20 -43 -38 -74t-38.5 -50.5t-45.5 -29t-56 -9.5zM287 593l-26 27l105 129q11 13 20 19t18 6q11 0 19.5 -6t13 -15t4.5 -19q0 -13 -7.5 -25t-26.5 -26z" />
    <glyph glyph-name="thorn" unicode="&#xfe;" horiz-adv-x="661" 
d="M41 -214v42l57 3q14 1 22.5 9.5t8.5 37.5v775q0 25 -3.5 38t-14 18t-32.5 6l-56 4l4 42l161 5l12 -11v-316l2 5q23 35 52 53.5t61.5 26t67.5 7.5q66 0 114 -29.5t74 -87.5t26 -143q0 -90 -30.5 -154t-86.5 -98t-132 -34q-35 0 -77 9t-71 25v-139q0 -24 6.5 -35t27.5 -13
l71 -4v-42h-264zM346 41q50 0 89.5 23.5t63 73t23.5 126.5q0 78 -20 122.5t-55 63.5t-81 19q-53 0 -90 -20.5t-56.5 -54.5t-19.5 -75v-238q22 -17 62.5 -28.5t83.5 -11.5z" />
    <glyph glyph-name="ydieresis" unicode="&#xff;" horiz-adv-x="614" 
d="M123 -230q-45 0 -71.5 22t-26.5 56q0 25 17.5 41t41.5 16q22 0 36.5 -10t14.5 -25q1 -7 0.5 -14.5t-5.5 -34.5q22 -2 40 9t37.5 41.5t45.5 86.5l26 57l-181 406q-13 29 -20 39.5t-25 11.5l-43 2l9 43h231v-41l-51 -2q-17 -1 -24.5 -10t4.5 -39l139 -327h4l138 321
q10 23 5.5 37t-29.5 16l-43 3l6 42h211v-41l-40 -2q-17 -1 -26.5 -10.5t-24.5 -44.5l-218 -486q-20 -43 -38 -74t-38.5 -50.5t-45.5 -29t-56 -9.5zM414 627q-25 0 -39 15t-14 38q0 24 14.5 40t39.5 16t39 -14.5t14 -38.5q0 -23 -14.5 -39.5t-39.5 -16.5zM218 627
q-24 0 -38 15t-14 38q0 24 14 40t39 16t39 -14.5t14 -38.5q0 -23 -14 -39.5t-40 -16.5z" />
    <glyph glyph-name="Amacron" unicode="&#x100;" horiz-adv-x="763" 
d="M14 0v43l54 5q17 2 26.5 9.5t22.5 41.5l232 601h78l228 -604q8 -23 17 -35t31 -14l47 -4v-43h-260v43l62 4q16 1 24 9.5t-4 40.5l-48 132h-294l-49 -130q-8 -22 -4 -37t29 -17l60 -3v-42h-252zM248 284h257l-124 340h-7zM247 798v66h278v-66h-278z" />
    <glyph glyph-name="amacron" unicode="&#x101;" horiz-adv-x="586" 
d="M220 -14q-67 0 -109 36.5t-42 99.5q0 58 29 93.5t98.5 53.5t190.5 22v77q0 36 -12.5 60.5t-41.5 37.5t-75 13q-32 0 -60 -8t-42 -22q11 -16 17 -27.5t9 -19t3 -13.5q0 -20 -17 -32t-38 -12q-26 0 -41 14t-15 44q0 36 28 65t73 46t94 17q66 0 108 -20t61.5 -58.5
t19.5 -95.5v-257q0 -27 13.5 -40.5t38.5 -13.5q16 0 30.5 3.5t27.5 9.5l13 -38q-16 -15 -42.5 -25t-56.5 -10q-39 0 -61 21t-28 65q-21 -29 -47 -48t-58 -28.5t-68 -9.5zM246 47q37 0 69 14.5t52 40.5t20 57v78q-88 -1 -140.5 -11.5t-77 -32.5t-24.5 -59q0 -45 27.5 -66
t73.5 -21zM128 640v66h278v-66h-278z" />
    <glyph glyph-name="Abreve" unicode="&#x102;" horiz-adv-x="763" 
d="M14 0v43l54 5q17 2 26.5 9.5t22.5 41.5l232 601h78l228 -604q8 -23 17 -35t31 -14l47 -4v-43h-260v43l62 4q16 1 24 9.5t-4 40.5l-48 132h-294l-49 -130q-8 -22 -4 -37t29 -17l60 -3v-42h-252zM248 284h257l-124 340h-7zM388 758q-49 0 -81 21t-48 56.5t-21 78.5l50 11
q14 -50 34.5 -76t69.5 -26q50 0 71.5 28.5t32.5 73.5l49 -10q-3 -40 -21 -75.5t-51 -58.5t-85 -23z" />
    <glyph glyph-name="abreve" unicode="&#x103;" horiz-adv-x="586" 
d="M220 -14q-67 0 -109 36.5t-42 99.5q0 58 29 93.5t98.5 53.5t190.5 22v77q0 36 -12.5 60.5t-41.5 37.5t-75 13q-32 0 -60 -8t-42 -22q11 -16 17 -27.5t9 -19t3 -13.5q0 -20 -17 -32t-38 -12q-26 0 -41 14t-15 44q0 36 28 65t73 46t94 17q66 0 108 -20t61.5 -58.5
t19.5 -95.5v-257q0 -27 13.5 -40.5t38.5 -13.5q16 0 30.5 3.5t27.5 9.5l13 -38q-16 -15 -42.5 -25t-56.5 -10q-39 0 -61 21t-28 65q-21 -29 -47 -48t-58 -28.5t-68 -9.5zM246 47q37 0 69 14.5t52 40.5t20 57v78q-88 -1 -140.5 -11.5t-77 -32.5t-24.5 -59q0 -45 27.5 -66
t73.5 -21zM270 602q-47 0 -77.5 22t-47 59t-21.5 80l50 10q10 -53 32 -81t68 -28q48 0 70.5 30t31.5 77l47 -7q-3 -40 -20.5 -77.5t-50 -61t-82.5 -23.5z" />
    <glyph glyph-name="Aogonek" unicode="&#x104;" horiz-adv-x="763" 
d="M613 -224q-25 0 -45 10t-30 28t-10 42q0 27 17 52.5t43 48.5t54 43h-152v43l62 4q16 1 24 9.5t-4 40.5l-48 132h-294l-49 -130q-8 -22 -4 -37t29 -17l60 -3v-42h-252v43l54 5q17 2 26.5 9.5t22.5 41.5l232 601h78l228 -604q8 -23 17 -35t31 -14l47 -4v-43h-63
q-49 -40 -71.5 -70.5t-22.5 -59.5q0 -21 10.5 -32t34.5 -11q14 0 31 4.5t30 11.5l14 -37q-12 -7 -28 -14.5t-35 -11.5t-37 -4zM248 284h257l-124 340h-7z" />
    <glyph glyph-name="aogonek" unicode="&#x105;" horiz-adv-x="586" 
d="M492 -224q-38 0 -61.5 22t-23.5 56q0 27 12.5 51t32 44t39.5 36q-45 -1 -68.5 20.5t-29.5 66.5q-31 -43 -75 -64.5t-98 -21.5q-67 0 -109 36.5t-42 99.5q0 58 29 93.5t98.5 53.5t190.5 22v77q0 53 -29 82t-100 29q-32 0 -60 -8t-42 -22q17 -24 23 -37.5t6 -22.5
q0 -20 -17 -32t-38 -12q-26 0 -41 14t-15 44q0 36 28 65t73 46t94 17q100 0 144.5 -44.5t44.5 -129.5v-257q0 -27 13.5 -40.5t38.5 -13.5q16 0 30.5 3.5t27.5 9.5l13 -38q-11 -9 -29.5 -26.5t-36.5 -39.5t-30 -45t-12 -43q0 -19 10.5 -29.5t34.5 -10.5q14 0 30 4.5t29 11.5
l14 -37q-19 -12 -44.5 -21t-54.5 -9zM246 47q37 0 69 14.5t52 40.5t20 57v78q-88 -1 -140.5 -11.5t-77 -32.5t-24.5 -59q0 -45 27.5 -66t73.5 -21z" />
    <glyph glyph-name="Cacute" unicode="&#x106;" horiz-adv-x="738" 
d="M407 -14q-104 0 -179.5 43t-115.5 124.5t-40 195.5q0 87 23.5 154.5t68 114.5t105 71.5t134.5 24.5q61 0 105.5 -17.5t78.5 -47.5l12 64h36l38 -224l-41 -10q-23 63 -54.5 102t-74 57.5t-99.5 18.5q-75 0 -131.5 -32.5t-87.5 -96.5t-31 -161q0 -78 18.5 -137.5
t52.5 -99.5t81.5 -60.5t107.5 -20.5q48 0 88 11.5t75 36.5t69 64l36 -32q-26 -38 -58 -65.5t-67.5 -44.5t-73 -25t-76.5 -8zM340 751l-22 30l128 116q14 11 22.5 15.5t17.5 4.5q15 0 24.5 -14t9.5 -29q0 -16 -9.5 -27.5t-27.5 -21.5z" />
    <glyph glyph-name="cacute" unicode="&#x107;" horiz-adv-x="548" 
d="M301 -14q-75 0 -127.5 31t-81 91t-28.5 146q0 89 30 150.5t84 94t125 32.5q55 0 98 -16.5t68 -45t25 -66.5q0 -21 -8.5 -35.5t-21 -22t-29.5 -7.5q-27 0 -39.5 13t-12.5 30q0 12 6.5 26.5t19.5 37.5q-16 13 -43.5 22t-59.5 9q-48 0 -86 -18.5t-61 -62.5t-23 -123
q0 -127 50.5 -175t125.5 -48q50 0 87.5 19t67.5 42l31 -35q-37 -42 -87.5 -65.5t-109.5 -23.5zM265 593l-26 27l105 129q11 13 20 19t18 6q11 0 19.5 -6t13 -15t4.5 -19q0 -13 -7.5 -25t-26.5 -26z" />
    <glyph glyph-name="Ccircumflex" unicode="&#x108;" horiz-adv-x="738" 
d="M407 -14q-104 0 -179.5 43t-115.5 124.5t-40 195.5q0 87 23.5 154.5t68 114.5t105 71.5t134.5 24.5q61 0 105.5 -17.5t78.5 -47.5l12 64h36l38 -224l-41 -10q-23 63 -54.5 102t-74 57.5t-99.5 18.5q-75 0 -131.5 -32.5t-87.5 -96.5t-31 -161q0 -78 18.5 -137.5
t52.5 -99.5t81.5 -60.5t107.5 -20.5q48 0 88 11.5t75 36.5t69 64l36 -32q-26 -38 -58 -65.5t-67.5 -44.5t-73 -25t-76.5 -8zM257 745l-20 32l119 120q9 10 18.5 15.5t20.5 5.5q10 0 19.5 -6t24.5 -21l113 -113l-21 -33l-136 88z" />
    <glyph glyph-name="ccircumflex" unicode="&#x109;" horiz-adv-x="548" 
d="M301 -14q-75 0 -127.5 31t-81 91t-28.5 146q0 89 30 150.5t84 94t125 32.5q55 0 98 -16.5t68 -45t25 -66.5q0 -21 -8.5 -35.5t-21 -22t-29.5 -7.5q-27 0 -39.5 13t-12.5 30q0 12 6.5 26.5t19.5 37.5q-16 13 -43.5 22t-59.5 9q-48 0 -86 -18.5t-61 -62.5t-23 -123
q0 -127 50.5 -175t125.5 -48q50 0 87.5 19t67.5 42l31 -35q-37 -42 -87.5 -65.5t-109.5 -23.5zM174 593l-29 27l110 133q9 11 20.5 17.5t25.5 6.5q9 0 16 -3t14.5 -8.5t15.5 -16.5l107 -129l-29 -27l-124 103z" />
    <glyph glyph-name="Cdotaccent" unicode="&#x10a;" horiz-adv-x="738" 
d="M407 -14q-104 0 -179.5 43t-115.5 124.5t-40 195.5q0 87 23.5 154.5t68 114.5t105 71.5t134.5 24.5q61 0 105.5 -17.5t78.5 -47.5l12 64h36l38 -224l-41 -10q-23 63 -54.5 102t-74 57.5t-99.5 18.5q-75 0 -131.5 -32.5t-87.5 -96.5t-31 -161q0 -78 18.5 -137.5
t52.5 -99.5t81.5 -60.5t107.5 -20.5q48 0 88 11.5t75 36.5t69 64l36 -32q-26 -38 -58 -65.5t-67.5 -44.5t-73 -25t-76.5 -8zM393 770q-26 0 -41 16t-15 40q0 25 15.5 41.5t41.5 16.5t41.5 -15t15.5 -40q0 -24 -15.5 -41.5t-42.5 -17.5z" />
    <glyph glyph-name="cdotaccent" unicode="&#x10b;" horiz-adv-x="548" 
d="M301 -14q-75 0 -127.5 31t-81 91t-28.5 146q0 89 30 150.5t84 94t125 32.5q55 0 98 -16.5t68 -45t25 -66.5q0 -21 -8.5 -35.5t-21 -22t-29.5 -7.5q-27 0 -39.5 13t-12.5 30q0 12 6.5 26.5t19.5 37.5q-16 13 -43.5 22t-59.5 9q-48 0 -86 -18.5t-61 -62.5t-23 -123
q0 -127 50.5 -175t125.5 -48q50 0 87.5 19t67.5 42l31 -35q-37 -42 -87.5 -65.5t-109.5 -23.5zM298 627q-26 0 -41 15.5t-15 39.5q0 25 15.5 41.5t41.5 16.5t41.5 -15t15.5 -40q0 -24 -15.5 -41t-42.5 -17z" />
    <glyph glyph-name="Ccaron" unicode="&#x10c;" horiz-adv-x="738" 
d="M407 -14q-104 0 -179.5 43t-115.5 124.5t-40 195.5q0 87 23.5 154.5t68 114.5t105 71.5t134.5 24.5q61 0 105.5 -17.5t78.5 -47.5l12 64h36l38 -224l-41 -10q-23 63 -54.5 102t-74 57.5t-99.5 18.5q-75 0 -131.5 -32.5t-87.5 -96.5t-31 -161q0 -78 18.5 -137.5
t52.5 -99.5t81.5 -60.5t107.5 -20.5q48 0 88 11.5t75 36.5t69 64l36 -32q-26 -38 -58 -65.5t-67.5 -44.5t-73 -25t-76.5 -8zM393 761q-9 0 -18.5 6t-25.5 21l-112 113l21 33l136 -88l137 88l21 -32l-119 -120q-10 -10 -19.5 -15.5t-20.5 -5.5z" />
    <glyph glyph-name="ccaron" unicode="&#x10d;" horiz-adv-x="548" 
d="M301 -14q-75 0 -127.5 31t-81 91t-28.5 146q0 89 30 150.5t84 94t125 32.5q55 0 98 -16.5t68 -45t25 -66.5q0 -21 -8.5 -35.5t-21 -22t-29.5 -7.5q-27 0 -39.5 13t-12.5 30q0 12 6.5 26.5t19.5 37.5q-16 13 -43.5 22t-59.5 9q-48 0 -86 -18.5t-61 -62.5t-23 -123
q0 -127 50.5 -175t125.5 -48q50 0 87.5 19t67.5 42l31 -35q-37 -42 -87.5 -65.5t-109.5 -23.5zM299 598q-10 0 -18 2t-14.5 8t-15.5 16l-101 129l32 27l118 -103l121 103l31 -26l-109 -134q-8 -11 -19 -16.5t-25 -5.5z" />
    <glyph glyph-name="Dcaron" unicode="&#x10e;" horiz-adv-x="822" 
d="M72 0v42l68 4q21 2 27.5 12.5t6.5 38.5v509q0 26 -6 36t-31 11l-65 4v43h300q74 0 134.5 -13.5t106 -40.5t76 -66.5t46 -91.5t15.5 -116q0 -95 -28 -165.5t-80 -115.5t-125 -68t-164 -23h-281zM345 52q78 0 138.5 16.5t101.5 52.5t62 95.5t21 145.5q0 98 -32.5 161
t-99 94t-169.5 31h-120v-596h42.5h55.5zM394 761q-9 0 -18.5 6t-25.5 21l-112 113l21 33l136 -88l137 88l21 -32l-119 -120q-10 -10 -19.5 -15.5t-20.5 -5.5z" />
    <glyph glyph-name="dcaron" unicode="&#x10f;" horiz-adv-x="752" 
d="M285 -14q-71 0 -120 30t-74.5 88.5t-25.5 141.5q0 89 31 152.5t88.5 98t136.5 34.5q39 0 77 -9.5t63 -24.5v158q0 34 -8 46t-38 14l-60 4l5 42l160 5l12 -11v-668q0 -18 5 -31t30 -14l58 -3v-42l-144 -5l-11 78h-8q-20 -26 -46.5 -45.5t-59 -29t-71.5 -9.5zM302 49
q48 0 83.5 20t55.5 53.5t20 76.5v234q-27 20 -64 31t-81 11q-54 0 -93.5 -24.5t-61 -73.5t-21.5 -123q0 -67 18 -112.5t54.5 -69t89.5 -23.5zM657 544l-28 31q22 22 31 45.5t9 38.5q0 10 -3.5 17.5t-15.5 17.5q-10 8 -13 16t-3 18q0 23 16 33.5t33 10.5q36 0 50.5 -22
t14.5 -45q0 -22 -11.5 -50.5t-31.5 -57.5t-48 -53z" />
    <glyph glyph-name="Dcroat" unicode="&#x110;" horiz-adv-x="822" 
d="M72 0v42l68 4q21 2 27.5 12.5t6.5 38.5v236h-111l7 53h104v220q0 26 -6 36t-31 11l-65 4v43h300q74 0 134.5 -13.5t106 -40.5t76 -66.5t46 -91.5t15.5 -116q0 -95 -28 -165.5t-80 -115.5t-125 -68t-164 -23h-281zM345 52q78 0 138.5 16.5t101.5 52.5t62 95.5t21 145.5
q0 98 -32.5 161t-99 94t-169.5 31h-120v-262h202v-53h-202v-281h47.5h50.5z" />
    <glyph glyph-name="dcroat" unicode="&#x111;" horiz-adv-x="674" 
d="M285 -14q-71 0 -120 30t-74.5 88.5t-25.5 141.5q0 89 31 152.5t88.5 98t136.5 34.5q39 0 77 -9.5t63 -24.5v98h-147l6 48h141v18q0 34 -8 43t-38 11l-60 4l5 42l160 5l12 -11v-112h104v-48h-104v-508q0 -18 5 -31t30 -14l58 -3v-42l-144 -5l-11 78h-8
q-20 -26 -46.5 -45.5t-59 -29t-71.5 -9.5zM302 49q48 0 83.5 20t55.5 53.5t20 76.5v234q-27 20 -64 31t-81 11q-54 0 -93.5 -24.5t-61 -73.5t-21.5 -123q0 -67 18 -112.5t54.5 -69t89.5 -23.5z" />
    <glyph glyph-name="Emacron" unicode="&#x112;" horiz-adv-x="671" 
d="M72 0v42l69 4q18 1 25.5 11t7.5 40v509q0 24 -6 35t-30 12l-66 4v43h480l37 -163l-43 -13q-17 45 -31 70.5t-32 37t-42.5 14t-62.5 2.5h-131v-267h121q34 0 51 5t25 22.5t17 54.5l39 5v-218l-39 -6q-7 41 -17 59.5t-29 23.5t-56 5h-112v-279h167q38 0 63 5.5t41.5 20
t27.5 39.5t21 64h43l-22 -182h-516zM202 798v66h278v-66h-278z" />
    <glyph glyph-name="emacron" unicode="&#x113;" horiz-adv-x="552" 
d="M306 -14q-74 0 -128.5 32t-84 91.5t-29.5 141.5q0 86 29 148.5t81.5 97t127.5 34.5q61 0 103 -22.5t64.5 -63t22.5 -96.5q0 -26 -0.5 -49t-3.5 -49h-351q2 -71 25 -115t64.5 -64.5t95.5 -20.5q41 0 79 14.5t69 41.5l30 -33q-37 -42 -87.5 -65t-106.5 -23zM138 306h281
q2 13 2 24v25q0 53 -31 85.5t-92 32.5q-45 0 -79.5 -19t-54.5 -56t-26 -92zM157 640v66h278v-66h-278z" />
    <glyph glyph-name="Ebreve" unicode="&#x114;" horiz-adv-x="671" 
d="M72 0v42l69 4q18 1 25.5 11t7.5 40v509q0 24 -6 35t-30 12l-66 4v43h480l37 -163l-43 -13q-17 45 -31 70.5t-32 37t-42.5 14t-62.5 2.5h-131v-267h121q34 0 51 5t25 22.5t17 54.5l39 5v-218l-39 -6q-7 41 -17 59.5t-29 23.5t-56 5h-112v-279h167q38 0 63 5.5t41.5 20
t27.5 39.5t21 64h43l-22 -182h-516zM343 758q-49 0 -81 21t-48 56.5t-21 78.5l50 11q14 -50 34.5 -76t69.5 -26q50 0 71.5 28.5t32.5 73.5l49 -10q-3 -40 -21 -75.5t-51 -58.5t-85 -23z" />
    <glyph glyph-name="ebreve" unicode="&#x115;" horiz-adv-x="552" 
d="M306 -14q-74 0 -128.5 32t-84 91.5t-29.5 141.5q0 86 29 148.5t81.5 97t127.5 34.5q61 0 103 -22.5t64.5 -63t22.5 -96.5q0 -26 -0.5 -49t-3.5 -49h-351q2 -71 25 -115t64.5 -64.5t95.5 -20.5q41 0 79 14.5t69 41.5l30 -33q-37 -42 -87.5 -65t-106.5 -23zM138 306h281
q2 13 2 24v25q0 53 -31 85.5t-92 32.5q-45 0 -79.5 -19t-54.5 -56t-26 -92zM299 602q-47 0 -77.5 22t-47 59t-21.5 80l50 10q10 -53 32 -81t68 -28q48 0 70.5 30t31.5 77l47 -7q-3 -40 -20.5 -77.5t-50 -61t-82.5 -23.5z" />
    <glyph glyph-name="Edotaccent" unicode="&#x116;" horiz-adv-x="671" 
d="M72 0v42l69 4q18 1 25.5 11t7.5 40v509q0 24 -6 35t-30 12l-66 4v43h480l37 -163l-43 -13q-17 45 -31 70.5t-32 37t-42.5 14t-62.5 2.5h-131v-267h121q34 0 51 5t25 22.5t17 54.5l39 5v-218l-39 -6q-7 41 -17 59.5t-29 23.5t-56 5h-112v-279h167q38 0 63 5.5t41.5 20
t27.5 39.5t21 64h43l-22 -182h-516zM341 770q-26 0 -41 16t-15 40q0 25 15.5 41.5t41.5 16.5t41.5 -15t15.5 -40q0 -24 -15.5 -41.5t-42.5 -17.5z" />
    <glyph glyph-name="edotaccent" unicode="&#x117;" horiz-adv-x="552" 
d="M306 -14q-74 0 -128.5 32t-84 91.5t-29.5 141.5q0 86 29 148.5t81.5 97t127.5 34.5q61 0 103 -22.5t64.5 -63t22.5 -96.5q0 -26 -0.5 -49t-3.5 -49h-351q2 -71 25 -115t64.5 -64.5t95.5 -20.5q41 0 79 14.5t69 41.5l30 -33q-37 -42 -87.5 -65t-106.5 -23zM138 306h281
q2 13 2 24v25q0 53 -31 85.5t-92 32.5q-45 0 -79.5 -19t-54.5 -56t-26 -92zM295 627q-26 0 -41 15.5t-15 39.5q0 25 15.5 41.5t41.5 16.5t41.5 -15t15.5 -40q0 -24 -15.5 -41t-42.5 -17z" />
    <glyph glyph-name="Eogonek" unicode="&#x118;" horiz-adv-x="671" 
d="M491 -224q-25 0 -44.5 10t-30 28t-10.5 42q0 29 18 54.5t48 48t67 41.5h-467v42l69 4q18 1 25.5 11t7.5 40v509q0 24 -6 35t-30 12l-66 4v43h480l37 -163l-43 -13q-17 45 -31 70.5t-32 37t-42.5 14t-62.5 2.5h-131v-267h121q34 0 51 5t25 22.5t17 54.5l39 5v-218l-39 -6
q-7 41 -17 59.5t-29 23.5t-56 5h-112v-279h167q38 0 63 5.5t41.5 20t27.5 39.5t21 64h43l-22 -182q-46 -29 -71.5 -51.5t-35.5 -41t-10 -37.5q0 -21 10.5 -32t34.5 -11q14 0 31 4.5t30 11.5l14 -37q-12 -7 -28 -14.5t-35 -11.5t-37 -4z" />
    <glyph glyph-name="eogonek" unicode="&#x119;" horiz-adv-x="552" 
d="M338 -224q-25 0 -44.5 10t-30 27.5t-10.5 40.5q0 41 28.5 76t61.5 59l-18 -2t-19 -1q-74 0 -128.5 32t-84 91.5t-29.5 141.5q0 86 29 148.5t81.5 97t127.5 34.5q61 0 103 -22.5t64.5 -63t22.5 -96.5q0 -26 -0.5 -49t-3.5 -49h-351q2 -71 25 -115t64.5 -64.5t95.5 -20.5
q41 0 79 14.5t69 41.5l30 -33q-17 -20 -38 -36t-45 -28q-31 -24 -53.5 -48.5t-34 -47.5t-11.5 -44t10.5 -32t34.5 -11q14 0 30 4.5t29 11.5l14 -37q-12 -7 -27.5 -14.5t-34 -11.5t-36.5 -4zM138 306h281q2 13 2 24v25q0 53 -31 85.5t-92 32.5q-45 0 -79.5 -19t-54.5 -56
t-26 -92z" />
    <glyph glyph-name="Ecaron" unicode="&#x11a;" horiz-adv-x="671" 
d="M72 0v42l69 4q18 1 25.5 11t7.5 40v509q0 24 -6 35t-30 12l-66 4v43h480l37 -163l-43 -13q-17 45 -31 70.5t-32 37t-42.5 14t-62.5 2.5h-131v-267h121q34 0 51 5t25 22.5t17 54.5l39 5v-218l-39 -6q-7 41 -17 59.5t-29 23.5t-56 5h-112v-279h167q38 0 63 5.5t41.5 20
t27.5 39.5t21 64h43l-22 -182h-516zM341 761q-9 0 -18.5 6t-25.5 21l-112 113l21 33l136 -88l137 88l21 -32l-119 -120q-10 -10 -19.5 -15.5t-20.5 -5.5z" />
    <glyph glyph-name="ecaron" unicode="&#x11b;" horiz-adv-x="552" 
d="M306 -14q-74 0 -128.5 32t-84 91.5t-29.5 141.5q0 86 29 148.5t81.5 97t127.5 34.5q61 0 103 -22.5t64.5 -63t22.5 -96.5q0 -26 -0.5 -49t-3.5 -49h-351q2 -71 25 -115t64.5 -64.5t95.5 -20.5q41 0 79 14.5t69 41.5l30 -33q-37 -42 -87.5 -65t-106.5 -23zM138 306h281
q2 13 2 24v25q0 53 -31 85.5t-92 32.5q-45 0 -79.5 -19t-54.5 -56t-26 -92zM295 598q-10 0 -18 2t-14.5 8t-15.5 16l-101 129l32 27l118 -103l121 103l31 -26l-109 -134q-8 -11 -19 -16.5t-25 -5.5z" />
    <glyph glyph-name="Gcircumflex" unicode="&#x11c;" horiz-adv-x="807" 
d="M407 -14q-105 0 -180 43.5t-115 125t-40 193.5q0 91 23.5 160t67 114.5t104 68.5t134.5 23q64 0 110.5 -16t84.5 -46l11 61h36l38 -216l-42 -10q-25 63 -58.5 99.5t-79 52.5t-104.5 16q-51 0 -95.5 -16.5t-77.5 -51t-51.5 -89t-18.5 -129.5q0 -72 17 -130t50.5 -99.5
t84.5 -64.5t118 -23q38 0 71 7.5t60.5 20t46.5 28.5v131q0 21 -6 32.5t-31 12.5l-67 4v43h267v-43l-56 -4q-15 0 -23 -9.5t-8 -39.5v-238h-43l-22 58q-30 -22 -63.5 -37.5t-69.5 -23.5t-73 -8zM265 745l-20 32l119 120q9 10 18.5 15.5t20.5 5.5q10 0 19.5 -6t24.5 -21
l113 -113l-21 -33l-136 88z" />
    <glyph glyph-name="gcircumflex" unicode="&#x11d;" horiz-adv-x="598" 
d="M146 603l-25 27l114 134q8 11 18.5 16.5t20.5 5.5q11 0 19 -5.5t21 -21.5l109 -129l-26 -27l-124 105zM270 -230q-51 0 -94 7.5t-75 23t-49.5 39.5t-17.5 58q0 25 10.5 45.5t31 39.5t51.5 35v3q-23 12 -38.5 31t-15.5 43q0 25 17 54t52 62v3q-41 23 -60.5 57.5
t-19.5 80.5q0 53 25.5 93t72 62t111.5 22q25 0 47 -3.5t40.5 -9.5t33.5 -15q18 50 47.5 71.5t65.5 21.5q20 0 34.5 -7t22 -17.5t7.5 -23.5q0 -20 -16 -35.5t-35 -15.5q-13 0 -23 6t-19 20l-12 18q-11 -13 -18.5 -29t-14.5 -37q22 -22 33.5 -51.5t11.5 -61.5q0 -55 -25.5 -94
t-72 -60t-107.5 -21q-25 0 -44 2.5t-34 6.5q-18 -17 -33.5 -38.5t-15.5 -40.5q0 -16 9.5 -26.5t27.5 -16t41 -5.5h146q75 0 123.5 -25.5t48.5 -92.5q0 -38 -14.5 -67.5t-41 -50.5t-61 -34.5t-73.5 -20t-80 -6.5zM274 -170q56 0 99 12.5t68 36t25 56.5t-26 49.5t-77 16.5
h-194q-27 -16 -44.5 -38.5t-17.5 -50.5q0 -38 40.5 -60t126.5 -22zM269 244q64 0 98.5 29.5t34.5 83.5q0 50 -36 81.5t-102 31.5q-60 0 -94.5 -31t-34.5 -82t37 -82t97 -31z" />
    <glyph glyph-name="Gbreve" unicode="&#x11e;" horiz-adv-x="807" 
d="M407 -14q-105 0 -180 43.5t-115 125t-40 193.5q0 91 23.5 160t67 114.5t104 68.5t134.5 23q64 0 110.5 -16t84.5 -46l11 61h36l38 -216l-42 -10q-25 63 -58.5 99.5t-79 52.5t-104.5 16q-51 0 -95.5 -16.5t-77.5 -51t-51.5 -89t-18.5 -129.5q0 -72 17 -130t50.5 -99.5
t84.5 -64.5t118 -23q38 0 71 7.5t60.5 20t46.5 28.5v131q0 21 -6 32.5t-31 12.5l-67 4v43h267v-43l-56 -4q-15 0 -23 -9.5t-8 -39.5v-238h-43l-22 58q-30 -22 -63.5 -37.5t-69.5 -23.5t-73 -8zM403 758q-49 0 -81 21t-48 56.5t-21 78.5l50 11q14 -50 34.5 -76t69.5 -26
q50 0 71.5 28.5t32.5 73.5l49 -10q-3 -40 -21 -75.5t-51 -58.5t-85 -23z" />
    <glyph glyph-name="gbreve" unicode="&#x11f;" horiz-adv-x="580" 
d="M270 -230q-51 0 -94 7.5t-75 23t-49.5 39.5t-17.5 58q0 25 10.5 45.5t31 39.5t51.5 35v3q-23 12 -38.5 31t-15.5 43q0 25 17 54t52 62v3q-41 23 -60.5 57.5t-19.5 80.5q0 53 25.5 93t72 62t111.5 22q25 0 47 -3.5t40.5 -9.5t33.5 -15q18 50 47.5 71.5t65.5 21.5
q20 0 34.5 -7t22 -17.5t7.5 -23.5q0 -20 -16 -35.5t-35 -15.5q-13 0 -23 6t-19 20l-12 18q-11 -13 -18.5 -29t-14.5 -37q22 -22 33.5 -51.5t11.5 -61.5q0 -55 -25.5 -94t-72 -60t-107.5 -21q-25 0 -44 2.5t-34 6.5q-18 -17 -33.5 -38.5t-15.5 -40.5q0 -16 9.5 -26.5
t27.5 -16t41 -5.5h146q75 0 123.5 -25.5t48.5 -92.5q0 -38 -14.5 -67.5t-41 -50.5t-61 -34.5t-73.5 -20t-80 -6.5zM274 -170q56 0 99 12.5t68 36t25 56.5t-26 49.5t-77 16.5h-194q-27 -16 -44.5 -38.5t-17.5 -50.5q0 -38 40.5 -60t126.5 -22zM269 244q64 0 98.5 29.5
t34.5 83.5q0 50 -36 81.5t-102 31.5q-60 0 -94.5 -31t-34.5 -82t37 -82t97 -31zM265 612q-47 0 -77.5 22t-47 59t-21.5 80l50 10q10 -53 32 -81t68 -28q48 0 70.5 30t31.5 77l47 -7q-3 -40 -20.5 -77.5t-50 -61t-82.5 -23.5z" />
    <glyph glyph-name="Gdotaccent" unicode="&#x120;" horiz-adv-x="807" 
d="M407 -14q-105 0 -180 43.5t-115 125t-40 193.5q0 91 23.5 160t67 114.5t104 68.5t134.5 23q64 0 110.5 -16t84.5 -46l11 61h36l38 -216l-42 -10q-25 63 -58.5 99.5t-79 52.5t-104.5 16q-51 0 -95.5 -16.5t-77.5 -51t-51.5 -89t-18.5 -129.5q0 -72 17 -130t50.5 -99.5
t84.5 -64.5t118 -23q38 0 71 7.5t60.5 20t46.5 28.5v131q0 21 -6 32.5t-31 12.5l-67 4v43h267v-43l-56 -4q-15 0 -23 -9.5t-8 -39.5v-238h-43l-22 58q-30 -22 -63.5 -37.5t-69.5 -23.5t-73 -8zM401 770q-26 0 -41 16t-15 40q0 25 15.5 41.5t41.5 16.5t41.5 -15t15.5 -40
q0 -24 -15.5 -41.5t-42.5 -17.5z" />
    <glyph glyph-name="gdotaccent" unicode="&#x121;" horiz-adv-x="580" 
d="M270 -230q-51 0 -94 7.5t-75 23t-49.5 39.5t-17.5 58q0 25 10.5 45.5t31 39.5t51.5 35v3q-23 12 -38.5 31t-15.5 43q0 25 17 54t52 62v3q-41 23 -60.5 57.5t-19.5 80.5q0 53 25.5 93t72 62t111.5 22q25 0 47 -3.5t40.5 -9.5t33.5 -15q18 50 47.5 71.5t65.5 21.5
q20 0 34.5 -7t22 -17.5t7.5 -23.5q0 -20 -16 -35.5t-35 -15.5q-13 0 -23 6t-19 20l-12 18q-11 -13 -18.5 -29t-14.5 -37q22 -22 33.5 -51.5t11.5 -61.5q0 -55 -25.5 -94t-72 -60t-107.5 -21q-25 0 -44 2.5t-34 6.5q-18 -17 -33.5 -38.5t-15.5 -40.5q0 -16 9.5 -26.5
t27.5 -16t41 -5.5h146q75 0 123.5 -25.5t48.5 -92.5q0 -38 -14.5 -67.5t-41 -50.5t-61 -34.5t-73.5 -20t-80 -6.5zM274 -170q56 0 99 12.5t68 36t25 56.5t-26 49.5t-77 16.5h-194q-27 -16 -44.5 -38.5t-17.5 -50.5q0 -38 40.5 -60t126.5 -22zM269 244q64 0 98.5 29.5
t34.5 83.5q0 50 -36 81.5t-102 31.5q-60 0 -94.5 -31t-34.5 -82t37 -82t97 -31zM261 637q-26 0 -41 15.5t-15 39.5q0 25 15.5 41.5t41.5 16.5t41.5 -15t15.5 -40q0 -24 -15.5 -41t-42.5 -17z" />
    <glyph glyph-name="uni0122" unicode="&#x122;" horiz-adv-x="807" 
d="M407 -14q-105 0 -180 43.5t-115 125t-40 193.5q0 91 23.5 160t67 114.5t104 68.5t134.5 23q64 0 110.5 -16t84.5 -46l11 61h36l38 -216l-42 -10q-25 63 -58.5 99.5t-79 52.5t-104.5 16q-51 0 -95.5 -16.5t-77.5 -51t-51.5 -89t-18.5 -129.5q0 -72 17 -130t50.5 -99.5
t84.5 -64.5t118 -23q38 0 71 7.5t60.5 20t46.5 28.5v131q0 21 -6 32.5t-31 12.5l-67 4v43h267v-43l-56 -4q-15 0 -23 -9.5t-8 -39.5v-238h-43l-22 58q-30 -22 -63.5 -37.5t-69.5 -23.5t-73 -8zM381 -270l-24 27q16 16 26 31t15 30t5 27h-11q-22 0 -33 12.5t-11 33.5
q0 15 6 27t18.5 18.5t30.5 6.5q21 0 35 -10.5t20 -26.5t6 -33q0 -24 -11 -50.5t-29.5 -50.5t-42.5 -42z" />
    <glyph glyph-name="uni0123" unicode="&#x123;" horiz-adv-x="580" 
d="M270 -230q-51 0 -94 7.5t-75 23t-49.5 39.5t-17.5 58q0 25 10.5 45.5t31 39.5t51.5 35v3q-23 12 -38.5 31t-15.5 43q0 25 17 54t52 62v3q-41 23 -60.5 57.5t-19.5 80.5q0 53 25.5 93t72 62t111.5 22q25 0 47 -3.5t40.5 -9.5t33.5 -15q18 50 47.5 71.5t65.5 21.5
q20 0 34.5 -7t22 -17.5t7.5 -23.5q0 -20 -16 -35.5t-35 -15.5q-13 0 -23 6t-19 20l-12 18q-11 -13 -18.5 -29t-14.5 -37q22 -22 33.5 -51.5t11.5 -61.5q0 -55 -25.5 -94t-72 -60t-107.5 -21q-25 0 -44 2.5t-34 6.5q-18 -17 -33.5 -38.5t-15.5 -40.5q0 -16 9.5 -26.5
t27.5 -16t41 -5.5h146q75 0 123.5 -25.5t48.5 -92.5q0 -38 -14.5 -67.5t-41 -50.5t-61 -34.5t-73.5 -20t-80 -6.5zM274 -170q56 0 99 12.5t68 36t25 56.5t-26 49.5t-77 16.5h-194q-27 -16 -44.5 -38.5t-17.5 -50.5q0 -38 40.5 -60t126.5 -22zM269 244q64 0 98.5 29.5
t34.5 83.5q0 50 -36 81.5t-102 31.5q-60 0 -94.5 -31t-34.5 -82t37 -82t97 -31zM261 590q-33 0 -47 22t-14 47t10 51t28.5 50t42.5 42l27 -31q-16 -15 -25.5 -29t-13.5 -27t-4 -27h9q24 0 34 -13.5t10 -33.5q0 -15 -6 -27t-18.5 -18t-32.5 -6z" />
    <glyph glyph-name="Hcircumflex" unicode="&#x124;" horiz-adv-x="896" 
d="M72 0v42l69 4q17 1 25 10.5t8 40.5v509q0 21 -5.5 33.5t-30.5 13.5l-66 4v43h276v-43l-69 -4q-17 -1 -24.5 -11.5t-7.5 -39.5v-216h405v220q0 19 -4.5 32.5t-31.5 14.5l-64 4v43h273v-43l-68 -4q-19 -1 -25.5 -11t-6.5 -40v-509q0 -19 4.5 -32t30.5 -15l65 -4v-42h-273
v42l67 4q20 2 26.5 12.5t6.5 38.5v237h-405v-241q0 -25 7 -35t28 -12l66 -4v-42h-276zM313 745l-20 32l119 120q9 10 18.5 15.5t20.5 5.5q10 0 19.5 -6t24.5 -21l113 -113l-21 -33l-136 88z" />
    <glyph glyph-name="hcircumflex" unicode="&#x125;" horiz-adv-x="708" 
d="M62 0v42l56 4q18 1 23.5 11t5.5 36v563q0 32 -8 44t-36 14l-62 5l5 42l160 5l12 -11v-320l1 4q28 43 79 67.5t107 24.5q55 0 94 -19t60 -56.5t21 -93.5v-275q0 -16 4.5 -28.5t28.5 -13.5l55 -3v-42h-237v43l45 2q19 1 26 8.5t7 33.5v250q0 43 -11 71.5t-38.5 44
t-74.5 15.5q-48 0 -86 -18.5t-59.5 -52t-21.5 -77.5v-229q0 -22 5.5 -32t21.5 -11l56 -5v-43h-239zM-11 795l-20 32l119 120q9 10 18.5 15.5t20.5 5.5q10 0 19.5 -6t24.5 -21l113 -113l-21 -33l-136 88z" />
    <glyph glyph-name="Hbar" unicode="&#x126;" horiz-adv-x="922" 
d="M85 0v42l69 4q20 2 26.5 12.5t6.5 38.5v391h-108l7 51h101v67q0 25 -7 36t-29 11l-66 4v43h276v-43l-69 -4q-17 -1 -24.5 -11.5t-7.5 -39.5v-63h405v67q0 20 -5 33.5t-31 13.5l-64 4v43h273v-43l-68 -4q-18 -1 -25 -11.5t-7 -39.5v-63h101v-51h-101v-395q0 -20 5 -32.5
t30 -14.5l65 -4v-42h-273v42l67 4q20 2 26.5 12.5t6.5 38.5v228h-405v-232q0 -25 7 -35t28 -12l66 -4v-42h-276zM260 377h405v111h-405v-111z" />
    <glyph glyph-name="hbar" unicode="&#x127;" horiz-adv-x="708" 
d="M62 0v42l56 4q18 1 23.5 11t5.5 36v486h-104l6 48h98v29q0 32 -8 44t-36 14l-62 5l5 42l160 5l12 -11v-128h152v-48h-152v-140h1q28 43 79 67.5t107 24.5q55 0 94 -19t60 -56.5t21 -93.5v-275q0 -16 4.5 -28.5t28.5 -13.5l55 -3v-42h-237v43l45 2q19 1 26 8.5t7 33.5v250
q0 43 -11 71.5t-38.5 44t-74.5 15.5q-48 0 -86 -18.5t-59.5 -52t-21.5 -77.5v-229q0 -22 5.5 -32t21.5 -11l56 -5v-43h-239z" />
    <glyph glyph-name="Itilde" unicode="&#x128;" horiz-adv-x="416" 
d="M72 0v42l67 4q17 1 25 10.5t8 40.5v509q0 21 -5.5 33.5t-30.5 13.5l-64 4v43h272v-43l-67 -4q-19 -1 -25.5 -12t-6.5 -39v-509q0 -22 6 -33.5t28 -13.5l65 -4v-42h-272zM285 775q-17 0 -35 5t-43 18q-21 12 -36 17.5t-23.5 7.5t-15.5 2q-11 0 -19.5 -9t-23.5 -33l-36 21
q15 32 29 48.5t28 23t30 6.5q20 0 38.5 -5.5t47.5 -19.5t44 -18.5t21 -4.5q10 0 18 8.5t21 33.5l36 -20q-15 -34 -28.5 -51t-26.5 -23.5t-26 -6.5z" />
    <glyph glyph-name="itilde" unicode="&#x129;" horiz-adv-x="355" 
d="M58 0v41l62 4q19 2 25.5 12.5t6.5 37.5v312q0 36 -7.5 47.5t-30.5 12.5l-62 4l6 43l152 12l13 -8v-427q0 -18 4 -31t27 -15l63 -3v-42h-259zM228 615q-17 0 -35.5 5t-43.5 18q-18 10 -33 16t-26 8t-18 2q-11 0 -19.5 -9t-23.5 -32l-36 21q15 33 29 49.5t28.5 22.5t29.5 6
q19 0 38.5 -5.5t49.5 -19.5q28 -14 43.5 -19t22.5 -5q9 0 17 8.5t22 33.5l36 -20q-16 -33 -29.5 -50t-26 -23.5t-25.5 -6.5z" />
    <glyph glyph-name="Imacron" unicode="&#x12a;" horiz-adv-x="416" 
d="M72 0v42l67 4q17 1 25 10.5t8 40.5v509q0 21 -5.5 33.5t-30.5 13.5l-64 4v43h272v-43l-67 -4q-19 -1 -25.5 -12t-6.5 -39v-509q0 -22 6 -33.5t28 -13.5l65 -4v-42h-272zM69 794v66h278v-66h-278z" />
    <glyph glyph-name="imacron" unicode="&#x12b;" horiz-adv-x="355" 
d="M58 0v41l62 4q19 2 25.5 12.5t6.5 37.5v312q0 36 -7.5 47.5t-30.5 12.5l-62 4l6 43l152 12l13 -8v-427q0 -18 4 -31t27 -15l63 -3v-42h-259zM12 640v66h278v-66h-278z" />
    <glyph glyph-name="Ibreve" unicode="&#x12c;" horiz-adv-x="416" 
d="M72 0v42l67 4q17 1 25 10.5t8 40.5v509q0 21 -5.5 33.5t-30.5 13.5l-64 4v43h272v-43l-67 -4q-19 -1 -25.5 -12t-6.5 -39v-509q0 -22 6 -33.5t28 -13.5l65 -4v-42h-272zM210 754q-49 0 -81 21t-48 56.5t-21 78.5l50 11q14 -50 34.5 -76t69.5 -26q50 0 71.5 28.5
t32.5 73.5l49 -10q-3 -40 -21 -75.5t-51 -58.5t-85 -23z" />
    <glyph glyph-name="ibreve" unicode="&#x12d;" horiz-adv-x="355" 
d="M58 0v41l62 4q19 2 25.5 12.5t6.5 37.5v312q0 36 -7.5 47.5t-30.5 12.5l-62 4l6 43l152 12l13 -8v-427q0 -18 4 -31t27 -15l63 -3v-42h-259zM148 601q-47 0 -77.5 22.5t-47 59.5t-21.5 80l43 8q11 -53 36 -80.5t71 -27.5q48 0 73.5 30.5t33.5 77.5l42 -7
q-3 -40 -20.5 -77.5t-49.5 -61.5t-83 -24z" />
    <glyph glyph-name="Iogonek" unicode="&#x12e;" horiz-adv-x="442" 
d="M204 -224q-25 0 -44.5 10t-30 28t-10.5 42q0 27 17 52.5t43.5 48.5t53.5 43h-161v42l67 4q17 1 25 10.5t8 40.5v509q0 21 -5.5 33.5t-30.5 13.5l-64 4v43h272v-43l-67 -4q-19 -1 -25.5 -12t-6.5 -39v-509q0 -22 6 -33.5t28 -13.5l65 -4v-42h-65q-50 -40 -72 -70.5
t-22 -59.5q0 -21 10.5 -32t34.5 -11q14 0 31 4.5t30 11.5l14 -37q-12 -7 -28.5 -14.5t-35 -11.5t-37.5 -4z" />
    <glyph glyph-name="iogonek" unicode="&#x12f;" horiz-adv-x="355" 
d="M187 -224q-25 0 -44.5 10t-30 28t-10.5 42q0 27 17 52.5t43.5 48.5t53.5 43h-158v41l62 4q18 1 25 11.5t7 38.5v312q0 36 -7.5 47.5t-30.5 12.5l-62 4l6 43l152 12l13 -8v-427q0 -21 5 -32.5t26 -13.5l63 -3v-42h-55q-50 -40 -72 -70.5t-22 -59.5q0 -21 10.5 -32
t34.5 -11q14 0 31 4.5t30 11.5l14 -37q-12 -7 -28.5 -14.5t-35 -11.5t-37.5 -4zM172 627q-27 0 -42 15.5t-15 39.5q0 25 15.5 41.5t41.5 16.5t41.5 -15t15.5 -40q0 -24 -15 -41t-42 -17z" />
    <glyph glyph-name="Idotaccent" unicode="&#x130;" horiz-adv-x="416" 
d="M72 0v42l67 4q17 1 25 10.5t8 40.5v509q0 21 -5.5 33.5t-30.5 13.5l-64 4v43h272v-43l-67 -4q-19 -1 -25.5 -12t-6.5 -39v-509q0 -22 6 -33.5t28 -13.5l65 -4v-42h-272zM208 766q-26 0 -41 16t-15 40q0 25 15.5 41.5t41.5 16.5t41.5 -15t15.5 -40q0 -24 -15.5 -41.5
t-42.5 -17.5z" />
    <glyph glyph-name="dotlessi" unicode="&#x131;" horiz-adv-x="355" 
d="M58 0v41l62 4q19 2 25.5 12.5t6.5 37.5v312q0 36 -7.5 47.5t-30.5 12.5l-62 4l6 43l152 12l13 -8v-427q0 -18 4 -31t27 -15l63 -3v-42h-259z" />
    <glyph glyph-name="IJ" unicode="&#x132;" horiz-adv-x="975" 
d="M72 0v42l67 4q17 1 25 10.5t8 40.5v509q0 21 -5.5 33.5t-30.5 13.5l-64 4v43h272v-43l-67 -4q-19 -1 -25.5 -12t-6.5 -39v-509q0 -22 6 -33.5t28 -13.5l65 -4v-42h-272zM631 -14q-57 0 -98.5 15t-64 41t-22.5 59q0 21 9 37t25.5 25t37.5 9q22 0 36.5 -11.5t14.5 -30.5
q0 -12 -5 -25.5t-21 -41.5q15 -11 41.5 -17t51.5 -6q42 0 70 18.5t42.5 55t14.5 88.5v403q0 22 -6 35t-30 14l-84 4v42h303v-43l-77 -4q-20 -1 -26.5 -13.5t-6.5 -37.5v-383q0 -111 -49.5 -172t-155.5 -61z" />
    <glyph glyph-name="ij" unicode="&#x133;" horiz-adv-x="659" 
d="M58 0v41l62 4q18 1 25 11.5t7 38.5v312q0 36 -7.5 47.5t-30.5 12.5l-62 4l6 43l152 12l13 -8v-427q0 -21 5 -32.5t26 -13.5l63 -3v-42h-259zM172 627q-27 0 -42 15.5t-15 39.5q0 25 15.5 41.5t41.5 16.5t41.5 -15t15.5 -40q0 -24 -15 -41t-42 -17zM415 -229l-19 29
q25 19 42 39.5t28.5 46t16.5 59t5 79.5v380q0 37 -7.5 49.5t-30.5 13.5l-62 4l6 43l152 12l13 -8v-424q0 -68 -5.5 -117.5t-20.5 -86.5t-43.5 -65t-74.5 -54zM508 627q-27 0 -42 15.5t-15 39.5q0 25 15.5 41.5t41.5 16.5t41.5 -15t15.5 -40q0 -24 -15 -41t-42 -17z" />
    <glyph glyph-name="Jcircumflex" unicode="&#x134;" horiz-adv-x="560" 
d="M215 -14q-57 0 -98.5 15t-64 41t-22.5 59q0 21 9 37t25.5 25t37.5 9q22 0 36.5 -11.5t14.5 -30.5q0 -12 -5 -25.5t-21 -41.5q15 -11 41.5 -17t51.5 -6q42 0 70 18.5t42.5 55t14.5 88.5v403q0 22 -6 35t-30 14l-84 4v42h303v-43l-77 -4q-20 -1 -26.5 -13.5t-6.5 -37.5
v-383q0 -111 -49.5 -172t-155.5 -61zM241 741l-20 32l119 120q9 10 18.5 15.5t20.5 5.5q10 0 19.5 -6t24.5 -21l113 -113l-21 -33l-136 88z" />
    <glyph glyph-name="jcircumflex" unicode="&#x135;" horiz-adv-x="308" 
d="M70 -229l-19 29q24 18 41 38t28.5 45t17 59.5t5.5 81.5v380q0 39 -8 50.5t-30 12.5l-62 4l6 43l152 12l13 -8v-424q0 -68 -5.5 -117.5t-20.5 -86.5t-43.5 -65t-74.5 -54zM26 593l-29 27l110 133q9 11 20.5 17.5t25.5 6.5q9 0 16 -3t14.5 -8.5t15.5 -16.5l107 -129
l-29 -27l-124 103z" />
    <glyph glyph-name="uni0136" unicode="&#x136;" horiz-adv-x="744" 
d="M641 -14q-34 0 -58 10t-41.5 26.5t-31 35.5t-25.5 37l-170 249l-70 -69v-182q0 -25 7 -35t28 -12l64 -4v-42h-272v42l67 4q17 1 25 10.5t8 40.5v509q0 26 -7 36t-29 11l-64 4v43h271v-43l-66 -4q-19 -1 -25.5 -12.5t-6.5 -38.5v-255l270 258q12 12 17.5 23t-0.5 18.5
t-25 7.5l-49 2l7 44h242v-42l-43 -4q-10 -1 -17.5 -4t-17.5 -11t-28 -26l-226 -218l185 -268q19 -28 34.5 -46.5t32 -27.5t39.5 -9q16 0 33.5 3t30.5 8l12 -31q-17 -16 -43 -27t-58 -11zM381 -270l-24 27q16 16 26 31t15 30t5 27h-11q-22 0 -33 12.5t-11 33.5q0 15 6 27
t18.5 18.5t30.5 6.5q21 0 35 -10.5t20 -26.5t6 -33q0 -24 -11 -50.5t-29.5 -50.5t-42.5 -42z" />
    <glyph glyph-name="uni0137" unicode="&#x137;" horiz-adv-x="644" 
d="M547 -8q-29 0 -50.5 8t-40 24.5t-38.5 38.5l-183 212l1 7l189 149q15 12 14 25.5t-20 14.5l-43 3l10 43h220v-41h-26q-25 -2 -43.5 -12t-38.5 -27l-178 -149l160 -186q24 -29 46.5 -41.5t45.5 -12.5q14 0 27.5 3t26.5 8l12 -30q-21 -18 -44.5 -27.5t-46.5 -9.5zM64 0v42
l55 3q17 2 22.5 12t5.5 34v566q0 31 -7.5 43t-34.5 14l-64 5l5 42l160 5l12 -11v-665q0 -22 5.5 -33t22.5 -12l54 -4v-41h-236zM312 -270l-24 27q16 16 26 31t15 30t5 27h-11q-22 0 -33 12.5t-11 33.5q0 15 6 27t18.5 18.5t30.5 6.5q21 0 35 -10.5t20 -26.5t6 -33
q0 -24 -11 -50.5t-29.5 -50.5t-42.5 -42z" />
    <glyph glyph-name="kgreenlandic" unicode="&#x138;" horiz-adv-x="647" 
d="M550 -8q-22 0 -41.5 5t-40 20.5t-47.5 45.5l-183 212l1 7l189 149q15 11 14.5 24.5t-20.5 15.5l-43 3l10 43h220v-41h-26q-25 -1 -43 -11t-39 -28l-178 -149l160 -186q23 -28 46 -41t48 -13q12 0 24.5 3t27.5 8l12 -30q-21 -18 -44.5 -27.5t-46.5 -9.5zM72 0v42l50 3
q18 2 23 12t5 34v309q0 40 -7.5 51.5t-28.5 12.5l-62 4l7 43l149 13l13 -4v-430q0 -25 6 -34t22 -10l51 -5v-41h-228z" />
    <glyph glyph-name="Lacute" unicode="&#x139;" horiz-adv-x="630" 
d="M72 0v42l68 4q16 1 25 10.5t9 40.5v510q0 26 -7 35.5t-30 10.5l-65 4v43h289v-42l-79 -5q-21 -1 -28 -11t-7 -36v-554h144q35 0 58.5 3t39.5 16t30.5 44.5t32.5 88.5h43l-24 -204h-499zM155 751l-22 30l128 116q14 11 22.5 15.5t17.5 4.5q15 0 24.5 -14t9.5 -29
q0 -16 -9.5 -27.5t-27.5 -21.5z" />
    <glyph glyph-name="lacute" unicode="&#x13a;" horiz-adv-x="352" 
d="M69 0v41l48 4q16 1 23 9.5t7 36.5v566q0 31 -8 43.5t-34 13.5l-64 5l4 42l161 5l12 -11v-667q0 -25 5.5 -33.5t23.5 -10.5l54 -2v-42h-232zM72 801l-22 30l128 116q14 11 22.5 15.5t17.5 4.5q15 0 24.5 -14t9.5 -29q0 -16 -9.5 -27.5t-27.5 -21.5z" />
    <glyph glyph-name="uni013B" unicode="&#x13b;" horiz-adv-x="630" 
d="M72 0v42l68 4q16 1 25 10.5t9 40.5v510q0 26 -7 35.5t-30 10.5l-65 4v43h289v-42l-79 -5q-21 -1 -28 -11t-7 -36v-554h144q35 0 58.5 3t39.5 16t30.5 44.5t32.5 88.5h43l-24 -204h-499zM321 -270l-24 27q16 16 26 31t15 30t5 27h-11q-22 0 -33 12.5t-11 33.5q0 15 6 27
t18.5 18.5t30.5 6.5q21 0 35 -10.5t20 -26.5t6 -33q0 -24 -11 -50.5t-29.5 -50.5t-42.5 -42z" />
    <glyph glyph-name="uni013C" unicode="&#x13c;" horiz-adv-x="352" 
d="M69 0v41l48 4q16 1 23 9.5t7 36.5v566q0 31 -8 43.5t-34 13.5l-64 5l4 42l161 5l12 -11v-667q0 -25 5.5 -33.5t23.5 -10.5l54 -2v-42h-232zM160 -270l-24 27q16 16 26 31t15 30t5 27h-11q-22 0 -33 12.5t-11 33.5q0 15 6 27t18.5 18.5t30.5 6.5q21 0 35 -10.5t20 -26.5
t6 -33q0 -24 -11 -50.5t-29.5 -50.5t-42.5 -42z" />
    <glyph glyph-name="Lcaron" unicode="&#x13d;" horiz-adv-x="663" 
d="M72 0v42l68 4q16 1 25 10.5t9 40.5v510q0 26 -7 35.5t-30 10.5l-65 4v43h289v-42l-79 -5q-21 -1 -28 -11t-7 -36v-554h144q35 0 58.5 3t39.5 16t30.5 44.5t32.5 88.5h43l-24 -204h-499zM454 537l-28 31q22 22 31 45.5t9 38.5q0 10 -3.5 17.5t-15.5 17.5q-10 8 -13 16
t-3 18q0 23 16 33.5t33 10.5q36 0 50.5 -22t14.5 -45q0 -22 -11.5 -50.5t-31.5 -57.5t-48 -53z" />
    <glyph glyph-name="lcaron" unicode="&#x13e;" horiz-adv-x="432" 
d="M69 0v41l48 4q16 1 23 9.5t7 36.5v566q0 31 -8 43.5t-34 13.5l-64 5l4 42l161 5l12 -11v-667q0 -25 5.5 -33.5t23.5 -10.5l54 -2v-42h-232zM331 544l-28 31q22 22 31 45.5t9 38.5q0 10 -3.5 17.5t-15.5 17.5q-10 8 -13 16t-3 18q0 23 16 33.5t33 10.5q36 0 50.5 -22
t14.5 -45q0 -22 -11.5 -50.5t-31.5 -57.5t-48 -53z" />
    <glyph glyph-name="Ldot" unicode="&#x13f;" horiz-adv-x="630" 
d="M72 0v42l68 4q16 1 25 10.5t9 40.5v510q0 26 -7 35.5t-30 10.5l-65 4v43h289v-42l-79 -5q-21 -1 -28 -11t-7 -36v-554h144q35 0 58.5 3t39.5 16t30.5 44.5t32.5 88.5h43l-24 -204h-499zM503 334q-26 0 -41 15.5t-15 39.5q0 25 15.5 41.5t41.5 16.5t41.5 -15t15.5 -40
q0 -24 -15.5 -41t-42.5 -17z" />
    <glyph glyph-name="ldot" unicode="&#x140;" horiz-adv-x="420" 
d="M69 -1v41l48 4q16 1 23 9.5t7 36.5v566q0 31 -8 43.5t-34 13.5l-64 5l4 42l161 5l12 -11v-667q0 -25 5.5 -33.5t23.5 -10.5l54 -2v-42h-232zM380 344q-26 0 -41 15.5t-15 39.5q0 25 15.5 41.5t41.5 16.5t41.5 -15t15.5 -40q0 -24 -15.5 -41t-42.5 -17z" />
    <glyph glyph-name="Lslash" unicode="&#x141;" horiz-adv-x="630" 
d="M552 204h43l-24 -204h-499v42l68 4q16 1 25 10.5t9 40.5v208l-107 -57v55l107 57v247q0 26 -7 35.5t-30 10.5l-65 4v43h289v-42l-79 -5q-21 -1 -28 -11t-7 -36v-221l191 102v-54l-191 -102v-279h144q35 0 58.5 3t39.5 16t30.5 44.5t32.5 88.5z" />
    <glyph glyph-name="lslash" unicode="&#x142;" horiz-adv-x="352" 
d="M69 0v41l48 4q16 1 23 9.5t7 36.5v282l-108 -59v57l108 58v228q0 31 -8 43.5t-34 13.5l-64 5l4 42l161 5l12 -11v-303l106 58v-57l-106 -57v-308q0 -25 5.5 -33.5t23.5 -10.5l54 -2v-42h-232z" />
    <glyph glyph-name="Nacute" unicode="&#x143;" horiz-adv-x="889" 
d="M72 0v42l68 4q17 0 25.5 11.5t8.5 39.5v510q0 25 -6 35t-28 11l-68 4v43h197l389 -576l6 -4v486q0 25 -7 35.5t-30 11.5l-64 4v43h263v-43l-65 -3q-19 -1 -27 -11.5t-8 -38.5v-604h-69l-417 609l-5 4v-520q0 -20 4.5 -32.5t30.5 -14.5l68 -4v-42h-266zM386 751l-22 30
l128 116q14 11 22.5 15.5t17.5 4.5q15 0 24.5 -14t9.5 -29q0 -16 -9.5 -27.5t-27.5 -21.5z" />
    <glyph glyph-name="nacute" unicode="&#x144;" horiz-adv-x="708" 
d="M62 0v42l57 4q13 0 20.5 9t7.5 39v314q0 32 -7 44t-30 13l-58 4l6 43l132 12l13 -7l6 -85h5q30 47 82 73t109 26q55 0 94 -19t59.5 -56.5t20.5 -93.5v-276q0 -20 6 -29.5t28 -11.5l54 -3v-42h-238v43l47 2q17 1 24.5 9t7.5 34v249q0 43 -10.5 71.5t-37.5 44t-74 15.5
q-49 0 -87 -18.5t-59.5 -52t-21.5 -77.5v-229q0 -24 5.5 -34t21.5 -11l56 -3v-43h-239zM325 593l-26 27l105 129q11 13 20 19t18 6q11 0 19.5 -6t13 -15t4.5 -19q0 -13 -7.5 -25t-26.5 -26z" />
    <glyph glyph-name="uni0145" unicode="&#x145;" horiz-adv-x="889" 
d="M72 0v42l68 4q17 0 25.5 11.5t8.5 39.5v510q0 25 -6 35t-28 11l-68 4v43h197l389 -576l6 -4v486q0 25 -7 35.5t-30 11.5l-64 4v43h263v-43l-65 -3q-19 -1 -27 -11.5t-8 -38.5v-604h-69l-417 609l-5 4v-520q0 -20 4.5 -32.5t30.5 -14.5l68 -4v-42h-266zM416 -270l-24 27
q16 16 26 31t15 30t5 27h-11q-22 0 -33 12.5t-11 33.5q0 15 6 27t18.5 18.5t30.5 6.5q21 0 35 -10.5t20 -26.5t6 -33q0 -24 -11 -50.5t-29.5 -50.5t-42.5 -42z" />
    <glyph glyph-name="uni0146" unicode="&#x146;" horiz-adv-x="708" 
d="M62 0v42l57 4q13 0 20.5 9t7.5 39v314q0 32 -7 44t-30 13l-58 4l6 43l132 12l13 -7l6 -85h5q30 47 82 73t109 26q55 0 94 -19t59.5 -56.5t20.5 -93.5v-276q0 -20 6 -29.5t28 -11.5l54 -3v-42h-238v43l47 2q17 1 24.5 9t7.5 34v249q0 43 -10.5 71.5t-37.5 44t-74 15.5
q-49 0 -87 -18.5t-59.5 -52t-21.5 -77.5v-229q0 -24 5.5 -34t21.5 -11l56 -3v-43h-239zM340 -270l-24 27q16 16 26 31t15 30t5 27h-11q-22 0 -33 12.5t-11 33.5q0 15 6 27t18.5 18.5t30.5 6.5q21 0 35 -10.5t20 -26.5t6 -33q0 -24 -11 -50.5t-29.5 -50.5t-42.5 -42z" />
    <glyph glyph-name="Ncaron" unicode="&#x147;" horiz-adv-x="889" 
d="M72 0v42l68 4q17 0 25.5 11.5t8.5 39.5v510q0 25 -6 35t-28 11l-68 4v43h197l389 -576l6 -4v486q0 25 -7 35.5t-30 11.5l-64 4v43h263v-43l-65 -3q-19 -1 -27 -11.5t-8 -38.5v-604h-69l-417 609l-5 4v-520q0 -20 4.5 -32.5t30.5 -14.5l68 -4v-42h-266zM439 761
q-9 0 -18.5 6t-25.5 21l-112 113l21 33l136 -88l137 88l21 -32l-119 -120q-10 -10 -19.5 -15.5t-20.5 -5.5z" />
    <glyph glyph-name="ncaron" unicode="&#x148;" horiz-adv-x="708" 
d="M62 0v42l57 4q13 0 20.5 9t7.5 39v314q0 32 -7 44t-30 13l-58 4l6 43l132 12l13 -7l6 -85h5q30 47 82 73t109 26q55 0 94 -19t59.5 -56.5t20.5 -93.5v-276q0 -20 6 -29.5t28 -11.5l54 -3v-42h-238v43l47 2q17 1 24.5 9t7.5 34v249q0 43 -10.5 71.5t-37.5 44t-74 15.5
q-49 0 -87 -18.5t-59.5 -52t-21.5 -77.5v-229q0 -24 5.5 -34t21.5 -11l56 -3v-43h-239zM358 598q-10 0 -18 2t-14.5 8t-15.5 16l-101 129l32 27l118 -103l121 103l31 -26l-109 -134q-8 -11 -19 -16.5t-25 -5.5z" />
    <glyph glyph-name="napostrophe" unicode="&#x149;" horiz-adv-x="857" 
d="M212 0v42l57 4q13 0 20.5 9t7.5 39v314q0 32 -7 44t-30 13l-58 4l6 43l132 12l13 -7l6 -85h5q30 47 82 73t109 26q55 0 94 -19t59.5 -56.5t20.5 -93.5v-276q0 -20 6 -29.5t28 -11.5l54 -3v-42h-238v43l47 2q17 1 24.5 9t7.5 34v249q0 43 -10.5 71.5t-37.5 44t-74 15.5
q-49 0 -87 -18.5t-59.5 -52t-21.5 -77.5v-229q0 -24 5.5 -34t21.5 -11l56 -3v-43h-239zM59 524l-23 31q39 28 52.5 53t13.5 50h-13q-17 0 -28 6t-16.5 16.5t-5.5 23.5q0 24 16 40.5t41 16.5q38 0 53 -20.5t15 -52.5q0 -25 -10.5 -53.5t-34 -57t-60.5 -53.5z" />
    <glyph glyph-name="Eng" unicode="&#x14a;" horiz-adv-x="889" 
d="M72 0v42l68 4q17 0 25.5 11.5t8.5 39.5v510q0 25 -6 35t-28 11l-68 4v43h197l390 -584h5v490q0 25 -7 35.5t-30 11.5l-64 4v43h263v-43l-65 -3q-19 -1 -27 -11.5t-8 -38.5v-510q0 -68 -6 -118.5t-21.5 -87t-44.5 -64t-75 -53.5l-20 29q24 18 41 36t27.5 41t16.5 53.5
t7 70.5v0l-411 608h-5v-516q0 -20 4.5 -32.5t30.5 -14.5l68 -4v-42h-266z" />
    <glyph glyph-name="eng" unicode="&#x14b;" horiz-adv-x="673" 
d="M405 531q55 0 94 -19t59.5 -56.5t20.5 -93.5v-268q0 -68 -5.5 -117.5t-20 -86.5t-43 -65t-74.5 -54l-20 29q24 18 41 38t28.5 45t17 59.5t5.5 81.5v313q0 43 -10.5 71.5t-37.5 44t-74 15.5q-49 0 -87 -18.5t-59.5 -52t-21.5 -77.5v-229q0 -24 5.5 -34t21.5 -11l56 -3v-43
h-239v42l57 4q13 0 20.5 9t7.5 39v314q0 32 -7 44t-30 13l-58 4l6 43l132 12l13 -7l6 -85h5q30 47 82 73t109 26z" />
    <glyph glyph-name="Omacron" unicode="&#x14c;" 
d="M406 -14q-104 0 -179 44t-115 123t-40 186q0 117 39.5 201t116 129t186.5 45q104 0 179.5 -42.5t115.5 -121t40 -185.5q0 -86 -24.5 -156t-69.5 -119.5t-108.5 -76.5t-140.5 -27zM415 46q61 0 108 20t79 59.5t49 96t17 130.5q0 73 -17.5 129.5t-51.5 95t-83.5 58
t-112.5 19.5q-60 0 -106.5 -20t-78 -58.5t-48 -95t-16.5 -127.5q0 -74 18 -131t51.5 -96t82 -59.5t109.5 -20.5zM269 798v66h278v-66h-278z" />
    <glyph glyph-name="omacron" unicode="&#x14d;" horiz-adv-x="622" 
d="M303 -14q-77 0 -130.5 32t-81 91t-27.5 141q0 87 30.5 150t87 97t135.5 34q77 0 131.5 -31.5t84 -90.5t29.5 -141q0 -89 -29 -152.5t-87 -96.5t-143 -33zM317 41q54 0 92.5 23.5t59 69t20.5 113.5q0 57 -12.5 100t-36.5 71t-58 42t-77 14q-52 0 -89.5 -23.5t-57.5 -70.5
t-20 -118q0 -72 22 -121.5t61.5 -74.5t95.5 -25zM171 640v66h278v-66h-278z" />
    <glyph glyph-name="Obreve" unicode="&#x14e;" 
d="M406 -14q-104 0 -179 44t-115 123t-40 186q0 117 39.5 201t116 129t186.5 45q104 0 179.5 -42.5t115.5 -121t40 -185.5q0 -86 -24.5 -156t-69.5 -119.5t-108.5 -76.5t-140.5 -27zM415 46q61 0 108 20t79 59.5t49 96t17 130.5q0 73 -17.5 129.5t-51.5 95t-83.5 58
t-112.5 19.5q-60 0 -106.5 -20t-78 -58.5t-48 -95t-16.5 -127.5q0 -74 18 -131t51.5 -96t82 -59.5t109.5 -20.5zM410 758q-49 0 -81 21t-48 56.5t-21 78.5l50 11q14 -50 34.5 -76t69.5 -26q50 0 71.5 28.5t32.5 73.5l49 -10q-3 -40 -21 -75.5t-51 -58.5t-85 -23z" />
    <glyph glyph-name="obreve" unicode="&#x14f;" horiz-adv-x="622" 
d="M303 -14q-77 0 -130.5 32t-81 91t-27.5 141q0 87 30.5 150t87 97t135.5 34q77 0 131.5 -31.5t84 -90.5t29.5 -141q0 -89 -29 -152.5t-87 -96.5t-143 -33zM317 41q54 0 92.5 23.5t59 69t20.5 113.5q0 57 -12.5 100t-36.5 71t-58 42t-77 14q-52 0 -89.5 -23.5t-57.5 -70.5
t-20 -118q0 -72 22 -121.5t61.5 -74.5t95.5 -25zM307 601q-47 0 -77.5 22.5t-47 59.5t-21.5 80l43 8q11 -53 36 -80.5t71 -27.5q48 0 73.5 30.5t33.5 77.5l42 -7q-3 -40 -20.5 -77.5t-49.5 -61.5t-83 -24z" />
    <glyph glyph-name="Ohungarumlaut" unicode="&#x150;" 
d="M406 -14q-104 0 -179 44t-115 123t-40 186q0 117 39.5 201t116 129t186.5 45q104 0 179.5 -42.5t115.5 -121t40 -185.5q0 -86 -24.5 -156t-69.5 -119.5t-108.5 -76.5t-140.5 -27zM415 46q61 0 108 20t79 59.5t49 96t17 130.5q0 73 -17.5 129.5t-51.5 95t-83.5 58
t-112.5 19.5q-60 0 -106.5 -20t-78 -58.5t-48 -95t-16.5 -127.5q0 -74 18 -131t51.5 -96t82 -59.5t109.5 -20.5zM301 751l-23 32l123 112q12 12 20.5 17t17.5 5q14 0 21 -9t7 -24q0 -16 -10 -26t-27 -23zM484 751l-22 32l125 106q13 10 20.5 16t16.5 6q14 0 23.5 -10.5
t9.5 -25.5q0 -16 -10 -27.5t-28 -21.5z" />
    <glyph glyph-name="ohungarumlaut" unicode="&#x151;" horiz-adv-x="622" 
d="M303 -14q-77 0 -130.5 32t-81 91t-27.5 141q0 87 30.5 150t87 97t135.5 34q77 0 131.5 -31.5t84 -90.5t29.5 -141q0 -89 -29 -152.5t-87 -96.5t-143 -33zM317 41q54 0 92.5 23.5t59 69t20.5 113.5q0 57 -12.5 100t-36.5 71t-58 42t-77 14q-52 0 -89.5 -23.5t-57.5 -70.5
t-20 -118q0 -72 22 -121.5t61.5 -74.5t95.5 -25zM388 592l-27 27l106 126q11 14 19 20t17 6q10 0 17 -6t11 -15t4 -18q0 -12 -7.5 -25.5t-25.5 -27.5zM231 592l-27 27l97 131q10 14 18 19.5t16 5.5q9 0 16.5 -5.5t12 -15t4.5 -19.5q0 -11 -7 -23t-25 -28z" />
    <glyph glyph-name="OE" unicode="&#x152;" horiz-adv-x="1169" 
d="M406 -14q-104 0 -179 44t-115 123t-40 186q0 118 40 201.5t117 128.5t188 45q81 0 144 -31t107 -91v108h382l36 -163l-43 -13q-16 45 -30.5 70.5t-32.5 37t-42 14t-62 2.5h-132v-267h122q34 0 50.5 5t25 22.5t16.5 54.5l39 5v-218l-39 -6q-6 41 -16.5 59.5t-29 23.5
t-56.5 5h-112v-279h168q37 0 62 5.5t41.5 20t28 39.5t20.5 64h44l-23 -182h-417v118q-43 -70 -111 -101t-151 -31zM415 46q61 0 108 20.5t79 59.5t49 95.5t17 130.5q0 73 -17.5 129.5t-51.5 95t-83.5 58t-112.5 19.5q-60 0 -106.5 -20t-78 -58.5t-48 -94.5t-16.5 -128
q0 -74 18 -131t51.5 -96t82 -59.5t109.5 -20.5z" />
    <glyph glyph-name="oe" unicode="&#x153;" horiz-adv-x="979" 
d="M303 -14q-74 0 -128 31t-82.5 90t-28.5 143q0 80 27.5 143.5t84 100.5t141.5 37q51 0 92 -16t71.5 -43.5t48.5 -62.5q29 57 79.5 89.5t120.5 32.5q63 0 105 -23t63.5 -63.5t21.5 -95.5q0 -24 -0.5 -47.5t-3.5 -50.5h-351q2 -71 25.5 -115.5t64.5 -64.5t94 -20q35 0 74 12
t75 44l30 -33q-40 -47 -92.5 -67.5t-102.5 -20.5q-47 0 -87 14t-70.5 40.5t-51.5 65.5q-28 -58 -83.5 -89t-136.5 -31zM317 41q55 0 93 23.5t58.5 69.5t20.5 113q0 57 -12.5 100t-36 71t-57.5 42t-78 14q-54 0 -91.5 -24.5t-56.5 -72t-19 -115.5q0 -55 12.5 -96.5t36 -69.5
t56.5 -41.5t74 -13.5zM562 306h281q2 13 2.5 24t0.5 25q0 52 -30.5 85t-92.5 33q-40 0 -74.5 -16t-57 -52.5t-29.5 -98.5z" />
    <glyph glyph-name="Racute" unicode="&#x154;" horiz-adv-x="725" 
d="M644 -14q-32 0 -58 10.5t-46 34.5t-37 65l-57 133q-14 35 -30 54t-40.5 27t-63.5 8q-20 0 -35.5 -1t-29.5 -3v-219q0 -27 7.5 -36.5t32.5 -11.5l75 -5v-42h-290v42l69 4q16 1 25 10t9 41v509q0 22 -6 34t-31 13l-66 4v43h256q70 0 121.5 -10t86 -32t51.5 -56.5t17 -82.5
q0 -25 -6.5 -49t-20 -45.5t-34 -39t-50 -30t-67.5 -17.5v-3q39 -12 62 -31.5t40 -58.5l36 -83q20 -46 35 -72t32 -36.5t42 -10.5q16 0 28.5 3t26.5 8l11 -32q-18 -17 -42.5 -26.5t-52.5 -9.5zM324 366q57 0 101.5 16.5t70.5 50t26 83.5q0 55 -27 84t-73.5 39t-106.5 10h-68
v-281q24 -1 45 -1.5t32 -0.5zM277 751l-22 30l128 116q14 11 22.5 15.5t17.5 4.5q15 0 24.5 -14t9.5 -29q0 -16 -9.5 -27.5t-27.5 -21.5z" />
    <glyph glyph-name="racute" unicode="&#x155;" horiz-adv-x="506" 
d="M62 0v42l54 3q18 2 24.5 12t6.5 35v317q0 33 -7 44.5t-30 12.5l-58 4l6 42l134 12l13 -7l4 -88h5q31 49 70 75.5t86 26.5t73 -23t26 -63q0 -22 -6 -38t-19 -24t-33 -8q-23 0 -35.5 10.5t-12.5 28.5q0 7 2 14.5t6.5 18t12.5 25.5q-28 12 -57 3.5t-54 -31.5t-40 -54.5
t-15 -65.5v-234q0 -21 5 -33t24 -13l86 -3v-41h-271zM242 593l-26 27l105 129q11 13 20 19t18 6q11 0 19.5 -6t13 -15t4.5 -19q0 -13 -7.5 -25t-26.5 -26z" />
    <glyph glyph-name="uni0156" unicode="&#x156;" horiz-adv-x="725" 
d="M644 -14q-32 0 -58 10.5t-46 34.5t-37 65l-57 133q-14 35 -30 54t-40.5 27t-63.5 8q-20 0 -35.5 -1t-29.5 -3v-219q0 -27 7.5 -36.5t32.5 -11.5l75 -5v-42h-290v42l69 4q16 1 25 10t9 41v509q0 22 -6 34t-31 13l-66 4v43h256q70 0 121.5 -10t86 -32t51.5 -56.5t17 -82.5
q0 -25 -6.5 -49t-20 -45.5t-34 -39t-50 -30t-67.5 -17.5v-3q39 -12 62 -31.5t40 -58.5l36 -83q20 -46 35 -72t32 -36.5t42 -10.5q16 0 28.5 3t26.5 8l11 -32q-18 -17 -42.5 -26.5t-52.5 -9.5zM324 366q57 0 101.5 16.5t70.5 50t26 83.5q0 55 -27 84t-73.5 39t-106.5 10h-68
v-281q24 -1 45 -1.5t32 -0.5zM367 -270l-24 27q16 16 26 31t15 30t5 27h-11q-22 0 -33 12.5t-11 33.5q0 15 6 27t18.5 18.5t30.5 6.5q21 0 35 -10.5t20 -26.5t6 -33q0 -24 -11 -50.5t-29.5 -50.5t-42.5 -42z" />
    <glyph glyph-name="uni0157" unicode="&#x157;" horiz-adv-x="506" 
d="M62 0v42l54 3q18 2 24.5 12t6.5 35v317q0 33 -7 44.5t-30 12.5l-58 4l6 42l134 12l13 -7l4 -88h5q31 49 70 75.5t86 26.5t73 -23t26 -63q0 -22 -6 -38t-19 -24t-33 -8q-23 0 -35.5 10.5t-12.5 28.5q0 7 2 14.5t6.5 18t12.5 25.5q-28 12 -57 3.5t-54 -31.5t-40 -54.5
t-15 -65.5v-234q0 -21 5 -33t24 -13l86 -3v-41h-271zM167 -270l-24 27q16 16 26 31t15 30t5 27h-11q-22 0 -33 12.5t-11 33.5q0 15 6 27t18.5 18.5t30.5 6.5q21 0 35 -10.5t20 -26.5t6 -33q0 -24 -11 -50.5t-29.5 -50.5t-42.5 -42z" />
    <glyph glyph-name="Rcaron" unicode="&#x158;" horiz-adv-x="725" 
d="M644 -14q-32 0 -58 10.5t-46 34.5t-37 65l-57 133q-14 35 -30 54t-40.5 27t-63.5 8q-20 0 -35.5 -1t-29.5 -3v-219q0 -27 7.5 -36.5t32.5 -11.5l75 -5v-42h-290v42l69 4q16 1 25 10t9 41v509q0 22 -6 34t-31 13l-66 4v43h256q70 0 121.5 -10t86 -32t51.5 -56.5t17 -82.5
q0 -25 -6.5 -49t-20 -45.5t-34 -39t-50 -30t-67.5 -17.5v-3q39 -12 62 -31.5t40 -58.5l36 -83q20 -46 35 -72t32 -36.5t42 -10.5q16 0 28.5 3t26.5 8l11 -32q-18 -17 -42.5 -26.5t-52.5 -9.5zM324 366q57 0 101.5 16.5t70.5 50t26 83.5q0 55 -27 84t-73.5 39t-106.5 10h-68
v-281q24 -1 45 -1.5t32 -0.5zM337 761q-9 0 -18.5 6t-25.5 21l-112 113l21 33l136 -88l137 88l21 -32l-119 -120q-10 -10 -19.5 -15.5t-20.5 -5.5z" />
    <glyph glyph-name="rcaron" unicode="&#x159;" horiz-adv-x="506" 
d="M62 0v42l54 3q18 2 24.5 12t6.5 35v317q0 33 -7 44.5t-30 12.5l-58 4l6 42l134 12l13 -7l4 -88h5q31 49 70 75.5t86 26.5t73 -23t26 -63q0 -22 -6 -38t-19 -24t-33 -8q-23 0 -35.5 10.5t-12.5 28.5q0 7 2 14.5t6.5 18t12.5 25.5q-28 12 -57 3.5t-54 -31.5t-40 -54.5
t-15 -65.5v-234q0 -21 5 -33t24 -13l86 -3v-41h-271zM275 598q-10 0 -18 2t-14.5 8t-15.5 16l-101 129l32 27l118 -103l121 103l31 -26l-109 -134q-8 -11 -19 -16.5t-25 -5.5z" />
    <glyph glyph-name="Sacute" unicode="&#x15a;" horiz-adv-x="625" 
d="M335 -14q-58 0 -111 20.5t-86 53.5l-15 -66h-35l-25 227l39 4q17 -52 41.5 -87t54.5 -55t64.5 -28t70.5 -8q42 0 77.5 11.5t56 39.5t20.5 75q0 35 -14.5 61.5t-51.5 49.5t-109 44q-64 19 -106.5 39.5t-67 45t-35 53.5t-10.5 67q0 34 11.5 62.5t31.5 50.5t47.5 37.5
t59.5 23t68 7.5q44 0 84.5 -14.5t74.5 -41.5l16 56h36l19 -194l-40 -9q-18 55 -45.5 87t-63.5 45t-81 13q-63 0 -102 -26t-39 -80q0 -34 15 -60t52 -48t107 -43q66 -20 108.5 -42.5t67.5 -48t34.5 -55t9.5 -64.5q0 -45 -16 -82t-46.5 -64t-72.5 -42t-94 -15zM255 751l-22 30
l128 116q14 11 22.5 15.5t17.5 4.5q15 0 24.5 -14t9.5 -29q0 -16 -9.5 -27.5t-27.5 -21.5z" />
    <glyph glyph-name="sacute" unicode="&#x15b;" horiz-adv-x="492" 
d="M61 -14l-10 168l45 3q13 -39 35.5 -64.5t53 -38.5t69.5 -13q54 0 83 25.5t29 64.5q0 28 -11.5 46.5t-40.5 32t-85 25.5q-39 9 -69 20.5t-50.5 29t-31.5 41.5t-11 57q0 44 22.5 78t61 52t87.5 18q35 0 68.5 -10.5t55.5 -28.5l8 39h42l8 -155l-49 4q-10 45 -45.5 72.5
t-86.5 27.5q-49 0 -75 -21t-26 -60q0 -33 15 -51.5t43 -29t68 -20.5q43 -10 76 -23.5t54.5 -30.5t32.5 -41.5t11 -57.5q0 -45 -23 -81t-64.5 -57t-95.5 -21q-43 0 -78.5 12t-62.5 31l-11 -43h-42zM201 593l-26 27l105 129q11 13 20 19t18 6q11 0 19.5 -6t13 -15t4.5 -19
q0 -13 -7.5 -25t-26.5 -26z" />
    <glyph glyph-name="Scircumflex" unicode="&#x15c;" horiz-adv-x="625" 
d="M335 -14q-58 0 -111 20.5t-86 53.5l-15 -66h-35l-25 227l39 4q17 -52 41.5 -87t54.5 -55t64.5 -28t70.5 -8q42 0 77.5 11.5t56 39.5t20.5 75q0 35 -14.5 61.5t-51.5 49.5t-109 44q-64 19 -106.5 39.5t-67 45t-35 53.5t-10.5 67q0 34 11.5 62.5t31.5 50.5t47.5 37.5
t59.5 23t68 7.5q44 0 84.5 -14.5t74.5 -41.5l16 56h36l19 -194l-40 -9q-18 55 -45.5 87t-63.5 45t-81 13q-63 0 -102 -26t-39 -80q0 -34 15 -60t52 -48t107 -43q66 -20 108.5 -42.5t67.5 -48t34.5 -55t9.5 -64.5q0 -45 -16 -82t-46.5 -64t-72.5 -42t-94 -15zM172 745l-20 32
l119 120q9 10 18.5 15.5t20.5 5.5q10 0 19.5 -6t24.5 -21l113 -113l-21 -33l-136 88z" />
    <glyph glyph-name="scircumflex" unicode="&#x15d;" horiz-adv-x="492" 
d="M61 -14l-10 168l45 3q13 -39 35.5 -64.5t53 -38.5t69.5 -13q54 0 83 25.5t29 64.5q0 28 -11.5 46.5t-40.5 32t-85 25.5q-39 9 -69 20.5t-50.5 29t-31.5 41.5t-11 57q0 44 22.5 78t61 52t87.5 18q35 0 68.5 -10.5t55.5 -28.5l8 39h42l8 -155l-49 4q-10 45 -45.5 72.5
t-86.5 27.5q-49 0 -75 -21t-26 -60q0 -33 15 -51.5t43 -29t68 -20.5q43 -10 76 -23.5t54.5 -30.5t32.5 -41.5t11 -57.5q0 -45 -23 -81t-64.5 -57t-95.5 -21q-43 0 -78.5 12t-62.5 31l-11 -43h-42zM110 593l-29 27l110 133q9 11 20.5 17.5t25.5 6.5q9 0 16 -3t14.5 -8.5
t15.5 -16.5l107 -129l-29 -27l-124 103z" />
    <glyph glyph-name="Scedilla" unicode="&#x15e;" horiz-adv-x="625" 
d="M315 -229q-44 0 -71.5 13t-38.5 23l23 41q13 -9 37 -18t42 -9q22 0 39 9.5t17 34.5q0 24 -17 32t-44 8q-10 0 -17.5 -0.5t-14.5 -2.5l-8 21l27 67q-46 7 -85.5 25.5t-65.5 44.5l-15 -66h-35l-25 227l39 4q17 -52 41.5 -87t54.5 -55t64.5 -28t70.5 -8q42 0 77.5 11.5
t56 39.5t20.5 75q0 35 -14.5 61.5t-51.5 49.5t-109 44q-64 19 -106.5 39.5t-67 45t-35 53.5t-10.5 67q0 34 11.5 62.5t31.5 50.5t47.5 37.5t59.5 23t68 7.5q44 0 84.5 -14.5t74.5 -41.5l16 56h36l19 -194l-40 -9q-18 55 -45.5 87t-63.5 45t-81 13q-63 0 -102 -26t-39 -80
q0 -34 15 -60t52 -48t107 -43q66 -20 108.5 -42.5t67.5 -48t34.5 -55t9.5 -64.5q0 -45 -16 -82t-46.5 -64t-73 -42t-94.5 -15l-17 -41q32 1 55.5 -8t36.5 -26.5t13 -45.5q0 -27 -11.5 -48t-35 -33.5t-60.5 -12.5z" />
    <glyph glyph-name="scedilla" unicode="&#x15f;" horiz-adv-x="492" 
d="M236 -229q-44 0 -71.5 13t-38.5 23l23 41q14 -9 37.5 -18t41.5 -9q22 0 39 9.5t17 34.5q0 24 -16.5 32t-43.5 8q-10 0 -17.5 -0.5t-14.5 -2.5l-8 21l26 67q-28 5 -52.5 15t-43.5 24l-11 -43h-42l-10 168l45 3q13 -39 35.5 -64.5t53 -38.5t69.5 -13q54 0 83 25.5t29 64.5
q0 28 -11.5 46.5t-40.5 32t-85 25.5q-39 9 -69 20.5t-50.5 29t-31.5 41.5t-11 57q0 44 22.5 78t61 52t87.5 18q35 0 68.5 -10.5t55.5 -28.5l8 39h42l8 -155l-49 4q-10 45 -45.5 72.5t-86.5 27.5q-49 0 -75 -21t-26 -60q0 -33 15 -51.5t43 -29t68 -20.5q43 -10 76 -23.5
t54.5 -30.5t32.5 -41.5t11 -57.5q0 -35 -13.5 -63.5t-38 -49.5t-57.5 -32.5t-74 -13.5l-17 -41q33 1 56 -8t36.5 -26.5t13.5 -45.5q0 -27 -11.5 -48t-35.5 -33.5t-61 -12.5z" />
    <glyph glyph-name="Scaron" unicode="&#x160;" horiz-adv-x="625" 
d="M335 -14q-58 0 -111 20.5t-86 53.5l-15 -66h-35l-25 227l39 4q17 -52 41.5 -87t54.5 -55t64.5 -28t70.5 -8q42 0 77.5 11.5t56 39.5t20.5 75q0 35 -14.5 61.5t-51.5 49.5t-109 44q-64 19 -106.5 39.5t-67 45t-35 53.5t-10.5 67q0 34 11.5 62.5t31.5 50.5t47.5 37.5
t59.5 23t68 7.5q44 0 84.5 -14.5t74.5 -41.5l16 56h36l19 -194l-40 -9q-18 55 -45.5 87t-63.5 45t-81 13q-63 0 -102 -26t-39 -80q0 -34 15 -60t52 -48t107 -43q66 -20 108.5 -42.5t67.5 -48t34.5 -55t9.5 -64.5q0 -45 -16 -82t-46.5 -64t-72.5 -42t-94 -15zM308 761
q-9 0 -18.5 6t-25.5 21l-112 113l21 33l136 -88l137 88l21 -32l-119 -120q-10 -10 -19.5 -15.5t-20.5 -5.5z" />
    <glyph glyph-name="scaron" unicode="&#x161;" horiz-adv-x="492" 
d="M61 -14l-10 168l45 3q13 -39 35.5 -64.5t53 -38.5t69.5 -13q54 0 83 25.5t29 64.5q0 28 -11.5 46.5t-40.5 32t-85 25.5q-39 9 -69 20.5t-50.5 29t-31.5 41.5t-11 57q0 44 22.5 78t61 52t87.5 18q35 0 68.5 -10.5t55.5 -28.5l8 39h42l8 -155l-49 4q-10 45 -45.5 72.5
t-86.5 27.5q-49 0 -75 -21t-26 -60q0 -33 15 -51.5t43 -29t68 -20.5q43 -10 76 -23.5t54.5 -30.5t32.5 -41.5t11 -57.5q0 -45 -23 -81t-64.5 -57t-95.5 -21q-43 0 -78.5 12t-62.5 31l-11 -43h-42zM234 598q-10 0 -18 2t-14.5 8t-15.5 16l-101 129l32 27l118 -103l121 103
l31 -26l-109 -134q-8 -11 -19 -16.5t-25 -5.5z" />
    <glyph glyph-name="uni0162" unicode="&#x162;" horiz-adv-x="738" 
d="M362 -229q-44 0 -71.5 13t-38.5 23l23 41q14 -9 37.5 -18t41.5 -9q22 0 39 9.5t17 34.5q0 24 -16.5 32t-43.5 8q-10 0 -17.5 -0.5t-14.5 -2.5l-8 21l30 77h-132v42l89 7q18 2 27 12t9 37v550h-85q-34 0 -56.5 -3t-39 -17t-31.5 -45.5t-35 -88.5l-40 9l39 197h569l39 -197
l-41 -9q-19 57 -34.5 88.5t-32.5 45.5t-39 17t-55 3h-85v-554q0 -24 7 -33t29 -12l88 -7v-42h-143l-23 -55q33 1 56 -8t36.5 -26.5t13.5 -45.5q0 -27 -11.5 -48t-35.5 -33.5t-61 -12.5z" />
    <glyph glyph-name="uni0163" unicode="&#x163;" horiz-adv-x="431" 
d="M264 -229q-44 0 -71.5 13t-38.5 23l23 41q13 -9 37 -18t42 -9q22 0 39 9.5t17 34.5q0 24 -17 32t-44 8q-10 0 -17.5 -0.5t-14.5 -2.5l-8 21l26 66q-60 8 -83 47t-23 99v330h-88v42q40 2 63.5 15t35.5 44.5t17 90.5l32 5l11 -6v-139h173v-52h-173v-330q0 -50 21 -70
t60 -20q28 0 51.5 10.5t48.5 29.5l27 -37q-31 -29 -62.5 -44t-64.5 -17l-17 -42q32 1 55.5 -8t36.5 -26.5t13 -45.5q0 -27 -11.5 -48t-35 -33.5t-60.5 -12.5z" />
    <glyph glyph-name="Tcaron" unicode="&#x164;" horiz-adv-x="738" 
d="M208 0v42l89 7q18 2 27 12t9 37v550h-85q-34 0 -56.5 -3t-39 -17t-31.5 -45.5t-35 -88.5l-40 9l39 197h569l39 -197l-41 -9q-19 57 -34.5 88.5t-32.5 45.5t-39 17t-55 3h-85v-554q0 -24 7 -33t29 -12l88 -7v-42h-322zM366 761q-9 0 -18.5 6t-25.5 21l-112 113l21 33
l136 -88l137 88l21 -32l-119 -120q-10 -10 -19.5 -15.5t-20.5 -5.5z" />
    <glyph glyph-name="tcaron" unicode="&#x165;" horiz-adv-x="431" 
d="M265 -14q-51 0 -80.5 19t-41.5 52.5t-12 77.5v330h-88v42q40 2 63.5 15t35.5 44.5t17 90.5l32 5l11 -6v-139h173v-52h-173v-330q0 -50 21 -70t60 -20q28 0 51.5 10.5t48.5 29.5l27 -37q-35 -33 -71 -47.5t-74 -14.5zM302 556l-28 31q22 22 31 45.5t9 38.5q0 10 -3.5 17.5
t-15.5 17.5q-10 8 -13 16t-3 18q0 23 16 33.5t33 10.5q36 0 50.5 -22t14.5 -45q0 -22 -11.5 -50.5t-31.5 -57.5t-48 -53z" />
    <glyph glyph-name="Tbar" unicode="&#x166;" horiz-adv-x="738" 
d="M208 0v42l89 7q18 2 27 12t9 37v225h-173l6 55h167v270h-85q-34 0 -56.5 -3t-39 -17t-31.5 -45.5t-35 -88.5l-40 9l39 197h569l39 -197l-41 -9q-19 57 -34.5 88.5t-32.5 45.5t-39 17t-55 3h-85v-270h172v-55h-172v-229q0 -24 7 -33t29 -12l88 -7v-42h-322z" />
    <glyph glyph-name="tbar" unicode="&#x167;" horiz-adv-x="431" 
d="M265 -14q-51 0 -80.5 19t-41.5 52.5t-12 77.5v130h-85l6 53h79v147h-88v42q40 2 63.5 15t35.5 44.5t17 90.5l32 5l11 -6v-139h173v-52h-173v-147h170v-53h-170v-130q0 -50 21 -70t60 -20q28 0 51.5 10.5t48.5 29.5l27 -37q-35 -33 -71 -47.5t-74 -14.5z" />
    <glyph glyph-name="Utilde" unicode="&#x168;" horiz-adv-x="887" 
d="M438 -14q-73 0 -125.5 17.5t-86.5 52.5t-51 88t-17 123v339q0 26 -7 36t-29 11l-61 4v43h271v-43l-65 -4q-15 0 -23.5 -10t-8.5 -41v-331q0 -72 19 -122t66 -77t130 -27q72 0 120.5 26t73 78.5t24.5 132.5v324q0 26 -7 36t-29 11l-61 4v43h256v-43l-64 -4q-16 -1 -24 -11
t-8 -40v-302q0 -101 -30.5 -171.5t-95 -106.5t-167.5 -36zM524 779q-17 0 -35 5t-43 18q-21 12 -36 17.5t-23.5 7.5t-15.5 2q-11 0 -19.5 -9t-23.5 -33l-36 21q15 32 29 48.5t28 23t30 6.5q20 0 38.5 -5.5t47.5 -19.5t44 -18.5t21 -4.5q10 0 18 8.5t21 33.5l36 -20
q-15 -34 -28.5 -51t-26.5 -23.5t-26 -6.5z" />
    <glyph glyph-name="utilde" unicode="&#x169;" horiz-adv-x="692" 
d="M306 -14q-82 0 -126.5 42.5t-44.5 126.5v249q0 32 -6 46t-31 16l-49 3l7 43l137 12l13 -7v-342q0 -40 9.5 -70t34.5 -46t71 -16q50 0 87.5 21.5t58 57.5t20.5 80v202q0 29 -5 44.5t-32 17.5l-51 3l6 43l140 12l13 -7v-426q0 -25 7 -35.5t27 -11.5l55 -2v-43l-147 -6
l-11 84h-2q-27 -33 -56.5 -53t-60.5 -29t-64 -9zM410 615q-17 0 -35.5 5t-43.5 18q-18 10 -33 16t-26 8t-18 2q-11 0 -19.5 -9t-23.5 -32l-36 21q15 33 29 49.5t28.5 22.5t29.5 6q19 0 38.5 -5.5t49.5 -19.5q28 -14 43.5 -19t22.5 -5q9 0 17 8.5t22 33.5l36 -20
q-16 -33 -29.5 -50t-26 -23.5t-25.5 -6.5z" />
    <glyph glyph-name="Umacron" unicode="&#x16a;" horiz-adv-x="887" 
d="M438 -14q-73 0 -125.5 17.5t-86.5 52.5t-51 88t-17 123v339q0 26 -7 36t-29 11l-61 4v43h271v-43l-65 -4q-15 0 -23.5 -10t-8.5 -41v-331q0 -72 19 -122t66 -77t130 -27q72 0 120.5 26t73 78.5t24.5 132.5v324q0 26 -7 36t-29 11l-61 4v43h256v-43l-64 -4q-16 -1 -24 -11
t-8 -40v-302q0 -101 -30.5 -171.5t-95 -106.5t-167.5 -36zM308 798v66h278v-66h-278z" />
    <glyph glyph-name="umacron" unicode="&#x16b;" horiz-adv-x="692" 
d="M306 -14q-82 0 -126.5 42.5t-44.5 126.5v249q0 32 -6 46t-31 16l-49 3l7 43l137 12l13 -7v-342q0 -40 9.5 -70t34.5 -46t71 -16q50 0 87.5 21.5t58 57.5t20.5 80v202q0 29 -5 44.5t-32 17.5l-51 3l6 43l140 12l13 -7v-426q0 -25 7 -35.5t27 -11.5l55 -2v-43l-147 -6
l-11 84h-2q-27 -33 -56.5 -53t-60.5 -29t-64 -9zM194 640v66h278v-66h-278z" />
    <glyph glyph-name="Ubreve" unicode="&#x16c;" horiz-adv-x="887" 
d="M438 -14q-73 0 -125.5 17.5t-86.5 52.5t-51 88t-17 123v339q0 26 -7 36t-29 11l-61 4v43h271v-43l-65 -4q-15 0 -23.5 -10t-8.5 -41v-331q0 -72 19 -122t66 -77t130 -27q72 0 120.5 26t73 78.5t24.5 132.5v324q0 26 -7 36t-29 11l-61 4v43h256v-43l-64 -4q-16 -1 -24 -11
t-8 -40v-302q0 -101 -30.5 -171.5t-95 -106.5t-167.5 -36zM449 758q-49 0 -81 21t-48 56.5t-21 78.5l50 11q14 -50 34.5 -76t69.5 -26q50 0 71.5 28.5t32.5 73.5l49 -10q-3 -40 -21 -75.5t-51 -58.5t-85 -23z" />
    <glyph glyph-name="ubreve" unicode="&#x16d;" horiz-adv-x="692" 
d="M306 -14q-82 0 -126.5 42.5t-44.5 126.5v249q0 32 -6 46t-31 16l-49 3l7 43l137 12l13 -7v-342q0 -40 9.5 -70t34.5 -46t71 -16q50 0 87.5 21.5t58 57.5t20.5 80v202q0 29 -5 44.5t-32 17.5l-51 3l6 43l140 12l13 -7v-426q0 -25 7 -35.5t27 -11.5l55 -2v-43l-147 -6
l-11 84h-2q-27 -33 -56.5 -53t-60.5 -29t-64 -9zM336 602q-47 0 -77.5 22t-47 59t-21.5 80l50 10q10 -53 32 -81t68 -28q48 0 70.5 30t31.5 77l47 -7q-3 -40 -20.5 -77.5t-50 -61t-82.5 -23.5z" />
    <glyph glyph-name="Uring" unicode="&#x16e;" horiz-adv-x="887" 
d="M438 -14q-73 0 -125.5 17.5t-86.5 52.5t-51 88t-17 123v339q0 26 -7 36t-29 11l-61 4v43h271v-43l-65 -4q-15 0 -23.5 -10t-8.5 -41v-331q0 -72 19 -122t66 -77t130 -27q72 0 120.5 26t73 78.5t24.5 132.5v324q0 26 -7 36t-29 11l-61 4v43h256v-43l-64 -4q-16 -1 -24 -11
t-8 -40v-302q0 -101 -30.5 -171.5t-95 -106.5t-167.5 -36zM449 742q-63 0 -94 28t-31 78q0 31 15 55.5t43 40t69 15.5q59 0 90 -28.5t31 -78.5q0 -33 -14.5 -58.5t-42 -38.5t-66.5 -13zM450 791q35 0 48 15t13 44q0 20 -6.5 34t-20 21t-37.5 7q-34 0 -48 -16.5t-14 -45.5
q0 -18 6.5 -31.5t20.5 -20.5t38 -7z" />
    <glyph glyph-name="uring" unicode="&#x16f;" horiz-adv-x="692" 
d="M306 -14q-82 0 -126.5 42.5t-44.5 126.5v249q0 32 -6 46t-31 16l-49 3l7 43l137 12l13 -7v-342q0 -40 9.5 -70t34.5 -46t71 -16q50 0 87.5 21.5t58 57.5t20.5 80v202q0 29 -5 44.5t-32 17.5l-51 3l6 43l140 12l13 -7v-426q0 -25 7 -35.5t27 -11.5l55 -2v-43l-147 -6
l-11 84h-2q-27 -33 -56.5 -53t-60.5 -29t-64 -9zM333 593q-64 0 -95 28.5t-31 79.5q0 31 15 56t43 40t70 15q60 0 91.5 -28.5t31.5 -78.5q0 -34 -15 -59.5t-42.5 -39t-67.5 -13.5zM334 642q24 0 38 6.5t19 20.5t5 34t-6.5 33.5t-20.5 21t-37 7.5t-37 -7.5t-20.5 -21
t-6.5 -32.5t6.5 -33t21 -21.5t38.5 -7.5z" />
    <glyph glyph-name="Uhungarumlaut" unicode="&#x170;" horiz-adv-x="887" 
d="M438 -14q-73 0 -125.5 17.5t-86.5 52.5t-51 88t-17 123v339q0 26 -7 36t-29 11l-61 4v43h271v-43l-65 -4q-15 0 -23.5 -10t-8.5 -41v-331q0 -72 19 -122t66 -77t130 -27q72 0 120.5 26t73 78.5t24.5 132.5v324q0 26 -7 36t-29 11l-61 4v43h256v-43l-64 -4q-16 -1 -24 -11
t-8 -40v-302q0 -101 -30.5 -171.5t-95 -106.5t-167.5 -36zM340 751l-23 32l123 112q12 12 20.5 17t17.5 5q14 0 21 -9t7 -24q0 -16 -10 -26t-27 -23zM523 751l-22 32l125 106q13 10 20.5 16t16.5 6q14 0 23.5 -10.5t9.5 -25.5q0 -16 -10 -27.5t-28 -21.5z" />
    <glyph glyph-name="uhungarumlaut" unicode="&#x171;" horiz-adv-x="692" 
d="M306 -14q-82 0 -126.5 42.5t-44.5 126.5v249q0 32 -6 46t-31 16l-49 3l7 43l137 12l13 -7v-342q0 -40 9.5 -70t34.5 -46t71 -16q50 0 87.5 21.5t58 57.5t20.5 80v202q0 29 -5 44.5t-32 17.5l-51 3l6 43l140 12l13 -7v-426q0 -25 7 -35.5t27 -11.5l55 -2v-43l-147 -6
l-11 84h-2q-27 -33 -56.5 -53t-60.5 -29t-64 -9zM411 592l-27 27l106 126q11 14 19 20t17 6q10 0 17 -6t11 -15t4 -18q0 -12 -7.5 -25.5t-25.5 -27.5zM254 592l-27 27l97 131q10 14 18 19.5t16 5.5q9 0 16.5 -5.5t12 -15t4.5 -19.5q0 -11 -7 -23t-25 -28z" />
    <glyph glyph-name="Uogonek" unicode="&#x172;" horiz-adv-x="887" 
d="M497 -224q-25 0 -44.5 10t-30 28t-10.5 42q0 26 13 48.5t35.5 44t50.5 41.5q-17 -1 -35.5 -2.5t-37.5 -1.5q-73 0 -125.5 17.5t-86.5 52.5t-51 88t-17 123v339q0 26 -7 36t-29 11l-61 4v43h271v-43l-65 -4q-15 0 -23.5 -10t-8.5 -41v-331q0 -72 19 -122t66 -77t130 -27
q72 0 120.5 26t73 78.5t24.5 132.5v324q0 26 -7 36t-29 11l-61 4v43h256v-43l-64 -4q-16 -1 -24 -11t-8 -40v-302q0 -106 -33 -179.5t-107 -107.5q-60 -41 -87 -76.5t-27 -66.5q0 -21 10.5 -32t34.5 -11q14 0 31 4.5t30 11.5l14 -37q-12 -7 -28 -14.5t-35 -11.5t-37 -4z" />
    <glyph glyph-name="uogonek" unicode="&#x173;" horiz-adv-x="702" 
d="M553 -224q-25 0 -44.5 10t-30 28t-10.5 42q0 27 15.5 51.5t40.5 47t52 41.5l-76 -3l-11 84h-2q-27 -33 -56.5 -53t-60.5 -29t-64 -9q-82 0 -126.5 42.5t-44.5 126.5v249q0 32 -6 46t-31 16l-49 3l7 43l137 12l13 -7v-342q0 -40 9.5 -70t34.5 -46t71 -16q50 0 87.5 21.5
t58 57.5t20.5 80v202q0 29 -5 44.5t-32 17.5l-51 3l6 43l140 12l13 -7v-426q0 -25 7 -35.5t27 -11.5l55 -2v-43l-23 -1q-47 -40 -68.5 -70.5t-21.5 -57.5q0 -21 10.5 -32t34.5 -11q14 0 31 4.5t30 11.5l14 -37q-12 -7 -28.5 -14.5t-35 -11.5t-37.5 -4z" />
    <glyph glyph-name="Wcircumflex" unicode="&#x174;" horiz-adv-x="1128" 
d="M281 0l-169 602q-7 29 -17.5 38.5t-30.5 12.5l-43 6v41h251v-42l-58 -3q-20 -1 -25 -11t2 -39l141 -517h4l179 612h99l202 -614h3l129 516q6 26 2.5 38t-29.5 14l-54 3v43h240v-42l-47 -2q-13 -2 -23 -7.5t-16.5 -16.5t-11.5 -32l-148 -600h-94l-207 614h-3l-184 -614
h-92zM427 745l-20 32l119 120q9 10 18.5 15.5t20.5 5.5q10 0 19.5 -6t24.5 -21l113 -113l-21 -33l-136 88z" />
    <glyph glyph-name="wcircumflex" unicode="&#x175;" horiz-adv-x="890" 
d="M229 0l-136 420q-6 18 -11 28.5t-13 16t-25 6.5l-37 2l9 44h221v-42l-48 -1q-21 -1 -26 -12t4 -39l106 -343h5l137 437h75l136 -436h5l105 334q9 29 4 42t-27 15l-40 3l5 42h211v-42l-41 -2q-14 0 -26.5 -10t-24.5 -46l-135 -417h-82l-133 427h-4l-130 -427h-84zM328 593
l-29 27l110 133q9 11 20.5 17.5t25.5 6.5q9 0 16 -3t14.5 -8.5t15.5 -16.5l107 -129l-29 -27l-124 103z" />
    <glyph glyph-name="Ycircumflex" unicode="&#x176;" horiz-adv-x="712" 
d="M214 0v42l65 4q17 1 25 10t8 41v200l-199 306q-14 21 -27 33.5t-38 16.5l-42 6v41h271v-42l-57 -1q-25 0 -31 -14.5t9 -36.5l162 -251h3l157 248q12 18 11.5 33.5t-32.5 18.5l-47 2v43h254v-43l-64 -2q-17 1 -30.5 -14t-29.5 -42l-196 -307v-199q0 -25 7 -35t28 -12
l63 -4v-42h-270zM222 745l-20 32l119 120q9 10 18.5 15.5t20.5 5.5q10 0 19.5 -6t24.5 -21l113 -113l-21 -33l-136 88z" />
    <glyph glyph-name="ycircumflex" unicode="&#x177;" horiz-adv-x="614" 
d="M123 -230q-45 0 -71.5 22t-26.5 56q0 25 17.5 41t41.5 16q22 0 36.5 -10t14.5 -25q1 -7 0.5 -14.5t-5.5 -34.5q22 -2 40 9t37.5 41.5t45.5 86.5l26 57l-181 406q-13 29 -20 39.5t-25 11.5l-43 2l9 43h231v-41l-51 -2q-17 -1 -24.5 -10t4.5 -39l139 -327h4l138 321
q10 23 5.5 37t-29.5 16l-43 3l6 42h211v-41l-40 -2q-17 -1 -26.5 -10.5t-24.5 -44.5l-218 -486q-20 -43 -38 -74t-38.5 -50.5t-45.5 -29t-56 -9.5zM196 593l-29 27l110 133q9 11 20.5 17.5t25.5 6.5q9 0 16 -3t14.5 -8.5t15.5 -16.5l107 -129l-29 -27l-124 103z" />
    <glyph glyph-name="Ydieresis" unicode="&#x178;" horiz-adv-x="712" 
d="M214 0v42l65 4q17 1 25 10t8 41v200l-199 306q-14 21 -27 33.5t-38 16.5l-42 6v41h271v-42l-57 -1q-25 0 -31 -14.5t9 -36.5l162 -251h3l157 248q12 18 11.5 33.5t-32.5 18.5l-47 2v43h254v-43l-64 -2q-17 1 -30.5 -14t-29.5 -42l-196 -307v-199q0 -25 7 -35t28 -12
l63 -4v-42h-270zM454 773q-25 0 -39 15t-14 39t14.5 40t39.5 16t39 -14.5t14 -38.5t-14 -40.5t-40 -16.5zM262 773q-25 0 -39 15t-14 39t14.5 40t39.5 16t39.5 -14.5t14.5 -38.5t-14.5 -40.5t-40.5 -16.5z" />
    <glyph glyph-name="Zacute" unicode="&#x179;" horiz-adv-x="696" 
d="M62 0v40l463 607h-278q-25 0 -44 -3.5t-34 -17t-27.5 -40.5t-26.5 -74l-42 -4l12 192h539v-42l-459 -606h260q34 0 59 5.5t43.5 21t32.5 44t29 74.5h43l-21 -197h-549zM293 751l-22 30l128 116q14 11 22.5 15.5t17.5 4.5q15 0 24.5 -14t9.5 -29q0 -16 -9.5 -27.5
t-27.5 -21.5z" />
    <glyph glyph-name="zacute" unicode="&#x17a;" horiz-adv-x="535" 
d="M57 0v36l322 431h-151q-41 0 -62.5 -7t-34 -32.5t-27.5 -80.5l-41 -4l13 172h401v-39l-321 -427h149q33 0 53 2t34.5 13.5t27.5 39t30 78.5h37l-16 -182h-414zM240 593l-26 27l105 129q11 13 20 19t18 6q11 0 19.5 -6t13 -15t4.5 -19q0 -13 -7.5 -25t-26.5 -26z" />
    <glyph glyph-name="Zdotaccent" unicode="&#x17b;" horiz-adv-x="696" 
d="M62 0v40l463 607h-278q-25 0 -44 -3.5t-34 -17t-27.5 -40.5t-26.5 -74l-42 -4l12 192h539v-42l-459 -606h260q34 0 59 5.5t43.5 21t32.5 44t29 74.5h43l-21 -197h-549zM346 770q-26 0 -41 16t-15 40q0 25 15.5 41.5t41.5 16.5t41.5 -15t15.5 -40q0 -24 -15.5 -41.5
t-42.5 -17.5z" />
    <glyph glyph-name="zdotaccent" unicode="&#x17c;" horiz-adv-x="535" 
d="M57 0v36l322 431h-151q-41 0 -62.5 -7t-34 -32.5t-27.5 -80.5l-41 -4l13 172h401v-39l-321 -427h149q33 0 53 2t34.5 13.5t27.5 39t30 78.5h37l-16 -182h-414zM273 627q-26 0 -41 15.5t-15 39.5q0 25 15.5 41.5t41.5 16.5t41.5 -15t15.5 -40q0 -24 -15.5 -41t-42.5 -17z
" />
    <glyph glyph-name="Zcaron" unicode="&#x17d;" horiz-adv-x="696" 
d="M62 0v40l463 607h-278q-25 0 -44 -3.5t-34 -17t-27.5 -40.5t-26.5 -74l-42 -4l12 192h539v-42l-459 -606h260q34 0 59 5.5t43.5 21t32.5 44t29 74.5h43l-21 -197h-549zM346 761q-9 0 -18.5 6t-25.5 21l-112 113l21 33l136 -88l137 88l21 -32l-119 -120
q-10 -10 -19.5 -15.5t-20.5 -5.5z" />
    <glyph glyph-name="zcaron" unicode="&#x17e;" horiz-adv-x="535" 
d="M57 0v36l322 431h-151q-41 0 -62.5 -7t-34 -32.5t-27.5 -80.5l-41 -4l13 172h401v-39l-321 -427h149q33 0 53 2t34.5 13.5t27.5 39t30 78.5h37l-16 -182h-414zM273 598q-10 0 -18 2t-14.5 8t-15.5 16l-101 129l32 27l118 -103l121 103l31 -26l-109 -134q-8 -11 -19 -16.5
t-25 -5.5z" />
    <glyph glyph-name="uni018F" unicode="&#x18f;" horiz-adv-x="747" 
d="M351 -14q-77 0 -138 27t-97 82.5t-36 140.5q0 26 4.5 56.5t9.5 52.5h497q0 96 -30.5 164.5t-88.5 105.5t-141 37q-47 0 -87 -13.5t-75.5 -38t-67.5 -59.5l-29 30q26 38 64.5 70.5t93 52.5t124.5 20q99 0 171 -44t111.5 -125.5t39.5 -192.5q0 -82 -23.5 -149t-66 -115.5
t-102 -75t-133.5 -26.5zM348 40q77 0 128.5 35t80 92.5t34.5 126.5h-424q-2 -16 -3.5 -35t-1.5 -31q0 -66 25 -107.5t67 -61t94 -19.5z" />
    <glyph glyph-name="florin" unicode="&#x192;" horiz-adv-x="589" 
d="M76 -193q-36 0 -66.5 12t-49 33.5t-18.5 51.5q0 26 13 41.5t37 15.5q20 0 33.5 -9.5t13.5 -24.5q0 -9 -3.5 -19t-18.5 -35q13 -8 29 -14t33 -6q32 0 52.5 13.5t33 43t20.5 76.5l54 401h-89l6 47h89l7 47q8 60 23.5 104t40.5 72.5t58.5 42.5t75.5 14q40 0 71.5 -11.5
t49.5 -32t18 -51.5q0 -25 -13 -41t-37 -16q-19 0 -33 9t-14 24q0 10 3 19.5t19 35.5q-13 7 -29 13t-38 6q-37 0 -58.5 -14t-32.5 -43.5t-18 -75.5l-15 -100h160l-7 -49h-159l-47 -344q-10 -80 -35.5 -132t-65 -78t-93.5 -26z" />
    <glyph glyph-name="Ohorn" unicode="&#x1a0;" horiz-adv-x="895" 
d="M406 -14q-102 0 -177.5 43.5t-116 122.5t-40.5 188q0 81 20.5 149t62 119t106 79.5t153.5 28.5q81 0 142 -25t104 -70.5t65 -106.5q36 15 58 34.5t33 44t12 51.5h-7q-28 0 -41.5 15t-13.5 40q0 20 8 33.5t22.5 21t31.5 7.5q25 0 39.5 -11t21 -30t6.5 -44
q0 -36 -16.5 -79.5t-50 -79.5t-88.5 -53q5 -23 7 -47.5t2 -50.5q0 -82 -23 -152t-68 -120.5t-108.5 -79t-143.5 -28.5zM415 46q63 0 110.5 21.5t78.5 61t47.5 96.5t16.5 128q0 72 -17.5 128t-50.5 95t-82.5 59t-114.5 20q-63 0 -109.5 -21t-77.5 -61t-46.5 -95.5
t-15.5 -123.5q0 -74 18 -131t51.5 -96.5t82 -60t109.5 -20.5z" />
    <glyph glyph-name="ohorn" unicode="&#x1a1;" horiz-adv-x="685" 
d="M303 -14q-74 0 -128 31t-82.5 90t-28.5 143q0 80 27.5 143.5t84 100.5t141.5 37q73 0 126 -28.5t82 -77.5q34 14 54.5 32.5t31 42.5t12.5 53h-10q-27 0 -40.5 13.5t-13.5 38.5q0 19 8 31.5t21.5 19.5t30.5 7q24 0 39 -11t21 -29.5t6 -42.5q0 -37 -14 -77t-44.5 -73.5
t-79.5 -53.5q7 -24 11 -51t4 -57q0 -86 -28 -150t-86 -98t-145 -34zM317 41q55 0 93 23.5t58.5 69.5t20.5 113q0 57 -12.5 100t-36 71t-57.5 42t-78 14q-54 0 -91.5 -24.5t-56.5 -72t-19 -115.5q0 -55 12.5 -96.5t36 -69.5t56.5 -41.5t74 -13.5z" />
    <glyph glyph-name="Uhorn" unicode="&#x1af;" horiz-adv-x="942" 
d="M438 -14q-68 0 -120 16t-87.5 49t-54 87t-18.5 129v339q0 27 -7.5 37t-28.5 10l-61 4v43h271v-43l-65 -4q-15 0 -23.5 -10t-8.5 -41v-331q0 -73 19.5 -123t66.5 -76.5t129 -26.5q75 0 123 27t71.5 80t23.5 130v324q0 27 -7.5 37t-28.5 10l-61 4v43h160v-192q44 12 72 27
t43.5 32.5t21.5 37t7 39.5h-7q-28 0 -41.5 15t-13.5 40q0 20 8.5 33.5t22.5 21t32 7.5q24 0 39 -11t21 -30t6 -44q0 -27 -9.5 -60t-33 -64t-64.5 -56t-104 -39v-157q0 -99 -29.5 -169.5t-94 -107.5t-169.5 -37z" />
    <glyph glyph-name="uhorn" unicode="&#x1b0;" horiz-adv-x="743" 
d="M306 -14q-50 0 -89 17t-60.5 54t-21.5 98v249q0 37 -7 48.5t-30 13.5l-49 3l7 43l137 12l13 -7v-342q0 -47 11.5 -76t37 -42.5t66.5 -13.5q54 0 91 23t56 59t19 76v203q0 36 -7.5 48t-29.5 14l-51 3l6 43l140 12l13 -7v-99q44 16 70 34.5t38.5 43.5t14.5 57h-10
q-28 0 -41.5 13.5t-13.5 38.5q0 19 8 31.5t22 19.5t30 7q25 0 39.5 -11t21 -29.5t6.5 -42.5q0 -41 -18 -84t-59 -77.5t-108 -50.5v-277q0 -25 7 -35.5t27 -11.5l55 -2v-43l-147 -6l-11 83h-2q-27 -32 -56.5 -52t-60.5 -29t-64 -9z" />
    <glyph glyph-name="uni01C4" unicode="&#x1c4;" horiz-adv-x="1510" 
d="M72 0v42l68 4q21 2 27.5 12.5t6.5 38.5v509q0 26 -6 36t-31 11l-65 4v43h300q74 0 134.5 -13.5t106 -40.5t76 -66.5t46 -91.5t15.5 -116q0 -95 -28 -165.5t-80 -115.5t-125 -68t-164 -23h-281zM345 52q78 0 138.5 16.5t101.5 52.5t62 95.5t21 145.5q0 98 -32.5 161
t-99 94t-169.5 31h-120v-596h42.5h55.5zM876 0v40l463 607h-278q-25 0 -44 -3.5t-34 -17t-27.5 -40.5t-26.5 -74l-42 -4l12 192h539v-42l-459 -606h260q34 0 59 5.5t43.5 21t32.5 44t29 74.5h43l-21 -197h-549zM1160 761q-9 0 -18.5 6t-25.5 21l-112 113l21 33l136 -88
l137 88l21 -32l-119 -120q-10 -10 -19.5 -15.5t-20.5 -5.5z" />
    <glyph glyph-name="uni01C5" unicode="&#x1c5;" horiz-adv-x="1356" 
d="M72 0v42l68 4q21 2 27.5 12.5t6.5 38.5v509q0 26 -6 36t-31 11l-65 4v43h300q74 0 134.5 -13.5t106 -40.5t76 -66.5t46 -91.5t15.5 -116q0 -95 -28 -165.5t-80 -115.5t-125 -68t-164 -23h-281zM345 52q78 0 138.5 16.5t101.5 52.5t62 95.5t21 145.5q0 98 -32.5 161
t-99 94t-169.5 31h-120v-596h42.5h55.5zM879 0v36l322 431h-151q-41 0 -62.5 -7t-34 -32.5t-27.5 -80.5l-41 -4l13 172h401v-39l-321 -427h149q33 0 53 2t34.5 13.5t27.5 39t30 78.5h37l-16 -182h-414zM1095 598q-10 0 -18 2t-14.5 8t-15.5 16l-101 129l32 27l118 -103
l121 103l31 -26l-109 -134q-8 -11 -19 -16.5t-25 -5.5z" />
    <glyph glyph-name="uni01C6" unicode="&#x1c6;" horiz-adv-x="1196" 
d="M285 -14q-71 0 -120 30t-74.5 88.5t-25.5 141.5q0 89 31 152.5t88.5 98t136.5 34.5q39 0 77 -9.5t63 -24.5v158q0 34 -8 46t-38 14l-60 4l5 42l160 5l12 -11v-668q0 -18 5 -31t30 -14l58 -3v-42l-144 -5l-11 78h-8q-20 -26 -46.5 -45.5t-59 -29t-71.5 -9.5zM302 49
q48 0 83.5 20t55.5 53.5t20 76.5v234q-27 20 -64 31t-81 11q-54 0 -93.5 -24.5t-61 -73.5t-21.5 -123q0 -67 18 -112.5t54.5 -69t89.5 -23.5zM718 0v36l322 431h-151q-41 0 -62.5 -7t-34 -32.5t-27.5 -80.5l-41 -4l13 172h401v-39l-321 -427h149q33 0 53 2t34.5 13.5
t27.5 39t30 78.5h37l-16 -182h-414zM934 598q-10 0 -18 2t-14.5 8t-15.5 16l-101 129l32 27l118 -103l121 103l31 -26l-109 -134q-8 -11 -19 -16.5t-25 -5.5z" />
    <glyph glyph-name="uni01C7" unicode="&#x1c7;" horiz-adv-x="1194" 
d="M72 0v42l68 4q16 1 25 10.5t9 40.5v510q0 26 -7 35.5t-30 10.5l-65 4v43h289v-42l-79 -5q-21 -1 -28 -11t-7 -36v-554h144q35 0 58.5 3t39.5 16t30.5 44.5t32.5 88.5h43l-24 -204h-499zM850 -14q-57 0 -98.5 15t-64 41t-22.5 59q0 21 9 37t25.5 25t37.5 9
q22 0 36.5 -11.5t14.5 -30.5q0 -12 -5 -25.5t-21 -41.5q15 -11 41.5 -17t51.5 -6q42 0 70 18.5t42.5 55t14.5 88.5v403q0 22 -6 35t-30 14l-84 4v42h303v-43l-77 -4q-20 -1 -26.5 -13.5t-6.5 -37.5v-383q0 -111 -49.5 -172t-155.5 -61z" />
    <glyph glyph-name="uni01C8" unicode="&#x1c8;" horiz-adv-x="911" 
d="M72 0v42l68 4q16 1 25 10.5t9 40.5v510q0 26 -7 35.5t-30 10.5l-65 4v43h289v-42l-79 -5q-21 -1 -28 -11t-7 -36v-554h144q35 0 58.5 3t39.5 16t30.5 44.5t32.5 88.5h43l-24 -204h-499zM667 -229l-19 29q25 19 42 39.5t28.5 46t16.5 59t5 79.5v380q0 37 -7.5 49.5
t-30.5 13.5l-62 4l6 43l152 12l13 -8v-424q0 -68 -5.5 -117.5t-20.5 -86.5t-43.5 -65t-74.5 -54zM760 627q-27 0 -42 15.5t-15 39.5q0 25 15.5 41.5t41.5 16.5t41.5 -15t15.5 -40q0 -24 -15 -41t-42 -17z" />
    <glyph glyph-name="uni01C9" unicode="&#x1c9;" horiz-adv-x="681" 
d="M69 0v41l48 4q16 1 23 9.5t7 36.5v566q0 31 -8 43.5t-34 13.5l-64 5l4 42l161 5l12 -11v-667q0 -25 5.5 -33.5t23.5 -10.5l54 -2v-42h-232zM437 -229l-19 29q25 19 42 39.5t28.5 46t16.5 59t5 79.5v380q0 37 -7.5 49.5t-30.5 13.5l-62 4l6 43l152 12l13 -8v-424
q0 -68 -5.5 -117.5t-20.5 -86.5t-43.5 -65t-74.5 -54zM530 627q-27 0 -42 15.5t-15 39.5q0 25 15.5 41.5t41.5 16.5t41.5 -15t15.5 -40q0 -24 -15 -41t-42 -17z" />
    <glyph glyph-name="uni01CA" unicode="&#x1ca;" horiz-adv-x="1378" 
d="M72 0v42l68 4q17 0 25.5 11.5t8.5 39.5v510q0 25 -6 35t-28 11l-68 4v43h197l389 -576l6 -4v486q0 25 -7 35.5t-30 11.5l-64 4v43h263v-43l-65 -3q-19 -1 -27 -11.5t-8 -38.5v-604h-69l-417 609l-5 4v-520q0 -20 4.5 -32.5t30.5 -14.5l68 -4v-42h-266zM1034 -14
q-57 0 -98.5 15t-64 41t-22.5 59q0 21 9 37t25.5 25t37.5 9q22 0 36.5 -11.5t14.5 -30.5q0 -12 -5 -25.5t-21 -41.5q15 -11 41.5 -17t51.5 -6q42 0 70 18.5t42.5 55t14.5 88.5v403q0 22 -6 35t-30 14l-84 4v42h303v-43l-77 -4q-20 -1 -26.5 -13.5t-6.5 -37.5v-383
q0 -111 -49.5 -172t-155.5 -61z" />
    <glyph glyph-name="uni01CB" unicode="&#x1cb;" horiz-adv-x="1188" 
d="M72 0v42l68 4q17 0 25.5 11.5t8.5 39.5v510q0 25 -6 35t-28 11l-68 4v43h197l389 -576l6 -4v486q0 25 -7 35.5t-30 11.5l-64 4v43h263v-43l-65 -3q-19 -1 -27 -11.5t-8 -38.5v-604h-69l-417 609l-5 4v-520q0 -20 4.5 -32.5t30.5 -14.5l68 -4v-42h-266zM944 -229l-19 29
q25 19 42 39.5t28.5 46t16.5 59t5 79.5v380q0 37 -7.5 49.5t-30.5 13.5l-62 4l6 43l152 12l13 -8v-424q0 -68 -5.5 -117.5t-20.5 -86.5t-43.5 -65t-74.5 -54zM1037 627q-27 0 -42 15.5t-15 39.5q0 25 15.5 41.5t41.5 16.5t41.5 -15t15.5 -40q0 -24 -15 -41t-42 -17z" />
    <glyph glyph-name="uni01CC" unicode="&#x1cc;" horiz-adv-x="1014" 
d="M62 0v42l57 4q13 0 20.5 9t7.5 39v314q0 32 -7 44t-30 13l-58 4l6 43l132 12l13 -7l6 -85h5q30 47 82 73t109 26q55 0 94 -19t59.5 -56.5t20.5 -93.5v-276q0 -20 6 -29.5t28 -11.5l54 -3v-42h-238v43l47 2q17 1 24.5 9t7.5 34v249q0 43 -10.5 71.5t-37.5 44t-74 15.5
q-49 0 -87 -18.5t-59.5 -52t-21.5 -77.5v-229q0 -24 5.5 -34t21.5 -11l56 -3v-43h-239zM770 -229l-19 29q25 19 42 39.5t28.5 46t16.5 59t5 79.5v380q0 37 -7.5 49.5t-30.5 13.5l-62 4l6 43l152 12l13 -8v-424q0 -68 -5.5 -117.5t-20.5 -86.5t-43.5 -65t-74.5 -54zM863 627
q-27 0 -42 15.5t-15 39.5q0 25 15.5 41.5t41.5 16.5t41.5 -15t15.5 -40q0 -24 -15 -41t-42 -17z" />
    <glyph glyph-name="uni01CD" unicode="&#x1cd;" horiz-adv-x="763" 
d="M14 0v43l54 5q17 2 26.5 9.5t22.5 41.5l232 601h78l228 -604q8 -23 17 -35t31 -14l47 -4v-43h-260v43l62 4q16 1 24 9.5t-4 40.5l-48 132h-294l-49 -130q-8 -22 -4 -37t29 -17l60 -3v-42h-252zM248 284h257l-124 340h-7zM386 761q-9 0 -18.5 6t-25.5 21l-112 113l21 33
l136 -88l137 88l21 -32l-119 -120q-10 -10 -19.5 -15.5t-20.5 -5.5z" />
    <glyph glyph-name="uni01CE" unicode="&#x1ce;" horiz-adv-x="586" 
d="M220 -14q-67 0 -109 36.5t-42 99.5q0 58 29 93.5t98.5 53.5t190.5 22v77q0 36 -12.5 60.5t-41.5 37.5t-75 13q-32 0 -60 -8t-42 -22q11 -16 17 -27.5t9 -19t3 -13.5q0 -20 -17 -32t-38 -12q-26 0 -41 14t-15 44q0 36 28 65t73 46t94 17q66 0 108 -20t61.5 -58.5
t19.5 -95.5v-257q0 -27 13.5 -40.5t38.5 -13.5q16 0 30.5 3.5t27.5 9.5l13 -38q-16 -15 -42.5 -25t-56.5 -10q-39 0 -61 21t-28 65q-21 -29 -47 -48t-58 -28.5t-68 -9.5zM246 47q37 0 69 14.5t52 40.5t20 57v78q-88 -1 -140.5 -11.5t-77 -32.5t-24.5 -59q0 -45 27.5 -66
t73.5 -21zM267 598q-10 0 -18 2t-14.5 8t-15.5 16l-101 129l32 27l118 -103l121 103l31 -26l-109 -134q-8 -11 -19 -16.5t-25 -5.5z" />
    <glyph glyph-name="uni01CF" unicode="&#x1cf;" horiz-adv-x="416" 
d="M72 0v42l67 4q17 1 25 10.5t8 40.5v509q0 21 -5.5 33.5t-30.5 13.5l-64 4v43h272v-43l-67 -4q-19 -1 -25.5 -12t-6.5 -39v-509q0 -22 6 -33.5t28 -13.5l65 -4v-42h-272zM208 757q-9 0 -18.5 6t-25.5 21l-112 113l21 33l136 -88l137 88l21 -32l-119 -120
q-10 -10 -19.5 -15.5t-20.5 -5.5z" />
    <glyph glyph-name="uni01D0" unicode="&#x1d0;" horiz-adv-x="355" 
d="M58 0v41l62 4q19 2 25.5 12.5t6.5 37.5v312q0 36 -7.5 47.5t-30.5 12.5l-62 4l6 43l152 12l13 -8v-427q0 -18 4 -31t27 -15l63 -3v-42h-259zM151 598q-10 0 -18 2t-14.5 8t-15.5 16l-101 129l32 27l118 -103l121 103l31 -26l-109 -134q-8 -11 -19 -16.5t-25 -5.5z" />
    <glyph glyph-name="uni01D1" unicode="&#x1d1;" 
d="M406 -14q-104 0 -179 44t-115 123t-40 186q0 117 39.5 201t116 129t186.5 45q104 0 179.5 -42.5t115.5 -121t40 -185.5q0 -86 -24.5 -156t-69.5 -119.5t-108.5 -76.5t-140.5 -27zM415 46q61 0 108 20t79 59.5t49 96t17 130.5q0 73 -17.5 129.5t-51.5 95t-83.5 58
t-112.5 19.5q-60 0 -106.5 -20t-78 -58.5t-48 -95t-16.5 -127.5q0 -74 18 -131t51.5 -96t82 -59.5t109.5 -20.5zM408 761q-9 0 -18.5 6t-25.5 21l-112 113l21 33l136 -88l137 88l21 -32l-119 -120q-10 -10 -19.5 -15.5t-20.5 -5.5z" />
    <glyph glyph-name="uni01D2" unicode="&#x1d2;" horiz-adv-x="622" 
d="M303 -14q-77 0 -130.5 32t-81 91t-27.5 141q0 87 30.5 150t87 97t135.5 34q77 0 131.5 -31.5t84 -90.5t29.5 -141q0 -89 -29 -152.5t-87 -96.5t-143 -33zM317 41q54 0 92.5 23.5t59 69t20.5 113.5q0 57 -12.5 100t-36.5 71t-58 42t-77 14q-52 0 -89.5 -23.5t-57.5 -70.5
t-20 -118q0 -72 22 -121.5t61.5 -74.5t95.5 -25zM309 598q-10 0 -18 2t-14.5 8t-15.5 16l-101 129l32 27l118 -103l121 103l31 -26l-109 -134q-8 -11 -19 -16.5t-25 -5.5z" />
    <glyph glyph-name="uni01D3" unicode="&#x1d3;" horiz-adv-x="887" 
d="M438 -14q-73 0 -125.5 17.5t-86.5 52.5t-51 88t-17 123v339q0 26 -7 36t-29 11l-61 4v43h271v-43l-65 -4q-15 0 -23.5 -10t-8.5 -41v-331q0 -72 19 -122t66 -77t130 -27q72 0 120.5 26t73 78.5t24.5 132.5v324q0 26 -7 36t-29 11l-61 4v43h256v-43l-64 -4q-16 -1 -24 -11
t-8 -40v-302q0 -101 -30.5 -171.5t-95 -106.5t-167.5 -36zM447 761q-9 0 -18.5 6t-25.5 21l-112 113l21 33l136 -88l137 88l21 -32l-119 -120q-10 -10 -19.5 -15.5t-20.5 -5.5z" />
    <glyph glyph-name="uni01D4" unicode="&#x1d4;" horiz-adv-x="692" 
d="M306 -14q-82 0 -126.5 42.5t-44.5 126.5v249q0 32 -6 46t-31 16l-49 3l7 43l137 12l13 -7v-342q0 -40 9.5 -70t34.5 -46t71 -16q50 0 87.5 21.5t58 57.5t20.5 80v202q0 29 -5 44.5t-32 17.5l-51 3l6 43l140 12l13 -7v-426q0 -25 7 -35.5t27 -11.5l55 -2v-43l-147 -6
l-11 84h-2q-27 -33 -56.5 -53t-60.5 -29t-64 -9zM332 598q-10 0 -18 2t-14.5 8t-15.5 16l-101 129l32 27l118 -103l121 103l31 -26l-109 -134q-8 -11 -19 -16.5t-25 -5.5z" />
    <glyph glyph-name="uni01D5" unicode="&#x1d5;" horiz-adv-x="887" 
d="M438 -14q-73 0 -125.5 17.5t-86.5 52.5t-51 88t-17 123v339q0 26 -7 36t-29 11l-61 4v43h271v-43l-65 -4q-15 0 -23.5 -10t-8.5 -41v-331q0 -72 19 -122t66 -77t130 -27q72 0 120.5 26t73 78.5t24.5 132.5v324q0 26 -7 36t-29 11l-61 4v43h256v-43l-64 -4q-16 -1 -24 -11
t-8 -40v-302q0 -101 -30.5 -171.5t-95 -106.5t-167.5 -36zM543 773q-25 0 -39 15t-14 39t14.5 40t39.5 16t39 -14.5t14 -38.5t-14 -40.5t-40 -16.5zM351 773q-25 0 -39 15t-14 39t14.5 40t39.5 16t39.5 -14.5t14.5 -38.5t-14.5 -40.5t-40.5 -16.5zM306 959v66h278v-66h-278z
" />
    <glyph glyph-name="uni01D6" unicode="&#x1d6;" horiz-adv-x="692" 
d="M306 -14q-82 0 -126.5 42.5t-44.5 126.5v249q0 32 -6 46t-31 16l-49 3l7 43l137 12l13 -7v-342q0 -40 9.5 -70t34.5 -46t71 -16q50 0 87.5 21.5t58 57.5t20.5 80v202q0 29 -5 44.5t-32 17.5l-51 3l6 43l140 12l13 -7v-426q0 -25 7 -35.5t27 -11.5l55 -2v-43l-147 -6
l-11 84h-2q-27 -33 -56.5 -53t-60.5 -29t-64 -9zM422 627q-25 0 -39 15t-14 38q0 24 14.5 40t39.5 16t39 -14.5t14 -38.5q0 -23 -14.5 -39.5t-39.5 -16.5zM226 627q-24 0 -38 15t-14 38q0 24 14 40t39 16t39 -14.5t14 -38.5q0 -23 -14 -39.5t-40 -16.5zM186 821v66h278v-66
h-278z" />
    <glyph glyph-name="uni01D7" unicode="&#x1d7;" horiz-adv-x="887" 
d="M438 -14q-73 0 -125.5 17.5t-86.5 52.5t-51 88t-17 123v339q0 26 -7 36t-29 11l-61 4v43h271v-43l-65 -4q-15 0 -23.5 -10t-8.5 -41v-331q0 -72 19 -122t66 -77t130 -27q72 0 120.5 26t73 78.5t24.5 132.5v324q0 26 -7 36t-29 11l-61 4v43h256v-43l-64 -4q-16 -1 -24 -11
t-8 -40v-302q0 -101 -30.5 -171.5t-95 -106.5t-167.5 -36zM372 929l-22 30l128 116q14 11 22.5 15.5t17.5 4.5q15 0 24.5 -14t9.5 -29q0 -16 -9.5 -27.5t-27.5 -21.5zM543 773q-25 0 -39 15t-14 39t14.5 40t39.5 16t39 -14.5t14 -38.5t-14 -40.5t-40 -16.5zM351 773
q-25 0 -39 15t-14 39t14.5 40t39.5 16t39.5 -14.5t14.5 -38.5t-14.5 -40.5t-40.5 -16.5z" />
    <glyph glyph-name="uni01D8" unicode="&#x1d8;" horiz-adv-x="692" 
d="M306 -14q-82 0 -126.5 42.5t-44.5 126.5v249q0 32 -6 46t-31 16l-49 3l7 43l137 12l13 -7v-342q0 -40 9.5 -70t34.5 -46t71 -16q50 0 87.5 21.5t58 57.5t20.5 80v202q0 29 -5 44.5t-32 17.5l-51 3l6 43l140 12l13 -7v-426q0 -25 7 -35.5t27 -11.5l55 -2v-43l-147 -6
l-11 84h-2q-27 -33 -56.5 -53t-60.5 -29t-64 -9zM262 794l-22 30l128 116q14 11 22.5 15.5t17.5 4.5q15 0 24.5 -14t9.5 -29q0 -16 -9.5 -27.5t-27.5 -21.5zM418 627q-25 0 -39 15t-14 38q0 24 14.5 40t39.5 16t39 -14.5t14 -38.5q0 -23 -14.5 -39.5t-39.5 -16.5zM222 627
q-24 0 -38 15t-14 38q0 24 14 40t39 16t39 -14.5t14 -38.5q0 -23 -14 -39.5t-40 -16.5z" />
    <glyph glyph-name="uni01D9" unicode="&#x1d9;" horiz-adv-x="887" 
d="M438 -14q-73 0 -125.5 17.5t-86.5 52.5t-51 88t-17 123v339q0 26 -7 36t-29 11l-61 4v43h271v-43l-65 -4q-15 0 -23.5 -10t-8.5 -41v-331q0 -72 19 -122t66 -77t130 -27q72 0 120.5 26t73 78.5t24.5 132.5v324q0 26 -7 36t-29 11l-61 4v43h256v-43l-64 -4q-16 -1 -24 -11
t-8 -40v-302q0 -101 -30.5 -171.5t-95 -106.5t-167.5 -36zM444 935q-9 0 -18.5 6t-25.5 21l-112 113l21 33l136 -88l137 88l21 -32l-119 -120q-10 -10 -19.5 -15.5t-20.5 -5.5zM538 773q-25 0 -39 15t-14 39t14.5 40t39.5 16t39 -14.5t14 -38.5t-14 -40.5t-40 -16.5z
M346 773q-25 0 -39 15t-14 39t14.5 40t39.5 16t39.5 -14.5t14.5 -38.5t-14.5 -40.5t-40.5 -16.5z" />
    <glyph glyph-name="uni01DA" unicode="&#x1da;" horiz-adv-x="692" 
d="M306 -14q-82 0 -126.5 42.5t-44.5 126.5v249q0 32 -6 46t-31 16l-49 3l7 43l137 12l13 -7v-342q0 -40 9.5 -70t34.5 -46t71 -16q50 0 87.5 21.5t58 57.5t20.5 80v202q0 29 -5 44.5t-32 17.5l-51 3l6 43l140 12l13 -7v-426q0 -25 7 -35.5t27 -11.5l55 -2v-43l-147 -6
l-11 84h-2q-27 -33 -56.5 -53t-60.5 -29t-64 -9zM320 805q-9 0 -18.5 6t-25.5 21l-112 113l21 33l136 -88l137 88l21 -32l-119 -120q-10 -10 -19.5 -15.5t-20.5 -5.5zM418 627q-25 0 -39 15t-14 38q0 24 14.5 40t39.5 16t39 -14.5t14 -38.5q0 -23 -14.5 -39.5t-39.5 -16.5z
M222 627q-24 0 -38 15t-14 38q0 24 14 40t39 16t39 -14.5t14 -38.5q0 -23 -14 -39.5t-40 -16.5z" />
    <glyph glyph-name="uni01DB" unicode="&#x1db;" horiz-adv-x="887" 
d="M438 -14q-73 0 -125.5 17.5t-86.5 52.5t-51 88t-17 123v339q0 26 -7 36t-29 11l-61 4v43h271v-43l-65 -4q-15 0 -23.5 -10t-8.5 -41v-331q0 -72 19 -122t66 -77t130 -27q72 0 120.5 26t73 78.5t24.5 132.5v324q0 26 -7 36t-29 11l-61 4v43h256v-43l-64 -4q-16 -1 -24 -11
t-8 -40v-302q0 -101 -30.5 -171.5t-95 -106.5t-167.5 -36zM502 925l-143 74q-17 10 -27 21.5t-10 27.5q0 15 10 29t24 14q9 0 17.5 -4.5t21.5 -15.5l129 -116zM543 773q-25 0 -39 15t-14 39t14.5 40t39.5 16t39 -14.5t14 -38.5t-14 -40.5t-40 -16.5zM351 773q-25 0 -39 15
t-14 39t14.5 40t39.5 16t39.5 -14.5t14.5 -38.5t-14.5 -40.5t-40.5 -16.5z" />
    <glyph glyph-name="uni01DC" unicode="&#x1dc;" horiz-adv-x="692" 
d="M306 -14q-82 0 -126.5 42.5t-44.5 126.5v249q0 32 -6 46t-31 16l-49 3l7 43l137 12l13 -7v-342q0 -40 9.5 -70t34.5 -46t71 -16q50 0 87.5 21.5t58 57.5t20.5 80v202q0 29 -5 44.5t-32 17.5l-51 3l6 43l140 12l13 -7v-426q0 -25 7 -35.5t27 -11.5l55 -2v-43l-147 -6
l-11 84h-2q-27 -33 -56.5 -53t-60.5 -29t-64 -9zM377 795l-143 74q-17 10 -27 21.5t-10 27.5q0 15 10 29t24 14q9 0 17.5 -4.5t21.5 -15.5l129 -116zM419 627q-25 0 -39 15t-14 38q0 24 14.5 40t39.5 16t39 -14.5t14 -38.5q0 -23 -14.5 -39.5t-39.5 -16.5zM223 627
q-24 0 -38 15t-14 38q0 24 14 40t39 16t39 -14.5t14 -38.5q0 -23 -14 -39.5t-40 -16.5z" />
    <glyph glyph-name="Gcaron" unicode="&#x1e6;" horiz-adv-x="807" 
d="M407 -14q-105 0 -180 43.5t-115 125t-40 193.5q0 91 23.5 160t67 114.5t104 68.5t134.5 23q64 0 110.5 -16t84.5 -46l11 61h36l38 -216l-42 -10q-25 63 -58.5 99.5t-79 52.5t-104.5 16q-51 0 -95.5 -16.5t-77.5 -51t-51.5 -89t-18.5 -129.5q0 -72 17 -130t50.5 -99.5
t84.5 -64.5t118 -23q38 0 71 7.5t60.5 20t46.5 28.5v131q0 21 -6 32.5t-31 12.5l-67 4v43h267v-43l-56 -4q-15 0 -23 -9.5t-8 -39.5v-238h-43l-22 58q-30 -22 -63.5 -37.5t-69.5 -23.5t-73 -8zM401 761q-9 0 -18.5 6t-25.5 21l-112 113l21 33l136 -88l137 88l21 -32
l-119 -120q-10 -10 -19.5 -15.5t-20.5 -5.5z" />
    <glyph glyph-name="gcaron" unicode="&#x1e7;" horiz-adv-x="580" 
d="M270 -230q-51 0 -94 7.5t-75 23t-49.5 39.5t-17.5 58q0 25 10.5 45.5t31 39.5t51.5 35v3q-23 12 -38.5 31t-15.5 43q0 25 17 54t52 62v3q-41 23 -60.5 57.5t-19.5 80.5q0 53 25.5 93t72 62t111.5 22q25 0 47 -3.5t40.5 -9.5t33.5 -15q18 50 47.5 71.5t65.5 21.5
q20 0 34.5 -7t22 -17.5t7.5 -23.5q0 -20 -16 -35.5t-35 -15.5q-13 0 -23 6t-19 20l-12 18q-11 -13 -18.5 -29t-14.5 -37q22 -22 33.5 -51.5t11.5 -61.5q0 -55 -25.5 -94t-72 -60t-107.5 -21q-25 0 -44 2.5t-34 6.5q-18 -17 -33.5 -38.5t-15.5 -40.5q0 -16 9.5 -26.5
t27.5 -16t41 -5.5h146q75 0 123.5 -25.5t48.5 -92.5q0 -38 -14.5 -67.5t-41 -50.5t-61 -34.5t-73.5 -20t-80 -6.5zM274 -170q56 0 99 12.5t68 36t25 56.5t-26 49.5t-77 16.5h-194q-27 -16 -44.5 -38.5t-17.5 -50.5q0 -38 40.5 -60t126.5 -22zM269 244q64 0 98.5 29.5
t34.5 83.5q0 50 -36 81.5t-102 31.5q-60 0 -94.5 -31t-34.5 -82t37 -82t97 -31zM261 608q-10 0 -18 2t-14.5 8t-15.5 16l-101 129l32 27l118 -103l121 103l31 -26l-109 -134q-8 -11 -19 -16.5t-25 -5.5z" />
    <glyph glyph-name="uni01EA" unicode="&#x1ea;" 
d="M443 -224q-25 0 -44.5 10t-30 28t-10.5 42q0 25 14 48.5t36 44.5t47 40q-11 -2 -23.5 -2.5t-25.5 -0.5q-104 0 -179 44t-115 123t-40 186q0 117 39.5 201t116 129t186.5 45q104 0 179.5 -42.5t115.5 -121t40 -185.5q0 -92 -28 -165.5t-78.5 -123.5t-121.5 -73
q-34 -27 -55 -50t-31.5 -43.5t-10.5 -39.5q0 -21 10.5 -32t34.5 -11q14 0 31 4.5t30 11.5l14 -37q-12 -7 -28.5 -14.5t-35 -11.5t-37.5 -4zM415 46q61 0 108 20.5t79 59.5t49 95.5t17 130.5q0 73 -17.5 129.5t-51.5 95t-83.5 58t-112.5 19.5q-60 0 -106.5 -20t-78 -58.5
t-48 -94.5t-16.5 -128q0 -74 18 -131t51.5 -96t82 -59.5t109.5 -20.5z" />
    <glyph glyph-name="uni01EB" unicode="&#x1eb;" horiz-adv-x="622" 
d="M335 -224q-25 0 -44.5 10t-30 28t-10.5 42t13.5 47.5t36 45t47.5 40.5q-8 -2 -18.5 -2.5t-20.5 -0.5q-78 -1 -133 30.5t-83 91t-28 142.5q0 87 30.5 150t87 97t135.5 34q77 0 131.5 -31.5t84 -90.5t29.5 -141q0 -101 -37.5 -168.5t-111.5 -95.5q-50 -41 -74 -72.5
t-24 -61.5q0 -21 10.5 -32t34.5 -11q14 0 31 4.5t30 11.5l14 -37q-12 -7 -28 -14.5t-35 -11.5t-37 -4zM317 41q54 0 92.5 23.5t59 69t20.5 113.5q0 57 -12.5 100t-36.5 71t-58 42t-77 14q-52 0 -89.5 -23.5t-57.5 -70.5t-20 -118q0 -72 22 -121.5t61.5 -74.5t95.5 -25z" />
    <glyph glyph-name="Aringacute" unicode="&#x1fa;" horiz-adv-x="763" 
d="M14 0v43l54 5q17 2 26.5 9.5t22.5 41.5l217 562q-33 12 -48 37t-15 61q0 29 13 53t40 38.5t67 14.5q57 0 86 -28.5t29 -75.5q0 -36 -16 -62t-48 -38l213 -565q8 -23 17 -35t31 -14l47 -4v-43h-260v43l62 4q16 1 24 9.5t-4 40.5l-48 132h-294l-49 -130q-8 -22 -4 -37
t29 -17l60 -3v-42h-252zM248 284h257l-124 340h-7zM390 700q22 0 34 6.5t17 20.5t5 32t-6 31t-18 20.5t-34 7.5t-34.5 -7.5t-18 -20.5t-5.5 -31q0 -17 5.5 -31t18.5 -21t36 -7zM326 894l-22 31l129 115q13 12 21.5 16t17.5 4q15 0 24.5 -14t9.5 -28q0 -17 -9.5 -28.5
t-27.5 -20.5z" />
    <glyph glyph-name="aringacute" unicode="&#x1fb;" horiz-adv-x="590" 
d="M220 -14q-67 0 -109 36.5t-42 99.5q0 58 29 93.5t98.5 53.5t190.5 22v77q0 36 -12.5 60.5t-41.5 37.5t-75 13q-32 0 -60 -8t-42 -22q11 -16 17 -27.5t9 -19t3 -13.5q0 -20 -17 -32t-38 -12q-26 0 -41 14t-15 44q0 36 28 65t73 46t94 17q66 0 108 -20t61.5 -58.5
t19.5 -95.5v-257q0 -27 13.5 -40.5t38.5 -13.5q16 0 30.5 3.5t27.5 9.5l13 -38q-16 -15 -42.5 -25t-56.5 -10q-39 0 -61 21t-28 65q-21 -29 -47 -48t-58 -28.5t-68 -9.5zM246 47q37 0 69 14.5t52 40.5t20 57v78q-88 -1 -140.5 -11.5t-77 -32.5t-24.5 -59q0 -45 27.5 -66
t73.5 -21zM267 592q-61 0 -89 30t-28 78q0 29 13 53t39.5 38.5t66.5 14.5q58 0 86.5 -29t28.5 -76q0 -32 -13.5 -56.5t-39.5 -38.5t-64 -14zM268 641q23 0 35 6.5t17 20.5t5 32t-6 31t-18.5 20.5t-34.5 7.5q-21 0 -33.5 -7.5t-18 -21t-5.5 -31.5q0 -16 5.5 -30t18 -21
t35.5 -7zM200 821l-22 30l128 116q14 11 22.5 15.5t17.5 4.5q15 0 24.5 -14t9.5 -29q0 -16 -9.5 -27.5t-27.5 -21.5z" />
    <glyph glyph-name="AEacute" unicode="&#x1fc;" horiz-adv-x="1003" 
d="M14 0v43l43 5q8 1 14.5 3.5t13.5 12t17 28.5l276 561l-88 5v42h594l37 -163l-43 -13q-17 45 -31 70.5t-32 37t-42.5 14t-62.5 2.5h-131v-284h121q24 0 39 2.5t24 10.5t16 25t14 45l39 4v-220l-39 -6q-7 41 -18 59.5t-30 23.5t-54 5h-112v-260h167q38 0 63 5.5t41.5 20
t27.5 39.5t21 64h43l-22 -182h-516v42l69 4q18 1 25 11t7 40v216h-233l-102 -215q-6 -13 -8.5 -22.5t0 -16t10.5 -10t23 -4.5l50 -3v-42h-231zM297 364h208v284h-73zM565 751l-22 30l128 116q14 11 22.5 15.5t17.5 4.5q15 0 24.5 -14t9.5 -29q0 -16 -9.5 -27.5t-27.5 -21.5z
" />
    <glyph glyph-name="aeacute" unicode="&#x1fd;" horiz-adv-x="872" 
d="M220 -14q-49 0 -83 18t-51 49.5t-17 68.5q0 66 36 102t142 54q25 5 59.5 8.5t80.5 4.5v77q0 34 -12 58.5t-40.5 38.5t-76.5 14q-29 0 -58 -7.5t-44 -22.5q11 -16 17 -27t9 -19t3 -14q0 -21 -17.5 -32.5t-37.5 -11.5q-23 0 -39.5 13t-16.5 45q0 35 28 64t72.5 46.5
t94.5 17.5q74 0 114 -25.5t59 -69.5q30 46 75 70.5t104 24.5q63 0 105.5 -23t63.5 -63.5t21 -95.5v-47.5t-3 -50.5h-350q1 -67 22 -112t61 -66.5t100 -21.5q35 0 74 12t75 44l30 -33q-40 -47 -92 -67.5t-102 -20.5q-71 0 -123 27t-83 83q-20 -35 -47.5 -59.5t-65 -37.5
t-87.5 -13zM246 47q42 0 73.5 16.5t49.5 42.5t18 52v79q-40 -1 -72.5 -2.5t-59.5 -7.5q-55 -11 -82.5 -31t-27.5 -62t26 -64.5t75 -22.5zM458 306h280q2 13 2.5 24t0.5 25q0 52 -31 85t-93 33q-40 0 -73.5 -15.5t-55.5 -52t-30 -99.5zM396 593l-26 27l105 129q11 13 20 19
t18 6q11 0 19.5 -6t13 -15t4.5 -19q0 -13 -7.5 -25t-26.5 -26z" />
    <glyph glyph-name="Oslashacute" unicode="&#x1fe;" 
d="M78 -14l81 100q-43 46 -65 110t-22 143q0 117 39.5 201t116 129t186.5 45q63 0 115.5 -16t93.5 -47l51 63h77l-84 -103q39 -45 60.5 -107t21.5 -139q0 -86 -24 -156t-69.5 -119.5t-109 -76.5t-140.5 -27q-61 0 -112 15.5t-90 44.5l-49 -60h-77zM415 46q61 0 108 20.5
t79 59.5t49 95.5t17 130.5q0 63 -13 113t-36 87l-370 -451q22 -17 47.5 -30t55.5 -19t63 -6zM208 145l370 452q-22 20 -49 32t-58.5 18.5t-67.5 6.5q-60 0 -106.5 -20t-78 -58.5t-48 -94.5t-16.5 -128q0 -64 14.5 -116.5t39.5 -91.5zM355 751l-22 30l128 116
q14 11 22.5 15.5t17.5 4.5q15 0 24.5 -14t9.5 -29q0 -16 -9.5 -27.5t-27.5 -21.5z" />
    <glyph glyph-name="oslashacute" unicode="&#x1ff;" horiz-adv-x="622" 
d="M55 -14l66 76q-28 34 -42.5 81.5t-14.5 106.5q0 87 30.5 150t87 97t135.5 34q52 0 94 -14.5t73 -42.5l40 45h70l-75 -85q21 -32 32 -74t11 -92q0 -89 -29 -152.5t-87 -96.5t-143 -33q-44 0 -79.5 10.5t-63.5 30.5l-35 -41h-70zM317 41q54 0 92.5 23.5t59 69t20.5 113.5
q0 40 -6 71.5t-17 56.5l-262 -299q14 -11 32 -19t38 -12t43 -4zM169 116l268 305q-16 18 -36 30t-44 17.5t-52 5.5q-52 0 -89.5 -23.5t-57.5 -70.5t-20 -118q0 -46 8.5 -82t22.5 -64zM276 593l-26 27l105 129q11 13 20 19t18 6q11 0 19.5 -6t13 -15t4.5 -19q0 -13 -7.5 -25
t-26.5 -26z" />
    <glyph glyph-name="uni0200" unicode="&#x200;" horiz-adv-x="763" 
d="M14 0v43l54 5q17 2 26.5 9.5t22.5 41.5l232 601h78l228 -604q8 -23 17 -35t31 -14l47 -4v-43h-260v43l62 4q16 1 24 9.5t-4 40.5l-48 132h-294l-49 -130q-8 -22 -4 -37t29 -17l60 -3v-42h-252zM248 284h257l-124 340h-7zM479 751l-130 84q-17 12 -27 22.5t-10 26.5
q0 15 7.5 24t21.5 9q9 0 17 -5t20 -17l123 -112zM295 751l-135 75q-17 10 -27 21.5t-10 27.5q0 15 9 25.5t23 10.5q9 0 16.5 -6t20.5 -17l126 -105z" />
    <glyph glyph-name="uni0201" unicode="&#x201;" horiz-adv-x="586" 
d="M220 -14q-67 0 -109 36.5t-42 99.5q0 58 29 93.5t98.5 53.5t190.5 22v77q0 36 -12.5 60.5t-41.5 37.5t-75 13q-32 0 -60 -8t-42 -22q11 -16 17 -27.5t9 -19t3 -13.5q0 -20 -17 -32t-38 -12q-26 0 -41 14t-15 44q0 36 28 65t73 46t94 17q66 0 108 -20t61.5 -58.5
t19.5 -95.5v-257q0 -27 13.5 -40.5t38.5 -13.5q16 0 30.5 3.5t27.5 9.5l13 -38q-16 -15 -42.5 -25t-56.5 -10q-39 0 -61 21t-28 65q-21 -29 -47 -48t-58 -28.5t-68 -9.5zM246 47q37 0 69 14.5t52 40.5t20 57v78q-88 -1 -140.5 -11.5t-77 -32.5t-24.5 -59q0 -45 27.5 -66
t73.5 -21zM197 592l-114 87q-18 14 -26 27.5t-8 25.5q0 9 4 18t11.5 15t17.5 6q9 0 16.5 -6t18.5 -20l106 -126zM354 592l-106 92q-17 16 -24 28t-7 23q0 10 4.5 19.5t11.5 15t16 5.5q10 0 17.5 -5.5t17.5 -19.5l96 -131z" />
    <glyph glyph-name="uni0202" unicode="&#x202;" horiz-adv-x="763" 
d="M14 0v43l54 5q17 2 26.5 9.5t22.5 41.5l232 601h78l228 -604q8 -23 17 -35t31 -14l47 -4v-43h-260v43l62 4q16 1 24 9.5t-4 40.5l-48 132h-294l-49 -130q-8 -22 -4 -37t29 -17l60 -3v-42h-252zM248 284h257l-124 340h-7zM390 909q51 0 82.5 -21t48 -56t20.5 -79l-43 -8
q-14 50 -38 74t-73 24t-74.5 -27t-36.5 -71l-42 8q4 40 21 75.5t50.5 58t84.5 22.5z" />
    <glyph glyph-name="uni0203" unicode="&#x203;" horiz-adv-x="586" 
d="M220 -14q-67 0 -109 36.5t-42 99.5q0 58 29 93.5t98.5 53.5t190.5 22v77q0 36 -12.5 60.5t-41.5 37.5t-75 13q-32 0 -60 -8t-42 -22q11 -16 17 -27.5t9 -19t3 -13.5q0 -20 -17 -32t-38 -12q-26 0 -41 14t-15 44q0 36 28 65t73 46t94 17q66 0 108 -20t61.5 -58.5
t19.5 -95.5v-257q0 -27 13.5 -40.5t38.5 -13.5q16 0 30.5 3.5t27.5 9.5l13 -38q-16 -15 -42.5 -25t-56.5 -10q-39 0 -61 21t-28 65q-21 -29 -47 -48t-58 -28.5t-68 -9.5zM246 47q37 0 69 14.5t52 40.5t20 57v78q-88 -1 -140.5 -11.5t-77 -32.5t-24.5 -59q0 -45 27.5 -66
t73.5 -21zM271 765q49 0 79 -22t47 -58.5t21 -80.5l-43 -8q-7 36 -20.5 60t-34.5 36t-52 12q-49 0 -74 -30.5t-33 -77.5l-42 7q4 41 20.5 78t49 60.5t82.5 23.5z" />
    <glyph glyph-name="uni0204" unicode="&#x204;" horiz-adv-x="671" 
d="M72 0v42l69 4q18 1 25.5 11t7.5 40v509q0 24 -6 35t-30 12l-66 4v43h480l37 -163l-43 -13q-17 45 -31 70.5t-32 37t-42.5 14t-62.5 2.5h-131v-267h121q34 0 51 5t25 22.5t17 54.5l39 5v-218l-39 -6q-7 41 -17 59.5t-29 23.5t-56 5h-112v-279h167q38 0 63 5.5t41.5 20
t27.5 39.5t21 64h43l-22 -182h-516zM434 751l-130 84q-17 12 -27 22.5t-10 26.5q0 15 7.5 24t21.5 9q9 0 17 -5t20 -17l123 -112zM250 751l-135 75q-17 10 -27 21.5t-10 27.5q0 15 9 25.5t23 10.5q9 0 16.5 -6t20.5 -17l126 -105z" />
    <glyph glyph-name="uni0205" unicode="&#x205;" horiz-adv-x="552" 
d="M306 -14q-74 0 -128.5 32t-84 91.5t-29.5 141.5q0 86 29 148.5t81.5 97t127.5 34.5q61 0 103 -22.5t64.5 -63t22.5 -96.5q0 -26 -0.5 -49t-3.5 -49h-351q2 -71 25 -115t64.5 -64.5t95.5 -20.5q41 0 79 14.5t69 41.5l30 -33q-37 -42 -87.5 -65t-106.5 -23zM138 306h281
q2 13 2 24v25q0 53 -31 85.5t-92 32.5q-45 0 -79.5 -19t-54.5 -56t-26 -92zM226 592l-114 87q-18 14 -26 27.5t-8 25.5q0 9 4 18t11.5 15t17.5 6q9 0 16.5 -6t18.5 -20l106 -126zM383 592l-106 92q-17 16 -24 28t-7 23q0 10 4.5 19.5t11.5 15t16 5.5q10 0 17.5 -5.5
t17.5 -19.5l96 -131z" />
    <glyph glyph-name="uni0206" unicode="&#x206;" horiz-adv-x="671" 
d="M72 0v42l69 4q18 1 25.5 11t7.5 40v509q0 24 -6 35t-30 12l-66 4v43h480l37 -163l-43 -13q-17 45 -31 70.5t-32 37t-42.5 14t-62.5 2.5h-131v-267h121q34 0 51 5t25 22.5t17 54.5l39 5v-218l-39 -6q-7 41 -17 59.5t-29 23.5t-56 5h-112v-279h167q38 0 63 5.5t41.5 20
t27.5 39.5t21 64h43l-22 -182h-516zM345 909q51 0 82.5 -21t48 -56t20.5 -79l-43 -8q-14 50 -38 74t-73 24t-74.5 -27t-36.5 -71l-42 8q4 40 21 75.5t50.5 58t84.5 22.5z" />
    <glyph glyph-name="uni0207" unicode="&#x207;" horiz-adv-x="552" 
d="M306 -14q-74 0 -128.5 32t-84 91.5t-29.5 141.5q0 86 29 148.5t81.5 97t127.5 34.5q61 0 103 -22.5t64.5 -63t22.5 -96.5q0 -26 -0.5 -49t-3.5 -49h-351q2 -71 25 -115t64.5 -64.5t95.5 -20.5q41 0 79 14.5t69 41.5l30 -33q-37 -42 -87.5 -65t-106.5 -23zM138 306h281
q2 13 2 24v25q0 53 -31 85.5t-92 32.5q-45 0 -79.5 -19t-54.5 -56t-26 -92zM300 765q49 0 79 -22t47 -58.5t21 -80.5l-43 -8q-7 36 -20.5 60t-34.5 36t-52 12q-49 0 -74 -30.5t-33 -77.5l-42 7q4 41 20.5 78t49 60.5t82.5 23.5z" />
    <glyph glyph-name="uni0208" unicode="&#x208;" horiz-adv-x="416" 
d="M72 0v42l67 4q17 1 25 10.5t8 40.5v509q0 21 -5.5 33.5t-30.5 13.5l-64 4v43h272v-43l-67 -4q-19 -1 -25.5 -12t-6.5 -39v-509q0 -22 6 -33.5t28 -13.5l65 -4v-42h-272zM301 747l-130 84q-17 12 -27 22.5t-10 26.5q0 15 7.5 24t21.5 9q9 0 17 -5t20 -17l123 -112z
M117 747l-135 75q-17 10 -27 21.5t-10 27.5q0 15 9 25.5t23 10.5q9 0 16.5 -6t20.5 -17l126 -105z" />
    <glyph glyph-name="uni0209" unicode="&#x209;" horiz-adv-x="355" 
d="M58 0v41l62 4q19 2 25.5 12.5t6.5 37.5v312q0 36 -7.5 47.5t-30.5 12.5l-62 4l6 43l152 12l13 -8v-427q0 -18 4 -31t27 -15l63 -3v-42h-259zM81 592l-114 87q-18 14 -26 27.5t-8 25.5q0 9 4 18t11.5 15t17.5 6q9 0 16.5 -6t18.5 -20l106 -126zM238 592l-106 92
q-17 16 -24 28t-7 23q0 10 4.5 19.5t11.5 15t16 5.5q10 0 17.5 -5.5t17.5 -19.5l96 -131z" />
    <glyph glyph-name="uni020A" unicode="&#x20a;" horiz-adv-x="416" 
d="M72 0v42l67 4q17 1 25 10.5t8 40.5v509q0 21 -5.5 33.5t-30.5 13.5l-64 4v43h272v-43l-67 -4q-19 -1 -25.5 -12t-6.5 -39v-509q0 -22 6 -33.5t28 -13.5l65 -4v-42h-272zM212 905q51 0 82.5 -21t48 -56t20.5 -79l-43 -8q-14 50 -38 74t-73 24t-74.5 -27t-36.5 -71l-42 8
q4 40 21 75.5t50.5 58t84.5 22.5z" />
    <glyph glyph-name="uni020B" unicode="&#x20b;" horiz-adv-x="355" 
d="M58 0v41l62 4q19 2 25.5 12.5t6.5 37.5v312q0 36 -7.5 47.5t-30.5 12.5l-62 4l6 43l152 12l13 -8v-427q0 -18 4 -31t27 -15l63 -3v-42h-259zM155 765q49 0 79 -22t47 -58.5t21 -80.5l-43 -8q-7 36 -20.5 60t-34.5 36t-52 12q-49 0 -74 -30.5t-33 -77.5l-42 7
q4 41 20.5 78t49 60.5t82.5 23.5z" />
    <glyph glyph-name="uni020C" unicode="&#x20c;" 
d="M406 -14q-104 0 -179 44t-115 123t-40 186q0 117 39.5 201t116 129t186.5 45q104 0 179.5 -42.5t115.5 -121t40 -185.5q0 -86 -24.5 -156t-69.5 -119.5t-108.5 -76.5t-140.5 -27zM415 46q61 0 108 20t79 59.5t49 96t17 130.5q0 73 -17.5 129.5t-51.5 95t-83.5 58
t-112.5 19.5q-60 0 -106.5 -20t-78 -58.5t-48 -95t-16.5 -127.5q0 -74 18 -131t51.5 -96t82 -59.5t109.5 -20.5zM501 751l-130 84q-17 12 -27 22.5t-10 26.5q0 15 7.5 24t21.5 9q9 0 17 -5t20 -17l123 -112zM317 751l-135 75q-17 10 -27 21.5t-10 27.5q0 15 9 25.5t23 10.5
q9 0 16.5 -6t20.5 -17l126 -105z" />
    <glyph glyph-name="uni020D" unicode="&#x20d;" horiz-adv-x="622" 
d="M303 -14q-77 0 -130.5 32t-81 91t-27.5 141q0 87 30.5 150t87 97t135.5 34q77 0 131.5 -31.5t84 -90.5t29.5 -141q0 -89 -29 -152.5t-87 -96.5t-143 -33zM317 41q54 0 92.5 23.5t59 69t20.5 113.5q0 57 -12.5 100t-36.5 71t-58 42t-77 14q-52 0 -89.5 -23.5t-57.5 -70.5
t-20 -118q0 -72 22 -121.5t61.5 -74.5t95.5 -25zM240 592l-114 87q-18 14 -26 27.5t-8 25.5q0 9 4 18t11.5 15t17.5 6q9 0 16.5 -6t18.5 -20l106 -126zM397 592l-106 92q-17 16 -24 28t-7 23q0 10 4.5 19.5t11.5 15t16 5.5q10 0 17.5 -5.5t17.5 -19.5l96 -131z" />
    <glyph glyph-name="uni020E" unicode="&#x20e;" 
d="M406 -14q-104 0 -179 44t-115 123t-40 186q0 117 39.5 201t116 129t186.5 45q104 0 179.5 -42.5t115.5 -121t40 -185.5q0 -86 -24.5 -156t-69.5 -119.5t-108.5 -76.5t-140.5 -27zM415 46q61 0 108 20t79 59.5t49 96t17 130.5q0 73 -17.5 129.5t-51.5 95t-83.5 58
t-112.5 19.5q-60 0 -106.5 -20t-78 -58.5t-48 -95t-16.5 -127.5q0 -74 18 -131t51.5 -96t82 -59.5t109.5 -20.5zM412 909q51 0 82.5 -21t48 -56t20.5 -79l-43 -8q-14 50 -38 74t-73 24t-74.5 -27t-36.5 -71l-42 8q4 40 21 75.5t50.5 58t84.5 22.5z" />
    <glyph glyph-name="uni020F" unicode="&#x20f;" horiz-adv-x="622" 
d="M303 -14q-77 0 -130.5 32t-81 91t-27.5 141q0 87 30.5 150t87 97t135.5 34q77 0 131.5 -31.5t84 -90.5t29.5 -141q0 -89 -29 -152.5t-87 -96.5t-143 -33zM317 41q54 0 92.5 23.5t59 69t20.5 113.5q0 57 -12.5 100t-36.5 71t-58 42t-77 14q-52 0 -89.5 -23.5t-57.5 -70.5
t-20 -118q0 -72 22 -121.5t61.5 -74.5t95.5 -25zM314 765q49 0 79 -22t47 -58.5t21 -80.5l-43 -8q-7 36 -20.5 60t-34.5 36t-52 12q-49 0 -74 -30.5t-33 -77.5l-42 7q4 41 20.5 78t49 60.5t82.5 23.5z" />
    <glyph glyph-name="uni0210" unicode="&#x210;" horiz-adv-x="725" 
d="M644 -14q-32 0 -58 10.5t-46 34.5t-37 65l-57 133q-14 35 -30 54t-40.5 27t-63.5 8q-20 0 -35.5 -1t-29.5 -3v-219q0 -27 7.5 -36.5t32.5 -11.5l75 -5v-42h-290v42l69 4q16 1 25 10t9 41v509q0 22 -6 34t-31 13l-66 4v43h256q70 0 121.5 -10t86 -32t51.5 -56.5t17 -82.5
q0 -25 -6.5 -49t-20 -45.5t-34 -39t-50 -30t-67.5 -17.5v-3q39 -12 62 -31.5t40 -58.5l36 -83q20 -46 35 -72t32 -36.5t42 -10.5q16 0 28.5 3t26.5 8l11 -32q-18 -17 -42.5 -26.5t-52.5 -9.5zM324 366q57 0 101.5 16.5t70.5 50t26 83.5q0 55 -27 84t-73.5 39t-106.5 10h-68
v-281q24 -1 45 -1.5t32 -0.5zM430 751l-130 84q-17 12 -27 22.5t-10 26.5q0 15 7.5 24t21.5 9q9 0 17 -5t20 -17l123 -112zM246 751l-135 75q-17 10 -27 21.5t-10 27.5q0 15 9 25.5t23 10.5q9 0 16.5 -6t20.5 -17l126 -105z" />
    <glyph glyph-name="uni0211" unicode="&#x211;" horiz-adv-x="506" 
d="M62 0v42l54 3q18 2 24.5 12t6.5 35v317q0 33 -7 44.5t-30 12.5l-58 4l6 42l134 12l13 -7l4 -88h5q31 49 70 75.5t86 26.5t73 -23t26 -63q0 -22 -6 -38t-19 -24t-33 -8q-23 0 -35.5 10.5t-12.5 28.5q0 7 2 14.5t6.5 18t12.5 25.5q-28 12 -57 3.5t-54 -31.5t-40 -54.5
t-15 -65.5v-234q0 -21 5 -33t24 -13l86 -3v-41h-271zM206 592l-114 87q-18 14 -26 27.5t-8 25.5q0 9 4 18t11.5 15t17.5 6q9 0 16.5 -6t18.5 -20l106 -126zM363 592l-106 92q-17 16 -24 28t-7 23q0 10 4.5 19.5t11.5 15t16 5.5q10 0 17.5 -5.5t17.5 -19.5l96 -131z" />
    <glyph glyph-name="uni0212" unicode="&#x212;" horiz-adv-x="725" 
d="M644 -14q-32 0 -58 10.5t-46 34.5t-37 65l-57 133q-14 35 -30 54t-40.5 27t-63.5 8q-20 0 -35.5 -1t-29.5 -3v-219q0 -27 7.5 -36.5t32.5 -11.5l75 -5v-42h-290v42l69 4q16 1 25 10t9 41v509q0 22 -6 34t-31 13l-66 4v43h256q70 0 121.5 -10t86 -32t51.5 -56.5t17 -82.5
q0 -25 -6.5 -49t-20 -45.5t-34 -39t-50 -30t-67.5 -17.5v-3q39 -12 62 -31.5t40 -58.5l36 -83q20 -46 35 -72t32 -36.5t42 -10.5q16 0 28.5 3t26.5 8l11 -32q-18 -17 -42.5 -26.5t-52.5 -9.5zM324 366q57 0 101.5 16.5t70.5 50t26 83.5q0 55 -27 84t-73.5 39t-106.5 10h-68
v-281q24 -1 45 -1.5t32 -0.5zM341 909q51 0 82.5 -21t48 -56t20.5 -79l-43 -8q-14 50 -38 74t-73 24t-74.5 -27t-36.5 -71l-42 8q4 40 21 75.5t50.5 58t84.5 22.5z" />
    <glyph glyph-name="uni0213" unicode="&#x213;" horiz-adv-x="506" 
d="M62 0v42l54 3q18 2 24.5 12t6.5 35v317q0 33 -7 44.5t-30 12.5l-58 4l6 42l134 12l13 -7l4 -88h5q31 49 70 75.5t86 26.5t73 -23t26 -63q0 -22 -6 -38t-19 -24t-33 -8q-23 0 -35.5 10.5t-12.5 28.5q0 7 2 14.5t6.5 18t12.5 25.5q-28 12 -57 3.5t-54 -31.5t-40 -54.5
t-15 -65.5v-234q0 -21 5 -33t24 -13l86 -3v-41h-271zM280 765q49 0 79 -22t47 -58.5t21 -80.5l-43 -8q-7 36 -20.5 60t-34.5 36t-52 12q-49 0 -74 -30.5t-33 -77.5l-42 7q4 41 20.5 78t49 60.5t82.5 23.5z" />
    <glyph glyph-name="uni0214" unicode="&#x214;" horiz-adv-x="887" 
d="M438 -14q-73 0 -125.5 17.5t-86.5 52.5t-51 88t-17 123v339q0 26 -7 36t-29 11l-61 4v43h271v-43l-65 -4q-15 0 -23.5 -10t-8.5 -41v-331q0 -72 19 -122t66 -77t130 -27q72 0 120.5 26t73 78.5t24.5 132.5v324q0 26 -7 36t-29 11l-61 4v43h256v-43l-64 -4q-16 -1 -24 -11
t-8 -40v-302q0 -101 -30.5 -171.5t-95 -106.5t-167.5 -36zM540 751l-130 84q-17 12 -27 22.5t-10 26.5q0 15 7.5 24t21.5 9q9 0 17 -5t20 -17l123 -112zM356 751l-135 75q-17 10 -27 21.5t-10 27.5q0 15 9 25.5t23 10.5q9 0 16.5 -6t20.5 -17l126 -105z" />
    <glyph glyph-name="uni0215" unicode="&#x215;" horiz-adv-x="692" 
d="M306 -14q-82 0 -126.5 42.5t-44.5 126.5v249q0 32 -6 46t-31 16l-49 3l7 43l137 12l13 -7v-342q0 -40 9.5 -70t34.5 -46t71 -16q50 0 87.5 21.5t58 57.5t20.5 80v202q0 29 -5 44.5t-32 17.5l-51 3l6 43l140 12l13 -7v-426q0 -25 7 -35.5t27 -11.5l55 -2v-43l-147 -6
l-11 84h-2q-27 -33 -56.5 -53t-60.5 -29t-64 -9zM263 592l-114 87q-18 14 -26 27.5t-8 25.5q0 9 4 18t11.5 15t17.5 6q9 0 16.5 -6t18.5 -20l106 -126zM420 592l-106 92q-17 16 -24 28t-7 23q0 10 4.5 19.5t11.5 15t16 5.5q10 0 17.5 -5.5t17.5 -19.5l96 -131z" />
    <glyph glyph-name="uni0216" unicode="&#x216;" horiz-adv-x="887" 
d="M438 -14q-73 0 -125.5 17.5t-86.5 52.5t-51 88t-17 123v339q0 26 -7 36t-29 11l-61 4v43h271v-43l-65 -4q-15 0 -23.5 -10t-8.5 -41v-331q0 -72 19 -122t66 -77t130 -27q72 0 120.5 26t73 78.5t24.5 132.5v324q0 26 -7 36t-29 11l-61 4v43h256v-43l-64 -4q-16 -1 -24 -11
t-8 -40v-302q0 -101 -30.5 -171.5t-95 -106.5t-167.5 -36zM451 909q51 0 82.5 -21t48 -56t20.5 -79l-43 -8q-14 50 -38 74t-73 24t-74.5 -27t-36.5 -71l-42 8q4 40 21 75.5t50.5 58t84.5 22.5z" />
    <glyph glyph-name="uni0217" unicode="&#x217;" horiz-adv-x="692" 
d="M306 -14q-82 0 -126.5 42.5t-44.5 126.5v249q0 32 -6 46t-31 16l-49 3l7 43l137 12l13 -7v-342q0 -40 9.5 -70t34.5 -46t71 -16q50 0 87.5 21.5t58 57.5t20.5 80v202q0 29 -5 44.5t-32 17.5l-51 3l6 43l140 12l13 -7v-426q0 -25 7 -35.5t27 -11.5l55 -2v-43l-147 -6
l-11 84h-2q-27 -33 -56.5 -53t-60.5 -29t-64 -9zM337 765q49 0 79 -22t47 -58.5t21 -80.5l-43 -8q-7 36 -20.5 60t-34.5 36t-52 12q-49 0 -74 -30.5t-33 -77.5l-42 7q4 41 20.5 78t49 60.5t82.5 23.5z" />
    <glyph glyph-name="uni0218" unicode="&#x218;" horiz-adv-x="625" 
d="M335 -14q-58 0 -111 20.5t-86 53.5l-15 -66h-35l-25 227l39 4q17 -52 41.5 -87t54.5 -55t64.5 -28t70.5 -8q42 0 77.5 11.5t56 39.5t20.5 75q0 35 -14.5 61.5t-51.5 49.5t-109 44q-64 19 -106.5 39.5t-67 45t-35 53.5t-10.5 67q0 34 11.5 62.5t31.5 50.5t47.5 37.5
t59.5 23t68 7.5q44 0 84.5 -14.5t74.5 -41.5l16 56h36l19 -194l-40 -9q-18 55 -45.5 87t-63.5 45t-81 13q-63 0 -102 -26t-39 -80q0 -34 15 -60t52 -48t107 -43q66 -20 108.5 -42.5t67.5 -48t34.5 -55t9.5 -64.5q0 -45 -16 -82t-46.5 -64t-72.5 -42t-94 -15zM297 -270
l-24 27q16 16 26 31t15 30t5 27h-11q-22 0 -33 12.5t-11 33.5q0 15 6 27t18.5 18.5t30.5 6.5q21 0 35 -10.5t20 -26.5t6 -33q0 -24 -11 -50.5t-29.5 -50.5t-42.5 -42z" />
    <glyph glyph-name="uni0219" unicode="&#x219;" horiz-adv-x="492" 
d="M61 -14l-10 168l45 3q13 -39 35.5 -64.5t53 -38.5t69.5 -13q54 0 83 25.5t29 64.5q0 28 -11.5 46.5t-40.5 32t-85 25.5q-39 9 -69 20.5t-50.5 29t-31.5 41.5t-11 57q0 44 22.5 78t61 52t87.5 18q35 0 68.5 -10.5t55.5 -28.5l8 39h42l8 -155l-49 4q-10 45 -45.5 72.5
t-86.5 27.5q-49 0 -75 -21t-26 -60q0 -33 15 -51.5t43 -29t68 -20.5q43 -10 76 -23.5t54.5 -30.5t32.5 -41.5t11 -57.5q0 -45 -23 -81t-64.5 -57t-95.5 -21q-43 0 -78.5 12t-62.5 31l-11 -43h-42zM219 -270l-24 27q16 16 26 31t15 30t5 27h-11q-22 0 -33 12.5t-11 33.5
q0 15 6 27t18.5 18.5t30.5 6.5q21 0 35 -10.5t20 -26.5t6 -33q0 -24 -11 -50.5t-29.5 -50.5t-42.5 -42z" />
    <glyph glyph-name="uni021A" unicode="&#x21a;" horiz-adv-x="738" 
d="M208 0v42l89 7q18 2 27 12t9 37v550h-85q-34 0 -56.5 -3t-39 -17t-31.5 -45.5t-35 -88.5l-40 9l39 197h569l39 -197l-41 -9q-19 57 -34.5 88.5t-32.5 45.5t-39 17t-55 3h-85v-554q0 -24 7 -33t29 -12l88 -7v-42h-322zM345 -270l-24 27q16 16 26 31t15 30t5 27h-11
q-22 0 -33 12.5t-11 33.5q0 15 6 27t18.5 18.5t30.5 6.5q21 0 35 -10.5t20 -26.5t6 -33q0 -24 -11 -50.5t-29.5 -50.5t-42.5 -42z" />
    <glyph glyph-name="uni021B" unicode="&#x21b;" horiz-adv-x="431" 
d="M265 -14q-51 0 -80.5 19t-41.5 52.5t-12 77.5v330h-88v42q40 2 63.5 15t35.5 44.5t17 90.5l32 5l11 -6v-139h173v-52h-173v-330q0 -50 21 -70t60 -20q28 0 51.5 10.5t48.5 29.5l27 -37q-35 -33 -71 -47.5t-74 -14.5zM246 -270l-24 27q16 16 26 31t15 30t5 27h-11
q-22 0 -33 12.5t-11 33.5q0 15 6 27t18.5 18.5t30.5 6.5q21 0 35 -10.5t20 -26.5t6 -33q0 -24 -11 -50.5t-29.5 -50.5t-42.5 -42z" />
    <glyph glyph-name="uni022A" unicode="&#x22a;" 
d="M406 -14q-104 0 -179 44t-115 123t-40 186q0 117 39.5 201t116 129t186.5 45q104 0 179.5 -42.5t115.5 -121t40 -185.5q0 -86 -24.5 -156t-69.5 -119.5t-108.5 -76.5t-140.5 -27zM415 46q61 0 108 20t79 59.5t49 96t17 130.5q0 73 -17.5 129.5t-51.5 95t-83.5 58
t-112.5 19.5q-60 0 -106.5 -20t-78 -58.5t-48 -95t-16.5 -127.5q0 -74 18 -131t51.5 -96t82 -59.5t109.5 -20.5zM504 773q-25 0 -39 15t-14 39t14.5 40t39.5 16t39 -14.5t14 -38.5t-14 -40.5t-40 -16.5zM312 773q-25 0 -39 15t-14 39t14.5 40t39.5 16t39.5 -14.5t14.5 -38.5
t-14.5 -40.5t-40.5 -16.5zM274 958v66h278v-66h-278z" />
    <glyph glyph-name="uni022B" unicode="&#x22b;" horiz-adv-x="622" 
d="M303 -14q-77 0 -130.5 32t-81 91t-27.5 141q0 87 30.5 150t87 97t135.5 34q77 0 131.5 -31.5t84 -90.5t29.5 -141q0 -89 -29 -152.5t-87 -96.5t-143 -33zM317 41q54 0 92.5 23.5t59 69t20.5 113.5q0 57 -12.5 100t-36.5 71t-58 42t-77 14q-52 0 -89.5 -23.5t-57.5 -70.5
t-20 -118q0 -72 22 -121.5t61.5 -74.5t95.5 -25zM407 627q-25 0 -39 15t-14 38q0 24 14 40t39 16t39 -14.5t14 -38.5q0 -23 -14 -39.5t-39 -16.5zM211 627q-25 0 -39 15t-14 38q0 24 14.5 40t38.5 16q26 0 40 -14.5t14 -38.5q0 -23 -14.5 -39.5t-39.5 -16.5zM174 798v66h278
v-66h-278z" />
    <glyph glyph-name="uni022C" unicode="&#x22c;" 
d="M406 -14q-104 0 -179 44t-115 123t-40 186q0 117 39.5 201t116 129t186.5 45q104 0 179.5 -42.5t115.5 -121t40 -185.5q0 -86 -24.5 -156t-69.5 -119.5t-108.5 -76.5t-140.5 -27zM415 46q61 0 108 20t79 59.5t49 96t17 130.5q0 73 -17.5 129.5t-51.5 95t-83.5 58
t-112.5 19.5q-60 0 -106.5 -20t-78 -58.5t-48 -95t-16.5 -127.5q0 -74 18 -131t51.5 -96t82 -59.5t109.5 -20.5zM485 779q-17 0 -35 5t-43 18q-21 12 -36 17.5t-23.5 7.5t-15.5 2q-11 0 -19.5 -9t-23.5 -33l-36 21q15 32 29 48.5t28 23t30 6.5q20 0 38.5 -5.5t47.5 -19.5
t44 -18.5t21 -4.5q10 0 18 8.5t21 33.5l36 -20q-15 -34 -28.5 -51t-26.5 -23.5t-26 -6.5zM270 966v66h278v-66h-278z" />
    <glyph glyph-name="uni022D" unicode="&#x22d;" horiz-adv-x="622" 
d="M303 -14q-77 0 -130.5 32t-81 91t-27.5 141q0 87 30.5 150t87 97t135.5 34q77 0 131.5 -31.5t84 -90.5t29.5 -141q0 -89 -29 -152.5t-87 -96.5t-143 -33zM317 41q54 0 92.5 23.5t59 69t20.5 113.5q0 57 -12.5 100t-36.5 71t-58 42t-77 14q-52 0 -89.5 -23.5t-57.5 -70.5
t-20 -118q0 -72 22 -121.5t61.5 -74.5t95.5 -25zM176 808v66h278v-66h-278zM388 613q-17 0 -35.5 5t-43.5 18q-20 11 -35 16.5t-25 7.5t-17 2q-11 0 -19.5 -9t-23.5 -32l-36 21q15 33 29 49.5t28.5 22.5t29.5 6q19 0 38 -5.5t50 -19.5q31 -15 45.5 -19.5t20.5 -4.5
q9 0 17 8.5t22 33.5l36 -20q-16 -33 -29.5 -50t-26 -23.5t-25.5 -6.5z" />
    <glyph glyph-name="uni0230" unicode="&#x230;" 
d="M406 -14q-104 0 -179 44t-115 123t-40 186q0 117 39.5 201t116 129t186.5 45q104 0 179.5 -42.5t115.5 -121t40 -185.5q0 -86 -24.5 -156t-69.5 -119.5t-108.5 -76.5t-140.5 -27zM415 46q61 0 108 20t79 59.5t49 96t17 130.5q0 73 -17.5 129.5t-51.5 95t-83.5 58
t-112.5 19.5q-60 0 -106.5 -20t-78 -58.5t-48 -95t-16.5 -127.5q0 -74 18 -131t51.5 -96t82 -59.5t109.5 -20.5zM408 770q-26 0 -41 16t-15 40q0 25 15.5 41.5t41.5 16.5t41.5 -15t15.5 -40q0 -24 -15.5 -41.5t-42.5 -17.5zM270 958v66h278v-66h-278z" />
    <glyph glyph-name="uni0231" unicode="&#x231;" horiz-adv-x="622" 
d="M303 -14q-77 0 -130.5 32t-81 91t-27.5 141q0 87 30.5 150t87 97t135.5 34q77 0 131.5 -31.5t84 -90.5t29.5 -141q0 -89 -29 -152.5t-87 -96.5t-143 -33zM317 41q54 0 92.5 23.5t59 69t20.5 113.5q0 57 -12.5 100t-36.5 71t-58 42t-77 14q-52 0 -89.5 -23.5t-57.5 -70.5
t-20 -118q0 -72 22 -121.5t61.5 -74.5t95.5 -25zM310 626q-26 0 -41 15.5t-15 39.5q0 25 15.5 41.5t41.5 16.5t41.5 -15t15.5 -40q0 -24 -15.5 -41t-42.5 -17zM171 798v66h278v-66h-278z" />
    <glyph glyph-name="uni0232" unicode="&#x232;" horiz-adv-x="712" 
d="M214 0v42l65 4q17 1 25 10t8 41v200l-199 306q-14 21 -27 33.5t-38 16.5l-42 6v41h271v-42l-57 -1q-25 0 -31 -14.5t9 -36.5l162 -251h3l157 248q12 18 11.5 33.5t-32.5 18.5l-47 2v43h254v-43l-64 -2q-17 1 -30.5 -14t-29.5 -42l-196 -307v-199q0 -25 7 -35t28 -12
l63 -4v-42h-270zM219 798v66h278v-66h-278z" />
    <glyph glyph-name="uni0233" unicode="&#x233;" horiz-adv-x="614" 
d="M123 -230q-45 0 -71.5 22t-26.5 56q0 25 17.5 41t41.5 16q22 0 36.5 -10t14.5 -25q1 -7 0.5 -14.5t-5.5 -34.5q22 -2 40 9t37.5 41.5t45.5 86.5l26 57l-181 406q-13 29 -20 39.5t-25 11.5l-43 2l9 43h231v-41l-51 -2q-17 -1 -24.5 -10t4.5 -39l139 -327h4l138 321
q10 23 5.5 37t-29.5 16l-43 3l6 42h211v-41l-40 -2q-17 -1 -26.5 -10.5t-24.5 -44.5l-218 -486q-20 -43 -38 -74t-38.5 -50.5t-45.5 -29t-56 -9.5zM182 640v58h278v-58h-278z" />
    <glyph glyph-name="uni0237" unicode="&#x237;" horiz-adv-x="308" 
d="M70 -229l-19 29q24 18 41 38t28.5 45t17 59.5t5.5 81.5v380q0 39 -8 50.5t-30 12.5l-62 4l6 43l152 12l13 -8v-424q0 -68 -5.5 -117.5t-20.5 -86.5t-43.5 -65t-74.5 -54z" />
    <glyph glyph-name="uni0251" unicode="&#x251;" horiz-adv-x="658" 
d="M287 -14q-69 0 -119 29t-76.5 87t-26.5 144q0 92 31.5 155.5t89 96.5t135.5 33q28 0 55 -5t52 -14t45 -22l35 36l24 -7v-428q0 -19 12.5 -32t39.5 -13q16 0 31 3.5t29 9.5l13 -38q-14 -13 -41.5 -24t-53.5 -11q-35 0 -55.5 12t-29.5 32.5t-12 45.5l-2 1q-43 -61 -89 -76
t-87 -15zM304 49q50 0 85.5 22t53.5 56.5t18 73.5v235q-26 16 -62 27.5t-84 11.5q-54 0 -93 -24t-60.5 -72t-21.5 -122q0 -71 20 -117.5t57 -68.5t87 -22z" />
    <glyph glyph-name="uni0259" unicode="&#x259;" horiz-adv-x="558" 
d="M259 -14q-62 0 -104 23t-63 64.5t-21 94.5q0 25 1 48t3 50h350q-1 73 -24.5 117t-64.5 64t-94 20q-33 0 -72.5 -12.5t-75.5 -43.5l-30 33q41 46 92.5 66.5t100.5 20.5q73 0 127 -30t84 -88.5t30 -144.5q0 -84 -28.5 -147.5t-81.5 -99t-129 -35.5zM263 44q40 0 75 16.5
t58 53t29 98.5h-280q-2 -13 -3 -24.5t-1 -25.5q0 -52 30 -85t92 -33z" />
    <glyph glyph-name="uni0261" unicode="&#x261;" horiz-adv-x="626" 
d="M304 -229q-52 0 -90 7.5t-62.5 20.5t-37 30.5t-12.5 36.5t7.5 32.5t20.5 21.5t29 8q26 0 37 -13t11 -34q-1 -10 -4 -17t-11 -25q20 -10 48.5 -14t52.5 -4q47 0 85 14.5t60.5 52t22.5 106.5v75l-2 1q-25 -36 -55 -54.5t-59.5 -24t-57.5 -5.5q-69 0 -119 29t-76.5 87
t-26.5 144q0 92 31.5 155.5t89 96.5t135.5 33q28 0 55 -5t52 -14t45 -22l35 36l24 -7v-505q0 -59 -13.5 -101t-37.5 -69.5t-53.5 -43.5t-61.5 -22.5t-62 -6.5zM304 49q50 0 85.5 22t53.5 56.5t18 73.5v235q-26 16 -62 27.5t-84 11.5q-54 0 -93 -24t-60.5 -72t-21.5 -122
q0 -71 20 -117.5t57 -68.5t87 -22z" />
    <glyph glyph-name="uni02B9" unicode="&#x2b9;" horiz-adv-x="243" 
d="M111 575l-39 9l15 167q2 25 15 41.5t37 16.5q10 0 20 -3.5t16 -11t6 -18.5q0 -7 -3 -16.5t-7 -19.5z" />
    <glyph glyph-name="uni02BA" unicode="&#x2ba;" horiz-adv-x="404" 
d="M111 575l-39 9l15 167q2 25 15 41.5t37 16.5q10 0 20 -3.5t16 -11t6 -18.5q0 -7 -3 -16.5t-7 -19.5zM282 575l-40 9l16 167q2 25 15 41.5t36 16.5q11 0 20.5 -3.5t16 -11t6.5 -18.5q0 -7 -3.5 -16.5t-6.5 -19.5z" />
    <glyph glyph-name="uni02BB" unicode="&#x2bb;" horiz-adv-x="0" 
d="M-1 580q-33 0 -47 22t-14 47t10 51t28.5 50t42.5 42l27 -31q-16 -15 -25.5 -29t-13.5 -27t-4 -27h9q24 0 34 -13.5t10 -33.5q0 -15 -6 -27t-18.5 -18t-32.5 -6z" />
    <glyph glyph-name="uni02BC" unicode="&#x2bc;" horiz-adv-x="366" 
d="M114 524l-23 31q39 28 52.5 53t13.5 50h-13q-17 0 -28 6t-16.5 16.5t-5.5 23.5q0 24 16 40.5t41 16.5q38 0 53 -20.5t15 -52.5q0 -25 -10.5 -53.5t-34 -57t-60.5 -53.5z" />
    <glyph glyph-name="uni02BE" unicode="&#x2be;" horiz-adv-x="500" 
d="M216 587v48h9q32 0 44.5 17.5t12.5 41.5q0 25 -13 42t-45 17h-8v48h9q65 0 92 -31.5t27 -75.5q0 -26 -12.5 -50.5t-39 -40.5t-69.5 -16h-7z" />
    <glyph glyph-name="uni02BF" unicode="&#x2bf;" horiz-adv-x="500" 
d="M276 587q-65 0 -92 31.5t-27 76.5q0 26 12.5 50t39 40t69.5 16h7v-47h-9q-32 0 -44.5 -17.5t-12.5 -42.5q0 -24 13 -41t45 -17h8v-49h-9z" />
    </font>
</defs>
</svg>
