<?xml version="1.0" standalone="no"?>
<!DOCTYPE svg PUBLIC "-//W3C//DTD SVG 1.1//EN" "http://www.w3.org/Graphics/SVG/1.1/DTD/svg11.dtd" >
<svg xmlns="http://www.w3.org/2000/svg" xmlns:xlink="http://www.w3.org/1999/xlink" version="1.1">
<metadata>
Created by FontForge 20170731 at Tue Jul 28 13:23:43 2020
 By Aleksey,,,
Copyright 2017 The Literata Project Authors (https://github.com/googlefonts/literata)
</metadata>
<defs>
<font id="Literata7pt-Bold" horiz-adv-x="827" >
  <font-face 
    font-family="Literata 7pt"
    font-weight="700"
    font-stretch="normal"
    units-per-em="1000"
    panose-1="0 0 0 0 0 0 0 0 0 0"
    ascent="800"
    descent="-200"
    x-height="523"
    cap-height="700"
    bbox="-445 -319 1683 1204"
    underline-thickness="50"
    underline-position="-175"
    unicode-range="U+000D-FB02"
  />
<missing-glyph horiz-adv-x="500" 
d="M50 700h400v-700h-400v700zM110 640v-580h280v580h-280z" />
    <glyph glyph-name="fi" unicode="fi" horiz-adv-x="795" 
d="M52 0v75l46 2q19 1 25.5 11.5t6.5 37.5v310h-85v72l86 13v17q0 71 34 126t98 86.5t154 31.5q57 0 102.5 -9t77 -26t48 -39.5t16.5 -50.5q0 -35 -20.5 -56t-61.5 -21q-32 0 -53 13.5t-21 39.5q0 12 4.5 27t15.5 32q-27 8 -52 12.5t-55 4.5q-36 0 -65 -12t-46 -41t-17 -79
v-53h377l15 -9v-390q0 -22 5 -34t26 -13l55 -3v-75h-326v75l51 3q18 1 24 11.5t6 37.5v248q0 35 -7.5 47.5t-39.5 12.5l-186 1v-310q0 -26 8 -36t30 -12l49 -3v-75h-325z" />
    <glyph glyph-name="fl" unicode="fl" horiz-adv-x="832" 
d="M52 0v75l45 2q18 1 25.5 11t7.5 38v310h-85v72l86 13v16q0 51 17.5 95.5t51.5 78t84.5 52.5t118.5 19q71 0 123 -18t92 -39l84 42l16 -11v-632q0 -26 6.5 -35.5t26.5 -11.5l45 -2v-75h-312v75l45 3q18 1 24 10t6 38v442q0 43 -12.5 73t-41 46.5t-76.5 16.5
q-43 0 -74.5 -14t-48 -42.5t-16.5 -72.5v-51h152v-88h-152v-308q0 -27 7.5 -37.5t32.5 -12.5l66 -3v-75h-344z" />
    <glyph glyph-name="f_f" unicode="ff" horiz-adv-x="894" 
d="M290 524h265v40q0 59 -30 89.5t-96 30.5q-43 0 -74.5 -13.5t-48 -43t-16.5 -75.5v-28zM52 0v75l45 2q18 1 25.5 11t7.5 38v310h-85v72l86 13v10q0 49 17 91.5t51 73.5t84.5 48.5t116.5 17.5q64 0 111 -15.5t90 -45.5q15 22 40.5 40t61 29.5t81.5 11.5q57 0 98 -15.5
t62.5 -42t21.5 -61.5q0 -32 -19.5 -52.5t-57.5 -20.5q-32 0 -50.5 12t-18.5 35q0 12 5 25t18 37q-11 5 -24 8.5t-30 3.5q-29 0 -45.5 -13.5t-23 -38t-6.5 -58.5v-77h152v-88h-152v-308q0 -27 7.5 -37.5t32.5 -12.5l71 -3v-75h-346v75l42 2q19 2 26.5 11.5t7.5 37.5v311
l-265 -1v-308q0 -27 7.5 -37.5t32.5 -12.5l66 -3v-75h-344z" />
    <glyph glyph-name="f_k" unicode="fk" horiz-adv-x="1163" 
d="M52 0v75l45 2q18 1 25.5 11t7.5 38v310h-85v72l86 13v23q0 49 17.5 92t51.5 76t84.5 51.5t118.5 18.5q47 0 86 -8.5t71 -21.5t58 -27l84 42l16 -11v-632q0 -26 6.5 -35.5t26.5 -11.5l43 -3v-74h-310v75l45 3q18 1 24 10t6 38v442q0 43 -12.5 73t-42.5 46.5t-80 16.5
q-39 0 -69 -14t-47.5 -41.5t-17.5 -68.5v-56h152v-88h-152v-308q0 -27 7.5 -37.5t32.5 -12.5l66 -3v-75h-344zM1034 -12q-31 0 -56 7.5t-48 25.5t-48 50l-153 191l1 16l157 127q16 12 15.5 26t-17.5 15l-41 4l14 74h262v-76l-39 -4q-20 -2 -36 -11t-35 -25l-129 -104
l142 -167q23 -29 41 -41t41 -12q8 0 17 2t23 6l16 -60q-24 -19 -58 -31.5t-69 -12.5z" />
    <glyph glyph-name="f_b" unicode="fb" horiz-adv-x="1161" 
d="M633 -7l-79 4v571q0 43 -11.5 73t-40 46.5t-78.5 16.5q-41 0 -71.5 -12.5t-46.5 -41t-16 -75.5v-51h152v-88h-152v-308q0 -27 7.5 -37.5t32.5 -12.5l66 -3v-75h-344v75l45 2q18 1 25.5 11t7.5 38v310h-85v72l86 13v15q0 54 18 99t52.5 78t85 51t116.5 18q47 0 84.5 -8.5
t68.5 -21.5t57 -27l84 42l16 -11v-302h4q20 27 46.5 45.5t59 28.5t69.5 10q67 0 117 -29.5t77 -86t27 -137.5q0 -91 -30 -158.5t-90 -104t-151 -36.5q-30 0 -58.5 6t-53.5 17.5t-47 27.5zM820 83q39 0 67 19t43.5 60t15.5 107q0 60 -13 96.5t-38.5 53.5t-61.5 17
q-37 0 -64 -14.5t-41.5 -42t-14.5 -66.5v-197q22 -16 50 -24.5t57 -8.5z" />
    <glyph glyph-name="f_h" unicode="fh" horiz-adv-x="1190" 
d="M52 0v75l45 2q18 1 25.5 11t7.5 38v310h-85v72l86 13v19q0 50 18 94t53 77t85.5 52t117.5 19q46 0 84.5 -8.5t70.5 -21.5t58 -27l84 42l16 -11v-308h3q26 41 72.5 65.5t107.5 24.5t101.5 -22t60.5 -61t20 -90v-247q0 -18 5.5 -28.5t28.5 -12.5l44 -2v-75h-299v75l31 2
q19 1 25 10t6 32v201q0 34 -7.5 57t-26.5 35.5t-54 12.5t-62 -13t-41.5 -40t-14.5 -67v-183q0 -22 5.5 -32t21.5 -12l37 -3v-75h-298v75l46 3q18 1 23.5 10.5t5.5 35.5v444q0 43 -12.5 73t-41 46.5t-76.5 16.5q-41 0 -72.5 -14t-49 -42t-17.5 -71v-53h152v-88h-152v-308
q0 -27 7.5 -37.5t32.5 -12.5l66 -3v-75h-344z" />
    <glyph glyph-name="f_t" unicode="ft" horiz-adv-x="896" 
d="M52 0v75l45 2q18 1 25.5 11t7.5 38v310h-85v72l86 13v30q0 48 12.5 90t39 73.5t67.5 49.5t100 18q53 0 92 -15.5t60.5 -42t21.5 -61.5q0 -32 -19 -52.5t-54 -20.5q-33 0 -51.5 12t-18.5 35q0 12 5 25t19 37q-11 5 -23 8.5t-29 3.5q-23 0 -37 -12.5t-20 -37t-6 -60.5v-77
h143q53 0 83 15t45.5 49t24.5 89l86 12l18 -9v-156h157v-88h-157v-266q0 -35 14.5 -55.5t50.5 -20.5q24 0 46 7.5t43 21.5l38 -65q-34 -33 -80 -52.5t-103 -19.5t-94.5 18.5t-55.5 53.5t-18 85v293h-241v-308q0 -27 7.5 -37.5t32.5 -12.5l71 -3v-75h-349z" />
    <glyph glyph-name="f_f_i" unicode="ffi" horiz-adv-x="1219" 
d="M52 0v75l45 2q18 1 25.5 11t7.5 38v310h-85v72l86 13v10q0 49 17.5 91.5t51.5 73.5t84.5 48.5t117.5 17.5q63 0 113.5 -17t97.5 -55q25 29 60 49.5t79 31.5t93 11q56 0 100.5 -9t75.5 -26t47.5 -39.5t16.5 -50.5q0 -35 -20.5 -56t-61.5 -21q-32 0 -53 13.5t-21 39.5
q0 12 4.5 27t15.5 32q-27 8 -51.5 12.5t-51.5 4.5q-33 0 -63 -11.5t-49.5 -39t-19.5 -73.5v-61h377l15 -9v-390q0 -22 5 -34t26 -13l55 -3v-75h-326v75l51 3q18 1 24 11.5t6 37.5v248q0 35 -7.5 47.5t-39.5 12.5l-186 1v-310q0 -26 8 -36t30 -12l49 -3v-75h-323v75l45 2
q18 1 25 11.5t7 37.5v310h-265v-308q0 -27 7.5 -37.5t32.5 -12.5l66 -3v-75h-344zM290 524h265v34q0 63 -30.5 94.5t-98.5 31.5q-41 0 -71.5 -13.5t-47.5 -42t-17 -72.5v-32z" />
    <glyph glyph-name="f_f_l" unicode="ffl" horiz-adv-x="1256" 
d="M52 0v75l45 2q18 1 25.5 11t7.5 38v310h-85v72l86 13v10q0 49 17.5 91.5t52 73.5t84 48.5t113.5 17.5t114 -16t98 -52q36 42 92 65t126 23q49 0 87 -8.5t69 -21.5t57 -27l85 42l16 -11v-632q0 -26 6 -35.5t26 -11.5l46 -2v-75h-312v75l44 3q18 1 24.5 10t6.5 38v445
q0 41 -13.5 71t-42 46t-75.5 16q-40 0 -71.5 -14t-49.5 -41.5t-18 -68.5v-56h152v-88h-152v-308q0 -27 7.5 -37.5t32.5 -12.5l66 -3v-75h-341v75l43 2q18 2 25.5 11.5t7.5 37.5v310h-264v-308q0 -27 7.5 -37.5t32.5 -12.5l66 -3v-75h-344zM290 524h265v34q0 63 -30.5 94.5
t-98.5 31.5q-39 0 -69.5 -13.5t-48.5 -40.5t-18 -70v-36z" />
    <glyph glyph-name="f_f_k" unicode="ffk" horiz-adv-x="1587" 
d="M1457 -12q-31 0 -56 7.5t-47.5 25.5t-47.5 50l-153 191v16l158 127q15 12 15 26t-17 15l-42 4l15 74h261v-76l-39 -4q-19 -2 -35.5 -11t-35.5 -25l-129 -104l143 -167q23 -29 41 -41t40 -12q8 0 17.5 2t22.5 6l16 -60q-23 -19 -57 -31.5t-70 -12.5zM52 0v75l45 2
q18 1 25.5 11t7.5 38v310h-85v72l86 13v16q0 48 17.5 89t51.5 71.5t83.5 47.5t114.5 17q64 0 114.5 -16t98.5 -52q34 40 90.5 64t126.5 24q49 0 87 -8.5t69 -21.5t57 -27l85 42l16 -11v-631q0 -26 6 -35.5t24 -11.5l37 -4v-74h-301v75l45 3q18 1 24 11t6 37v442
q0 43 -13.5 73t-42 46.5t-75.5 16.5q-41 0 -72.5 -14t-49 -41.5t-17.5 -68.5v-56h152v-88h-152v-308q0 -27 7.5 -37.5t32.5 -12.5l66 -3v-75h-341v75l43 2q18 2 25.5 11.5t7.5 37.5v310h-264v-308q0 -27 7.5 -37.5t32.5 -12.5l66 -3v-75h-344zM290 524h265v34
q0 63 -30.5 94.5t-98.5 31.5q-42 0 -72.5 -13.5t-47 -40.5t-16.5 -70v-36z" />
    <glyph glyph-name="f_f_b" unicode="ffb" horiz-adv-x="1584" 
d="M290 524h265v34q0 63 -30 94.5t-95 31.5q-44 0 -75.5 -13.5t-48 -43t-16.5 -76.5v-27zM1243 83q39 0 67.5 19t44 60t15.5 107q0 60 -13.5 96.5t-38.5 53.5t-61 17q-38 0 -65 -14.5t-41 -42t-14 -66.5v-197q22 -16 49.5 -24.5t56.5 -8.5zM52 0v75l45 2q18 1 25.5 11
t7.5 38v310h-85v72l86 13v10q0 49 16.5 91.5t50 73.5t84.5 48.5t120 17.5q61 0 111 -16.5t96 -51.5q37 43 93 65.5t127 22.5q49 0 85.5 -8.5t66 -21.5t55.5 -27l85 42l16 -11v-302h4q20 27 46.5 45.5t59 28.5t68.5 10q68 0 117.5 -29.5t76.5 -86t27 -137.5
q0 -91 -29.5 -158.5t-89.5 -104t-151 -36.5q-31 0 -59 6t-53.5 17.5t-47.5 27.5l-50 -44l-78 4v571q0 43 -12 73t-39.5 46.5t-74.5 16.5q-40 0 -71 -14t-49.5 -41.5t-18.5 -68.5v-56h152v-88h-152v-308q0 -27 7.5 -37.5t32.5 -12.5l66 -3v-75h-341v75l43 2q18 2 25.5 11.5
t7.5 37.5v310h-264v-308q0 -27 7.5 -37.5t32.5 -12.5l66 -3v-75h-344z" />
    <glyph glyph-name="f_f_t" unicode="fft" horiz-adv-x="1320" 
d="M52 0v75l45 2q18 1 25.5 11t7.5 38v310h-85v72l86 13v10q0 51 18 94t52.5 73.5t85 47t115.5 16.5q61 0 108 -15t89 -45q26 37 69.5 58.5t105.5 21.5q53 0 92 -15.5t60.5 -42t21.5 -61.5q0 -32 -19 -52.5t-54 -20.5q-33 0 -51.5 12t-18.5 35q0 12 5 25t19 37
q-11 5 -23 8.5t-29 3.5q-23 0 -37 -12.5t-20 -37t-6 -60.5v-77h143q53 0 83 15t45.5 49t24.5 89l86 12l18 -9v-156h157v-88h-157v-266q0 -35 14.5 -55.5t50.5 -20.5q24 0 46 7.5t43 21.5l38 -65q-34 -33 -80 -52.5t-103 -19.5t-94.5 18.5t-55.5 53.5t-18 85v293h-241v-308
q0 -27 7.5 -37.5t32.5 -12.5l71 -3v-75h-348v75l44 2q19 1 26.5 11t7.5 38v310h-265v-308q0 -27 7.5 -37.5t32.5 -12.5l66 -3v-75h-344zM290 524h265v35q0 64 -31 94.5t-94 30.5q-43 0 -74.5 -13.5t-48.5 -41.5t-17 -72v-33z" />
    <glyph glyph-name="f_iacute" unicode="f&#xed;" horiz-adv-x="778" 
d="M554 584l-40 41l108 150q13 18 25 24.5t26 6.5q22 0 35.5 -11.5t20 -27t6.5 -28.5q0 -16 -9 -31.5t-29 -28.5zM53 0v75l41 4q19 2 25.5 11.5t6.5 37.5v301h-81v73l82 13v46q0 50 12 90.5t36.5 70t62.5 45t92 15.5q43 0 76.5 -15.5t52.5 -43t19 -64.5q0 -33 -18 -53.5
t-52 -20.5q-27 0 -43 12.5t-16 32.5q0 16 6 30t18 37q-7 5 -15.5 8.5t-21.5 3.5q-16 0 -27.5 -9.5t-17 -31.5t-5.5 -59v-91h367l16 -9v-382q0 -23 4.5 -34t25.5 -14l50 -5v-74h-315v74l46 5q18 3 24 13t6 37v237q0 35 -8 48.5t-39 13.5l-177 1v-302q0 -26 8 -35t30 -13
l55 -5v-74h-326z" />
    <glyph glyph-name="T_h" unicode="Th" horiz-adv-x="1393" 
d="M203 0v76l79 6q20 2 28 12t8 39v480h-50q-29 0 -50 -4.5t-36 -19t-28 -43.5t-28 -78l-93 18l35 214h604q47 0 86 8.5t73.5 23.5t67.5 35l22 -11v-308h2q26 41 73 65.5t107 24.5q62 0 102 -22t60.5 -61t20.5 -90v-247q0 -18 5 -28.5t28 -12.5l45 -2v-75h-299v75l31 2
q19 1 25 10t6 32v201q0 34 -8 57t-27 35.5t-53 12.5q-36 0 -62.5 -13t-41 -40t-14.5 -67v-183q0 -22 5 -32t22 -12l36 -3v-75h-297v75l46 3q17 1 23 10.5t6 35.5v487l-278 2v-482q0 -28 6.5 -37.5t29.5 -11.5l79 -6v-76h-396z" />
    <glyph glyph-name=".notdef" horiz-adv-x="500" 
d="M50 700h400v-700h-400v700zM110 640v-580h280v580h-280z" />
    <glyph glyph-name=".null" horiz-adv-x="0" 
 />
    <glyph glyph-name="nonmarkingreturn" horiz-adv-x="333" 
 />
    <glyph glyph-name="CR" unicode="&#xd;" horiz-adv-x="0" 
 />
    <glyph glyph-name="space" unicode=" " horiz-adv-x="235" 
 />
    <glyph glyph-name="exclam" unicode="!" horiz-adv-x="361" 
d="M135 218v62q0 46 -5 88t-12 78.5t-14 69t-12 61.5t-5 54q0 28 13.5 46.5t36 27.5t49.5 9q44 0 69.5 -20.5t25.5 -61.5q0 -30 -8 -67t-18 -81t-18 -95t-8 -110v-61h-94zM180 -15q-43 0 -68.5 24t-25.5 62t25 61.5t69 23.5q45 0 70 -23t25 -62q0 -38 -26 -62t-69 -24z" />
    <glyph glyph-name="quotedbl" unicode="&#x22;" horiz-adv-x="473" 
d="M108 520l-32 167q-2 11 -3.5 23.5t-1.5 23.5q0 26 19 43t53 17q25 0 45.5 -13.5t20.5 -38.5q0 -6 -0.5 -14t-3.5 -19l-41 -189h-56zM300 520l-32 167q-2 11 -3.5 23.5t-1.5 23.5q0 26 19 43t52 17q26 0 46.5 -13.5t20.5 -38.5q0 -6 -1 -14t-4 -19l-41 -189h-55z" />
    <glyph glyph-name="numbersign" unicode="#" horiz-adv-x="755" 
d="M150 -9l23 133h-135l19 94h133l21 124h-136l17 93h134l20 124h108l-21 -124h138l20 124h108l-22 -124h139l-15 -94h-140l-20 -123h145l-17 -94h-143l-23 -133h-108l23 133h-137l-23 -133h-108zM296 218h138l21 124h-139z" />
    <glyph glyph-name="dollar" unicode="$" horiz-adv-x="669" 
d="M302 -95v85q-43 6 -80.5 21.5t-63.5 36.5l-16 -54h-71l-19 222l79 11q17 -41 42 -70.5t58 -46.5t71 -22v191q-8 3 -16 5t-16 5q-44 13 -80 30t-62.5 41t-41 58.5t-14.5 81.5q0 33 13 68.5t41 66.5t71.5 52.5t104.5 25.5v92h72v-94q35 -5 64.5 -16.5t55.5 -29.5l15 49h66
l21 -213l-79 -17q-16 44 -38 71t-48.5 41.5t-56.5 18.5v-182q5 -1 9.5 -2.5l10.5 -3.5q53 -15 94.5 -32.5t70.5 -42t44.5 -59t15.5 -83.5q0 -52 -19.5 -92.5t-54 -69t-78.5 -44t-93 -18.5v-81h-72zM374 89q27 3 45 12.5t28 25t10 36.5q0 22 -8.5 38.5t-26.5 30t-48 24.5
v-167zM302 456v158q-34 -4 -55.5 -22t-21.5 -50q0 -19 8 -34.5t25 -27.5t44 -24z" />
    <glyph glyph-name="percent" unicode="%" horiz-adv-x="1023" 
d="M235 -14l416 611h137l-414 -611h-139zM236 274q-57 0 -102 17.5t-70 52t-25 83.5q0 62 28.5 99t75 53t98.5 16t95.5 -15t70.5 -48.5t27 -88.5q0 -57 -27.5 -95t-72 -56t-98.5 -18zM237 347q25 0 41.5 19.5t16.5 70.5q0 49 -17 68t-43 19q-25 0 -41.5 -18t-16.5 -67
t16 -70.5t44 -21.5zM783 -21q-57 0 -101.5 18t-70 52t-25.5 83q0 63 29 100t75 53t98 16t95.5 -15.5t70.5 -49t27 -87.5q0 -58 -27 -95.5t-72 -56t-99 -18.5zM784 52q26 0 42 20t16 71q0 32 -7.5 51t-21 27t-31.5 8q-25 0 -41 -18t-16 -67t15.5 -70.5t43.5 -21.5z" />
    <glyph glyph-name="ampersand" unicode="&#x26;" horiz-adv-x="913" 
d="M306 -14q-70 0 -128 21.5t-92.5 65t-34.5 108.5q0 34 12 63t34 53.5t52.5 44t68.5 34.5q-25 25 -44.5 50.5t-31.5 53.5t-12 60q0 44 18.5 77t50.5 55t73 33t85 11q88 0 139.5 -41.5t51.5 -108.5q0 -37 -18 -70t-49.5 -58.5t-72.5 -42.5l137 -128q20 63 45 107t53.5 71.5
t59 40t61.5 12.5q46 0 75.5 -25t29.5 -63q0 -22 -7.5 -41.5t-22.5 -31.5t-37 -12q-20 0 -33 9.5t-22.5 27.5t-20.5 43q-21 -10 -43 -32.5t-41.5 -62.5t-33.5 -101q40 -39 65.5 -60.5t44.5 -29.5t39 -8q24 0 48.5 10.5t44.5 24.5l29 -60q-19 -22 -45 -43t-57 -34.5t-65 -13.5
q-33 0 -61 9t-55.5 26.5t-59.5 43.5q-23 -24 -55 -44.5t-75 -32t-100 -11.5zM344 79q49 0 80.5 13t49.5 37l-201 191q-20 -12 -35.5 -27t-25 -35.5t-9.5 -48.5q0 -43 19.5 -72t52 -43.5t69.5 -14.5zM353 445q34 21 53 43t26.5 44.5t7.5 41.5q0 33 -24 51t-59 18
q-40 0 -63 -19t-23 -50q0 -23 10.5 -44t29 -42t42.5 -43z" />
    <glyph glyph-name="quotesingle" unicode="'" horiz-adv-x="281" 
d="M108 520l-32 167q-2 11 -3.5 23.5t-1.5 23.5q0 26 19 43t53 17q25 0 45.5 -13.5t20.5 -38.5q0 -6 -0.5 -14t-3.5 -19l-41 -189h-56z" />
    <glyph glyph-name="parenleft" unicode="(" horiz-adv-x="390" 
d="M289 -215q-49 52 -91.5 111.5t-74 126.5t-49.5 142.5t-18 157.5q0 81 20 153t53.5 136t76 118t87.5 98l63 -38q-39 -63 -70 -141.5t-48 -162.5t-17 -165q0 -89 17.5 -175.5t47.5 -167.5t67 -155z" />
    <glyph glyph-name="parenright" unicode=")" horiz-adv-x="392" 
d="M91 -215l-62 38q41 69 71 148t46.5 163t16.5 169t-17.5 171.5t-47.5 167t-67 149.5l64 37q48 -50 90.5 -109.5t74.5 -127t50 -143t18 -158.5q0 -80 -20 -152t-53 -135.5t-75.5 -118t-88.5 -99.5z" />
    <glyph glyph-name="asterisk" unicode="*" horiz-adv-x="496" 
d="M241 392q-31 0 -42.5 16.5t-3.5 44.5l23 93l-70 -61q-23 -21 -47 -20.5t-41 29.5q-16 28 -6 45.5t38 24.5l107 30l-97 26q-33 9 -44 30t6 50q16 26 36 26.5t42 -17.5l78 -68l-21 86q-8 32 5.5 51.5t48.5 19.5q29 0 41 -15.5t4 -44.5l-25 -98l74 63q24 20 48.5 20.5
t41.5 -31.5q14 -26 6 -43t-39 -25l-109 -31l98 -28q31 -8 43 -30t-6 -50q-16 -26 -35 -26.5t-42 18.5l-79 67l19 -81q8 -30 -4.5 -50.5t-47.5 -20.5z" />
    <glyph glyph-name="plus" unicode="+" horiz-adv-x="620" 
d="M247 83v167h-154v115h154v154h119v-154h161v-115h-161v-167h-119z" />
    <glyph glyph-name="comma" unicode="," horiz-adv-x="346" 
d="M119 -170l-39 55q28 20 47 37.5t30 35.5t13 38h-16q-18 0 -36 8t-30 25t-12 44q0 39 24 64t74 25t75 -28.5t25 -80.5q0 -39 -16.5 -79.5t-51 -77.5t-87.5 -66z" />
    <glyph glyph-name="hyphen" unicode="-" horiz-adv-x="369" 
d="M47 238v112h275v-112h-275z" />
    <glyph glyph-name="period" unicode="." horiz-adv-x="351" 
d="M176 -15q-46 0 -73.5 25t-27.5 66q0 40 27 64.5t74 24.5t73.5 -24.5t26.5 -64.5t-27.5 -65.5t-72.5 -25.5z" />
    <glyph glyph-name="slash" unicode="/" horiz-adv-x="551" 
d="M16 -110l370 912h130l-368 -912h-132z" />
    <glyph glyph-name="zero" unicode="0" horiz-adv-x="694" 
d="M348 -14q-101 0 -167 47t-98 127t-32 182q0 104 25 175.5t68 115t97.5 62.5t111.5 19q83 0 148.5 -37.5t103.5 -114.5t38 -197q0 -124 -37 -208.5t-103 -127.5t-155 -43zM355 79q30 0 52 14.5t36.5 46.5t22 84t7.5 128q0 74 -8 126t-24 83.5t-40 45.5t-56 14
q-28 0 -51 -12t-39 -41t-24.5 -80t-8.5 -129q0 -70 8 -122.5t24.5 -87.5t41.5 -52.5t59 -17.5z" />
    <glyph glyph-name="one" unicode="1" horiz-adv-x="468" 
d="M46 0v76l79 6q22 1 30 11.5t8 37.5v418q0 23 -5.5 35t-37.5 13l-80 3l9 76l262 35l21 -15v-568q0 -27 7.5 -36t30.5 -11l71 -5v-76h-395z" />
    <glyph glyph-name="two" unicode="2" horiz-adv-x="593" 
d="M44 0l-10 85q80 78 137.5 136t95 101t59 77.5t30 65.5t8.5 64q0 49 -28.5 74t-79.5 25q-30 0 -53.5 -7t-36.5 -17q11 -16 17.5 -27t9.5 -20t3 -18q0 -26 -21 -44.5t-61 -18.5q-42 0 -63 24t-21 59q0 42 32 77t90.5 56.5t136.5 21.5q76 0 131.5 -23.5t85.5 -66t30 -100.5
q0 -33 -8.5 -63.5t-30 -64t-59 -74t-96 -92.5t-142.5 -121h140q28 0 46 3t30 13.5t22 32.5t22 60h90l-19 -218h-487z" />
    <glyph glyph-name="three" unicode="3" horiz-adv-x="611" 
d="M287 -14q-54 0 -97 11t-74.5 28t-53.5 36.5t-35 34.5l62 80q23 -20 49 -36.5t57.5 -26t70.5 -9.5q44 0 72 13t41 36.5t13 54.5q0 55 -48 78t-148 20l8 90q64 6 103 23.5t57 46t18 65.5q0 48 -27.5 74t-77.5 26q-27 0 -53 -8t-40 -20q17 -23 23 -37t6 -27q0 -12 -8 -26
t-25.5 -23.5t-46.5 -9.5q-28 0 -46 11t-26 30t-8 40q0 38 29 73.5t85 57.5t136 22q72 0 125 -19t82 -57t29 -93q0 -42 -18.5 -76t-54 -57.5t-86.5 -35.5v-4q55 -8 95.5 -27.5t63.5 -55.5t23 -92q0 -50 -20.5 -89.5t-57.5 -66.5t-87 -41t-110 -14z" />
    <glyph glyph-name="four" unicode="4" horiz-adv-x="659" 
d="M236 0v71l79 8q24 2 30.5 13.5t6.5 32.5v38h-320l-12 77l331 452l148 19l20 -15v-433h108v-100h-108v-44q0 -17 8 -27t31 -13l52 -6v-73h-374zM140 263h212v282h-4z" />
    <glyph glyph-name="five" unicode="5" horiz-adv-x="601" 
d="M281 -14q-50 0 -96.5 11.5t-86.5 36t-74 63.5l63 79q41 -38 85.5 -55t89.5 -17q40 0 68.5 14.5t43.5 43t15 69.5q0 55 -34 85t-95 30q-36 0 -70.5 -8.5t-66.5 -27.5l-51 52l37 338h419v-32l-27 -88h-297l-21 -155q31 15 67 22.5t74 7.5q72 0 124.5 -26.5t81 -75
t28.5 -114.5q0 -61 -18 -108.5t-53.5 -79.5t-87 -48.5t-118.5 -16.5z" />
    <glyph glyph-name="six" unicode="6" horiz-adv-x="649" 
d="M328 -15q-102 0 -163.5 41t-88.5 112.5t-27 161.5q0 76 17 149.5t56.5 133t106.5 95.5t166 36q51 0 99 -13.5t79 -40.5t31 -68q0 -20 -9 -39.5t-27.5 -32t-49.5 -12.5q-28 0 -44 8t-23 19.5t-7 22.5q0 8 2.5 16t7.5 18t13 24q-14 7 -31.5 11t-44.5 4q-35 0 -61.5 -11.5
t-46 -33t-33 -52t-21.5 -68t-11 -80.5q25 26 67.5 45.5t101.5 19.5q65 0 114 -24t76.5 -71t27.5 -116q0 -82 -35 -139t-97.5 -86.5t-144.5 -29.5zM333 77q35 0 60 15t38.5 47.5t13.5 84.5q0 47 -13.5 75.5t-37.5 41.5t-58 13q-30 0 -57 -12.5t-44 -39.5t-17 -70
q0 -45 10.5 -80t35.5 -55t69 -20z" />
    <glyph glyph-name="seven" unicode="7" horiz-adv-x="595" 
d="M214 -13l-22 13q-1 68 8.5 139t37 144t79 148.5t133.5 153.5h-208q-27 0 -44.5 -2t-28.5 -11.5t-18.5 -30.5t-16.5 -58h-97l17 217h520l12 -87q-57 -62 -101 -125t-72.5 -135t-41.5 -158t-9 -192z" />
    <glyph glyph-name="eight" unicode="8" horiz-adv-x="650" 
d="M309 -15q-82 0 -144 20.5t-96.5 61t-34.5 101.5q0 38 15.5 72.5t52 64t98.5 51.5q-48 23 -77.5 48t-42.5 56t-13 70q0 44 26 86t84.5 70t154.5 28q85 0 139.5 -20t80.5 -55t26 -80q0 -37 -16 -67t-43.5 -54t-63.5 -44q60 -25 94.5 -55.5t49 -65t14.5 -72.5
q0 -54 -23.5 -94t-65 -67.5t-97 -41t-118.5 -13.5zM323 81q38 0 65.5 11.5t43 34.5t15.5 55q0 24 -10.5 43t-31 34t-51 28.5t-71.5 28.5q-53 -30 -74.5 -63t-21.5 -68q0 -34 17.5 -57.5t48.5 -35t70 -11.5zM365 432q32 25 50 54.5t18 58.5t-15 47t-40 26t-55 8q-29 0 -53 -8
t-38 -24t-14 -41q0 -22 12 -41t43.5 -38t91.5 -42z" />
    <glyph glyph-name="nine" unicode="9" horiz-adv-x="645" 
d="M293 -14q-70 0 -131.5 21t-110.5 62l54 90q37 -26 79 -41.5t92 -15.5q40 0 67.5 13.5t45 39.5t27 63.5t12.5 86.5q-26 -29 -66.5 -46t-89.5 -17q-71 0 -122.5 26.5t-79 75t-27.5 116.5q0 86 36 142.5t98.5 84t141.5 27.5q76 0 128.5 -23.5t85.5 -66t47.5 -99.5t14.5 -124
q0 -213 -72.5 -314t-229.5 -101zM312 341q22 0 43 7.5t37.5 23t26.5 41.5t10 64q0 42 -11 76t-35.5 53.5t-66.5 19.5q-26 0 -47 -8t-36 -24.5t-23 -43.5t-8 -65q0 -54 14 -85.5t39 -45t57 -13.5z" />
    <glyph glyph-name="colon" unicode=":" horiz-adv-x="351" 
d="M176 -15q-46 0 -73.5 25t-27.5 66q0 40 27 64.5t74 24.5t73.5 -24.5t26.5 -64.5t-27.5 -65.5t-72.5 -25.5zM176 358q-46 0 -73.5 24.5t-27.5 65.5q0 40 27 65t74 25t73.5 -24.5t26.5 -64.5q0 -41 -27.5 -66t-72.5 -25z" />
    <glyph glyph-name="semicolon" unicode=";" horiz-adv-x="351" 
d="M121 -170l-39 55q28 20 47 37.5t30 35.5t13 38h-17q-17 0 -35 8t-30 25t-12 44q0 39 24 64t74 25t75 -28.5t25 -80.5q0 -39 -16.5 -79.5t-51 -77.5t-87.5 -66zM176 358q-47 0 -74 24.5t-27 65.5q0 40 27 65t74 25t73.5 -24.5t26.5 -65.5q0 -40 -27.5 -65t-72.5 -25z" />
    <glyph glyph-name="less" unicode="&#x3c;" horiz-adv-x="620" 
d="M460 37l-368 216v62l368 217l55 -91l-274 -156l274 -155z" />
    <glyph glyph-name="equal" unicode="=" horiz-adv-x="620" 
d="M96 342v115h428v-115h-428zM96 150v114h428v-114h-428z" />
    <glyph glyph-name="greater" unicode="&#x3e;" horiz-adv-x="620" 
d="M146 37l-55 93l274 155l-274 156l55 91l368 -217v-62z" />
    <glyph glyph-name="question" unicode="?" horiz-adv-x="608" 
d="M219 218v109q0 25 4.5 44.5t20.5 39t49 44.5q45 35 65 57.5t20 47.5q0 33 -28.5 53.5t-75.5 20.5q-36 0 -58.5 -7.5t-38.5 -20.5q11 -18 19 -33.5t8 -30.5q0 -21 -18.5 -38t-53.5 -17q-38 0 -58 20t-20 54q0 41 31.5 76t88 56t130.5 21q69 0 122 -20t83.5 -56.5
t30.5 -86.5q0 -35 -14.5 -64t-44 -57t-74.5 -63q-28 -24 -44.5 -39.5t-24.5 -26.5t-10.5 -20t-2.5 -19v-44h-106zM270 -15q-43 0 -68.5 24t-25.5 62t25 61.5t69 23.5q45 0 70 -23t25 -62q0 -38 -26 -62t-69 -24z" />
    <glyph glyph-name="at" unicode="@" horiz-adv-x="1022" 
d="M443 -203q-79 0 -147 23.5t-119.5 68.5t-80 112.5t-28.5 154.5q0 97 32.5 178t94.5 139.5t149.5 90.5t197.5 32q98 0 175 -21.5t131 -64.5t82.5 -105.5t28.5 -143.5q0 -91 -31.5 -153.5t-86.5 -94.5t-125 -32q-43 0 -66.5 11.5t-31 35t-4.5 57.5l11 113l-6 1l-21 -64
q-12 -38 -28.5 -67t-37 -48.5t-45.5 -29t-54 -9.5q-38 0 -67.5 12t-49 33t-30 51t-10.5 66q0 87 30 147t82.5 90.5t118.5 30.5q38 0 73.5 -10.5t69.5 -30.5l67 28l20 -6l-24 -285q-3 -31 2 -43t28 -12q31 0 57 25t42 69t16 100q0 66 -19 115.5t-59 83t-101 51t-145 17.5
q-107 0 -189 -40.5t-127.5 -116.5t-45.5 -184q0 -78 23 -132.5t63 -88.5t93 -50t113 -16q73 0 124.5 16.5t95.5 46.5l45 -59q-52 -43 -126.5 -67.5t-159.5 -24.5zM458 58q21 0 37.5 12.5t32 41t30.5 74.5l48 141q-18 9 -35.5 12.5t-37.5 3.5q-29 0 -52.5 -16t-40 -44
t-25.5 -63.5t-9 -73.5q0 -29 5.5 -48.5t17 -29.5t29.5 -10z" />
    <glyph glyph-name="A" unicode="A" 
d="M11 0v78l48 5q19 2 30 14t22 40l223 563h170l219 -567q10 -27 20.5 -38.5t30.5 -13.5l41 -4v-77h-343v77l52 4q18 2 24 14.5t-4 37.5l-29 75h-265l-28 -73q-10 -22 -6 -38t31 -18l49 -3v-76h-285zM280 295h208l-98 274h-6z" />
    <glyph glyph-name="B" unicode="B" horiz-adv-x="755" 
d="M58 0v76l52 4q18 1 26 10t8 41v443q0 22 -5.5 34t-30.5 13l-50 3v76h320q98 0 162 -18.5t95.5 -54.5t31.5 -89q0 -44 -21 -76.5t-56 -53.5t-79 -31v-5q95 -11 147.5 -52.5t52.5 -116.5q0 -63 -37 -108.5t-107 -70t-172 -24.5h-337zM376 88q50 0 85.5 13.5t54 41
t18.5 67.5t-19 63.5t-54 35t-83 11.5q-43 0 -67 -4v-223q12 -3 28.5 -4t36.5 -1zM362 404q41 0 71 13.5t46.5 38.5t16.5 61t-15 57.5t-44.5 31t-72.5 9.5h-53v-209q10 -1 22 -1.5t29 -0.5z" />
    <glyph glyph-name="C" unicode="C" horiz-adv-x="773" 
d="M419 -14q-113 0 -194.5 43t-125 124t-43.5 195q0 83 25.5 150.5t73.5 115.5t114.5 74t148.5 26q54 0 96.5 -14.5t76.5 -40.5l13 55h67l41 -244l-84 -17q-21 58 -49.5 93t-65 51.5t-83.5 16.5q-65 0 -109 -28.5t-66.5 -82.5t-22.5 -130q0 -73 18 -124.5t48.5 -83.5
t71 -46.5t85.5 -14.5q48 0 87 12t69.5 32.5t54.5 45.5l58 -68q-20 -26 -49.5 -51t-68 -45t-85 -32t-102.5 -12z" />
    <glyph glyph-name="D" unicode="D" horiz-adv-x="851" 
d="M58 0v76l52 4q20 2 27 11.5t7 39.5v443q0 24 -6 35t-30 12l-50 3v76h346q66 0 125 -10.5t108 -34t84.5 -62t55 -93.5t19.5 -129q0 -91 -29 -160t-85 -116t-139 -71t-191 -24h-294zM379 94q65 0 110 16.5t74 49.5t42 84t13 120q0 83 -25.5 136.5t-75.5 79.5t-124 26h-82
v-510q13 -1 31.5 -1.5t36.5 -0.5z" />
    <glyph glyph-name="E" unicode="E" horiz-adv-x="723" 
d="M58 0v76l53 4q18 1 25.5 10t7.5 41v443q0 26 -7 36t-28 11l-51 3v76h563l36 -188l-91 -15q-12 36 -23.5 59t-27 35.5t-38 17t-56.5 4.5h-110v-216h68q26 0 39.5 5t21 20.5t15.5 48.5l70 6v-235l-71 -11q-5 34 -12.5 51.5t-22 23t-42.5 5.5h-66v-223h130q35 0 58.5 6.5
t38.5 20.5t25.5 39t19.5 62h93l-26 -216h-592z" />
    <glyph glyph-name="F" unicode="F" horiz-adv-x="688" 
d="M58 0v76l53 4q17 1 25 10t8 41v443q0 25 -6.5 35.5t-28.5 11.5l-51 3v76h560l35 -199l-88 -15q-14 44 -27.5 69.5t-29.5 38t-39 16t-55 3.5h-103v-234h69q28 0 42 4.5t22 20.5t15 49l71 6v-240l-71 -11q-5 38 -13.5 56t-24 23.5t-43.5 5.5h-67v-161q0 -28 8 -38.5
t35 -12.5l81 -4v-77h-377z" />
    <glyph glyph-name="G" unicode="G" horiz-adv-x="844" 
d="M402 -14q-111 0 -188.5 46.5t-117.5 127.5t-40 185q0 86 26 154t74.5 116t115.5 73.5t149 25.5q63 0 107 -14t79 -39l12 53h67l42 -240l-84 -17q-22 58 -51 92t-68.5 49t-91.5 15q-48 0 -85.5 -16t-63 -46.5t-39 -75.5t-13.5 -102q0 -67 15 -117t43 -83.5t67.5 -50.5
t87.5 -17q30 0 53.5 4t43 11.5t34.5 18.5v84q0 24 -6 36t-30 13l-54 2v77h321v-77l-42 -3q-19 -2 -26 -12.5t-7 -38.5v-221h-92l-23 61q-19 -15 -50 -32t-72 -29.5t-93 -12.5z" />
    <glyph glyph-name="H" unicode="H" horiz-adv-x="925" 
d="M58 0v76l53 4q17 1 25 9.5t8 40.5v443q0 23 -6 35t-30 13l-50 3v76h338v-76l-52 -4q-19 -1 -26 -12t-7 -39v-162h304v166q0 20 -5 33t-31 14l-49 4v76h336v-76l-51 -3q-19 -1 -26 -11.5t-7 -39.5v-444q0 -23 5.5 -34t29.5 -13l49 -3v-76h-336v76l51 4q19 2 26.5 11
t7.5 39v178h-304v-182q0 -26 7 -35.5t28 -11.5l50 -3v-76h-338z" />
    <glyph glyph-name="I" unicode="I" horiz-adv-x="456" 
d="M58 0v76l53 4q20 1 26.5 12t6.5 38v443q0 25 -6 36t-30 12l-50 3v76h339v-76l-53 -4q-19 -1 -26 -11t-7 -39v-443q0 -25 6.5 -35t28.5 -12l51 -4v-76h-339z" />
    <glyph glyph-name="J" unicode="J" horiz-adv-x="618" 
d="M244 -14q-62 0 -112.5 18t-80 51t-29.5 76q0 34 12 57.5t34 36t51 12.5q34 0 55 -15.5t21 -38.5q0 -19 -7.5 -37.5t-26.5 -47.5q14 -10 34.5 -15.5t40.5 -5.5q33 0 54 15t31 44t10 67v365q0 25 -6 37t-30 13l-69 4v78h359v-76l-54 -4q-19 -1 -26 -13t-7 -37v-330
q0 -124 -64 -189t-190 -65z" />
    <glyph glyph-name="K" unicode="K" horiz-adv-x="832" 
d="M689 -15q-36 0 -64 8t-49.5 23t-39 34.5t-32.5 41.5l-136 201l-57 -55v-112q0 -26 7 -35.5t28 -11.5l50 -3v-76h-338v76l53 4q17 1 25 9.5t8 40.5v443q0 26 -6.5 36.5t-29.5 11.5l-50 3v76h338v-76l-53 -4q-19 -1 -25.5 -12t-6.5 -39v-206l232 213q12 10 15 20t-2 17.5
t-21 7.5l-46 3l11 76h272v-78l-43 -4q-13 -1 -21.5 -6t-19 -14t-28.5 -26l-175 -163l171 -243q20 -28 35.5 -46.5t32 -27t39.5 -8.5q12 0 24.5 2t25.5 5l15 -62q-21 -18 -57 -31t-82 -13z" />
    <glyph glyph-name="L" unicode="L" horiz-adv-x="687" 
d="M58 0v76l53 4q18 1 25.5 10.5t7.5 40.5v443q0 24 -6 35t-29 12l-51 3v76h352v-76l-63 -4q-21 -1 -28.5 -10.5t-7.5 -35.5v-483h98q32 0 53.5 5.5t37.5 20.5t29.5 45.5t28.5 79.5h93l-26 -242h-567z" />
    <glyph glyph-name="M" unicode="M" horiz-adv-x="1061" 
d="M47 0v75l47 3q20 1 27 11.5t8 32.5l30 457q2 19 -3.5 30t-30.5 12l-48 3v76h284l170 -399h4l181 399h268v-76l-54 -3q-14 -1 -23 -7.5t-7 -36.5l33 -452q2 -19 6.5 -31.5t29.5 -14.5l50 -3v-76h-338v76l61 3q17 1 24 9t5 33l-30 401h-3l-183 -413h-108l-184 414h-3
l-25 -397q-1 -22 3.5 -33.5t28.5 -13.5l54 -3v-76h-274z" />
    <glyph glyph-name="N" unicode="N" horiz-adv-x="917" 
d="M58 0v76l53 4q19 1 26 11.5t7 39.5v442q0 25 -6 36t-29 12l-51 3v76h273l327 -488h5v361q0 25 -7 35.5t-29 11.5l-48 4v76h286v-76l-51 -3q-19 -1 -26.5 -12t-7.5 -39v-570h-172l-342 491h-5v-364q0 -23 5.5 -34t29.5 -13l51 -4v-76h-289z" />
    <glyph glyph-name="O" unicode="O" horiz-adv-x="854" 
d="M421 -14q-118 0 -200 45.5t-123.5 125t-41.5 181.5q0 120 47 204t133 128t202 44q109 0 190.5 -41t126.5 -118.5t45 -187.5q0 -81 -25.5 -150.5t-74 -121t-118.5 -80.5t-161 -29zM434 89q45 0 80 14.5t58.5 46t36 81t12.5 118.5q0 66 -13.5 115.5t-39 82.5t-62 49
t-84.5 16q-46 0 -81 -15t-58.5 -46t-36 -79.5t-12.5 -114.5q0 -67 13 -117t38.5 -83.5t63 -50.5t85.5 -17z" />
    <glyph glyph-name="P" unicode="P" horiz-adv-x="709" 
d="M58 0v76l52 4q19 1 26.5 9.5t7.5 38.5v446q0 24 -6 35t-30 12l-50 3v76h320q48 0 92.5 -5t82 -18t66 -36.5t44.5 -60t16 -88.5q0 -53 -16.5 -92t-45 -66.5t-64.5 -44t-75 -24t-77 -7.5q-28 0 -53 1.5t-37 3.5v-134q0 -27 8 -37t34 -12l82 -4v-76h-377zM364 351
q71 0 106.5 34t35.5 104q0 47 -17 74t-49 39t-79 12h-50v-259q11 -2 24 -3t29 -1z" />
    <glyph glyph-name="Q" unicode="Q" horiz-adv-x="866" 
d="M777 -192q-48 0 -90.5 18t-81 59.5t-77.5 110.5q-23 -5 -48 -7.5t-51 -2.5q-119 0 -202.5 45.5t-127 125t-43.5 181.5q0 120 49 204t137 128t205 44q108 0 190 -41t127.5 -118.5t45.5 -187.5q0 -102 -40.5 -186t-119.5 -135q36 -47 64 -73t53 -36t50 -10q37 0 68.5 9
t67.5 30l34 -49q-33 -36 -66 -60t-68 -36.5t-76 -12.5zM440 82q13 0 23 0.5t15 1.5q-17 32 -33 55t-32 38.5t-32 23t-33 7.5q-21 0 -40 -6.5t-35 -24.5q16 -30 41 -51t57 -32.5t69 -11.5zM578 157q28 29 43 78.5t15 114.5t-14.5 114.5t-41 82.5t-64.5 49.5t-86 16.5
q-46 0 -82.5 -14.5t-62.5 -45.5t-39.5 -79.5t-13.5 -116.5q0 -35 4.5 -62t14.5 -52q25 25 57.5 36t68.5 11q35 0 68 -15.5t66 -45.5t67 -72z" />
    <glyph glyph-name="R" unicode="R" horiz-adv-x="796" 
d="M656 -14q-49 0 -82 15.5t-55.5 44.5t-37.5 70l-42 118q-9 22 -18.5 38.5t-25.5 26.5t-45 10q-10 0 -20 -0.5t-19 -1.5v-177q0 -27 7 -37t33 -13l50 -3v-77h-343v76l52 4q18 1 26 10t8 41v443q0 22 -6 34t-30 13l-50 3v76h327q63 0 117 -8.5t94.5 -28.5t63 -54t22.5 -85
q0 -37 -14 -65.5t-37.5 -49.5t-51 -34.5t-56 -21.5t-53.5 -11v-4q59 -9 91 -29.5t51 -66.5l29 -65q15 -34 26.5 -54.5t26 -29t36.5 -8.5q11 0 21.5 2t25.5 5l15 -62q-24 -19 -58 -31.5t-78 -12.5zM360 384q45 0 76.5 14.5t48.5 42.5t17 66q0 43 -19 66t-51 32t-71 9h-48
v-228q11 -1 24.5 -1.5t22.5 -0.5z" />
    <glyph glyph-name="S" unicode="S" horiz-adv-x="676" 
d="M360 -14q-59 0 -111.5 17t-87.5 45l-15 -54h-71l-19 222l79 11q14 -35 34.5 -62t47 -44.5t57.5 -26.5t66 -9q39 0 65.5 9t40 26.5t13.5 42.5q0 30 -16 49.5t-51 35.5t-94 31q-51 14 -92 32t-70.5 43t-45 60.5t-15.5 85.5q0 28 9.5 57.5t28.5 57t49.5 50t72 36t96.5 13.5
q52 0 92.5 -13t73.5 -36l15 49h66l21 -213l-79 -17q-19 53 -47 82t-62 40.5t-71 11.5q-46 0 -77 -19t-31 -57q0 -28 17 -47t51 -34t86 -29q56 -15 100 -33.5t74.5 -43.5t46.5 -60t16 -85q0 -54 -21.5 -96t-58.5 -70.5t-84 -43t-99 -14.5z" />
    <glyph glyph-name="T" unicode="T" horiz-adv-x="800" 
d="M203 0v76l79 6q20 2 28 12t8 39v480h-50q-29 0 -50 -4.5t-36 -19t-28 -43.5t-28 -78l-93 18l35 214h665l34 -214l-93 -18q-14 48 -27 77t-28.5 43.5t-35.5 19.5t-49 5h-50v-482q0 -28 6.5 -37.5t29.5 -11.5l79 -6v-76h-396z" />
    <glyph glyph-name="U" unicode="U" horiz-adv-x="871" 
d="M437 -14q-85 0 -143.5 20t-94 56.5t-52 86.5t-16.5 109v315q0 26 -6.5 36.5t-29.5 11.5l-47 3v76h334v-76l-49 -4q-18 -1 -25.5 -12t-7.5 -39v-310q0 -51 15.5 -87.5t51 -56.5t97.5 -20t99.5 19.5t55 57t17.5 89.5v312q0 26 -7 36.5t-29 11.5l-47 3v76h271v-76l-49 -4
q-18 -1 -25.5 -12t-7.5 -39v-298q0 -95 -34 -158.5t-102 -95t-169 -31.5z" />
    <glyph glyph-name="V" unicode="V" horiz-adv-x="822" 
d="M326 0l-220 571q-10 27 -18.5 37.5t-30.5 12.5l-39 4v75h347v-78l-56 -2q-21 -1 -27.5 -12t3.5 -38l155 -421h7l157 415q11 29 5.5 42t-28.5 14l-54 2l3 78h274v-76l-45 -4q-17 -2 -25.5 -11t-22.5 -44l-217 -565h-168z" />
    <glyph glyph-name="W" unicode="W" horiz-adv-x="1204" 
d="M260 0l-150 573q-6 25 -15 35.5t-34 12.5l-43 4v75h345v-77l-52 -2q-20 -1 -26.5 -12.5t0.5 -38.5l103 -411h5l149 541h175l164 -547h4l97 418q5 26 1 37t-26 12l-53 5v75h282v-77l-53 -2q-12 -1 -22 -5t-17 -14t-12 -31l-136 -571h-192l-155 503h-3l-143 -503h-193z" />
    <glyph glyph-name="X" unicode="X" horiz-adv-x="823" 
d="M17 0v76l37 4q23 3 37 8.5t26.5 17.5t31.5 32l180 198l-195 235q-17 20 -34.5 32.5t-43.5 15.5l-40 6l9 75h341v-77l-41 -3q-19 -1 -21.5 -11t13.5 -28l117 -136l120 137q11 14 12 23.5t-23 12.5l-39 5l8 77h272v-77l-39 -4q-16 -2 -28 -6t-22.5 -12.5t-22.5 -22.5
l-180 -205l202 -245q18 -22 35 -34t42 -14l35 -4v-76h-351v76l45 3q23 2 25.5 14t-18.5 35l-117 134l-125 -141q-14 -15 -16 -26t23 -14l51 -5v-76h-306z" />
    <glyph glyph-name="Y" unicode="Y" horiz-adv-x="800" 
d="M218 0v76l65 4q17 1 25.5 9.5t8.5 40.5v133l-199 306q-13 21 -25.5 34.5t-39.5 16.5l-41 4v76h351v-76l-56 -3q-21 -1 -25.5 -14t11.5 -36l136 -200h5l128 194q14 21 13.5 36.5t-31.5 17.5l-52 5v76h296v-76l-50 -3q-22 -2 -35.5 -16.5t-29.5 -40.5l-193 -301v-137
q0 -26 7 -35.5t28 -11.5l65 -3v-76h-362z" />
    <glyph glyph-name="Z" unicode="Z" horiz-adv-x="745" 
d="M54 0v79l430 534h-186q-27 0 -46.5 -5t-35 -20.5t-29.5 -45.5t-31 -80l-93 -6l13 244h605v-80l-424 -532h169q32 0 56 5t43 20.5t37 47.5t38 86h92l-22 -247h-616z" />
    <glyph glyph-name="bracketleft" unicode="[" horiz-adv-x="389" 
d="M101 -212v1024h253l2 -76l-76 -5q-19 -1 -26 -10.5t-7 -31.5v-778q0 -23 7 -32t26 -10l76 -5l-2 -76h-253z" />
    <glyph glyph-name="backslash" unicode="\" horiz-adv-x="542" 
d="M374 -110l-358 912h131l359 -912h-132z" />
    <glyph glyph-name="bracketright" unicode="]" horiz-adv-x="394" 
d="M40 -212l-2 76l75 5q20 1 26.5 10t6.5 32v778q0 22 -6.5 31.5t-26.5 10.5l-75 5l2 76h252v-1024h-252z" />
    <glyph glyph-name="asciicircum" unicode="^" horiz-adv-x="601" 
d="M124 327l-99 62l231 323h88l233 -323l-100 -62l-178 232z" />
    <glyph glyph-name="underscore" unicode="_" horiz-adv-x="470" 
d="M0 -123v87h470v-87h-470z" />
    <glyph glyph-name="grave" unicode="`" horiz-adv-x="500" 
d="M291 588l-148 99q-20 13 -29 28t-9 31q0 14 6.5 29.5t20.5 27t35 11.5q15 0 26.5 -6.5t24.5 -25.5l112 -155z" />
    <glyph glyph-name="a" unicode="a" horiz-adv-x="636" 
d="M217 -14q-76 0 -120 38t-44 101q0 61 31.5 96t101.5 51.5t183 20.5v68q0 30 -7.5 53.5t-28.5 37.5t-62 14q-26 0 -49 -6t-37 -16q10 -16 16 -27.5t9 -20t3 -14.5q0 -24 -21 -39t-58 -15t-55.5 17t-18.5 48q0 40 30.5 73t84.5 52t123 19q84 0 134.5 -23t73 -66t22.5 -103
v-216q0 -20 9.5 -32.5t32.5 -12.5q13 0 24 2.5t23 6.5l15 -62q-20 -17 -55 -31t-75 -14q-50 0 -79 22.5t-37 59.5q-16 -22 -39.5 -41t-55.5 -30t-74 -11zM279 77q26 0 46.5 10t32 27.5t11.5 39.5v67q-55 0 -89.5 -8.5t-51.5 -25.5t-17 -44q0 -30 17.5 -48t50.5 -18z" />
    <glyph glyph-name="b" unicode="b" horiz-adv-x="709" 
d="M181 -7l-79 4v617q0 33 -7 46t-37 15l-45 3l6 79l226 10l16 -11v-302h4q20 27 46.5 45.5t59 28.5t69.5 10q67 0 117 -29.5t77 -86t27 -137.5q0 -91 -30 -158.5t-90 -104t-151 -36.5q-45 0 -85.5 13t-73.5 38zM368 83q39 0 67 19t43.5 60t15.5 107q0 60 -13.5 96.5
t-38.5 53.5t-61 17q-37 0 -64 -14.5t-41.5 -42t-14.5 -66.5v-197q22 -16 50 -24.5t57 -8.5z" />
    <glyph glyph-name="c" unicode="c" horiz-adv-x="602" 
d="M322 -14q-86 0 -147 32.5t-92.5 92t-31.5 140.5q0 86 34.5 150.5t99 100.5t154.5 36q67 0 116.5 -20t76 -52.5t26.5 -70.5q0 -23 -9 -42t-27.5 -30.5t-47.5 -11.5q-37 0 -57 15.5t-20 41.5q0 11 6 26t19 39q-17 10 -36.5 15t-45.5 5q-37 0 -65.5 -17.5t-45 -54.5
t-16.5 -96q0 -96 40.5 -139t111.5 -43q43 0 79.5 13.5t73.5 38.5l48 -63q-39 -45 -99 -75.5t-145 -30.5z" />
    <glyph glyph-name="d" unicode="d" horiz-adv-x="719" 
d="M283 -14q-76 0 -127.5 31t-78 89.5t-26.5 139.5q0 90 33 155.5t93.5 101t145.5 35.5q39 0 71.5 -8.5t56.5 -21.5v115q0 28 -7 41t-37 15l-51 4l8 77l231 7l15 -16v-629q0 -21 6 -31.5t29 -12.5l46 -4v-75l-210 -7l-14 80h-7q-18 -25 -43 -44.5t-58 -30.5t-76 -11zM336 87
q35 0 61 15.5t40 43.5t14 65v197q-23 15 -50.5 23t-57.5 8q-42 0 -69.5 -20t-41.5 -60t-14 -101q0 -58 14 -95.5t40.5 -56.5t63.5 -19z" />
    <glyph glyph-name="e" unicode="e" horiz-adv-x="623" 
d="M330 -14q-89 0 -151.5 32.5t-95 91.5t-32.5 136q0 94 37 159t102.5 99t150.5 34q71 0 122.5 -23.5t79 -67.5t27.5 -108q0 -25 -2 -50.5t-7 -50.5h-345q3 -45 22.5 -75t53 -45t77.5 -15q48 0 86.5 14.5t73.5 40.5l51 -59q-42 -50 -106.5 -81.5t-143.5 -31.5zM216 321h198
q2 13 3 24t1 22q0 40 -22 62.5t-64 22.5q-34 0 -59 -16.5t-39.5 -46t-17.5 -68.5z" />
    <glyph glyph-name="f" unicode="f" horiz-adv-x="470" 
d="M52 0v75l45 2q18 1 25.5 11.5t7.5 37.5v310h-85v72l86 13v30q0 48 12.5 90t40 73.5t71 49.5t105.5 18q57 0 98 -15.5t62.5 -42t21.5 -61.5q0 -32 -19.5 -52.5t-57.5 -20.5q-32 0 -50.5 12t-18.5 35q0 12 5 25t18 37q-11 5 -24 8.5t-30 3.5q-29 0 -45.5 -13.5t-23 -38
t-6.5 -58.5v-77h152v-88h-152v-308q0 -26 6.5 -37t33.5 -13l71 -3v-75h-349z" />
    <glyph glyph-name="g" unicode="g" horiz-adv-x="653" 
d="M293 -233q-67 0 -117.5 8.5t-83.5 25t-49.5 41t-16.5 56.5t15 53.5t41 36.5t59 26v3q-37 11 -55.5 34.5t-18.5 48.5q0 26 14.5 51t51.5 52v3q-40 21 -61.5 56t-21.5 84q0 64 34 106.5t92 63.5t131 21q22 0 46 -2.5t49 -8t47 -16.5q26 54 58.5 85t75.5 31q20 0 37.5 -7.5
t28.5 -22t11 -37.5q0 -28 -19 -48t-46 -20q-16 0 -28 8t-21 21l-12 18q-9 -12 -18 -26.5t-17 -31.5q25 -25 42 -55.5t17 -74.5q0 -52 -30.5 -93.5t-86.5 -66t-133 -24.5q-28 0 -52 3.5t-41 7.5q-13 -11 -20 -22.5t-7 -21.5q0 -16 10.5 -24.5t27.5 -11t36 -2.5h171
q93 0 143.5 -31.5t50.5 -98.5q0 -28 -10 -56t-33 -53.5t-61.5 -45.5t-95 -31.5t-134.5 -11.5zM309 -145q47 0 80 10t50.5 27.5t17.5 39.5q0 25 -20.5 36.5t-56.5 11.5h-163q-18 -13 -28 -29.5t-10 -34.5q0 -31 32 -46t98 -15zM305 259q44 0 67.5 24t23.5 67q0 49 -25 74
t-69 25q-46 0 -67.5 -28t-21.5 -69t24.5 -67t67.5 -26z" />
    <glyph glyph-name="h" unicode="h" horiz-adv-x="758" 
d="M52 0v75l46 3q17 1 23 10.5t6 35.5v489q0 34 -7.5 47t-35.5 15l-47 3l7 79l227 10l15 -11v-308h3q26 41 72.5 65.5t107.5 24.5t101.5 -22t60.5 -61t20 -90v-247q0 -18 5 -28.5t29 -12.5l44 -2v-75h-299v75l31 2q19 1 25 10t6 32v201q0 34 -8 57t-26.5 35.5t-53.5 12.5
t-62 -13t-41.5 -40t-14.5 -67v-183q0 -21 5.5 -31.5t21.5 -12.5l37 -3v-75h-298z" />
    <glyph glyph-name="i" unicode="i" horiz-adv-x="404" 
d="M45 0v75l55 3q19 1 25 11.5t6 38.5v246q0 32 -6 46t-32 15l-49 3l8 81l223 12l16 -9v-397q0 -22 4.5 -34t26.5 -13l54 -3v-75h-331zM196 606q-46 0 -73 22.5t-27 62.5q0 39 26.5 61.5t73.5 22.5t73 -22t26 -62q0 -39 -27 -62t-72 -23z" />
    <glyph glyph-name="j" unicode="j" horiz-adv-x="368" 
d="M85 -230l-50 65q24 20 40.5 42t27 46.5t15 54t4.5 66.5v330q0 34 -7.5 47t-31.5 14l-48 3l8 81l222 12l16 -9v-423q0 -67 -12.5 -118t-37 -89t-61.5 -67.5t-85 -54.5zM186 606q-46 0 -72.5 22.5t-26.5 62.5q0 39 26 61.5t73 22.5q48 0 74 -22t26 -62q0 -39 -27.5 -62
t-72.5 -23z" />
    <glyph glyph-name="k" unicode="k" horiz-adv-x="731" 
d="M602 -12q-32 0 -57.5 8t-48 26.5t-46.5 48.5l-153 191l1 16l157 127q16 12 15.5 26t-17.5 15l-41 4l14 74h262v-76l-39 -4q-20 -2 -36 -11t-35 -25l-129 -104l142 -167q23 -29 41 -41t41 -12q8 0 17 2t23 6l16 -60q-24 -19 -58 -31.5t-69 -12.5zM52 0v75l46 3
q17 1 23 10.5t6 35.5v489q0 34 -7.5 47t-35.5 15l-47 3l7 79l227 10l15 -11v-632q0 -24 6 -34t25 -12l37 -4v-74h-302z" />
    <glyph glyph-name="l" unicode="l" horiz-adv-x="400" 
d="M52 0v75l44 3q18 1 24.5 10t6.5 38v488q0 33 -8 46t-36 15l-46 3l7 79l226 10l16 -11v-632q0 -25 6 -35t27 -12l45 -2v-75h-312z" />
    <glyph glyph-name="m" unicode="m" horiz-adv-x="1087" 
d="M54 0v75l48 3q15 1 21.5 10.5t6.5 36.5v252q0 32 -6.5 44.5t-30.5 13.5l-48 3l9 80l195 13l15 -9l9 -91h5q19 33 46 57t62 37t77 13q65 0 105.5 -27.5t56.5 -76.5q26 49 75 76.5t108 27.5q57 0 95 -22t57.5 -61t19.5 -90v-247q0 -21 6 -30t27 -11l45 -2v-75h-296v75l28 2
q18 2 24 10t6 32v205q0 34 -6.5 56t-22.5 33.5t-46 11.5q-32 0 -56.5 -12.5t-39 -37t-14.5 -62.5v-192q0 -24 5 -33t25 -11l30 -2v-75h-278v75l28 2q16 1 23 9.5t7 33.5v204q0 35 -6.5 57t-23 33t-47.5 11q-30 0 -54.5 -12.5t-39 -37t-14.5 -62.5v-192q0 -22 4.5 -31.5
t21.5 -11.5l34 -3v-75h-296z" />
    <glyph glyph-name="n" unicode="n" horiz-adv-x="761" 
d="M54 0v75l48 3q15 1 21.5 10.5t6.5 37.5v252q0 31 -6.5 43.5t-30.5 13.5l-48 3l9 80l194 13l16 -9l9 -91h5q28 49 78 78t116 29q62 0 102 -22t60 -61t20 -90v-247q0 -19 5 -29t28 -12l45 -3v-74h-299v75l31 2q17 1 23.5 9t6.5 32v202q0 35 -7.5 58t-26 35t-52.5 12
q-36 0 -63 -13.5t-41 -40t-14 -66.5v-184q0 -23 5 -32.5t21 -11.5l37 -2v-75h-299z" />
    <glyph glyph-name="o" unicode="o" horiz-adv-x="685" 
d="M333 -14q-89 0 -152.5 30.5t-96.5 90t-33 144.5q0 96 37.5 159.5t106 95.5t158.5 32q85 0 148.5 -29t99 -88t35.5 -149q0 -92 -35.5 -156t-103 -97t-164.5 -33zM349 78q41 0 67.5 19t39 57.5t12.5 95.5q0 54 -9 91t-26.5 60t-41.5 34t-54 11q-36 0 -63 -16.5t-41.5 -53
t-14.5 -96.5q0 -68 15 -113t44 -67t72 -22z" />
    <glyph glyph-name="p" unicode="p" horiz-adv-x="722" 
d="M38 -216v75l47 3q15 2 23 11.5t8 37.5v464q0 34 -7 46.5t-32 13.5l-46 3l9 80l192 13l18 -9l8 -86h6q21 31 47.5 54t61.5 35.5t81 12.5q69 0 118 -29t75.5 -86.5t26.5 -141.5q0 -91 -29.5 -157t-88 -102t-145.5 -36q-37 0 -74 7.5t-62 21.5v-104q0 -24 7 -34.5t28 -12.5
l71 -5v-75h-343zM385 84q40 0 67 19.5t41 60.5t14 105q0 55 -12.5 91.5t-37.5 55t-62 18.5q-38 0 -65 -16t-41 -43.5t-14 -65.5v-195q17 -12 48 -21t62 -9z" />
    <glyph glyph-name="q" unicode="q" horiz-adv-x="704" 
d="M345 -216v74l69 4q22 1 30 11.5t8 36.5v148h-4q-20 -25 -46.5 -41t-57 -23.5t-61.5 -7.5q-76 0 -127.5 31t-78 90t-26.5 141q0 91 33 155.5t94 99.5t146 35q33 0 61 -5.5t53 -16.5t47 -28l56 49l70 -11v-616q0 -28 8 -38t24 -11l45 -2v-75h-343zM337 87q35 0 61 15.5
t40 43t14 63.5v199q-23 15 -50 23t-59 8q-41 0 -68.5 -20t-41.5 -60t-14 -100q0 -85 30.5 -128.5t87.5 -43.5z" />
    <glyph glyph-name="r" unicode="r" horiz-adv-x="590" 
d="M54 0v75l47 3q17 1 23 11t6 38v248q0 35 -6.5 47t-29.5 13l-49 3l9 80l194 13l16 -9l9 -92h5q27 49 71.5 78.5t98.5 29.5q57 0 89.5 -30t32.5 -80q0 -33 -10 -56t-29.5 -35t-48.5 -12q-39 0 -57 15.5t-18 37.5q0 8 1.5 15.5t5.5 17.5t11 26q-23 8 -47 1.5t-44 -24.5
t-32 -45.5t-12 -60.5v-183q0 -26 5.5 -36t24.5 -11l81 -4v-74h-347z" />
    <glyph glyph-name="s" unicode="s" horiz-adv-x="549" 
d="M64 -14l-13 179l85 5q16 -33 38 -55.5t50.5 -34t61.5 -11.5q43 0 65.5 17t22.5 44q0 19 -11.5 31.5t-38 22t-72.5 19.5q-40 8 -75 20t-61 30.5t-41 46.5t-15 69q0 54 26.5 92t73.5 57.5t106 19.5q40 0 76 -10t57 -24l9 34h71l10 -172l-83 5q-16 44 -51.5 68t-79.5 24
q-41 0 -62 -14t-21 -41q0 -20 11.5 -32.5t38 -21.5t69.5 -19q47 -11 83.5 -24t61.5 -31.5t38 -45.5t13 -66q0 -56 -27 -97t-75 -63t-111 -22q-49 0 -85 11t-62 25l-13 -36h-70z" />
    <glyph glyph-name="t" unicode="t" horiz-adv-x="477" 
d="M280 -14q-56 0 -94 18.5t-56 53.5t-18 85v293h-80v75q49 6 76.5 24t40.5 52.5t19 89.5l86 12l18 -9v-156h156v-88h-156v-266q0 -35 14 -55.5t51 -20.5q24 0 45.5 7.5t43.5 21.5l37 -65q-34 -33 -80 -52.5t-103 -19.5z" />
    <glyph glyph-name="u" unicode="u" horiz-adv-x="743" 
d="M290 -14q-85 0 -130.5 45t-45.5 127v216q0 32 -6 46t-31 16l-41 3l9 79l212 13l16 -9v-323q0 -34 6.5 -57.5t24.5 -35t51 -11.5q36 0 61.5 15.5t39 44.5t13.5 67v151q0 34 -6 47.5t-31 15.5l-38 3l11 79l207 13l16 -9v-387q0 -28 7 -40t27 -15l45 -4v-76l-212 -8l-14 88
h-5q-22 -28 -47.5 -49t-58.5 -33t-80 -12z" />
    <glyph glyph-name="v" unicode="v" horiz-adv-x="671" 
d="M264 0l-161 387q-8 19 -14.5 30.5t-14.5 17t-22 6.5l-39 4l13 79h297v-75l-42 -2q-19 -1 -22 -13t7 -37l106 -266h7l100 260q10 25 5.5 39t-28.5 16l-37 3l11 75h236v-75l-39 -3q-18 -2 -27 -11t-23 -43l-159 -392h-154z" />
    <glyph glyph-name="w" unicode="w" horiz-adv-x="983" 
d="M230 0l-129 386q-6 19 -11.5 30.5t-13.5 18t-24 7.5l-39 3l12 79h293v-76l-42 -2q-18 -1 -22 -13t5 -38l79 -247h5l106 376h163l109 -374h6l75 240q8 27 2.5 40t-28.5 15l-31 4l10 75h223v-76l-38 -3q-19 -2 -31.5 -15t-25.5 -50l-122 -380h-150l-108 375h-5l-102 -375
h-166z" />
    <glyph glyph-name="x" unicode="x" horiz-adv-x="661" 
d="M20 0v74l31 3q12 2 20 4.5t16.5 9t20.5 17.5l136 143l-122 137q-20 23 -34 36t-37 17l-37 5l14 77h300v-74l-36 -4q-15 -1 -17 -11.5t13 -26.5l68 -74l68 74q14 14 16 24t-20 13l-34 5l13 74h233v-74l-36 -5q-13 -2 -22 -6t-17.5 -11.5t-21.5 -22.5l-122 -133l135 -148
q13 -14 24.5 -24t24.5 -15.5t28 -7.5l26 -2v-74h-326v74l37 3q19 2 21.5 12t-13.5 27l-70 75l-66 -74q-10 -10 -14.5 -18.5t-0.5 -14t17 -6.5l35 -4v-74h-251z" />
    <glyph glyph-name="y" unicode="y" horiz-adv-x="668" 
d="M154 -233q-60 0 -97.5 26.5t-37.5 71.5q0 34 22 57t57 23q31 0 48 -12.5t17 -31.5q1 -9 -2 -22.5t-9 -37.5q27 -3 46.5 8t36.5 37.5t36 65.5l20 41l-187 400q-13 28 -21 37.5t-26 10.5l-39 4l13 79h301v-75l-43 -2q-21 -1 -27 -13t7 -42l104 -237h5l100 231
q12 27 7.5 42.5t-28.5 17.5l-40 3l11 75h235v-75l-39 -5q-18 -2 -27.5 -13t-24.5 -45l-188 -414q-23 -49 -44.5 -87t-47.5 -64t-59.5 -40t-78.5 -14z" />
    <glyph glyph-name="z" unicode="z" horiz-adv-x="580" 
d="M50 0v67l297 374h-103q-35 0 -55 -6.5t-32.5 -31.5t-27.5 -81l-78 -5l14 206h467v-66l-292 -373h105q27 0 44.5 3t31 14.5t26 36.5t28.5 69h74l-15 -207h-484z" />
    <glyph glyph-name="braceleft" unicode="{" horiz-adv-x="409" 
d="M266 -230q-71 0 -110.5 35t-39.5 94q0 22 3.5 56t7.5 74.5t7 81.5t3 75q0 37 -13 53t-34.5 21t-47.5 5v79q26 2 48 5.5t35.5 20t13.5 53.5q0 29 -3.5 66.5t-8 76.5t-8 73t-3.5 56q0 59 39.5 94t108.5 35q26 0 53 -3.5t49 -10.5l-13 -71q-10 2 -23.5 3t-25.5 1
q-11 0 -20 -4.5t-13.5 -16t-4.5 -32.5t2.5 -55.5t7 -72.5t7.5 -72.5t3 -55.5q0 -41 -14.5 -66t-37.5 -39t-48 -24q25 -9 48 -24t37.5 -40t14.5 -65q0 -21 -3 -56.5t-7 -76t-7 -77t-3 -59.5q0 -22 5 -34.5t15.5 -17t24.5 -4.5q10 0 24.5 1.5t23.5 2.5l12 -72q-23 -6 -51 -9.5
t-54 -3.5z" />
    <glyph glyph-name="bar" unicode="|" horiz-adv-x="486" 
d="M179 -110v912h128v-912h-128z" />
    <glyph glyph-name="braceright" unicode="}" horiz-adv-x="409" 
d="M143 -230q-26 0 -54.5 3.5t-50.5 9.5l13 72q10 -1 23.5 -2.5t23.5 -1.5q15 0 25 4.5t15 17t5 34.5q0 23 -3 59.5t-7 77t-7 76t-3 56.5q0 40 14.5 65t37.5 40t48 24q-25 10 -48 24t-37.5 39t-14.5 66q0 21 3 55.5t7.5 72.5t7 72.5t2.5 55.5q0 22 -4.5 33t-13 15.5
t-20.5 4.5t-25 -1t-23 -3l-14 71q22 7 49 10.5t53 3.5q69 0 108.5 -35t39.5 -94q0 -22 -3.5 -56t-8 -73t-8 -76.5t-3.5 -66.5q0 -37 13.5 -53.5t36 -20.5t47.5 -4v-80q-25 0 -47 -4.5t-35 -21t-13 -53.5q0 -34 3 -75t7 -81.5t7.5 -74.5t3.5 -56q0 -59 -39.5 -94t-110.5 -35z
" />
    <glyph glyph-name="asciitilde" unicode="~" horiz-adv-x="601" 
d="M123 224l-65 24q15 40 31 70t36.5 46.5t50.5 16.5q25 0 59 -5.5t74 -16.5q41 -10 68 -15t47 -5q21 0 31 10t23 33l66 -23q-16 -42 -32.5 -72t-37 -46t-50.5 -16q-27 0 -61.5 6t-85.5 19q-35 9 -58 13t-42 4q-20 0 -30 -9t-24 -34z" />
    <glyph glyph-name="uni00A0" unicode="&#xa0;" horiz-adv-x="235" 
 />
    <glyph glyph-name="exclamdown" unicode="&#xa1;" horiz-adv-x="356" 
d="M216 299v-62q0 -46 5 -88t12 -78.5t14 -69t12 -61.5t5 -54q0 -28 -13.5 -46.5t-36 -27.5t-49.5 -9q-44 0 -69.5 20.5t-25.5 61.5q0 30 8 67t18 81t18 95t8 110v61h94zM171 532q43 0 68.5 -24t25.5 -62t-25 -61.5t-69 -23.5q-45 0 -70 23t-25 62q0 38 26 62t69 24z" />
    <glyph glyph-name="cent" unicode="&#xa2;" horiz-adv-x="616" 
d="M208 -35l147 691h54l-147 -691h-54zM320 33q-86 0 -146.5 32.5t-92.5 92t-32 141.5q0 86 34.5 150t99.5 100.5t154 36.5q68 0 117 -20.5t76 -52.5t27 -71q0 -22 -9.5 -41t-28 -30.5t-47.5 -11.5q-36 0 -56.5 15t-20.5 42q0 10 6 25t19 40q-16 9 -36 14t-45 5
q-37 0 -66 -17t-45.5 -54t-16.5 -96q0 -96 40.5 -139t111.5 -43q44 0 80.5 13.5t72.5 38.5l49 -64q-39 -44 -99 -75t-146 -31z" />
    <glyph glyph-name="sterling" unicode="&#xa3;" horiz-adv-x="662" 
d="M72 0l-13 71q47 18 75 40t40 51t12 67q0 20 -5 38t-14 36h-137l10 84h82q-12 26 -21 57t-9 69q0 60 33 105t93 70.5t143 25.5q71 0 121.5 -18.5t77 -50t26.5 -72.5q0 -35 -22.5 -58t-65.5 -23q-37 0 -58.5 16.5t-21.5 42.5q0 9 2.5 18t9 21t18.5 30q-15 7 -36.5 12
t-46.5 5q-54 0 -82 -27.5t-28 -81.5q0 -28 6.5 -52.5t17 -46t21.5 -42.5h194v-84h-161q4 -11 6 -23t2 -25q0 -42 -19.5 -78.5t-65.5 -68.5l2 -5h139q29 0 48 3.5t32 15t23.5 33.5t22.5 59h92l-26 -214h-517z" />
    <glyph glyph-name="currency" unicode="&#xa4;" horiz-adv-x="607" 
d="M494 88l-90 68q-24 -9 -52 -13.5t-54 -4.5q-24 0 -51 4.5t-50 12.5l-87 -67l-59 58l56 77q-14 21 -21.5 47t-7.5 53q0 29 8 54.5t25 50.5l-57 78l59 58l87 -67q25 9 53.5 14t52.5 5t52.5 -4t53.5 -14l86 66l59 -58l-59 -82q13 -20 19.5 -43t6.5 -49q0 -32 -8.5 -59
t-21.5 -46l58 -81zM299 215q25 0 41 13.5t23.5 38.5t7.5 61q0 55 -17 81t-51 26t-52.5 -26.5t-18.5 -82.5q0 -53 16.5 -82t50.5 -29z" />
    <glyph glyph-name="yen" unicode="&#xa5;" horiz-adv-x="825" 
d="M230 0v76l66 4q17 1 25 9.5t8 40.5v79h-216l7 71h189v16l-30 47h-163l7 71h110l-102 155q-14 21 -26.5 34.5t-39.5 16.5l-41 4v76h352v-76l-57 -3q-20 -1 -25 -14t11 -36l136 -200h6l128 194q14 21 13.5 36.5t-32.5 17.5l-51 5v76h296v-76l-50 -3q-22 -2 -35.5 -16.5
t-29.5 -40.5l-98 -150h119v-73h-166l-31 -48v-13h197v-71h-215v-83q0 -26 7 -35.5t29 -11.5l65 -3v-76h-363z" />
    <glyph glyph-name="brokenbar" unicode="&#xa6;" horiz-adv-x="486" 
d="M179 -110v412h127l1 -412h-128zM179 416v387h127l1 -387h-128z" />
    <glyph glyph-name="section" unicode="&#xa7;" horiz-adv-x="681" 
d="M314 -167q-56 0 -97.5 13t-65 38.5t-23.5 61.5q0 21 9.5 39.5t28.5 30t49 11.5t50 -13.5t20 -35.5q0 -9 -3.5 -19.5t-9 -21.5t-11.5 -21q7 -3 16 -5t19.5 -3t22.5 -1q24 0 41.5 7.5t27.5 21.5t10 33q0 29 -17.5 54t-53.5 51.5t-93 57.5q-56 32 -92 60t-57 54t-29.5 50
t-8.5 48q0 44 28.5 82t85.5 72q-5 15 -8 33t-3 33q0 48 27 84.5t75 57t108 20.5q54 0 95 -13.5t63.5 -38.5t22.5 -61q0 -21 -8.5 -39.5t-27 -30t-46.5 -11.5q-31 0 -51.5 14t-20.5 36q0 7 2.5 17t7.5 21t13 22q-7 4 -16 6t-18.5 3t-17.5 1q-33 0 -53 -15.5t-20 -43.5
q0 -30 17 -56t53.5 -52.5t95.5 -58.5q53 -30 88.5 -57.5t56.5 -53t30 -50t9 -49.5q0 -43 -29 -82t-86 -74q6 -15 9 -31.5t3 -33.5q0 -48 -28 -84.5t-77 -57t-113 -20.5zM476 125q16 11 24.5 25t8.5 29q0 20 -17 41.5t-47 44.5t-71 47q-43 26 -74 47t-53.5 39t-41.5 35
q-15 -11 -23 -23.5t-8 -28.5q0 -15 10 -31.5t29 -34t45 -35.5t59 -38q54 -33 91.5 -60t67.5 -57z" />
    <glyph glyph-name="dieresis" unicode="&#xa8;" horiz-adv-x="500" 
d="M367 612q-38 0 -62 22t-24 59q0 35 24 56.5t62 21.5q42 0 64 -21.5t22 -56.5q0 -36 -24.5 -58.5t-61.5 -22.5zM132 612q-38 0 -61.5 22t-23.5 59q0 35 23.5 56.5t61.5 21.5q42 0 64 -21.5t22 -56.5q0 -36 -24 -58.5t-62 -22.5z" />
    <glyph glyph-name="copyright" unicode="&#xa9;" horiz-adv-x="913" 
d="M456 -21q-127 0 -212.5 44t-129.5 122.5t-44 180.5q0 82 31.5 146.5t85.5 110t123.5 69.5t146.5 24q83 0 153.5 -24.5t122.5 -69t80.5 -108t28.5 -141.5q0 -80 -26 -145.5t-76.5 -112t-122 -71.5t-161.5 -25zM458 46q77 0 133.5 22t92.5 61t54 90t18 107q0 89 -37 152
t-104.5 97t-157.5 34q-89 0 -157 -35t-105.5 -99t-37.5 -153q0 -56 18 -106t55 -88t93.5 -60t134.5 -22zM459 111q-68 0 -115.5 26.5t-72.5 73.5t-25 107q0 69 27.5 117t74 73t104.5 25q33 0 60.5 -9.5t42.5 -21.5l6 31h46l26 -148l-56 -10q-17 45 -43 68.5t-64 23.5
q-30 0 -53 -15.5t-35.5 -45.5t-12.5 -77q0 -33 8 -59.5t22.5 -45.5t36 -29t48.5 -10q41 0 67 14.5t51 35.5l38 -47q-23 -22 -48 -39.5t-57 -27.5t-76 -10z" />
    <glyph glyph-name="ordfeminine" unicode="&#xaa;" horiz-adv-x="462" 
d="M146 362q-33 0 -58.5 10.5t-40.5 32.5t-15 54q0 49 32 74t89 34q23 4 51.5 6t58.5 3v28q0 25 -7 40.5t-22 23t-39 7.5q-19 0 -32 -3t-24 -9q6 -11 9 -19t3 -13q0 -15 -13.5 -26.5t-42.5 -11.5q-26 0 -38 13.5t-12 35.5q0 28 21.5 50.5t61 36t92.5 13.5q54 0 91 -13.5
t56 -43t19 -79.5v-135q0 -15 6.5 -24t21.5 -9q7 0 14 1.5t15 4.5l11 -50q-15 -13 -38.5 -22.5t-53.5 -9.5q-35 0 -57.5 15t-28.5 39q-17 -22 -48 -38t-82 -16zM207 439q14 0 26.5 6t21 17t8.5 29v30q-29 0 -51.5 -4.5t-35.5 -14.5t-13 -28t12 -26.5t32 -8.5z" />
    <glyph glyph-name="guillemotleft" unicode="&#xab;" horiz-adv-x="595" 
d="M507 38l-185 155q-18 15 -31 32.5t-13 41.5q0 25 12.5 41.5t30.5 32.5l184 156l58 -43l-130 -183l132 -190zM271 38l-185 155q-18 15 -31 32.5t-13 41.5q0 25 12.5 41.5t30.5 32.5l184 156l58 -43l-130 -183l132 -190z" />
    <glyph glyph-name="logicalnot" unicode="&#xac;" horiz-adv-x="620" 
d="M411 137v139h-320v115h438v-254h-118z" />
    <glyph glyph-name="uni00AD" unicode="&#xad;" horiz-adv-x="369" 
d="M47 238v112h275v-112h-275z" />
    <glyph glyph-name="registered" unicode="&#xae;" horiz-adv-x="543" 
d="M271 379q-69 0 -116.5 25.5t-71.5 69.5t-24 100q0 64 29 109.5t77.5 69.5t107.5 24q96 0 153.5 -53t57.5 -143q0 -60 -27.5 -105.5t-75.5 -71t-110 -25.5zM362 461q16 0 27.5 4t18.5 10l-7 19q-3 -1 -7 -2t-8 -1q-8 0 -13.5 6t-9.5 15l-10 27q-5 16 -18 27t-36 13v3
q15 2 30 8t25.5 18.5t10.5 31.5q0 32 -28 45.5t-71 13.5h-110v-23l19 -2q8 -1 11 -4.5t3 -10.5v-153q0 -7 -2 -11.5t-10 -5.5l-20 -1v-24h117v24l-18 1q-8 1 -10.5 5.5t-2.5 11.5v61h15q10 0 19 -5.5t15 -24.5l13 -37q8 -20 22 -29.5t35 -9.5zM243 594v79h16q20 0 34 -9
t14 -29q0 -18 -10.5 -29.5t-37.5 -11.5h-16z" />
    <glyph glyph-name="macron" unicode="&#xaf;" horiz-adv-x="500" 
d="M85 629v111h330v-111h-330z" />
    <glyph glyph-name="degree" unicode="&#xb0;" horiz-adv-x="409" 
d="M204 544q-79 0 -115 35t-36 86q0 53 37.5 90.5t117.5 37.5q70 0 109.5 -34t39.5 -88q0 -52 -40.5 -89.5t-112.5 -37.5zM206 611q29 0 47 15t18 43q0 29 -18 42.5t-47 13.5q-28 0 -45.5 -14.5t-17.5 -42.5q0 -27 17 -42t46 -15z" />
    <glyph glyph-name="plusminus" unicode="&#xb1;" horiz-adv-x="620" 
d="M247 173v138h-154v114h154v129h119v-129h161v-114h-161v-138h-119zM91 1v114h438v-114h-438z" />
    <glyph glyph-name="uni00B2" unicode="&#xb2;" horiz-adv-x="448" 
d="M47 374l-10 75q72 61 117 101t69.5 66.5t33.5 47t9 41.5q0 30 -19.5 47.5t-56.5 17.5q-22 0 -37 -4t-27 -10q8 -13 13.5 -23.5t5.5 -20.5q0 -16 -15 -30t-41 -14q-30 0 -46.5 14.5t-16.5 41.5q0 35 24.5 60.5t66 40t93.5 14.5q55 0 96.5 -13t65 -41t23.5 -71
q0 -28 -10 -52.5t-35.5 -51.5t-71 -62t-116.5 -83h90q32 0 47.5 5.5t24.5 20t20 41.5h67l-13 -158h-351z" />
    <glyph glyph-name="uni00B3" unicode="&#xb3;" horiz-adv-x="444" 
d="M213 361q-52 0 -88.5 11t-60.5 28.5t-40 33.5l51 63q15 -12 31 -22.5t36.5 -17t46.5 -6.5q28 0 46.5 7.5t27.5 20.5t9 30q0 22 -13.5 35t-41.5 18.5t-71 3.5l6 68q57 5 84 25t27 57q0 26 -18.5 41t-51.5 15q-21 0 -35 -3.5t-25 -10.5q8 -13 13.5 -22.5t5.5 -19.5
q0 -17 -15 -28.5t-40 -11.5q-30 0 -46 13.5t-16 38.5q0 32 24 57t65 39.5t92 14.5t90.5 -13t62 -38t22.5 -61q0 -41 -32 -71.5t-83 -42.5v-4q59 -6 94 -32.5t35 -77.5q0 -43 -26 -74t-69.5 -47.5t-96.5 -16.5z" />
    <glyph glyph-name="acute" unicode="&#xb4;" horiz-adv-x="500" 
d="M210 588l-39 39l112 155q13 19 25 25.5t26 6.5q22 0 35.5 -11.5t20 -27t6.5 -29.5q0 -16 -9 -31t-29 -28z" />
    <glyph glyph-name="uni00B5" unicode="&#xb5;" horiz-adv-x="703" 
d="M103 -225l-16 9q-3 44 -5.5 89t-3.5 94.5t-1 104.5v36.5v58.5v75.5v87.5v95v98l152 9l16 -9q-3 -64 -5.5 -120t-3.5 -106t-2 -95.5t-1 -87.5q13 -12 34.5 -18.5t48.5 -6.5q49 0 76.5 33t27.5 92v31t-0.5 43.5t-0.5 53t-0.5 59t-0.5 62v60.5l151 9l16 -9q-3 -32 -5 -70.5
t-3.5 -79.5t-3 -81t-2 -76t-0.5 -63q0 -21 5.5 -35.5t16.5 -22t26 -7.5q12 0 22.5 2t23.5 6l14 -63q-25 -20 -60.5 -32.5t-69.5 -12.5q-27 0 -51 13.5t-41 36.5t-23 52h-2q-12 -47 -45 -74.5t-79 -27.5q-22 0 -40 6.5t-32 19.5h-2q2 -39 6 -78t9 -76.5t12 -74.5z" />
    <glyph glyph-name="paragraph" unicode="&#xb6;" horiz-adv-x="684" 
d="M298 -144v76l90 4q20 2 27 12t7 38v714h220v-76l-44 -3q-20 -1 -27 -13t-7 -38v-714h-266zM324 240q-80 0 -138.5 24t-90.5 74.5t-32 126.5q0 78 29 130t87.5 78.5t148.5 26.5h27v-460h-31z" />
    <glyph glyph-name="periodcentered" unicode="&#xb7;" horiz-adv-x="351" 
d="M176 215q-46 0 -73.5 25t-27.5 66q0 40 27 64.5t74 24.5t73.5 -24.5t26.5 -64.5t-27.5 -65.5t-72.5 -25.5z" />
    <glyph glyph-name="cedilla" unicode="&#xb8;" horiz-adv-x="500" 
d="M258 -244q-47 0 -82 13t-52 24l23 56q19 -8 39.5 -13.5t38.5 -5.5q22 0 36.5 9t14.5 28q0 16 -12.5 25t-40.5 9q-10 0 -18.5 -1t-16.5 -4l-12 34l33 83h77l-23 -59q38 3 65.5 -7.5t42 -32t14.5 -51.5q0 -35 -16 -58.5t-45 -36t-66 -12.5z" />
    <glyph glyph-name="uni00B9" unicode="&#xb9;" horiz-adv-x="358" 
d="M44 374v62l59 6q15 2 20 9.5t5 22.5v229q0 20 -4.5 29.5t-27.5 11.5l-60 2l6 62l203 27l15 -12v-351q0 -14 5 -21t21 -9l56 -6v-62h-298z" />
    <glyph glyph-name="ordmasculine" unicode="&#xba;" horiz-adv-x="474" 
d="M233 361q-64 0 -109 22t-69 63.5t-24 98.5q0 72 29.5 115t78.5 62.5t108 19.5q55 0 99.5 -19t70.5 -58.5t26 -104.5q0 -66 -26 -110t-73.5 -66.5t-110.5 -22.5zM242 431q26 0 42 13t23.5 38.5t7.5 63.5q0 46 -9.5 73.5t-27.5 41t-44 13.5q-22 0 -39 -10.5t-27 -33.5
t-10 -62q0 -45 9 -75.5t27.5 -46t47.5 -15.5z" />
    <glyph glyph-name="guillemotright" unicode="&#xbb;" horiz-adv-x="596" 
d="M89 39l-58 42l131 188l-131 184l59 44l185 -156q17 -13 29.5 -30.5t12.5 -41.5t-13 -41.5t-32 -33.5zM326 39l-58 42l131 188l-131 184l59 44l185 -156q17 -13 29.5 -30.5t12.5 -41.5t-13 -41.5t-32 -33.5z" />
    <glyph glyph-name="onequarter" unicode="&#xbc;" horiz-adv-x="1055" 
d="M44 259v62l59 6q15 2 20 9.5t5 22.5v229q0 20 -4.5 29.5t-27.5 11.5l-60 2l6 62l203 27l15 -12v-351q0 -14 5 -21t21 -9l56 -6v-62h-298zM261 -14l417 728h131l-416 -728h-132zM833 0v86h-217l-11 61l224 308l121 10l13 -10v-296h71v-73h-71v-86h-130zM699 159h134v165
v11z" />
    <glyph glyph-name="onehalf" unicode="&#xbd;" horiz-adv-x="1122" 
d="M45 259v62l59 6q15 2 20 9.5t5 22.5v229q0 20 -4.5 29.5t-27.5 11.5l-60 2l6 62l203 27l15 -12v-351q0 -14 5 -21t21 -9l56 -6v-62h-298zM261 -14l417 728h131l-416 -728h-132zM721 13l-10 75q72 61 117 101t69.5 66.5t33.5 47t9 41.5q0 30 -19.5 47.5t-56.5 17.5
q-22 0 -37 -4t-27 -10q8 -13 13.5 -23.5t5.5 -20.5q0 -16 -15 -30t-41 -14q-30 0 -46.5 14.5t-16.5 41.5q0 35 24.5 60.5t66 40t93.5 14.5q55 0 96.5 -13t65 -41t23.5 -71q0 -28 -10 -52.5t-35.5 -51.5t-71 -62t-116.5 -83h90q32 0 47.5 5.5t24.5 20t20 41.5h67l-13 -158
h-351z" />
    <glyph glyph-name="threequarters" unicode="&#xbe;" horiz-adv-x="1088" 
d="M295 -14l417 728h131l-416 -728h-132zM866 0v86h-217l-11 61l224 308l121 10l13 -10v-296h71v-73h-71v-86h-130zM732 159h134v165v11zM214 241q-52 0 -88.5 11t-60.5 28.5t-40 33.5l51 63q15 -12 31 -22.5t36.5 -17t46.5 -6.5q28 0 46.5 7.5t27.5 20.5t9 30
q0 22 -13.5 35t-41.5 18.5t-71 3.5l6 68q57 5 84 25t27 57q0 26 -18.5 41t-51.5 15q-21 0 -35 -3.5t-25 -10.5q8 -13 13.5 -22.5t5.5 -19.5q0 -17 -15 -28.5t-40 -11.5q-30 0 -46 13.5t-16 38.5q0 32 24 57t65 39.5t92 14.5t90.5 -13t62 -38t22.5 -61q0 -41 -32 -71.5
t-83 -42.5v-4q59 -6 94 -32.5t35 -77.5q0 -43 -26 -74t-69.5 -47.5t-96.5 -16.5z" />
    <glyph glyph-name="questiondown" unicode="&#xbf;" horiz-adv-x="608" 
d="M389 299v-109q0 -25 -4.5 -44.5t-20.5 -39t-49 -44.5q-45 -35 -65 -57.5t-20 -47.5q0 -33 28.5 -53.5t75.5 -20.5q36 0 58.5 7.5t38.5 20.5q-11 18 -19 33.5t-8 30.5q0 21 18.5 38t53.5 17q38 0 58 -20t20 -54q0 -41 -31.5 -76t-88 -56t-130.5 -21q-69 0 -122 20
t-83.5 56.5t-30.5 86.5q0 35 14.5 64t44 57t74.5 63q28 24 44.5 39.5t24.5 26.5t10.5 20t2.5 19v44h106zM338 532q43 0 68.5 -24t25.5 -62t-25 -61.5t-69 -23.5q-45 0 -70 23t-25 62q0 38 26 62t69 24z" />
    <glyph glyph-name="Agrave" unicode="&#xc0;" 
d="M11 0v78l48 5q19 2 30 14t22 40l223 563h170l219 -567q10 -27 20.5 -38.5t30.5 -13.5l41 -4v-77h-343v77l52 4q18 2 24 14.5t-4 37.5l-29 75h-265l-28 -73q-10 -22 -6 -38t31 -18l49 -3v-76h-285zM280 295h208l-98 274h-6zM488 747l-169 70q-27 12 -39.5 28t-12.5 38
q0 26 15.5 47.5t44.5 21.5q11 0 22 -4.5t26 -18.5l145 -135z" />
    <glyph glyph-name="Aacute" unicode="&#xc1;" 
d="M11 0v78l48 5q19 2 30 14t22 40l223 563h170l219 -567q10 -27 20.5 -38.5t30.5 -13.5l41 -4v-77h-343v77l52 4q18 2 24 14.5t-4 37.5l-29 75h-265l-28 -73q-10 -22 -6 -38t31 -18l49 -3v-76h-285zM280 295h208l-98 274h-6zM349 747l-32 47l145 135q15 14 26 18.5t22 4.5
q29 0 44.5 -21.5t15.5 -47.5q0 -22 -12 -38t-40 -28z" />
    <glyph glyph-name="Acircumflex" unicode="&#xc2;" 
d="M11 0v78l48 5q19 2 30 14t22 40l223 563h170l219 -567q10 -27 20.5 -38.5t30.5 -13.5l41 -4v-77h-343v77l52 4q18 2 24 14.5t-4 37.5l-29 75h-265l-28 -73q-10 -22 -6 -38t31 -18l49 -3v-76h-285zM280 295h208l-98 274h-6zM267 741l-37 48l127 134q17 19 31 27t34 8
q17 0 31.5 -8t33.5 -29l119 -130l-36 -50l-151 87z" />
    <glyph glyph-name="Atilde" unicode="&#xc3;" 
d="M11 0v78l48 5q19 2 30 14t22 40l223 563h170l219 -567q10 -27 20.5 -38.5t30.5 -13.5l41 -4v-77h-343v77l52 4q18 2 24 14.5t-4 37.5l-29 75h-265l-28 -73q-10 -22 -6 -38t31 -18l49 -3v-76h-285zM280 295h208l-98 274h-6zM501 772q-26 0 -49 6.5t-47 16.5
q-18 8 -32.5 14t-26 8.5t-21.5 2.5q-14 0 -25 -8.5t-24 -30.5l-55 32q20 46 37.5 71t37.5 35t45 10q26 0 48.5 -7t47.5 -18q25 -10 44.5 -16.5t32.5 -6.5q14 0 24 9.5t22 30.5l55 -31q-19 -44 -36 -69.5t-36 -37t-42 -11.5z" />
    <glyph glyph-name="Adieresis" unicode="&#xc4;" 
d="M11 0v78l48 5q19 2 30 14t22 40l223 563h170l219 -567q10 -27 20.5 -38.5t30.5 -13.5l41 -4v-77h-343v77l52 4q18 2 24 14.5t-4 37.5l-29 75h-265l-28 -73q-10 -22 -6 -38t31 -18l49 -3v-76h-285zM280 295h208l-98 274h-6zM534 773q-37 0 -61.5 21.5t-24.5 58.5
q0 36 24.5 57.5t61.5 21.5q43 0 65 -21.5t22 -57.5t-24.5 -58t-62.5 -22zM299 773q-38 0 -61.5 21.5t-23.5 58.5q0 36 23.5 57.5t61.5 21.5q43 0 65 -21.5t22 -57.5t-24.5 -58t-62.5 -22z" />
    <glyph glyph-name="Aring" unicode="&#xc5;" 
d="M11 0v78l48 5q19 2 30 14t22 40l223 563h170l219 -567q10 -27 20.5 -38.5t30.5 -13.5l41 -4v-77h-343v77l52 4q18 2 24 14.5t-4 37.5l-29 75h-265l-28 -73q-10 -22 -6 -38t31 -18l49 -3v-76h-285zM280 295h208l-98 274h-6zM414 749q-70 0 -110 31t-40 85q0 37 20 63.5
t55.5 40.5t82.5 14q74 0 112.5 -29.5t38.5 -86.5q0 -37 -20 -63.5t-56 -40.5t-83 -14zM419 807q26 0 38 14t12 46q0 22 -6 34.5t-17 18.5t-29 6q-25 0 -37.5 -14.5t-12.5 -45.5q0 -21 5.5 -34t17 -19t29.5 -6z" />
    <glyph glyph-name="AE" unicode="&#xc6;" horiz-adv-x="1097" 
d="M11 0v77l40 5q10 2 18 5.5t16 14t18 31.5l247 487l-83 5v75h728l36 -188l-91 -15q-13 38 -25 60.5t-27.5 35t-37.5 16.5t-55 4h-110v-228h68q20 0 32.5 3t20 10.5t13 22.5t10.5 39l70 6v-236l-71 -10q-4 34 -12 51t-22.5 22.5t-42.5 5.5h-66v-211h130q33 0 56 5.5
t39 19.5t27 39t20 64h93l-26 -216h-590v76l53 4q19 1 26 11t7 40v168h-217l-80 -159q-8 -15 -10.5 -26t-0.5 -18.5t10.5 -11.5t22.5 -5l48 -3l-1 -76h-281zM343 385h177v228h-68z" />
    <glyph glyph-name="Ccedilla" unicode="&#xc7;" horiz-adv-x="773" 
d="M424 -244q-48 0 -82.5 13t-51.5 24l23 56q19 -8 39.5 -13.5t38.5 -5.5q22 0 36.5 9t14.5 28q0 16 -12.5 25t-40.5 9q-10 0 -19 -1t-17 -4l-11 34l23 59q-97 10 -166 55.5t-106 122.5t-37 181q0 83 25.5 150.5t73.5 115.5t114.5 74t148.5 26q54 0 96.5 -14.5t76.5 -40.5
l13 55h67l41 -244l-84 -17q-21 58 -49.5 93t-65 51.5t-83.5 16.5q-65 0 -109 -28.5t-66.5 -82.5t-22.5 -130q0 -73 18 -124.5t48.5 -83.5t71 -46.5t85.5 -14.5q48 0 87 12t69.5 32.5t54.5 45.5l58 -68q-17 -23 -41 -44t-54 -39.5t-67 -32t-79 -19.5q-10 -1 -20.5 -2.5
t-20.5 -1.5l-13 -33q38 3 65 -7.5t42 -32t15 -51.5q0 -35 -16.5 -58.5t-45 -36t-65.5 -12.5z" />
    <glyph glyph-name="Egrave" unicode="&#xc8;" horiz-adv-x="723" 
d="M58 0v76l53 4q18 1 25.5 10t7.5 41v443q0 26 -7 36t-28 11l-51 3v76h563l36 -188l-91 -15q-12 36 -23.5 59t-27 35.5t-38 17t-56.5 4.5h-110v-216h68q26 0 39.5 5t21 20.5t15.5 48.5l70 6v-235l-71 -11q-5 34 -12.5 51.5t-22 23t-42.5 5.5h-66v-223h130q35 0 58.5 6.5
t38.5 20.5t25.5 39t19.5 62h93l-26 -216h-592zM434 747l-169 70q-27 12 -39.5 28t-12.5 38q0 26 15.5 47.5t44.5 21.5q11 0 22 -4.5t26 -18.5l145 -135z" />
    <glyph glyph-name="Eacute" unicode="&#xc9;" horiz-adv-x="723" 
d="M58 0v76l53 4q18 1 25.5 10t7.5 41v443q0 26 -7 36t-28 11l-51 3v76h563l36 -188l-91 -15q-12 36 -23.5 59t-27 35.5t-38 17t-56.5 4.5h-110v-216h68q26 0 39.5 5t21 20.5t15.5 48.5l70 6v-235l-71 -11q-5 34 -12.5 51.5t-22 23t-42.5 5.5h-66v-223h130q35 0 58.5 6.5
t38.5 20.5t25.5 39t19.5 62h93l-26 -216h-592zM295 747l-32 47l145 135q15 14 26 18.5t22 4.5q29 0 44.5 -21.5t15.5 -47.5q0 -22 -12 -38t-40 -28z" />
    <glyph glyph-name="Ecircumflex" unicode="&#xca;" horiz-adv-x="723" 
d="M58 0v76l53 4q18 1 25.5 10t7.5 41v443q0 26 -7 36t-28 11l-51 3v76h563l36 -188l-91 -15q-12 36 -23.5 59t-27 35.5t-38 17t-56.5 4.5h-110v-216h68q26 0 39.5 5t21 20.5t15.5 48.5l70 6v-235l-71 -11q-5 34 -12.5 51.5t-22 23t-42.5 5.5h-66v-223h130q35 0 58.5 6.5
t38.5 20.5t25.5 39t19.5 62h93l-26 -216h-592zM213 741l-37 48l127 134q17 19 31 27t34 8q17 0 31.5 -8t33.5 -29l119 -130l-36 -50l-151 87z" />
    <glyph glyph-name="Edieresis" unicode="&#xcb;" horiz-adv-x="723" 
d="M58 0v76l53 4q18 1 25.5 10t7.5 41v443q0 26 -7 36t-28 11l-51 3v76h563l36 -188l-91 -15q-12 36 -23.5 59t-27 35.5t-38 17t-56.5 4.5h-110v-216h68q26 0 39.5 5t21 20.5t15.5 48.5l70 6v-235l-71 -11q-5 34 -12.5 51.5t-22 23t-42.5 5.5h-66v-223h130q35 0 58.5 6.5
t38.5 20.5t25.5 39t19.5 62h93l-26 -216h-592zM480 773q-37 0 -61.5 21.5t-24.5 58.5q0 36 24.5 57.5t61.5 21.5q43 0 65 -21.5t22 -57.5t-24.5 -58t-62.5 -22zM245 773q-38 0 -61.5 21.5t-23.5 58.5q0 36 23.5 57.5t61.5 21.5q43 0 65 -21.5t22 -57.5t-24.5 -58t-62.5 -22z
" />
    <glyph glyph-name="Igrave" unicode="&#xcc;" horiz-adv-x="456" 
d="M58 0v76l53 4q20 1 26.5 12t6.5 38v443q0 25 -6 36t-30 12l-50 3v76h339v-76l-53 -4q-19 -1 -26 -11t-7 -39v-443q0 -25 6.5 -35t28.5 -12l51 -4v-76h-339zM299 747l-169 70q-27 12 -39.5 28t-12.5 38q0 26 15.5 47.5t44.5 21.5q11 0 22 -4.5t26 -18.5l145 -135z" />
    <glyph glyph-name="Iacute" unicode="&#xcd;" horiz-adv-x="456" 
d="M58 0v76l53 4q20 1 26.5 12t6.5 38v443q0 25 -6 36t-30 12l-50 3v76h339v-76l-53 -4q-19 -1 -26 -11t-7 -39v-443q0 -25 6.5 -35t28.5 -12l51 -4v-76h-339zM160 747l-32 47l145 135q15 14 26 18.5t22 4.5q29 0 44.5 -21.5t15.5 -47.5q0 -22 -12 -38t-40 -28z" />
    <glyph glyph-name="Icircumflex" unicode="&#xce;" horiz-adv-x="456" 
d="M58 0v76l53 4q20 1 26.5 12t6.5 38v443q0 25 -6 36t-30 12l-50 3v76h339v-76l-53 -4q-19 -1 -26 -11t-7 -39v-443q0 -25 6.5 -35t28.5 -12l51 -4v-76h-339zM78 741l-37 48l127 134q17 19 31 27t34 8q17 0 31.5 -8t33.5 -29l119 -130l-36 -50l-151 87z" />
    <glyph glyph-name="Idieresis" unicode="&#xcf;" horiz-adv-x="456" 
d="M58 0v76l53 4q20 1 26.5 12t6.5 38v443q0 25 -6 36t-30 12l-50 3v76h339v-76l-53 -4q-19 -1 -26 -11t-7 -39v-443q0 -25 6.5 -35t28.5 -12l51 -4v-76h-339zM345 773q-37 0 -61.5 21.5t-24.5 58.5q0 36 24.5 57.5t61.5 21.5q43 0 65 -21.5t22 -57.5t-24.5 -58t-62.5 -22z
M110 773q-38 0 -61.5 21.5t-23.5 58.5q0 36 23.5 57.5t61.5 21.5q43 0 65 -21.5t22 -57.5t-24.5 -58t-62.5 -22z" />
    <glyph glyph-name="Eth" unicode="&#xd0;" horiz-adv-x="852" 
d="M405 700q66 0 125 -10.5t108 -34t84.5 -62t55 -93.5t19.5 -129q0 -91 -29 -160t-85 -116t-139 -71t-190 -24h-295v76l52 4q20 2 27 11.5t7 39.5v179h-111l10 98h101v166q0 24 -6 35t-30 12l-50 3v76h346zM380 94q65 0 110 16.5t74 49.5t42 84t13 120q0 83 -25.5 136.5
t-75.5 79.5t-124 26h-82v-198h151v-98h-151v-214q17 -1 34 -1.5t34 -0.5z" />
    <glyph glyph-name="Ntilde" unicode="&#xd1;" horiz-adv-x="917" 
d="M58 0v76l53 4q19 1 26 11.5t7 39.5v442q0 25 -6 36t-29 12l-51 3v76h273l327 -488h5v361q0 25 -7 35.5t-29 11.5l-48 4v76h286v-76l-51 -3q-19 -1 -26.5 -12t-7.5 -39v-570h-172l-342 491h-5v-364q0 -23 5.5 -34t29.5 -13l51 -4v-76h-289zM536 772q-26 0 -49 6.5
t-47 16.5q-18 8 -32.5 14t-26 8.5t-21.5 2.5q-14 0 -25 -8.5t-24 -30.5l-55 32q20 46 37.5 71t37.5 35t45 10q26 0 48.5 -7t47.5 -18q25 -10 44.5 -16.5t32.5 -6.5q14 0 24 9.5t22 30.5l55 -31q-19 -44 -36 -69.5t-36 -37t-42 -11.5z" />
    <glyph glyph-name="Ograve" unicode="&#xd2;" horiz-adv-x="854" 
d="M421 -14q-118 0 -200 45.5t-123.5 125t-41.5 181.5q0 120 47 204t133 128t202 44q109 0 190.5 -41t126.5 -118.5t45 -187.5q0 -81 -25.5 -150.5t-74 -121t-118.5 -80.5t-161 -29zM434 89q45 0 80 14.5t58.5 46t36 81t12.5 118.5q0 66 -13.5 115.5t-39 82.5t-62 49
t-84.5 16q-46 0 -81 -15t-58.5 -46t-36 -79.5t-12.5 -114.5q0 -67 13 -117t38.5 -83.5t63 -50.5t85.5 -17zM499 747l-169 70q-27 12 -39.5 28t-12.5 38q0 26 15.5 47.5t44.5 21.5q11 0 22 -4.5t26 -18.5l145 -135z" />
    <glyph glyph-name="Oacute" unicode="&#xd3;" horiz-adv-x="854" 
d="M421 -14q-118 0 -200 45.5t-123.5 125t-41.5 181.5q0 120 47 204t133 128t202 44q109 0 190.5 -41t126.5 -118.5t45 -187.5q0 -81 -25.5 -150.5t-74 -121t-118.5 -80.5t-161 -29zM434 89q45 0 80 14.5t58.5 46t36 81t12.5 118.5q0 66 -13.5 115.5t-39 82.5t-62 49
t-84.5 16q-46 0 -81 -15t-58.5 -46t-36 -79.5t-12.5 -114.5q0 -67 13 -117t38.5 -83.5t63 -50.5t85.5 -17zM360 747l-32 47l145 135q15 14 26 18.5t22 4.5q29 0 44.5 -21.5t15.5 -47.5q0 -22 -12 -38t-40 -28z" />
    <glyph glyph-name="Ocircumflex" unicode="&#xd4;" horiz-adv-x="854" 
d="M421 -14q-118 0 -200 45.5t-123.5 125t-41.5 181.5q0 120 47 204t133 128t202 44q109 0 190.5 -41t126.5 -118.5t45 -187.5q0 -81 -25.5 -150.5t-74 -121t-118.5 -80.5t-161 -29zM434 89q45 0 80 14.5t58.5 46t36 81t12.5 118.5q0 66 -13.5 115.5t-39 82.5t-62 49
t-84.5 16q-46 0 -81 -15t-58.5 -46t-36 -79.5t-12.5 -114.5q0 -67 13 -117t38.5 -83.5t63 -50.5t85.5 -17zM278 741l-37 48l127 134q17 19 31 27t34 8q17 0 31.5 -8t33.5 -29l119 -130l-36 -50l-151 87z" />
    <glyph glyph-name="Otilde" unicode="&#xd5;" horiz-adv-x="854" 
d="M421 -14q-118 0 -200 45.5t-123.5 125t-41.5 181.5q0 120 47 204t133 128t202 44q109 0 190.5 -41t126.5 -118.5t45 -187.5q0 -81 -25.5 -150.5t-74 -121t-118.5 -80.5t-161 -29zM434 89q45 0 80 14.5t58.5 46t36 81t12.5 118.5q0 66 -13.5 115.5t-39 82.5t-62 49
t-84.5 16q-46 0 -81 -15t-58.5 -46t-36 -79.5t-12.5 -114.5q0 -67 13 -117t38.5 -83.5t63 -50.5t85.5 -17zM512 772q-26 0 -49 6.5t-47 16.5q-18 8 -32.5 14t-26 8.5t-21.5 2.5q-14 0 -25 -8.5t-24 -30.5l-55 32q20 46 37.5 71t37.5 35t45 10q26 0 48.5 -7t47.5 -18
q25 -10 44.5 -16.5t32.5 -6.5q14 0 24 9.5t22 30.5l55 -31q-19 -44 -36 -69.5t-36 -37t-42 -11.5z" />
    <glyph glyph-name="Odieresis" unicode="&#xd6;" horiz-adv-x="854" 
d="M421 -14q-118 0 -200 45.5t-123.5 125t-41.5 181.5q0 120 47 204t133 128t202 44q109 0 190.5 -41t126.5 -118.5t45 -187.5q0 -81 -25.5 -150.5t-74 -121t-118.5 -80.5t-161 -29zM434 89q45 0 80 14.5t58.5 46t36 81t12.5 118.5q0 66 -13.5 115.5t-39 82.5t-62 49
t-84.5 16q-46 0 -81 -15t-58.5 -46t-36 -79.5t-12.5 -114.5q0 -67 13 -117t38.5 -83.5t63 -50.5t85.5 -17zM545 773q-37 0 -61.5 21.5t-24.5 58.5q0 36 24.5 57.5t61.5 21.5q43 0 65 -21.5t22 -57.5t-24.5 -58t-62.5 -22zM310 773q-38 0 -61.5 21.5t-23.5 58.5
q0 36 23.5 57.5t61.5 21.5q43 0 65 -21.5t22 -57.5t-24.5 -58t-62.5 -22z" />
    <glyph glyph-name="multiply" unicode="&#xd7;" horiz-adv-x="620" 
d="M433 102l-123 123l-121 -121l-80 79l121 122l-120 119l80 79l119 -119l123 124l80 -81l-123 -124l123 -122z" />
    <glyph glyph-name="Oslash" unicode="&#xd8;" horiz-adv-x="864" 
d="M50 -14l96 108q-42 47 -63.5 109t-21.5 135q0 120 47 204t133 128t203 44q61 0 114.5 -13.5t95.5 -38.5l47 52h117l-96 -108q40 -44 61.5 -104t21.5 -135q0 -81 -25.5 -150.5t-74 -121t-118.5 -80.5t-161 -29q-63 0 -116 13.5t-95 38.5l-47 -52h-118zM439 89
q45 0 80 14.5t58.5 46t36 81t12.5 118.5q0 38 -6 70.5t-17 57.5l-297 -338q17 -16 37 -27.5t44.5 -17t51.5 -5.5zM265 222l297 338q-17 18 -37.5 29.5t-45 17t-52.5 5.5q-46 0 -81 -15t-58.5 -46t-36 -79.5t-12.5 -114.5q0 -40 7 -74t19 -61z" />
    <glyph glyph-name="Ugrave" unicode="&#xd9;" horiz-adv-x="871" 
d="M437 -14q-85 0 -143.5 20t-94 56.5t-52 86.5t-16.5 109v315q0 26 -6.5 36.5t-29.5 11.5l-47 3v76h334v-76l-49 -4q-18 -1 -25.5 -12t-7.5 -39v-310q0 -51 15.5 -87.5t51 -56.5t97.5 -20t99.5 19.5t55 57t17.5 89.5v312q0 26 -7 36.5t-29 11.5l-47 3v76h271v-76l-49 -4
q-18 -1 -25.5 -12t-7.5 -39v-298q0 -95 -34 -158.5t-102 -95t-169 -31.5zM529 747l-169 70q-27 12 -39.5 28t-12.5 38q0 26 15.5 47.5t44.5 21.5q11 0 22 -4.5t26 -18.5l145 -135z" />
    <glyph glyph-name="Uacute" unicode="&#xda;" horiz-adv-x="871" 
d="M437 -14q-85 0 -143.5 20t-94 56.5t-52 86.5t-16.5 109v315q0 26 -6.5 36.5t-29.5 11.5l-47 3v76h334v-76l-49 -4q-18 -1 -25.5 -12t-7.5 -39v-310q0 -51 15.5 -87.5t51 -56.5t97.5 -20t99.5 19.5t55 57t17.5 89.5v312q0 26 -7 36.5t-29 11.5l-47 3v76h271v-76l-49 -4
q-18 -1 -25.5 -12t-7.5 -39v-298q0 -95 -34 -158.5t-102 -95t-169 -31.5zM390 747l-32 47l145 135q15 14 26 18.5t22 4.5q29 0 44.5 -21.5t15.5 -47.5q0 -22 -12 -38t-40 -28z" />
    <glyph glyph-name="Ucircumflex" unicode="&#xdb;" horiz-adv-x="871" 
d="M437 -14q-85 0 -143.5 20t-94 56.5t-52 86.5t-16.5 109v315q0 26 -6.5 36.5t-29.5 11.5l-47 3v76h334v-76l-49 -4q-18 -1 -25.5 -12t-7.5 -39v-310q0 -51 15.5 -87.5t51 -56.5t97.5 -20t99.5 19.5t55 57t17.5 89.5v312q0 26 -7 36.5t-29 11.5l-47 3v76h271v-76l-49 -4
q-18 -1 -25.5 -12t-7.5 -39v-298q0 -95 -34 -158.5t-102 -95t-169 -31.5zM308 741l-37 48l127 134q17 19 31 27t34 8q17 0 31.5 -8t33.5 -29l119 -130l-36 -50l-151 87z" />
    <glyph glyph-name="Udieresis" unicode="&#xdc;" horiz-adv-x="871" 
d="M437 -14q-85 0 -143.5 20t-94 56.5t-52 86.5t-16.5 109v315q0 26 -6.5 36.5t-29.5 11.5l-47 3v76h334v-76l-49 -4q-18 -1 -25.5 -12t-7.5 -39v-310q0 -51 15.5 -87.5t51 -56.5t97.5 -20t99.5 19.5t55 57t17.5 89.5v312q0 26 -7 36.5t-29 11.5l-47 3v76h271v-76l-49 -4
q-18 -1 -25.5 -12t-7.5 -39v-298q0 -95 -34 -158.5t-102 -95t-169 -31.5zM575 773q-37 0 -61.5 21.5t-24.5 58.5q0 36 24.5 57.5t61.5 21.5q43 0 65 -21.5t22 -57.5t-24.5 -58t-62.5 -22zM340 773q-38 0 -61.5 21.5t-23.5 58.5q0 36 23.5 57.5t61.5 21.5q43 0 65 -21.5
t22 -57.5t-24.5 -58t-62.5 -22z" />
    <glyph glyph-name="Yacute" unicode="&#xdd;" horiz-adv-x="800" 
d="M218 0v76l65 4q17 1 25.5 9.5t8.5 40.5v133l-199 306q-13 21 -25.5 34.5t-39.5 16.5l-41 4v76h351v-76l-56 -3q-21 -1 -25.5 -14t11.5 -36l136 -200h5l128 194q14 21 13.5 36.5t-31.5 17.5l-52 5v76h296v-76l-50 -3q-22 -2 -35.5 -16.5t-29.5 -40.5l-193 -301v-137
q0 -26 7 -35.5t28 -11.5l65 -3v-76h-362zM353 747l-32 47l145 135q15 14 26 18.5t22 4.5q29 0 44.5 -21.5t15.5 -47.5q0 -22 -12 -38t-40 -28z" />
    <glyph glyph-name="Thorn" unicode="&#xde;" horiz-adv-x="705" 
d="M58 0v76l52 4q17 1 25.5 9.5t8.5 40.5v443q0 21 -5 33.5t-31 13.5l-50 4v76h377v-76l-87 -3q-21 -1 -29 -11t-8 -39v-27h72q48 0 93 -4.5t82.5 -16t65.5 -32.5t43.5 -53.5t15.5 -79.5q0 -44 -16 -77t-44 -57t-63.5 -38.5t-75.5 -21t-79 -6.5q-18 0 -37 0.5t-34 2t-23 2.5
v-35q0 -26 7.5 -36.5t29.5 -11.5l87 -4v-76h-377zM311 249q10 -2 25.5 -3t31.5 -1q36 0 62.5 7.5t44 22t26.5 36.5t9 50q0 39 -17 61t-49 31.5t-78 9.5h-55v-214z" />
    <glyph glyph-name="germandbls" unicode="&#xdf;" horiz-adv-x="839" 
d="M369 -14l-14 178l85 5q9 -24 23.5 -42t34 -31t42 -20t47.5 -7t44 7.5t29.5 22t10.5 35.5q0 25 -18.5 40t-47 26t-60.5 22t-61 28t-47.5 44t-18.5 70q0 35 12 59.5t30 45l36 41t30 46t12 61.5q0 37 -17 56.5t-43 27.5t-52 8q-29 0 -54 -8t-43.5 -25t-28.5 -44t-10 -65
v-567h-242v75l52 3q19 1 25 12.5t6 36.5v301h-82v75l83 12v21q0 57 20.5 103t59.5 77.5t95.5 48.5t129.5 17q68 0 125.5 -15.5t91.5 -46.5t34 -78q0 -31 -14 -55t-34.5 -43.5t-42 -37t-35.5 -36t-14 -41.5q0 -27 19 -44t48 -30t62.5 -26t62.5 -32t48 -48.5t19 -76.5
q0 -53 -27 -95t-74 -66.5t-109 -24.5q-57 0 -93 14t-55 27l-12 -41h-68z" />
    <glyph glyph-name="agrave" unicode="&#xe0;" horiz-adv-x="636" 
d="M217 -14q-76 0 -120 38t-44 101q0 61 31.5 96t101.5 51.5t183 20.5v68q0 30 -7.5 53.5t-28.5 37.5t-62 14q-26 0 -49 -6t-37 -16q10 -16 16 -27.5t9 -20t3 -14.5q0 -24 -21 -39t-58 -15t-55.5 17t-18.5 48q0 40 30.5 73t84.5 52t123 19q84 0 134.5 -23t73 -66t22.5 -103
v-216q0 -20 9.5 -32.5t32.5 -12.5q13 0 24 2.5t23 6.5l15 -62q-20 -17 -55 -31t-75 -14q-50 0 -79 22.5t-37 59.5q-16 -22 -39.5 -41t-55.5 -30t-74 -11zM279 77q26 0 46.5 10t32 27.5t11.5 39.5v67q-55 0 -89.5 -8.5t-51.5 -25.5t-17 -44q0 -30 17.5 -48t50.5 -18zM340 594
l-148 99q-20 13 -29 28t-9 31q0 14 6.5 29.5t20.5 27t35 11.5q15 0 26.5 -6.5t24.5 -25.5l112 -155z" />
    <glyph glyph-name="aacute" unicode="&#xe1;" horiz-adv-x="636" 
d="M217 -14q-76 0 -120 38t-44 101q0 61 31.5 96t101.5 51.5t183 20.5v68q0 30 -7.5 53.5t-28.5 37.5t-62 14q-26 0 -49 -6t-37 -16q10 -16 16 -27.5t9 -20t3 -14.5q0 -24 -21 -39t-58 -15t-55.5 17t-18.5 48q0 40 30.5 73t84.5 52t123 19q84 0 134.5 -23t73 -66t22.5 -103
v-216q0 -20 9.5 -32.5t32.5 -12.5q13 0 24 2.5t23 6.5l15 -62q-20 -17 -55 -31t-75 -14q-50 0 -79 22.5t-37 59.5q-16 -22 -39.5 -41t-55.5 -30t-74 -11zM279 77q26 0 46.5 10t32 27.5t11.5 39.5v67q-55 0 -89.5 -8.5t-51.5 -25.5t-17 -44q0 -30 17.5 -48t50.5 -18zM259 594
l-39 39l112 155q13 19 25 25.5t26 6.5q22 0 35.5 -11.5t20 -27t6.5 -29.5q0 -16 -9 -31t-29 -28z" />
    <glyph glyph-name="acircumflex" unicode="&#xe2;" horiz-adv-x="636" 
d="M217 -14q-76 0 -120 38t-44 101q0 61 31.5 96t101.5 51.5t183 20.5v68q0 30 -7.5 53.5t-28.5 37.5t-62 14q-26 0 -49 -6t-37 -16q10 -16 16 -27.5t9 -20t3 -14.5q0 -24 -21 -39t-58 -15t-55.5 17t-18.5 48q0 40 30.5 73t84.5 52t123 19q84 0 134.5 -23t73 -66t22.5 -103
v-216q0 -20 9.5 -32.5t32.5 -12.5q13 0 24 2.5t23 6.5l15 -62q-20 -17 -55 -31t-75 -14q-50 0 -79 22.5t-37 59.5q-16 -22 -39.5 -41t-55.5 -30t-74 -11zM279 77q26 0 46.5 10t32 27.5t11.5 39.5v67q-55 0 -89.5 -8.5t-51.5 -25.5t-17 -44q0 -30 17.5 -48t50.5 -18zM154 594
l-44 42l118 147q18 23 34 31.5t38 8.5q20 0 32 -5.5t22.5 -15.5t23.5 -27l111 -139l-44 -42l-145 104z" />
    <glyph glyph-name="atilde" unicode="&#xe3;" horiz-adv-x="636" 
d="M217 -14q-76 0 -120 38t-44 101q0 61 31.5 96t101.5 51.5t183 20.5v68q0 30 -7.5 53.5t-28.5 37.5t-62 14q-26 0 -49 -6t-37 -16q10 -16 16 -27.5t9 -20t3 -14.5q0 -24 -21 -39t-58 -15t-55.5 17t-18.5 48q0 40 30.5 73t84.5 52t123 19q84 0 134.5 -23t73 -66t22.5 -103
v-216q0 -20 9.5 -32.5t32.5 -12.5q13 0 24 2.5t23 6.5l15 -62q-20 -17 -55 -31t-75 -14q-50 0 -79 22.5t-37 59.5q-16 -22 -39.5 -41t-55.5 -30t-74 -11zM279 77q26 0 46.5 10t32 27.5t11.5 39.5v67q-55 0 -89.5 -8.5t-51.5 -25.5t-17 -44q0 -30 17.5 -48t50.5 -18zM380 617
q-26 0 -49 6.5t-47 16.5q-18 8 -32.5 14t-26 8.5t-21.5 2.5q-14 0 -25 -8.5t-24 -30.5l-55 32q20 46 37.5 71t37.5 35t45 10q26 0 48.5 -7t47.5 -18q25 -10 44.5 -16.5t32.5 -6.5q14 0 24 9.5t22 30.5l55 -31q-19 -44 -36 -69.5t-36 -37t-42 -11.5z" />
    <glyph glyph-name="adieresis" unicode="&#xe4;" horiz-adv-x="636" 
d="M217 -14q-76 0 -120 38t-44 101q0 61 31.5 96t101.5 51.5t183 20.5v68q0 30 -7.5 53.5t-28.5 37.5t-62 14q-26 0 -49 -6t-37 -16q10 -16 16 -27.5t9 -20t3 -14.5q0 -24 -21 -39t-58 -15t-55.5 17t-18.5 48q0 40 30.5 73t84.5 52t123 19q84 0 134.5 -23t73 -66t22.5 -103
v-216q0 -20 9.5 -32.5t32.5 -12.5q13 0 24 2.5t23 6.5l15 -62q-20 -17 -55 -31t-75 -14q-50 0 -79 22.5t-37 59.5q-16 -22 -39.5 -41t-55.5 -30t-74 -11zM279 77q26 0 46.5 10t32 27.5t11.5 39.5v67q-55 0 -89.5 -8.5t-51.5 -25.5t-17 -44q0 -30 17.5 -48t50.5 -18zM416 618
q-38 0 -62 22t-24 59q0 35 24 56.5t62 21.5q42 0 64 -21.5t22 -56.5q0 -36 -24.5 -58.5t-61.5 -22.5zM181 618q-38 0 -61.5 22t-23.5 59q0 35 23.5 56.5t61.5 21.5q42 0 64 -21.5t22 -56.5q0 -36 -24 -58.5t-62 -22.5z" />
    <glyph glyph-name="aring" unicode="&#xe5;" horiz-adv-x="636" 
d="M217 -14q-76 0 -120 38t-44 101q0 61 31.5 96t101.5 51.5t183 20.5v68q0 30 -7.5 53.5t-28.5 37.5t-62 14q-26 0 -49 -6t-37 -16q10 -16 16 -27.5t9 -20t3 -14.5q0 -24 -21 -39t-58 -15t-55.5 17t-18.5 48q0 40 30.5 73t84.5 52t123 19q84 0 134.5 -23t73 -66t22.5 -103
v-216q0 -20 9.5 -32.5t32.5 -12.5q13 0 24 2.5t23 6.5l15 -62q-20 -17 -55 -31t-75 -14q-50 0 -79 22.5t-37 59.5q-16 -22 -39.5 -41t-55.5 -30t-74 -11zM279 77q26 0 46.5 10t32 27.5t11.5 39.5v67q-55 0 -89.5 -8.5t-51.5 -25.5t-17 -44q0 -30 17.5 -48t50.5 -18zM294 597
q-70 0 -109.5 31.5t-39.5 85.5q0 37 20 63t55 40.5t83 14.5q74 0 112 -30t38 -86q0 -37 -20 -63.5t-55.5 -41t-83.5 -14.5zM299 656q18 0 29 6t16 19.5t5 33.5q0 22 -6 35t-17 18.5t-28 5.5q-18 0 -28.5 -6.5t-16 -19t-5.5 -32.5q0 -22 5.5 -35.5t16.5 -19t29 -5.5z" />
    <glyph glyph-name="ae" unicode="&#xe6;" horiz-adv-x="934" 
d="M217 -14q-51 0 -88 17.5t-56.5 49t-19.5 72.5q0 67 38.5 102.5t126.5 51.5q30 6 68 9.5t83 4.5v68q0 30 -7.5 53.5t-28.5 37.5t-62 14q-26 0 -49 -6t-37 -16q10 -16 16 -27.5t9 -20t3 -14.5q0 -24 -21 -39t-58 -15t-55.5 17t-18.5 48q0 40 30.5 73t84.5 52t123 19
q60 0 103 -16.5t73 -49.5q34 33 80 50t99 17q71 0 122 -23.5t79 -67.5t28 -108q0 -27 -2 -52.5t-7 -49.5h-344q2 -44 20.5 -74t51.5 -44.5t80 -14.5q48 0 87 14.5t73 39.5l51 -59q-42 -50 -106 -81.5t-143 -31.5q-75 0 -130.5 22.5t-87.5 65.5q-23 -28 -52.5 -48t-68 -30
t-87.5 -10zM279 77q26 0 46.5 10t32 27.5t11.5 39.5v67q-26 0 -48 -2t-39 -6q-36 -8 -53.5 -25t-17.5 -45q0 -30 17.5 -48t50.5 -18zM528 321h198q2 11 2.5 22.5t0.5 23.5q0 40 -21.5 62.5t-63.5 22.5q-35 0 -59.5 -16t-38.5 -45.5t-18 -69.5z" />
    <glyph glyph-name="ccedilla" unicode="&#xe7;" horiz-adv-x="602" 
d="M338 -244q-47 0 -82 13t-51 23l23 56q19 -8 39 -13.5t38 -5.5q22 0 37 9.5t15 27.5q0 16 -13 25t-40 9q-11 0 -19.5 -1t-16.5 -3l-11 34l23 59q-73 8 -124.5 41.5t-78 90t-26.5 130.5q0 86 34.5 150.5t99 100.5t154.5 36q67 0 116.5 -20t76 -52.5t26.5 -70.5
q0 -23 -9 -42t-27.5 -30.5t-47.5 -11.5q-37 0 -57 15.5t-20 41.5q0 11 6 26t19 39q-17 10 -36.5 15t-45.5 5q-37 0 -65.5 -17.5t-45 -54.5t-16.5 -96q0 -96 40.5 -139t111.5 -43q43 0 79.5 13.5t73.5 38.5l48 -63q-34 -40 -86.5 -69t-123.5 -35l-13 -34q38 3 65.5 -7.5
t42 -32t14.5 -51.5q0 -35 -16 -59t-45 -36t-66 -12z" />
    <glyph glyph-name="egrave" unicode="&#xe8;" horiz-adv-x="623" 
d="M330 -14q-89 0 -151.5 32.5t-95 91.5t-32.5 136q0 94 37 159t102.5 99t150.5 34q71 0 122.5 -23.5t79 -67.5t27.5 -108q0 -25 -2 -50.5t-7 -50.5h-345q3 -45 22.5 -75t53 -45t77.5 -15q48 0 86.5 14.5t73.5 40.5l51 -59q-42 -50 -106.5 -81.5t-143.5 -31.5zM216 321h198
q2 13 3 24t1 22q0 40 -22 62.5t-64 22.5q-34 0 -59 -16.5t-39.5 -46t-17.5 -68.5zM371 594l-148 99q-20 13 -29 28t-9 31q0 14 6.5 29.5t20.5 27t35 11.5q15 0 26.5 -6.5t24.5 -25.5l112 -155z" />
    <glyph glyph-name="eacute" unicode="&#xe9;" horiz-adv-x="623" 
d="M330 -14q-89 0 -151.5 32.5t-95 91.5t-32.5 136q0 94 37 159t102.5 99t150.5 34q71 0 122.5 -23.5t79 -67.5t27.5 -108q0 -25 -2 -50.5t-7 -50.5h-345q3 -45 22.5 -75t53 -45t77.5 -15q48 0 86.5 14.5t73.5 40.5l51 -59q-42 -50 -106.5 -81.5t-143.5 -31.5zM216 321h198
q2 13 3 24t1 22q0 40 -22 62.5t-64 22.5q-34 0 -59 -16.5t-39.5 -46t-17.5 -68.5zM290 594l-39 39l112 155q13 19 25 25.5t26 6.5q22 0 35.5 -11.5t20 -27t6.5 -29.5q0 -16 -9 -31t-29 -28z" />
    <glyph glyph-name="ecircumflex" unicode="&#xea;" horiz-adv-x="623" 
d="M330 -14q-89 0 -151.5 32.5t-95 91.5t-32.5 136q0 94 37 159t102.5 99t150.5 34q71 0 122.5 -23.5t79 -67.5t27.5 -108q0 -25 -2 -50.5t-7 -50.5h-345q3 -45 22.5 -75t53 -45t77.5 -15q48 0 86.5 14.5t73.5 40.5l51 -59q-42 -50 -106.5 -81.5t-143.5 -31.5zM216 321h198
q2 13 3 24t1 22q0 40 -22 62.5t-64 22.5q-34 0 -59 -16.5t-39.5 -46t-17.5 -68.5zM185 594l-44 42l118 147q18 23 34 31.5t38 8.5q20 0 32 -5.5t22.5 -15.5t23.5 -27l111 -139l-44 -42l-145 104z" />
    <glyph glyph-name="edieresis" unicode="&#xeb;" horiz-adv-x="623" 
d="M330 -14q-89 0 -151.5 32.5t-95 91.5t-32.5 136q0 94 37 159t102.5 99t150.5 34q71 0 122.5 -23.5t79 -67.5t27.5 -108q0 -25 -2 -50.5t-7 -50.5h-345q3 -45 22.5 -75t53 -45t77.5 -15q48 0 86.5 14.5t73.5 40.5l51 -59q-42 -50 -106.5 -81.5t-143.5 -31.5zM216 321h198
q2 13 3 24t1 22q0 40 -22 62.5t-64 22.5q-34 0 -59 -16.5t-39.5 -46t-17.5 -68.5zM447 618q-38 0 -62 22t-24 59q0 35 24 56.5t62 21.5q42 0 64 -21.5t22 -56.5q0 -36 -24.5 -58.5t-61.5 -22.5zM212 618q-38 0 -61.5 22t-23.5 59q0 35 23.5 56.5t61.5 21.5q42 0 64 -21.5
t22 -56.5q0 -36 -24 -58.5t-62 -22.5z" />
    <glyph glyph-name="igrave" unicode="&#xec;" horiz-adv-x="404" 
d="M45 0v75l55 3q19 1 25 11.5t6 38.5v246q0 32 -6 46t-32 15l-49 3l8 81l223 12l16 -9v-397q0 -22 4.5 -34t26.5 -13l54 -3v-75h-331zM217 592l-148 99q-20 13 -29 28t-9 31q0 14 6.5 29.5t20.5 27t35 11.5q15 0 26.5 -6.5t24.5 -25.5l112 -155z" />
    <glyph glyph-name="iacute" unicode="&#xed;" horiz-adv-x="404" 
d="M45 0v75l55 3q19 1 25 11.5t6 38.5v246q0 32 -6 46t-32 15l-49 3l8 81l223 12l16 -9v-397q0 -22 4.5 -34t26.5 -13l54 -3v-75h-331zM136 592l-39 39l112 155q13 19 25 25.5t26 6.5q22 0 35.5 -11.5t20 -27t6.5 -29.5q0 -16 -9 -31t-29 -28z" />
    <glyph glyph-name="icircumflex" unicode="&#xee;" horiz-adv-x="404" 
d="M45 0v75l55 3q19 1 25 11.5t6 38.5v246q0 32 -6 46t-32 15l-49 3l8 81l223 12l16 -9v-397q0 -22 4.5 -34t26.5 -13l54 -3v-75h-331zM31 592l-44 42l118 147q18 23 34 31.5t38 8.5q20 0 32 -5.5t22.5 -15.5t23.5 -27l111 -139l-44 -42l-145 104z" />
    <glyph glyph-name="idieresis" unicode="&#xef;" horiz-adv-x="404" 
d="M45 0v75l55 3q19 1 25 11.5t6 38.5v246q0 32 -6 46t-32 15l-49 3l8 81l223 12l16 -9v-397q0 -22 4.5 -34t26.5 -13l54 -3v-75h-331zM293 616q-38 0 -62 22t-24 59q0 35 24 56.5t62 21.5q42 0 64 -21.5t22 -56.5q0 -36 -24.5 -58.5t-61.5 -22.5zM58 616q-38 0 -61.5 22
t-23.5 59q0 35 23.5 56.5t61.5 21.5q42 0 64 -21.5t22 -56.5q0 -36 -24 -58.5t-62 -22.5z" />
    <glyph glyph-name="eth" unicode="&#xf0;" horiz-adv-x="664" 
d="M318 -14q-122 0 -194.5 66.5t-72.5 186.5q0 69 22 118t58.5 79.5t81 45t89.5 14.5q51 0 90 -16.5t63 -46.5l6 1q-5 32 -19 67t-33 65.5t-41 51.5l-111 -76l-47 75l82 49q-32 16 -71.5 25.5t-82.5 14.5l15 77q63 -2 123.5 -12.5t113.5 -34.5l131 92l44 -77l-95 -62
q45 -35 78 -85t51 -113.5t18 -140.5q0 -85 -17 -152.5t-53.5 -114.5t-93 -72t-135.5 -25zM339 74q37 0 62 19t37.5 57t12.5 95q0 28 -2.5 49.5t-7 39t-12.5 30.5q-12 21 -36 33t-57 12q-35 0 -62 -19.5t-41.5 -56.5t-14.5 -89q0 -40 7.5 -71.5t22.5 -53.5t37.5 -33.5
t53.5 -11.5z" />
    <glyph glyph-name="ntilde" unicode="&#xf1;" horiz-adv-x="761" 
d="M54 0v75l48 3q15 1 21.5 10.5t6.5 37.5v252q0 31 -6.5 43.5t-30.5 13.5l-48 3l9 80l194 13l16 -9l9 -91h5q28 49 78 78t116 29q62 0 102 -22t60 -61t20 -90v-247q0 -19 5 -29t28 -12l45 -3v-74h-299v75l31 2q17 1 23.5 9t6.5 32v202q0 35 -7.5 58t-26 35t-52.5 12
q-36 0 -63 -13.5t-41 -40t-14 -66.5v-184q0 -23 5 -32.5t21 -11.5l37 -2v-75h-299zM470 617q-26 0 -49 6.5t-47 16.5q-18 8 -32.5 14t-26 8.5t-21.5 2.5q-14 0 -25 -8.5t-24 -30.5l-55 32q20 46 37.5 71t37.5 35t45 10q26 0 48.5 -7t47.5 -18q25 -10 44.5 -16.5t32.5 -6.5
q14 0 24 9.5t22 30.5l55 -31q-19 -44 -36 -69.5t-36 -37t-42 -11.5z" />
    <glyph glyph-name="ograve" unicode="&#xf2;" horiz-adv-x="685" 
d="M333 -14q-89 0 -152.5 30.5t-96.5 90t-33 144.5q0 96 37.5 159.5t106 95.5t158.5 32q85 0 148.5 -29t99 -88t35.5 -149q0 -92 -35.5 -156t-103 -97t-164.5 -33zM349 78q41 0 67.5 19t39 57.5t12.5 95.5q0 54 -9 91t-26.5 60t-41.5 34t-54 11q-36 0 -63 -16.5t-41.5 -53
t-14.5 -96.5q0 -68 15 -113t44 -67t72 -22zM383 594l-148 99q-20 13 -29 28t-9 31q0 14 6.5 29.5t20.5 27t35 11.5q15 0 26.5 -6.5t24.5 -25.5l112 -155z" />
    <glyph glyph-name="oacute" unicode="&#xf3;" horiz-adv-x="685" 
d="M333 -14q-89 0 -152.5 30.5t-96.5 90t-33 144.5q0 96 37.5 159.5t106 95.5t158.5 32q85 0 148.5 -29t99 -88t35.5 -149q0 -92 -35.5 -156t-103 -97t-164.5 -33zM349 78q41 0 67.5 19t39 57.5t12.5 95.5q0 54 -9 91t-26.5 60t-41.5 34t-54 11q-36 0 -63 -16.5t-41.5 -53
t-14.5 -96.5q0 -68 15 -113t44 -67t72 -22zM302 594l-39 39l112 155q13 19 25 25.5t26 6.5q22 0 35.5 -11.5t20 -27t6.5 -29.5q0 -16 -9 -31t-29 -28z" />
    <glyph glyph-name="ocircumflex" unicode="&#xf4;" horiz-adv-x="685" 
d="M333 -14q-89 0 -152.5 30.5t-96.5 90t-33 144.5q0 96 37.5 159.5t106 95.5t158.5 32q85 0 148.5 -29t99 -88t35.5 -149q0 -92 -35.5 -156t-103 -97t-164.5 -33zM349 78q41 0 67.5 19t39 57.5t12.5 95.5q0 54 -9 91t-26.5 60t-41.5 34t-54 11q-36 0 -63 -16.5t-41.5 -53
t-14.5 -96.5q0 -68 15 -113t44 -67t72 -22zM197 594l-44 42l118 147q18 23 34 31.5t38 8.5q20 0 32 -5.5t22.5 -15.5t23.5 -27l111 -139l-44 -42l-145 104z" />
    <glyph glyph-name="otilde" unicode="&#xf5;" horiz-adv-x="685" 
d="M333 -14q-89 0 -152.5 30.5t-96.5 90t-33 144.5q0 96 37.5 159.5t106 95.5t158.5 32q85 0 148.5 -29t99 -88t35.5 -149q0 -92 -35.5 -156t-103 -97t-164.5 -33zM349 78q41 0 67.5 19t39 57.5t12.5 95.5q0 54 -9 91t-26.5 60t-41.5 34t-54 11q-36 0 -63 -16.5t-41.5 -53
t-14.5 -96.5q0 -68 15 -113t44 -67t72 -22zM423 617q-26 0 -49 6.5t-47 16.5q-18 8 -32.5 14t-26 8.5t-21.5 2.5q-14 0 -25 -8.5t-24 -30.5l-55 32q20 46 37.5 71t37.5 35t45 10q26 0 48.5 -7t47.5 -18q25 -10 44.5 -16.5t32.5 -6.5q14 0 24 9.5t22 30.5l55 -31
q-19 -44 -36 -69.5t-36 -37t-42 -11.5z" />
    <glyph glyph-name="odieresis" unicode="&#xf6;" horiz-adv-x="685" 
d="M333 -14q-89 0 -152.5 30.5t-96.5 90t-33 144.5q0 96 37.5 159.5t106 95.5t158.5 32q85 0 148.5 -29t99 -88t35.5 -149q0 -92 -35.5 -156t-103 -97t-164.5 -33zM349 78q41 0 67.5 19t39 57.5t12.5 95.5q0 54 -9 91t-26.5 60t-41.5 34t-54 11q-36 0 -63 -16.5t-41.5 -53
t-14.5 -96.5q0 -68 15 -113t44 -67t72 -22zM459 618q-38 0 -62 22t-24 59q0 35 24 56.5t62 21.5q42 0 64 -21.5t22 -56.5q0 -36 -24.5 -58.5t-61.5 -22.5zM224 618q-38 0 -61.5 22t-23.5 59q0 35 23.5 56.5t61.5 21.5q42 0 64 -21.5t22 -56.5q0 -36 -24 -58.5t-62 -22.5z
" />
    <glyph glyph-name="divide" unicode="&#xf7;" horiz-adv-x="620" 
d="M86 249v115h448v-115h-448zM309 45q-33 0 -57.5 22t-24.5 56q0 33 24.5 55.5t57.5 22.5q35 0 59.5 -22t24.5 -55q0 -34 -24.5 -56.5t-59.5 -22.5zM309 410q-33 0 -57.5 22t-24.5 55q0 34 24.5 56.5t57.5 22.5q35 0 59.5 -22t24.5 -55q0 -34 -24.5 -56.5t-59.5 -22.5z" />
    <glyph glyph-name="oslash" unicode="&#xf8;" horiz-adv-x="685" 
d="M45 -19l74 81q-34 33 -51 80.5t-17 108.5q0 96 37.5 159.5t106 95.5t158.5 32q47 0 87 -9.5t73 -28.5l33 37h100l-73 -81q30 -32 46.5 -78t16.5 -106q0 -92 -35.5 -156t-103 -97t-164.5 -33q-45 0 -83.5 8.5t-70.5 24.5l-34 -38h-100zM349 78q41 0 67.5 19t39 57.5
t12.5 95.5q0 23 -2.5 42t-7.5 36l-195 -216q11 -11 24 -18.5t28.5 -11.5t33.5 -4zM231 188l197 218q-10 14 -24.5 23t-31 13t-35.5 4q-36 0 -63 -16.5t-41.5 -53t-14.5 -96.5q0 -27 3.5 -50t9.5 -42z" />
    <glyph glyph-name="ugrave" unicode="&#xf9;" horiz-adv-x="743" 
d="M290 -14q-85 0 -130.5 45t-45.5 127v216q0 32 -6 46t-31 16l-41 3l9 79l212 13l16 -9v-323q0 -34 6.5 -57.5t24.5 -35t51 -11.5q36 0 61.5 15.5t39 44.5t13.5 67v151q0 34 -6 47.5t-31 15.5l-38 3l11 79l207 13l16 -9v-387q0 -28 7 -40t27 -15l45 -4v-76l-212 -8l-14 88
h-5q-22 -28 -47.5 -49t-58.5 -33t-80 -12zM397 594l-148 99q-20 13 -29 28t-9 31q0 14 6.5 29.5t20.5 27t35 11.5q15 0 26.5 -6.5t24.5 -25.5l112 -155z" />
    <glyph glyph-name="uacute" unicode="&#xfa;" horiz-adv-x="743" 
d="M290 -14q-85 0 -130.5 45t-45.5 127v216q0 32 -6 46t-31 16l-41 3l9 79l212 13l16 -9v-323q0 -34 6.5 -57.5t24.5 -35t51 -11.5q36 0 61.5 15.5t39 44.5t13.5 67v151q0 34 -6 47.5t-31 15.5l-38 3l11 79l207 13l16 -9v-387q0 -28 7 -40t27 -15l45 -4v-76l-212 -8l-14 88
h-5q-22 -28 -47.5 -49t-58.5 -33t-80 -12zM316 594l-39 39l112 155q13 19 25 25.5t26 6.5q22 0 35.5 -11.5t20 -27t6.5 -29.5q0 -16 -9 -31t-29 -28z" />
    <glyph glyph-name="ucircumflex" unicode="&#xfb;" horiz-adv-x="743" 
d="M290 -14q-85 0 -130.5 45t-45.5 127v216q0 32 -6 46t-31 16l-41 3l9 79l212 13l16 -9v-323q0 -34 6.5 -57.5t24.5 -35t51 -11.5q36 0 61.5 15.5t39 44.5t13.5 67v151q0 34 -6 47.5t-31 15.5l-38 3l11 79l207 13l16 -9v-387q0 -28 7 -40t27 -15l45 -4v-76l-212 -8l-14 88
h-5q-22 -28 -47.5 -49t-58.5 -33t-80 -12zM211 594l-44 42l118 147q18 23 34 31.5t38 8.5q20 0 32 -5.5t22.5 -15.5t23.5 -27l111 -139l-44 -42l-145 104z" />
    <glyph glyph-name="udieresis" unicode="&#xfc;" horiz-adv-x="743" 
d="M290 -14q-85 0 -130.5 45t-45.5 127v216q0 32 -6 46t-31 16l-41 3l9 79l212 13l16 -9v-323q0 -34 6.5 -57.5t24.5 -35t51 -11.5q36 0 61.5 15.5t39 44.5t13.5 67v151q0 34 -6 47.5t-31 15.5l-38 3l11 79l207 13l16 -9v-387q0 -28 7 -40t27 -15l45 -4v-76l-212 -8l-14 88
h-5q-22 -28 -47.5 -49t-58.5 -33t-80 -12zM473 618q-38 0 -62 22t-24 59q0 35 24 56.5t62 21.5q42 0 64 -21.5t22 -56.5q0 -36 -24.5 -58.5t-61.5 -22.5zM238 618q-38 0 -61.5 22t-23.5 59q0 35 23.5 56.5t61.5 21.5q42 0 64 -21.5t22 -56.5q0 -36 -24 -58.5t-62 -22.5z" />
    <glyph glyph-name="yacute" unicode="&#xfd;" horiz-adv-x="668" 
d="M154 -233q-60 0 -97.5 26.5t-37.5 71.5q0 34 22 57t57 23q31 0 48 -12.5t17 -31.5q1 -9 -2 -22.5t-9 -37.5q27 -3 46.5 8t36.5 37.5t36 65.5l20 41l-187 400q-13 28 -21 37.5t-26 10.5l-39 4l13 79h301v-75l-43 -2q-21 -1 -27 -13t7 -42l104 -237h5l100 231
q12 27 7.5 42.5t-28.5 17.5l-40 3l11 75h235v-75l-39 -5q-18 -2 -27.5 -13t-24.5 -45l-188 -414q-23 -49 -44.5 -87t-47.5 -64t-59.5 -40t-78.5 -14zM321 594l-39 39l112 155q13 19 25 25.5t26 6.5q22 0 35.5 -11.5t20 -27t6.5 -29.5q0 -16 -9 -31t-29 -28z" />
    <glyph glyph-name="thorn" unicode="&#xfe;" horiz-adv-x="713" 
d="M29 -216v75l47 3q15 2 23 11.5t8 37.5v703q0 23 -3 35.5t-12 18.5t-29 7l-45 3l6 79l226 10l16 -11v-307h3q20 27 45 47t58 31t76 11q68 0 116.5 -29t74.5 -86.5t26 -141.5q0 -91 -29.5 -157t-88 -102t-145.5 -36q-37 0 -73.5 7.5t-62.5 21.5v-104q0 -24 7 -34.5
t29 -12.5l70 -5v-75h-343zM376 84q41 0 67.5 19.5t40.5 60.5t14 105q0 55 -12.5 91.5t-37 55t-62.5 18.5t-64.5 -16t-41 -43.5t-14.5 -65.5v-195q17 -12 48.5 -21t61.5 -9z" />
    <glyph glyph-name="ydieresis" unicode="&#xff;" horiz-adv-x="668" 
d="M154 -233q-60 0 -97.5 26.5t-37.5 71.5q0 34 22 57t57 23q31 0 48 -12.5t17 -31.5q1 -9 -2 -22.5t-9 -37.5q27 -3 46.5 8t36.5 37.5t36 65.5l20 41l-187 400q-13 28 -21 37.5t-26 10.5l-39 4l13 79h301v-75l-43 -2q-21 -1 -27 -13t7 -42l104 -237h5l100 231
q12 27 7.5 42.5t-28.5 17.5l-40 3l11 75h235v-75l-39 -5q-18 -2 -27.5 -13t-24.5 -45l-188 -414q-23 -49 -44.5 -87t-47.5 -64t-59.5 -40t-78.5 -14zM478 618q-38 0 -62 22t-24 59q0 35 24 56.5t62 21.5q42 0 64 -21.5t22 -56.5q0 -36 -24.5 -58.5t-61.5 -22.5zM243 618
q-38 0 -61.5 22t-23.5 59q0 35 23.5 56.5t61.5 21.5q42 0 64 -21.5t22 -56.5q0 -36 -24 -58.5t-62 -22.5z" />
    <glyph glyph-name="Amacron" unicode="&#x100;" 
d="M11 0v78l48 5q19 2 30 14t22 40l223 563h170l219 -567q10 -27 20.5 -38.5t30.5 -13.5l41 -4v-77h-343v77l52 4q18 2 24 14.5t-4 37.5l-29 75h-265l-28 -73q-10 -22 -6 -38t31 -18l49 -3v-76h-285zM280 295h208l-98 274h-6zM248 790v111h340v-111h-340z" />
    <glyph glyph-name="amacron" unicode="&#x101;" horiz-adv-x="636" 
d="M217 -14q-76 0 -120 38t-44 101q0 61 31.5 96t101.5 51.5t183 20.5v68q0 30 -7.5 53.5t-28.5 37.5t-62 14q-26 0 -49 -6t-37 -16q10 -16 16 -27.5t9 -20t3 -14.5q0 -24 -21 -39t-58 -15t-55.5 17t-18.5 48q0 40 30.5 73t84.5 52t123 19q84 0 134.5 -23t73 -66t22.5 -103
v-216q0 -20 9.5 -32.5t32.5 -12.5q13 0 24 2.5t23 6.5l15 -62q-20 -17 -55 -31t-75 -14q-50 0 -79 22.5t-37 59.5q-16 -22 -39.5 -41t-55.5 -30t-74 -11zM279 77q26 0 46.5 10t32 27.5t11.5 39.5v67q-55 0 -89.5 -8.5t-51.5 -25.5t-17 -44q0 -30 17.5 -48t50.5 -18zM134 635
v111h330v-111h-330z" />
    <glyph glyph-name="Abreve" unicode="&#x102;" 
d="M11 0v78l48 5q19 2 30 14t22 40l223 563h170l219 -567q10 -27 20.5 -38.5t30.5 -13.5l41 -4v-77h-343v77l52 4q18 2 24 14.5t-4 37.5l-29 75h-265l-28 -73q-10 -22 -6 -38t31 -18l49 -3v-76h-285zM280 295h208l-98 274h-6zM418 758q-57 0 -96.5 25t-62 68.5t-27.5 100.5
l67 14q14 -51 44 -74.5t77 -23.5q49 0 79.5 24.5t42.5 71.5l66 -13q-5 -54 -28 -98t-63.5 -69.5t-98.5 -25.5z" />
    <glyph glyph-name="abreve" unicode="&#x103;" horiz-adv-x="636" 
d="M217 -14q-76 0 -120 38t-44 101q0 61 31.5 96t101.5 51.5t183 20.5v68q0 30 -7.5 53.5t-28.5 37.5t-62 14q-26 0 -49 -6t-37 -16q10 -16 16 -27.5t9 -20t3 -14.5q0 -24 -21 -39t-58 -15t-55.5 17t-18.5 48q0 40 30.5 73t84.5 52t123 19q84 0 134.5 -23t73 -66t22.5 -103
v-216q0 -20 9.5 -32.5t32.5 -12.5q13 0 24 2.5t23 6.5l15 -62q-20 -17 -55 -31t-75 -14q-50 0 -79 22.5t-37 59.5q-16 -22 -39.5 -41t-55.5 -30t-74 -11zM279 77q26 0 46.5 10t32 27.5t11.5 39.5v67q-55 0 -89.5 -8.5t-51.5 -25.5t-17 -44q0 -30 17.5 -48t50.5 -18zM300 601
q-54 0 -94 25t-62 69.5t-27 103.5l67 15q13 -52 42.5 -78.5t77.5 -26.5q51 0 78 29t40 75l66 -13q-6 -57 -30 -102.5t-63.5 -71t-94.5 -25.5z" />
    <glyph glyph-name="Aogonek" unicode="&#x104;" 
d="M627 -242q-43 0 -70 13.5t-39 35t-12 43.5q0 34 19.5 61t49.5 49t63 40h-166v77l52 4q18 2 24 14.5t-4 37.5l-29 75h-265l-28 -73q-10 -22 -6 -38t31 -18l49 -3v-76h-285v78l48 5q19 2 30 14t22 40l223 563h170l219 -567q10 -27 20.5 -38.5t30.5 -13.5l41 -4v-77h-95
q-46 -39 -67 -66t-21 -53q0 -20 12 -29t33 -9q16 0 33.5 4t33.5 12l24 -54q-15 -11 -35.5 -22t-46.5 -18t-59 -7zM280 295h208l-98 274h-6z" />
    <glyph glyph-name="aogonek" unicode="&#x105;" horiz-adv-x="636" 
d="M488 -242q-53 0 -83.5 25.5t-30.5 65.5q0 27 13.5 51.5t38 46t56.5 40.5q-39 4 -63.5 25t-32.5 56q-27 -40 -71 -61t-98 -21q-75 0 -119.5 37.5t-44.5 101.5q0 58 29.5 93.5t98.5 53t188 21.5v68q0 53 -21 79t-77 26q-26 0 -49 -6t-37 -16q15 -22 21.5 -37.5t6.5 -24.5
q0 -25 -22.5 -39.5t-56.5 -14.5q-36 0 -55 16.5t-19 48.5q0 41 31 73.5t85 51.5t122 19q117 0 173.5 -47t56.5 -145v-216q0 -23 10.5 -34t31.5 -11q12 0 22 2t25 7l15 -62q-25 -14 -49 -31.5t-42.5 -37t-29.5 -40t-11 -41.5q0 -19 9 -28.5t30 -9.5q14 0 29.5 4.5t28.5 11.5
l24 -54q-26 -21 -59.5 -34t-73.5 -13zM279 77q27 0 47 10t31.5 27.5t11.5 39.5v67q-55 0 -90 -8.5t-51.5 -25.5t-16.5 -44q0 -32 18.5 -49t49.5 -17z" />
    <glyph glyph-name="Cacute" unicode="&#x106;" horiz-adv-x="773" 
d="M419 -14q-113 0 -194.5 43t-125 124t-43.5 195q0 83 25.5 150.5t73.5 115.5t114.5 74t148.5 26q54 0 96.5 -14.5t76.5 -40.5l13 55h67l41 -244l-84 -17q-21 58 -49.5 93t-65 51.5t-83.5 16.5q-65 0 -109 -28.5t-66.5 -82.5t-22.5 -130q0 -73 18 -124.5t48.5 -83.5
t71 -46.5t85.5 -14.5q48 0 87 12t69.5 32.5t54.5 45.5l58 -68q-20 -26 -49.5 -51t-68 -45t-85 -32t-102.5 -12zM338 747l-32 47l145 135q15 14 26 18.5t22 4.5q29 0 44.5 -21.5t15.5 -47.5q0 -22 -12 -38t-40 -28z" />
    <glyph glyph-name="cacute" unicode="&#x107;" horiz-adv-x="602" 
d="M322 -14q-86 0 -147 32.5t-92.5 92t-31.5 140.5q0 86 34.5 150.5t99 100.5t154.5 36q67 0 116.5 -20t76 -52.5t26.5 -70.5q0 -23 -9 -42t-27.5 -30.5t-47.5 -11.5q-37 0 -57 15.5t-20 41.5q0 11 6 26t19 39q-17 10 -36.5 15t-45.5 5q-37 0 -65.5 -17.5t-45 -54.5
t-16.5 -96q0 -96 40.5 -139t111.5 -43q43 0 79.5 13.5t73.5 38.5l48 -63q-39 -45 -99 -75.5t-145 -30.5zM289 594l-39 39l112 155q13 19 25 25.5t26 6.5q22 0 35.5 -11.5t20 -27t6.5 -29.5q0 -16 -9 -31t-29 -28z" />
    <glyph glyph-name="Ccircumflex" unicode="&#x108;" horiz-adv-x="773" 
d="M419 -14q-113 0 -194.5 43t-125 124t-43.5 195q0 83 25.5 150.5t73.5 115.5t114.5 74t148.5 26q54 0 96.5 -14.5t76.5 -40.5l13 55h67l41 -244l-84 -17q-21 58 -49.5 93t-65 51.5t-83.5 16.5q-65 0 -109 -28.5t-66.5 -82.5t-22.5 -130q0 -73 18 -124.5t48.5 -83.5
t71 -46.5t85.5 -14.5q48 0 87 12t69.5 32.5t54.5 45.5l58 -68q-20 -26 -49.5 -51t-68 -45t-85 -32t-102.5 -12zM256 741l-37 48l127 134q17 19 31 27t34 8q17 0 31.5 -8t33.5 -29l119 -130l-36 -50l-151 87z" />
    <glyph glyph-name="ccircumflex" unicode="&#x109;" horiz-adv-x="602" 
d="M322 -14q-86 0 -147 32.5t-92.5 92t-31.5 140.5q0 86 34.5 150.5t99 100.5t154.5 36q67 0 116.5 -20t76 -52.5t26.5 -70.5q0 -23 -9 -42t-27.5 -30.5t-47.5 -11.5q-37 0 -57 15.5t-20 41.5q0 11 6 26t19 39q-17 10 -36.5 15t-45.5 5q-37 0 -65.5 -17.5t-45 -54.5
t-16.5 -96q0 -96 40.5 -139t111.5 -43q43 0 79.5 13.5t73.5 38.5l48 -63q-39 -45 -99 -75.5t-145 -30.5zM184 594l-44 42l118 147q18 23 34 31.5t38 8.5q20 0 32 -5.5t22.5 -15.5t23.5 -27l111 -139l-44 -42l-145 104z" />
    <glyph glyph-name="Cdotaccent" unicode="&#x10a;" horiz-adv-x="773" 
d="M419 -14q-113 0 -194.5 43t-125 124t-43.5 195q0 83 25.5 150.5t73.5 115.5t114.5 74t148.5 26q54 0 96.5 -14.5t76.5 -40.5l13 55h67l41 -244l-84 -17q-21 58 -49.5 93t-65 51.5t-83.5 16.5q-65 0 -109 -28.5t-66.5 -82.5t-22.5 -130q0 -73 18 -124.5t48.5 -83.5
t71 -46.5t85.5 -14.5q48 0 87 12t69.5 32.5t54.5 45.5l58 -68q-20 -26 -49.5 -51t-68 -45t-85 -32t-102.5 -12zM406 767q-45 0 -71.5 22.5t-26.5 62.5q0 38 26 61t73 23t72.5 -22.5t25.5 -61.5t-27 -62t-72 -23z" />
    <glyph glyph-name="cdotaccent" unicode="&#x10b;" horiz-adv-x="602" 
d="M322 -14q-86 0 -147 32.5t-92.5 92t-31.5 140.5q0 86 34.5 150.5t99 100.5t154.5 36q67 0 116.5 -20t76 -52.5t26.5 -70.5q0 -23 -9 -42t-27.5 -30.5t-47.5 -11.5q-37 0 -57 15.5t-20 41.5q0 11 6 26t19 39q-17 10 -36.5 15t-45.5 5q-37 0 -65.5 -17.5t-45 -54.5
t-16.5 -96q0 -96 40.5 -139t111.5 -43q43 0 79.5 13.5t73.5 38.5l48 -63q-39 -45 -99 -75.5t-145 -30.5zM328 614q-45 0 -71.5 22.5t-26.5 62.5q0 38 26 61t73 23t72.5 -22.5t25.5 -61.5q0 -40 -27 -62.5t-72 -22.5z" />
    <glyph glyph-name="Ccaron" unicode="&#x10c;" horiz-adv-x="773" 
d="M419 -14q-113 0 -194.5 43t-125 124t-43.5 195q0 83 25.5 150.5t73.5 115.5t114.5 74t148.5 26q54 0 96.5 -14.5t76.5 -40.5l13 55h67l41 -244l-84 -17q-21 58 -49.5 93t-65 51.5t-83.5 16.5q-65 0 -109 -28.5t-66.5 -82.5t-22.5 -130q0 -73 18 -124.5t48.5 -83.5
t71 -46.5t85.5 -14.5q48 0 87 12t69.5 32.5t54.5 45.5l58 -68q-20 -26 -49.5 -51t-68 -45t-85 -32t-102.5 -12zM407 757q-17 0 -31.5 8.5t-35.5 29.5l-128 132l38 50l159 -90l159 89l34 -48l-133 -135q-18 -18 -30.5 -27t-31.5 -9z" />
    <glyph glyph-name="ccaron" unicode="&#x10d;" horiz-adv-x="602" 
d="M322 -14q-86 0 -147 32.5t-92.5 92t-31.5 140.5q0 86 34.5 150.5t99 100.5t154.5 36q67 0 116.5 -20t76 -52.5t26.5 -70.5q0 -23 -9 -42t-27.5 -30.5t-47.5 -11.5q-37 0 -57 15.5t-20 41.5q0 11 6 26t19 39q-17 10 -36.5 15t-45.5 5q-37 0 -65.5 -17.5t-45 -54.5
t-16.5 -96q0 -96 40.5 -139t111.5 -43q43 0 79.5 13.5t73.5 38.5l48 -63q-39 -45 -99 -75.5t-145 -30.5zM329 598q-20 0 -33 5.5t-23 16t-23 25.5l-112 139l46 44l144 -106l146 105l45 -42l-121 -149q-17 -20 -33 -29t-36 -9z" />
    <glyph glyph-name="Dcaron" unicode="&#x10e;" horiz-adv-x="851" 
d="M58 0v76l52 4q20 2 27 11.5t7 39.5v443q0 24 -6 35t-30 12l-50 3v76h346q66 0 125 -10.5t108 -34t84.5 -62t55 -93.5t19.5 -129q0 -91 -29 -160t-85 -116t-139 -71t-191 -24h-294zM379 94q65 0 110 16.5t74 49.5t42 84t13 120q0 83 -25.5 136.5t-75.5 79.5t-124 26h-82
v-510q13 -1 31.5 -1.5t36.5 -0.5zM398 757q-17 0 -31.5 8.5t-35.5 29.5l-128 132l38 50l159 -90l159 89l34 -48l-133 -135q-18 -18 -30.5 -27t-31.5 -9z" />
    <glyph glyph-name="dcaron" unicode="&#x10f;" horiz-adv-x="833" 
d="M283 -14q-76 0 -127.5 31t-78 89.5t-26.5 139.5q0 90 33 155.5t93.5 101t145.5 35.5q39 0 71.5 -8.5t56.5 -21.5v115q0 28 -7 41t-37 15l-51 4l8 77l231 7l15 -16v-629q0 -21 6 -31.5t29 -12.5l46 -4v-75l-210 -7l-14 80h-7q-18 -25 -43 -44.5t-58 -30.5t-76 -11zM336 87
q35 0 61 15.5t40 43.5t14 65v197q-23 15 -50.5 23t-57.5 8q-42 0 -69.5 -20t-41.5 -60t-14 -101q0 -58 14 -95.5t40.5 -56.5t63.5 -19zM717 491l-47 38q26 35 36 59.5t10 41.5q0 12 -5 21t-17 20q-10 8 -17 18t-7 27q0 30 22 45t50 15q39 0 62 -25t23 -61q0 -24 -11.5 -56
t-35.5 -68.5t-63 -74.5z" />
    <glyph glyph-name="Dcroat" unicode="&#x110;" horiz-adv-x="851" 
d="M58 0v76l52 4q20 2 27 11.5t7 39.5v179h-97l11 98h86v166q0 24 -6 35t-30 12l-50 3v76h346q66 0 125 -10.5t108 -34t84.5 -62t55 -93.5t19.5 -129q0 -91 -29 -160t-85 -116t-139 -71t-191 -24h-294zM379 94q65 0 110 16.5t74 49.5t42 84t13 120q0 83 -25.5 136.5
t-75.5 79.5t-124 26h-82v-198h150v-98h-150v-214q17 -1 34 -1.5t34 -0.5z" />
    <glyph glyph-name="dcroat" unicode="&#x111;" horiz-adv-x="719" 
d="M283 -14q-76 0 -127.5 31t-78 89.5t-26.5 139.5q0 90 33 155.5t93.5 101t145.5 35.5q39 0 71.5 -8.5t56.5 -21.5v61h-192l9 66h183v7q0 24 -7 30.5t-37 9.5l-51 4l8 74l231 7l15 -16v-116h76v-66h-76v-447q0 -21 6 -31.5t29 -12.5l46 -4v-75l-210 -7l-14 80h-7
q-18 -25 -43 -44.5t-58 -30.5t-76 -11zM336 87q35 0 61 15.5t40 43.5t14 65v197q-23 15 -50.5 23t-57.5 8q-42 0 -69.5 -20t-41.5 -60t-14 -101q0 -58 14 -95.5t40.5 -56.5t63.5 -19z" />
    <glyph glyph-name="Emacron" unicode="&#x112;" horiz-adv-x="723" 
d="M58 0v76l53 4q18 1 25.5 10t7.5 41v443q0 26 -7 36t-28 11l-51 3v76h563l36 -188l-91 -15q-12 36 -23.5 59t-27 35.5t-38 17t-56.5 4.5h-110v-216h68q26 0 39.5 5t21 20.5t15.5 48.5l70 6v-235l-71 -11q-5 34 -12.5 51.5t-22 23t-42.5 5.5h-66v-223h130q35 0 58.5 6.5
t38.5 20.5t25.5 39t19.5 62h93l-26 -216h-592zM194 790v111h340v-111h-340z" />
    <glyph glyph-name="emacron" unicode="&#x113;" horiz-adv-x="623" 
d="M330 -14q-89 0 -151.5 32.5t-95 91.5t-32.5 136q0 94 37 159t102.5 99t150.5 34q71 0 122.5 -23.5t79 -67.5t27.5 -108q0 -25 -2 -50.5t-7 -50.5h-345q3 -45 22.5 -75t53 -45t77.5 -15q48 0 86.5 14.5t73.5 40.5l51 -59q-42 -50 -106.5 -81.5t-143.5 -31.5zM216 321h198
q2 13 3 24t1 22q0 40 -22 62.5t-64 22.5q-34 0 -59 -16.5t-39.5 -46t-17.5 -68.5zM165 635v111h330v-111h-330z" />
    <glyph glyph-name="Ebreve" unicode="&#x114;" horiz-adv-x="723" 
d="M58 0v76l53 4q18 1 25.5 10t7.5 41v443q0 26 -7 36t-28 11l-51 3v76h563l36 -188l-91 -15q-12 36 -23.5 59t-27 35.5t-38 17t-56.5 4.5h-110v-216h68q26 0 39.5 5t21 20.5t15.5 48.5l70 6v-235l-71 -11q-5 34 -12.5 51.5t-22 23t-42.5 5.5h-66v-223h130q35 0 58.5 6.5
t38.5 20.5t25.5 39t19.5 62h93l-26 -216h-592zM364 758q-57 0 -96.5 25t-62 68.5t-27.5 100.5l67 14q14 -51 44 -74.5t77 -23.5q49 0 79.5 24.5t42.5 71.5l66 -13q-5 -54 -28 -98t-63.5 -69.5t-98.5 -25.5z" />
    <glyph glyph-name="ebreve" unicode="&#x115;" horiz-adv-x="623" 
d="M330 -14q-89 0 -151.5 32.5t-95 91.5t-32.5 136q0 94 37 159t102.5 99t150.5 34q71 0 122.5 -23.5t79 -67.5t27.5 -108q0 -25 -2 -50.5t-7 -50.5h-345q3 -45 22.5 -75t53 -45t77.5 -15q48 0 86.5 14.5t73.5 40.5l51 -59q-42 -50 -106.5 -81.5t-143.5 -31.5zM216 321h198
q2 13 3 24t1 22q0 40 -22 62.5t-64 22.5q-34 0 -59 -16.5t-39.5 -46t-17.5 -68.5zM331 601q-54 0 -94 25t-62 69.5t-27 103.5l67 15q13 -52 42.5 -78.5t77.5 -26.5q51 0 78 29t40 75l66 -13q-6 -57 -30 -102.5t-63.5 -71t-94.5 -25.5z" />
    <glyph glyph-name="Edotaccent" unicode="&#x116;" horiz-adv-x="723" 
d="M58 0v76l53 4q18 1 25.5 10t7.5 41v443q0 26 -7 36t-28 11l-51 3v76h563l36 -188l-91 -15q-12 36 -23.5 59t-27 35.5t-38 17t-56.5 4.5h-110v-216h68q26 0 39.5 5t21 20.5t15.5 48.5l70 6v-235l-71 -11q-5 34 -12.5 51.5t-22 23t-42.5 5.5h-66v-223h130q35 0 58.5 6.5
t38.5 20.5t25.5 39t19.5 62h93l-26 -216h-592zM363 767q-45 0 -71.5 22.5t-26.5 62.5q0 38 26 61t73 23t72.5 -22.5t25.5 -61.5t-27 -62t-72 -23z" />
    <glyph glyph-name="edotaccent" unicode="&#x117;" horiz-adv-x="623" 
d="M330 -14q-89 0 -151.5 32.5t-95 91.5t-32.5 136q0 94 37 159t102.5 99t150.5 34q71 0 122.5 -23.5t79 -67.5t27.5 -108q0 -25 -2 -50.5t-7 -50.5h-345q3 -45 22.5 -75t53 -45t77.5 -15q48 0 86.5 14.5t73.5 40.5l51 -59q-42 -50 -106.5 -81.5t-143.5 -31.5zM216 321h198
q2 13 3 24t1 22q0 40 -22 62.5t-64 22.5q-34 0 -59 -16.5t-39.5 -46t-17.5 -68.5zM329 614q-45 0 -71.5 22.5t-26.5 62.5q0 38 26 61t73 23t72.5 -22.5t25.5 -61.5q0 -40 -27 -62.5t-72 -22.5z" />
    <glyph glyph-name="Eogonek" unicode="&#x118;" horiz-adv-x="723" 
d="M521 -242q-42 0 -67 13.5t-36 35t-11 43.5q0 35 20 62t53.5 49t73.5 39h-496v76l53 4q18 1 25.5 10t7.5 41v443q0 26 -7 36t-28 11l-51 3v76h563l36 -188l-91 -15q-12 36 -23.5 59t-27 35.5t-38 17t-56.5 4.5h-110v-216h68q26 0 39.5 5t21 20.5t15.5 48.5l70 6v-235
l-71 -11q-5 34 -12.5 51.5t-22 23t-42.5 5.5h-66v-223h130q35 0 58.5 6.5t38.5 20.5t25.5 39t19.5 62h93l-26 -216q-40 -21 -66 -41.5t-38.5 -39.5t-12.5 -38q0 -20 9 -29t29 -9q11 0 27.5 4t32.5 12l24 -54q-15 -12 -35 -23t-45 -17.5t-54 -6.5z" />
    <glyph glyph-name="eogonek" unicode="&#x119;" horiz-adv-x="623" 
d="M383 -242q-42 0 -67.5 13.5t-36 34.5t-10.5 43q0 42 30 77.5t69 62.5q-9 -1 -18.5 -2t-19.5 -1q-89 0 -151.5 32.5t-95 91.5t-32.5 136q0 94 37 159t102.5 99t150.5 34q71 0 122.5 -23.5t79 -67.5t27.5 -108q0 -25 -2 -50.5t-7 -50.5h-345q3 -45 22.5 -75t53 -45
t77.5 -15q48 0 86.5 14.5t73.5 40.5l51 -59q-18 -22 -41 -40.5t-50 -33.5q-32 -24 -53 -49t-31.5 -48.5t-10.5 -44.5q0 -20 9 -30t30 -10q12 0 27.5 4t31.5 12l24 -54q-15 -12 -35 -23t-44.5 -17.5t-53.5 -6.5zM216 321h198q2 13 3 24t1 22q0 40 -22 62.5t-64 22.5
q-34 0 -59 -16.5t-39.5 -46t-17.5 -68.5z" />
    <glyph glyph-name="Ecaron" unicode="&#x11a;" horiz-adv-x="723" 
d="M58 0v76l53 4q18 1 25.5 10t7.5 41v443q0 26 -7 36t-28 11l-51 3v76h563l36 -188l-91 -15q-12 36 -23.5 59t-27 35.5t-38 17t-56.5 4.5h-110v-216h68q26 0 39.5 5t21 20.5t15.5 48.5l70 6v-235l-71 -11q-5 34 -12.5 51.5t-22 23t-42.5 5.5h-66v-223h130q35 0 58.5 6.5
t38.5 20.5t25.5 39t19.5 62h93l-26 -216h-592zM364 757q-17 0 -31.5 8.5t-35.5 29.5l-128 132l38 50l159 -90l159 89l34 -48l-133 -135q-18 -18 -30.5 -27t-31.5 -9z" />
    <glyph glyph-name="ecaron" unicode="&#x11b;" horiz-adv-x="623" 
d="M330 -14q-89 0 -151.5 32.5t-95 91.5t-32.5 136q0 94 37 159t102.5 99t150.5 34q71 0 122.5 -23.5t79 -67.5t27.5 -108q0 -25 -2 -50.5t-7 -50.5h-345q3 -45 22.5 -75t53 -45t77.5 -15q48 0 86.5 14.5t73.5 40.5l51 -59q-42 -50 -106.5 -81.5t-143.5 -31.5zM216 321h198
q2 13 3 24t1 22q0 40 -22 62.5t-64 22.5q-34 0 -59 -16.5t-39.5 -46t-17.5 -68.5zM330 598q-20 0 -33 5.5t-23 16t-23 25.5l-112 139l46 44l144 -106l146 105l45 -42l-121 -149q-17 -20 -33 -29t-36 -9z" />
    <glyph glyph-name="Gcircumflex" unicode="&#x11c;" horiz-adv-x="844" 
d="M402 -14q-111 0 -188.5 46.5t-117.5 127.5t-40 185q0 86 26 154t74.5 116t115.5 73.5t149 25.5q63 0 107 -14t79 -39l12 53h67l42 -240l-84 -17q-22 58 -51 92t-68.5 49t-91.5 15q-48 0 -85.5 -16t-63 -46.5t-39 -75.5t-13.5 -102q0 -67 15 -117t43 -83.5t67.5 -50.5
t87.5 -17q30 0 53.5 4t43 11.5t34.5 18.5v84q0 24 -6 36t-30 13l-54 2v77h321v-77l-42 -3q-19 -2 -26 -12.5t-7 -38.5v-221h-92l-23 61q-19 -15 -50 -32t-72 -29.5t-93 -12.5zM271 741l-37 48l127 134q17 19 31 27t34 8q17 0 31.5 -8t33.5 -29l119 -130l-36 -50l-151 87z
" />
    <glyph glyph-name="gcircumflex" unicode="&#x11d;" horiz-adv-x="653" 
d="M145 585l-39 39l118 151q18 23 32.5 30.5t31.5 7.5q25 0 38 -10.5t33 -36.5l101 -129l-41 -44l-131 99zM293 -233q-67 0 -117.5 8.5t-83.5 25t-49.5 41t-16.5 56.5t15 53.5t41 36.5t59 26v3q-37 11 -55.5 34.5t-18.5 48.5q0 26 14.5 51t51.5 52v3q-40 21 -61.5 56
t-21.5 84q0 64 34 106.5t92 63.5t131 21q22 0 46 -2.5t49 -8t47 -16.5q26 54 58.5 85t75.5 31q20 0 37.5 -7.5t28.5 -22t11 -37.5q0 -28 -19 -48t-46 -20q-16 0 -28 8t-21 21l-12 18q-9 -12 -18 -26.5t-17 -31.5q25 -25 42 -55.5t17 -74.5q0 -52 -30.5 -93.5t-86.5 -66
t-133 -24.5q-28 0 -52 3.5t-41 7.5q-13 -11 -20 -22.5t-7 -21.5q0 -16 10.5 -24.5t27.5 -11t36 -2.5h171q93 0 143.5 -31.5t50.5 -98.5q0 -28 -10 -56t-33 -53.5t-61.5 -45.5t-95 -31.5t-134.5 -11.5zM309 -145q47 0 80 10t50.5 27.5t17.5 39.5q0 25 -20.5 36.5t-56.5 11.5
h-163q-18 -13 -28 -29.5t-10 -34.5q0 -31 32 -46t98 -15zM305 259q44 0 67.5 24t23.5 67q0 49 -25 74t-69 25q-46 0 -67.5 -28t-21.5 -69t24.5 -67t67.5 -26z" />
    <glyph glyph-name="Gbreve" unicode="&#x11e;" horiz-adv-x="844" 
d="M402 -14q-111 0 -188.5 46.5t-117.5 127.5t-40 185q0 86 26 154t74.5 116t115.5 73.5t149 25.5q63 0 107 -14t79 -39l12 53h67l42 -240l-84 -17q-22 58 -51 92t-68.5 49t-91.5 15q-48 0 -85.5 -16t-63 -46.5t-39 -75.5t-13.5 -102q0 -67 15 -117t43 -83.5t67.5 -50.5
t87.5 -17q30 0 53.5 4t43 11.5t34.5 18.5v84q0 24 -6 36t-30 13l-54 2v77h321v-77l-42 -3q-19 -2 -26 -12.5t-7 -38.5v-221h-92l-23 61q-19 -15 -50 -32t-72 -29.5t-93 -12.5zM422 758q-57 0 -96.5 25t-62 68.5t-27.5 100.5l67 14q14 -51 44 -74.5t77 -23.5q49 0 79.5 24.5
t42.5 71.5l66 -13q-5 -54 -28 -98t-63.5 -69.5t-98.5 -25.5z" />
    <glyph glyph-name="gbreve" unicode="&#x11f;" horiz-adv-x="653" 
d="M293 -233q-67 0 -117.5 8.5t-83.5 25t-49.5 41t-16.5 56.5t15 53.5t41 36.5t59 26v3q-37 11 -55.5 34.5t-18.5 48.5q0 26 14.5 51t51.5 52v3q-40 21 -61.5 56t-21.5 84q0 64 34 106.5t92 63.5t131 21q22 0 46 -2.5t49 -8t47 -16.5q26 54 58.5 85t75.5 31q20 0 37.5 -7.5
t28.5 -22t11 -37.5q0 -28 -19 -48t-46 -20q-16 0 -28 8t-21 21l-12 18q-9 -12 -18 -26.5t-17 -31.5q25 -25 42 -55.5t17 -74.5q0 -52 -30.5 -93.5t-86.5 -66t-133 -24.5q-28 0 -52 3.5t-41 7.5q-13 -11 -20 -22.5t-7 -21.5q0 -16 10.5 -24.5t27.5 -11t36 -2.5h171
q93 0 143.5 -31.5t50.5 -98.5q0 -28 -10 -56t-33 -53.5t-61.5 -45.5t-95 -31.5t-134.5 -11.5zM309 -145q47 0 80 10t50.5 27.5t17.5 39.5q0 25 -20.5 36.5t-56.5 11.5h-163q-18 -13 -28 -29.5t-10 -34.5q0 -31 32 -46t98 -15zM305 259q44 0 67.5 24t23.5 67q0 49 -25 74
t-69 25q-46 0 -67.5 -28t-21.5 -69t24.5 -67t67.5 -26zM303 606q-54 0 -94 25t-62 69.5t-27 103.5l67 15q13 -52 42.5 -78.5t77.5 -26.5q51 0 78 29t40 75l66 -13q-6 -57 -30 -102.5t-63.5 -71t-94.5 -25.5z" />
    <glyph glyph-name="Gdotaccent" unicode="&#x120;" horiz-adv-x="844" 
d="M402 -14q-111 0 -188.5 46.5t-117.5 127.5t-40 185q0 86 26 154t74.5 116t115.5 73.5t149 25.5q63 0 107 -14t79 -39l12 53h67l42 -240l-84 -17q-22 58 -51 92t-68.5 49t-91.5 15q-48 0 -85.5 -16t-63 -46.5t-39 -75.5t-13.5 -102q0 -67 15 -117t43 -83.5t67.5 -50.5
t87.5 -17q30 0 53.5 4t43 11.5t34.5 18.5v84q0 24 -6 36t-30 13l-54 2v77h321v-77l-42 -3q-19 -2 -26 -12.5t-7 -38.5v-221h-92l-23 61q-19 -15 -50 -32t-72 -29.5t-93 -12.5zM421 767q-45 0 -71.5 22.5t-26.5 62.5q0 38 26 61t73 23t72.5 -22.5t25.5 -61.5t-27 -62t-72 -23
z" />
    <glyph glyph-name="gdotaccent" unicode="&#x121;" horiz-adv-x="653" 
d="M293 -233q-67 0 -117.5 8.5t-83.5 25t-49.5 41t-16.5 56.5t15 53.5t41 36.5t59 26v3q-37 11 -55.5 34.5t-18.5 48.5q0 26 14.5 51t51.5 52v3q-40 21 -61.5 56t-21.5 84q0 64 34 106.5t92 63.5t131 21q22 0 46 -2.5t49 -8t47 -16.5q26 54 58.5 85t75.5 31q20 0 37.5 -7.5
t28.5 -22t11 -37.5q0 -28 -19 -48t-46 -20q-16 0 -28 8t-21 21l-12 18q-9 -12 -18 -26.5t-17 -31.5q25 -25 42 -55.5t17 -74.5q0 -52 -30.5 -93.5t-86.5 -66t-133 -24.5q-28 0 -52 3.5t-41 7.5q-13 -11 -20 -22.5t-7 -21.5q0 -16 10.5 -24.5t27.5 -11t36 -2.5h171
q93 0 143.5 -31.5t50.5 -98.5q0 -28 -10 -56t-33 -53.5t-61.5 -45.5t-95 -31.5t-134.5 -11.5zM309 -145q47 0 80 10t50.5 27.5t17.5 39.5q0 25 -20.5 36.5t-56.5 11.5h-163q-18 -13 -28 -29.5t-10 -34.5q0 -31 32 -46t98 -15zM305 259q44 0 67.5 24t23.5 67q0 49 -25 74
t-69 25q-46 0 -67.5 -28t-21.5 -69t24.5 -67t67.5 -26zM301 619q-45 0 -71.5 22.5t-26.5 62.5q0 38 26 61t73 23t72.5 -22.5t25.5 -61.5q0 -40 -27 -62.5t-72 -22.5z" />
    <glyph glyph-name="uni0122" unicode="&#x122;" horiz-adv-x="844" 
d="M402 -14q-111 0 -188.5 46.5t-117.5 127.5t-40 185q0 86 26 154t74.5 116t115.5 73.5t149 25.5q63 0 107 -14t79 -39l12 53h67l42 -240l-84 -17q-22 58 -51 92t-68.5 49t-91.5 15q-48 0 -85.5 -16t-63 -46.5t-39 -75.5t-13.5 -102q0 -67 15 -117t43 -83.5t67.5 -50.5
t87.5 -17q30 0 53.5 4t43 11.5t34.5 18.5v84q0 24 -6 36t-30 13l-54 2v77h321v-77l-42 -3q-19 -2 -26 -12.5t-7 -38.5v-221h-92l-23 61q-19 -15 -50 -32t-72 -29.5t-93 -12.5zM381 -318l-39 44q20 16 32.5 30t19.5 27.5t8 28.5h-11q-26 0 -38.5 16t-12.5 39q0 26 11 41.5
t30 23t41 7.5q24 0 43 -10t30 -29t11 -48q0 -27 -12 -56.5t-39.5 -59t-73.5 -54.5z" />
    <glyph glyph-name="uni0123" unicode="&#x123;" horiz-adv-x="653" 
d="M293 -233q-67 0 -117.5 8.5t-83.5 25t-49.5 41t-16.5 56.5t15 53.5t41 36.5t59 26v3q-37 11 -55.5 34.5t-18.5 48.5q0 26 14.5 51t51.5 52v3q-40 21 -61.5 56t-21.5 84q0 64 34 106.5t92 63.5t131 21q22 0 46 -2.5t49 -8t47 -16.5q26 54 58.5 85t75.5 31q20 0 37.5 -7.5
t28.5 -22t11 -37.5q0 -28 -19 -48t-46 -20q-16 0 -28 8t-21 21l-12 18q-9 -12 -18 -26.5t-17 -31.5q25 -25 42 -55.5t17 -74.5q0 -52 -30.5 -93.5t-86.5 -66t-133 -24.5q-28 0 -52 3.5t-41 7.5q-13 -11 -20 -22.5t-7 -21.5q0 -16 10.5 -24.5t27.5 -11t36 -2.5h171
q93 0 143.5 -31.5t50.5 -98.5q0 -28 -10 -56t-33 -53.5t-61.5 -45.5t-95 -31.5t-134.5 -11.5zM309 -145q47 0 80 10t50.5 27.5t17.5 39.5q0 25 -20.5 36.5t-56.5 11.5h-163q-18 -13 -28 -29.5t-10 -34.5q0 -31 32 -46t98 -15zM305 259q44 0 67.5 24t23.5 67q0 49 -25 74
t-69 25q-46 0 -67.5 -28t-21.5 -69t24.5 -67t67.5 -26zM302 593q-37 0 -60 22t-23 59q0 25 11 53t36.5 55.5t70.5 51.5l37 -44q-20 -15 -31.5 -28.5t-16.5 -26t-6 -25.5h8q29 0 40 -15t11 -35q0 -23 -11 -38t-28.5 -22t-37.5 -7z" />
    <glyph glyph-name="Hcircumflex" unicode="&#x124;" horiz-adv-x="925" 
d="M58 0v76l53 4q17 1 25 9.5t8 40.5v443q0 23 -6 35t-30 13l-50 3v76h338v-76l-52 -4q-19 -1 -26 -12t-7 -39v-162h304v166q0 20 -5 33t-31 14l-49 4v76h336v-76l-51 -3q-19 -1 -26 -11.5t-7 -39.5v-444q0 -23 5.5 -34t29.5 -13l49 -3v-76h-336v76l51 4q19 2 26.5 11
t7.5 39v178h-304v-182q0 -26 7 -35.5t28 -11.5l50 -3v-76h-338zM313 741l-37 48l127 134q17 19 31 27t34 8q17 0 31.5 -8t33.5 -29l119 -130l-36 -50l-151 87z" />
    <glyph glyph-name="hcircumflex" unicode="&#x125;" horiz-adv-x="758" 
d="M52 0v75l46 3q17 1 23 10.5t6 35.5v489q0 34 -7.5 47t-35.5 15l-47 3l7 79l227 10l15 -11v-308h3q26 41 72.5 65.5t107.5 24.5t101.5 -22t60.5 -61t20 -90v-247q0 -18 5 -28.5t29 -12.5l44 -2v-75h-299v75l31 2q19 1 25 10t6 32v201q0 34 -8 57t-26.5 35.5t-53.5 12.5
t-62 -13t-41.5 -40t-14.5 -67v-183q0 -21 5.5 -31.5t21.5 -12.5l37 -3v-75h-298zM11 799l-37 48l127 134q17 19 31 27t34 8q17 0 31.5 -8t33.5 -29l119 -130l-36 -50l-151 87z" />
    <glyph glyph-name="Hbar" unicode="&#x126;" horiz-adv-x="880" 
d="M52 0v76l49 5q19 3 25.5 12.5t6.5 38.5v329h-91l11 76h80v37q0 27 -7 37t-28 12l-46 4v73h327v-73l-48 -5q-18 -3 -24.5 -13t-6.5 -38v-34h282v38q0 23 -6 33.5t-29 13.5l-44 5v73h324v-73l-47 -4q-18 -2 -24.5 -12.5t-6.5 -38.5v-35h81v-76h-81v-333q0 -24 6 -34t27 -13
l45 -5v-76h-324v76l47 5q19 3 25.5 12.5t6.5 38.5v161h-282v-165q0 -27 6.5 -35.5t26.5 -11.5l46 -5v-76h-327zM300 379h282v82h-282v-82z" />
    <glyph glyph-name="hbar" unicode="&#x127;" horiz-adv-x="758" 
d="M52 0v75l46 3q17 1 23 10.5t6 35.5v435h-104l8 69h96v10q0 20 -7.5 28.5t-35.5 9.5l-47 3l7 78l227 10l15 -11v-128h128v-69h-128v-111h3q26 41 72.5 65.5t107.5 24.5t101.5 -22t60.5 -61t20 -90v-247q0 -18 5 -28.5t29 -12.5l44 -2v-75h-299v75l31 2q19 1 25 10t6 32
v201q0 34 -8 57t-26.5 35.5t-53.5 12.5t-62 -13t-41.5 -40t-14.5 -67v-183q0 -21 5.5 -31.5t21.5 -12.5l37 -3v-75h-298z" />
    <glyph glyph-name="Itilde" unicode="&#x128;" horiz-adv-x="456" 
d="M58 0v76l53 4q20 1 26.5 12t6.5 38v443q0 25 -6 36t-30 12l-50 3v76h339v-76l-53 -4q-19 -1 -26 -11t-7 -39v-443q0 -25 6.5 -35t28.5 -12l51 -4v-76h-339zM312 772q-26 0 -49 6.5t-47 16.5q-18 8 -32.5 14t-26 8.5t-21.5 2.5q-14 0 -25 -8.5t-24 -30.5l-55 32
q20 46 37.5 71t37.5 35t45 10q26 0 48.5 -7t47.5 -18q25 -10 44.5 -16.5t32.5 -6.5q14 0 24 9.5t22 30.5l55 -31q-19 -44 -36 -69.5t-36 -37t-42 -11.5z" />
    <glyph glyph-name="itilde" unicode="&#x129;" horiz-adv-x="404" 
d="M45 0v75l55 3q19 1 25 11.5t6 38.5v246q0 32 -6 46t-32 15l-49 3l8 81l223 12l16 -9v-397q0 -22 4.5 -34t26.5 -13l54 -3v-75h-331zM257 615q-26 0 -49 6.5t-47 16.5q-18 8 -32.5 14t-26 8.5t-21.5 2.5q-14 0 -25 -8.5t-24 -30.5l-55 32q20 46 37.5 71t37.5 35t45 10
q26 0 48.5 -7t47.5 -18q25 -10 44.5 -16.5t32.5 -6.5q14 0 24 9.5t22 30.5l55 -31q-19 -44 -36 -69.5t-36 -37t-42 -11.5z" />
    <glyph glyph-name="Imacron" unicode="&#x12a;" horiz-adv-x="456" 
d="M58 0v76l53 4q20 1 26.5 12t6.5 38v443q0 25 -6 36t-30 12l-50 3v76h339v-76l-53 -4q-19 -1 -26 -11t-7 -39v-443q0 -25 6.5 -35t28.5 -12l51 -4v-76h-339zM59 790v111h340v-111h-340z" />
    <glyph glyph-name="imacron" unicode="&#x12b;" horiz-adv-x="404" 
d="M45 0v75l55 3q19 1 25 11.5t6 38.5v246q0 32 -6 46t-32 15l-49 3l8 81l223 12l16 -9v-397q0 -22 4.5 -34t26.5 -13l54 -3v-75h-331zM11 633v111h330v-111h-330z" />
    <glyph glyph-name="Ibreve" unicode="&#x12c;" horiz-adv-x="456" 
d="M58 0v76l53 4q20 1 26.5 12t6.5 38v443q0 25 -6 36t-30 12l-50 3v76h339v-76l-53 -4q-19 -1 -26 -11t-7 -39v-443q0 -25 6.5 -35t28.5 -12l51 -4v-76h-339zM229 758q-57 0 -96.5 25t-62 68.5t-27.5 100.5l67 14q14 -51 44 -74.5t77 -23.5q49 0 79.5 24.5t42.5 71.5
l66 -13q-5 -54 -28 -98t-63.5 -69.5t-98.5 -25.5z" />
    <glyph glyph-name="ibreve" unicode="&#x12d;" horiz-adv-x="404" 
d="M45 0v75l55 3q19 1 25 11.5t6 38.5v246q0 32 -6 46t-32 15l-49 3l8 81l223 12l16 -9v-397q0 -22 4.5 -34t26.5 -13l54 -3v-75h-331zM173 599q-54 0 -94 25t-62 69.5t-27 103.5l65 15q12 -52 43 -78.5t79 -26.5q51 0 79.5 29t41.5 75l63 -13q-6 -57 -30 -102.5t-63 -71
t-95 -25.5z" />
    <glyph glyph-name="Iogonek" unicode="&#x12e;" horiz-adv-x="456" 
d="M221 -242q-43 0 -70 13.5t-39 35t-12 43.5q0 34 19 61t49.5 49t63.5 40h-174v76l53 4q20 1 26.5 12t6.5 38v443q0 25 -6 36t-30 12l-50 3v76h339v-76l-53 -4q-19 -1 -26 -11t-7 -39v-443q0 -25 6.5 -35t28.5 -12l51 -4v-76h-84q-46 -39 -66.5 -66t-20.5 -53q0 -20 12 -29
t32 -9q17 0 34.5 4t33.5 12l24 -54q-15 -11 -35.5 -22t-47 -18t-58.5 -7z" />
    <glyph glyph-name="iogonek" unicode="&#x12f;" horiz-adv-x="384" 
d="M194 -242q-43 0 -70 13.5t-39 35t-12 43.5q0 34 19 61t49.5 49t63.5 40h-160v75l55 3q19 1 25 11.5t6 38.5v246q0 32 -6 46t-32 15l-49 3l8 81l223 12l16 -9v-397q0 -22 4.5 -34t26.5 -13l54 -3v-75h-90q-46 -39 -66.5 -66t-20.5 -53q0 -20 12 -29t32 -9q17 0 34.5 4
t33.5 12l24 -54q-15 -11 -35.5 -22t-47 -18t-58.5 -7zM196 606q-46 0 -73 22.5t-27 62.5q0 39 26.5 61.5t73.5 22.5t73 -22t26 -62q0 -39 -27 -62t-72 -23z" />
    <glyph glyph-name="Idotaccent" unicode="&#x130;" horiz-adv-x="456" 
d="M58 0v76l53 4q20 1 26.5 12t6.5 38v443q0 25 -6 36t-30 12l-50 3v76h339v-76l-53 -4q-19 -1 -26 -11t-7 -39v-443q0 -25 6.5 -35t28.5 -12l51 -4v-76h-339zM228 767q-45 0 -71.5 22.5t-26.5 62.5q0 38 26 61t73 23t72.5 -22.5t25.5 -61.5t-27 -62t-72 -23z" />
    <glyph glyph-name="dotlessi" unicode="&#x131;" horiz-adv-x="404" 
d="M45 0v75l55 3q19 1 25 11.5t6 38.5v246q0 32 -6 46t-32 15l-49 3l8 81l223 12l16 -9v-397q0 -22 4.5 -34t26.5 -13l54 -3v-75h-331z" />
    <glyph glyph-name="IJ" unicode="&#x132;" horiz-adv-x="1073" 
d="M58 0v76l53 4q20 1 26.5 12t6.5 38v443q0 25 -6 36t-30 12l-50 3v76h339v-76l-53 -4q-19 -1 -26 -11t-7 -39v-443q0 -25 6.5 -35t28.5 -12l51 -4v-76h-339zM700 -14q-62 0 -112.5 18t-80 51t-29.5 76q0 34 12 57.5t34 36t51 12.5q34 0 55 -15.5t21 -38.5
q0 -19 -7.5 -37.5t-26.5 -47.5q14 -10 34.5 -15.5t40.5 -5.5q33 0 54 15t31 44t10 67v365q0 25 -6 37t-30 13l-69 4v78h359v-76l-54 -4q-19 -1 -26 -13t-7 -37v-330q0 -124 -64 -189t-190 -65z" />
    <glyph glyph-name="ij" unicode="&#x133;" horiz-adv-x="767" 
d="M45 0v75l55 3q19 1 25 11.5t6 38.5v246q0 32 -6 46t-32 15l-49 3l8 81l223 12l16 -9v-397q0 -22 4.5 -34t26.5 -13l54 -3v-75h-331zM196 606q-46 0 -73 22.5t-27 62.5q0 39 26.5 61.5t73.5 22.5t73 -22t26 -62q0 -39 -27 -62t-72 -23zM484 -230l-50 65q24 20 40.5 42
t27 46.5t15 54t4.5 66.5v330q0 34 -7.5 47t-31.5 14l-48 3l8 81l222 12l16 -9v-423q0 -67 -12.5 -118t-37 -89t-61.5 -67.5t-85 -54.5zM585 606q-46 0 -72.5 22.5t-26.5 62.5q0 39 26 61.5t73 22.5q48 0 74 -22t26 -62q0 -39 -27.5 -62t-72.5 -23z" />
    <glyph glyph-name="Jcircumflex" unicode="&#x134;" horiz-adv-x="618" 
d="M244 -14q-62 0 -112.5 18t-80 51t-29.5 76q0 34 12 57.5t34 36t51 12.5q34 0 55 -15.5t21 -38.5q0 -19 -7.5 -37.5t-26.5 -47.5q14 -10 34.5 -15.5t40.5 -5.5q33 0 54 15t31 44t10 67v365q0 25 -6 37t-30 13l-69 4v78h359v-76l-54 -4q-19 -1 -26 -13t-7 -37v-330
q0 -124 -64 -189t-190 -65zM254 741l-37 48l127 134q17 19 31 27t34 8q17 0 31.5 -8t33.5 -29l119 -130l-36 -50l-151 87z" />
    <glyph glyph-name="jcircumflex" unicode="&#x135;" horiz-adv-x="364" 
d="M85 -230l-50 65q24 20 40.5 42t27 46.5t15 54t4.5 66.5v330q0 35 -7.5 47.5t-31.5 13.5l-48 3l8 81l222 12l16 -9v-423q0 -67 -12.5 -118t-37 -89t-61.5 -67.5t-85 -54.5zM32 592l-44 42l118 147q18 23 34 31.5t38 8.5q20 0 32 -5.5t22.5 -15.5t23.5 -27l111 -139
l-44 -42l-145 104z" />
    <glyph glyph-name="uni0136" unicode="&#x136;" horiz-adv-x="832" 
d="M689 -15q-36 0 -64 8t-49.5 23t-39 34.5t-32.5 41.5l-136 201l-57 -55v-112q0 -26 7 -35.5t28 -11.5l50 -3v-76h-338v76l53 4q17 1 25 9.5t8 40.5v443q0 26 -6.5 36.5t-29.5 11.5l-50 3v76h338v-76l-53 -4q-19 -1 -25.5 -12t-6.5 -39v-206l232 213q12 10 15 20t-2 17.5
t-21 7.5l-46 3l11 76h272v-78l-43 -4q-13 -1 -21.5 -6t-19 -14t-28.5 -26l-175 -163l171 -243q20 -28 35.5 -46.5t32 -27t39.5 -8.5q12 0 24.5 2t25.5 5l15 -62q-21 -18 -57 -31t-82 -13zM385 -318l-39 44q20 16 32.5 30t19.5 27.5t8 28.5h-11q-26 0 -38.5 16t-12.5 39
q0 26 11 41.5t30 23t41 7.5q24 0 43 -10t30 -29t11 -48q0 -27 -12 -56.5t-39.5 -59t-73.5 -54.5z" />
    <glyph glyph-name="uni0137" unicode="&#x137;" horiz-adv-x="731" 
d="M602 -12q-32 0 -57.5 8t-48 26.5t-46.5 48.5l-153 191l1 16l157 127q16 12 15.5 26t-17.5 15l-41 4l14 74h262v-76l-39 -4q-20 -2 -36 -11t-35 -25l-129 -104l142 -167q23 -29 41 -41t41 -12q8 0 17 2t23 6l16 -60q-24 -19 -58 -31.5t-69 -12.5zM52 0v75l46 3
q17 1 23 10.5t6 35.5v489q0 34 -7.5 47t-35.5 15l-47 3l7 79l227 10l15 -11v-632q0 -24 6 -34t25 -12l37 -4v-74h-302zM314 -319l-39 44q20 16 32.5 30t19.5 27.5t8 28.5h-11q-26 0 -38.5 16t-12.5 39q0 26 11 41.5t30 23t41 7.5q24 0 43 -10t30 -29t11 -48q0 -27 -12 -56.5
t-39.5 -59t-73.5 -54.5z" />
    <glyph glyph-name="kgreenlandic" unicode="&#x138;" horiz-adv-x="735" 
d="M605 -12q-31 0 -56 7.5t-47.5 25.5t-47.5 50l-153 191v16l158 127q15 12 15 26t-17 15l-42 4l15 74h261v-76l-39 -4q-19 -2 -35.5 -11t-35.5 -25l-129 -104l143 -167q23 -29 41 -41t40 -12q8 0 17.5 2t22.5 6l16 -60q-23 -19 -57 -31.5t-70 -12.5zM52 0v75l49 3
q18 1 23.5 11.5t5.5 36.5v246q0 33 -6 47.5t-33 15.5l-48 3l8 81l223 12l16 -9v-397q0 -25 5 -35t23 -12l39 -3v-75h-305z" />
    <glyph glyph-name="Lacute" unicode="&#x139;" horiz-adv-x="687" 
d="M58 0v76l53 4q18 1 25.5 10.5t7.5 40.5v443q0 24 -6 35t-29 12l-51 3v76h352v-76l-63 -4q-21 -1 -28.5 -10.5t-7.5 -35.5v-483h98q32 0 53.5 5.5t37.5 20.5t29.5 45.5t28.5 79.5h93l-26 -242h-567zM162 747l-32 47l145 135q15 14 26 18.5t22 4.5q29 0 44.5 -21.5
t15.5 -47.5q0 -22 -12 -38t-40 -28z" />
    <glyph glyph-name="lacute" unicode="&#x13a;" horiz-adv-x="400" 
d="M52 0v75l44 3q18 1 24.5 10t6.5 38v488q0 33 -8 46t-36 15l-46 3l7 79l226 10l16 -11v-632q0 -25 6 -35t27 -12l45 -2v-75h-312zM93 805l-32 47l145 135q15 14 26 18.5t22 4.5q29 0 44.5 -21.5t15.5 -47.5q0 -22 -12 -38t-40 -28z" />
    <glyph glyph-name="uni013B" unicode="&#x13b;" horiz-adv-x="687" 
d="M58 0v76l53 4q18 1 25.5 10.5t7.5 40.5v443q0 24 -6 35t-29 12l-51 3v76h352v-76l-63 -4q-21 -1 -28.5 -10.5t-7.5 -35.5v-483h98q32 0 53.5 5.5t37.5 20.5t29.5 45.5t28.5 79.5h93l-26 -242h-567zM313 -318l-39 44q20 16 32.5 30t19.5 27.5t8 28.5h-11q-26 0 -38.5 16
t-12.5 39q0 26 11 41.5t30 23t41 7.5q24 0 43 -10t30 -29t11 -48q0 -27 -12 -56.5t-39.5 -59t-73.5 -54.5z" />
    <glyph glyph-name="uni013C" unicode="&#x13c;" horiz-adv-x="400" 
d="M52 0v75l44 3q18 1 24.5 10t6.5 38v488q0 33 -8 46t-36 15l-46 3l7 79l226 10l16 -11v-632q0 -25 6 -35t27 -12l45 -2v-75h-312zM164 -319l-39 44q20 16 32.5 30t19.5 27.5t8 28.5h-11q-26 0 -38.5 16t-12.5 39q0 26 11 41.5t30 23t41 7.5q24 0 43 -10t30 -29t11 -48
q0 -27 -12 -56.5t-39.5 -59t-73.5 -54.5z" />
    <glyph glyph-name="Lcaron" unicode="&#x13d;" horiz-adv-x="687" 
d="M58 0v76l53 4q18 1 25.5 10.5t7.5 40.5v443q0 24 -6 35t-29 12l-51 3v76h352v-76l-63 -4q-21 -1 -28.5 -10.5t-7.5 -35.5v-483h98q32 0 53.5 5.5t37.5 20.5t29.5 45.5t28.5 79.5h93l-26 -242h-567zM512 498l-47 38q26 35 36 59.5t10 41.5q0 12 -5 21t-17 20q-10 8 -17 18
t-7 27q0 30 22 45t50 15q39 0 62 -25t23 -61q0 -24 -11.5 -56t-35.5 -68.5t-63 -74.5z" />
    <glyph glyph-name="lcaron" unicode="&#x13e;" horiz-adv-x="505" 
d="M52 0v75l44 3q18 1 24.5 10t6.5 38v488q0 33 -8 46t-36 15l-46 3l7 79l226 10l16 -11v-632q0 -25 6 -35t27 -12l45 -2v-75h-312zM387 491l-47 38q26 35 36 59.5t10 41.5q0 12 -5 21t-17 20q-10 8 -17 18t-7 27q0 30 22 45t50 15q39 0 62 -25t23 -61q0 -24 -11.5 -56
t-35.5 -68.5t-63 -74.5z" />
    <glyph glyph-name="Ldot" unicode="&#x13f;" horiz-adv-x="687" 
d="M58 0v76l53 4q18 1 25.5 10.5t7.5 40.5v443q0 24 -6 35t-29 12l-51 3v76h352v-76l-63 -4q-21 -1 -28.5 -10.5t-7.5 -35.5v-483h98q32 0 53.5 5.5t37.5 20.5t29.5 45.5t28.5 79.5h93l-26 -242h-567zM559 322q-45 0 -71.5 22.5t-26.5 62.5q0 38 26 61t73 23t72.5 -22.5
t25.5 -61.5q0 -40 -27 -62.5t-72 -22.5z" />
    <glyph glyph-name="ldot" unicode="&#x140;" horiz-adv-x="476" 
d="M52 0v75l44 3q18 1 24.5 10t6.5 38v488q0 33 -8 46t-36 15l-46 3l7 79l226 10l16 -11v-632q0 -25 6 -35t27 -12l45 -2v-75h-312zM457 374q-45 0 -71.5 22.5t-26.5 62.5q0 38 26 61t73 23t72.5 -22.5t25.5 -61.5q0 -40 -27 -62.5t-72 -22.5z" />
    <glyph glyph-name="Lslash" unicode="&#x141;" horiz-adv-x="687" 
d="M558 242h93l-26 -242h-567v76l53 4q18 1 25.5 10.5t7.5 40.5v145l-93 -47v103l93 45v197q0 24 -6 35t-29 12l-51 3v76h352v-76l-63 -4q-21 -1 -28.5 -10.5t-7.5 -35.5v-144l159 79v-102l-159 -78v-238h98q32 0 53.5 5.5t37.5 20.5t29.5 45.5t28.5 79.5z" />
    <glyph glyph-name="lslash" unicode="&#x142;" horiz-adv-x="400" 
d="M52 0v75l44 3q18 1 24.5 10t6.5 38v203l-94 -46v100l94 45v186q0 33 -8 46t-36 15l-46 3l7 79l226 10l16 -11v-281l91 42v-99l-91 -44v-250q0 -25 6 -35t27 -12l45 -2v-75h-312z" />
    <glyph glyph-name="Nacute" unicode="&#x143;" horiz-adv-x="917" 
d="M58 0v76l53 4q19 1 26 11.5t7 39.5v442q0 25 -6 36t-29 12l-51 3v76h273l327 -488h5v361q0 25 -7 35.5t-29 11.5l-48 4v76h286v-76l-51 -3q-19 -1 -26.5 -12t-7.5 -39v-570h-172l-342 491h-5v-364q0 -23 5.5 -34t29.5 -13l51 -4v-76h-289zM384 747l-32 47l145 135
q15 14 26 18.5t22 4.5q29 0 44.5 -21.5t15.5 -47.5q0 -22 -12 -38t-40 -28z" />
    <glyph glyph-name="nacute" unicode="&#x144;" horiz-adv-x="761" 
d="M54 0v75l48 3q15 1 21.5 10.5t6.5 37.5v252q0 31 -6.5 43.5t-30.5 13.5l-48 3l9 80l194 13l16 -9l9 -91h5q28 49 78 78t116 29q62 0 102 -22t60 -61t20 -90v-247q0 -19 5 -29t28 -12l45 -3v-74h-299v75l31 2q17 1 23.5 9t6.5 32v202q0 35 -7.5 58t-26 35t-52.5 12
q-36 0 -63 -13.5t-41 -40t-14 -66.5v-184q0 -23 5 -32.5t21 -11.5l37 -2v-75h-299zM349 594l-39 39l112 155q13 19 25 25.5t26 6.5q22 0 35.5 -11.5t20 -27t6.5 -29.5q0 -16 -9 -31t-29 -28z" />
    <glyph glyph-name="uni0145" unicode="&#x145;" horiz-adv-x="917" 
d="M58 0v76l53 4q19 1 26 11.5t7 39.5v442q0 25 -6 36t-29 12l-51 3v76h273l327 -488h5v361q0 25 -7 35.5t-29 11.5l-48 4v76h286v-76l-51 -3q-19 -1 -26.5 -12t-7.5 -39v-570h-172l-342 491h-5v-364q0 -23 5.5 -34t29.5 -13l51 -4v-76h-289zM406 -318l-39 44q20 16 32.5 30
t19.5 27.5t8 28.5h-11q-26 0 -38.5 16t-12.5 39q0 26 11 41.5t30 23t41 7.5q24 0 43 -10t30 -29t11 -48q0 -27 -12 -56.5t-39.5 -59t-73.5 -54.5z" />
    <glyph glyph-name="uni0146" unicode="&#x146;" horiz-adv-x="761" 
d="M54 0v75l48 3q15 1 21.5 10.5t6.5 37.5v252q0 31 -6.5 43.5t-30.5 13.5l-48 3l9 80l194 13l16 -9l9 -91h5q28 49 78 78t116 29q62 0 102 -22t60 -61t20 -90v-247q0 -19 5 -29t28 -12l45 -3v-74h-299v75l31 2q17 1 23.5 9t6.5 32v202q0 35 -7.5 58t-26 35t-52.5 12
q-36 0 -63 -13.5t-41 -40t-14 -66.5v-184q0 -23 5 -32.5t21 -11.5l37 -2v-75h-299zM347 -319l-39 44q20 16 32.5 30t19.5 27.5t8 28.5h-11q-26 0 -38.5 16t-12.5 39q0 26 11 41.5t30 23t41 7.5q24 0 43 -10t30 -29t11 -48q0 -27 -12 -56.5t-39.5 -59t-73.5 -54.5z" />
    <glyph glyph-name="Ncaron" unicode="&#x147;" horiz-adv-x="917" 
d="M58 0v76l53 4q19 1 26 11.5t7 39.5v442q0 25 -6 36t-29 12l-51 3v76h273l327 -488h5v361q0 25 -7 35.5t-29 11.5l-48 4v76h286v-76l-51 -3q-19 -1 -26.5 -12t-7.5 -39v-570h-172l-342 491h-5v-364q0 -23 5.5 -34t29.5 -13l51 -4v-76h-289zM453 757q-17 0 -31.5 8.5
t-35.5 29.5l-128 132l38 50l159 -90l159 89l34 -48l-133 -135q-18 -18 -30.5 -27t-31.5 -9z" />
    <glyph glyph-name="ncaron" unicode="&#x148;" horiz-adv-x="761" 
d="M54 0v75l48 3q15 1 21.5 10.5t6.5 37.5v252q0 31 -6.5 43.5t-30.5 13.5l-48 3l9 80l194 13l16 -9l9 -91h5q28 49 78 78t116 29q62 0 102 -22t60 -61t20 -90v-247q0 -19 5 -29t28 -12l45 -3v-74h-299v75l31 2q17 1 23.5 9t6.5 32v202q0 35 -7.5 58t-26 35t-52.5 12
q-36 0 -63 -13.5t-41 -40t-14 -66.5v-184q0 -23 5 -32.5t21 -11.5l37 -2v-75h-299zM390 598q-20 0 -33 5.5t-23 16t-23 25.5l-112 139l46 44l144 -106l146 105l45 -42l-121 -149q-17 -20 -33 -29t-36 -9z" />
    <glyph glyph-name="napostrophe" unicode="&#x149;" horiz-adv-x="931" 
d="M225 0v75l48 3q15 1 21.5 10.5t6.5 37.5v252q0 31 -6.5 43.5t-30.5 13.5l-48 3l9 80l194 13l16 -9l9 -91h5q28 49 78 78t116 29q62 0 102 -22t60 -61t20 -90v-247q0 -19 5 -29t28 -12l45 -3v-74h-299v75l31 2q17 1 23.5 9t6.5 32v202q0 35 -7.5 58t-26 35t-52.5 12
q-36 0 -63 -13.5t-41 -40t-14 -66.5v-184q0 -23 5 -32.5t21 -11.5l37 -2v-75h-299zM70 481l-36 50q39 26 60.5 51.5t23.5 52.5h-17q-21 0 -38 8t-26 23t-9 36q0 35 24.5 60t67.5 25q53 0 77 -30t24 -70q0 -35 -17.5 -73t-51 -72t-82.5 -61z" />
    <glyph glyph-name="Eng" unicode="&#x14a;" horiz-adv-x="917" 
d="M58 0v76l53 5q19 2 26 12t7 39v440q0 24 -6 35t-29 13l-51 4v76h272l323 -481h5v353q0 26 -7 35.5t-29 11.5l-48 5v76h291v-76l-51 -4q-19 -1 -26.5 -12t-7.5 -39v-474q0 -67 -13.5 -117t-40 -88t-65 -67t-86.5 -53l-50 65q22 18 37.5 35.5t25.5 38t16 44t8 50.5v1
l-341 482h-5v-358q0 -24 5.5 -34t29.5 -13l50 -5v-76h-293z" />
    <glyph glyph-name="eng" unicode="&#x14b;" horiz-adv-x="735" 
d="M471 538q62 0 102 -22t60 -61t20 -90v-269q0 -67 -12.5 -117.5t-37.5 -89t-62 -67.5t-85 -54l-50 65q24 20 41 41.5t27 46t15 54.5t5 66v279q0 35 -7.5 58t-26 35t-52.5 12q-37 0 -63.5 -13.5t-41 -40t-14.5 -66.5v-183q0 -23 5 -32.5t22 -11.5l38 -4v-74h-300v74l48 6
q15 2 21.5 11t6.5 37v250q0 30 -6.5 42t-30.5 15l-48 4l9 79l193 13l17 -9l8 -91h5q28 49 78.5 78t115.5 29z" />
    <glyph glyph-name="Omacron" unicode="&#x14c;" horiz-adv-x="854" 
d="M421 -14q-118 0 -200 45.5t-123.5 125t-41.5 181.5q0 120 47 204t133 128t202 44q109 0 190.5 -41t126.5 -118.5t45 -187.5q0 -81 -25.5 -150.5t-74 -121t-118.5 -80.5t-161 -29zM434 89q45 0 80 14.5t58.5 46t36 81t12.5 118.5q0 66 -13.5 115.5t-39 82.5t-62 49
t-84.5 16q-46 0 -81 -15t-58.5 -46t-36 -79.5t-12.5 -114.5q0 -67 13 -117t38.5 -83.5t63 -50.5t85.5 -17zM259 790v111h340v-111h-340z" />
    <glyph glyph-name="omacron" unicode="&#x14d;" horiz-adv-x="685" 
d="M333 -14q-89 0 -152.5 30.5t-96.5 90t-33 144.5q0 96 37.5 159.5t106 95.5t158.5 32q85 0 148.5 -29t99 -88t35.5 -149q0 -92 -35.5 -156t-103 -97t-164.5 -33zM349 78q41 0 67.5 19t39 57.5t12.5 95.5q0 54 -9 91t-26.5 60t-41.5 34t-54 11q-36 0 -63 -16.5t-41.5 -53
t-14.5 -96.5q0 -68 15 -113t44 -67t72 -22zM177 635v111h330v-111h-330z" />
    <glyph glyph-name="Obreve" unicode="&#x14e;" horiz-adv-x="854" 
d="M421 -14q-118 0 -200 45.5t-123.5 125t-41.5 181.5q0 120 47 204t133 128t202 44q109 0 190.5 -41t126.5 -118.5t45 -187.5q0 -81 -25.5 -150.5t-74 -121t-118.5 -80.5t-161 -29zM434 89q45 0 80 14.5t58.5 46t36 81t12.5 118.5q0 66 -13.5 115.5t-39 82.5t-62 49
t-84.5 16q-46 0 -81 -15t-58.5 -46t-36 -79.5t-12.5 -114.5q0 -67 13 -117t38.5 -83.5t63 -50.5t85.5 -17zM429 758q-57 0 -96.5 25t-62 68.5t-27.5 100.5l67 14q14 -51 44 -74.5t77 -23.5q49 0 79.5 24.5t42.5 71.5l66 -13q-5 -54 -28 -98t-63.5 -69.5t-98.5 -25.5z" />
    <glyph glyph-name="obreve" unicode="&#x14f;" horiz-adv-x="685" 
d="M333 -14q-89 0 -152.5 30.5t-96.5 90t-33 144.5q0 96 37.5 159.5t106 95.5t158.5 32q85 0 148.5 -29t99 -88t35.5 -149q0 -92 -35.5 -156t-103 -97t-164.5 -33zM349 78q41 0 67.5 19t39 57.5t12.5 95.5q0 54 -9 91t-26.5 60t-41.5 34t-54 11q-36 0 -63 -16.5t-41.5 -53
t-14.5 -96.5q0 -68 15 -113t44 -67t72 -22zM339 601q-54 0 -94 25t-62 69.5t-27 103.5l65 15q12 -52 43 -78.5t79 -26.5q51 0 79.5 29t41.5 75l63 -13q-6 -57 -30 -102.5t-63 -71t-95 -25.5z" />
    <glyph glyph-name="Ohungarumlaut" unicode="&#x150;" horiz-adv-x="854" 
d="M421 -14q-118 0 -200 45.5t-123.5 125t-41.5 181.5q0 120 47 204t133 128t202 44q109 0 190.5 -41t126.5 -118.5t45 -187.5q0 -81 -25.5 -150.5t-74 -121t-118.5 -80.5t-161 -29zM434 89q45 0 80 14.5t58.5 46t36 81t12.5 118.5q0 66 -13.5 115.5t-39 82.5t-62 49
t-84.5 16q-46 0 -81 -15t-58.5 -46t-36 -79.5t-12.5 -114.5q0 -67 13 -117t38.5 -83.5t63 -50.5t85.5 -17zM323 742l-36 44l115 142q14 17 26 24t25 7q27 0 41.5 -19.5t14.5 -40.5q0 -22 -11.5 -37.5t-36.5 -32.5zM518 742l-31 48l131 125q15 15 26.5 21t23.5 6
q24 0 39.5 -18.5t15.5 -42.5q0 -22 -13 -39t-39 -29z" />
    <glyph glyph-name="ohungarumlaut" unicode="&#x151;" horiz-adv-x="685" 
d="M333 -14q-89 0 -152.5 30.5t-96.5 90t-33 144.5q0 96 37.5 159.5t106 95.5t158.5 32q85 0 148.5 -29t99 -88t35.5 -149q0 -92 -35.5 -156t-103 -97t-164.5 -33zM349 78q41 0 67.5 19t39 57.5t12.5 95.5q0 54 -9 91t-26.5 60t-41.5 34t-54 11q-36 0 -63 -16.5t-41.5 -53
t-14.5 -96.5q0 -68 15 -113t44 -67t72 -22zM435 593l-38 40l112 153q13 18 24.5 25t24.5 7q19 0 31.5 -10t18.5 -24.5t6 -29.5q0 -17 -9 -34.5t-28 -29.5zM250 593l-39 40l103 156q12 19 23.5 25.5t25.5 6.5q19 0 31.5 -10t18.5 -24.5t6 -28.5q0 -15 -8 -31t-27 -30z" />
    <glyph glyph-name="OE" unicode="&#x152;" horiz-adv-x="1199" 
d="M404 -14q-107 0 -185 45.5t-120.5 125t-42.5 181.5q0 120 45.5 204t126.5 128t187 44q65 0 124 -21.5t101 -66.5v74h457l36 -188l-91 -15q-13 38 -25.5 61t-28.5 35t-38 16t-55 4h-108v-216h66q26 0 40 5.5t22 21.5t16 47l70 6v-235l-71 -11q-6 34 -14 51.5t-22.5 23
t-42.5 5.5h-64v-223h128q33 0 56 5.5t38.5 19t27.5 39t22 64.5h93l-26 -216h-486v80q-41 -48 -101.5 -71t-134.5 -23zM436 89q45 0 80 14.5t58.5 45.5t36 80.5t12.5 119.5q0 66 -13.5 116t-39 82.5t-62.5 48.5t-85 16q-45 0 -80 -14.5t-59.5 -45t-37 -79.5t-12.5 -116
t13.5 -117t39.5 -83.5t63.5 -50.5t85.5 -17z" />
    <glyph glyph-name="oe" unicode="&#x153;" horiz-adv-x="1039" 
d="M321 -14q-81 0 -142 30.5t-94.5 90t-33.5 144.5q0 96 37 159.5t103.5 95.5t151.5 32q44 0 83.5 -12t72 -33t53.5 -48q38 46 90.5 69.5t120.5 23.5t118 -23.5t78 -67.5t28 -108q0 -25 -2 -51.5t-7 -50.5h-345q3 -44 22 -74t52.5 -44.5t78.5 -14.5q48 0 86.5 14.5
t73.5 39.5l51 -59q-41 -49 -104.5 -81t-141.5 -32q-46 0 -86.5 11t-72 31t-52.5 47q-32 -39 -86 -64t-133 -25zM349 77q42 0 68.5 19t39.5 57.5t13 96.5q0 54 -9.5 91t-26.5 60t-42 34t-55 11q-36 0 -63 -16.5t-41.5 -53t-14.5 -96.5q0 -51 8.5 -89.5t25 -63.5t41 -37.5
t56.5 -12.5zM632 321h199q2 12 2.5 23.5t0.5 22.5q0 40 -21.5 62.5t-63.5 22.5q-35 0 -60 -16.5t-39 -46t-18 -68.5z" />
    <glyph glyph-name="Racute" unicode="&#x154;" horiz-adv-x="796" 
d="M656 -14q-49 0 -82 15.5t-55.5 44.5t-37.5 70l-42 118q-9 22 -18.5 38.5t-25.5 26.5t-45 10q-10 0 -20 -0.5t-19 -1.5v-177q0 -27 7 -37t33 -13l50 -3v-77h-343v76l52 4q18 1 26 10t8 41v443q0 22 -6 34t-30 13l-50 3v76h327q63 0 117 -8.5t94.5 -28.5t63 -54t22.5 -85
q0 -37 -14 -65.5t-37.5 -49.5t-51 -34.5t-56 -21.5t-53.5 -11v-4q59 -9 91 -29.5t51 -66.5l29 -65q15 -34 26.5 -54.5t26 -29t36.5 -8.5q11 0 21.5 2t25.5 5l15 -62q-24 -19 -58 -31.5t-78 -12.5zM360 384q45 0 76.5 14.5t48.5 42.5t17 66q0 43 -19 66t-51 32t-71 9h-48
v-228q11 -1 24.5 -1.5t22.5 -0.5zM292 747l-32 47l145 135q15 14 26 18.5t22 4.5q29 0 44.5 -21.5t15.5 -47.5q0 -22 -12 -38t-40 -28z" />
    <glyph glyph-name="racute" unicode="&#x155;" horiz-adv-x="590" 
d="M54 0v75l47 3q17 1 23 11t6 38v248q0 35 -6.5 47t-29.5 13l-49 3l9 80l194 13l16 -9l9 -92h5q27 49 71.5 78.5t98.5 29.5q57 0 89.5 -30t32.5 -80q0 -33 -10 -56t-29.5 -35t-48.5 -12q-39 0 -57 15.5t-18 37.5q0 8 1.5 15.5t5.5 17.5t11 26q-23 8 -47 1.5t-44 -24.5
t-32 -45.5t-12 -60.5v-183q0 -26 5.5 -36t24.5 -11l81 -4v-74h-347zM276 594l-39 39l112 155q13 19 25 25.5t26 6.5q22 0 35.5 -11.5t20 -27t6.5 -29.5q0 -16 -9 -31t-29 -28z" />
    <glyph glyph-name="uni0156" unicode="&#x156;" horiz-adv-x="796" 
d="M656 -14q-49 0 -82 15.5t-55.5 44.5t-37.5 70l-42 118q-9 22 -18.5 38.5t-25.5 26.5t-45 10q-10 0 -20 -0.5t-19 -1.5v-177q0 -27 7 -37t33 -13l50 -3v-77h-343v76l52 4q18 1 26 10t8 41v443q0 22 -6 34t-30 13l-50 3v76h327q63 0 117 -8.5t94.5 -28.5t63 -54t22.5 -85
q0 -37 -14 -65.5t-37.5 -49.5t-51 -34.5t-56 -21.5t-53.5 -11v-4q59 -9 91 -29.5t51 -66.5l29 -65q15 -34 26.5 -54.5t26 -29t36.5 -8.5q11 0 21.5 2t25.5 5l15 -62q-24 -19 -58 -31.5t-78 -12.5zM360 384q45 0 76.5 14.5t48.5 42.5t17 66q0 43 -19 66t-51 32t-71 9h-48
v-228q11 -1 24.5 -1.5t22.5 -0.5zM360 -318l-39 44q20 16 32.5 30t19.5 27.5t8 28.5h-11q-26 0 -38.5 16t-12.5 39q0 26 11 41.5t30 23t41 7.5q24 0 43 -10t30 -29t11 -48q0 -27 -12 -56.5t-39.5 -59t-73.5 -54.5z" />
    <glyph glyph-name="uni0157" unicode="&#x157;" horiz-adv-x="590" 
d="M54 0v75l47 3q17 1 23 11t6 38v248q0 35 -6.5 47t-29.5 13l-49 3l9 80l194 13l16 -9l9 -92h5q27 49 71.5 78.5t98.5 29.5q57 0 89.5 -30t32.5 -80q0 -33 -10 -56t-29.5 -35t-48.5 -12q-39 0 -57 15.5t-18 37.5q0 8 1.5 15.5t5.5 17.5t11 26q-23 8 -47 1.5t-44 -24.5
t-32 -45.5t-12 -60.5v-183q0 -26 5.5 -36t24.5 -11l81 -4v-74h-347zM177 -319l-39 44q20 16 32.5 30t19.5 27.5t8 28.5h-11q-26 0 -38.5 16t-12.5 39q0 26 11 41.5t30 23t41 7.5q24 0 43 -10t30 -29t11 -48q0 -27 -12 -56.5t-39.5 -59t-73.5 -54.5z" />
    <glyph glyph-name="Rcaron" unicode="&#x158;" horiz-adv-x="796" 
d="M656 -14q-49 0 -82 15.5t-55.5 44.5t-37.5 70l-42 118q-9 22 -18.5 38.5t-25.5 26.5t-45 10q-10 0 -20 -0.5t-19 -1.5v-177q0 -27 7 -37t33 -13l50 -3v-77h-343v76l52 4q18 1 26 10t8 41v443q0 22 -6 34t-30 13l-50 3v76h327q63 0 117 -8.5t94.5 -28.5t63 -54t22.5 -85
q0 -37 -14 -65.5t-37.5 -49.5t-51 -34.5t-56 -21.5t-53.5 -11v-4q59 -9 91 -29.5t51 -66.5l29 -65q15 -34 26.5 -54.5t26 -29t36.5 -8.5q11 0 21.5 2t25.5 5l15 -62q-24 -19 -58 -31.5t-78 -12.5zM360 384q45 0 76.5 14.5t48.5 42.5t17 66q0 43 -19 66t-51 32t-71 9h-48
v-228q11 -1 24.5 -1.5t22.5 -0.5zM361 757q-17 0 -31.5 8.5t-35.5 29.5l-128 132l38 50l159 -90l159 89l34 -48l-133 -135q-18 -18 -30.5 -27t-31.5 -9z" />
    <glyph glyph-name="rcaron" unicode="&#x159;" horiz-adv-x="590" 
d="M54 0v75l47 3q17 1 23 11t6 38v248q0 35 -6.5 47t-29.5 13l-49 3l9 80l194 13l16 -9l9 -92h5q27 49 71.5 78.5t98.5 29.5q57 0 89.5 -30t32.5 -80q0 -33 -10 -56t-29.5 -35t-48.5 -12q-39 0 -57 15.5t-18 37.5q0 8 1.5 15.5t5.5 17.5t11 26q-23 8 -47 1.5t-44 -24.5
t-32 -45.5t-12 -60.5v-183q0 -26 5.5 -36t24.5 -11l81 -4v-74h-347zM317 598q-20 0 -33 5.5t-23 16t-23 25.5l-112 139l46 44l144 -106l146 105l45 -42l-121 -149q-17 -20 -33 -29t-36 -9z" />
    <glyph glyph-name="Sacute" unicode="&#x15a;" horiz-adv-x="676" 
d="M360 -14q-59 0 -111.5 17t-87.5 45l-15 -54h-71l-19 222l79 11q14 -35 34.5 -62t47 -44.5t57.5 -26.5t66 -9q39 0 65.5 9t40 26.5t13.5 42.5q0 30 -16 49.5t-51 35.5t-94 31q-51 14 -92 32t-70.5 43t-45 60.5t-15.5 85.5q0 28 9.5 57.5t28.5 57t49.5 50t72 36t96.5 13.5
q52 0 92.5 -13t73.5 -36l15 49h66l21 -213l-79 -17q-19 53 -47 82t-62 40.5t-71 11.5q-46 0 -77 -19t-31 -57q0 -28 17 -47t51 -34t86 -29q56 -15 100 -33.5t74.5 -43.5t46.5 -60t16 -85q0 -54 -21.5 -96t-58.5 -70.5t-84 -43t-99 -14.5zM271 747l-32 47l145 135
q15 14 26 18.5t22 4.5q29 0 44.5 -21.5t15.5 -47.5q0 -22 -12 -38t-40 -28z" />
    <glyph glyph-name="sacute" unicode="&#x15b;" horiz-adv-x="549" 
d="M64 -14l-13 179l85 5q16 -33 38 -55.5t50.5 -34t61.5 -11.5q43 0 65.5 17t22.5 44q0 19 -11.5 31.5t-38 22t-72.5 19.5q-40 8 -75 20t-61 30.5t-41 46.5t-15 69q0 54 26.5 92t73.5 57.5t106 19.5q40 0 76 -10t57 -24l9 34h71l10 -172l-83 5q-16 44 -51.5 68t-79.5 24
q-41 0 -62 -14t-21 -41q0 -20 11.5 -32.5t38 -21.5t69.5 -19q47 -11 83.5 -24t61.5 -31.5t38 -45.5t13 -66q0 -56 -27 -97t-75 -63t-111 -22q-49 0 -85 11t-62 25l-13 -36h-70zM232 594l-39 39l112 155q13 19 25 25.5t26 6.5q22 0 35.5 -11.5t20 -27t6.5 -29.5q0 -16 -9 -31
t-29 -28z" />
    <glyph glyph-name="Scircumflex" unicode="&#x15c;" horiz-adv-x="676" 
d="M360 -14q-59 0 -111.5 17t-87.5 45l-15 -54h-71l-19 222l79 11q14 -35 34.5 -62t47 -44.5t57.5 -26.5t66 -9q39 0 65.5 9t40 26.5t13.5 42.5q0 30 -16 49.5t-51 35.5t-94 31q-51 14 -92 32t-70.5 43t-45 60.5t-15.5 85.5q0 28 9.5 57.5t28.5 57t49.5 50t72 36t96.5 13.5
q52 0 92.5 -13t73.5 -36l15 49h66l21 -213l-79 -17q-19 53 -47 82t-62 40.5t-71 11.5q-46 0 -77 -19t-31 -57q0 -28 17 -47t51 -34t86 -29q56 -15 100 -33.5t74.5 -43.5t46.5 -60t16 -85q0 -54 -21.5 -96t-58.5 -70.5t-84 -43t-99 -14.5zM189 741l-37 48l127 134
q17 19 31 27t34 8q17 0 31.5 -8t33.5 -29l119 -130l-36 -50l-151 87z" />
    <glyph glyph-name="scircumflex" unicode="&#x15d;" horiz-adv-x="549" 
d="M64 -14l-13 179l85 5q16 -33 38 -55.5t50.5 -34t61.5 -11.5q43 0 65.5 17t22.5 44q0 19 -11.5 31.5t-38 22t-72.5 19.5q-40 8 -75 20t-61 30.5t-41 46.5t-15 69q0 54 26.5 92t73.5 57.5t106 19.5q40 0 76 -10t57 -24l9 34h71l10 -172l-83 5q-16 44 -51.5 68t-79.5 24
q-41 0 -62 -14t-21 -41q0 -20 11.5 -32.5t38 -21.5t69.5 -19q47 -11 83.5 -24t61.5 -31.5t38 -45.5t13 -66q0 -56 -27 -97t-75 -63t-111 -22q-49 0 -85 11t-62 25l-13 -36h-70zM127 594l-44 42l118 147q18 23 34 31.5t38 8.5q20 0 32 -5.5t22.5 -15.5t23.5 -27l111 -139
l-44 -42l-145 104z" />
    <glyph glyph-name="Scedilla" unicode="&#x15e;" horiz-adv-x="676" 
d="M354 -244q-48 0 -82.5 13t-51.5 24l23 56q19 -8 39.5 -13.5t38.5 -5.5q22 0 36.5 9t14.5 28q0 16 -12.5 25t-40.5 9q-10 0 -18.5 -1t-16.5 -4l-12 34l24 62q-40 7 -75 21.5t-60 34.5l-15 -54h-71l-19 222l79 11q14 -35 34.5 -62t47 -44.5t57.5 -26.5t66 -9q39 0 65.5 9
t40 26.5t13.5 42.5q0 30 -16 49.5t-51 35.5t-94 31q-51 14 -92 32t-70.5 43t-45 60.5t-15.5 85.5q0 28 9.5 57.5t28.5 57t49.5 50t72 36t96.5 13.5q52 0 92.5 -13t73.5 -36l15 49h66l21 -213l-79 -17q-19 53 -47 82t-62 40.5t-71 11.5q-46 0 -77 -19t-31 -57q0 -28 17 -47
t51 -34t86 -29q56 -15 100 -33.5t74.5 -43.5t46.5 -60t16 -85q0 -52 -20 -93t-55.5 -69.5t-80.5 -44t-96 -16.5l-12 -33q38 3 65 -7.5t42 -32t15 -51.5q0 -35 -16.5 -58.5t-45 -36t-65.5 -12.5z" />
    <glyph glyph-name="scedilla" unicode="&#x15f;" horiz-adv-x="549" 
d="M289 -244q-48 0 -82.5 13t-51.5 23l23 56q19 -8 39.5 -13.5t38.5 -5.5q22 0 36.5 9.5t14.5 27.5q0 16 -12.5 25t-40.5 9q-10 0 -18.5 -1t-16.5 -3l-12 34l24 62q-25 5 -46 13t-38 17l-13 -36h-70l-13 179l85 5q16 -33 38 -55.5t50.5 -34t61.5 -11.5q43 0 65.5 17t22.5 44
q0 19 -11.5 31.5t-38 22t-72.5 19.5q-40 8 -75 20t-61 30.5t-41 46.5t-15 69q0 54 26.5 92t73.5 57.5t106 19.5q40 0 76 -10t57 -24l9 34h71l10 -172l-83 5q-16 44 -51.5 68t-79.5 24q-41 0 -62 -14t-21 -41q0 -20 11.5 -32.5t38 -21.5t69.5 -19q47 -11 83.5 -24t61.5 -31.5
t38 -45.5t13 -66q0 -41 -14.5 -73.5t-41.5 -56t-63.5 -37t-80.5 -15.5l-13 -32q38 3 65 -7.5t42 -32t15 -51.5q0 -35 -16.5 -59t-45 -36t-65.5 -12z" />
    <glyph glyph-name="Scaron" unicode="&#x160;" horiz-adv-x="676" 
d="M360 -14q-59 0 -111.5 17t-87.5 45l-15 -54h-71l-19 222l79 11q14 -35 34.5 -62t47 -44.5t57.5 -26.5t66 -9q39 0 65.5 9t40 26.5t13.5 42.5q0 30 -16 49.5t-51 35.5t-94 31q-51 14 -92 32t-70.5 43t-45 60.5t-15.5 85.5q0 28 9.5 57.5t28.5 57t49.5 50t72 36t96.5 13.5
q52 0 92.5 -13t73.5 -36l15 49h66l21 -213l-79 -17q-19 53 -47 82t-62 40.5t-71 11.5q-46 0 -77 -19t-31 -57q0 -28 17 -47t51 -34t86 -29q56 -15 100 -33.5t74.5 -43.5t46.5 -60t16 -85q0 -54 -21.5 -96t-58.5 -70.5t-84 -43t-99 -14.5zM340 757q-17 0 -31.5 8.5
t-35.5 29.5l-128 132l38 50l159 -90l159 89l34 -48l-133 -135q-18 -18 -30.5 -27t-31.5 -9z" />
    <glyph glyph-name="scaron" unicode="&#x161;" horiz-adv-x="549" 
d="M64 -14l-13 179l85 5q16 -33 38 -55.5t50.5 -34t61.5 -11.5q43 0 65.5 17t22.5 44q0 19 -11.5 31.5t-38 22t-72.5 19.5q-40 8 -75 20t-61 30.5t-41 46.5t-15 69q0 54 26.5 92t73.5 57.5t106 19.5q40 0 76 -10t57 -24l9 34h71l10 -172l-83 5q-16 44 -51.5 68t-79.5 24
q-41 0 -62 -14t-21 -41q0 -20 11.5 -32.5t38 -21.5t69.5 -19q47 -11 83.5 -24t61.5 -31.5t38 -45.5t13 -66q0 -56 -27 -97t-75 -63t-111 -22q-49 0 -85 11t-62 25l-13 -36h-70zM273 598q-20 0 -33 5.5t-23 16t-23 25.5l-112 139l46 44l144 -106l146 105l45 -42l-121 -149
q-17 -20 -33 -29t-36 -9z" />
    <glyph glyph-name="uni0162" unicode="&#x162;" horiz-adv-x="800" 
d="M407 -244q-48 0 -82.5 13t-51.5 24l23 56q19 -8 39.5 -13.5t38.5 -5.5q22 0 36.5 9t14.5 28q0 16 -12.5 25t-40.5 9q-10 0 -19 -1t-17 -4l-11 34l27 70h-149v76l79 6q20 2 28 12t8 39v480h-50q-29 0 -50 -4.5t-36 -19t-28 -43.5t-28 -78l-93 18l35 214h665l34 -214
l-93 -18q-14 48 -27 77t-28.5 43.5t-35.5 19.5t-49 5h-50v-482q0 -28 6.5 -37.5t29.5 -11.5l79 -6v-76h-169l-18 -46q38 3 65 -7.5t42 -32t15 -51.5q0 -35 -16.5 -58.5t-45 -36t-65.5 -12.5z" />
    <glyph glyph-name="uni0163" unicode="&#x163;" horiz-adv-x="477" 
d="M287 -244q-48 0 -83 13t-51 23l23 56q19 -8 39 -13.5t38 -5.5q22 0 37 9.5t15 27.5q0 16 -13 25t-40 9q-11 0 -19.5 -1t-16.5 -3l-11 34l24 61q-60 11 -88.5 50.5t-28.5 101.5v293h-80v75q49 6 76.5 24t40.5 52.5t19 89.5l86 12l18 -9v-156h156v-88h-156v-266
q0 -35 14 -55.5t51 -20.5q24 0 45.5 7.5t43.5 21.5l37 -65q-30 -29 -69.5 -47.5t-88.5 -23.5l-13 -33q38 3 65 -7.5t42 -32t15 -51.5q0 -35 -16.5 -59t-45 -36t-65.5 -12z" />
    <glyph glyph-name="Tcaron" unicode="&#x164;" horiz-adv-x="800" 
d="M203 0v76l79 6q20 2 28 12t8 39v480h-50q-29 0 -50 -4.5t-36 -19t-28 -43.5t-28 -78l-93 18l35 214h665l34 -214l-93 -18q-14 48 -27 77t-28.5 43.5t-35.5 19.5t-49 5h-50v-482q0 -28 6.5 -37.5t29.5 -11.5l79 -6v-76h-396zM398 757q-17 0 -31.5 8.5t-35.5 29.5l-128 132
l38 50l159 -90l159 89l34 -48l-133 -135q-18 -18 -30.5 -27t-31.5 -9z" />
    <glyph glyph-name="tcaron" unicode="&#x165;" horiz-adv-x="477" 
d="M280 -14q-56 0 -94 18.5t-56 53.5t-18 85v293h-80v75q49 6 76.5 24t40.5 52.5t19 89.5l86 12l18 -9v-156h156v-88h-156v-266q0 -35 14 -55.5t51 -20.5q24 0 45.5 7.5t43.5 21.5l37 -65q-34 -33 -80 -52.5t-103 -19.5zM370 577l-47 38q26 35 36 59.5t10 41.5q0 12 -5 21
t-17 20q-10 8 -17 18t-7 27q0 30 22 45t50 15q39 0 62 -25t23 -61q0 -24 -11.5 -56t-35.5 -68.5t-63 -74.5z" />
    <glyph glyph-name="Tbar" unicode="&#x166;" horiz-adv-x="800" 
d="M203 0v76l79 6q20 2 28 12t8 39v153h-149l10 103h139v224h-50q-29 0 -50 -4.5t-36 -19t-28 -43.5t-28 -78l-93 18l35 214h665l34 -214l-93 -18q-14 48 -27 77t-28.5 43.5t-35.5 19.5t-49 5h-50v-224h147v-103h-147v-155q0 -28 6.5 -37.5t29.5 -11.5l79 -6v-76h-396z" />
    <glyph glyph-name="tbar" unicode="&#x167;" horiz-adv-x="477" 
d="M280 -14q-56 0 -94 18.5t-56 53.5t-18 85v99h-82l9 90h73v104h-80v75q49 6 76.5 24t40.5 52.5t19 89.5l86 12l18 -9v-156h156v-88h-156v-104h153v-90h-153v-72q0 -35 14 -55.5t51 -20.5q24 0 45.5 7.5t43.5 21.5l37 -65q-34 -33 -80 -52.5t-103 -19.5z" />
    <glyph glyph-name="Utilde" unicode="&#x168;" horiz-adv-x="871" 
d="M437 -14q-85 0 -143.5 20t-94 56.5t-52 86.5t-16.5 109v315q0 26 -6.5 36.5t-29.5 11.5l-47 3v76h334v-76l-49 -4q-18 -1 -25.5 -12t-7.5 -39v-310q0 -51 15.5 -87.5t51 -56.5t97.5 -20t99.5 19.5t55 57t17.5 89.5v312q0 26 -7 36.5t-29 11.5l-47 3v76h271v-76l-49 -4
q-18 -1 -25.5 -12t-7.5 -39v-298q0 -95 -34 -158.5t-102 -95t-169 -31.5zM542 772q-26 0 -49 6.5t-47 16.5q-18 8 -32.5 14t-26 8.5t-21.5 2.5q-14 0 -25 -8.5t-24 -30.5l-55 32q20 46 37.5 71t37.5 35t45 10q26 0 48.5 -7t47.5 -18q25 -10 44.5 -16.5t32.5 -6.5
q14 0 24 9.5t22 30.5l55 -31q-19 -44 -36 -69.5t-36 -37t-42 -11.5z" />
    <glyph glyph-name="utilde" unicode="&#x169;" horiz-adv-x="743" 
d="M290 -14q-85 0 -130.5 45t-45.5 127v216q0 32 -6 46t-31 16l-41 3l9 79l212 13l16 -9v-323q0 -34 6.5 -57.5t24.5 -35t51 -11.5q36 0 61.5 15.5t39 44.5t13.5 67v151q0 34 -6 47.5t-31 15.5l-38 3l11 79l207 13l16 -9v-387q0 -28 7 -40t27 -15l45 -4v-76l-212 -8l-14 88
h-5q-22 -28 -47.5 -49t-58.5 -33t-80 -12zM437 617q-26 0 -49 6.5t-47 16.5q-18 8 -32.5 14t-26 8.5t-21.5 2.5q-14 0 -25 -8.5t-24 -30.5l-55 32q20 46 37.5 71t37.5 35t45 10q26 0 48.5 -7t47.5 -18q25 -10 44.5 -16.5t32.5 -6.5q14 0 24 9.5t22 30.5l55 -31
q-19 -44 -36 -69.5t-36 -37t-42 -11.5z" />
    <glyph glyph-name="Umacron" unicode="&#x16a;" horiz-adv-x="871" 
d="M437 -14q-85 0 -143.5 20t-94 56.5t-52 86.5t-16.5 109v315q0 26 -6.5 36.5t-29.5 11.5l-47 3v76h334v-76l-49 -4q-18 -1 -25.5 -12t-7.5 -39v-310q0 -51 15.5 -87.5t51 -56.5t97.5 -20t99.5 19.5t55 57t17.5 89.5v312q0 26 -7 36.5t-29 11.5l-47 3v76h271v-76l-49 -4
q-18 -1 -25.5 -12t-7.5 -39v-298q0 -95 -34 -158.5t-102 -95t-169 -31.5zM289 790v111h340v-111h-340z" />
    <glyph glyph-name="umacron" unicode="&#x16b;" horiz-adv-x="743" 
d="M290 -14q-85 0 -130.5 45t-45.5 127v216q0 32 -6 46t-31 16l-41 3l9 79l212 13l16 -9v-323q0 -34 6.5 -57.5t24.5 -35t51 -11.5q36 0 61.5 15.5t39 44.5t13.5 67v151q0 34 -6 47.5t-31 15.5l-38 3l11 79l207 13l16 -9v-387q0 -28 7 -40t27 -15l45 -4v-76l-212 -8l-14 88
h-5q-22 -28 -47.5 -49t-58.5 -33t-80 -12zM191 635v111h330v-111h-330z" />
    <glyph glyph-name="Ubreve" unicode="&#x16c;" horiz-adv-x="871" 
d="M437 -14q-85 0 -143.5 20t-94 56.5t-52 86.5t-16.5 109v315q0 26 -6.5 36.5t-29.5 11.5l-47 3v76h334v-76l-49 -4q-18 -1 -25.5 -12t-7.5 -39v-310q0 -51 15.5 -87.5t51 -56.5t97.5 -20t99.5 19.5t55 57t17.5 89.5v312q0 26 -7 36.5t-29 11.5l-47 3v76h271v-76l-49 -4
q-18 -1 -25.5 -12t-7.5 -39v-298q0 -95 -34 -158.5t-102 -95t-169 -31.5zM459 758q-57 0 -96.5 25t-62 68.5t-27.5 100.5l67 14q14 -51 44 -74.5t77 -23.5q49 0 79.5 24.5t42.5 71.5l66 -13q-5 -54 -28 -98t-63.5 -69.5t-98.5 -25.5z" />
    <glyph glyph-name="ubreve" unicode="&#x16d;" horiz-adv-x="743" 
d="M290 -14q-85 0 -130.5 45t-45.5 127v216q0 32 -6 46t-31 16l-41 3l9 79l212 13l16 -9v-323q0 -34 6.5 -57.5t24.5 -35t51 -11.5q36 0 61.5 15.5t39 44.5t13.5 67v151q0 34 -6 47.5t-31 15.5l-38 3l11 79l207 13l16 -9v-387q0 -28 7 -40t27 -15l45 -4v-76l-212 -8l-14 88
h-5q-22 -28 -47.5 -49t-58.5 -33t-80 -12zM357 601q-54 0 -94 25t-62 69.5t-27 103.5l67 15q13 -52 42.5 -78.5t77.5 -26.5q51 0 78 29t40 75l66 -13q-6 -57 -30 -102.5t-63.5 -71t-94.5 -25.5z" />
    <glyph glyph-name="Uring" unicode="&#x16e;" horiz-adv-x="871" 
d="M437 -14q-85 0 -143.5 20t-94 56.5t-52 86.5t-16.5 109v315q0 26 -6.5 36.5t-29.5 11.5l-47 3v76h334v-76l-49 -4q-18 -1 -25.5 -12t-7.5 -39v-310q0 -51 15.5 -87.5t51 -56.5t97.5 -20t99.5 19.5t55 57t17.5 89.5v312q0 26 -7 36.5t-29 11.5l-47 3v76h271v-76l-49 -4
q-18 -1 -25.5 -12t-7.5 -39v-298q0 -95 -34 -158.5t-102 -95t-169 -31.5zM455 749q-70 0 -110 31t-40 85q0 37 20 63.5t55.5 40.5t82.5 14q74 0 112.5 -29.5t38.5 -86.5q0 -37 -20 -63.5t-56 -40.5t-83 -14zM460 807q26 0 38 14t12 46q0 22 -6 34.5t-17 18.5t-29 6
q-25 0 -37.5 -14.5t-12.5 -45.5q0 -21 5.5 -34t17 -19t29.5 -6z" />
    <glyph glyph-name="uring" unicode="&#x16f;" horiz-adv-x="743" 
d="M290 -14q-85 0 -130.5 45t-45.5 127v216q0 32 -6 46t-31 16l-41 3l9 79l212 13l16 -9v-323q0 -34 6.5 -57.5t24.5 -35t51 -11.5q36 0 61.5 15.5t39 44.5t13.5 67v151q0 34 -6 47.5t-31 15.5l-38 3l11 79l207 13l16 -9v-387q0 -28 7 -40t27 -15l45 -4v-76l-212 -8l-14 88
h-5q-22 -28 -47.5 -49t-58.5 -33t-80 -12zM351 597q-70 0 -109.5 31.5t-39.5 85.5q0 37 20 63t55 40.5t83 14.5q74 0 112 -30t38 -86q0 -37 -20 -63.5t-55.5 -41t-83.5 -14.5zM356 656q18 0 29 6t16 19.5t5 33.5q0 22 -6 35t-17 18.5t-28 5.5q-18 0 -28.5 -6.5t-16 -19
t-5.5 -32.5q0 -22 5.5 -35.5t16.5 -19t29 -5.5z" />
    <glyph glyph-name="Uhungarumlaut" unicode="&#x170;" horiz-adv-x="871" 
d="M437 -14q-85 0 -143.5 20t-94 56.5t-52 86.5t-16.5 109v315q0 26 -6.5 36.5t-29.5 11.5l-47 3v76h334v-76l-49 -4q-18 -1 -25.5 -12t-7.5 -39v-310q0 -51 15.5 -87.5t51 -56.5t97.5 -20t99.5 19.5t55 57t17.5 89.5v312q0 26 -7 36.5t-29 11.5l-47 3v76h271v-76l-49 -4
q-18 -1 -25.5 -12t-7.5 -39v-298q0 -95 -34 -158.5t-102 -95t-169 -31.5zM353 742l-36 44l115 142q14 17 26 24t25 7q27 0 41.5 -19.5t14.5 -40.5q0 -22 -11.5 -37.5t-36.5 -32.5zM548 742l-31 48l131 125q15 15 26.5 21t23.5 6q24 0 39.5 -18.5t15.5 -42.5q0 -22 -13 -39
t-39 -29z" />
    <glyph glyph-name="uhungarumlaut" unicode="&#x171;" horiz-adv-x="743" 
d="M290 -14q-85 0 -130.5 45t-45.5 127v216q0 32 -6 46t-31 16l-41 3l9 79l212 13l16 -9v-323q0 -34 6.5 -57.5t24.5 -35t51 -11.5q36 0 61.5 15.5t39 44.5t13.5 67v151q0 34 -6 47.5t-31 15.5l-38 3l11 79l207 13l16 -9v-387q0 -28 7 -40t27 -15l45 -4v-76l-212 -8l-14 88
h-5q-22 -28 -47.5 -49t-58.5 -33t-80 -12zM449 593l-38 40l112 153q13 18 24.5 25t24.5 7q19 0 31.5 -10t18.5 -24.5t6 -29.5q0 -17 -9 -34.5t-28 -29.5zM264 593l-39 40l103 156q12 19 23.5 25.5t25.5 6.5q19 0 31.5 -10t18.5 -24.5t6 -28.5q0 -15 -8 -31t-27 -30z" />
    <glyph glyph-name="Uogonek" unicode="&#x172;" horiz-adv-x="871" 
d="M452 -242q-42 0 -67 13.5t-36 35t-11 43.5q0 29 15.5 53.5t40.5 45.5t55 38q-8 -1 -16 -1t-16 1q-79 2 -133.5 23t-88 57t-49 84.5t-15.5 106.5v315q0 26 -6.5 36.5t-29.5 11.5l-47 3v76h334v-76l-49 -4q-18 -1 -25.5 -12t-7.5 -39v-310q0 -51 15.5 -87.5t51 -56.5
t97.5 -20t99.5 19.5t55 57t17.5 89.5v312q0 26 -7 36.5t-29 11.5l-47 3v76h271v-76l-49 -4q-18 -1 -25.5 -12t-7.5 -39v-298q0 -113 -48.5 -181t-144.5 -91q-43 -33 -64 -62t-21 -56q0 -20 9 -29t29 -9q11 0 27.5 4t32.5 12l24 -54q-15 -12 -35 -23t-45 -17.5t-54 -6.5z" />
    <glyph glyph-name="uogonek" unicode="&#x173;" horiz-adv-x="743" 
d="M570 -242q-42 0 -69.5 13.5t-39.5 35t-12 43.5q0 33 17.5 59t46 47.5t60.5 38.5l-78 -3l-14 88h-5q-22 -28 -47.5 -49t-58.5 -33t-80 -12q-85 0 -130.5 45t-45.5 127v216q0 32 -6 46t-31 16l-41 3l9 79l212 13l16 -9v-323q0 -34 6.5 -57.5t24.5 -35t51 -11.5
q36 0 61.5 15.5t39 44.5t13.5 67v151q0 34 -6 47.5t-31 15.5l-38 3l11 79l207 13l16 -9v-387q0 -28 7 -40t27 -15l45 -4v-76l-46 -2q-45 -38 -65.5 -65t-20.5 -52q0 -20 12 -29t33 -9q16 0 33.5 4t33.5 12l24 -54q-15 -11 -35.5 -22t-46.5 -18t-59 -7z" />
    <glyph glyph-name="Wcircumflex" unicode="&#x174;" horiz-adv-x="1204" 
d="M260 0l-150 573q-6 25 -15 35.5t-34 12.5l-43 4v75h345v-77l-52 -2q-20 -1 -26.5 -12.5t0.5 -38.5l103 -411h5l149 541h175l164 -547h4l97 418q5 26 1 37t-26 12l-53 5v75h282v-77l-53 -2q-12 -1 -22 -5t-17 -14t-12 -31l-136 -571h-192l-155 503h-3l-143 -503h-193z
M477 741l-37 48l127 134q17 19 31 27t34 8q17 0 31.5 -8t33.5 -29l119 -130l-36 -50l-151 87z" />
    <glyph glyph-name="wcircumflex" unicode="&#x175;" horiz-adv-x="983" 
d="M230 0l-129 386q-6 19 -11.5 30.5t-13.5 18t-24 7.5l-39 3l12 79h293v-76l-42 -2q-18 -1 -22 -13t5 -38l79 -247h5l106 376h163l109 -374h6l75 240q8 27 2.5 40t-28.5 15l-31 4l10 75h223v-76l-38 -3q-19 -2 -31.5 -15t-25.5 -50l-122 -380h-150l-108 375h-5l-102 -375
h-166zM385 594l-44 42l118 147q18 23 34 31.5t38 8.5q20 0 32 -5.5t22.5 -15.5t23.5 -27l111 -139l-44 -42l-145 104z" />
    <glyph glyph-name="Ycircumflex" unicode="&#x176;" horiz-adv-x="800" 
d="M218 0v76l65 4q17 1 25.5 9.5t8.5 40.5v133l-199 306q-13 21 -25.5 34.5t-39.5 16.5l-41 4v76h351v-76l-56 -3q-21 -1 -25.5 -14t11.5 -36l136 -200h5l128 194q14 21 13.5 36.5t-31.5 17.5l-52 5v76h296v-76l-50 -3q-22 -2 -35.5 -16.5t-29.5 -40.5l-193 -301v-137
q0 -26 7 -35.5t28 -11.5l65 -3v-76h-362zM271 741l-37 48l127 134q17 19 31 27t34 8q17 0 31.5 -8t33.5 -29l119 -130l-36 -50l-151 87z" />
    <glyph glyph-name="ycircumflex" unicode="&#x177;" horiz-adv-x="668" 
d="M154 -233q-60 0 -97.5 26.5t-37.5 71.5q0 34 22 57t57 23q31 0 48 -12.5t17 -31.5q1 -9 -2 -22.5t-9 -37.5q27 -3 46.5 8t36.5 37.5t36 65.5l20 41l-187 400q-13 28 -21 37.5t-26 10.5l-39 4l13 79h301v-75l-43 -2q-21 -1 -27 -13t7 -42l104 -237h5l100 231
q12 27 7.5 42.5t-28.5 17.5l-40 3l11 75h235v-75l-39 -5q-18 -2 -27.5 -13t-24.5 -45l-188 -414q-23 -49 -44.5 -87t-47.5 -64t-59.5 -40t-78.5 -14zM216 594l-44 42l118 147q18 23 34 31.5t38 8.5q20 0 32 -5.5t22.5 -15.5t23.5 -27l111 -139l-44 -42l-145 104z" />
    <glyph glyph-name="Ydieresis" unicode="&#x178;" horiz-adv-x="800" 
d="M218 0v76l65 4q17 1 25.5 9.5t8.5 40.5v133l-199 306q-13 21 -25.5 34.5t-39.5 16.5l-41 4v76h351v-76l-56 -3q-21 -1 -25.5 -14t11.5 -36l136 -200h5l128 194q14 21 13.5 36.5t-31.5 17.5l-52 5v76h296v-76l-50 -3q-22 -2 -35.5 -16.5t-29.5 -40.5l-193 -301v-137
q0 -26 7 -35.5t28 -11.5l65 -3v-76h-362zM538 773q-37 0 -61.5 21.5t-24.5 58.5q0 36 24.5 57.5t61.5 21.5q43 0 65 -21.5t22 -57.5t-24.5 -58t-62.5 -22zM303 773q-38 0 -61.5 21.5t-23.5 58.5q0 36 23.5 57.5t61.5 21.5q43 0 65 -21.5t22 -57.5t-24.5 -58t-62.5 -22z" />
    <glyph glyph-name="Zacute" unicode="&#x179;" horiz-adv-x="745" 
d="M54 0v79l430 534h-186q-27 0 -46.5 -5t-35 -20.5t-29.5 -45.5t-31 -80l-93 -6l13 244h605v-80l-424 -532h169q32 0 56 5t43 20.5t37 47.5t38 86h92l-22 -247h-616zM301 747l-32 47l145 135q15 14 26 18.5t22 4.5q29 0 44.5 -21.5t15.5 -47.5q0 -22 -12 -38t-40 -28z" />
    <glyph glyph-name="zacute" unicode="&#x17a;" horiz-adv-x="580" 
d="M50 0v67l297 374h-103q-35 0 -55 -6.5t-32.5 -31.5t-27.5 -81l-78 -5l14 206h467v-66l-292 -373h105q27 0 44.5 3t31 14.5t26 36.5t28.5 69h74l-15 -207h-484zM256 594l-39 39l112 155q13 19 25 25.5t26 6.5q22 0 35.5 -11.5t20 -27t6.5 -29.5q0 -16 -9 -31t-29 -28z" />
    <glyph glyph-name="Zdotaccent" unicode="&#x17b;" horiz-adv-x="745" 
d="M54 0v79l430 534h-186q-27 0 -46.5 -5t-35 -20.5t-29.5 -45.5t-31 -80l-93 -6l13 244h605v-80l-424 -532h169q32 0 56 5t43 20.5t37 47.5t38 86h92l-22 -247h-616zM369 767q-45 0 -71.5 22.5t-26.5 62.5q0 38 26 61t73 23t72.5 -22.5t25.5 -61.5t-27 -62t-72 -23z" />
    <glyph glyph-name="zdotaccent" unicode="&#x17c;" horiz-adv-x="580" 
d="M50 0v67l297 374h-103q-35 0 -55 -6.5t-32.5 -31.5t-27.5 -81l-78 -5l14 206h467v-66l-292 -373h105q27 0 44.5 3t31 14.5t26 36.5t28.5 69h74l-15 -207h-484zM295 614q-45 0 -71.5 22.5t-26.5 62.5q0 38 26 61t73 23t72.5 -22.5t25.5 -61.5q0 -40 -27 -62.5t-72 -22.5z
" />
    <glyph glyph-name="Zcaron" unicode="&#x17d;" horiz-adv-x="745" 
d="M54 0v79l430 534h-186q-27 0 -46.5 -5t-35 -20.5t-29.5 -45.5t-31 -80l-93 -6l13 244h605v-80l-424 -532h169q32 0 56 5t43 20.5t37 47.5t38 86h92l-22 -247h-616zM370 757q-17 0 -31.5 8.5t-35.5 29.5l-128 132l38 50l159 -90l159 89l34 -48l-133 -135
q-18 -18 -30.5 -27t-31.5 -9z" />
    <glyph glyph-name="zcaron" unicode="&#x17e;" horiz-adv-x="580" 
d="M50 0v67l297 374h-103q-35 0 -55 -6.5t-32.5 -31.5t-27.5 -81l-78 -5l14 206h467v-66l-292 -373h105q27 0 44.5 3t31 14.5t26 36.5t28.5 69h74l-15 -207h-484zM296 598q-20 0 -33 5.5t-23 16t-23 25.5l-112 139l46 44l144 -106l146 105l45 -42l-121 -149q-17 -20 -33 -29
t-36 -9z" />
    <glyph glyph-name="uni018F" unicode="&#x18f;" horiz-adv-x="767" 
d="M355 -14q-93 0 -159 33.5t-101.5 93.5t-35.5 141q0 24 4 55t10 60h461q-4 77 -29 128t-69.5 77t-105.5 26q-38 0 -75 -10.5t-73 -29.5t-70 -48l-48 55q33 42 77.5 75t103 52.5t130.5 19.5q105 0 180.5 -42.5t116 -122t40.5 -192.5q0 -98 -29.5 -168t-79.5 -115
t-114.5 -66.5t-133.5 -21.5zM369 85q53 0 87 24t53 66.5t24 97.5h-296q-1 -8 -2.5 -23t-1.5 -28q0 -45 17 -75.5t48 -46t71 -15.5z" />
    <glyph glyph-name="florin" unicode="&#x192;" horiz-adv-x="683" 
d="M131 -193q-50 0 -88 15.5t-59 43.5t-21 64q0 33 19 53.5t57 20.5q33 0 51.5 -13t18.5 -37q0 -11 -5.5 -25t-19.5 -37q12 -7 24 -10.5t24 -3.5q24 0 40.5 13.5t27 41t15.5 69.5l48 352h-85l11 84h85l6 31q9 54 29 99t50.5 77.5t71.5 50.5t91 18q53 0 91.5 -15.5t59.5 -43
t21 -64.5q0 -33 -19 -53.5t-57 -20.5q-33 0 -51.5 13t-18.5 37q0 12 5.5 25.5t19.5 36.5q-12 6 -25 10t-28 4q-24 0 -40.5 -12.5t-26.5 -39.5t-15 -70l-11 -81h155l-11 -86h-157l-42 -303q-9 -72 -41.5 -127t-83 -86t-116.5 -31z" />
    <glyph glyph-name="Ohorn" unicode="&#x1a0;" horiz-adv-x="922" 
d="M407 -14q-115 0 -193.5 45.5t-118 125t-39.5 181.5q0 90 25.5 159.5t74 118t116.5 73.5t153 25q76 0 137.5 -21.5t107 -63.5t71.5 -102q30 11 48 25.5t27 33.5t10 41h-10q-35 0 -51.5 18t-16.5 48q0 27 12 44t30.5 26t39.5 9q28 0 49 -12.5t32 -35.5t11 -56
q0 -42 -17.5 -85t-52.5 -76.5t-89 -49.5q4 -21 6 -43.5t2 -46.5q0 -81 -24 -150.5t-70.5 -121t-114 -80.5t-155.5 -29zM419 89q42 0 74.5 14t54.5 44.5t33.5 80.5t11.5 121q0 66 -12.5 116t-36 82.5t-58 48.5t-79.5 16q-41 0 -73.5 -14.5t-55 -45t-33.5 -79.5t-11 -116
t12 -117t35.5 -83.5t58.5 -50.5t79 -17z" />
    <glyph glyph-name="ohorn" unicode="&#x1a1;" horiz-adv-x="739" 
d="M324 -14q-87 0 -148 30t-93 89t-32 144q0 95 36.5 157.5t102.5 94t153 31.5q75 0 133.5 -23.5t93.5 -72.5q26 10 41.5 24.5t23.5 33t10 38.5h-11q-35 0 -51.5 17.5t-16.5 47.5q0 27 11.5 44.5t30.5 26t39 8.5q29 0 49.5 -12.5t31.5 -35.5t11 -56q0 -39 -15 -78t-45 -71.5
t-77 -50.5q7 -23 11 -48.5t4 -54.5q0 -91 -34 -154.5t-99.5 -96t-159.5 -32.5zM339 77q38 0 62.5 18.5t36 56.5t11.5 96q0 53 -8 90t-24.5 59.5t-38.5 33t-50 10.5q-34 0 -58.5 -16.5t-38 -52t-13.5 -95.5q0 -50 7.5 -88t22.5 -63t38 -37t53 -12z" />
    <glyph glyph-name="Uhorn" unicode="&#x1af;" horiz-adv-x="940" 
d="M421 -14q-83 0 -140 20t-91 56.5t-49 86.5t-15 109v313q0 26 -6.5 36.5t-28.5 12.5l-43 4v76h324v-76l-46 -5q-18 -2 -24.5 -12.5t-6.5 -37.5v-310q0 -51 14 -87.5t47.5 -56.5t91.5 -20t93 19.5t51 57t16 89.5v310q0 26 -6.5 36.5t-28.5 12.5l-43 4v76h183v-182
q37 7 61.5 18t39.5 25t22 31t8 35h-10q-35 0 -51.5 18t-16.5 48q0 27 12 44t30.5 26t39.5 9q28 0 49 -12.5t32 -35.5t11 -56q0 -36 -13 -72t-40 -66.5t-70 -51.5t-104 -28v-179q0 -95 -32.5 -158.5t-97.5 -95t-162 -31.5z" />
    <glyph glyph-name="uhorn" unicode="&#x1b0;" horiz-adv-x="819" 
d="M279 -14q-54 0 -92 20t-57.5 58.5t-19.5 91.5v212q0 35 -6.5 47t-28.5 15l-39 4l8 79l210 12l16 -9v-318q0 -35 6.5 -58t23 -34t46.5 -11q33 0 56.5 15.5t36 43.5t12.5 66v148q0 36 -7 47.5t-29 14.5l-36 4l12 79l203 12l16 -9v-91q41 10 65.5 25.5t36 36.5t13.5 45h-11
q-35 0 -51.5 17.5t-16.5 47.5q0 27 11.5 44.5t30.5 26t39 8.5q29 0 49.5 -12.5t31.5 -35.5t11 -56q0 -47 -22 -93t-68 -79.5t-119 -43.5v-220q0 -29 7 -40.5t26 -14.5l42 -5v-76l-209 -8l-14 87h-4q-21 -27 -45 -48t-56 -33t-78 -12z" />
    <glyph glyph-name="uni01C4" unicode="&#x1c4;" horiz-adv-x="1573" 
d="M58 0v76l52 4q20 2 27 11.5t7 39.5v443q0 24 -6 35t-30 12l-50 3v76h346q66 0 125 -10.5t108 -34t84.5 -62t55 -93.5t19.5 -129q0 -91 -29 -160t-85 -116t-139 -71t-191 -24h-294zM379 94q65 0 110 16.5t74 49.5t42 84t13 120q0 83 -25.5 136.5t-75.5 79.5t-124 26h-82
v-510q13 -1 31.5 -1.5t36.5 -0.5zM882 0v79l430 534h-186q-27 0 -46.5 -5t-35 -20.5t-29.5 -45.5t-31 -80l-93 -6l13 244h605v-80l-424 -532h169q32 0 56 5t43 20.5t37 47.5t38 86h92l-22 -247h-616zM1198 757q-17 0 -31.5 8.5t-35.5 29.5l-128 132l38 50l159 -90l159 89
l34 -48l-133 -135q-18 -18 -30.5 -27t-31.5 -9z" />
    <glyph glyph-name="uni01C5" unicode="&#x1c5;" horiz-adv-x="1425" 
d="M58 0v76l52 4q20 2 27 11.5t7 39.5v443q0 24 -6 35t-30 12l-50 3v76h346q66 0 125 -10.5t108 -34t84.5 -62t55 -93.5t19.5 -129q0 -91 -29 -160t-85 -116t-139 -71t-191 -24h-294zM379 94q65 0 110 16.5t74 49.5t42 84t13 120q0 83 -25.5 136.5t-75.5 79.5t-124 26h-82
v-510q13 -1 31.5 -1.5t36.5 -0.5zM896 0v67l297 374h-103q-35 0 -55 -6.5t-32.5 -31.5t-27.5 -81l-78 -5l14 206h467v-66l-292 -373h105q27 0 44.5 3t31 14.5t26 36.5t28.5 69h74l-15 -207h-484zM1142 598q-20 0 -33 5.5t-23 16t-23 25.5l-112 139l46 44l144 -106l146 105
l45 -42l-121 -149q-17 -20 -33 -29t-36 -9z" />
    <glyph glyph-name="uni01C6" unicode="&#x1c6;" horiz-adv-x="1298" 
d="M283 -14q-76 0 -127.5 31t-78 89.5t-26.5 139.5q0 90 33 155.5t93.5 101t145.5 35.5q39 0 71.5 -8.5t56.5 -21.5v115q0 28 -7 41t-37 15l-51 4l8 77l231 7l15 -16v-629q0 -21 6 -31.5t29 -12.5l46 -4v-75l-210 -7l-14 80h-7q-18 -25 -43 -44.5t-58 -30.5t-76 -11zM336 87
q35 0 61 15.5t40 43.5t14 65v197q-23 15 -50.5 23t-57.5 8q-42 0 -69.5 -20t-41.5 -60t-14 -101q0 -58 14 -95.5t40.5 -56.5t63.5 -19zM769 0v67l297 374h-103q-35 0 -55 -6.5t-32.5 -31.5t-27.5 -81l-78 -5l14 206h467v-66l-292 -373h105q27 0 44.5 3t31 14.5t26 36.5
t28.5 69h74l-15 -207h-484zM1015 598q-20 0 -33 5.5t-23 16t-23 25.5l-112 139l46 44l144 -106l146 105l45 -42l-121 -149q-17 -20 -33 -29t-36 -9z" />
    <glyph glyph-name="uni01C7" unicode="&#x1c7;" horiz-adv-x="1305" 
d="M58 0v76l53 4q18 1 25.5 10.5t7.5 40.5v443q0 24 -6 35t-29 12l-51 3v76h352v-76l-63 -4q-21 -1 -28.5 -10.5t-7.5 -35.5v-483h98q32 0 53.5 5.5t37.5 20.5t29.5 45.5t28.5 79.5h93l-26 -242h-567zM931 -14q-62 0 -112.5 18t-80 51t-29.5 76q0 34 12 57.5t34 36t51 12.5
q34 0 55 -15.5t21 -38.5q0 -19 -7.5 -37.5t-26.5 -47.5q14 -10 34.5 -15.5t40.5 -5.5q33 0 54 15t31 44t10 67v365q0 25 -6 37t-30 13l-69 4v78h359v-76l-54 -4q-19 -1 -26 -13t-7 -37v-330q0 -124 -64 -189t-190 -65z" />
    <glyph glyph-name="uni01C8" unicode="&#x1c8;" horiz-adv-x="1043" 
d="M58 0v76l53 4q18 1 25.5 10.5t7.5 40.5v443q0 24 -6 35t-29 12l-51 3v76h352v-76l-63 -4q-21 -1 -28.5 -10.5t-7.5 -35.5v-483h98q32 0 53.5 5.5t37.5 20.5t29.5 45.5t28.5 79.5h93l-26 -242h-567zM760 -230l-50 65q24 20 40.5 42t27 46.5t15 54t4.5 66.5v330
q0 34 -7.5 47t-31.5 14l-48 3l8 81l222 12l16 -9v-423q0 -67 -12.5 -118t-37 -89t-61.5 -67.5t-85 -54.5zM861 606q-46 0 -72.5 22.5t-26.5 62.5q0 39 26 61.5t73 22.5q48 0 74 -22t26 -62q0 -39 -27.5 -62t-72.5 -23z" />
    <glyph glyph-name="uni01C9" unicode="&#x1c9;" horiz-adv-x="768" 
d="M52 0v75l44 3q18 1 24.5 10t6.5 38v488q0 33 -8 46t-36 15l-46 3l7 79l226 10l16 -11v-632q0 -25 6 -35t27 -12l45 -2v-75h-312zM485 -230l-50 65q24 20 40.5 42t27 46.5t15 54t4.5 66.5v330q0 34 -7.5 47t-31.5 14l-48 3l8 81l222 12l16 -9v-423q0 -67 -12.5 -118
t-37 -89t-61.5 -67.5t-85 -54.5zM586 606q-46 0 -72.5 22.5t-26.5 62.5q0 39 26 61.5t73 22.5q48 0 74 -22t26 -62q0 -39 -27.5 -62t-72.5 -23z" />
    <glyph glyph-name="uni01CA" unicode="&#x1ca;" horiz-adv-x="1492" 
d="M58 0v76l53 4q19 1 26 11.5t7 39.5v442q0 25 -6 36t-29 12l-51 3v76h273l327 -488h5v361q0 25 -7 35.5t-29 11.5l-48 4v76h286v-76l-51 -3q-19 -1 -26.5 -12t-7.5 -39v-570h-172l-342 491h-5v-364q0 -23 5.5 -34t29.5 -13l51 -4v-76h-289zM1118 -14q-62 0 -112.5 18
t-80 51t-29.5 76q0 34 12 57.5t34 36t51 12.5q34 0 55 -15.5t21 -38.5q0 -19 -7.5 -37.5t-26.5 -47.5q14 -10 34.5 -15.5t40.5 -5.5q33 0 54 15t31 44t10 67v365q0 25 -6 37t-30 13l-69 4v78h359v-76l-54 -4q-19 -1 -26 -13t-7 -37v-330q0 -124 -64 -189t-190 -65z" />
    <glyph glyph-name="uni01CB" unicode="&#x1cb;" horiz-adv-x="1287" 
d="M58 0v76l53 4q19 1 26 11.5t7 39.5v442q0 25 -6 36t-29 12l-51 3v76h273l327 -488h5v361q0 25 -7 35.5t-29 11.5l-48 4v76h286v-76l-51 -3q-19 -1 -26.5 -12t-7.5 -39v-570h-172l-342 491h-5v-364q0 -23 5.5 -34t29.5 -13l51 -4v-76h-289zM1004 -230l-50 65
q24 20 40.5 42t27 46.5t15 54t4.5 66.5v330q0 34 -7.5 47t-31.5 14l-48 3l8 81l222 12l16 -9v-423q0 -67 -12.5 -118t-37 -89t-61.5 -67.5t-85 -54.5zM1105 606q-46 0 -72.5 22.5t-26.5 62.5q0 39 26 61.5t73 22.5q48 0 74 -22t26 -62q0 -39 -27.5 -62t-72.5 -23z" />
    <glyph glyph-name="uni01CC" unicode="&#x1cc;" horiz-adv-x="1121" 
d="M54 0v75l48 3q15 1 21.5 10.5t6.5 37.5v252q0 31 -6.5 43.5t-30.5 13.5l-48 3l9 80l194 13l16 -9l9 -91h5q28 49 78 78t116 29q62 0 102 -22t60 -61t20 -90v-247q0 -19 5 -29t28 -12l45 -3v-74h-299v75l31 2q17 1 23.5 9t6.5 32v202q0 35 -7.5 58t-26 35t-52.5 12
q-36 0 -63 -13.5t-41 -40t-14 -66.5v-184q0 -23 5 -32.5t21 -11.5l37 -2v-75h-299zM838 -230l-50 65q24 20 40.5 42t27 46.5t15 54t4.5 66.5v330q0 34 -7.5 47t-31.5 14l-48 3l8 81l222 12l16 -9v-423q0 -67 -12.5 -118t-37 -89t-61.5 -67.5t-85 -54.5zM939 606
q-46 0 -72.5 22.5t-26.5 62.5q0 39 26 61.5t73 22.5q48 0 74 -22t26 -62q0 -39 -27.5 -62t-72.5 -23z" />
    <glyph glyph-name="uni01CD" unicode="&#x1cd;" 
d="M11 0v78l48 5q19 2 30 14t22 40l223 563h170l219 -567q10 -27 20.5 -38.5t30.5 -13.5l41 -4v-77h-343v77l52 4q18 2 24 14.5t-4 37.5l-29 75h-265l-28 -73q-10 -22 -6 -38t31 -18l49 -3v-76h-285zM280 295h208l-98 274h-6zM418 757q-17 0 -31.5 8.5t-35.5 29.5l-128 132
l38 50l159 -90l159 89l34 -48l-133 -135q-18 -18 -30.5 -27t-31.5 -9z" />
    <glyph glyph-name="uni01CE" unicode="&#x1ce;" horiz-adv-x="636" 
d="M217 -14q-76 0 -120 38t-44 101q0 61 31.5 96t101.5 51.5t183 20.5v68q0 30 -7.5 53.5t-28.5 37.5t-62 14q-26 0 -49 -6t-37 -16q10 -16 16 -27.5t9 -20t3 -14.5q0 -24 -21 -39t-58 -15t-55.5 17t-18.5 48q0 40 30.5 73t84.5 52t123 19q84 0 134.5 -23t73 -66t22.5 -103
v-216q0 -20 9.5 -32.5t32.5 -12.5q13 0 24 2.5t23 6.5l15 -62q-20 -17 -55 -31t-75 -14q-50 0 -79 22.5t-37 59.5q-16 -22 -39.5 -41t-55.5 -30t-74 -11zM279 77q26 0 46.5 10t32 27.5t11.5 39.5v67q-55 0 -89.5 -8.5t-51.5 -25.5t-17 -44q0 -30 17.5 -48t50.5 -18zM300 598
q-20 0 -33 5.5t-23 16t-23 25.5l-112 139l46 44l144 -106l146 105l45 -42l-121 -149q-17 -20 -33 -29t-36 -9z" />
    <glyph glyph-name="uni01CF" unicode="&#x1cf;" horiz-adv-x="456" 
d="M58 0v76l53 4q20 1 26.5 12t6.5 38v443q0 25 -6 36t-30 12l-50 3v76h339v-76l-53 -4q-19 -1 -26 -11t-7 -39v-443q0 -25 6.5 -35t28.5 -12l51 -4v-76h-339zM229 757q-17 0 -31.5 8.5t-35.5 29.5l-128 132l38 50l159 -90l159 89l34 -48l-133 -135q-18 -18 -30.5 -27
t-31.5 -9z" />
    <glyph glyph-name="uni01D0" unicode="&#x1d0;" horiz-adv-x="404" 
d="M45 0v75l55 3q19 1 25 11.5t6 38.5v246q0 32 -6 46t-32 15l-49 3l8 81l223 12l16 -9v-397q0 -22 4.5 -34t26.5 -13l54 -3v-75h-331zM176 596q-20 0 -33 5.5t-23 16t-23 25.5l-112 139l46 44l144 -106l146 105l45 -42l-121 -149q-17 -20 -33 -29t-36 -9z" />
    <glyph glyph-name="uni01D1" unicode="&#x1d1;" horiz-adv-x="854" 
d="M421 -14q-118 0 -200 45.5t-123.5 125t-41.5 181.5q0 120 47 204t133 128t202 44q109 0 190.5 -41t126.5 -118.5t45 -187.5q0 -81 -25.5 -150.5t-74 -121t-118.5 -80.5t-161 -29zM434 89q45 0 80 14.5t58.5 46t36 81t12.5 118.5q0 66 -13.5 115.5t-39 82.5t-62 49
t-84.5 16q-46 0 -81 -15t-58.5 -46t-36 -79.5t-12.5 -114.5q0 -67 13 -117t38.5 -83.5t63 -50.5t85.5 -17zM429 757q-17 0 -31.5 8.5t-35.5 29.5l-128 132l38 50l159 -90l159 89l34 -48l-133 -135q-18 -18 -30.5 -27t-31.5 -9z" />
    <glyph glyph-name="uni01D2" unicode="&#x1d2;" horiz-adv-x="685" 
d="M333 -14q-89 0 -152.5 30.5t-96.5 90t-33 144.5q0 96 37.5 159.5t106 95.5t158.5 32q85 0 148.5 -29t99 -88t35.5 -149q0 -92 -35.5 -156t-103 -97t-164.5 -33zM349 78q41 0 67.5 19t39 57.5t12.5 95.5q0 54 -9 91t-26.5 60t-41.5 34t-54 11q-36 0 -63 -16.5t-41.5 -53
t-14.5 -96.5q0 -68 15 -113t44 -67t72 -22zM343 598q-20 0 -33 5.5t-23 16t-23 25.5l-112 139l46 44l144 -106l146 105l45 -42l-121 -149q-17 -20 -33 -29t-36 -9z" />
    <glyph glyph-name="uni01D3" unicode="&#x1d3;" horiz-adv-x="871" 
d="M437 -14q-85 0 -143.5 20t-94 56.5t-52 86.5t-16.5 109v315q0 26 -6.5 36.5t-29.5 11.5l-47 3v76h334v-76l-49 -4q-18 -1 -25.5 -12t-7.5 -39v-310q0 -51 15.5 -87.5t51 -56.5t97.5 -20t99.5 19.5t55 57t17.5 89.5v312q0 26 -7 36.5t-29 11.5l-47 3v76h271v-76l-49 -4
q-18 -1 -25.5 -12t-7.5 -39v-298q0 -95 -34 -158.5t-102 -95t-169 -31.5zM459 757q-17 0 -31.5 8.5t-35.5 29.5l-128 132l38 50l159 -90l159 89l34 -48l-133 -135q-18 -18 -30.5 -27t-31.5 -9z" />
    <glyph glyph-name="uni01D4" unicode="&#x1d4;" horiz-adv-x="743" 
d="M290 -14q-85 0 -130.5 45t-45.5 127v216q0 32 -6 46t-31 16l-41 3l9 79l212 13l16 -9v-323q0 -34 6.5 -57.5t24.5 -35t51 -11.5q36 0 61.5 15.5t39 44.5t13.5 67v151q0 34 -6 47.5t-31 15.5l-38 3l11 79l207 13l16 -9v-387q0 -28 7 -40t27 -15l45 -4v-76l-212 -8l-14 88
h-5q-22 -28 -47.5 -49t-58.5 -33t-80 -12zM356 598q-20 0 -33 5.5t-23 16t-23 25.5l-112 139l46 44l144 -106l146 105l45 -42l-121 -149q-17 -20 -33 -29t-36 -9z" />
    <glyph glyph-name="uni01D5" unicode="&#x1d5;" horiz-adv-x="871" 
d="M437 -14q-85 0 -143.5 20t-94 56.5t-52 86.5t-16.5 109v315q0 26 -6.5 36.5t-29.5 11.5l-47 3v76h334v-76l-49 -4q-18 -1 -25.5 -12t-7.5 -39v-310q0 -51 15.5 -87.5t51 -56.5t97.5 -20t99.5 19.5t55 57t17.5 89.5v312q0 26 -7 36.5t-29 11.5l-47 3v76h271v-76l-49 -4
q-18 -1 -25.5 -12t-7.5 -39v-298q0 -95 -34 -158.5t-102 -95t-169 -31.5zM575 773q-37 0 -61.5 21.5t-24.5 58.5q0 36 24.5 57.5t61.5 21.5q43 0 65 -21.5t22 -57.5t-24.5 -58t-62.5 -22zM340 773q-38 0 -61.5 21.5t-23.5 58.5q0 36 23.5 57.5t61.5 21.5q43 0 65 -21.5
t22 -57.5t-24.5 -58t-62.5 -22zM289 998v111h340v-111h-340z" />
    <glyph glyph-name="uni01D6" unicode="&#x1d6;" horiz-adv-x="743" 
d="M290 -14q-85 0 -130.5 45t-45.5 127v216q0 32 -6 46t-31 16l-41 3l9 79l212 13l16 -9v-323q0 -34 6.5 -57.5t24.5 -35t51 -11.5q36 0 61.5 15.5t39 44.5t13.5 67v151q0 34 -6 47.5t-31 15.5l-38 3l11 79l207 13l16 -9v-387q0 -28 7 -40t27 -15l45 -4v-76l-212 -8l-14 88
h-5q-22 -28 -47.5 -49t-58.5 -33t-80 -12zM471 618q-38 0 -62 22t-24 59q0 35 24 56.5t62 21.5q42 0 64 -21.5t22 -56.5q0 -36 -24.5 -58.5t-61.5 -22.5zM236 618q-38 0 -61.5 22t-23.5 59q0 35 23.5 56.5t61.5 21.5q42 0 64 -21.5t22 -56.5q0 -36 -24 -58.5t-62 -22.5z
M185 844v111h340v-111h-340z" />
    <glyph glyph-name="uni01D7" unicode="&#x1d7;" horiz-adv-x="871" 
d="M437 -14q-85 0 -143.5 20t-94 56.5t-52 86.5t-16.5 109v315q0 26 -6.5 36.5t-29.5 11.5l-47 3v76h334v-76l-49 -4q-18 -1 -25.5 -12t-7.5 -39v-310q0 -51 15.5 -87.5t51 -56.5t97.5 -20t99.5 19.5t55 57t17.5 89.5v312q0 26 -7 36.5t-29 11.5l-47 3v76h271v-76l-49 -4
q-18 -1 -25.5 -12t-7.5 -39v-298q0 -95 -34 -158.5t-102 -95t-169 -31.5zM369 970l-32 47l145 135q15 14 26 18.5t22 4.5q29 0 44.5 -21.5t15.5 -47.5q0 -22 -12 -38t-40 -28zM575 773q-37 0 -61.5 21.5t-24.5 58.5q0 36 24.5 57.5t61.5 21.5q43 0 65 -21.5t22 -57.5
t-24.5 -58t-62.5 -22zM340 773q-38 0 -61.5 21.5t-23.5 58.5q0 36 23.5 57.5t61.5 21.5q43 0 65 -21.5t22 -57.5t-24.5 -58t-62.5 -22z" />
    <glyph glyph-name="uni01D8" unicode="&#x1d8;" horiz-adv-x="743" 
d="M290 -14q-85 0 -130.5 45t-45.5 127v216q0 32 -6 46t-31 16l-41 3l9 79l212 13l16 -9v-323q0 -34 6.5 -57.5t24.5 -35t51 -11.5q36 0 61.5 15.5t39 44.5t13.5 67v151q0 34 -6 47.5t-31 15.5l-38 3l11 79l207 13l16 -9v-387q0 -28 7 -40t27 -15l45 -4v-76l-212 -8l-14 88
h-5q-22 -28 -47.5 -49t-58.5 -33t-80 -12zM274 820l-32 47l145 135q15 14 26 18.5t22 4.5q29 0 44.5 -21.5t15.5 -47.5q0 -22 -12 -38t-40 -28zM469 618q-38 0 -62 22t-24 59q0 35 24 56.5t62 21.5q42 0 64 -21.5t22 -56.5q0 -36 -24.5 -58.5t-61.5 -22.5zM234 618
q-38 0 -61.5 22t-23.5 59q0 35 23.5 56.5t61.5 21.5q42 0 64 -21.5t22 -56.5q0 -36 -24 -58.5t-62 -22.5z" />
    <glyph glyph-name="uni01D9" unicode="&#x1d9;" horiz-adv-x="871" 
d="M437 -14q-85 0 -143.5 20t-94 56.5t-52 86.5t-16.5 109v315q0 26 -6.5 36.5t-29.5 11.5l-47 3v76h334v-76l-49 -4q-18 -1 -25.5 -12t-7.5 -39v-310q0 -51 15.5 -87.5t51 -56.5t97.5 -20t99.5 19.5t55 57t17.5 89.5v312q0 26 -7 36.5t-29 11.5l-47 3v76h271v-76l-49 -4
q-18 -1 -25.5 -12t-7.5 -39v-298q0 -95 -34 -158.5t-102 -95t-169 -31.5zM452 972q-17 0 -31.5 8.5t-35.5 29.5l-128 132l38 50l159 -90l159 89l34 -48l-133 -135q-18 -18 -30.5 -27t-31.5 -9zM573 773q-37 0 -61.5 21.5t-24.5 58.5q0 36 24.5 57.5t61.5 21.5q43 0 65 -21.5
t22 -57.5t-24.5 -58t-62.5 -22zM338 773q-38 0 -61.5 21.5t-23.5 58.5q0 36 23.5 57.5t61.5 21.5q43 0 65 -21.5t22 -57.5t-24.5 -58t-62.5 -22z" />
    <glyph glyph-name="uni01DA" unicode="&#x1da;" horiz-adv-x="743" 
d="M290 -14q-85 0 -130.5 45t-45.5 127v216q0 32 -6 46t-31 16l-41 3l9 79l212 13l16 -9v-323q0 -34 6.5 -57.5t24.5 -35t51 -11.5q36 0 61.5 15.5t39 44.5t13.5 67v151q0 34 -6 47.5t-31 15.5l-38 3l11 79l207 13l16 -9v-387q0 -28 7 -40t27 -15l45 -4v-76l-212 -8l-14 88
h-5q-22 -28 -47.5 -49t-58.5 -33t-80 -12zM348 824q-17 0 -31.5 8.5t-35.5 29.5l-128 132l38 50l159 -90l159 89l34 -48l-133 -135q-18 -18 -30.5 -27t-31.5 -9zM469 618q-38 0 -62 22t-24 59q0 35 24 56.5t62 21.5q42 0 64 -21.5t22 -56.5q0 -36 -24.5 -58.5t-61.5 -22.5z
M234 618q-38 0 -61.5 22t-23.5 59q0 35 23.5 56.5t61.5 21.5q42 0 64 -21.5t22 -56.5q0 -36 -24 -58.5t-62 -22.5z" />
    <glyph glyph-name="uni01DB" unicode="&#x1db;" horiz-adv-x="871" 
d="M437 -14q-85 0 -143.5 20t-94 56.5t-52 86.5t-16.5 109v315q0 26 -6.5 36.5t-29.5 11.5l-47 3v76h334v-76l-49 -4q-18 -1 -25.5 -12t-7.5 -39v-310q0 -51 15.5 -87.5t51 -56.5t97.5 -20t99.5 19.5t55 57t17.5 89.5v312q0 26 -7 36.5t-29 11.5l-47 3v76h271v-76l-49 -4
q-18 -1 -25.5 -12t-7.5 -39v-298q0 -95 -34 -158.5t-102 -95t-169 -31.5zM522 967l-169 70q-27 12 -39.5 28t-12.5 38q0 26 15.5 47.5t44.5 21.5q11 0 22 -4.5t26 -18.5l145 -135zM575 773q-37 0 -61.5 21.5t-24.5 58.5q0 36 24.5 57.5t61.5 21.5q43 0 65 -21.5t22 -57.5
t-24.5 -58t-62.5 -22zM340 773q-38 0 -61.5 21.5t-23.5 58.5q0 36 23.5 57.5t61.5 21.5q43 0 65 -21.5t22 -57.5t-24.5 -58t-62.5 -22z" />
    <glyph glyph-name="uni01DC" unicode="&#x1dc;" horiz-adv-x="743" 
d="M290 -14q-85 0 -130.5 45t-45.5 127v216q0 32 -6 46t-31 16l-41 3l9 79l212 13l16 -9v-323q0 -34 6.5 -57.5t24.5 -35t51 -11.5q36 0 61.5 15.5t39 44.5t13.5 67v151q0 34 -6 47.5t-31 15.5l-38 3l11 79l207 13l16 -9v-387q0 -28 7 -40t27 -15l45 -4v-76l-212 -8l-14 88
h-5q-22 -28 -47.5 -49t-58.5 -33t-80 -12zM425 820l-169 70q-27 12 -39.5 28t-12.5 38q0 26 15.5 47.5t44.5 21.5q11 0 22 -4.5t26 -18.5l145 -135zM469 618q-38 0 -62 22t-24 59q0 35 24 56.5t62 21.5q42 0 64 -21.5t22 -56.5q0 -36 -24.5 -58.5t-61.5 -22.5zM234 618
q-38 0 -61.5 22t-23.5 59q0 35 23.5 56.5t61.5 21.5q42 0 64 -21.5t22 -56.5q0 -36 -24 -58.5t-62 -22.5z" />
    <glyph glyph-name="Gcaron" unicode="&#x1e6;" horiz-adv-x="844" 
d="M402 -14q-111 0 -188.5 46.5t-117.5 127.5t-40 185q0 86 26 154t74.5 116t115.5 73.5t149 25.5q63 0 107 -14t79 -39l12 53h67l42 -240l-84 -17q-22 58 -51 92t-68.5 49t-91.5 15q-48 0 -85.5 -16t-63 -46.5t-39 -75.5t-13.5 -102q0 -67 15 -117t43 -83.5t67.5 -50.5
t87.5 -17q30 0 53.5 4t43 11.5t34.5 18.5v84q0 24 -6 36t-30 13l-54 2v77h321v-77l-42 -3q-19 -2 -26 -12.5t-7 -38.5v-221h-92l-23 61q-19 -15 -50 -32t-72 -29.5t-93 -12.5zM422 757q-17 0 -31.5 8.5t-35.5 29.5l-128 132l38 50l159 -90l159 89l34 -48l-133 -135
q-18 -18 -30.5 -27t-31.5 -9z" />
    <glyph glyph-name="gcaron" unicode="&#x1e7;" horiz-adv-x="653" 
d="M293 -233q-67 0 -117.5 8.5t-83.5 25t-49.5 41t-16.5 56.5t15 53.5t41 36.5t59 26v3q-37 11 -55.5 34.5t-18.5 48.5q0 26 14.5 51t51.5 52v3q-40 21 -61.5 56t-21.5 84q0 64 34 106.5t92 63.5t131 21q22 0 46 -2.5t49 -8t47 -16.5q26 54 58.5 85t75.5 31q20 0 37.5 -7.5
t28.5 -22t11 -37.5q0 -28 -19 -48t-46 -20q-16 0 -28 8t-21 21l-12 18q-9 -12 -18 -26.5t-17 -31.5q25 -25 42 -55.5t17 -74.5q0 -52 -30.5 -93.5t-86.5 -66t-133 -24.5q-28 0 -52 3.5t-41 7.5q-13 -11 -20 -22.5t-7 -21.5q0 -16 10.5 -24.5t27.5 -11t36 -2.5h171
q93 0 143.5 -31.5t50.5 -98.5q0 -28 -10 -56t-33 -53.5t-61.5 -45.5t-95 -31.5t-134.5 -11.5zM309 -145q47 0 80 10t50.5 27.5t17.5 39.5q0 25 -20.5 36.5t-56.5 11.5h-163q-18 -13 -28 -29.5t-10 -34.5q0 -31 32 -46t98 -15zM305 259q44 0 67.5 24t23.5 67q0 49 -25 74
t-69 25q-46 0 -67.5 -28t-21.5 -69t24.5 -67t67.5 -26zM303 603q-20 0 -33 5.5t-23 16t-23 25.5l-112 139l46 44l144 -106l146 105l45 -42l-121 -149q-17 -20 -33 -29t-36 -9z" />
    <glyph glyph-name="uni01EA" unicode="&#x1ea;" horiz-adv-x="854" 
d="M457 -242q-42 0 -69.5 13.5t-39.5 35t-12 43.5q0 30 15 54.5t40 45t54 36.5h-11h-13q-119 0 -200.5 45.5t-123 125t-41.5 181.5q0 120 47 204t133 128t203 44q109 0 190 -41t126 -118.5t45 -187.5q0 -86 -28.5 -159t-82.5 -125t-133 -77q-33 -28 -53.5 -50t-30.5 -39.5
t-10 -35.5q0 -20 12 -29t33 -9q16 0 33.5 4t33.5 12l24 -54q-15 -11 -35.5 -22t-46.5 -18t-59 -7zM434 89q45 0 80 14.5t58.5 46t36 81t12.5 118.5q0 66 -13.5 115.5t-39 82.5t-62 49t-84.5 16q-46 0 -81 -15t-58.5 -46t-36 -79.5t-12.5 -114.5q0 -67 13 -117t38.5 -83.5
t63 -50.5t85.5 -17z" />
    <glyph glyph-name="uni01EB" unicode="&#x1eb;" horiz-adv-x="685" 
d="M356 -242q-42 0 -69 13.5t-39.5 35t-12.5 43.5q0 29 15 53.5t40.5 45.5t53.5 37h-15t-15 1q-84 2 -143 34t-89.5 90t-30.5 140q0 96 37.5 159.5t106 95.5t158.5 32q85 0 148.5 -29t99 -88t35.5 -149q0 -108 -48 -176.5t-138 -94.5q-47 -40 -68 -67t-21 -53q0 -20 12 -29
t33 -9q16 0 33.5 4t33.5 12l24 -54q-15 -11 -35.5 -22t-46.5 -18t-59 -7zM349 78q41 0 67.5 19t39 57.5t12.5 95.5q0 54 -9 91t-26.5 60t-41.5 34t-54 11q-36 0 -63 -16.5t-41.5 -53t-14.5 -96.5q0 -68 15 -113t44 -67t72 -22z" />
    <glyph glyph-name="Aringacute" unicode="&#x1fa;" 
d="M11 0v78l48 5q19 2 30 14t22 40l212 535q-26 15 -39 38.5t-13 54.5q0 36 19 62t53.5 39.5t80.5 13.5q73 0 109.5 -29.5t36.5 -84.5q0 -31 -14 -55t-41 -39l208 -539q10 -27 20.5 -38.5t30.5 -13.5l41 -4v-77h-343v77l52 4q18 2 24 14.5t-4 37.5l-29 75h-265l-28 -73
q-10 -22 -6 -38t31 -18l49 -3v-76h-285zM280 295h208l-98 274h-6zM421 708q17 0 27 6t15 19t5 33q0 21 -5.5 33t-16 18t-26.5 6q-17 0 -27 -6.5t-15 -19t-5 -31.5q0 -21 5 -34t15.5 -18.5t27.5 -5.5zM334 904l-32 47l145 134q15 14 26 19t22 5q29 0 44.5 -22t15.5 -47
q0 -22 -12 -38.5t-40 -27.5z" />
    <glyph glyph-name="aringacute" unicode="&#x1fb;" horiz-adv-x="638" 
d="M217 -14q-76 0 -120 38t-44 101q0 61 31.5 96t101.5 51.5t183 20.5v68q0 30 -7.5 53.5t-28.5 37.5t-62 14q-26 0 -49 -6t-37 -16q10 -16 16 -27.5t9 -20t3 -14.5q0 -24 -21 -39t-58 -15t-55.5 17t-18.5 48q0 40 30.5 73t84.5 52t123 19q84 0 134.5 -23t73 -66t22.5 -103
v-216q0 -20 9.5 -32.5t32.5 -12.5q13 0 24 2.5t23 6.5l15 -62q-20 -17 -55 -31t-75 -14q-50 0 -79 22.5t-37 59.5q-16 -22 -39.5 -41t-55.5 -30t-74 -11zM279 77q26 0 46.5 10t32 27.5t11.5 39.5v67q-55 0 -89.5 -8.5t-51.5 -25.5t-17 -44q0 -30 17.5 -48t50.5 -18zM294 597
q-68 0 -106 31.5t-38 83.5q0 36 19 62t53.5 39.5t80.5 13.5q72 0 109 -29.5t37 -84.5q0 -36 -19.5 -62t-54.5 -40t-81 -14zM299 655q17 0 27 6t15 19t5 33q0 21 -5.5 33t-16 18t-26.5 6t-26.5 -6.5t-15.5 -19t-5 -32.5t5 -33t16 -18.5t27 -5.5zM204 847l-32 47l145 135
q15 14 26 18.5t22 4.5q29 0 44.5 -21.5t15.5 -47.5q0 -22 -12 -38t-40 -28z" />
    <glyph glyph-name="AEacute" unicode="&#x1fc;" horiz-adv-x="1097" 
d="M11 0v77l40 5q10 2 18 5.5t16 14t18 31.5l247 487l-83 5v75h728l36 -188l-91 -15q-13 38 -25 60.5t-27.5 35t-37.5 16.5t-55 4h-110v-228h68q20 0 32.5 3t20 10.5t13 22.5t10.5 39l70 6v-236l-71 -10q-4 34 -12 51t-22.5 22.5t-42.5 5.5h-66v-211h130q33 0 56 5.5
t39 19.5t27 39t20 64h93l-26 -216h-590v76l53 4q19 1 26 11t7 40v168h-217l-80 -159q-8 -15 -10.5 -26t-0.5 -18.5t10.5 -11.5t22.5 -5l48 -3l-1 -76h-281zM343 385h177v228h-68zM603 747l-32 47l145 135q15 14 26 18.5t22 4.5q29 0 44.5 -21.5t15.5 -47.5q0 -22 -12 -38
t-40 -28z" />
    <glyph glyph-name="aeacute" unicode="&#x1fd;" horiz-adv-x="934" 
d="M217 -14q-51 0 -88 17.5t-56.5 49t-19.5 72.5q0 67 38.5 102.5t126.5 51.5q30 6 68 9.5t83 4.5v68q0 30 -7.5 53.5t-28.5 37.5t-62 14q-26 0 -49 -6t-37 -16q10 -16 16 -27.5t9 -20t3 -14.5q0 -24 -21 -39t-58 -15t-55.5 17t-18.5 48q0 40 30.5 73t84.5 52t123 19
q60 0 103 -16.5t73 -49.5q34 33 80 50t99 17q71 0 122 -23.5t79 -67.5t28 -108q0 -27 -2 -52.5t-7 -49.5h-344q2 -44 20.5 -74t51.5 -44.5t80 -14.5q48 0 87 14.5t73 39.5l51 -59q-42 -50 -106 -81.5t-143 -31.5q-75 0 -130.5 22.5t-87.5 65.5q-23 -28 -52.5 -48t-68 -30
t-87.5 -10zM279 77q26 0 46.5 10t32 27.5t11.5 39.5v67q-26 0 -48 -2t-39 -6q-36 -8 -53.5 -25t-17.5 -45q0 -30 17.5 -48t50.5 -18zM528 321h198q2 11 2.5 22.5t0.5 23.5q0 40 -21.5 62.5t-63.5 22.5q-35 0 -59.5 -16t-38.5 -45.5t-18 -69.5zM434 594l-39 39l112 155
q13 19 25 25.5t26 6.5q22 0 35.5 -11.5t20 -27t6.5 -29.5q0 -16 -9 -31t-29 -28z" />
    <glyph glyph-name="Oslashacute" unicode="&#x1fe;" horiz-adv-x="864" 
d="M50 -14l96 108q-42 47 -63.5 109t-21.5 135q0 120 47 204t133 128t203 44q61 0 114.5 -13.5t95.5 -38.5l47 52h117l-96 -108q40 -44 61.5 -104t21.5 -135q0 -81 -25.5 -150.5t-74 -121t-118.5 -80.5t-161 -29q-63 0 -116 13.5t-95 38.5l-47 -52h-118zM439 89
q45 0 80 14.5t58.5 46t36 81t12.5 118.5q0 38 -6 70.5t-17 57.5l-297 -338q17 -16 37 -27.5t44.5 -17t51.5 -5.5zM265 222l297 338q-17 18 -37.5 29.5t-45 17t-52.5 5.5q-46 0 -81 -15t-58.5 -46t-36 -79.5t-12.5 -114.5q0 -40 7 -74t19 -61zM365 747l-32 47l145 135
q15 14 26 18.5t22 4.5q29 0 44.5 -21.5t15.5 -47.5q0 -22 -12 -38t-40 -28z" />
    <glyph glyph-name="oslashacute" unicode="&#x1ff;" horiz-adv-x="685" 
d="M45 -19l74 81q-34 33 -51 80.5t-17 108.5q0 96 37.5 159.5t106 95.5t158.5 32q47 0 87 -9.5t73 -28.5l33 37h100l-73 -81q30 -32 46.5 -78t16.5 -106q0 -92 -35.5 -156t-103 -97t-164.5 -33q-45 0 -83.5 8.5t-70.5 24.5l-34 -38h-100zM349 78q41 0 67.5 19t39 57.5
t12.5 95.5q0 23 -2.5 42t-7.5 36l-195 -216q11 -11 24 -18.5t28.5 -11.5t33.5 -4zM231 188l197 218q-10 14 -24.5 23t-31 13t-35.5 4q-36 0 -63 -16.5t-41.5 -53t-14.5 -96.5q0 -27 3.5 -50t9.5 -42zM302 594l-39 39l112 155q13 19 25 25.5t26 6.5q22 0 35.5 -11.5t20 -27
t6.5 -29.5q0 -16 -9 -31t-29 -28z" />
    <glyph glyph-name="uni0200" unicode="&#x200;" 
d="M11 0v78l48 5q19 2 30 14t22 40l223 563h170l219 -567q10 -27 20.5 -38.5t30.5 -13.5l41 -4v-77h-343v77l52 4q18 2 24 14.5t-4 37.5l-29 75h-265l-28 -73q-10 -22 -6 -38t31 -18l49 -3v-76h-285zM280 295h208l-98 274h-6zM517 752l-138 87q-25 17 -36.5 32.5t-11.5 37.5
q0 21 14.5 40.5t41.5 19.5q13 0 25 -7t26 -24l115 -141zM325 752l-153 72q-26 12 -39 28.5t-13 38.5q0 24 15.5 42.5t39.5 18.5q12 0 23.5 -6t26.5 -21l132 -125z" />
    <glyph glyph-name="uni0201" unicode="&#x201;" horiz-adv-x="636" 
d="M217 -14q-76 0 -120 38t-44 101q0 61 31.5 96t101.5 51.5t183 20.5v68q0 30 -7.5 53.5t-28.5 37.5t-62 14q-26 0 -49 -6t-37 -16q10 -16 16 -27.5t9 -20t3 -14.5q0 -24 -21 -39t-58 -15t-55.5 17t-18.5 48q0 40 30.5 73t84.5 52t123 19q84 0 134.5 -23t73 -66t22.5 -103
v-216q0 -20 9.5 -32.5t32.5 -12.5q13 0 24 2.5t23 6.5l15 -62q-20 -17 -55 -31t-75 -14q-50 0 -79 22.5t-37 59.5q-16 -22 -39.5 -41t-55.5 -30t-74 -11zM279 77q26 0 46.5 10t32 27.5t11.5 39.5v67q-55 0 -89.5 -8.5t-51.5 -25.5t-17 -44q0 -30 17.5 -48t50.5 -18zM212 593
l-142 97q-19 12 -28 29.5t-9 34.5q0 15 6 29.5t19 24.5t31 10q14 0 25 -7t24 -25l112 -153zM401 593l-134 104q-19 14 -27 30t-8 31q0 14 6 28.5t19 24.5t31 10q14 0 26 -6.5t23 -25.5l103 -156z" />
    <glyph glyph-name="uni0202" unicode="&#x202;" 
d="M11 0v78l48 5q19 2 30 14t22 40l223 563h170l219 -567q10 -27 20.5 -38.5t30.5 -13.5l41 -4v-77h-343v77l52 4q18 2 24 14.5t-4 37.5l-29 75h-265l-28 -73q-10 -22 -6 -38t31 -18l49 -3v-76h-285zM280 295h208l-98 274h-6zM416 959q59 0 98.5 -24.5t61.5 -68.5t27 -101
l-64 -13q-14 52 -45.5 75t-79.5 23t-79.5 -24.5t-43.5 -71.5l-64 12q5 55 28 98.5t64 69t97 25.5z" />
    <glyph glyph-name="uni0203" unicode="&#x203;" horiz-adv-x="636" 
d="M217 -14q-76 0 -120 38t-44 101q0 61 31.5 96t101.5 51.5t183 20.5v68q0 30 -7.5 53.5t-28.5 37.5t-62 14q-26 0 -49 -6t-37 -16q10 -16 16 -27.5t9 -20t3 -14.5q0 -24 -21 -39t-58 -15t-55.5 17t-18.5 48q0 40 30.5 73t84.5 52t123 19q84 0 134.5 -23t73 -66t22.5 -103
v-216q0 -20 9.5 -32.5t32.5 -12.5q13 0 24 2.5t23 6.5l15 -62q-20 -17 -55 -31t-75 -14q-50 0 -79 22.5t-37 59.5q-16 -22 -39.5 -41t-55.5 -30t-74 -11zM279 77q26 0 46.5 10t32 27.5t11.5 39.5v67q-55 0 -89.5 -8.5t-51.5 -25.5t-17 -44q0 -30 17.5 -48t50.5 -18zM302 808
q55 0 93.5 -23.5t61.5 -68t28 -106.5l-60 -12q-11 38 -30 60.5t-43.5 32.5t-53.5 10q-48 0 -78 -26t-43 -76l-62 11q7 57 30.5 102t63 70.5t93.5 25.5z" />
    <glyph glyph-name="uni0204" unicode="&#x204;" horiz-adv-x="723" 
d="M58 0v76l53 4q18 1 25.5 10t7.5 41v443q0 26 -7 36t-28 11l-51 3v76h563l36 -188l-91 -15q-12 36 -23.5 59t-27 35.5t-38 17t-56.5 4.5h-110v-216h68q26 0 39.5 5t21 20.5t15.5 48.5l70 6v-235l-71 -11q-5 34 -12.5 51.5t-22 23t-42.5 5.5h-66v-223h130q35 0 58.5 6.5
t38.5 20.5t25.5 39t19.5 62h93l-26 -216h-592zM463 752l-138 87q-25 17 -36.5 32.5t-11.5 37.5q0 21 14.5 40.5t41.5 19.5q13 0 25 -7t26 -24l115 -141zM271 752l-153 72q-26 12 -39 28.5t-13 38.5q0 24 15.5 42.5t39.5 18.5q12 0 23.5 -6t26.5 -21l132 -125z" />
    <glyph glyph-name="uni0205" unicode="&#x205;" horiz-adv-x="623" 
d="M330 -14q-89 0 -151.5 32.5t-95 91.5t-32.5 136q0 94 37 159t102.5 99t150.5 34q71 0 122.5 -23.5t79 -67.5t27.5 -108q0 -25 -2 -50.5t-7 -50.5h-345q3 -45 22.5 -75t53 -45t77.5 -15q48 0 86.5 14.5t73.5 40.5l51 -59q-42 -50 -106.5 -81.5t-143.5 -31.5zM216 321h198
q2 13 3 24t1 22q0 40 -22 62.5t-64 22.5q-34 0 -59 -16.5t-39.5 -46t-17.5 -68.5zM243 593l-142 97q-19 12 -28 29.5t-9 34.5q0 15 6 29.5t19 24.5t31 10q14 0 25 -7t24 -25l112 -153zM432 593l-134 104q-19 14 -27 30t-8 31q0 14 6 28.5t19 24.5t31 10q14 0 26 -6.5
t23 -25.5l103 -156z" />
    <glyph glyph-name="uni0206" unicode="&#x206;" horiz-adv-x="723" 
d="M58 0v76l53 4q18 1 25.5 10t7.5 41v443q0 26 -7 36t-28 11l-51 3v76h563l36 -188l-91 -15q-12 36 -23.5 59t-27 35.5t-38 17t-56.5 4.5h-110v-216h68q26 0 39.5 5t21 20.5t15.5 48.5l70 6v-235l-71 -11q-5 34 -12.5 51.5t-22 23t-42.5 5.5h-66v-223h130q35 0 58.5 6.5
t38.5 20.5t25.5 39t19.5 62h93l-26 -216h-592zM362 959q59 0 98.5 -24.5t61.5 -68.5t27 -101l-64 -13q-14 52 -45.5 75t-79.5 23t-79.5 -24.5t-43.5 -71.5l-64 12q5 55 28 98.5t64 69t97 25.5z" />
    <glyph glyph-name="uni0207" unicode="&#x207;" horiz-adv-x="623" 
d="M330 -14q-89 0 -151.5 32.5t-95 91.5t-32.5 136q0 94 37 159t102.5 99t150.5 34q71 0 122.5 -23.5t79 -67.5t27.5 -108q0 -25 -2 -50.5t-7 -50.5h-345q3 -45 22.5 -75t53 -45t77.5 -15q48 0 86.5 14.5t73.5 40.5l51 -59q-42 -50 -106.5 -81.5t-143.5 -31.5zM216 321h198
q2 13 3 24t1 22q0 40 -22 62.5t-64 22.5q-34 0 -59 -16.5t-39.5 -46t-17.5 -68.5zM333 808q55 0 93.5 -23.5t61.5 -68t28 -106.5l-60 -12q-11 38 -30 60.5t-43.5 32.5t-53.5 10q-48 0 -78 -26t-43 -76l-62 11q7 57 30.5 102t63 70.5t93.5 25.5z" />
    <glyph glyph-name="uni0208" unicode="&#x208;" horiz-adv-x="456" 
d="M58 0v76l53 4q20 1 26.5 12t6.5 38v443q0 25 -6 36t-30 12l-50 3v76h339v-76l-53 -4q-19 -1 -26 -11t-7 -39v-443q0 -25 6.5 -35t28.5 -12l51 -4v-76h-339zM328 752l-138 87q-25 17 -36.5 32.5t-11.5 37.5q0 21 14.5 40.5t41.5 19.5q13 0 25 -7t26 -24l115 -141zM136 752
l-153 72q-26 12 -39 28.5t-13 38.5q0 24 15.5 42.5t39.5 18.5q12 0 23.5 -6t26.5 -21l132 -125z" />
    <glyph glyph-name="uni0209" unicode="&#x209;" horiz-adv-x="404" 
d="M45 0v75l55 3q19 1 25 11.5t6 38.5v246q0 32 -6 46t-32 15l-49 3l8 81l223 12l16 -9v-397q0 -22 4.5 -34t26.5 -13l54 -3v-75h-331zM89 591l-142 97q-19 12 -28 29.5t-9 34.5q0 15 6 29.5t19 24.5t31 10q14 0 25 -7t24 -25l112 -153zM278 591l-134 104q-19 14 -27 30
t-8 31q0 14 6 28.5t19 24.5t31 10q14 0 26 -6.5t23 -25.5l103 -156z" />
    <glyph glyph-name="uni020A" unicode="&#x20a;" horiz-adv-x="456" 
d="M58 0v76l53 4q20 1 26.5 12t6.5 38v443q0 25 -6 36t-30 12l-50 3v76h339v-76l-53 -4q-19 -1 -26 -11t-7 -39v-443q0 -25 6.5 -35t28.5 -12l51 -4v-76h-339zM227 959q59 0 98.5 -24.5t61.5 -68.5t27 -101l-64 -13q-14 52 -45.5 75t-79.5 23t-79.5 -24.5t-43.5 -71.5
l-64 12q5 55 28 98.5t64 69t97 25.5z" />
    <glyph glyph-name="uni020B" unicode="&#x20b;" horiz-adv-x="404" 
d="M45 0v75l55 3q19 1 25 11.5t6 38.5v246q0 32 -6 46t-32 15l-49 3l8 81l223 12l16 -9v-397q0 -22 4.5 -34t26.5 -13l54 -3v-75h-331zM179 806q55 0 93.5 -23.5t61.5 -68t28 -106.5l-60 -12q-11 38 -30 60.5t-43.5 32.5t-53.5 10q-48 0 -78 -26t-43 -76l-62 11
q7 57 30.5 102t63 70.5t93.5 25.5z" />
    <glyph glyph-name="uni020C" unicode="&#x20c;" horiz-adv-x="854" 
d="M421 -14q-118 0 -200 45.5t-123.5 125t-41.5 181.5q0 120 47 204t133 128t202 44q109 0 190.5 -41t126.5 -118.5t45 -187.5q0 -81 -25.5 -150.5t-74 -121t-118.5 -80.5t-161 -29zM434 89q45 0 80 14.5t58.5 46t36 81t12.5 118.5q0 66 -13.5 115.5t-39 82.5t-62 49
t-84.5 16q-46 0 -81 -15t-58.5 -46t-36 -79.5t-12.5 -114.5q0 -67 13 -117t38.5 -83.5t63 -50.5t85.5 -17zM528 752l-138 87q-25 17 -36.5 32.5t-11.5 37.5q0 21 14.5 40.5t41.5 19.5q13 0 25 -7t26 -24l115 -141zM336 752l-153 72q-26 12 -39 28.5t-13 38.5q0 24 15.5 42.5
t39.5 18.5q12 0 23.5 -6t26.5 -21l132 -125z" />
    <glyph glyph-name="uni020D" unicode="&#x20d;" horiz-adv-x="685" 
d="M333 -14q-89 0 -152.5 30.5t-96.5 90t-33 144.5q0 96 37.5 159.5t106 95.5t158.5 32q85 0 148.5 -29t99 -88t35.5 -149q0 -92 -35.5 -156t-103 -97t-164.5 -33zM349 78q41 0 67.5 19t39 57.5t12.5 95.5q0 54 -9 91t-26.5 60t-41.5 34t-54 11q-36 0 -63 -16.5t-41.5 -53
t-14.5 -96.5q0 -68 15 -113t44 -67t72 -22zM255 593l-142 97q-19 12 -28 29.5t-9 34.5q0 15 6 29.5t19 24.5t31 10q14 0 25 -7t24 -25l112 -153zM444 593l-134 104q-19 14 -27 30t-8 31q0 14 6 28.5t19 24.5t31 10q14 0 26 -6.5t23 -25.5l103 -156z" />
    <glyph glyph-name="uni020E" unicode="&#x20e;" horiz-adv-x="854" 
d="M421 -14q-118 0 -200 45.5t-123.5 125t-41.5 181.5q0 120 47 204t133 128t202 44q109 0 190.5 -41t126.5 -118.5t45 -187.5q0 -81 -25.5 -150.5t-74 -121t-118.5 -80.5t-161 -29zM434 89q45 0 80 14.5t58.5 46t36 81t12.5 118.5q0 66 -13.5 115.5t-39 82.5t-62 49
t-84.5 16q-46 0 -81 -15t-58.5 -46t-36 -79.5t-12.5 -114.5q0 -67 13 -117t38.5 -83.5t63 -50.5t85.5 -17zM427 959q59 0 98.5 -24.5t61.5 -68.5t27 -101l-64 -13q-14 52 -45.5 75t-79.5 23t-79.5 -24.5t-43.5 -71.5l-64 12q5 55 28 98.5t64 69t97 25.5z" />
    <glyph glyph-name="uni020F" unicode="&#x20f;" horiz-adv-x="685" 
d="M333 -14q-89 0 -152.5 30.5t-96.5 90t-33 144.5q0 96 37.5 159.5t106 95.5t158.5 32q85 0 148.5 -29t99 -88t35.5 -149q0 -92 -35.5 -156t-103 -97t-164.5 -33zM349 78q41 0 67.5 19t39 57.5t12.5 95.5q0 54 -9 91t-26.5 60t-41.5 34t-54 11q-36 0 -63 -16.5t-41.5 -53
t-14.5 -96.5q0 -68 15 -113t44 -67t72 -22zM345 808q55 0 93.5 -23.5t61.5 -68t28 -106.5l-60 -12q-11 38 -30 60.5t-43.5 32.5t-53.5 10q-48 0 -78 -26t-43 -76l-62 11q7 57 30.5 102t63 70.5t93.5 25.5z" />
    <glyph glyph-name="uni0210" unicode="&#x210;" horiz-adv-x="796" 
d="M656 -14q-49 0 -82 15.5t-55.5 44.5t-37.5 70l-42 118q-9 22 -18.5 38.5t-25.5 26.5t-45 10q-10 0 -20 -0.5t-19 -1.5v-177q0 -27 7 -37t33 -13l50 -3v-77h-343v76l52 4q18 1 26 10t8 41v443q0 22 -6 34t-30 13l-50 3v76h327q63 0 117 -8.5t94.5 -28.5t63 -54t22.5 -85
q0 -37 -14 -65.5t-37.5 -49.5t-51 -34.5t-56 -21.5t-53.5 -11v-4q59 -9 91 -29.5t51 -66.5l29 -65q15 -34 26.5 -54.5t26 -29t36.5 -8.5q11 0 21.5 2t25.5 5l15 -62q-24 -19 -58 -31.5t-78 -12.5zM360 384q45 0 76.5 14.5t48.5 42.5t17 66q0 43 -19 66t-51 32t-71 9h-48
v-228q11 -1 24.5 -1.5t22.5 -0.5zM460 752l-138 87q-25 17 -36.5 32.5t-11.5 37.5q0 21 14.5 40.5t41.5 19.5q13 0 25 -7t26 -24l115 -141zM268 752l-153 72q-26 12 -39 28.5t-13 38.5q0 24 15.5 42.5t39.5 18.5q12 0 23.5 -6t26.5 -21l132 -125z" />
    <glyph glyph-name="uni0211" unicode="&#x211;" horiz-adv-x="590" 
d="M54 0v75l47 3q17 1 23 11t6 38v248q0 35 -6.5 47t-29.5 13l-49 3l9 80l194 13l16 -9l9 -92h5q27 49 71.5 78.5t98.5 29.5q57 0 89.5 -30t32.5 -80q0 -33 -10 -56t-29.5 -35t-48.5 -12q-39 0 -57 15.5t-18 37.5q0 8 1.5 15.5t5.5 17.5t11 26q-23 8 -47 1.5t-44 -24.5
t-32 -45.5t-12 -60.5v-183q0 -26 5.5 -36t24.5 -11l81 -4v-74h-347zM229 593l-142 97q-19 12 -28 29.5t-9 34.5q0 15 6 29.5t19 24.5t31 10q14 0 25 -7t24 -25l112 -153zM418 593l-134 104q-19 14 -27 30t-8 31q0 14 6 28.5t19 24.5t31 10q14 0 26 -6.5t23 -25.5l103 -156z
" />
    <glyph glyph-name="uni0212" unicode="&#x212;" horiz-adv-x="796" 
d="M656 -14q-49 0 -82 15.5t-55.5 44.5t-37.5 70l-42 118q-9 22 -18.5 38.5t-25.5 26.5t-45 10q-10 0 -20 -0.5t-19 -1.5v-177q0 -27 7 -37t33 -13l50 -3v-77h-343v76l52 4q18 1 26 10t8 41v443q0 22 -6 34t-30 13l-50 3v76h327q63 0 117 -8.5t94.5 -28.5t63 -54t22.5 -85
q0 -37 -14 -65.5t-37.5 -49.5t-51 -34.5t-56 -21.5t-53.5 -11v-4q59 -9 91 -29.5t51 -66.5l29 -65q15 -34 26.5 -54.5t26 -29t36.5 -8.5q11 0 21.5 2t25.5 5l15 -62q-24 -19 -58 -31.5t-78 -12.5zM360 384q45 0 76.5 14.5t48.5 42.5t17 66q0 43 -19 66t-51 32t-71 9h-48
v-228q11 -1 24.5 -1.5t22.5 -0.5zM359 959q59 0 98.5 -24.5t61.5 -68.5t27 -101l-64 -13q-14 52 -45.5 75t-79.5 23t-79.5 -24.5t-43.5 -71.5l-64 12q5 55 28 98.5t64 69t97 25.5z" />
    <glyph glyph-name="uni0213" unicode="&#x213;" horiz-adv-x="590" 
d="M54 0v75l47 3q17 1 23 11t6 38v248q0 35 -6.5 47t-29.5 13l-49 3l9 80l194 13l16 -9l9 -92h5q27 49 71.5 78.5t98.5 29.5q57 0 89.5 -30t32.5 -80q0 -33 -10 -56t-29.5 -35t-48.5 -12q-39 0 -57 15.5t-18 37.5q0 8 1.5 15.5t5.5 17.5t11 26q-23 8 -47 1.5t-44 -24.5
t-32 -45.5t-12 -60.5v-183q0 -26 5.5 -36t24.5 -11l81 -4v-74h-347zM319 808q55 0 93.5 -23.5t61.5 -68t28 -106.5l-60 -12q-11 38 -30 60.5t-43.5 32.5t-53.5 10q-48 0 -78 -26t-43 -76l-62 11q7 57 30.5 102t63 70.5t93.5 25.5z" />
    <glyph glyph-name="uni0214" unicode="&#x214;" horiz-adv-x="871" 
d="M437 -14q-85 0 -143.5 20t-94 56.5t-52 86.5t-16.5 109v315q0 26 -6.5 36.5t-29.5 11.5l-47 3v76h334v-76l-49 -4q-18 -1 -25.5 -12t-7.5 -39v-310q0 -51 15.5 -87.5t51 -56.5t97.5 -20t99.5 19.5t55 57t17.5 89.5v312q0 26 -7 36.5t-29 11.5l-47 3v76h271v-76l-49 -4
q-18 -1 -25.5 -12t-7.5 -39v-298q0 -95 -34 -158.5t-102 -95t-169 -31.5zM558 752l-138 87q-25 17 -36.5 32.5t-11.5 37.5q0 21 14.5 40.5t41.5 19.5q13 0 25 -7t26 -24l115 -141zM366 752l-153 72q-26 12 -39 28.5t-13 38.5q0 24 15.5 42.5t39.5 18.5q12 0 23.5 -6
t26.5 -21l132 -125z" />
    <glyph glyph-name="uni0215" unicode="&#x215;" horiz-adv-x="743" 
d="M290 -14q-85 0 -130.5 45t-45.5 127v216q0 32 -6 46t-31 16l-41 3l9 79l212 13l16 -9v-323q0 -34 6.5 -57.5t24.5 -35t51 -11.5q36 0 61.5 15.5t39 44.5t13.5 67v151q0 34 -6 47.5t-31 15.5l-38 3l11 79l207 13l16 -9v-387q0 -28 7 -40t27 -15l45 -4v-76l-212 -8l-14 88
h-5q-22 -28 -47.5 -49t-58.5 -33t-80 -12zM269 593l-142 97q-19 12 -28 29.5t-9 34.5q0 15 6 29.5t19 24.5t31 10q14 0 25 -7t24 -25l112 -153zM458 593l-134 104q-19 14 -27 30t-8 31q0 14 6 28.5t19 24.5t31 10q14 0 26 -6.5t23 -25.5l103 -156z" />
    <glyph glyph-name="uni0216" unicode="&#x216;" horiz-adv-x="871" 
d="M437 -14q-85 0 -143.5 20t-94 56.5t-52 86.5t-16.5 109v315q0 26 -6.5 36.5t-29.5 11.5l-47 3v76h334v-76l-49 -4q-18 -1 -25.5 -12t-7.5 -39v-310q0 -51 15.5 -87.5t51 -56.5t97.5 -20t99.5 19.5t55 57t17.5 89.5v312q0 26 -7 36.5t-29 11.5l-47 3v76h271v-76l-49 -4
q-18 -1 -25.5 -12t-7.5 -39v-298q0 -95 -34 -158.5t-102 -95t-169 -31.5zM457 959q59 0 98.5 -24.5t61.5 -68.5t27 -101l-64 -13q-14 52 -45.5 75t-79.5 23t-79.5 -24.5t-43.5 -71.5l-64 12q5 55 28 98.5t64 69t97 25.5z" />
    <glyph glyph-name="uni0217" unicode="&#x217;" horiz-adv-x="743" 
d="M290 -14q-85 0 -130.5 45t-45.5 127v216q0 32 -6 46t-31 16l-41 3l9 79l212 13l16 -9v-323q0 -34 6.5 -57.5t24.5 -35t51 -11.5q36 0 61.5 15.5t39 44.5t13.5 67v151q0 34 -6 47.5t-31 15.5l-38 3l11 79l207 13l16 -9v-387q0 -28 7 -40t27 -15l45 -4v-76l-212 -8l-14 88
h-5q-22 -28 -47.5 -49t-58.5 -33t-80 -12zM359 808q55 0 93.5 -23.5t61.5 -68t28 -106.5l-60 -12q-11 38 -30 60.5t-43.5 32.5t-53.5 10q-48 0 -78 -26t-43 -76l-62 11q7 57 30.5 102t63 70.5t93.5 25.5z" />
    <glyph glyph-name="uni0218" unicode="&#x218;" horiz-adv-x="676" 
d="M360 -14q-59 0 -111.5 17t-87.5 45l-15 -54h-71l-19 222l79 11q14 -35 34.5 -62t47 -44.5t57.5 -26.5t66 -9q39 0 65.5 9t40 26.5t13.5 42.5q0 30 -16 49.5t-51 35.5t-94 31q-51 14 -92 32t-70.5 43t-45 60.5t-15.5 85.5q0 28 9.5 57.5t28.5 57t49.5 50t72 36t96.5 13.5
q52 0 92.5 -13t73.5 -36l15 49h66l21 -213l-79 -17q-19 53 -47 82t-62 40.5t-71 11.5q-46 0 -77 -19t-31 -57q0 -28 17 -47t51 -34t86 -29q56 -15 100 -33.5t74.5 -43.5t46.5 -60t16 -85q0 -54 -21.5 -96t-58.5 -70.5t-84 -43t-99 -14.5zM302 -318l-39 44q20 16 32.5 30
t19.5 27.5t8 28.5h-11q-26 0 -38.5 16t-12.5 39q0 26 11 41.5t30 23t41 7.5q24 0 43 -10t30 -29t11 -48q0 -27 -12 -56.5t-39.5 -59t-73.5 -54.5z" />
    <glyph glyph-name="uni0219" unicode="&#x219;" horiz-adv-x="549" 
d="M64 -14l-13 179l85 5q16 -33 38 -55.5t50.5 -34t61.5 -11.5q43 0 65.5 17t22.5 44q0 19 -11.5 31.5t-38 22t-72.5 19.5q-40 8 -75 20t-61 30.5t-41 46.5t-15 69q0 54 26.5 92t73.5 57.5t106 19.5q40 0 76 -10t57 -24l9 34h71l10 -172l-83 5q-16 44 -51.5 68t-79.5 24
q-41 0 -62 -14t-21 -41q0 -20 11.5 -32.5t38 -21.5t69.5 -19q47 -11 83.5 -24t61.5 -31.5t38 -45.5t13 -66q0 -56 -27 -97t-75 -63t-111 -22q-49 0 -85 11t-62 25l-13 -36h-70zM237 -319l-39 44q20 16 32.5 30t19.5 27.5t8 28.5h-11q-26 0 -38.5 16t-12.5 39q0 26 11 41.5
t30 23t41 7.5q24 0 43 -10t30 -29t11 -48q0 -27 -12 -56.5t-39.5 -59t-73.5 -54.5z" />
    <glyph glyph-name="uni021A" unicode="&#x21a;" horiz-adv-x="800" 
d="M203 0v76l79 6q20 2 28 12t8 39v480h-50q-29 0 -50 -4.5t-36 -19t-28 -43.5t-28 -78l-93 18l35 214h665l34 -214l-93 -18q-14 48 -27 77t-28.5 43.5t-35.5 19.5t-49 5h-50v-482q0 -28 6.5 -37.5t29.5 -11.5l79 -6v-76h-396zM355 -318l-39 44q20 16 32.5 30t19.5 27.5
t8 28.5h-11q-26 0 -38.5 16t-12.5 39q0 26 11 41.5t30 23t41 7.5q24 0 43 -10t30 -29t11 -48q0 -27 -12 -56.5t-39.5 -59t-73.5 -54.5z" />
    <glyph glyph-name="uni021B" unicode="&#x21b;" horiz-adv-x="477" 
d="M280 -14q-56 0 -94 18.5t-56 53.5t-18 85v293h-80v75q49 6 76.5 24t40.5 52.5t19 89.5l86 12l18 -9v-156h156v-88h-156v-266q0 -35 14 -55.5t51 -20.5q24 0 45.5 7.5t43.5 21.5l37 -65q-34 -33 -80 -52.5t-103 -19.5zM235 -319l-39 44q20 16 32.5 30t19.5 27.5t8 28.5
h-11q-26 0 -38.5 16t-12.5 39q0 26 11 41.5t30 23t41 7.5q24 0 43 -10t30 -29t11 -48q0 -27 -12 -56.5t-39.5 -59t-73.5 -54.5z" />
    <glyph glyph-name="uni022A" unicode="&#x22a;" horiz-adv-x="854" 
d="M421 -14q-118 0 -200 45.5t-123.5 125t-41.5 181.5q0 120 47 204t133 128t202 44q109 0 190.5 -41t126.5 -118.5t45 -187.5q0 -81 -25.5 -150.5t-74 -121t-118.5 -80.5t-161 -29zM434 89q45 0 80 14.5t58.5 46t36 81t12.5 118.5q0 66 -13.5 115.5t-39 82.5t-62 49
t-84.5 16q-46 0 -81 -15t-58.5 -46t-36 -79.5t-12.5 -114.5q0 -67 13 -117t38.5 -83.5t63 -50.5t85.5 -17zM545 773q-37 0 -61.5 21.5t-24.5 58.5q0 36 24.5 57.5t61.5 21.5q43 0 65 -21.5t22 -57.5t-24.5 -58t-62.5 -22zM310 773q-38 0 -61.5 21.5t-23.5 58.5
q0 36 23.5 57.5t61.5 21.5q43 0 65 -21.5t22 -57.5t-24.5 -58t-62.5 -22zM261 995v111h340v-111h-340z" />
    <glyph glyph-name="uni022B" unicode="&#x22b;" horiz-adv-x="685" 
d="M333 -14q-89 0 -152.5 30.5t-96.5 90t-33 144.5q0 96 37.5 159.5t106 95.5t158.5 32q85 0 148.5 -29t99 -88t35.5 -149q0 -92 -35.5 -156t-103 -97t-164.5 -33zM349 78q41 0 67.5 19t39 57.5t12.5 95.5q0 54 -9 91t-26.5 60t-41.5 34t-54 11q-36 0 -63 -16.5t-41.5 -53
t-14.5 -96.5q0 -68 15 -113t44 -67t72 -22zM459 618q-38 0 -62 22t-24 59q0 35 24 56.5t62 21.5q42 0 64 -21.5t22 -56.5q0 -36 -24.5 -58.5t-61.5 -22.5zM224 618q-38 0 -61.5 22t-23.5 59q0 35 23.5 56.5t61.5 21.5q42 0 64 -21.5t22 -56.5q0 -36 -24 -58.5t-62 -22.5z
M173 830v111h340v-111h-340z" />
    <glyph glyph-name="uni022C" unicode="&#x22c;" horiz-adv-x="854" 
d="M421 -14q-118 0 -200 45.5t-123.5 125t-41.5 181.5q0 120 47 204t133 128t202 44q109 0 190.5 -41t126.5 -118.5t45 -187.5q0 -81 -25.5 -150.5t-74 -121t-118.5 -80.5t-161 -29zM434 89q45 0 80 14.5t58.5 46t36 81t12.5 118.5q0 66 -13.5 115.5t-39 82.5t-62 49
t-84.5 16q-46 0 -81 -15t-58.5 -46t-36 -79.5t-12.5 -114.5q0 -67 13 -117t38.5 -83.5t63 -50.5t85.5 -17zM512 772q-26 0 -49 6.5t-47 16.5q-18 8 -32.5 14t-26 8.5t-21.5 2.5q-14 0 -25 -8.5t-24 -30.5l-55 32q20 46 37.5 71t37.5 35t45 10q26 0 48.5 -7t47.5 -18
q25 -10 44.5 -16.5t32.5 -6.5q14 0 24 9.5t22 30.5l55 -31q-19 -44 -36 -69.5t-36 -37t-42 -11.5zM258 993v111h340v-111h-340z" />
    <glyph glyph-name="uni022D" unicode="&#x22d;" horiz-adv-x="685" 
d="M333 -14q-89 0 -152.5 30.5t-96.5 90t-33 144.5q0 96 37.5 159.5t106 95.5t158.5 32q85 0 148.5 -29t99 -88t35.5 -149q0 -92 -35.5 -156t-103 -97t-164.5 -33zM349 78q41 0 67.5 19t39 57.5t12.5 95.5q0 54 -9 91t-26.5 60t-41.5 34t-54 11q-36 0 -63 -16.5t-41.5 -53
t-14.5 -96.5q0 -68 15 -113t44 -67t72 -22zM168 840v111h340v-111h-340zM425 617q-25 0 -48 6.5t-47 16.5q-18 8 -32.5 14t-26 8.5t-21.5 2.5q-15 0 -25.5 -8.5t-23.5 -30.5l-55 32q19 46 37 71t37.5 35t45.5 10t48 -7t47 -18q25 -10 45 -16.5t33 -6.5q14 0 24 9.5t21 30.5
l55 -31q-18 -44 -35.5 -69.5t-36 -37t-42.5 -11.5z" />
    <glyph glyph-name="uni0230" unicode="&#x230;" horiz-adv-x="854" 
d="M421 -14q-118 0 -200 45.5t-123.5 125t-41.5 181.5q0 120 47 204t133 128t202 44q109 0 190.5 -41t126.5 -118.5t45 -187.5q0 -81 -25.5 -150.5t-74 -121t-118.5 -80.5t-161 -29zM434 89q45 0 80 14.5t58.5 46t36 81t12.5 118.5q0 66 -13.5 115.5t-39 82.5t-62 49
t-84.5 16q-46 0 -81 -15t-58.5 -46t-36 -79.5t-12.5 -114.5q0 -67 13 -117t38.5 -83.5t63 -50.5t85.5 -17zM428 767q-45 0 -71.5 22.5t-26.5 62.5q0 38 26 61t73 23t72.5 -22.5t25.5 -61.5t-27 -62t-72 -23zM259 990v111h340v-111h-340z" />
    <glyph glyph-name="uni0231" unicode="&#x231;" horiz-adv-x="685" 
d="M333 -14q-89 0 -152.5 30.5t-96.5 90t-33 144.5q0 96 37.5 159.5t106 95.5t158.5 32q85 0 148.5 -29t99 -88t35.5 -149q0 -92 -35.5 -156t-103 -97t-164.5 -33zM349 78q41 0 67.5 19t39 57.5t12.5 95.5q0 54 -9 91t-26.5 60t-41.5 34t-54 11q-36 0 -63 -16.5t-41.5 -53
t-14.5 -96.5q0 -68 15 -113t44 -67t72 -22zM342 614q-45 0 -72 22.5t-27 62.5q0 38 26 61t73 23q48 0 73.5 -22.5t25.5 -61.5q0 -40 -27 -62.5t-72 -22.5zM173 830v111h340v-111h-340z" />
    <glyph glyph-name="uni0232" unicode="&#x232;" horiz-adv-x="800" 
d="M218 0v76l65 4q17 1 25.5 9.5t8.5 40.5v133l-199 306q-13 21 -25.5 34.5t-39.5 16.5l-41 4v76h351v-76l-56 -3q-21 -1 -25.5 -14t11.5 -36l136 -200h5l128 194q14 21 13.5 36.5t-31.5 17.5l-52 5v76h296v-76l-50 -3q-22 -2 -35.5 -16.5t-29.5 -40.5l-193 -301v-137
q0 -26 7 -35.5t28 -11.5l65 -3v-76h-362zM252 790v111h340v-111h-340z" />
    <glyph glyph-name="uni0233" unicode="&#x233;" horiz-adv-x="668" 
d="M154 -233q-60 0 -97.5 26.5t-37.5 71.5q0 34 22 57t57 23q31 0 48 -12.5t17 -31.5q1 -9 -2 -22.5t-9 -37.5q27 -3 46.5 8t36.5 37.5t36 65.5l20 41l-187 400q-13 28 -21 37.5t-26 10.5l-39 4l13 79h301v-75l-43 -2q-21 -1 -27 -13t7 -42l104 -237h5l100 231
q12 27 7.5 42.5t-28.5 17.5l-40 3l11 75h235v-75l-39 -5q-18 -2 -27.5 -13t-24.5 -45l-188 -414q-23 -49 -44.5 -87t-47.5 -64t-59.5 -40t-78.5 -14zM196 635v108h330v-108h-330z" />
    <glyph glyph-name="uni0237" unicode="&#x237;" horiz-adv-x="364" 
d="M85 -230l-50 65q24 20 40.5 42t27 46.5t15 54t4.5 66.5v330q0 35 -7.5 47.5t-31.5 13.5l-48 3l8 81l222 12l16 -9v-423q0 -67 -12.5 -118t-37 -89t-61.5 -67.5t-85 -54.5z" />
    <glyph glyph-name="uni0251" unicode="&#x251;" horiz-adv-x="724" 
d="M284 -14q-77 0 -128.5 31t-78 90t-26.5 141q0 91 33 155.5t94 99.5t146 35q33 0 61 -5.5t53 -16.5t47 -28l56 49l70 -11v-397q0 -23 9.5 -34t30.5 -11q12 0 23 2.5t21 5.5l14 -61q-19 -17 -53.5 -31t-72.5 -14q-33 0 -56.5 9t-38 28.5t-21.5 49.5h-4q-29 -47 -73.5 -67
t-105.5 -20zM337 87q35 0 61 15.5t40 43t14 63.5v199q-23 15 -50 23t-59 8q-41 0 -68.5 -20t-41.5 -60t-14 -100q0 -57 13.5 -95t40 -57.5t64.5 -19.5z" />
    <glyph glyph-name="uni0259" unicode="&#x259;" horiz-adv-x="629" 
d="M290 -13q-70 0 -121.5 23t-79.5 67.5t-28 107.5q0 25 2 51t7 50h345q-3 45 -22.5 75t-52.5 45t-77 15q-48 0 -87 -14.5t-74 -40.5l-51 59q42 50 106.5 81.5t144.5 31.5q89 0 151 -32.5t94.5 -91t32.5 -136.5q0 -93 -37 -158.5t-102 -99t-151 -33.5zM299 72q35 0 60 16.5
t39 46t17 68.5h-198q-2 -13 -3 -24t-1 -22q0 -40 22 -62.5t64 -22.5z" />
    <glyph glyph-name="uni0261" unicode="&#x261;" horiz-adv-x="694" 
d="M305 -235q-50 0 -91 8t-70.5 22.5t-45.5 35.5t-16 46q0 20 9 38t27.5 29.5t48.5 11.5q35 0 50.5 -15t15.5 -35q0 -10 -2 -20t-9 -29q17 -6 40.5 -9t46.5 -3q49 0 81 18t47 59t15 108v41h-4q-18 -29 -41.5 -48t-54 -28t-70.5 -9q-76 0 -127 31t-77.5 90t-26.5 141
q0 91 33 155.5t94 99.5t146 35q33 0 61 -5.5t53 -16.5t47 -28l56 49l70 -11l1 -456q0 -77 -18.5 -130.5t-50 -87.5t-71 -53t-82.5 -26.5t-85 -7.5zM337 87q35 0 61 15.5t40 43t14 63.5v199q-23 15 -50 23t-59 8q-41 0 -68.5 -20t-41.5 -60t-14 -100q0 -57 13.5 -95t40 -57.5
t64.5 -19.5z" />
    <glyph glyph-name="uni02B9" unicode="&#x2b9;" horiz-adv-x="261" 
d="M111 551l-53 14l14 170q4 39 17.5 64.5t50.5 25.5q16 0 33.5 -7t30 -19.5t12.5 -30.5q0 -10 -4.5 -20.5t-11.5 -23.5z" />
    <glyph glyph-name="uni02BA" unicode="&#x2ba;" horiz-adv-x="444" 
d="M111 551l-53 14l14 170q4 39 17.5 64.5t50.5 25.5q16 0 33.5 -7t30 -19.5t12.5 -30.5q0 -10 -4.5 -20.5t-11.5 -23.5zM305 551l-53 14l14 170q4 39 17.5 64.5t50.5 25.5q16 0 33.5 -7t29.5 -19.5t12 -30.5q0 -10 -4.5 -20.5t-10.5 -23.5z" />
    <glyph glyph-name="uni02BB" unicode="&#x2bb;" horiz-adv-x="0" 
d="M0 582q-37 0 -60 22t-23 59q0 25 11 53t36.5 55.5t70.5 51.5l37 -44q-20 -15 -31.5 -28.5t-16.5 -26t-6 -25.5h8q29 0 40 -15t11 -35q0 -23 -11 -38t-28.5 -22t-37.5 -7z" />
    </font>
</defs>
</svg>
