<?xml version="1.0" standalone="no"?>
<!DOCTYPE svg PUBLIC "-//W3C//DTD SVG 1.1//EN" "http://www.w3.org/Graphics/SVG/1.1/DTD/svg11.dtd" >
<svg xmlns="http://www.w3.org/2000/svg" xmlns:xlink="http://www.w3.org/1999/xlink" version="1.1">
<metadata>
Created by FontForge 20170731 at Tue Jul 28 13:23:43 2020
 By Aleksey,,,
Copyright 2017 The Literata Project Authors (https://github.com/googlefonts/literata)
</metadata>
<defs>
<font id="Literata7pt-Medium" horiz-adv-x="810" >
  <font-face 
    font-family="Literata 7pt Medium"
    font-weight="500"
    font-stretch="normal"
    units-per-em="1000"
    panose-1="0 0 0 0 0 0 0 0 0 0"
    ascent="800"
    descent="-200"
    x-height="519"
    cap-height="700"
    bbox="-407 -287 1596 1167"
    underline-thickness="50"
    underline-position="-175"
    unicode-range="U+000D-FB02"
  />
<missing-glyph horiz-adv-x="500" 
d="M50 700h400v-700h-400v700zM110 640v-580h280v580h-280z" />
    <glyph glyph-name="fi" unicode="fi" horiz-adv-x="751" 
d="M56 0v61l52 2q18 1 26 10.5t8 37.5v339h-87v57l87 11v25q0 74 32 127.5t90.5 82.5t135.5 29q51 0 91.5 -8t69 -23t43 -35t14.5 -45q0 -33 -18.5 -53t-56.5 -20q-27 0 -47 12t-20 35q0 12 4.5 26.5t15.5 32.5q-26 9 -49 13t-49 4q-40 0 -72.5 -13.5t-51 -46t-18.5 -91.5
v-49h356l14 -8v-402q0 -20 5 -33t28 -14l63 -4v-60h-298v60l55 4q20 1 26 11.5t6 38.5v273q0 35 -8 48.5t-40 13.5l-207 1v-337q0 -26 8 -36.5t28 -12.5l60 -4v-60h-296z" />
    <glyph glyph-name="fl" unicode="fl" horiz-adv-x="781" 
d="M56 0v61l52 2q17 1 25.5 10.5t8.5 37.5v339h-87v57l87 11v20q0 56 18 101.5t51 77t79 48.5t101 17q64 0 108 -16.5t72 -32.5l72 33l13 -11v-647q0 -24 6 -34t27 -11l53 -3v-60h-282v60l50 4q19 1 25.5 10t6.5 37v467q0 46 -14 77.5t-45 48t-81 16.5q-47 0 -79.5 -16
t-49.5 -48.5t-17 -81.5v-53h156v-71h-156v-336q0 -27 8 -37.5t28 -12.5l73 -4v-60h-309z" />
    <glyph glyph-name="f_f" unicode="ff" horiz-adv-x="838" 
d="M256 521h285v50q0 61 -33 95t-104 34q-46 0 -79.5 -16.5t-51 -50t-17.5 -85.5v-27zM56 0v61l52 2q17 1 25.5 10.5t8.5 37.5v339h-87v57l87 11v9q0 54 18 97.5t51.5 74t79.5 47t102 16.5q63 0 106.5 -18t76.5 -52q16 30 41 49.5t57.5 30t71.5 10.5q47 0 82.5 -13.5t55 -37
t19.5 -55.5q0 -29 -17 -48.5t-48 -19.5q-27 0 -43.5 11t-16.5 30q0 12 5.5 24.5t19.5 35.5q-13 6 -27 9.5t-33 3.5q-33 0 -52.5 -15.5t-27.5 -44t-8 -66.5v-75h156v-71h-156v-336q0 -27 7.5 -37.5t28.5 -12.5l81 -4v-60h-314v60l49 3q17 2 25.5 11t8.5 37v339h-285v-336
q0 -27 8 -37.5t28 -12.5l73 -4v-60h-309z" />
    <glyph glyph-name="f_k" unicode="fk" horiz-adv-x="1087" 
d="M56 0v61l52 2q17 1 25.5 10.5t8.5 37.5v339h-87v57l87 11v31q0 53 18 95.5t51.5 73.5t79 47.5t100.5 16.5q43 0 76.5 -8t59.5 -19t44 -22l72 33l13 -11v-647q0 -24 6 -34t27 -11l52 -3v-60h-281v60l50 4q19 1 25.5 10t6.5 37v467q0 46 -14.5 77.5t-47.5 48t-87 16.5
q-39 0 -70 -16t-49 -46.5t-18 -74.5v-62h156v-71h-156v-336q0 -27 8 -37.5t28 -12.5l73 -4v-60h-309zM981 -10q-30 0 -52 7t-42.5 23.5t-46.5 46.5l-175 202l1 11l173 137q14 11 14 25t-15 15l-42 4l13 60h239v-59l-34 -4q-19 -1 -38 -11.5t-37 -24.5l-155 -125l167 -185
q20 -24 39 -34.5t42 -10.5q9 0 18 2t23 6l13 -44q-22 -19 -50 -30t-55 -11z" />
    <glyph glyph-name="f_b" unicode="fb" horiz-adv-x="1108" 
d="M586 -12l-46 7v583q0 46 -14 77.5t-46.5 48t-86.5 16.5q-43 0 -74 -14t-47 -46t-16 -86v-53h156v-71h-156v-336q0 -27 8 -37.5t28 -12.5l73 -4v-60h-309v61l52 2q17 1 25.5 10.5t8.5 37.5v339h-87v57l87 11v17q0 62 19 108t53 77t79 46.5t98 15.5q43 0 76.5 -8t58.5 -19
t43 -22l72 33l14 -11v-309h2q22 30 48.5 49.5t59 29.5t70.5 10q67 0 116 -30.5t75 -86.5t26 -136q0 -90 -28.5 -157t-87 -103t-146.5 -36q-28 0 -55.5 5.5t-52.5 16.5t-48 26zM781 63q44 0 78 21.5t53.5 67t19.5 116.5q0 65 -15.5 105t-45 58.5t-71.5 18.5q-44 0 -77 -16
t-50.5 -47t-17.5 -76v-207q24 -20 58 -30.5t68 -10.5z" />
    <glyph glyph-name="f_h" unicode="fh" horiz-adv-x="1138" 
d="M56 0v61l52 2q17 1 25.5 10.5t8.5 37.5v339h-87v57l87 11v26q0 54 19.5 97.5t53.5 75t80 48.5t100 17q40 0 73 -8t59 -19t44 -22l72 33l13 -11v-311h2q26 41 75 65.5t105 24.5q58 0 98 -20t61 -58t21 -93v-259q0 -17 4.5 -28t28.5 -13l53 -3v-60h-272v60l39 3
q20 1 26.5 9t6.5 32v221q0 41 -9.5 67.5t-32.5 40t-64 13.5q-43 0 -75 -15.5t-49.5 -45.5t-17.5 -72v-205q0 -22 5.5 -31.5t21.5 -11.5l48 -5v-60h-271v60l52 4q19 1 24.5 11t5.5 35v468q0 46 -14 77.5t-45 48t-81 16.5q-43 0 -76 -16t-51.5 -47.5t-18.5 -78.5v-57h156v-71
h-156v-336q0 -27 8 -37.5t28 -12.5l73 -4v-60h-309z" />
    <glyph glyph-name="f_t" unicode="ft" horiz-adv-x="852" 
d="M56 0v61l52 2q17 1 25.5 10.5t8.5 37.5v339h-87v57l87 11v29q0 53 13 96.5t38.5 74.5t63 47.5t87.5 16.5q46 0 81 -13.5t54.5 -37t19.5 -55.5q0 -29 -17.5 -48.5t-46.5 -19.5q-28 0 -44 11t-16 30q0 12 5.5 24.5t18.5 35.5q-12 6 -25.5 9.5t-32.5 3.5q-31 0 -50 -15.5
t-27 -43.5t-8 -67v-75h163q48 0 77.5 14t44.5 47.5t21 92.5l59 8l15 -7v-155h166v-71h-166v-299q0 -40 17.5 -60.5t55.5 -20.5q27 0 49.5 9t45.5 25l32 -50q-34 -33 -76 -50.5t-88 -17.5q-52 0 -85.5 18t-49 52t-15.5 81v313h-266v-336q0 -27 8 -37.5t28 -12.5l81 -4v-60
h-317z" />
    <glyph glyph-name="f_f_i" unicode="ffi" horiz-adv-x="1150" 
d="M56 0v61l52 2q17 1 25.5 10.5t8.5 37.5v339h-87v57l87 11v9q0 54 18.5 97.5t52 74t80.5 47t103 16.5q62 0 108.5 -19.5t80.5 -62.5q24 33 58 55.5t75.5 34.5t87.5 12q48 0 87 -8t66.5 -23t42.5 -35t15 -45q0 -33 -19 -53t-56 -20q-27 0 -47 12t-20 35q0 12 4.5 26.5
t15.5 32.5q-26 9 -48 13t-45 4q-35 0 -68.5 -12.5t-56 -43t-22.5 -82.5v-62h356l13 -8v-402q0 -20 5 -33t29 -14l62 -4v-60h-298v60l55 4q21 1 27 11.5t6 38.5v273q0 35 -8 48.5t-40 13.5l-207 1v-337q0 -26 8 -36.5t28 -12.5l60 -4v-60h-293v61l49 2q18 1 26 10.5t8 37.5
v339h-285v-336q0 -27 8 -37.5t28 -12.5l73 -4v-60h-309zM256 521h285v40q0 68 -34 103.5t-108 35.5q-43 0 -75 -16t-50 -48t-18 -81v-34z" />
    <glyph glyph-name="f_f_l" unicode="ffl" horiz-adv-x="1180" 
d="M56 0v61l52 2q17 1 25.5 10.5t8.5 37.5v339h-87v57l87 11v9q0 54 19 97.5t53 74t78.5 47t96.5 16.5q63 0 109.5 -18t84.5 -60q38 48 93 73t117 25q45 0 77.5 -8t57 -19t42.5 -22l72 33l13 -11v-647q0 -24 6 -34t27 -11l53 -3v-60h-282v60l50 4q19 1 25.5 10t6.5 37v472
q0 43 -15.5 74t-46.5 47t-79 16q-42 0 -74.5 -16t-51.5 -46.5t-19 -74.5v-62h156v-71h-156v-336q0 -27 7.5 -37.5t28.5 -12.5l72 -4v-60h-305v60l49 3q17 2 25 11t8 37v339h-284v-336q0 -27 8 -37.5t28 -12.5l73 -4v-60h-309zM256 521h285v40q0 68 -34 103.5t-108 35.5
q-39 0 -71.5 -16t-52 -46t-19.5 -75v-42z" />
    <glyph glyph-name="f_f_k" unicode="ffk" horiz-adv-x="1486" 
d="M1379 -10q-29 0 -51.5 7t-43 23.5t-45.5 46.5l-175 202l1 11l172 137q15 11 15 25t-15 15l-42 4l13 60h238v-59l-33 -4q-19 -1 -38.5 -11.5t-36.5 -24.5l-155 -125l167 -185q20 -24 38.5 -34.5t42.5 -10.5q8 0 17.5 2t23.5 6l13 -44q-22 -19 -50 -30t-56 -11zM56 0v61
l52 2q17 1 25.5 10.5t8.5 37.5v339h-87v57l87 11v20q0 51 18.5 92.5t52 71t78.5 45t98 15.5q63 0 110.5 -18t85.5 -60q33 45 89.5 71.5t118.5 26.5q45 0 77.5 -8t57 -19t42.5 -22l72 33l13 -11v-645q0 -25 6 -34.5t23 -11.5l43 -4v-60h-268v60l52 4q19 1 24.5 11t5.5 36v467
q0 46 -15.5 77.5t-46.5 48t-79 16.5q-43 0 -76 -16t-51 -46.5t-18 -74.5v-62h156v-71h-156v-336q0 -27 7.5 -37.5t28.5 -12.5l72 -4v-60h-305v60l49 3q17 2 25 11t8 37v339h-284v-336q0 -27 8 -37.5t28 -12.5l73 -4v-60h-309zM256 521h285v40q0 68 -34 103.5t-108 35.5
q-44 0 -76 -16t-49.5 -46t-17.5 -75v-42z" />
    <glyph glyph-name="f_f_b" unicode="ffb" horiz-adv-x="1507" 
d="M256 521h285v40q0 68 -33 103.5t-103 35.5q-48 0 -81.5 -16.5t-50.5 -50.5t-17 -86v-26zM1180 63q44 0 77.5 21.5t53 67t19.5 116.5q0 65 -15.5 105t-45 58.5t-70.5 18.5q-44 0 -77 -16t-51 -47t-18 -76v-207q25 -20 58.5 -30.5t68.5 -10.5zM56 0v61l52 2q17 1 25.5 10.5
t8.5 37.5v339h-87v57l87 11v9q0 54 17 97.5t49.5 74t80 47t108.5 16.5q57 0 103.5 -19t82.5 -59q38 50 93 74t118 24q45 0 77 -8t55.5 -19t41.5 -22l72 33l13 -11v-309h3q21 30 47.5 49.5t59.5 29.5t71 10q67 0 115.5 -30.5t75 -86.5t26.5 -136q0 -90 -29 -157t-87 -103
t-147 -36q-28 0 -55.5 5.5t-52.5 16.5t-47 26l-48 -46l-46 7v583q0 46 -15 77.5t-45.5 48t-78.5 16.5q-41 0 -74 -16t-52 -46.5t-19 -74.5v-62h156v-71h-156v-336q0 -27 7.5 -37.5t28.5 -12.5l72 -4v-60h-305v60l49 3q17 2 25 11t8 37v339h-284v-336q0 -27 8 -37.5t28 -12.5
l73 -4v-60h-309z" />
    <glyph glyph-name="f_f_t" unicode="fft" horiz-adv-x="1251" 
d="M56 0v61l52 2q17 1 25.5 10.5t8.5 37.5v339h-87v57l87 11v9q0 57 19.5 101.5t54 74t80.5 44.5t101 15q57 0 101.5 -17t76.5 -53q25 43 67 66.5t101 23.5q46 0 81 -13.5t54.5 -37t19.5 -55.5q0 -29 -17.5 -48.5t-47.5 -19.5q-27 0 -43 11t-16 30q0 12 5 24.5t19 35.5
q-12 6 -26 9.5t-32 3.5q-32 0 -50.5 -15.5t-26.5 -43.5t-8 -67v-75h163q48 0 77.5 14t44.5 47.5t21 92.5l59 8l15 -7v-155h166v-71h-166v-299q0 -40 17.5 -60.5t55.5 -20.5q27 0 49.5 9t45.5 25l31 -50q-34 -33 -75.5 -50.5t-87.5 -17.5q-53 0 -86 18t-48.5 52t-15.5 81v313
h-266v-336q0 -27 7.5 -37.5t28.5 -12.5l81 -4v-60h-317v61l52 2q17 1 25.5 10.5t8.5 37.5v339h-285v-336q0 -27 8 -37.5t28 -12.5l73 -4v-60h-309zM256 521h285v42q0 70 -34.5 103.5t-101.5 33.5q-46 0 -79.5 -16t-51.5 -47.5t-18 -78.5v-37z" />
    <glyph glyph-name="f_iacute" unicode="f&#xed;" horiz-adv-x="745" 
d="M519 589l-33 33l107 138q13 16 23 23t22 7q18 0 29 -9t17 -21.5t6 -26.5q0 -16 -9 -29.5t-27 -25.5zM56 0v61l51 3q18 1 25.5 10.5t7.5 37.5v335h-85v58l86 11v57q0 52 12 91.5t35.5 65.5t56 39t72.5 13q37 0 67.5 -13.5t48 -37t17.5 -56.5q0 -30 -17 -49.5t-46 -19.5
q-26 0 -41 11t-15 30q0 13 5.5 26t18.5 36q-8 5 -17.5 8.5t-22.5 3.5q-19 0 -33 -10t-20.5 -34t-6.5 -66v-92h352l14 -8v-400q0 -20 5 -32.5t29 -14.5l61 -4v-60h-295v60l53 4q21 2 27 12.5t6 38.5v269q0 35 -8 49t-40 14h-204v-334q0 -26 8 -36t28 -12l75 -5v-60h-310z" />
    <glyph glyph-name="T_h" unicode="Th" horiz-adv-x="1335" 
d="M213 0v60l85 7q20 2 28 13t8 37v514h-64q-33 0 -55.5 -3.5t-39.5 -18t-31.5 -45t-33.5 -83.5l-65 14l37 205h564q40 0 72.5 8.5t60.5 23.5t50 34l25 -11v-311h1q26 41 75 65.5t106 24.5t97 -20t61 -58t21 -93v-259q0 -17 5 -28t28 -13l53 -3v-60h-272v60l40 3
q19 1 25.5 9t6.5 32v221q0 41 -9.5 67.5t-32.5 40t-64 13.5q-42 0 -74 -15.5t-49.5 -45.5t-17.5 -72v-205q0 -22 5 -31.5t22 -11.5l47 -5v-60h-270v60l52 4q18 1 23.5 11t5.5 35v521h-286v-517q0 -25 7 -35t29 -12l85 -7v-60h-361z" />
    <glyph glyph-name=".notdef" horiz-adv-x="500" 
d="M50 700h400v-700h-400v700zM110 640v-580h280v580h-280z" />
    <glyph glyph-name=".null" horiz-adv-x="0" 
 />
    <glyph glyph-name="nonmarkingreturn" horiz-adv-x="333" 
 />
    <glyph glyph-name="CR" unicode="&#xd;" horiz-adv-x="0" 
 />
    <glyph glyph-name="space" unicode=" " horiz-adv-x="245" 
 />
    <glyph glyph-name="exclam" unicode="!" horiz-adv-x="353" 
d="M143 209v61q0 46 -4 90t-10 83.5t-12 75t-10.5 65.5t-4.5 55q0 23 10.5 39.5t29 26t42.5 9.5q36 0 56 -20t20 -54q0 -28 -7 -66.5t-15.5 -85.5t-15.5 -101.5t-7 -117.5v-60h-72zM176 -14q-36 0 -59 22t-23 56q0 35 22.5 57t59.5 22q38 0 60.5 -21.5t22.5 -56.5
q0 -34 -23 -56.5t-60 -22.5z" />
    <glyph glyph-name="quotedbl" unicode="&#x22;" horiz-adv-x="442" 
d="M107 533l-27 168l-2 14t-1 13q0 24 17 41t45 17q19 0 35.5 -11t16.5 -31q0 -5 -1 -12t-3 -16l-32 -183h-48zM279 533l-27 168l-2 14t-1 13q0 24 17 41t45 17q19 0 35.5 -11t16.5 -31q0 -5 -0.5 -12t-3.5 -16l-32 -183h-48z" />
    <glyph glyph-name="numbersign" unicode="#" horiz-adv-x="737" 
d="M158 -3l23 135h-131l16 74h128l24 148h-131l13 73h131l20 126h81l-20 -126h162l19 126h82l-20 -126h132l-12 -74h-132l-25 -147h139l-13 -74h-138l-23 -135h-81l23 135h-163l-22 -135h-82zM275 206h163l24 148h-164z" />
    <glyph glyph-name="dollar" unicode="$" horiz-adv-x="657" 
d="M307 -98v87q-45 5 -85.5 22t-68.5 40l-17 -57h-53l-22 221l63 7q18 -49 45.5 -81.5t62.5 -49.5t75 -22v235q-11 3 -21 6t-19 6q-47 16 -81 34.5t-56 41.5t-32.5 53.5t-10.5 68.5q0 39 14.5 73.5t43.5 62t69.5 44.5t92.5 20v89h62v-93q33 -5 63 -17t54 -30l15 51h54
l20 -203l-62 -13q-15 44 -36 73t-48 45t-60 21v-221q4 -1 7.5 -2t7.5 -3q57 -18 97.5 -37t65.5 -43.5t37.5 -55.5t12.5 -72q0 -47 -17.5 -85.5t-48.5 -66.5t-72.5 -44.5t-89.5 -19.5v-85h-62zM369 68q34 4 58 15t37 31.5t13 49.5q0 28 -10.5 49.5t-34 38.5t-63.5 32v-216z
M307 436v202q-47 -3 -75 -26.5t-28 -64.5q0 -25 10 -45t32.5 -35t60.5 -31z" />
    <glyph glyph-name="percent" unicode="%" horiz-adv-x="966" 
d="M230 -14l400 611h101l-398 -611h-103zM228 274q-54 0 -93.5 19.5t-61.5 54t-22 80.5q0 63 26.5 100t68 53t87.5 16t85.5 -16.5t64 -50t24.5 -85.5q0 -57 -24.5 -95t-65.5 -57t-89 -19zM230 341q33 0 52 23.5t19 72.5q0 47 -19 70.5t-55 23.5q-32 0 -51 -21t-19 -70
q0 -47 18 -73t55 -26zM731 -17q-53 0 -93 19.5t-62 54t-22 81.5q0 62 26.5 99t68.5 53t87 16q47 0 86.5 -16.5t64 -49.5t24.5 -86q0 -57 -24.5 -95t-65.5 -57t-90 -19zM733 51q34 0 53 23t19 73q0 32 -8.5 52.5t-25.5 30.5t-40 10q-32 0 -51.5 -21t-19.5 -70q0 -46 18.5 -72
t54.5 -26z" />
    <glyph glyph-name="ampersand" unicode="&#x26;" horiz-adv-x="888" 
d="M310 -14q-70 0 -126.5 22.5t-89.5 66.5t-33 106q0 37 12.5 68.5t35 57t52 45t64.5 32.5q-22 21 -41 45t-31.5 52.5t-12.5 61.5q0 42 16.5 74t44.5 54t66 32.5t82 10.5q76 0 123.5 -40t47.5 -103q0 -39 -17.5 -73t-48 -60.5t-71.5 -45.5l156 -147q19 73 43.5 121t52.5 75
t57 38t58 11q37 0 63.5 -20.5t26.5 -54.5q0 -19 -7 -35.5t-19.5 -26t-31.5 -9.5q-15 0 -25.5 6.5t-19.5 21.5t-19 39q-19 -4 -42.5 -25.5t-45.5 -67t-38 -123.5q42 -41 66.5 -62.5t41 -28.5t33.5 -7q23 0 48 10.5t46 27.5l27 -46q-15 -22 -39 -42.5t-53.5 -34t-59.5 -13.5
q-29 0 -54 9.5t-51 28.5t-59 48q-19 -27 -51 -49.5t-75.5 -36t-101.5 -13.5zM334 59q58 0 96 18.5t58 53.5l-216 205q-25 -12 -44.5 -29t-32 -42.5t-12.5 -63.5q0 -47 20 -78.5t54.5 -47.5t76.5 -16zM333 436q40 20 62 43.5t30 47t8 44.5q0 39 -25.5 58t-63.5 19
q-41 0 -68 -19.5t-27 -58.5q0 -22 10.5 -44.5t29.5 -44t44 -45.5z" />
    <glyph glyph-name="quotesingle" unicode="'" horiz-adv-x="269" 
d="M107 533l-27 168l-2 14t-1 13q0 24 17 41t45 17q19 0 35.5 -11t16.5 -31q0 -5 -1 -12t-3 -16l-32 -183h-48z" />
    <glyph glyph-name="parenleft" unicode="(" horiz-adv-x="375" 
d="M291 -207q-41 42 -79.5 97.5t-68.5 121.5t-47.5 141.5t-17.5 157.5q0 83 19 158t50.5 140.5t70.5 119t78 92.5l48 -28q-41 -65 -75 -143.5t-53.5 -163.5t-19.5 -168q0 -91 19 -177t51.5 -166t72.5 -154z" />
    <glyph glyph-name="parenright" unicode=")" horiz-adv-x="378" 
d="M79 -207l-47 26q46 77 78.5 156t50.5 163.5t18 174.5q0 84 -18.5 169.5t-51 164.5t-73.5 146l48 28q41 -41 79 -96t68.5 -122t48 -143t17.5 -159q0 -81 -18.5 -156t-49.5 -139.5t-70 -118.5t-80 -94z" />
    <glyph glyph-name="asterisk" unicode="*" horiz-adv-x="499" 
d="M244 401q-27 0 -36.5 16t-4.5 38l21 100l-78 -63q-19 -15 -41 -16t-36 23t-3.5 39t32.5 22l107 35l-98 31q-29 10 -39.5 27.5t4.5 40.5q14 22 32.5 21.5t35.5 -13.5l85 -68l-18 91q-5 27 6.5 45t41.5 18q23 0 33.5 -14t4.5 -39l-22 -102l80 62q19 16 42 18t38 -26
q12 -23 3.5 -36.5t-33.5 -21.5l-110 -35l99 -34q25 -8 37 -26.5t-2 -42.5q-14 -22 -32 -21.5t-36 14.5l-86 70l17 -90q5 -24 -4.5 -43.5t-39.5 -19.5z" />
    <glyph glyph-name="plus" unicode="+" horiz-adv-x="620" 
d="M261 82v182h-166v87h166v169h91v-169h173v-87h-173v-182h-91z" />
    <glyph glyph-name="comma" unicode="," horiz-adv-x="340" 
d="M119 -163l-32 47q31 22 49 40t26.5 35.5t10.5 39.5h-18q-17 0 -32 7.5t-24 22t-9 34.5q0 35 20.5 55.5t59.5 20.5q45 0 65.5 -27t20.5 -71q0 -34 -13.5 -71t-44 -71.5t-79.5 -61.5z" />
    <glyph glyph-name="hyphen" unicode="-" horiz-adv-x="373" 
d="M52 244v92h269v-92h-269z" />
    <glyph glyph-name="period" unicode="." horiz-adv-x="347" 
d="M173 -14q-37 0 -60.5 22t-23.5 58q0 35 23.5 57.5t60.5 22.5q38 0 61 -22t23 -58q0 -35 -23 -57.5t-61 -22.5z" />
    <glyph glyph-name="slash" unicode="/" horiz-adv-x="511" 
d="M25 -110l356 912h99l-354 -912h-101z" />
    <glyph glyph-name="zero" unicode="0" horiz-adv-x="678" 
d="M339 -13q-92 0 -155 46t-95 126t-32 181q0 104 24 175.5t65 115.5t93 63.5t106 19.5q75 0 137.5 -38t100.5 -115.5t38 -197.5q0 -123 -37 -206.5t-100.5 -126.5t-144.5 -43zM347 63q35 0 62.5 16.5t46 50.5t28 88.5t9.5 130.5q0 75 -10 129.5t-30 89.5t-49.5 52t-67.5 17
q-33 0 -61 -14t-48.5 -46.5t-31.5 -86.5t-11 -133q0 -69 10.5 -123.5t31 -92.5t51 -58t70.5 -20z" />
    <glyph glyph-name="one" unicode="1" horiz-adv-x="466" 
d="M58 0v60l91 8q23 1 30.5 13t7.5 36v441q0 27 -6 40.5t-41 14.5l-86 3l7 61l235 35l14 -13v-585q0 -27 7.5 -36t29.5 -11l87 -7v-60h-376z" />
    <glyph glyph-name="two" unicode="2" horiz-adv-x="573" 
d="M48 0l-10 73q84 80 143.5 139.5t98 104t61 79t31 65t8.5 61.5q0 57 -33.5 88t-92.5 31q-39 0 -67.5 -10t-41.5 -25q11 -14 17.5 -25.5t9.5 -19.5t3 -15q0 -21 -17.5 -38t-49.5 -17q-35 0 -53 22.5t-18 51.5q0 40 29 73.5t83 54.5t126 21q69 0 121 -23.5t81.5 -66.5
t29.5 -103q0 -32 -9 -63.5t-31 -67t-60 -78t-96 -96t-140 -121.5h153q30 0 50 2.5t33 12.5t24 32t25 62h66l-18 -204h-456z" />
    <glyph glyph-name="three" unicode="3" horiz-adv-x="597" 
d="M282 -13q-57 0 -99 12.5t-71.5 32t-49 41.5t-30.5 39l55 52q20 -22 44.5 -41.5t58 -31t79.5 -11.5q49 0 80 16t46.5 44t15.5 63q0 62 -49.5 90.5t-148.5 27.5l7 72q61 6 99.5 26t57 50.5t18.5 66.5q0 47 -29.5 77t-90.5 30q-34 0 -63.5 -11.5t-42.5 -26.5q18 -23 24 -36
t6 -24q0 -12 -7 -24.5t-21.5 -20.5t-36.5 -8q-26 0 -42 10t-22.5 27.5t-6.5 35.5q0 37 26.5 71.5t78.5 56t123 21.5q68 0 117.5 -20t76.5 -58.5t27 -94.5q0 -40 -18.5 -74.5t-51.5 -58.5t-78 -35v-4q50 -8 89 -28t62 -55.5t23 -90.5q0 -49 -19.5 -87t-53.5 -65t-81 -41.5
t-102 -14.5z" />
    <glyph glyph-name="four" unicode="4" horiz-adv-x="631" 
d="M230 0v56l93 9q22 2 28.5 14.5t6.5 33.5v54h-324l-11 63l333 464l109 16l14 -11v-449h115v-83h-115v-56q0 -19 6 -30.5t32 -14.5l58 -7v-59h-345zM126 250h232v315h-4z" />
    <glyph glyph-name="five" unicode="5" horiz-adv-x="581" 
d="M274 -14q-48 0 -93.5 13t-84 41t-68.5 72l55 52q41 -46 84.5 -65t93.5 -19q46 0 78 17.5t48.5 51t16.5 80.5q0 59 -36 95.5t-105 36.5q-41 0 -76 -10t-67 -30l-40 42l38 337h388l-1 -29l-25 -76h-290l-24 -178q32 17 68 25.5t72 8.5q70 0 120 -27t77 -75t27 -111
q0 -61 -17.5 -108.5t-50.5 -79t-80.5 -48t-107.5 -16.5z" />
    <glyph glyph-name="six" unicode="6" horiz-adv-x="623" 
d="M316 -13q-94 0 -150.5 40.5t-82.5 110t-26 156.5q0 78 16 152.5t53.5 135.5t101 96.5t155.5 35.5q44 0 88.5 -13t74 -39t29.5 -66q0 -19 -8 -35t-24 -26.5t-40 -10.5t-38.5 6.5t-20.5 16.5t-6 21q0 8 2 15.5t6.5 17t12.5 22.5q-13 10 -32 14.5t-50 4.5q-43 0 -74.5 -15.5
t-53.5 -42.5t-36 -61.5t-21 -73t-10 -77.5q23 30 68 54t109 24q63 0 111.5 -24.5t76 -72t27.5 -116.5q0 -82 -33 -138t-91 -84t-134 -28zM320 59q41 0 71 16.5t47 53t17 96.5q0 51 -16.5 83t-45.5 46.5t-69 14.5q-34 0 -67 -14t-54 -43t-21 -74q0 -50 12.5 -91t42.5 -64.5
t83 -23.5z" />
    <glyph glyph-name="seven" unicode="7" horiz-adv-x="568" 
d="M212 -11l-16 10q0 48 7.5 113t32 143.5t75.5 166t137 179.5h-212q-31 0 -50.5 -2t-32 -11.5t-21 -29.5t-18.5 -56h-72l18 198h489l10 -71q-58 -71 -101.5 -140.5t-72.5 -143.5t-43 -158.5t-13 -185.5z" />
    <glyph glyph-name="eight" unicode="8" horiz-adv-x="627" 
d="M304 -13q-78 0 -137 20t-92 60.5t-33 102.5q0 37 14.5 73t51.5 67.5t102 53.5q-52 24 -81.5 49.5t-42.5 55t-13 67.5q0 42 24 83t77 68t141 27q80 0 131 -20t76 -54t25 -78q0 -41 -17 -73t-44.5 -56.5t-61.5 -43.5q59 -24 93 -54.5t49 -64.5t15 -74q0 -52 -22 -91
t-60.5 -65.5t-88.5 -39.5t-106 -13zM314 60q44 0 76 13.5t49.5 40t17.5 63.5q0 30 -12 52t-34.5 39.5t-56.5 33t-77 30.5q-64 -31 -91 -69t-27 -81q0 -39 19.5 -66t54.5 -41.5t81 -14.5zM351 418q39 25 62.5 59t23.5 71q0 34 -18 55t-47 30.5t-63 9.5t-62 -9t-45 -28
t-17 -50q0 -26 14 -48.5t50 -43.5t102 -46z" />
    <glyph glyph-name="nine" unicode="9" horiz-adv-x="618" 
d="M275 -14q-63 0 -122.5 22t-100.5 67l47 62q35 -27 75.5 -44t92.5 -17q46 0 77 17.5t50.5 50t29.5 77.5t14 99q-27 -34 -69.5 -55.5t-100.5 -21.5q-67 0 -116.5 26.5t-76.5 75t-27 115.5q0 85 33.5 141.5t91.5 84.5t132 28q71 0 120.5 -24t79.5 -66t43.5 -98t13.5 -120
q0 -216 -67.5 -318t-219.5 -102zM298 329q26 0 51 7.5t45.5 25t32.5 46.5t12 73q0 43 -13.5 80.5t-43.5 60t-80 22.5q-32 0 -57.5 -9t-43 -28.5t-27.5 -50.5t-10 -75q0 -55 17 -88.5t47 -48.5t70 -15z" />
    <glyph glyph-name="colon" unicode=":" horiz-adv-x="347" 
d="M173 -14q-37 0 -60.5 22t-23.5 58q0 35 23.5 57.5t60.5 22.5q38 0 61 -22t23 -58q0 -35 -23 -57.5t-61 -22.5zM173 374q-37 0 -60.5 22.5t-23.5 57.5q0 36 23.5 58.5t60.5 22.5q38 0 61 -22.5t23 -57.5t-23 -58t-61 -23z" />
    <glyph glyph-name="semicolon" unicode=";" horiz-adv-x="347" 
d="M122 -163l-31 47q31 22 48.5 40t26 35.5t10.5 39.5h-18q-16 0 -31 7.5t-24 22t-9 34.5q0 35 20 55.5t59 20.5q45 0 66 -27t21 -71q0 -34 -14 -71t-44.5 -71.5t-79.5 -61.5zM173 374q-37 0 -60.5 22.5t-23.5 57.5q0 36 23.5 58.5t60.5 22.5q38 0 61 -22.5t23 -57.5
t-23 -58t-61 -23z" />
    <glyph glyph-name="less" unicode="&#x3c;" horiz-adv-x="620" 
d="M469 37l-375 223v48l375 224l42 -70l-303 -177l303 -176z" />
    <glyph glyph-name="equal" unicode="=" horiz-adv-x="620" 
d="M96 352v86h428v-86h-428zM96 168v86h428v-86h-428z" />
    <glyph glyph-name="greater" unicode="&#x3e;" horiz-adv-x="620" 
d="M134 37l-42 72l304 176l-304 177l42 70l375 -224v-48z" />
    <glyph glyph-name="question" unicode="?" horiz-adv-x="593" 
d="M229 209v111q0 20 5.5 37t22 37.5t48.5 48.5q45 39 63 64.5t18 52.5q0 39 -31.5 63t-83.5 24q-35 0 -58 -8t-40 -26q10 -14 19 -30t9 -29q0 -19 -19 -35.5t-47 -16.5q-36 0 -51.5 18.5t-15.5 48.5q0 39 29.5 72.5t80.5 53t113 19.5q64 0 112.5 -20t75.5 -56.5t27 -86.5
q0 -37 -15.5 -67.5t-40.5 -57t-55 -51.5q-32 -30 -50.5 -49.5t-26.5 -31t-10.5 -19.5t-2.5 -16v-50h-76zM264 -14q-36 0 -59 21.5t-23 56.5t23 57t59 22q37 0 59.5 -21.5t22.5 -56.5t-22.5 -57t-59.5 -22z" />
    <glyph glyph-name="at" unicode="@" horiz-adv-x="959" 
d="M447 -192q-76 0 -144.5 22t-121.5 67t-83.5 114.5t-30.5 163.5q0 86 29.5 160t85.5 128.5t136.5 85.5t182.5 31q90 0 162.5 -21t124 -63t79 -104t27.5 -143q0 -89 -31 -147t-82 -87t-112 -29q-40 0 -59.5 11.5t-24.5 33.5t-3 52l8 117h-5l-22 -64q-13 -36 -28.5 -64.5
t-35 -47t-42.5 -28.5t-50 -10q-37 0 -65 12t-46 33.5t-27 50.5t-9 64q0 88 29.5 144t79.5 83t109 27q38 0 69.5 -8t58.5 -24l54 27l19 -6l-15 -283q-2 -34 2 -45.5t29 -11.5q32 0 59 22.5t43.5 65.5t16.5 103q0 65 -18.5 115.5t-57 85t-98 52.5t-142.5 18q-100 0 -179 -38
t-124 -111.5t-45 -179.5q0 -86 27 -145t71.5 -93.5t98.5 -50t110 -15.5q78 0 128 19.5t92 49.5l39 -47q-49 -43 -117.5 -67.5t-151.5 -24.5zM424 57q23 0 41 14.5t34.5 49t34.5 90.5l38 116q-18 8 -37 11.5t-41 3.5q-32 0 -56.5 -16t-41 -42.5t-24 -61t-7.5 -71.5
q0 -31 5.5 -51.5t18.5 -31.5t35 -11z" />
    <glyph glyph-name="A" unicode="A" 
d="M15 0v61l54 5q17 2 27 11t22 41l228 582h130l225 -584q8 -24 17.5 -36t30.5 -14l46 -5v-61h-306v61l59 4q17 1 24.5 11t-3.5 39l-40 106h-286l-39 -104q-8 -20 -5 -36t30 -18l57 -3v-60h-271zM268 292h237l-113 310h-7z" />
    <glyph glyph-name="B" unicode="B" horiz-adv-x="732" 
d="M66 0v60l63 4q17 1 25.5 10.5t8.5 40.5v474q0 21 -5.5 33.5t-30.5 13.5l-61 4v60h285q90 0 153.5 -17t97.5 -53t34 -95q0 -38 -21 -71t-56 -55.5t-81 -33.5v-5q99 -8 150.5 -51.5t51.5 -118.5q0 -63 -38.5 -108t-109.5 -68.5t-170 -23.5h-296zM356 67q61 0 104 15.5
t65.5 46t22.5 75.5q0 44 -22.5 71.5t-64.5 41t-100 13.5q-53 0 -79 -4v-254q12 -2 31.5 -3.5t42.5 -1.5zM340 396q51 0 88 15t57.5 44.5t20.5 70.5q0 43 -19.5 66.5t-55.5 32t-88 8.5h-61v-235q11 -1 24.5 -1.5t33.5 -0.5z" />
    <glyph glyph-name="C" unicode="C" horiz-adv-x="758" 
d="M417 -14q-110 0 -190 45t-123 126.5t-43 192.5q0 83 25 150.5t71.5 115t110 73t140.5 25.5q58 0 101 -16.5t75 -43.5l13 60h54l40 -236l-64 -13q-21 60 -50.5 97.5t-69.5 55.5t-93 18q-72 0 -121 -31t-74.5 -91t-25.5 -146q0 -72 18 -127t50.5 -92t77 -55.5t96.5 -18.5
q50 0 88.5 12t70.5 35.5t61 57.5l50 -46q-22 -33 -51.5 -60.5t-66.5 -47t-79.5 -30t-90.5 -10.5z" />
    <glyph glyph-name="D" unicode="D" horiz-adv-x="839" 
d="M66 0v60l63 4q20 2 27 12.5t7 38.5v474q0 25 -6.5 35.5t-29.5 11.5l-61 4v60h322q73 0 134 -12.5t109 -38t80.5 -65t49.5 -92t17 -120.5q0 -89 -29 -158.5t-84 -117t-133.5 -72t-178.5 -24.5h-287zM360 71q76 0 130 17.5t89 53t51.5 91t16.5 131.5q0 90 -30 148.5
t-88.5 87.5t-147.5 29h-99v-557q13 -1 35 -1h43z" />
    <glyph glyph-name="E" unicode="E" horiz-adv-x="698" 
d="M66 0v60l63 4q18 1 26 11t8 40v474q0 25 -7 35.5t-29 11.5l-61 4v60h518l37 -174l-66 -17q-15 41 -29 65.5t-31.5 37t-42 16t-60.5 3.5h-110v-242h86q33 0 49 5t24 22t17 54l55 6v-232l-56 -9q-6 39 -15 57.5t-25.5 23.5t-50.5 5h-84v-252h137q37 0 62.5 5.5t42 19.5
t28.5 39.5t22 64.5h68l-24 -198h-552z" />
    <glyph glyph-name="F" unicode="F" horiz-adv-x="662" 
d="M66 0v60l63 4q18 1 26 10t8 41v474q0 26 -7 36t-29 11l-61 4v60h517l37 -185l-64 -15q-17 46 -32.5 72.5t-33.5 39.5t-42 16t-59 3h-107v-258h89q34 0 50.5 4.5t24.5 22t16 54.5l56 6v-239l-55 -9q-6 44 -15.5 63t-27 24.5t-50.5 5.5h-88v-191q0 -26 8.5 -36.5
t32.5 -12.5l85 -5v-60h-342z" />
    <glyph glyph-name="G" unicode="G" horiz-adv-x="827" 
d="M407 -14q-109 0 -186.5 45.5t-118.5 127t-41 186.5q0 87 25 155.5t70.5 116.5t109 72.5t141.5 24.5q64 0 109.5 -15.5t80.5 -42.5l11 58h55l42 -229l-65 -14q-22 60 -54 96t-74.5 52.5t-98.5 16.5q-53 0 -93.5 -17.5t-69 -51t-43 -83.5t-14.5 -116q0 -67 16 -120.5
t46.5 -92t75.5 -59t102 -20.5q34 0 62.5 5.5t51.5 16t40 26.5v104q0 23 -5.5 34.5t-30.5 12.5l-62 4v60h297v-60l-50 -4q-17 -1 -24.5 -11.5t-7.5 -39.5v-227h-63l-27 55q-25 -19 -57.5 -34t-70 -23.5t-79.5 -8.5z" />
    <glyph glyph-name="H" unicode="H" horiz-adv-x="919" 
d="M66 0v60l63 4q17 1 25.5 10.5t8.5 40.5v474q0 21 -6 33.5t-30 13.5l-61 4v60h312v-60l-63 -4q-18 -1 -25.5 -12t-7.5 -39v-188h357v192q0 19 -4.5 32.5t-31.5 14.5l-59 4v60h310v-60l-63 -4q-19 -1 -25.5 -11.5t-6.5 -39.5v-474q0 -20 5 -32.5t30 -14.5l60 -4v-60h-310
v60l62 4q19 2 26 12t7 39v207h-357v-211q0 -25 7 -35t28 -12l61 -4v-60h-312z" />
    <glyph glyph-name="I" unicode="I" horiz-adv-x="445" 
d="M66 0v60l64 4q17 1 25 11t8 40v474q0 22 -6 34t-31 13l-60 4v60h313v-60l-64 -4q-19 -1 -26 -12t-7 -39v-474q0 -23 6.5 -34t28.5 -13l62 -4v-60h-313z" />
    <glyph glyph-name="J" unicode="J" horiz-adv-x="596" 
d="M229 -14q-59 0 -104.5 16.5t-71.5 46.5t-26 68q0 27 11 47.5t30.5 32t44.5 11.5q31 0 48.5 -14t17.5 -36q0 -14 -6.5 -29.5t-25.5 -46.5q14 -10 37.5 -17t45.5 -7q37 0 61 16.5t36 49.5t12 81v381q0 23 -6 35.5t-30 13.5l-73 4v61h327v-60l-65 -4q-19 -1 -26 -13t-7 -38
v-353q0 -117 -56.5 -181.5t-173.5 -64.5z" />
    <glyph glyph-name="K" unicode="K" horiz-adv-x="799" 
d="M672 -14q-35 0 -61.5 9t-46.5 24.5t-36 35t-29 38.5l-156 226l-61 -59v-149q0 -25 7 -35t28 -12l61 -4v-60h-312v60l63 4q17 1 25.5 10.5t8.5 40.5v474q0 26 -7 36t-29 11l-61 4v60h312v-60l-64 -4q-18 -1 -25 -12t-7 -39v-231l248 234q12 10 15.5 21t-2 18.5t-22.5 8.5
l-47 3l10 61h255v-61l-42 -5q-12 -1 -19.5 -4.5t-18 -13t-30.5 -28.5l-198 -187l182 -255q21 -29 37 -47t33.5 -26.5t41.5 -8.5q12 0 25.5 2t27.5 6l13 -45q-20 -19 -51 -30t-68 -11z" />
    <glyph glyph-name="L" unicode="L" horiz-adv-x="666" 
d="M66 0v60l63 4q17 1 25.5 10.5t8.5 40.5v474q0 25 -6.5 35.5t-29.5 11.5l-61 4v60h321v-60l-69 -5q-21 -1 -28.5 -10.5t-7.5 -35.5v-519h113q35 0 58.5 4.5t40.5 20t31.5 46t30.5 82.5h68l-24 -223h-534z" />
    <glyph glyph-name="M" unicode="M" horiz-adv-x="1059" 
d="M60 0v60l57 4q21 1 27 13.5t7 34.5l31 479q2 20 -3.5 32t-30.5 13l-56 4v60h257l181 -466h4l189 466h250v-60l-64 -4q-14 -1 -23.5 -9t-7.5 -40l31 -476q2 -19 6.5 -32t29.5 -15l62 -4v-60h-313v60l65 4q19 2 26.5 11t5.5 37l-32 478h-1l-196 -484h-104l-194 485h-1
l-31 -480q-1 -23 5 -34t29 -13l58 -4v-60h-264z" />
    <glyph glyph-name="N" unicode="N" horiz-adv-x="910" 
d="M66 0v60l64 4q19 1 26 12t7 39v474q0 25 -6.5 35.5t-28.5 11.5l-62 4v60h248l350 -538h4v427q0 25 -7 35.5t-29 11.5l-59 4v60h277v-60l-61 -4q-20 -1 -27 -12t-7 -39v-585h-122l-380 568h-5v-457q0 -20 5 -32.5t30 -14.5l62 -4v-60h-279z" />
    <glyph glyph-name="O" unicode="O" horiz-adv-x="840" 
d="M415 -14q-109 0 -188.5 44.5t-122.5 123t-43 183.5q0 117 44.5 201t126.5 130t195 46q106 0 185.5 -42.5t123 -120t43.5 -183.5q0 -84 -25.5 -154t-73.5 -121t-115 -79t-150 -28zM428 67q53 0 94 17.5t69 52t42.5 87.5t14.5 125q0 69 -16.5 123t-46.5 90t-73.5 54
t-99.5 18q-52 0 -93 -17.5t-69 -52t-42.5 -87t-14.5 -121.5q0 -70 16 -124t47 -90.5t74.5 -55.5t97.5 -19z" />
    <glyph glyph-name="P" unicode="P" horiz-adv-x="674" 
d="M66 0v60l63 4q17 1 25.5 10.5t8.5 39.5v475q0 22 -6 34t-31 13l-60 4v60h282q55 0 101 -7t81.5 -21.5t59.5 -38.5t36.5 -58t12.5 -79t-13 -81t-37 -63.5t-58 -46t-75 -27.5t-87 -9q-28 0 -51.5 1.5t-35.5 3.5v-161q0 -26 8.5 -37t32.5 -12l85 -4v-60h-342zM343 338
q85 0 125.5 37.5t40.5 117.5q0 55 -20 85.5t-58 42.5t-92 12h-57v-290q12 -2 27.5 -3.5t33.5 -1.5z" />
    <glyph glyph-name="Q" unicode="Q" horiz-adv-x="846" 
d="M761 -191q-46 0 -86.5 18.5t-77.5 60.5t-76 109q-24 -5 -48.5 -8t-50.5 -3q-109 0 -190 44.5t-126 123t-45 183.5q0 117 46 201t129.5 130t197.5 46q106 0 185 -42.5t122.5 -120t43.5 -183.5q0 -109 -41.5 -194.5t-122.5 -134.5q37 -47 66 -74.5t54.5 -39.5t50.5 -12
q42 0 76.5 10.5t72.5 34.5l26 -35q-36 -40 -69 -65.5t-66 -37t-71 -11.5zM434 62q18 0 30.5 1t18.5 3q-20 35 -38.5 61t-37 43.5t-36.5 26t-37 8.5q-26 0 -48 -9.5t-42 -37.5q20 -30 48.5 -51.5t64.5 -33t77 -11.5zM572 114q40 33 61.5 93t21.5 142q0 70 -16.5 123t-47 89.5
t-73.5 55t-99 18.5q-53 0 -95 -17.5t-71.5 -52t-45 -87t-15.5 -121.5q0 -43 7 -80t23 -68q29 35 60.5 48t69.5 13q35 0 70 -18t72 -52t78 -86z" />
    <glyph glyph-name="R" unicode="R" horiz-adv-x="772" 
d="M650 -14q-40 0 -69.5 12.5t-51.5 41t-42 74.5l-49 117q-11 26 -22.5 44.5t-30.5 28.5t-55 10q-13 0 -25 -0.5t-23 -2.5v-197q0 -28 7.5 -37.5t32.5 -12.5l65 -3v-61h-321v60l63 4q17 1 25.5 10.5t8.5 40.5v474q0 21 -6 33.5t-31 13.5l-60 4v60h293q67 0 120 -10t90 -31
t56.5 -55t19.5 -82q0 -31 -10 -58t-28.5 -48t-42.5 -37t-53 -27t-61 -15v-3q47 -11 73.5 -29t45.5 -62l35 -76q18 -39 31 -61.5t29.5 -31.5t41.5 -9q10 0 21 1.5t27 6.5l13 -46q-23 -19 -52 -30t-65 -11zM341 374q54 0 92.5 16t59 47.5t20.5 75.5q0 48 -22 74t-60.5 36
t-90.5 10h-57v-257q14 -1 31 -1.5t27 -0.5z" />
    <glyph glyph-name="S" unicode="S" horiz-adv-x="659" 
d="M350 -14q-56 0 -109 18t-87 47l-17 -57h-53l-22 221l63 7q16 -42 38 -72t50 -48t61 -26.5t69 -8.5q42 0 72.5 10.5t46 32.5t15.5 54q0 35 -16 59t-52 43t-99 36q-60 17 -102 36.5t-68.5 44.5t-39 57t-12.5 74q0 33 10.5 62.5t30 54.5t49 43.5t66.5 29t82 10.5
q46 0 87.5 -13.5t73.5 -37.5l15 51h54l20 -203l-62 -13q-17 53 -44 84t-62 44.5t-78 13.5q-55 0 -89.5 -23.5t-34.5 -69.5q0 -32 16 -54.5t51.5 -40.5t96.5 -36t104.5 -38t71 -44.5t40 -56t12.5 -74.5q0 -49 -19 -89t-53 -69t-78.5 -44t-97.5 -15z" />
    <glyph glyph-name="T" unicode="T" horiz-adv-x="785" 
d="M213 0v60l85 7q20 2 28 13t8 37v514h-64q-33 0 -55.5 -3.5t-39.5 -18t-31.5 -45t-33.5 -83.5l-65 14l37 205h622l36 -205l-66 -14q-17 53 -32 83t-32 45t-39 18.5t-55 3.5h-63v-517q0 -25 7 -35t29 -12l85 -7v-60h-361z" />
    <glyph glyph-name="U" unicode="U" horiz-adv-x="884" 
d="M441 -14q-77 0 -132 18t-90.5 53t-53 87t-17.5 119v326q0 26 -7 36t-29 11l-56 4v60h306v-60l-58 -4q-17 -1 -25 -11.5t-8 -39.5v-317q0 -64 17.5 -108t58.5 -67t112 -23q68 0 111 22t64 67.5t21 113.5v316q0 26 -7 36t-29 11l-56 4v60h267v-60l-59 -4q-16 -1 -24 -11.5
t-8 -39.5v-300q0 -99 -33.5 -166t-99.5 -100t-165 -33z" />
    <glyph glyph-name="V" unicode="V" horiz-adv-x="801" 
d="M336 0l-224 585q-10 28 -18.5 37.5t-30.5 12.5l-39 5v60h300v-61l-59 -2q-20 -1 -26.5 -11t3.5 -39l174 -476h6l175 470q11 28 5 41t-29 14l-53 3l1 61h256v-60l-45 -5q-17 -2 -26 -10.5t-22 -42.5l-221 -582h-127z" />
    <glyph glyph-name="W" unicode="W" horiz-adv-x="1181" 
d="M275 0l-159 585q-6 25 -15.5 36t-33.5 14l-43 5v60h300v-61l-54 -2q-20 -1 -26 -11.5t1 -38.5l121 -472h4l164 585h142l180 -587h5l112 470q6 26 1.5 38t-27.5 13l-53 6v60h263v-61l-51 -2q-13 -1 -23 -6t-16.5 -16t-11.5 -31l-142 -584h-147l-179 570h-3l-161 -570h-148
z" />
    <glyph glyph-name="X" unicode="X" horiz-adv-x="788" 
d="M19 0v60l40 5q14 2 24 5.5t21.5 13.5t28.5 30l193 227l-198 244q-18 22 -32 34t-37 15l-40 6l3 60h292v-61l-41 -3q-19 -1 -22 -11t14 -31l138 -168l135 166q14 17 15.5 27.5t-25.5 14.5l-39 5l3 61h253v-61l-41 -4q-13 -2 -24 -6.5t-21.5 -13.5t-22.5 -25l-185 -225
l203 -251q19 -24 36 -35.5t39 -13.5l39 -5v-60h-306v60l47 3q20 2 24 13t-16 33l-141 170l-143 -173q-13 -16 -15.5 -26t23.5 -14l48 -6v-60h-270z" />
    <glyph glyph-name="Y" unicode="Y" horiz-adv-x="770" 
d="M222 0v60l67 4q17 1 25 10t8 41v166l-201 303q-14 20 -26.5 33.5t-38.5 16.5l-41 6v60h315v-60l-59 -3q-22 -1 -28.5 -14t9.5 -36l151 -225h5l143 220q12 18 12 33.5t-31 18.5l-50 6v60h273v-60l-54 -3q-18 0 -31.5 -14.5t-30.5 -41.5l-198 -304v-166q0 -25 7 -35t28 -12
l66 -4v-60h-320z" />
    <glyph glyph-name="Z" unicode="Z" horiz-adv-x="718" 
d="M60 0v58l438 573h-219q-27 0 -46.5 -4.5t-35 -19t-29.5 -42.5t-30 -74l-69 -6l13 215h566v-59l-435 -572h205q32 0 57 5.5t44 21t36 45.5t35 80h68l-21 -221h-577z" />
    <glyph glyph-name="bracketleft" unicode="[" horiz-adv-x="380" 
d="M115 -212v1024h223l4 -62l-89 -5q-19 -1 -24.5 -10.5t-5.5 -34.5v-800q0 -26 5.5 -34.5t24.5 -10.5l89 -5l-4 -62h-223z" />
    <glyph glyph-name="backslash" unicode="\" horiz-adv-x="508" 
d="M376 -110l-351 912h99l353 -912h-101z" />
    <glyph glyph-name="bracketright" unicode="]" horiz-adv-x="388" 
d="M50 -212l-3 62l88 5q20 2 25.5 10.5t5.5 34.5v800q0 25 -5.5 34.5t-25.5 10.5l-88 5l3 62h224v-1024h-224z" />
    <glyph glyph-name="asciicircum" unicode="^" horiz-adv-x="614" 
d="M108 337l-68 42l239 333h56l239 -333l-68 -42l-200 268z" />
    <glyph glyph-name="underscore" unicode="_" horiz-adv-x="470" 
d="M0 -102v71h470v-71h-470z" />
    <glyph glyph-name="grave" unicode="`" horiz-adv-x="500" 
d="M290 590l-137 91q-18 11 -27 25t-9 30q0 13 5.5 26t17.5 21.5t28 8.5q12 0 22.5 -7t22.5 -23l109 -139z" />
    <glyph glyph-name="a" unicode="a" horiz-adv-x="609" 
d="M216 -14q-70 0 -112.5 38t-42.5 100q0 58 30 93.5t99 53t185 22.5v70q0 34 -9.5 58t-35 37.5t-70.5 13.5q-27 0 -52.5 -7t-38.5 -18q10 -15 16 -27t9 -20t3 -13q0 -23 -19 -37t-47 -14q-32 0 -49 16t-17 46q0 37 28.5 68t77.5 49.5t108 18.5q72 0 118.5 -20.5t69 -61.5
t22.5 -102v-237q0 -22 11.5 -33.5t35.5 -11.5q14 0 26.5 2.5t25.5 7.5l13 -51q-18 -16 -49 -28.5t-63 -12.5q-47 0 -71.5 22t-32.5 63q-19 -27 -44 -46t-56.5 -29t-68.5 -10zM262 65q31 0 56.5 13t41 35t15.5 48v67q-68 0 -111.5 -9t-64 -28.5t-20.5 -51.5q0 -35 22.5 -54.5
t60.5 -19.5z" />
    <glyph glyph-name="b" unicode="b" horiz-adv-x="680" 
d="M157 -12l-45 7v639q0 35 -8 47t-38 14l-55 3l6 62l195 6l14 -11v-309h2q22 30 48.5 49.5t59 29.5t71.5 10q66 0 115 -30.5t75 -86.5t26 -136q0 -90 -28.5 -157t-87 -103t-146.5 -36q-42 0 -82 12.5t-74 35.5zM352 63q44 0 78 21.5t53.5 67t19.5 116.5q0 65 -15.5 105
t-45 58.5t-71.5 18.5q-43 0 -76.5 -16t-51 -47t-17.5 -76v-207q24 -20 58 -30.5t68 -10.5z" />
    <glyph glyph-name="c" unicode="c" horiz-adv-x="573" 
d="M314 -14q-80 0 -137 31.5t-88 91.5t-31 144q0 86 32.5 149t92.5 98t140 35q60 0 106 -19t72 -50t26 -70q0 -21 -9 -37.5t-24.5 -26t-38.5 -9.5q-32 0 -49 14.5t-17 37.5q0 11 6 26t19 40q-17 12 -39.5 18t-51.5 6q-42 0 -75 -18.5t-52 -59.5t-19 -107q0 -109 45.5 -156
t119.5 -47q47 0 83 16.5t66 40.5l41 -48q-36 -43 -91 -71.5t-127 -28.5z" />
    <glyph glyph-name="d" unicode="d" horiz-adv-x="688" 
d="M281 -14q-70 0 -120.5 30t-77 88.5t-26.5 140.5q0 90 32.5 154.5t92.5 99.5t142 35q36 0 71.5 -8.5t60.5 -22.5v134q0 33 -8 45t-38 14l-57 4l7 61l197 5l13 -12v-648q0 -19 5 -30.5t30 -13.5l54 -5v-60l-175 -6l-15 80h-7q-23 -28 -50 -47.5t-59 -28.5t-72 -9zM317 71
q42 0 73 18t48.5 49.5t17.5 73.5v206q-26 19 -59.5 28.5t-69.5 9.5q-49 0 -82 -22.5t-50 -67t-17 -111.5q0 -60 16 -101t48 -62t75 -21z" />
    <glyph glyph-name="e" unicode="e" horiz-adv-x="590" 
d="M321 -14q-82 0 -140.5 32t-90.5 91t-32 138q0 90 34 154.5t94 98.5t140 34q63 0 109.5 -22.5t72 -64.5t25.5 -101q0 -26 -2 -51t-7 -51h-345q2 -55 23.5 -92.5t59 -56t87.5 -18.5q43 0 82 15.5t70 42.5l42 -46q-39 -47 -97.5 -75t-124.5 -28zM178 313h239q2 11 2.5 22
t0.5 22q0 51 -26.5 78.5t-77.5 27.5q-39 0 -68 -17.5t-46.5 -50.5t-23.5 -82z" />
    <glyph glyph-name="f" unicode="f" horiz-adv-x="439" 
d="M56 0v61l52 2q17 1 25.5 11t8.5 37v339h-87v57l87 11v29q0 53 13 96.5t38.5 74.5t64 47.5t89.5 16.5q48 0 83.5 -13.5t54.5 -37t19 -55.5q0 -29 -17 -48.5t-48 -19.5q-27 0 -43 11t-16 30q0 12 5 24.5t19 35.5q-12 6 -26.5 9.5t-33.5 3.5q-33 0 -52.5 -15.5t-27.5 -44
t-8 -66.5v-75h156v-71h-156v-336q0 -24 6.5 -36t29.5 -14l81 -4v-60h-317z" />
    <glyph glyph-name="g" unicode="g" horiz-adv-x="623" 
d="M284 -231q-62 0 -109.5 8t-79 24t-47.5 39.5t-16 54.5q0 28 11.5 48t34.5 37t56 30v4q-28 9 -47 31.5t-19 47.5t15 53t55 64v3q-40 20 -60.5 54.5t-20.5 83.5q0 57 29.5 97.5t81.5 62.5t121 22q26 0 49.5 -3t45.5 -9.5t42 -17.5q20 48 50.5 74t71.5 26q20 0 37 -7.5
t26.5 -20t9.5 -30.5q0 -24 -19 -41.5t-43 -17.5q-15 0 -26 7t-19 20l-11 20q-9 -13 -17 -27.5t-16 -33.5q22 -23 34 -52t12 -64q0 -53 -27.5 -93t-78 -62.5t-119.5 -22.5q-25 0 -49 3t-37 7q-18 -17 -27 -32.5t-9 -28.5q0 -16 9.5 -25t26.5 -12t38 -3h149q90 0 140.5 -29.5
t50.5 -99.5q0 -33 -12 -61.5t-35.5 -52t-59.5 -40.5t-84 -26t-108 -9zM295 -155q52 0 89.5 11t58 30.5t20.5 44.5q0 29 -24.5 43t-70.5 14h-177q-23 -16 -35 -34.5t-12 -41.5q0 -32 35.5 -49.5t115.5 -17.5zM287 253q55 0 83.5 26.5t28.5 74.5q0 49 -31 78t-86 29
q-52 0 -79.5 -29t-27.5 -76q0 -46 30.5 -74.5t81.5 -28.5z" />
    <glyph glyph-name="h" unicode="h" horiz-adv-x="736" 
d="M58 0v60l52 4q19 1 24.5 11t5.5 35v524q0 34 -8 46.5t-38 14.5l-55 3l6 62l196 6l13 -11v-311h2q26 41 74.5 65.5t105.5 24.5q58 0 97.5 -20t61 -58t21.5 -93v-259q0 -16 4 -27.5t29 -13.5l53 -3v-60h-272v60l39 3q20 1 26.5 9t6.5 32v221q0 41 -9.5 67.5t-32.5 40
t-64 13.5q-43 0 -75 -15.5t-49.5 -45.5t-17.5 -72v-205q0 -21 5.5 -31t21.5 -12l48 -5v-60h-271z" />
    <glyph glyph-name="i" unicode="i" horiz-adv-x="382" 
d="M47 0v60l63 4q20 1 26.5 11.5t6.5 38.5v276q0 35 -7 47.5t-32 13.5l-56 3l8 63l187 11l14 -8v-409q0 -20 5 -33t29 -14l62 -4v-60h-306zM185 616q-35 0 -57 19.5t-22 52.5q0 32 22 52t57 20q36 0 57.5 -19.5t21.5 -52.5q0 -32 -22 -52t-57 -20z" />
    <glyph glyph-name="j" unicode="j" horiz-adv-x="347" 
d="M79 -229l-34 46q25 19 42 40.5t28 47t16 57t5 71.5v357q0 34 -7.5 47t-31.5 14l-56 3l7 63l188 11l14 -8v-424q0 -67 -9.5 -117.5t-29 -88.5t-52.5 -66.5t-80 -52.5zM178 616q-35 0 -57 19.5t-22 52.5q0 32 22 52t57 20t57 -19.5t22 -52.5q0 -32 -22 -52t-57 -20z" />
    <glyph glyph-name="k" unicode="k" horiz-adv-x="685" 
d="M579 -10q-32 0 -55 8t-43 24.5t-43 44.5l-175 202l1 11l173 137q14 11 14 25t-15 15l-42 4l13 60h239v-59l-34 -4q-19 -2 -38 -12t-37 -24l-155 -125l167 -185q20 -24 38.5 -34.5t42.5 -10.5q9 0 18 2t23 6l13 -44q-22 -19 -50 -30t-55 -11zM58 0v60l52 4q19 1 24.5 11
t5.5 35v524q0 34 -8 46.5t-38 14.5l-55 3l6 62l196 6l13 -11v-645q0 -24 6 -34t24 -12l42 -4v-60h-268z" />
    <glyph glyph-name="l" unicode="l" horiz-adv-x="379" 
d="M58 0v60l50 4q19 1 25.5 10t6.5 37v523q0 34 -8.5 46.5t-37.5 14.5l-55 3l6 62l196 6l13 -11v-647q0 -23 5.5 -33t27.5 -12l53 -3v-60h-282z" />
    <glyph glyph-name="m" unicode="m" horiz-adv-x="1064" 
d="M60 0v60l54 4q14 1 21 9.5t7 37.5v280q0 34 -7 46.5t-30 13.5l-55 3l8 62l162 12l13 -8l8 -90h6q19 33 46.5 56t62 36t74.5 13q64 0 104.5 -27t56.5 -78q26 48 77.5 76.5t106.5 28.5q54 0 91.5 -21t57.5 -59t20 -92v-259q0 -22 6 -30.5t28 -10.5l53 -3v-60h-271v60l38 3
q19 2 25.5 10t6.5 32v222q0 40 -7.5 66t-28.5 39.5t-58 13.5q-41 0 -71 -16t-47.5 -45t-17.5 -69v-209q0 -25 6 -33.5t26 -10.5l42 -3v-60h-258v60l38 3q16 1 24 8.5t8 34.5v221q0 40 -8 66.5t-29 39.5t-59 13q-39 0 -69.5 -16t-47.5 -45t-17 -69v-209q0 -22 5 -31t22 -11
l47 -4v-61h-270z" />
    <glyph glyph-name="n" unicode="n" horiz-adv-x="737" 
d="M60 0v60l54 4q14 1 21 10t7 38v282q0 31 -7 43.5t-30 13.5l-55 3l8 62l161 12l14 -8l8 -90h6q29 48 80.5 76t111.5 28q57 0 97 -20t60.5 -58t20.5 -93v-259q0 -20 6 -29.5t28 -11.5l52 -3v-60h-271v60l40 3q17 1 24 9t7 32v221q0 41 -9 67.5t-31.5 40t-63.5 13.5
q-43 0 -75.5 -16t-50 -45.5t-17.5 -71.5v-205q0 -24 5.5 -33.5t21.5 -11.5l47 -3v-60h-270z" />
    <glyph glyph-name="o" unicode="o" horiz-adv-x="656" 
d="M319 -14q-81 0 -139.5 31.5t-90 90t-31.5 140.5q0 91 34.5 154.5t97 97.5t146.5 34q81 0 140.5 -30.5t92 -89t32.5 -143.5q0 -90 -33 -154t-96 -97.5t-153 -33.5zM335 60q48 0 80 21t48.5 62.5t16.5 102.5q0 54 -11 94.5t-32 67t-50.5 39.5t-66.5 13q-44 0 -75.5 -20.5
t-48.5 -62t-17 -105.5q0 -68 19 -116t54 -72t83 -24z" />
    <glyph glyph-name="p" unicode="p" horiz-adv-x="693" 
d="M40 -216v61l54 3q14 1 23 10t9 37v494q0 37 -7.5 49t-32.5 13l-52 3l8 62l159 12l16 -8l8 -88h6q23 34 50.5 56.5t62.5 34.5t79 12q67 0 115 -30t73.5 -87.5t25.5 -139.5q0 -92 -30 -157.5t-87 -100t-138 -34.5q-39 0 -78 9t-65 23v-121q0 -23 7.5 -34.5t27.5 -13.5
l71 -5v-60h-305zM371 64q46 0 78.5 22.5t50 67.5t17.5 111q0 61 -15 102t-44 62t-73 21t-77 -17.5t-51 -48.5t-18 -74v-209q20 -16 57.5 -26.5t74.5 -10.5z" />
    <glyph glyph-name="q" unicode="q" horiz-adv-x="673" 
d="M351 -216v60l70 4q21 2 28 13t7 36v165h-3q-22 -27 -49.5 -44t-57.5 -24.5t-64 -7.5q-71 0 -121 30.5t-77 88.5t-27 141q0 91 33 155.5t93 99t142 34.5q30 0 57.5 -6t52.5 -16t45 -25l49 45l41 -9v-629q0 -28 8.5 -37.5t23.5 -10.5l53 -2v-61h-304zM319 71q40 0 71 18
t48.5 49.5t17.5 72.5v207q-25 18 -58 28t-71 10q-48 0 -81 -22t-50.5 -66t-17.5 -110q0 -92 37 -139.5t104 -47.5z" />
    <glyph glyph-name="r" unicode="r" horiz-adv-x="544" 
d="M60 0v60l52 4q18 1 24 11t6 37v281q0 33 -7 45t-30 13l-55 3l8 62l161 12l14 -8l8 -91h6q30 51 72 78.5t91 27.5q52 0 81.5 -27t29.5 -73q0 -28 -8 -48t-24.5 -30.5t-41.5 -10.5q-32 0 -48 13.5t-16 34.5q0 8 2 15.5t6 18t11 25.5q-24 10 -49.5 2.5t-47.5 -27.5
t-35.5 -49.5t-13.5 -63.5v-205q0 -24 5 -34.5t24 -11.5l89 -5v-59h-314z" />
    <glyph glyph-name="s" unicode="s" horiz-adv-x="516" 
d="M65 -14l-12 174l67 5q14 -35 36 -59.5t51 -37t63 -12.5q46 0 72 20.5t26 53.5q0 23 -11 38t-37.5 26.5t-76.5 22.5q-45 10 -79 23.5t-56 32t-32.5 43.5t-10.5 59q0 50 25 86t68 54.5t97 18.5q35 0 69.5 -9.5t54.5 -23.5l8 33h57l10 -165l-67 5q-12 43 -47 70t-81 27
q-45 0 -68.5 -17t-23.5 -50q0 -24 11.5 -39t38.5 -25.5t71 -21.5q49 -13 83.5 -27t56.5 -32t32 -43t10 -59q0 -51 -26 -89.5t-70.5 -60t-102.5 -21.5q-44 0 -79 10.5t-59 26.5l-13 -37h-55z" />
    <glyph glyph-name="t" unicode="t" horiz-adv-x="455" 
d="M275 -14q-53 0 -86 18t-48.5 52t-15.5 81v313h-84v59q44 4 69 20.5t37.5 51.5t17.5 94l59 8l15 -7v-155h166v-71h-166v-299q0 -40 17.5 -60.5t55.5 -20.5q27 0 49.5 9t45.5 25l32 -50q-34 -33 -76 -50.5t-88 -17.5z" />
    <glyph glyph-name="u" unicode="u" horiz-adv-x="716" 
d="M297 -14q-84 0 -128.5 44t-44.5 127v232q0 35 -6.5 47.5t-30.5 14.5l-45 4l9 61l173 12l14 -8v-330q0 -39 7.5 -66.5t29 -41t62.5 -13.5q42 0 73 18.5t48 51.5t17 73v177q0 32 -5.5 46t-31.5 16l-46 4l10 61l173 12l14 -8v-407q0 -25 7 -35.5t27 -13.5l52 -4v-60l-178 -6
l-15 82h-3q-27 -29 -55 -49t-59 -30.5t-68 -10.5z" />
    <glyph glyph-name="v" unicode="v" horiz-adv-x="644" 
d="M266 0l-166 403q-8 19 -14 30t-14.5 16t-22.5 6l-38 4l11 62h264v-59l-44 -2q-21 -1 -25.5 -12.5t5.5 -37.5l121 -310h7l117 303q11 27 5.5 39.5t-29.5 15.5l-38 4l8 59h226v-60l-42 -3q-18 -1 -27 -10t-23 -44l-166 -404h-115z" />
    <glyph glyph-name="w" unicode="w" horiz-adv-x="954" 
d="M233 0l-135 403q-6 18 -11 29t-13 17t-24 7l-39 3l11 62h263v-59l-47 -2q-20 -1 -24.5 -12.5t3.5 -38.5l94 -303h5l123 415h123l123 -413h6l91 295q8 26 3 39t-28 15l-35 5l7 59h220v-60l-40 -3q-18 -1 -29.5 -12.5t-23.5 -44.5l-130 -401h-123l-119 404h-4l-116 -404
h-131z" />
    <glyph glyph-name="x" unicode="x" horiz-adv-x="635" 
d="M16 0v60l34 2q14 1 23.5 4t18 10t20.5 18l140 158l-131 155q-20 23 -31.5 34.5t-36.5 15.5l-38 5l11 58h269v-57l-42 -4q-17 -1 -19.5 -11.5t13.5 -29.5l85 -99l79 96q14 16 16.5 27t-23.5 15l-41 6l12 57h230v-57l-40 -5q-13 -2 -22.5 -6t-18.5 -12.5t-24 -25.5
l-124 -147l136 -157q14 -16 25.5 -26.5t25 -16t29.5 -6.5l32 -1v-60h-295v60l45 2q21 1 23 11.5t-15 29.5l-85 98l-84 -98q-8 -10 -12.5 -18.5t-0.5 -14.5t20 -7l46 -3v-60h-250z" />
    <glyph glyph-name="y" unicode="y" horiz-adv-x="643" 
d="M136 -231q-54 0 -86.5 23t-32.5 63q0 30 21 50.5t51 20.5q26 0 42.5 -10t17.5 -28q1 -8 -0.5 -18.5t-6.5 -38.5q24 -1 42 9.5t36 38t40 75.5l25 51l-180 400q-13 30 -21 39.5t-25 10.5l-43 4l11 62h272v-59l-50 -2q-17 -1 -24.5 -11t5.5 -41l116 -274h5l115 268
q12 25 6.5 39t-29.5 17l-43 4l9 59h229v-60l-42 -3q-18 -2 -27 -12t-24 -44l-203 -448q-22 -48 -43 -83t-44.5 -57.5t-53 -33.5t-65.5 -11z" />
    <glyph glyph-name="z" unicode="z" horiz-adv-x="551" 
d="M50 0v51l309 404h-118q-39 0 -61.5 -7t-36 -32t-28.5 -78l-62 -5l13 186h435v-52l-307 -402h119q30 0 50 2.5t34.5 14.5t28 38.5t31.5 75.5h59l-15 -196h-451z" />
    <glyph glyph-name="braceleft" unicode="{" horiz-adv-x="413" 
d="M284 -228q-69 0 -107 33.5t-38 90.5q0 22 3 58l6.5 78t7 82t3.5 69q0 40 -13.5 58.5t-36 24.5t-50.5 6v68q28 1 50.5 5.5t36 23.5t13.5 60q0 28 -3 65t-7 75.5t-7.5 73t-3.5 58.5q0 56 37 88.5t102 32.5q22 0 44 -2.5t40 -7.5l-11 -57q-12 2 -25 3t-27 1
q-12 0 -22.5 -4.5t-17 -17.5t-6.5 -39q0 -18 3 -51.5t7 -72.5t7 -75.5t3 -60.5q0 -46 -17 -71.5t-40.5 -38t-44.5 -21.5q21 -8 44.5 -22t40.5 -39.5t17 -71.5q0 -22 -3 -61t-7 -81.5t-7 -78t-3 -53.5q0 -26 7 -40t19.5 -19t28.5 -5q12 0 26.5 1.5t24.5 2.5l11 -58
q-19 -4 -41 -7t-44 -3z" />
    <glyph glyph-name="bar" unicode="|" horiz-adv-x="486" 
d="M195 -110v912h96v-912h-96z" />
    <glyph glyph-name="braceright" unicode="}" horiz-adv-x="413" 
d="M129 -228q-22 0 -44 3t-41 7l11 58q12 -1 25.5 -2.5t25.5 -1.5q17 0 29 5t19 19.5t7 39.5q0 18 -3 53.5t-7 78t-7 81.5t-3 61q0 46 17 71.5t40.5 39.5t44.5 22q-20 9 -44 21.5t-40.5 38t-16.5 71.5q0 24 2.5 60.5t6.5 75.5t7 72.5t3 51.5q0 26 -6.5 39t-16.5 17.5
t-23 4.5q-14 0 -26.5 -1t-24.5 -3l-12 57q18 5 40.5 7.5t43.5 2.5q66 0 102.5 -32.5t36.5 -88.5q0 -24 -3.5 -58.5t-7.5 -73t-7 -75.5t-3 -65q0 -41 13.5 -60t36.5 -23.5t50 -5.5v-68q-28 0 -50.5 -6t-36 -24.5t-13.5 -58.5q0 -29 3.5 -69t7 -82l6.5 -78t3 -58
q0 -57 -38 -90.5t-107 -33.5z" />
    <glyph glyph-name="asciitilde" unicode="~" horiz-adv-x="614" 
d="M130 232l-56 20q15 38 30 62t32.5 36t44.5 12t60.5 -5.5t73.5 -16.5q41 -10 67.5 -15t48.5 -5q20 0 30 8.5t23 32.5l56 -20q-16 -40 -31.5 -64.5t-33.5 -35t-44 -10.5q-29 0 -63 6t-85 19q-35 9 -57.5 13t-42.5 4q-19 0 -28.5 -7t-24.5 -34z" />
    <glyph glyph-name="uni00A0" unicode="&#xa0;" horiz-adv-x="245" 
 />
    <glyph glyph-name="exclamdown" unicode="&#xa1;" horiz-adv-x="351" 
d="M206 310v-61q0 -46 4 -90t10 -83.5t12 -75t10.5 -65.5t4.5 -55q0 -23 -10.5 -39.5t-29 -26t-42.5 -9.5q-36 0 -56 20t-20 54q0 28 7 66.5t15.5 85.5t15.5 101.5t7 117.5v60h72zM173 533q36 0 59 -22t23 -56q0 -35 -22.5 -57t-59.5 -22q-38 0 -60.5 21.5t-22.5 56.5
q0 34 23 56.5t60 22.5z" />
    <glyph glyph-name="cent" unicode="&#xa2;" horiz-adv-x="594" 
d="M195 -33l146 688h57l-146 -688h-57zM314 35q-81 0 -138 32t-87.5 92t-30.5 143q0 86 32.5 149t92 98t140.5 35q59 0 105 -18.5t72 -50t26 -70.5q0 -21 -8.5 -37t-24.5 -25.5t-39 -9.5q-32 0 -49 14t-17 37q0 12 6 27t19 40q-17 11 -39 17t-51 6q-42 0 -75 -18.5
t-52.5 -59.5t-19.5 -107q0 -108 46 -155.5t119 -47.5q47 0 83.5 16.5t66.5 40.5l41 -47q-36 -44 -91.5 -72.5t-126.5 -28.5z" />
    <glyph glyph-name="sterling" unicode="&#xa3;" horiz-adv-x="633" 
d="M67 0l-9 54q50 19 79 40.5t41 51t12 71.5q0 24 -7.5 46.5t-19.5 45.5h-123l9 67h80q-12 28 -21.5 61.5t-9.5 72.5q0 62 29.5 108t84 71.5t130.5 25.5q63 0 108 -17t69.5 -48t24.5 -70q0 -32 -19.5 -52t-55.5 -20q-31 0 -48.5 14.5t-17.5 38.5q0 9 2.5 17.5t9 20
t17.5 28.5q-16 10 -40.5 16.5t-53.5 6.5q-59 0 -89.5 -30.5t-30.5 -88.5q0 -32 6.5 -58.5t17 -50.5t21.5 -46h204v-67h-176q6 -15 9 -30.5t3 -33.5q0 -46 -20.5 -85.5t-62.5 -70.5l3 -4h144q33 0 54 3.5t36 15t26.5 33.5t24.5 59h69l-27 -196h-483z" />
    <glyph glyph-name="currency" unicode="&#xa4;" horiz-adv-x="599" 
d="M492 100l-90 65q-23 -11 -50.5 -16.5t-54.5 -5.5q-29 0 -55.5 5.5t-49.5 15.5l-87 -64l-44 44l61 77q-15 20 -23 47t-8 57q0 31 8.5 57.5t23.5 48.5l-62 78l45 44l87 -64q25 13 54 19t57 6q25 0 52.5 -4.5t52.5 -17.5l86 63l44 -44l-62 -77q16 -21 23 -46t7 -54
q0 -35 -9.5 -62.5t-23.5 -48.5l63 -79zM297 209q35 0 57.5 14.5t33 41.5t10.5 65q0 60 -25.5 88t-71.5 28t-73.5 -29t-27.5 -89q0 -57 25.5 -88t71.5 -31z" />
    <glyph glyph-name="yen" unicode="&#xa5;" horiz-adv-x="797" 
d="M236 0v60l66 4q17 1 25 10t8 41v89h-212l6 62h200v25l-30 45h-173l6 62h126l-124 186q-13 20 -25.5 33.5t-39.5 16.5l-40 6v60h314v-60l-59 -3q-22 -1 -28 -14t10 -36l151 -225h5l143 220q12 18 12 33.5t-31 18.5l-50 6v60h272v-60l-53 -3q-19 0 -32 -14.5t-30 -41.5
l-120 -183h137v-64h-179l-31 -47v-21h210v-62h-215v-93q0 -25 7 -35t28 -12l65 -4v-60h-319z" />
    <glyph glyph-name="brokenbar" unicode="&#xa6;" horiz-adv-x="486" 
d="M195 -110v403h95l1 -403h-96zM195 427v376h95l1 -376h-96z" />
    <glyph glyph-name="section" unicode="&#xa7;" horiz-adv-x="675" 
d="M308 -160q-51 0 -88.5 12t-58 35.5t-20.5 54.5q0 22 9.5 39.5t26.5 28t41 10.5q25 0 41 -12t16 -32q0 -9 -3.5 -19.5t-9 -20.5t-11.5 -21q7 -4 16.5 -6t21.5 -3.5t26 -1.5q31 0 53 8.5t34 25.5t12 41q0 25 -16 48.5t-51 50t-95 59.5q-51 28 -86.5 55t-57 53t-31 52.5
t-9.5 54.5q0 45 27.5 83.5t79.5 64.5q-5 15 -7.5 31t-2.5 29q0 47 24.5 82t68.5 55.5t99 20.5q48 0 84 -12.5t56.5 -35t20.5 -54.5q0 -21 -8.5 -38.5t-24.5 -27.5t-38 -10q-27 0 -44.5 11.5t-17.5 31.5q0 8 2.5 16t7.5 18.5t14 25.5q-7 4 -16 6t-19.5 3.5t-19.5 1.5
q-40 0 -64.5 -17t-24.5 -52q0 -28 15 -52.5t51.5 -51t98.5 -61.5q47 -25 81.5 -51t56.5 -52t32.5 -53t10.5 -55q0 -43 -29 -84t-81 -68q6 -14 9 -29t3 -29q0 -46 -26 -82t-72.5 -56.5t-106.5 -20.5zM468 113q20 12 32 30.5t12 39.5q0 23 -13.5 44.5t-41.5 44t-70 45.5
q-47 27 -80 48.5t-56.5 41t-42.5 38.5q-20 -13 -31 -29.5t-11 -37.5q0 -18 8.5 -36t26 -36t43.5 -36t61 -38q57 -32 96.5 -60.5t66.5 -58.5z" />
    <glyph glyph-name="dieresis" unicode="&#xa8;" horiz-adv-x="500" 
d="M357 618q-31 0 -51 18.5t-20 48.5t20 49t51 19q32 0 51.5 -18.5t19.5 -48.5t-20 -49t-51 -19zM142 618q-30 0 -50 18.5t-20 48.5t20 49t50 19q34 0 53 -18.5t19 -48.5t-20 -49t-52 -19z" />
    <glyph glyph-name="copyright" unicode="&#xa9;" horiz-adv-x="882" 
d="M440 -20q-123 0 -205 43t-123 119t-41 174q0 82 29.5 146.5t81.5 109t118.5 67.5t141.5 23q82 0 150 -23.5t117 -67t75.5 -105t26.5 -138.5q0 -80 -26 -144.5t-74.5 -109.5t-117 -69.5t-153.5 -24.5zM443 37q71 0 126.5 20.5t93 58.5t56.5 90.5t19 114.5q0 92 -37.5 155
t-104 95.5t-154.5 32.5q-86 0 -154 -34t-106.5 -98.5t-38.5 -156.5q0 -63 19.5 -114t58 -87.5t94 -56.5t128.5 -20zM445 104q-69 0 -115 28t-69 76.5t-23 106.5q0 69 27 117t73.5 73t103.5 25q31 0 57.5 -10.5t38.5 -20.5l5 32h39l25 -141l-46 -8q-18 52 -46 73t-67 21
q-32 0 -57.5 -18t-39.5 -52.5t-14 -86.5q0 -34 8.5 -62.5t24.5 -49.5t38.5 -32.5t50.5 -11.5q43 0 69.5 15t53.5 41l33 -35q-20 -22 -43.5 -40.5t-54 -29t-72.5 -10.5z" />
    <glyph glyph-name="ordfeminine" unicode="&#xaa;" horiz-adv-x="440" 
d="M150 362q-30 0 -55.5 10t-41 32t-15.5 57q0 49 32 74.5t88 33.5q24 5 50.5 7t52.5 3v34q0 26 -8 42t-24.5 23.5t-41.5 7.5q-22 0 -36 -3.5t-25 -11.5q7 -12 10 -19t3 -12q0 -14 -11.5 -25.5t-36.5 -11.5q-26 0 -36.5 13.5t-10.5 31.5q0 26 20.5 47t56.5 34t81 13
t79.5 -12t54 -40.5t19.5 -79.5v-151q0 -15 7.5 -24t24.5 -9q7 0 15 1.5t18 4.5l11 -40q-16 -14 -37 -22t-48 -8q-33 0 -51.5 14.5t-22.5 40.5q-21 -26 -50.5 -40.5t-71.5 -14.5zM190 428q15 0 31.5 7.5t28 22t11.5 38.5v31q-35 0 -63.5 -5t-45 -17t-16.5 -36q0 -23 16 -32
t38 -9z" />
    <glyph glyph-name="guillemotleft" unicode="&#xab;" horiz-adv-x="566" 
d="M476 50l-182 160q-13 12 -21.5 25t-8.5 29q0 18 8 30t24 26l179 161l48 -35l-131 -178l134 -181zM266 50l-182 160q-13 12 -21.5 25t-8.5 29q0 18 8 30t24 26l179 161l48 -35l-131 -178l134 -181z" />
    <glyph glyph-name="logicalnot" unicode="&#xac;" horiz-adv-x="620" 
d="M435 145v147h-341v86h432v-233h-91z" />
    <glyph glyph-name="uni00AD" unicode="&#xad;" horiz-adv-x="373" 
d="M52 244v92h269v-92h-269z" />
    <glyph glyph-name="registered" unicode="&#xae;" horiz-adv-x="540" 
d="M269 383q-66 0 -111 24t-67.5 66t-22.5 98q0 62 27.5 106t73.5 67t102 23q91 0 146 -50.5t55 -138.5q0 -60 -26.5 -103.5t-72 -67.5t-104.5 -24zM357 457q15 0 25 3t15 8l-7 16q-2 -1 -5.5 -1.5t-7.5 -0.5q-8 0 -13.5 4.5t-7.5 13.5l-8 26q-4 18 -16 31t-38 17v2
q15 2 30 8.5t26 18.5t11 32q0 33 -30 46.5t-72 13.5h-98v-21l19 -1q9 -1 11.5 -4.5t2.5 -11.5v-157q0 -7 -2.5 -12t-11.5 -6l-18 -1v-20h108v20l-18 1q-9 1 -11.5 5.5t-2.5 12.5v65h16q13 0 24 -7.5t18 -28.5l10 -34q5 -19 17.5 -28.5t33.5 -9.5zM238 589v82h18
q20 0 39 -6.5t19 -32.5q0 -20 -13 -31.5t-43 -11.5h-20z" />
    <glyph glyph-name="macron" unicode="&#xaf;" horiz-adv-x="500" 
d="M99 633v89h302v-89h-302z" />
    <glyph glyph-name="degree" unicode="&#xb0;" horiz-adv-x="375" 
d="M187 546q-71 0 -103.5 34.5t-32.5 84.5q0 49 34.5 84.5t104.5 35.5q66 0 100 -32.5t34 -84.5q0 -50 -35.5 -86t-101.5 -36zM189 602q32 0 50.5 18t18.5 46q0 30 -19 47t-52 17q-32 0 -50 -17.5t-18 -46.5q0 -28 17.5 -46t52.5 -18z" />
    <glyph glyph-name="plusminus" unicode="&#xb1;" horiz-adv-x="620" 
d="M261 151v153h-166v86h166v142h91v-142h173v-86h-173v-153h-91zM94 1v86h432v-86h-432z" />
    <glyph glyph-name="uni00B2" unicode="&#xb2;" horiz-adv-x="427" 
d="M46 374l-7 55q73 65 119.5 108t72 72t35 51.5t9.5 46.5q0 33 -22.5 53t-68.5 20q-26 0 -41.5 -5t-28.5 -12q10 -15 15 -24.5t5 -16.5q0 -14 -12.5 -27t-36.5 -13q-28 0 -42 15.5t-14 38.5q0 30 22.5 53.5t60.5 36.5t84 13q55 0 95 -14t62 -42.5t22 -70.5q0 -25 -9 -50
t-34 -54t-70 -67.5t-116 -91.5h96q32 0 47.5 6t24.5 22t22 46h52l-13 -149h-329z" />
    <glyph glyph-name="uni00B3" unicode="&#xb3;" horiz-adv-x="428" 
d="M205 362q-56 0 -92 13.5t-56.5 33t-31.5 35.5l44 43q13 -12 29 -25t38 -21.5t52 -8.5q32 0 52.5 9t31 25t10.5 37q0 27 -13.5 43.5t-42 24t-72.5 5.5l5 56q59 5 86 28.5t27 58.5q0 28 -21 45t-60 17q-25 0 -40.5 -5t-28.5 -14q9 -13 14 -22t5 -16q0 -15 -12 -26.5
t-36 -11.5q-27 0 -41 14t-14 36q0 28 21 51.5t58.5 37.5t86.5 14q48 0 85 -13.5t58.5 -39.5t21.5 -62q0 -40 -29.5 -70t-73.5 -40v-3q52 -6 85.5 -33t33.5 -80q0 -41 -25 -72t-65.5 -47.5t-89.5 -16.5z" />
    <glyph glyph-name="acute" unicode="&#xb4;" horiz-adv-x="500" 
d="M211 590l-32 33l109 139q12 16 22.5 23t22.5 7q17 0 28.5 -8.5t17 -21.5t5.5 -26q0 -16 -9 -29.5t-27 -25.5z" />
    <glyph glyph-name="uni00B5" unicode="&#xb5;" horiz-adv-x="676" 
d="M105 -224l-15 8q-3 37 -5 78.5t-3.5 87.5t-1.5 96v32v53.5v73v90.5v106v119l112 8l14 -8q-3 -57 -5.5 -114.5t-4 -111.5t-2.5 -104t-1 -92q14 -15 40.5 -23t57.5 -8q62 0 98.5 39t36.5 103v33.5t-0.5 44t-1 53t-0.5 58.5v61t-1 62l109 7l14 -8q-3 -33 -5 -72.5t-4 -81
t-3 -82t-2 -76.5t-1 -64q0 -26 5.5 -42.5t18 -24t31.5 -7.5q12 0 24 2t27 7l13 -51q-21 -19 -52.5 -30t-60.5 -11q-26 0 -46.5 12.5t-33.5 36.5t-18 56h-3q-18 -51 -57 -78t-91 -27q-30 0 -53.5 8.5t-39.5 24.5h-2q1 -38 4 -77.5t7.5 -79.5t10.5 -80z" />
    <glyph glyph-name="paragraph" unicode="&#xb6;" horiz-adv-x="648" 
d="M284 -144v60l87 5q20 2 27.5 12.5t7.5 36.5v730h192v-61l-51 -4q-20 -1 -27.5 -13t-7.5 -37v-729h-228zM317 238q-74 0 -128 26.5t-83 77.5t-29 125q0 75 27 126.5t81.5 79t135.5 27.5h16v-462h-20z" />
    <glyph glyph-name="periodcentered" unicode="&#xb7;" horiz-adv-x="347" 
d="M173 230q-37 0 -60.5 22t-23.5 58q0 35 23.5 57.5t60.5 22.5q38 0 61 -22t23 -58q0 -35 -23 -57.5t-61 -22.5z" />
    <glyph glyph-name="cedilla" unicode="&#xb8;" horiz-adv-x="500" 
d="M247 -234q-42 0 -71.5 13t-42.5 24l25 48q15 -9 35.5 -16t37.5 -7q21 0 37 9.5t16 30.5q0 19 -13.5 27.5t-41.5 8.5q-10 0 -17 -1t-14 -3l-10 27l35 86h59l-26 -64q35 3 59.5 -6.5t38 -28.5t13.5 -48q0 -30 -13.5 -52.5t-40.5 -35t-66 -12.5z" />
    <glyph glyph-name="uni00B9" unicode="&#xb9;" horiz-adv-x="338" 
d="M48 374v49l62 6q15 2 20 10t5 22v260q0 20 -4.5 30t-27.5 11l-60 2l5 47l176 25l10 -9v-368q0 -15 4.5 -21.5t20.5 -8.5l60 -6v-49h-271z" />
    <glyph glyph-name="ordmasculine" unicode="&#xba;" horiz-adv-x="452" 
d="M222 362q-62 0 -103.5 23t-62.5 64.5t-21 94.5q0 72 27.5 115.5t73 63t98.5 19.5t94 -19.5t64.5 -59.5t23.5 -102q0 -65 -24 -109.5t-68 -67t-102 -22.5zM232 420q31 0 50.5 14.5t29 42.5t9.5 68q0 46 -11.5 77t-33.5 47.5t-54 16.5q-28 0 -49 -12.5t-32.5 -38.5
t-11.5 -68q0 -46 11 -79t34 -50.5t58 -17.5z" />
    <glyph glyph-name="guillemotright" unicode="&#xbb;" horiz-adv-x="567" 
d="M91 51l-48 35l131 179l-134 180l50 37l183 -161q13 -11 21 -24t8 -29q0 -17 -8 -29.5t-24 -27.5zM301 51l-48 35l131 179l-134 180l50 37l183 -161q13 -11 21 -24t8 -29q0 -17 -8 -29.5t-24 -27.5z" />
    <glyph glyph-name="onequarter" unicode="&#xbc;" horiz-adv-x="972" 
d="M48 259v49l62 6q15 2 20 10t5 22v260q0 20 -4.5 30t-27.5 11l-60 2l5 47l176 25l10 -9v-368q0 -15 4.5 -21.5t20.5 -8.5l60 -6v-49h-271zM231 -14l417 728h100l-416 -728h-101zM778 0v89h-225l-9 53l225 314l96 10l9 -7v-310h76v-60h-76v-89h-96zM626 149h152v198v11z
" />
    <glyph glyph-name="onehalf" unicode="&#xbd;" horiz-adv-x="1041" 
d="M48 259v49l62 6q15 2 20 10t5 22v260q0 20 -4.5 30t-27.5 11l-60 2l5 47l176 25l10 -9v-368q0 -15 4.5 -21.5t20.5 -8.5l60 -6v-49h-271zM230 -14l417 728h100l-416 -728h-101zM660 13l-7 55q73 65 119.5 108t72 72t35 51.5t9.5 46.5q0 33 -22.5 53t-68.5 20
q-26 0 -41.5 -5t-28.5 -12q10 -15 15 -24.5t5 -16.5q0 -14 -12.5 -27t-36.5 -13q-28 0 -42 15.5t-14 38.5q0 30 22.5 53.5t60.5 36.5t84 13q55 0 95 -14t62 -42.5t22 -70.5q0 -25 -9 -50t-34 -54t-70 -67.5t-116 -91.5h96q32 0 47.5 6t24.5 22t22 46h52l-13 -149h-329z" />
    <glyph glyph-name="threequarters" unicode="&#xbe;" horiz-adv-x="1010" 
d="M270 -14l417 728h100l-416 -728h-101zM817 0v89h-225l-9 53l225 314l96 10l9 -7v-310h76v-60h-76v-89h-96zM665 149h152v198v11zM205 238q-56 0 -92 13.5t-56.5 33t-31.5 35.5l44 43q13 -12 29 -25t38 -21.5t52 -8.5q32 0 52.5 9t31 25t10.5 37q0 27 -13.5 43.5t-42 24
t-72.5 5.5l5 56q59 5 86 28.5t27 58.5q0 28 -21 45t-60 17q-25 0 -40.5 -5t-28.5 -14q9 -13 14 -22t5 -16q0 -15 -12 -26.5t-36 -11.5q-27 0 -41 14t-14 36q0 28 21 51.5t58.5 37.5t86.5 14q48 0 85 -13.5t58.5 -39.5t21.5 -62q0 -40 -29.5 -70t-73.5 -40v-3q52 -6 85.5 -33
t33.5 -80q0 -41 -25 -72t-65.5 -47.5t-89.5 -16.5z" />
    <glyph glyph-name="questiondown" unicode="&#xbf;" horiz-adv-x="593" 
d="M364 310v-111q0 -20 -5.5 -37t-22 -37.5t-48.5 -48.5q-45 -39 -63 -64.5t-18 -52.5q0 -39 31.5 -63t83.5 -24q35 0 58 8t40 26q-10 14 -19 30t-9 29q0 19 19 35.5t47 16.5q36 0 51.5 -18.5t15.5 -48.5q0 -39 -29.5 -72.5t-80.5 -53t-113 -19.5q-64 0 -112.5 20
t-75.5 56.5t-27 86.5q0 37 15.5 67.5t40.5 57t55 51.5q32 30 50.5 49.5t26.5 31t10.5 19.5t2.5 16v50h76zM329 533q36 0 59 -21.5t23 -56.5t-23 -57t-59 -22q-37 0 -59.5 21.5t-22.5 56.5t22.5 57t59.5 22z" />
    <glyph glyph-name="Agrave" unicode="&#xc0;" 
d="M15 0v61l54 5q17 2 27 11t22 41l228 582h130l225 -584q8 -24 17.5 -36t30.5 -14l46 -5v-61h-306v61l59 4q17 1 24.5 11t-3.5 39l-40 106h-286l-39 -104q-8 -20 -5 -36t30 -18l57 -3v-60h-271zM268 292h237l-113 310h-7zM478 750l-157 68q-22 9 -33.5 23.5t-11.5 35.5
q0 20 13 38.5t35 18.5q10 0 20 -5t24 -17l137 -123z" />
    <glyph glyph-name="Aacute" unicode="&#xc1;" 
d="M15 0v61l54 5q17 2 27 11t22 41l228 582h130l225 -584q8 -24 17.5 -36t30.5 -14l46 -5v-61h-306v61l59 4q17 1 24.5 11t-3.5 39l-40 106h-286l-39 -104q-8 -20 -5 -36t30 -18l57 -3v-60h-271zM268 292h237l-113 310h-7zM347 750l-27 39l137 123q14 12 24 17t19 5
q22 0 35.5 -18.5t13.5 -38.5q0 -21 -11.5 -35.5t-34.5 -23.5z" />
    <glyph glyph-name="Acircumflex" unicode="&#xc2;" 
d="M15 0v61l54 5q17 2 27 11t22 41l228 582h130l225 -584q8 -24 17.5 -36t30.5 -14l46 -5v-61h-306v61l59 4q17 1 24.5 11t-3.5 39l-40 106h-286l-39 -104q-8 -20 -5 -36t30 -18l57 -3v-60h-271zM268 292h237l-113 310h-7zM268 744l-29 38l125 130q12 13 23 19.5t26 6.5
q13 0 24 -7t27 -24l119 -124l-30 -39l-141 83z" />
    <glyph glyph-name="Atilde" unicode="&#xc3;" 
d="M15 0v61l54 5q17 2 27 11t22 41l228 582h130l225 -584q8 -24 17.5 -36t30.5 -14l46 -5v-61h-306v61l59 4q17 1 24.5 11t-3.5 39l-40 106h-286l-39 -104q-8 -20 -5 -36t30 -18l57 -3v-60h-271zM268 292h237l-113 310h-7zM490 776q-21 0 -41.5 5.5t-46.5 17.5
q-22 10 -37 15.5t-24 7.5t-17 2q-12 0 -21.5 -7.5t-23.5 -30.5l-44 26q18 39 34 60t33 28.5t38 7.5t41 -5.5t50 -18.5q29 -13 46 -18t26 -5q11 0 19.5 8t21.5 30l44 -25q-18 -39 -33.5 -60t-31 -29.5t-33.5 -8.5z" />
    <glyph glyph-name="Adieresis" unicode="&#xc4;" 
d="M15 0v61l54 5q17 2 27 11t22 41l228 582h130l225 -584q8 -24 17.5 -36t30.5 -14l46 -5v-61h-306v61l59 4q17 1 24.5 11t-3.5 39l-40 106h-286l-39 -104q-8 -20 -5 -36t30 -18l57 -3v-60h-271zM268 292h237l-113 310h-7zM516 771q-31 0 -51 19t-20 50q0 30 20 49.5
t51 19.5q34 0 53 -19t19 -49q0 -31 -20 -50.5t-52 -19.5zM303 771q-31 0 -51 19t-20 50q0 30 20 49.5t51 19.5q33 0 53 -19t20 -49q0 -31 -20.5 -50.5t-52.5 -19.5z" />
    <glyph glyph-name="Aring" unicode="&#xc5;" 
d="M15 0v61l54 5q17 2 27 11t22 41l228 582h130l225 -584q8 -24 17.5 -36t30.5 -14l46 -5v-61h-306v61l59 4q17 1 24.5 11t-3.5 39l-40 106h-286l-39 -104q-8 -20 -5 -36t30 -18l57 -3v-60h-271zM268 292h237l-113 310h-7zM410 744q-68 0 -102 30t-34 83q0 33 16.5 59
t47.5 41t76 15q65 0 99 -29.5t34 -82.5q0 -35 -16.5 -61.5t-47 -40.5t-73.5 -14zM412 800q31 0 43 14.5t12 44.5q0 20 -6 33t-18 19.5t-33 6.5q-31 0 -44 -15.5t-13 -43.5q0 -19 6 -32.5t18.5 -20t34.5 -6.5z" />
    <glyph glyph-name="AE" unicode="&#xc6;" horiz-adv-x="1049" 
d="M15 0v61l44 5q8 1 15.5 4t15.5 13.5t19 33.5l259 519l-82 5v59h650l37 -174l-66 -17q-16 42 -30 66t-31.5 36.5t-41.5 16t-61 3.5h-109v-255h86q24 0 39 2.5t23 10.5t14.5 24.5t12.5 42.5l55 6v-231l-55 -9q-6 39 -15 57.5t-26 23.5t-50 5h-84v-239h137q36 0 61 5.5
t42 19t29 39t23 65.5h67l-23 -198h-552v60l63 4q19 1 26.5 11t7.5 40v193h-224l-91 -189q-7 -14 -9 -24t0.5 -16.5t10.5 -10.5t21 -5l51 -3l-1 -60h-258zM324 376h191v255h-69z" />
    <glyph glyph-name="Ccedilla" unicode="&#xc7;" horiz-adv-x="758" 
d="M405 -234q-43 0 -72.5 13t-41.5 24l25 48q15 -9 35.5 -16t37.5 -7q20 0 36 9.5t16 30.5q0 19 -13 27.5t-41 8.5q-10 0 -17 -1t-15 -3l-9 27l24 61q-96 9 -165 56t-106.5 125t-37.5 181q0 83 25 150.5t71.5 115t110 73t140.5 25.5q58 0 101 -16.5t75 -43.5l13 60h54
l40 -236l-64 -13q-21 60 -50.5 97.5t-69.5 55.5t-93 18q-72 0 -121 -31t-74.5 -91t-25.5 -146q0 -72 18 -127t50.5 -92t77 -55.5t96.5 -18.5q50 0 88.5 12t70.5 35.5t61 57.5l50 -46q-19 -29 -43.5 -53t-54.5 -42.5t-65 -31t-73 -18.5l-20 -2t-20 -1l-15 -37q34 3 59 -6.5
t38.5 -28.5t13.5 -48q0 -30 -13.5 -52.5t-40.5 -35t-66 -12.5z" />
    <glyph glyph-name="Egrave" unicode="&#xc8;" horiz-adv-x="698" 
d="M66 0v60l63 4q18 1 26 11t8 40v474q0 25 -7 35.5t-29 11.5l-61 4v60h518l37 -174l-66 -17q-15 41 -29 65.5t-31.5 37t-42 16t-60.5 3.5h-110v-242h86q33 0 49 5t24 22t17 54l55 6v-232l-56 -9q-6 39 -15 57.5t-25.5 23.5t-50.5 5h-84v-252h137q37 0 62.5 5.5t42 19.5
t28.5 39.5t22 64.5h68l-24 -198h-552zM418 750l-157 68q-22 9 -33.5 23.5t-11.5 35.5q0 20 13 38.5t35 18.5q10 0 20 -5t24 -17l137 -123z" />
    <glyph glyph-name="Eacute" unicode="&#xc9;" horiz-adv-x="698" 
d="M66 0v60l63 4q18 1 26 11t8 40v474q0 25 -7 35.5t-29 11.5l-61 4v60h518l37 -174l-66 -17q-15 41 -29 65.5t-31.5 37t-42 16t-60.5 3.5h-110v-242h86q33 0 49 5t24 22t17 54l55 6v-232l-56 -9q-6 39 -15 57.5t-25.5 23.5t-50.5 5h-84v-252h137q37 0 62.5 5.5t42 19.5
t28.5 39.5t22 64.5h68l-24 -198h-552zM287 750l-27 39l137 123q14 12 24 17t19 5q22 0 35.5 -18.5t13.5 -38.5q0 -21 -11.5 -35.5t-34.5 -23.5z" />
    <glyph glyph-name="Ecircumflex" unicode="&#xca;" horiz-adv-x="698" 
d="M66 0v60l63 4q18 1 26 11t8 40v474q0 25 -7 35.5t-29 11.5l-61 4v60h518l37 -174l-66 -17q-15 41 -29 65.5t-31.5 37t-42 16t-60.5 3.5h-110v-242h86q33 0 49 5t24 22t17 54l55 6v-232l-56 -9q-6 39 -15 57.5t-25.5 23.5t-50.5 5h-84v-252h137q37 0 62.5 5.5t42 19.5
t28.5 39.5t22 64.5h68l-24 -198h-552zM208 744l-29 38l125 130q12 13 23 19.5t26 6.5q13 0 24 -7t27 -24l119 -124l-30 -39l-141 83z" />
    <glyph glyph-name="Edieresis" unicode="&#xcb;" horiz-adv-x="698" 
d="M66 0v60l63 4q18 1 26 11t8 40v474q0 25 -7 35.5t-29 11.5l-61 4v60h518l37 -174l-66 -17q-15 41 -29 65.5t-31.5 37t-42 16t-60.5 3.5h-110v-242h86q33 0 49 5t24 22t17 54l55 6v-232l-56 -9q-6 39 -15 57.5t-25.5 23.5t-50.5 5h-84v-252h137q37 0 62.5 5.5t42 19.5
t28.5 39.5t22 64.5h68l-24 -198h-552zM456 771q-31 0 -51 19t-20 50q0 30 20 49.5t51 19.5q34 0 53 -19t19 -49q0 -31 -20 -50.5t-52 -19.5zM243 771q-31 0 -51 19t-20 50q0 30 20 49.5t51 19.5q33 0 53 -19t20 -49q0 -31 -20.5 -50.5t-52.5 -19.5z" />
    <glyph glyph-name="Igrave" unicode="&#xcc;" horiz-adv-x="445" 
d="M66 0v60l64 4q17 1 25 11t8 40v474q0 22 -6 34t-31 13l-60 4v60h313v-60l-64 -4q-19 -1 -26 -12t-7 -39v-474q0 -23 6.5 -34t28.5 -13l62 -4v-60h-313zM290 750l-157 68q-22 9 -33.5 23.5t-11.5 35.5q0 20 13 38.5t35 18.5q10 0 20 -5t24 -17l137 -123z" />
    <glyph glyph-name="Iacute" unicode="&#xcd;" horiz-adv-x="445" 
d="M66 0v60l64 4q17 1 25 11t8 40v474q0 22 -6 34t-31 13l-60 4v60h313v-60l-64 -4q-19 -1 -26 -12t-7 -39v-474q0 -23 6.5 -34t28.5 -13l62 -4v-60h-313zM159 750l-27 39l137 123q14 12 24 17t19 5q22 0 35.5 -18.5t13.5 -38.5q0 -21 -11.5 -35.5t-34.5 -23.5z" />
    <glyph glyph-name="Icircumflex" unicode="&#xce;" horiz-adv-x="445" 
d="M66 0v60l64 4q17 1 25 11t8 40v474q0 22 -6 34t-31 13l-60 4v60h313v-60l-64 -4q-19 -1 -26 -12t-7 -39v-474q0 -23 6.5 -34t28.5 -13l62 -4v-60h-313zM80 744l-29 38l125 130q12 13 23 19.5t26 6.5q13 0 24 -7t27 -24l119 -124l-30 -39l-141 83z" />
    <glyph glyph-name="Idieresis" unicode="&#xcf;" horiz-adv-x="445" 
d="M66 0v60l64 4q17 1 25 11t8 40v474q0 22 -6 34t-31 13l-60 4v60h313v-60l-64 -4q-19 -1 -26 -12t-7 -39v-474q0 -23 6.5 -34t28.5 -13l62 -4v-60h-313zM328 771q-31 0 -51 19t-20 50q0 30 20 49.5t51 19.5q34 0 53 -19t19 -49q0 -31 -20 -50.5t-52 -19.5zM115 771
q-31 0 -51 19t-20 50q0 30 20 49.5t51 19.5q33 0 53 -19t20 -49q0 -31 -20.5 -50.5t-52.5 -19.5z" />
    <glyph glyph-name="Eth" unicode="&#xd0;" horiz-adv-x="840" 
d="M389 700q72 0 133.5 -12.5t109 -38t80 -65t50 -92t17.5 -120.5q0 -89 -29 -158.5t-84 -117t-134 -72t-179 -24.5h-287v60l63 4q20 2 27 12.5t7 38.5v207h-115l8 76h107v191q0 25 -6.5 35.5t-29.5 11.5l-61 4v60h323zM360 71q76 0 130 17.5t89 53t51.5 91t16.5 131.5
q0 90 -29.5 148.5t-88.5 87.5t-147 29h-99v-231h174v-76h-174v-250q19 -1 38.5 -1h38.5z" />
    <glyph glyph-name="Ntilde" unicode="&#xd1;" horiz-adv-x="910" 
d="M66 0v60l64 4q19 1 26 12t7 39v474q0 25 -6.5 35.5t-28.5 11.5l-62 4v60h248l350 -538h4v427q0 25 -7 35.5t-29 11.5l-59 4v60h277v-60l-61 -4q-20 -1 -27 -12t-7 -39v-585h-122l-380 568h-5v-457q0 -20 5 -32.5t30 -14.5l62 -4v-60h-279zM527 776q-21 0 -41.5 5.5
t-46.5 17.5q-22 10 -37 15.5t-24 7.5t-17 2q-12 0 -21.5 -7.5t-23.5 -30.5l-44 26q18 39 34 60t33 28.5t38 7.5t41 -5.5t50 -18.5q29 -13 46 -18t26 -5q11 0 19.5 8t21.5 30l44 -25q-18 -39 -33.5 -60t-31 -29.5t-33.5 -8.5z" />
    <glyph glyph-name="Ograve" unicode="&#xd2;" horiz-adv-x="840" 
d="M415 -14q-109 0 -188.5 44.5t-122.5 123t-43 183.5q0 117 44.5 201t126.5 130t195 46q106 0 185.5 -42.5t123 -120t43.5 -183.5q0 -84 -25.5 -154t-73.5 -121t-115 -79t-150 -28zM428 67q53 0 94 17.5t69 52t42.5 87.5t14.5 125q0 69 -16.5 123t-46.5 90t-73.5 54
t-99.5 18q-52 0 -93 -17.5t-69 -52t-42.5 -87t-14.5 -121.5q0 -70 16 -124t47 -90.5t74.5 -55.5t97.5 -19zM488 750l-157 68q-22 9 -33.5 23.5t-11.5 35.5q0 20 13 38.5t35 18.5q10 0 20 -5t24 -17l137 -123z" />
    <glyph glyph-name="Oacute" unicode="&#xd3;" horiz-adv-x="840" 
d="M415 -14q-109 0 -188.5 44.5t-122.5 123t-43 183.5q0 117 44.5 201t126.5 130t195 46q106 0 185.5 -42.5t123 -120t43.5 -183.5q0 -84 -25.5 -154t-73.5 -121t-115 -79t-150 -28zM428 67q53 0 94 17.5t69 52t42.5 87.5t14.5 125q0 69 -16.5 123t-46.5 90t-73.5 54
t-99.5 18q-52 0 -93 -17.5t-69 -52t-42.5 -87t-14.5 -121.5q0 -70 16 -124t47 -90.5t74.5 -55.5t97.5 -19zM357 750l-27 39l137 123q14 12 24 17t19 5q22 0 35.5 -18.5t13.5 -38.5q0 -21 -11.5 -35.5t-34.5 -23.5z" />
    <glyph glyph-name="Ocircumflex" unicode="&#xd4;" horiz-adv-x="840" 
d="M415 -14q-109 0 -188.5 44.5t-122.5 123t-43 183.5q0 117 44.5 201t126.5 130t195 46q106 0 185.5 -42.5t123 -120t43.5 -183.5q0 -84 -25.5 -154t-73.5 -121t-115 -79t-150 -28zM428 67q53 0 94 17.5t69 52t42.5 87.5t14.5 125q0 69 -16.5 123t-46.5 90t-73.5 54
t-99.5 18q-52 0 -93 -17.5t-69 -52t-42.5 -87t-14.5 -121.5q0 -70 16 -124t47 -90.5t74.5 -55.5t97.5 -19zM278 744l-29 38l125 130q12 13 23 19.5t26 6.5q13 0 24 -7t27 -24l119 -124l-30 -39l-141 83z" />
    <glyph glyph-name="Otilde" unicode="&#xd5;" horiz-adv-x="840" 
d="M415 -14q-109 0 -188.5 44.5t-122.5 123t-43 183.5q0 117 44.5 201t126.5 130t195 46q106 0 185.5 -42.5t123 -120t43.5 -183.5q0 -84 -25.5 -154t-73.5 -121t-115 -79t-150 -28zM428 67q53 0 94 17.5t69 52t42.5 87.5t14.5 125q0 69 -16.5 123t-46.5 90t-73.5 54
t-99.5 18q-52 0 -93 -17.5t-69 -52t-42.5 -87t-14.5 -121.5q0 -70 16 -124t47 -90.5t74.5 -55.5t97.5 -19zM500 776q-21 0 -41.5 5.5t-46.5 17.5q-22 10 -37 15.5t-24 7.5t-17 2q-12 0 -21.5 -7.5t-23.5 -30.5l-44 26q18 39 34 60t33 28.5t38 7.5t41 -5.5t50 -18.5
q29 -13 46 -18t26 -5q11 0 19.5 8t21.5 30l44 -25q-18 -39 -33.5 -60t-31 -29.5t-33.5 -8.5z" />
    <glyph glyph-name="Odieresis" unicode="&#xd6;" horiz-adv-x="840" 
d="M415 -14q-109 0 -188.5 44.5t-122.5 123t-43 183.5q0 117 44.5 201t126.5 130t195 46q106 0 185.5 -42.5t123 -120t43.5 -183.5q0 -84 -25.5 -154t-73.5 -121t-115 -79t-150 -28zM428 67q53 0 94 17.5t69 52t42.5 87.5t14.5 125q0 69 -16.5 123t-46.5 90t-73.5 54
t-99.5 18q-52 0 -93 -17.5t-69 -52t-42.5 -87t-14.5 -121.5q0 -70 16 -124t47 -90.5t74.5 -55.5t97.5 -19zM526 771q-31 0 -51 19t-20 50q0 30 20 49.5t51 19.5q34 0 53 -19t19 -49q0 -31 -20 -50.5t-52 -19.5zM313 771q-31 0 -51 19t-20 50q0 30 20 49.5t51 19.5
q33 0 53 -19t20 -49q0 -31 -20.5 -50.5t-52.5 -19.5z" />
    <glyph glyph-name="multiply" unicode="&#xd7;" horiz-adv-x="620" 
d="M440 114l-131 132l-130 -130l-59 60l129 131l-129 127l61 59l128 -127l133 133l59 -61l-132 -133l132 -131z" />
    <glyph glyph-name="Oslash" unicode="&#xd8;" horiz-adv-x="843" 
d="M65 -14l88 103q-43 46 -66.5 109t-23.5 139q0 117 44.5 201t126 130t195.5 46q61 0 114 -14.5t95 -41.5l47 56h99l-89 -104q41 -45 63.5 -106t22.5 -136q0 -84 -25.5 -154t-74 -121t-115.5 -79t-150 -28q-60 0 -112 14.5t-93 40.5l-47 -55h-99zM429 67q54 0 95 17.5
t68.5 52t42 87.5t14.5 124q0 51 -9.5 93t-26.5 74l-334 -395q19 -17 42.5 -29t51 -18t56.5 -6zM235 182l334 397q-19 19 -43 30.5t-52 18t-60 6.5q-53 0 -93.5 -17.5t-68.5 -52t-42.5 -87t-14.5 -121.5q0 -52 10.5 -96t29.5 -78z" />
    <glyph glyph-name="Ugrave" unicode="&#xd9;" horiz-adv-x="884" 
d="M441 -14q-77 0 -132 18t-90.5 53t-53 87t-17.5 119v326q0 26 -7 36t-29 11l-56 4v60h306v-60l-58 -4q-17 -1 -25 -11.5t-8 -39.5v-317q0 -64 17.5 -108t58.5 -67t112 -23q68 0 111 22t64 67.5t21 113.5v316q0 26 -7 36t-29 11l-56 4v60h267v-60l-59 -4q-16 -1 -24 -11.5
t-8 -39.5v-300q0 -99 -33.5 -166t-99.5 -100t-165 -33zM523 750l-157 68q-22 9 -33.5 23.5t-11.5 35.5q0 20 13 38.5t35 18.5q10 0 20 -5t24 -17l137 -123z" />
    <glyph glyph-name="Uacute" unicode="&#xda;" horiz-adv-x="884" 
d="M441 -14q-77 0 -132 18t-90.5 53t-53 87t-17.5 119v326q0 26 -7 36t-29 11l-56 4v60h306v-60l-58 -4q-17 -1 -25 -11.5t-8 -39.5v-317q0 -64 17.5 -108t58.5 -67t112 -23q68 0 111 22t64 67.5t21 113.5v316q0 26 -7 36t-29 11l-56 4v60h267v-60l-59 -4q-16 -1 -24 -11.5
t-8 -39.5v-300q0 -99 -33.5 -166t-99.5 -100t-165 -33zM392 750l-27 39l137 123q14 12 24 17t19 5q22 0 35.5 -18.5t13.5 -38.5q0 -21 -11.5 -35.5t-34.5 -23.5z" />
    <glyph glyph-name="Ucircumflex" unicode="&#xdb;" horiz-adv-x="884" 
d="M441 -14q-77 0 -132 18t-90.5 53t-53 87t-17.5 119v326q0 26 -7 36t-29 11l-56 4v60h306v-60l-58 -4q-17 -1 -25 -11.5t-8 -39.5v-317q0 -64 17.5 -108t58.5 -67t112 -23q68 0 111 22t64 67.5t21 113.5v316q0 26 -7 36t-29 11l-56 4v60h267v-60l-59 -4q-16 -1 -24 -11.5
t-8 -39.5v-300q0 -99 -33.5 -166t-99.5 -100t-165 -33zM313 744l-29 38l125 130q12 13 23 19.5t26 6.5q13 0 24 -7t27 -24l119 -124l-30 -39l-141 83z" />
    <glyph glyph-name="Udieresis" unicode="&#xdc;" horiz-adv-x="884" 
d="M441 -14q-77 0 -132 18t-90.5 53t-53 87t-17.5 119v326q0 26 -7 36t-29 11l-56 4v60h306v-60l-58 -4q-17 -1 -25 -11.5t-8 -39.5v-317q0 -64 17.5 -108t58.5 -67t112 -23q68 0 111 22t64 67.5t21 113.5v316q0 26 -7 36t-29 11l-56 4v60h267v-60l-59 -4q-16 -1 -24 -11.5
t-8 -39.5v-300q0 -99 -33.5 -166t-99.5 -100t-165 -33zM561 771q-31 0 -51 19t-20 50q0 30 20 49.5t51 19.5q34 0 53 -19t19 -49q0 -31 -20 -50.5t-52 -19.5zM348 771q-31 0 -51 19t-20 50q0 30 20 49.5t51 19.5q33 0 53 -19t20 -49q0 -31 -20.5 -50.5t-52.5 -19.5z" />
    <glyph glyph-name="Yacute" unicode="&#xdd;" horiz-adv-x="770" 
d="M222 0v60l67 4q17 1 25 10t8 41v166l-201 303q-14 20 -26.5 33.5t-38.5 16.5l-41 6v60h315v-60l-59 -3q-22 -1 -28.5 -14t9.5 -36l151 -225h5l143 220q12 18 12 33.5t-31 18.5l-50 6v60h273v-60l-54 -3q-18 0 -31.5 -14.5t-30.5 -41.5l-198 -304v-166q0 -25 7 -35t28 -12
l66 -4v-60h-320zM336 750l-27 39l137 123q14 12 24 17t19 5q22 0 35.5 -18.5t13.5 -38.5q0 -21 -11.5 -35.5t-34.5 -23.5z" />
    <glyph glyph-name="Thorn" unicode="&#xde;" horiz-adv-x="672" 
d="M66 0v60l63 4q17 1 25.5 10.5t8.5 40.5v474q0 21 -5.5 33.5t-30.5 13.5l-61 4v60h342v-60l-87 -3q-21 -1 -30 -11.5t-9 -39.5v-38h68q55 0 101 -6t81 -19.5t59.5 -35.5t37 -53t12.5 -72q0 -40 -13 -72.5t-37.5 -58t-58 -42.5t-74.5 -25.5t-88 -8.5q-19 0 -36 0.5t-30.5 2
t-21.5 2.5v-47q0 -26 8.5 -37t30.5 -12l87 -4v-60h-342zM282 227q12 -2 28.5 -3t34.5 -1q42 0 73.5 8t51.5 25.5t30.5 43.5t10.5 60q0 49 -20 75.5t-58.5 37t-92.5 10.5h-58v-256z" />
    <glyph glyph-name="germandbls" unicode="&#xdf;" horiz-adv-x="786" 
d="M353 -14l-13 174l67 4q12 -31 28 -52t35.5 -33t41 -17.5t42.5 -5.5q29 0 49.5 9t32 26.5t11.5 44.5q0 28 -18.5 45.5t-46.5 30.5t-59.5 26t-59.5 31t-46.5 45t-18.5 69q0 33 13 57t31.5 44.5t37.5 41t31.5 45t12.5 59.5q0 37 -18 56.5t-45.5 27t-55.5 7.5q-29 0 -55 -7
t-46.5 -24t-32 -44.5t-11.5 -67.5v-578h-205v60l59 4q21 1 26.5 13.5t5.5 36.5v333h-85v58l85 10v27q0 55 18.5 99.5t52.5 76t84 48t114 16.5q57 0 107.5 -14t82 -44t31.5 -79q0 -29 -13 -52.5t-32.5 -44t-39 -39.5t-32.5 -40t-13 -46q0 -27 17.5 -46t45 -33t58.5 -28.5
t58.5 -34t45 -49t17.5 -74.5t-22 -84.5t-65 -63.5t-105 -24q-50 0 -84.5 13.5t-52.5 25.5l-12 -39h-54z" />
    <glyph glyph-name="agrave" unicode="&#xe0;" horiz-adv-x="609" 
d="M216 -14q-70 0 -112.5 38t-42.5 100q0 58 30 93.5t99 53t185 22.5v70q0 34 -9.5 58t-35 37.5t-70.5 13.5q-27 0 -52.5 -7t-38.5 -18q10 -15 16 -27t9 -20t3 -13q0 -23 -19 -37t-47 -14q-32 0 -49 16t-17 46q0 37 28.5 68t77.5 49.5t108 18.5q72 0 118.5 -20.5t69 -61.5
t22.5 -102v-237q0 -22 11.5 -33.5t35.5 -11.5q14 0 26.5 2.5t25.5 7.5l13 -51q-18 -16 -49 -28.5t-63 -12.5q-47 0 -71.5 22t-32.5 63q-19 -27 -44 -46t-56.5 -29t-68.5 -10zM262 65q31 0 56.5 13t41 35t15.5 48v67q-68 0 -111.5 -9t-64 -28.5t-20.5 -51.5q0 -35 22.5 -54.5
t60.5 -19.5zM319 592l-137 91q-18 11 -27 25t-9 30q0 13 5.5 26t17.5 21.5t28 8.5q12 0 22.5 -7t22.5 -23l109 -139z" />
    <glyph glyph-name="aacute" unicode="&#xe1;" horiz-adv-x="609" 
d="M216 -14q-70 0 -112.5 38t-42.5 100q0 58 30 93.5t99 53t185 22.5v70q0 34 -9.5 58t-35 37.5t-70.5 13.5q-27 0 -52.5 -7t-38.5 -18q10 -15 16 -27t9 -20t3 -13q0 -23 -19 -37t-47 -14q-32 0 -49 16t-17 46q0 37 28.5 68t77.5 49.5t108 18.5q72 0 118.5 -20.5t69 -61.5
t22.5 -102v-237q0 -22 11.5 -33.5t35.5 -11.5q14 0 26.5 2.5t25.5 7.5l13 -51q-18 -16 -49 -28.5t-63 -12.5q-47 0 -71.5 22t-32.5 63q-19 -27 -44 -46t-56.5 -29t-68.5 -10zM262 65q31 0 56.5 13t41 35t15.5 48v67q-68 0 -111.5 -9t-64 -28.5t-20.5 -51.5q0 -35 22.5 -54.5
t60.5 -19.5zM240 592l-32 33l109 139q12 16 22.5 23t22.5 7q17 0 28.5 -8.5t17 -21.5t5.5 -26q0 -16 -9 -29.5t-27 -25.5z" />
    <glyph glyph-name="acircumflex" unicode="&#xe2;" horiz-adv-x="609" 
d="M216 -14q-70 0 -112.5 38t-42.5 100q0 58 30 93.5t99 53t185 22.5v70q0 34 -9.5 58t-35 37.5t-70.5 13.5q-27 0 -52.5 -7t-38.5 -18q10 -15 16 -27t9 -20t3 -13q0 -23 -19 -37t-47 -14q-32 0 -49 16t-17 46q0 37 28.5 68t77.5 49.5t108 18.5q72 0 118.5 -20.5t69 -61.5
t22.5 -102v-237q0 -22 11.5 -33.5t35.5 -11.5q14 0 26.5 2.5t25.5 7.5l13 -51q-18 -16 -49 -28.5t-63 -12.5q-47 0 -71.5 22t-32.5 63q-19 -27 -44 -46t-56.5 -29t-68.5 -10zM262 65q31 0 56.5 13t41 35t15.5 48v67q-68 0 -111.5 -9t-64 -28.5t-20.5 -51.5q0 -35 22.5 -54.5
t60.5 -19.5zM146 592l-36 34l116 146q12 14 25 21t30 7q12 0 20.5 -3t17 -10.5t19.5 -21.5l111 -138l-36 -35l-132 99z" />
    <glyph glyph-name="atilde" unicode="&#xe3;" horiz-adv-x="609" 
d="M216 -14q-70 0 -112.5 38t-42.5 100q0 58 30 93.5t99 53t185 22.5v70q0 34 -9.5 58t-35 37.5t-70.5 13.5q-27 0 -52.5 -7t-38.5 -18q10 -15 16 -27t9 -20t3 -13q0 -23 -19 -37t-47 -14q-32 0 -49 16t-17 46q0 37 28.5 68t77.5 49.5t108 18.5q72 0 118.5 -20.5t69 -61.5
t22.5 -102v-237q0 -22 11.5 -33.5t35.5 -11.5q14 0 26.5 2.5t25.5 7.5l13 -51q-18 -16 -49 -28.5t-63 -12.5q-47 0 -71.5 22t-32.5 63q-19 -27 -44 -46t-56.5 -29t-68.5 -10zM262 65q31 0 56.5 13t41 35t15.5 48v67q-68 0 -111.5 -9t-64 -28.5t-20.5 -51.5q0 -35 22.5 -54.5
t60.5 -19.5zM356 615q-20 0 -40.5 6t-47.5 18q-21 10 -36 15.5t-24.5 7.5t-16.5 2q-12 0 -21.5 -8t-24.5 -31l-44 27q19 39 34.5 59.5t32.5 28.5t38 8q22 0 42 -5.5t49 -18.5t46.5 -18.5t26.5 -5.5q11 0 19.5 8.5t21.5 30.5l44 -26q-18 -38 -33.5 -59.5t-31 -30t-34.5 -8.5z
" />
    <glyph glyph-name="adieresis" unicode="&#xe4;" horiz-adv-x="609" 
d="M216 -14q-70 0 -112.5 38t-42.5 100q0 58 30 93.5t99 53t185 22.5v70q0 34 -9.5 58t-35 37.5t-70.5 13.5q-27 0 -52.5 -7t-38.5 -18q10 -15 16 -27t9 -20t3 -13q0 -23 -19 -37t-47 -14q-32 0 -49 16t-17 46q0 37 28.5 68t77.5 49.5t108 18.5q72 0 118.5 -20.5t69 -61.5
t22.5 -102v-237q0 -22 11.5 -33.5t35.5 -11.5q14 0 26.5 2.5t25.5 7.5l13 -51q-18 -16 -49 -28.5t-63 -12.5q-47 0 -71.5 22t-32.5 63q-19 -27 -44 -46t-56.5 -29t-68.5 -10zM262 65q31 0 56.5 13t41 35t15.5 48v67q-68 0 -111.5 -9t-64 -28.5t-20.5 -51.5q0 -35 22.5 -54.5
t60.5 -19.5zM386 620q-31 0 -51 18.5t-20 48.5t20 49t51 19q32 0 51.5 -18.5t19.5 -48.5t-20 -49t-51 -19zM171 620q-30 0 -50 18.5t-20 48.5t20 49t50 19q34 0 53 -18.5t19 -48.5t-20 -49t-52 -19z" />
    <glyph glyph-name="aring" unicode="&#xe5;" horiz-adv-x="609" 
d="M216 -14q-70 0 -112.5 38t-42.5 100q0 58 30 93.5t99 53t185 22.5v70q0 34 -9.5 58t-35 37.5t-70.5 13.5q-27 0 -52.5 -7t-38.5 -18q10 -15 16 -27t9 -20t3 -13q0 -23 -19 -37t-47 -14q-32 0 -49 16t-17 46q0 37 28.5 68t77.5 49.5t108 18.5q72 0 118.5 -20.5t69 -61.5
t22.5 -102v-237q0 -22 11.5 -33.5t35.5 -11.5q14 0 26.5 2.5t25.5 7.5l13 -51q-18 -16 -49 -28.5t-63 -12.5q-47 0 -71.5 22t-32.5 63q-19 -27 -44 -46t-56.5 -29t-68.5 -10zM262 65q31 0 56.5 13t41 35t15.5 48v67q-68 0 -111.5 -9t-64 -28.5t-20.5 -51.5q0 -35 22.5 -54.5
t60.5 -19.5zM277 592q-67 0 -101 30t-34 83q0 34 16.5 59.5t47.5 40.5t75 15q66 0 100 -29.5t34 -81.5q0 -36 -16.5 -62.5t-47 -40.5t-74.5 -14zM280 648q21 0 33 6t17 19.5t5 33.5t-6 33t-18.5 20t-32.5 7q-21 0 -33 -7.5t-18 -20.5t-6 -32t6 -32.5t18.5 -20t34.5 -6.5z
" />
    <glyph glyph-name="ae" unicode="&#xe6;" horiz-adv-x="900" 
d="M216 -14q-46 0 -81 17t-54.5 48.5t-19.5 72.5q0 67 38.5 103.5t132.5 52.5q28 5 64.5 8.5t78.5 4.5v70q0 34 -9.5 58t-35 37.5t-70.5 13.5q-27 0 -52.5 -7t-38.5 -18q10 -15 16 -27t9 -20t3 -13q0 -23 -19 -37t-47 -14q-32 0 -49 16t-17 46q0 37 28.5 68t77.5 49.5
t108 18.5q63 0 106 -18.5t70 -55.5q33 36 79 55t102 19q63 0 109.5 -22.5t71.5 -64.5t25 -101q0 -27 -1.5 -51.5t-6.5 -50.5h-345q3 -54 22.5 -91.5t56.5 -56.5t91 -19q43 0 82 15.5t70 42.5l41 -46q-38 -47 -96.5 -75t-124.5 -28q-73 0 -127 25t-87 74q-22 -32 -49.5 -54
t-65 -33.5t-86.5 -11.5zM262 65q31 0 56.5 13t41 35t15.5 48v67q-32 0 -59 -1.5t-48 -6.5q-46 -10 -67.5 -29t-21.5 -52q0 -35 22.5 -54.5t60.5 -19.5zM489 313h238q2 11 2.5 21.5t0.5 22.5q0 51 -26.5 78.5t-77.5 27.5q-39 0 -68 -17t-46 -50.5t-23 -82.5z" />
    <glyph glyph-name="ccedilla" unicode="&#xe7;" horiz-adv-x="573" 
d="M312 -234q-42 0 -71.5 13t-42.5 23l25 49q15 -9 36 -16t37 -7q21 0 37 9.5t16 30.5q0 19 -13.5 27.5t-41.5 8.5q-10 0 -17 -1t-14 -3l-10 26l25 62q-69 7 -118.5 40.5t-75.5 90.5t-26 134q0 86 32.5 149t92.5 98t140 35q60 0 106 -19t72 -50t26 -70q0 -21 -9 -37.5
t-24.5 -26t-38.5 -9.5q-32 0 -49 14.5t-17 37.5q0 11 6 26t19 40q-17 12 -39.5 18t-51.5 6q-42 0 -75 -18.5t-52 -59.5t-19 -107q0 -109 45.5 -156t119.5 -47q47 0 83 16.5t66 40.5l41 -48q-32 -40 -82.5 -67.5t-113.5 -32.5l-15 -37q35 2 59.5 -7t38 -28t13.5 -48
q0 -31 -13.5 -53t-40.5 -34.5t-66 -12.5z" />
    <glyph glyph-name="egrave" unicode="&#xe8;" horiz-adv-x="590" 
d="M321 -14q-82 0 -140.5 32t-90.5 91t-32 138q0 90 34 154.5t94 98.5t140 34q63 0 109.5 -22.5t72 -64.5t25.5 -101q0 -26 -2 -51t-7 -51h-345q2 -55 23.5 -92.5t59 -56t87.5 -18.5q43 0 82 15.5t70 42.5l42 -46q-39 -47 -97.5 -75t-124.5 -28zM178 313h239q2 11 2.5 22
t0.5 22q0 51 -26.5 78.5t-77.5 27.5q-39 0 -68 -17.5t-46.5 -50.5t-23.5 -82zM354 592l-137 91q-18 11 -27 25t-9 30q0 13 5.5 26t17.5 21.5t28 8.5q12 0 22.5 -7t22.5 -23l109 -139z" />
    <glyph glyph-name="eacute" unicode="&#xe9;" horiz-adv-x="590" 
d="M321 -14q-82 0 -140.5 32t-90.5 91t-32 138q0 90 34 154.5t94 98.5t140 34q63 0 109.5 -22.5t72 -64.5t25.5 -101q0 -26 -2 -51t-7 -51h-345q2 -55 23.5 -92.5t59 -56t87.5 -18.5q43 0 82 15.5t70 42.5l42 -46q-39 -47 -97.5 -75t-124.5 -28zM178 313h239q2 11 2.5 22
t0.5 22q0 51 -26.5 78.5t-77.5 27.5q-39 0 -68 -17.5t-46.5 -50.5t-23.5 -82zM275 592l-32 33l109 139q12 16 22.5 23t22.5 7q17 0 28.5 -8.5t17 -21.5t5.5 -26q0 -16 -9 -29.5t-27 -25.5z" />
    <glyph glyph-name="ecircumflex" unicode="&#xea;" horiz-adv-x="590" 
d="M321 -14q-82 0 -140.5 32t-90.5 91t-32 138q0 90 34 154.5t94 98.5t140 34q63 0 109.5 -22.5t72 -64.5t25.5 -101q0 -26 -2 -51t-7 -51h-345q2 -55 23.5 -92.5t59 -56t87.5 -18.5q43 0 82 15.5t70 42.5l42 -46q-39 -47 -97.5 -75t-124.5 -28zM178 313h239q2 11 2.5 22
t0.5 22q0 51 -26.5 78.5t-77.5 27.5q-39 0 -68 -17.5t-46.5 -50.5t-23.5 -82zM181 592l-36 34l116 146q12 14 25 21t30 7q12 0 20.5 -3t17 -10.5t19.5 -21.5l111 -138l-36 -35l-132 99z" />
    <glyph glyph-name="edieresis" unicode="&#xeb;" horiz-adv-x="590" 
d="M321 -14q-82 0 -140.5 32t-90.5 91t-32 138q0 90 34 154.5t94 98.5t140 34q63 0 109.5 -22.5t72 -64.5t25.5 -101q0 -26 -2 -51t-7 -51h-345q2 -55 23.5 -92.5t59 -56t87.5 -18.5q43 0 82 15.5t70 42.5l42 -46q-39 -47 -97.5 -75t-124.5 -28zM178 313h239q2 11 2.5 22
t0.5 22q0 51 -26.5 78.5t-77.5 27.5q-39 0 -68 -17.5t-46.5 -50.5t-23.5 -82zM421 620q-31 0 -51 18.5t-20 48.5t20 49t51 19q32 0 51.5 -18.5t19.5 -48.5t-20 -49t-51 -19zM206 620q-30 0 -50 18.5t-20 48.5t20 49t50 19q34 0 53 -18.5t19 -48.5t-20 -49t-52 -19z" />
    <glyph glyph-name="igrave" unicode="&#xec;" horiz-adv-x="382" 
d="M47 0v60l63 4q20 1 26.5 11.5t6.5 38.5v276q0 35 -7 47.5t-32 13.5l-56 3l8 63l187 11l14 -8v-409q0 -20 5 -33t29 -14l62 -4v-60h-306zM201 591l-137 91q-18 11 -27 25t-9 30q0 13 5.5 26t17.5 21.5t28 8.5q12 0 22.5 -7t22.5 -23l109 -139z" />
    <glyph glyph-name="iacute" unicode="&#xed;" horiz-adv-x="382" 
d="M47 0v60l63 4q20 1 26.5 11.5t6.5 38.5v276q0 35 -7 47.5t-32 13.5l-56 3l8 63l187 11l14 -8v-409q0 -20 5 -33t29 -14l62 -4v-60h-306zM122 591l-32 33l109 139q12 16 22.5 23t22.5 7q17 0 28.5 -8.5t17 -21.5t5.5 -26q0 -16 -9 -29.5t-27 -25.5z" />
    <glyph glyph-name="icircumflex" unicode="&#xee;" horiz-adv-x="382" 
d="M47 0v60l63 4q20 1 26.5 11.5t6.5 38.5v276q0 35 -7 47.5t-32 13.5l-56 3l8 63l187 11l14 -8v-409q0 -20 5 -33t29 -14l62 -4v-60h-306zM28 591l-36 34l116 146q12 14 25 21t30 7q12 0 20.5 -3t17 -10.5t19.5 -21.5l111 -138l-36 -35l-132 99z" />
    <glyph glyph-name="idieresis" unicode="&#xef;" horiz-adv-x="382" 
d="M47 0v60l63 4q20 1 26.5 11.5t6.5 38.5v276q0 35 -7 47.5t-32 13.5l-56 3l8 63l187 11l14 -8v-409q0 -20 5 -33t29 -14l62 -4v-60h-306zM268 619q-31 0 -51 18.5t-20 48.5t20 49t51 19q32 0 51.5 -18.5t19.5 -48.5t-20 -49t-51 -19zM53 619q-30 0 -50 18.5t-20 48.5
t20 49t50 19q34 0 53 -18.5t19 -48.5t-20 -49t-52 -19z" />
    <glyph glyph-name="eth" unicode="&#xf0;" horiz-adv-x="648" 
d="M312 -14q-115 0 -184.5 67t-69.5 188q0 68 22 116t57.5 79t79.5 45.5t87 14.5q56 0 98.5 -19t68.5 -53l6 1q-5 34 -19 72t-34 72.5t-45 58.5l-103 -72l-36 57l83 54q-34 20 -78 31t-90 16l13 61q58 -4 117 -14.5t112 -38.5l112 81l34 -58l-86 -60q39 -33 70 -79.5
t49 -110t18 -147.5q0 -85 -17 -152t-51.5 -114t-87.5 -71.5t-126 -24.5zM330 60q45 0 75.5 22.5t46 64.5t15.5 100q0 22 -2.5 43.5t-8 40.5t-14.5 35q-15 27 -45 42t-71 15q-39 0 -71.5 -19t-51.5 -58.5t-19 -101.5q0 -44 9.5 -78.5t28 -58t46 -35.5t62.5 -12z" />
    <glyph glyph-name="ntilde" unicode="&#xf1;" horiz-adv-x="737" 
d="M60 0v60l54 4q14 1 21 10t7 38v282q0 31 -7 43.5t-30 13.5l-55 3l8 62l161 12l14 -8l8 -90h6q29 48 80.5 76t111.5 28q57 0 97 -20t60.5 -58t20.5 -93v-259q0 -20 6 -29.5t28 -11.5l52 -3v-60h-271v60l40 3q17 1 24 9t7 32v221q0 41 -9 67.5t-31.5 40t-63.5 13.5
q-43 0 -75.5 -16t-50 -45.5t-17.5 -71.5v-205q0 -24 5.5 -33.5t21.5 -11.5l47 -3v-60h-270zM453 615q-20 0 -40.5 6t-47.5 18q-21 10 -36 15.5t-24.5 7.5t-16.5 2q-12 0 -21.5 -8t-24.5 -31l-44 27q19 39 34.5 59.5t32.5 28.5t38 8q22 0 42 -5.5t49 -18.5t46.5 -18.5
t26.5 -5.5q11 0 19.5 8.5t21.5 30.5l44 -26q-18 -38 -33.5 -59.5t-31 -30t-34.5 -8.5z" />
    <glyph glyph-name="ograve" unicode="&#xf2;" horiz-adv-x="656" 
d="M319 -14q-81 0 -139.5 31.5t-90 90t-31.5 140.5q0 91 34.5 154.5t97 97.5t146.5 34q81 0 140.5 -30.5t92 -89t32.5 -143.5q0 -90 -33 -154t-96 -97.5t-153 -33.5zM335 60q48 0 80 21t48.5 62.5t16.5 102.5q0 54 -11 94.5t-32 67t-50.5 39.5t-66.5 13q-44 0 -75.5 -20.5
t-48.5 -62t-17 -105.5q0 -68 19 -116t54 -72t83 -24zM367 592l-137 91q-18 11 -27 25t-9 30q0 13 5.5 26t17.5 21.5t28 8.5q12 0 22.5 -7t22.5 -23l109 -139z" />
    <glyph glyph-name="oacute" unicode="&#xf3;" horiz-adv-x="656" 
d="M319 -14q-81 0 -139.5 31.5t-90 90t-31.5 140.5q0 91 34.5 154.5t97 97.5t146.5 34q81 0 140.5 -30.5t92 -89t32.5 -143.5q0 -90 -33 -154t-96 -97.5t-153 -33.5zM335 60q48 0 80 21t48.5 62.5t16.5 102.5q0 54 -11 94.5t-32 67t-50.5 39.5t-66.5 13q-44 0 -75.5 -20.5
t-48.5 -62t-17 -105.5q0 -68 19 -116t54 -72t83 -24zM288 592l-32 33l109 139q12 16 22.5 23t22.5 7q17 0 28.5 -8.5t17 -21.5t5.5 -26q0 -16 -9 -29.5t-27 -25.5z" />
    <glyph glyph-name="ocircumflex" unicode="&#xf4;" horiz-adv-x="656" 
d="M319 -14q-81 0 -139.5 31.5t-90 90t-31.5 140.5q0 91 34.5 154.5t97 97.5t146.5 34q81 0 140.5 -30.5t92 -89t32.5 -143.5q0 -90 -33 -154t-96 -97.5t-153 -33.5zM335 60q48 0 80 21t48.5 62.5t16.5 102.5q0 54 -11 94.5t-32 67t-50.5 39.5t-66.5 13q-44 0 -75.5 -20.5
t-48.5 -62t-17 -105.5q0 -68 19 -116t54 -72t83 -24zM194 592l-36 34l116 146q12 14 25 21t30 7q12 0 20.5 -3t17 -10.5t19.5 -21.5l111 -138l-36 -35l-132 99z" />
    <glyph glyph-name="otilde" unicode="&#xf5;" horiz-adv-x="656" 
d="M319 -14q-81 0 -139.5 31.5t-90 90t-31.5 140.5q0 91 34.5 154.5t97 97.5t146.5 34q81 0 140.5 -30.5t92 -89t32.5 -143.5q0 -90 -33 -154t-96 -97.5t-153 -33.5zM335 60q48 0 80 21t48.5 62.5t16.5 102.5q0 54 -11 94.5t-32 67t-50.5 39.5t-66.5 13q-44 0 -75.5 -20.5
t-48.5 -62t-17 -105.5q0 -68 19 -116t54 -72t83 -24zM404 615q-20 0 -40.5 6t-47.5 18q-21 10 -36 15.5t-24.5 7.5t-16.5 2q-12 0 -21.5 -8t-24.5 -31l-44 27q19 39 34.5 59.5t32.5 28.5t38 8q22 0 42 -5.5t49 -18.5t46.5 -18.5t26.5 -5.5q11 0 19.5 8.5t21.5 30.5l44 -26
q-18 -38 -33.5 -59.5t-31 -30t-34.5 -8.5z" />
    <glyph glyph-name="odieresis" unicode="&#xf6;" horiz-adv-x="656" 
d="M319 -14q-81 0 -139.5 31.5t-90 90t-31.5 140.5q0 91 34.5 154.5t97 97.5t146.5 34q81 0 140.5 -30.5t92 -89t32.5 -143.5q0 -90 -33 -154t-96 -97.5t-153 -33.5zM335 60q48 0 80 21t48.5 62.5t16.5 102.5q0 54 -11 94.5t-32 67t-50.5 39.5t-66.5 13q-44 0 -75.5 -20.5
t-48.5 -62t-17 -105.5q0 -68 19 -116t54 -72t83 -24zM434 620q-31 0 -51 18.5t-20 48.5t20 49t51 19q32 0 51.5 -18.5t19.5 -48.5t-20 -49t-51 -19zM219 620q-30 0 -50 18.5t-20 48.5t20 49t50 19q34 0 53 -18.5t19 -48.5t-20 -49t-52 -19z" />
    <glyph glyph-name="divide" unicode="&#xf7;" horiz-adv-x="620" 
d="M93 263v87h434v-87h-434zM309 70q-30 0 -51 19.5t-21 49.5q0 29 21 49t51 20q31 0 52.5 -19.5t21.5 -48.5q0 -30 -21.5 -50t-52.5 -20zM309 402q-30 0 -51 19t-21 49t21 49.5t51 19.5q31 0 52.5 -19t21.5 -49t-21.5 -49.5t-52.5 -19.5z" />
    <glyph glyph-name="oslash" unicode="&#xf8;" horiz-adv-x="656" 
d="M40 -16l77 84q-28 33 -43.5 78.5t-15.5 101.5q0 91 34.5 154.5t97 97.5t146.5 34q49 0 90 -11t73 -35l34 38h89l-74 -82q26 -32 39.5 -75.5t13.5 -97.5q0 -90 -33 -154t-96 -97.5t-153 -33.5q-45 0 -83.5 10t-68.5 30l-38 -42h-89zM335 60q48 0 80 21t48.5 62.5
t16.5 102.5q0 31 -4 57.5t-13 47.5l-229 -252q13 -12 28.5 -21t34 -13.5t38.5 -4.5zM199 159l232 255q-14 16 -31 26t-37 15t-43 5q-44 0 -75.5 -20.5t-48.5 -62t-17 -105.5q0 -33 5 -61t15 -52z" />
    <glyph glyph-name="ugrave" unicode="&#xf9;" horiz-adv-x="716" 
d="M297 -14q-84 0 -128.5 44t-44.5 127v232q0 35 -6.5 47.5t-30.5 14.5l-45 4l9 61l173 12l14 -8v-330q0 -39 7.5 -66.5t29 -41t62.5 -13.5q42 0 73 18.5t48 51.5t17 73v177q0 32 -5.5 46t-31.5 16l-46 4l10 61l173 12l14 -8v-407q0 -25 7 -35.5t27 -13.5l52 -4v-60l-178 -6
l-15 82h-3q-27 -29 -55 -49t-59 -30.5t-68 -10.5zM383 592l-137 91q-18 11 -27 25t-9 30q0 13 5.5 26t17.5 21.5t28 8.5q12 0 22.5 -7t22.5 -23l109 -139z" />
    <glyph glyph-name="uacute" unicode="&#xfa;" horiz-adv-x="716" 
d="M297 -14q-84 0 -128.5 44t-44.5 127v232q0 35 -6.5 47.5t-30.5 14.5l-45 4l9 61l173 12l14 -8v-330q0 -39 7.5 -66.5t29 -41t62.5 -13.5q42 0 73 18.5t48 51.5t17 73v177q0 32 -5.5 46t-31.5 16l-46 4l10 61l173 12l14 -8v-407q0 -25 7 -35.5t27 -13.5l52 -4v-60l-178 -6
l-15 82h-3q-27 -29 -55 -49t-59 -30.5t-68 -10.5zM304 592l-32 33l109 139q12 16 22.5 23t22.5 7q17 0 28.5 -8.5t17 -21.5t5.5 -26q0 -16 -9 -29.5t-27 -25.5z" />
    <glyph glyph-name="ucircumflex" unicode="&#xfb;" horiz-adv-x="716" 
d="M297 -14q-84 0 -128.5 44t-44.5 127v232q0 35 -6.5 47.5t-30.5 14.5l-45 4l9 61l173 12l14 -8v-330q0 -39 7.5 -66.5t29 -41t62.5 -13.5q42 0 73 18.5t48 51.5t17 73v177q0 32 -5.5 46t-31.5 16l-46 4l10 61l173 12l14 -8v-407q0 -25 7 -35.5t27 -13.5l52 -4v-60l-178 -6
l-15 82h-3q-27 -29 -55 -49t-59 -30.5t-68 -10.5zM210 592l-36 34l116 146q12 14 25 21t30 7q12 0 20.5 -3t17 -10.5t19.5 -21.5l111 -138l-36 -35l-132 99z" />
    <glyph glyph-name="udieresis" unicode="&#xfc;" horiz-adv-x="716" 
d="M297 -14q-84 0 -128.5 44t-44.5 127v232q0 35 -6.5 47.5t-30.5 14.5l-45 4l9 61l173 12l14 -8v-330q0 -39 7.5 -66.5t29 -41t62.5 -13.5q42 0 73 18.5t48 51.5t17 73v177q0 32 -5.5 46t-31.5 16l-46 4l10 61l173 12l14 -8v-407q0 -25 7 -35.5t27 -13.5l52 -4v-60l-178 -6
l-15 82h-3q-27 -29 -55 -49t-59 -30.5t-68 -10.5zM450 620q-31 0 -51 18.5t-20 48.5t20 49t51 19q32 0 51.5 -18.5t19.5 -48.5t-20 -49t-51 -19zM235 620q-30 0 -50 18.5t-20 48.5t20 49t50 19q34 0 53 -18.5t19 -48.5t-20 -49t-52 -19z" />
    <glyph glyph-name="yacute" unicode="&#xfd;" horiz-adv-x="643" 
d="M136 -231q-54 0 -86.5 23t-32.5 63q0 30 21 50.5t51 20.5q26 0 42.5 -10t17.5 -28q1 -8 -0.5 -18.5t-6.5 -38.5q24 -1 42 9.5t36 38t40 75.5l25 51l-180 400q-13 30 -21 39.5t-25 10.5l-43 4l11 62h272v-59l-50 -2q-17 -1 -24.5 -11t5.5 -41l116 -274h5l115 268
q12 25 6.5 39t-29.5 17l-43 4l9 59h229v-60l-42 -3q-18 -2 -27 -12t-24 -44l-203 -448q-22 -48 -43 -83t-44.5 -57.5t-53 -33.5t-65.5 -11zM305 592l-32 33l109 139q12 16 22.5 23t22.5 7q17 0 28.5 -8.5t17 -21.5t5.5 -26q0 -16 -9 -29.5t-27 -25.5z" />
    <glyph glyph-name="thorn" unicode="&#xfe;" horiz-adv-x="684" 
d="M31 -216v61l54 3q14 1 23 10t9 37v740q0 22 -3 35t-13 18.5t-30 6.5l-55 3l6 62l195 6l14 -11v-310h2q20 29 46.5 49t59.5 30.5t76 10.5q66 0 114 -30t73.5 -87.5t25.5 -139.5q0 -92 -29.5 -157.5t-87 -100t-138.5 -34.5q-39 0 -78 9t-64 23v-121q0 -23 7 -34.5t27 -13.5
l71 -5v-60h-305zM362 64q46 0 78.5 22.5t50 67.5t17.5 111q0 61 -14.5 102t-44 62t-73.5 21t-77 -17.5t-50.5 -48.5t-17.5 -74v-209q19 -16 56.5 -26.5t74.5 -10.5z" />
    <glyph glyph-name="ydieresis" unicode="&#xff;" horiz-adv-x="643" 
d="M136 -231q-54 0 -86.5 23t-32.5 63q0 30 21 50.5t51 20.5q26 0 42.5 -10t17.5 -28q1 -8 -0.5 -18.5t-6.5 -38.5q24 -1 42 9.5t36 38t40 75.5l25 51l-180 400q-13 30 -21 39.5t-25 10.5l-43 4l11 62h272v-59l-50 -2q-17 -1 -24.5 -11t5.5 -41l116 -274h5l115 268
q12 25 6.5 39t-29.5 17l-43 4l9 59h229v-60l-42 -3q-18 -2 -27 -12t-24 -44l-203 -448q-22 -48 -43 -83t-44.5 -57.5t-53 -33.5t-65.5 -11zM451 620q-31 0 -51 18.5t-20 48.5t20 49t51 19q32 0 51.5 -18.5t19.5 -48.5t-20 -49t-51 -19zM236 620q-30 0 -50 18.5t-20 48.5
t20 49t50 19q34 0 53 -18.5t19 -48.5t-20 -49t-52 -19z" />
    <glyph glyph-name="Amacron" unicode="&#x100;" 
d="M15 0v61l54 5q17 2 27 11t22 41l228 582h130l225 -584q8 -24 17.5 -36t30.5 -14l46 -5v-61h-306v61l59 4q17 1 24.5 11t-3.5 39l-40 106h-286l-39 -104q-8 -20 -5 -36t30 -18l57 -3v-60h-271zM268 292h237l-113 310h-7zM259 794v89h304v-89h-304z" />
    <glyph glyph-name="amacron" unicode="&#x101;" horiz-adv-x="609" 
d="M216 -14q-70 0 -112.5 38t-42.5 100q0 58 30 93.5t99 53t185 22.5v70q0 34 -9.5 58t-35 37.5t-70.5 13.5q-27 0 -52.5 -7t-38.5 -18q10 -15 16 -27t9 -20t3 -13q0 -23 -19 -37t-47 -14q-32 0 -49 16t-17 46q0 37 28.5 68t77.5 49.5t108 18.5q72 0 118.5 -20.5t69 -61.5
t22.5 -102v-237q0 -22 11.5 -33.5t35.5 -11.5q14 0 26.5 2.5t25.5 7.5l13 -51q-18 -16 -49 -28.5t-63 -12.5q-47 0 -71.5 22t-32.5 63q-19 -27 -44 -46t-56.5 -29t-68.5 -10zM262 65q31 0 56.5 13t41 35t15.5 48v67q-68 0 -111.5 -9t-64 -28.5t-20.5 -51.5q0 -35 22.5 -54.5
t60.5 -19.5zM128 635v89h302v-89h-302z" />
    <glyph glyph-name="Abreve" unicode="&#x102;" 
d="M15 0v61l54 5q17 2 27 11t22 41l228 582h130l225 -584q8 -24 17.5 -36t30.5 -14l46 -5v-61h-306v61l59 4q17 1 24.5 11t-3.5 39l-40 106h-286l-39 -104q-8 -20 -5 -36t30 -18l57 -3v-60h-271zM268 292h237l-113 310h-7zM411 758q-53 0 -88 23.5t-54.5 63t-24.5 87.5
l58 14q14 -50 39.5 -74.5t73.5 -24.5q50 0 76 26.5t37 70.5l56 -12q-4 -44 -24.5 -84t-57.5 -65t-91 -25z" />
    <glyph glyph-name="abreve" unicode="&#x103;" horiz-adv-x="609" 
d="M216 -14q-70 0 -112.5 38t-42.5 100q0 58 30 93.5t99 53t185 22.5v70q0 34 -9.5 58t-35 37.5t-70.5 13.5q-27 0 -52.5 -7t-38.5 -18q10 -15 16 -27t9 -20t3 -13q0 -23 -19 -37t-47 -14q-32 0 -49 16t-17 46q0 37 28.5 68t77.5 49.5t108 18.5q72 0 118.5 -20.5t69 -61.5
t22.5 -102v-237q0 -22 11.5 -33.5t35.5 -11.5q14 0 26.5 2.5t25.5 7.5l13 -51q-18 -16 -49 -28.5t-63 -12.5q-47 0 -71.5 22t-32.5 63q-19 -27 -44 -46t-56.5 -29t-68.5 -10zM262 65q31 0 56.5 13t41 35t15.5 48v67q-68 0 -111.5 -9t-64 -28.5t-20.5 -51.5q0 -35 22.5 -54.5
t60.5 -19.5zM281 598q-50 0 -85 25t-53.5 65.5t-23.5 88.5l57 13q13 -50 39 -76.5t71 -26.5q47 0 72.5 29t35.5 73l56 -12q-5 -44 -25 -85.5t-55.5 -67.5t-88.5 -26z" />
    <glyph glyph-name="Aogonek" unicode="&#x104;" 
d="M624 -233q-34 0 -57 12t-34.5 31.5t-11.5 43.5q0 34 19.5 60.5t48 47.5t56.5 38h-156v61l59 4q17 1 24.5 11t-3.5 39l-40 106h-286l-39 -104q-8 -20 -5 -36t30 -18l57 -3v-60h-271v61l54 5q17 2 27 11t22 41l228 582h130l225 -584q8 -24 17.5 -36t30.5 -14l46 -5v-61h-85
q-45 -36 -67.5 -64t-22.5 -58q0 -20 11 -30.5t34 -10.5q15 0 31 4.5t28 10.5l17 -46q-12 -9 -30.5 -18.5t-40.5 -15t-46 -5.5zM268 292h237l-113 310h-7z" />
    <glyph glyph-name="aogonek" unicode="&#x105;" horiz-adv-x="609" 
d="M481 -233q-47 0 -73.5 24.5t-26.5 60.5q0 28 13.5 52t36 45t47.5 37q-41 3 -63.5 24.5t-29.5 60.5q-30 -42 -72.5 -63.5t-96.5 -21.5q-70 0 -112.5 38t-42.5 100q0 58 29 93.5t98 53t187 22.5v70q0 53 -24.5 81t-90.5 28q-27 0 -52.5 -7t-38.5 -18q15 -22 21.5 -37
t6.5 -23q0 -23 -19.5 -37t-46.5 -14q-31 0 -48.5 15.5t-17.5 46.5q0 37 29 68t77.5 49.5t107.5 18.5q106 0 158 -45t52 -139v-237q0 -23 12 -34t35 -11q14 0 26 2.5t26 7.5l13 -51q-16 -9 -37 -25t-40 -36.5t-31.5 -42.5t-12.5 -45q0 -19 10 -30t33 -11q14 0 29 4.5t26 10.5
l17 -46q-21 -16 -50 -27.5t-64 -11.5zM262 65q32 0 57 13t40.5 35t15.5 48v67q-68 0 -111.5 -9t-64 -28.5t-20.5 -51.5q0 -35 22.5 -54.5t60.5 -19.5z" />
    <glyph glyph-name="Cacute" unicode="&#x106;" horiz-adv-x="758" 
d="M417 -14q-110 0 -190 45t-123 126.5t-43 192.5q0 83 25 150.5t71.5 115t110 73t140.5 25.5q58 0 101 -16.5t75 -43.5l13 60h54l40 -236l-64 -13q-21 60 -50.5 97.5t-69.5 55.5t-93 18q-72 0 -121 -31t-74.5 -91t-25.5 -146q0 -72 18 -127t50.5 -92t77 -55.5t96.5 -18.5
q50 0 88.5 12t70.5 35.5t61 57.5l50 -46q-22 -33 -51.5 -60.5t-66.5 -47t-79.5 -30t-90.5 -10.5zM335 750l-27 39l137 123q14 12 24 17t19 5q22 0 35.5 -18.5t13.5 -38.5q0 -21 -11.5 -35.5t-34.5 -23.5z" />
    <glyph glyph-name="cacute" unicode="&#x107;" horiz-adv-x="573" 
d="M314 -14q-80 0 -137 31.5t-88 91.5t-31 144q0 86 32.5 149t92.5 98t140 35q60 0 106 -19t72 -50t26 -70q0 -21 -9 -37.5t-24.5 -26t-38.5 -9.5q-32 0 -49 14.5t-17 37.5q0 11 6 26t19 40q-17 12 -39.5 18t-51.5 6q-42 0 -75 -18.5t-52 -59.5t-19 -107q0 -109 45.5 -156
t119.5 -47q47 0 83 16.5t66 40.5l41 -48q-36 -43 -91 -71.5t-127 -28.5zM276 592l-32 33l109 139q12 16 22.5 23t22.5 7q17 0 28.5 -8.5t17 -21.5t5.5 -26q0 -16 -9 -29.5t-27 -25.5z" />
    <glyph glyph-name="Ccircumflex" unicode="&#x108;" horiz-adv-x="758" 
d="M417 -14q-110 0 -190 45t-123 126.5t-43 192.5q0 83 25 150.5t71.5 115t110 73t140.5 25.5q58 0 101 -16.5t75 -43.5l13 60h54l40 -236l-64 -13q-21 60 -50.5 97.5t-69.5 55.5t-93 18q-72 0 -121 -31t-74.5 -91t-25.5 -146q0 -72 18 -127t50.5 -92t77 -55.5t96.5 -18.5
q50 0 88.5 12t70.5 35.5t61 57.5l50 -46q-22 -33 -51.5 -60.5t-66.5 -47t-79.5 -30t-90.5 -10.5zM256 744l-29 38l125 130q12 13 23 19.5t26 6.5q13 0 24 -7t27 -24l119 -124l-30 -39l-141 83z" />
    <glyph glyph-name="ccircumflex" unicode="&#x109;" horiz-adv-x="573" 
d="M314 -14q-80 0 -137 31.5t-88 91.5t-31 144q0 86 32.5 149t92.5 98t140 35q60 0 106 -19t72 -50t26 -70q0 -21 -9 -37.5t-24.5 -26t-38.5 -9.5q-32 0 -49 14.5t-17 37.5q0 11 6 26t19 40q-17 12 -39.5 18t-51.5 6q-42 0 -75 -18.5t-52 -59.5t-19 -107q0 -109 45.5 -156
t119.5 -47q47 0 83 16.5t66 40.5l41 -48q-36 -43 -91 -71.5t-127 -28.5zM182 592l-36 34l116 146q12 14 25 21t30 7q12 0 20.5 -3t17 -10.5t19.5 -21.5l111 -138l-36 -35l-132 99z" />
    <glyph glyph-name="Cdotaccent" unicode="&#x10a;" horiz-adv-x="758" 
d="M417 -14q-110 0 -190 45t-123 126.5t-43 192.5q0 83 25 150.5t71.5 115t110 73t140.5 25.5q58 0 101 -16.5t75 -43.5l13 60h54l40 -236l-64 -13q-21 60 -50.5 97.5t-69.5 55.5t-93 18q-72 0 -121 -31t-74.5 -91t-25.5 -146q0 -72 18 -127t50.5 -92t77 -55.5t96.5 -18.5
q50 0 88.5 12t70.5 35.5t61 57.5l50 -46q-22 -33 -51.5 -60.5t-66.5 -47t-79.5 -30t-90.5 -10.5zM398 767q-35 0 -56.5 20t-21.5 52t21.5 52t56.5 20q36 0 57.5 -19.5t21.5 -51.5q0 -33 -21.5 -53t-57.5 -20z" />
    <glyph glyph-name="cdotaccent" unicode="&#x10b;" horiz-adv-x="573" 
d="M314 -14q-80 0 -137 31.5t-88 91.5t-31 144q0 86 32.5 149t92.5 98t140 35q60 0 106 -19t72 -50t26 -70q0 -21 -9 -37.5t-24.5 -26t-38.5 -9.5q-32 0 -49 14.5t-17 37.5q0 11 6 26t19 40q-17 12 -39.5 18t-51.5 6q-42 0 -75 -18.5t-52 -59.5t-19 -107q0 -109 45.5 -156
t119.5 -47q47 0 83 16.5t66 40.5l41 -48q-36 -43 -91 -71.5t-127 -28.5zM314 618q-35 0 -56.5 20t-21.5 52t21.5 52.5t56.5 20.5q36 0 57.5 -20t21.5 -52t-21.5 -52.5t-57.5 -20.5z" />
    <glyph glyph-name="Ccaron" unicode="&#x10c;" horiz-adv-x="758" 
d="M417 -14q-110 0 -190 45t-123 126.5t-43 192.5q0 83 25 150.5t71.5 115t110 73t140.5 25.5q58 0 101 -16.5t75 -43.5l13 60h54l40 -236l-64 -13q-21 60 -50.5 97.5t-69.5 55.5t-93 18q-72 0 -121 -31t-74.5 -91t-25.5 -146q0 -72 18 -127t50.5 -92t77 -55.5t96.5 -18.5
q50 0 88.5 12t70.5 35.5t61 57.5l50 -46q-22 -33 -51.5 -60.5t-66.5 -47t-79.5 -30t-90.5 -10.5zM398 758q-12 0 -23.5 7t-28.5 24l-121 124l30 40l144 -84l146 84l28 -39l-127 -130q-12 -13 -23 -19.5t-25 -6.5z" />
    <glyph glyph-name="ccaron" unicode="&#x10d;" horiz-adv-x="573" 
d="M314 -14q-80 0 -137 31.5t-88 91.5t-31 144q0 86 32.5 149t92.5 98t140 35q60 0 106 -19t72 -50t26 -70q0 -21 -9 -37.5t-24.5 -26t-38.5 -9.5q-32 0 -49 14.5t-17 37.5q0 11 6 26t19 40q-17 12 -39.5 18t-51.5 6q-42 0 -75 -18.5t-52 -59.5t-19 -107q0 -109 45.5 -156
t119.5 -47q47 0 83 16.5t66 40.5l41 -48q-36 -43 -91 -71.5t-127 -28.5zM315 593q-13 0 -22 3t-17 11t-18 20l-110 139l39 35l128 -99l132 99l38 -34l-118 -147q-11 -13 -23 -20t-29 -7z" />
    <glyph glyph-name="Dcaron" unicode="&#x10e;" horiz-adv-x="839" 
d="M66 0v60l63 4q20 2 27 12.5t7 38.5v474q0 25 -6.5 35.5t-29.5 11.5l-61 4v60h322q73 0 134 -12.5t109 -38t80.5 -65t49.5 -92t17 -120.5q0 -89 -29 -158.5t-84 -117t-133.5 -72t-178.5 -24.5h-287zM360 71q76 0 130 17.5t89 53t51.5 91t16.5 131.5q0 90 -30 148.5
t-88.5 87.5t-147.5 29h-99v-557q13 -1 35 -1h43zM393 758q-12 0 -23.5 7t-28.5 24l-121 124l30 40l144 -84l146 84l28 -39l-127 -130q-12 -13 -23 -19.5t-25 -6.5z" />
    <glyph glyph-name="dcaron" unicode="&#x10f;" horiz-adv-x="781" 
d="M281 -14q-70 0 -120.5 30t-77 88.5t-26.5 140.5q0 90 32.5 154.5t92.5 99.5t142 35q36 0 71.5 -8.5t60.5 -22.5v134q0 33 -8 45t-38 14l-57 4l7 61l197 5l13 -12v-648q0 -19 5 -30.5t30 -13.5l54 -5v-60l-175 -6l-15 80h-7q-23 -28 -50 -47.5t-59 -28.5t-72 -9zM317 71
q42 0 73 18t48.5 49.5t17.5 73.5v206q-26 19 -59.5 28.5t-69.5 9.5q-49 0 -82 -22.5t-50 -67t-17 -111.5q0 -60 16 -101t48 -62t75 -21zM676 521l-35 36q22 26 32 48.5t10 38.5q0 12 -4 20t-15 19q-10 9 -14.5 17.5t-4.5 20.5q0 27 19.5 39t40.5 12q39 0 56.5 -23.5
t17.5 -51.5q0 -24 -12 -54t-35 -61.5t-56 -60.5z" />
    <glyph glyph-name="Dcroat" unicode="&#x110;" horiz-adv-x="839" 
d="M66 0v60l63 4q20 2 27 12.5t7 38.5v207h-111l9 76h102v191q0 25 -6.5 35.5t-29.5 11.5l-61 4v60h322q73 0 134 -12.5t109 -38t80.5 -65t49.5 -92t17 -120.5q0 -89 -29 -158.5t-84 -117t-133.5 -72t-178.5 -24.5h-287zM360 71q76 0 130 17.5t89 53t51.5 91t16.5 131.5
q0 90 -30 148.5t-88.5 87.5t-147.5 29h-99v-231h174v-76h-174v-250q19 -1 39 -1h39z" />
    <glyph glyph-name="dcroat" unicode="&#x111;" horiz-adv-x="688" 
d="M281 -14q-70 0 -120.5 30t-77 88.5t-26.5 140.5q0 90 32.5 154.5t92.5 99.5t142 35q36 0 71.5 -8.5t60.5 -22.5v77h-162l8 60h154v7q0 31 -8 39.5t-38 10.5l-57 4l7 60l197 5l13 -12v-114h89v-60h-89v-474q0 -19 5 -30.5t30 -13.5l54 -5v-60l-175 -6l-15 80h-7
q-23 -28 -50 -47.5t-59 -28.5t-72 -9zM317 71q42 0 73 18t48.5 49.5t17.5 73.5v206q-26 19 -59.5 28.5t-69.5 9.5q-49 0 -82 -22.5t-50 -67t-17 -111.5q0 -60 16 -101t48 -62t75 -21z" />
    <glyph glyph-name="Emacron" unicode="&#x112;" horiz-adv-x="698" 
d="M66 0v60l63 4q18 1 26 11t8 40v474q0 25 -7 35.5t-29 11.5l-61 4v60h518l37 -174l-66 -17q-15 41 -29 65.5t-31.5 37t-42 16t-60.5 3.5h-110v-242h86q33 0 49 5t24 22t17 54l55 6v-232l-56 -9q-6 39 -15 57.5t-25.5 23.5t-50.5 5h-84v-252h137q37 0 62.5 5.5t42 19.5
t28.5 39.5t22 64.5h68l-24 -198h-552zM199 794v89h304v-89h-304z" />
    <glyph glyph-name="emacron" unicode="&#x113;" horiz-adv-x="590" 
d="M321 -14q-82 0 -140.5 32t-90.5 91t-32 138q0 90 34 154.5t94 98.5t140 34q63 0 109.5 -22.5t72 -64.5t25.5 -101q0 -26 -2 -51t-7 -51h-345q2 -55 23.5 -92.5t59 -56t87.5 -18.5q43 0 82 15.5t70 42.5l42 -46q-39 -47 -97.5 -75t-124.5 -28zM178 313h239q2 11 2.5 22
t0.5 22q0 51 -26.5 78.5t-77.5 27.5q-39 0 -68 -17.5t-46.5 -50.5t-23.5 -82zM163 635v89h302v-89h-302z" />
    <glyph glyph-name="Ebreve" unicode="&#x114;" horiz-adv-x="698" 
d="M66 0v60l63 4q18 1 26 11t8 40v474q0 25 -7 35.5t-29 11.5l-61 4v60h518l37 -174l-66 -17q-15 41 -29 65.5t-31.5 37t-42 16t-60.5 3.5h-110v-242h86q33 0 49 5t24 22t17 54l55 6v-232l-56 -9q-6 39 -15 57.5t-25.5 23.5t-50.5 5h-84v-252h137q37 0 62.5 5.5t42 19.5
t28.5 39.5t22 64.5h68l-24 -198h-552zM351 758q-53 0 -88 23.5t-54.5 63t-24.5 87.5l58 14q14 -50 39.5 -74.5t73.5 -24.5q50 0 76 26.5t37 70.5l56 -12q-4 -44 -24.5 -84t-57.5 -65t-91 -25z" />
    <glyph glyph-name="ebreve" unicode="&#x115;" horiz-adv-x="590" 
d="M321 -14q-82 0 -140.5 32t-90.5 91t-32 138q0 90 34 154.5t94 98.5t140 34q63 0 109.5 -22.5t72 -64.5t25.5 -101q0 -26 -2 -51t-7 -51h-345q2 -55 23.5 -92.5t59 -56t87.5 -18.5q43 0 82 15.5t70 42.5l42 -46q-39 -47 -97.5 -75t-124.5 -28zM178 313h239q2 11 2.5 22
t0.5 22q0 51 -26.5 78.5t-77.5 27.5q-39 0 -68 -17.5t-46.5 -50.5t-23.5 -82zM316 598q-50 0 -85 25t-53.5 65.5t-23.5 88.5l57 13q13 -50 39 -76.5t71 -26.5q47 0 72.5 29t35.5 73l56 -12q-5 -44 -25 -85.5t-55.5 -67.5t-88.5 -26z" />
    <glyph glyph-name="Edotaccent" unicode="&#x116;" horiz-adv-x="698" 
d="M66 0v60l63 4q18 1 26 11t8 40v474q0 25 -7 35.5t-29 11.5l-61 4v60h518l37 -174l-66 -17q-15 41 -29 65.5t-31.5 37t-42 16t-60.5 3.5h-110v-242h86q33 0 49 5t24 22t17 54l55 6v-232l-56 -9q-6 39 -15 57.5t-25.5 23.5t-50.5 5h-84v-252h137q37 0 62.5 5.5t42 19.5
t28.5 39.5t22 64.5h68l-24 -198h-552zM350 767q-35 0 -56.5 20t-21.5 52t21.5 52t56.5 20q36 0 57.5 -19.5t21.5 -51.5q0 -33 -21.5 -53t-57.5 -20z" />
    <glyph glyph-name="edotaccent" unicode="&#x117;" horiz-adv-x="590" 
d="M321 -14q-82 0 -140.5 32t-90.5 91t-32 138q0 90 34 154.5t94 98.5t140 34q63 0 109.5 -22.5t72 -64.5t25.5 -101q0 -26 -2 -51t-7 -51h-345q2 -55 23.5 -92.5t59 -56t87.5 -18.5q43 0 82 15.5t70 42.5l42 -46q-39 -47 -97.5 -75t-124.5 -28zM178 313h239q2 11 2.5 22
t0.5 22q0 51 -26.5 78.5t-77.5 27.5q-39 0 -68 -17.5t-46.5 -50.5t-23.5 -82zM313 618q-35 0 -56.5 20t-21.5 52t21.5 52.5t56.5 20.5q36 0 57.5 -20t21.5 -52t-21.5 -52.5t-57.5 -20.5z" />
    <glyph glyph-name="Eogonek" unicode="&#x118;" horiz-adv-x="698" 
d="M503 -233q-33 0 -55.5 12t-33.5 31.5t-11 43.5q0 34 20.5 61.5t52 48.5t64.5 36h-474v60l63 4q18 1 26 11t8 40v474q0 25 -7 35.5t-29 11.5l-61 4v60h518l37 -174l-66 -17q-15 41 -29 65.5t-31.5 37t-42 16t-60.5 3.5h-110v-242h86q33 0 49 5t24 22t17 54l55 6v-232
l-56 -9q-6 39 -15 57.5t-25.5 23.5t-50.5 5h-84v-252h137q37 0 62.5 5.5t42 19.5t28.5 39.5t22 64.5h68l-24 -198q-40 -22 -65.5 -42t-38 -39.5t-12.5 -40.5q0 -20 10 -30.5t33 -10.5q13 0 29 4t28 11l17 -46q-13 -9 -31 -18.5t-39.5 -15t-45.5 -5.5z" />
    <glyph glyph-name="eogonek" unicode="&#x119;" horiz-adv-x="590" 
d="M362 -233q-33 0 -56 12t-34 31t-11 42q0 41 28.5 76t62.5 60q-7 -1 -15 -1.5t-16 -0.5q-82 0 -140.5 32t-90.5 91t-32 138q0 90 34 154.5t94 98.5t140 34q63 0 109.5 -22.5t72 -64.5t25.5 -101q0 -26 -2 -51t-7 -51h-345q2 -55 23.5 -92.5t59 -56t87.5 -18.5
q43 0 82 15.5t70 42.5l42 -46q-18 -22 -40 -39.5t-49 -31.5q-30 -23 -51 -46.5t-31.5 -47t-10.5 -45.5q0 -20 9.5 -31t33.5 -11q13 0 28 4t27 11l17 -46q-13 -9 -30.5 -18.5t-39 -15t-44.5 -5.5zM178 313h239q2 11 2.5 22t0.5 22q0 51 -26.5 78.5t-77.5 27.5
q-39 0 -68 -17.5t-46.5 -50.5t-23.5 -82z" />
    <glyph glyph-name="Ecaron" unicode="&#x11a;" horiz-adv-x="698" 
d="M66 0v60l63 4q18 1 26 11t8 40v474q0 25 -7 35.5t-29 11.5l-61 4v60h518l37 -174l-66 -17q-15 41 -29 65.5t-31.5 37t-42 16t-60.5 3.5h-110v-242h86q33 0 49 5t24 22t17 54l55 6v-232l-56 -9q-6 39 -15 57.5t-25.5 23.5t-50.5 5h-84v-252h137q37 0 62.5 5.5t42 19.5
t28.5 39.5t22 64.5h68l-24 -198h-552zM350 758q-12 0 -23.5 7t-28.5 24l-121 124l30 40l144 -84l146 84l28 -39l-127 -130q-12 -13 -23 -19.5t-25 -6.5z" />
    <glyph glyph-name="ecaron" unicode="&#x11b;" horiz-adv-x="590" 
d="M321 -14q-82 0 -140.5 32t-90.5 91t-32 138q0 90 34 154.5t94 98.5t140 34q63 0 109.5 -22.5t72 -64.5t25.5 -101q0 -26 -2 -51t-7 -51h-345q2 -55 23.5 -92.5t59 -56t87.5 -18.5q43 0 82 15.5t70 42.5l42 -46q-39 -47 -97.5 -75t-124.5 -28zM178 313h239q2 11 2.5 22
t0.5 22q0 51 -26.5 78.5t-77.5 27.5q-39 0 -68 -17.5t-46.5 -50.5t-23.5 -82zM313 593q-13 0 -22 3t-17 11t-18 20l-110 139l39 35l128 -99l132 99l38 -34l-118 -147q-11 -13 -23 -20t-29 -7z" />
    <glyph glyph-name="Gcircumflex" unicode="&#x11c;" horiz-adv-x="827" 
d="M407 -14q-109 0 -186.5 45.5t-118.5 127t-41 186.5q0 87 25 155.5t70.5 116.5t109 72.5t141.5 24.5q64 0 109.5 -15.5t80.5 -42.5l11 58h55l42 -229l-65 -14q-22 60 -54 96t-74.5 52.5t-98.5 16.5q-53 0 -93.5 -17.5t-69 -51t-43 -83.5t-14.5 -116q0 -67 16 -120.5
t46.5 -92t75.5 -59t102 -20.5q34 0 62.5 5.5t51.5 16t40 26.5v104q0 23 -5.5 34.5t-30.5 12.5l-62 4v60h297v-60l-50 -4q-17 -1 -24.5 -11.5t-7.5 -39.5v-227h-63l-27 55q-25 -19 -57.5 -34t-70 -23.5t-79.5 -8.5zM265 744l-29 38l125 130q12 13 23 19.5t26 6.5q13 0 24 -7
t27 -24l119 -124l-30 -39l-141 83z" />
    <glyph glyph-name="gcircumflex" unicode="&#x11d;" horiz-adv-x="623" 
d="M146 596l-32 33l120 147q11 15 22.5 21t24.5 6q15 0 24.5 -7t25.5 -27l111 -136l-34 -34l-127 97zM284 -231q-62 0 -109.5 8t-79 24t-47.5 39.5t-16 54.5q0 28 11.5 48t34.5 37t56 30v4q-28 9 -47 31.5t-19 47.5t15 53t55 64v3q-40 20 -60.5 54.5t-20.5 83.5
q0 57 29.5 97.5t81.5 62.5t121 22q26 0 49.5 -3t45.5 -9.5t42 -17.5q20 48 50.5 74t71.5 26q20 0 37 -7.5t26.5 -20t9.5 -30.5q0 -24 -19 -41.5t-43 -17.5q-15 0 -26 7t-19 20l-11 20q-9 -13 -17 -27.5t-16 -33.5q22 -23 34 -52t12 -64q0 -53 -27.5 -93t-78 -62.5
t-119.5 -22.5q-25 0 -49 3t-37 7q-18 -17 -27 -32.5t-9 -28.5q0 -16 9.5 -25t26.5 -12t38 -3h149q90 0 140.5 -29.5t50.5 -99.5q0 -33 -12 -61.5t-35.5 -52t-59.5 -40.5t-84 -26t-108 -9zM295 -155q52 0 89.5 11t58 30.5t20.5 44.5q0 29 -24.5 43t-70.5 14h-177
q-23 -16 -35 -34.5t-12 -41.5q0 -32 35.5 -49.5t115.5 -17.5zM287 253q55 0 83.5 26.5t28.5 74.5q0 49 -31 78t-86 29q-52 0 -79.5 -29t-27.5 -76q0 -46 30.5 -74.5t81.5 -28.5z" />
    <glyph glyph-name="Gbreve" unicode="&#x11e;" horiz-adv-x="827" 
d="M407 -14q-109 0 -186.5 45.5t-118.5 127t-41 186.5q0 87 25 155.5t70.5 116.5t109 72.5t141.5 24.5q64 0 109.5 -15.5t80.5 -42.5l11 58h55l42 -229l-65 -14q-22 60 -54 96t-74.5 52.5t-98.5 16.5q-53 0 -93.5 -17.5t-69 -51t-43 -83.5t-14.5 -116q0 -67 16 -120.5
t46.5 -92t75.5 -59t102 -20.5q34 0 62.5 5.5t51.5 16t40 26.5v104q0 23 -5.5 34.5t-30.5 12.5l-62 4v60h297v-60l-50 -4q-17 -1 -24.5 -11.5t-7.5 -39.5v-227h-63l-27 55q-25 -19 -57.5 -34t-70 -23.5t-79.5 -8.5zM408 758q-53 0 -88 23.5t-54.5 63t-24.5 87.5l58 14
q14 -50 39.5 -74.5t73.5 -24.5q50 0 76 26.5t37 70.5l56 -12q-4 -44 -24.5 -84t-57.5 -65t-91 -25z" />
    <glyph glyph-name="gbreve" unicode="&#x11f;" horiz-adv-x="623" 
d="M284 -231q-62 0 -109.5 8t-79 24t-47.5 39.5t-16 54.5q0 28 11.5 48t34.5 37t56 30v4q-28 9 -47 31.5t-19 47.5t15 53t55 64v3q-40 20 -60.5 54.5t-20.5 83.5q0 57 29.5 97.5t81.5 62.5t121 22q26 0 49.5 -3t45.5 -9.5t42 -17.5q20 48 50.5 74t71.5 26q20 0 37 -7.5
t26.5 -20t9.5 -30.5q0 -24 -19 -41.5t-43 -17.5q-15 0 -26 7t-19 20l-11 20q-9 -13 -17 -27.5t-16 -33.5q22 -23 34 -52t12 -64q0 -53 -27.5 -93t-78 -62.5t-119.5 -22.5q-25 0 -49 3t-37 7q-18 -17 -27 -32.5t-9 -28.5q0 -16 9.5 -25t26.5 -12t38 -3h149q90 0 140.5 -29.5
t50.5 -99.5q0 -33 -12 -61.5t-35.5 -52t-59.5 -40.5t-84 -26t-108 -9zM295 -155q52 0 89.5 11t58 30.5t20.5 44.5q0 29 -24.5 43t-70.5 14h-177q-23 -16 -35 -34.5t-12 -41.5q0 -32 35.5 -49.5t115.5 -17.5zM287 253q55 0 83.5 26.5t28.5 74.5q0 49 -31 78t-86 29
q-52 0 -79.5 -29t-27.5 -76q0 -46 30.5 -74.5t81.5 -28.5zM286 606q-50 0 -85 25t-53.5 65.5t-23.5 88.5l57 13q13 -50 39 -76.5t71 -26.5q47 0 72.5 29t35.5 73l56 -12q-5 -44 -25 -85.5t-55.5 -67.5t-88.5 -26z" />
    <glyph glyph-name="Gdotaccent" unicode="&#x120;" horiz-adv-x="827" 
d="M407 -14q-109 0 -186.5 45.5t-118.5 127t-41 186.5q0 87 25 155.5t70.5 116.5t109 72.5t141.5 24.5q64 0 109.5 -15.5t80.5 -42.5l11 58h55l42 -229l-65 -14q-22 60 -54 96t-74.5 52.5t-98.5 16.5q-53 0 -93.5 -17.5t-69 -51t-43 -83.5t-14.5 -116q0 -67 16 -120.5
t46.5 -92t75.5 -59t102 -20.5q34 0 62.5 5.5t51.5 16t40 26.5v104q0 23 -5.5 34.5t-30.5 12.5l-62 4v60h297v-60l-50 -4q-17 -1 -24.5 -11.5t-7.5 -39.5v-227h-63l-27 55q-25 -19 -57.5 -34t-70 -23.5t-79.5 -8.5zM407 767q-35 0 -56.5 20t-21.5 52t21.5 52t56.5 20
q36 0 57.5 -19.5t21.5 -51.5q0 -33 -21.5 -53t-57.5 -20z" />
    <glyph glyph-name="gdotaccent" unicode="&#x121;" horiz-adv-x="623" 
d="M284 -231q-62 0 -109.5 8t-79 24t-47.5 39.5t-16 54.5q0 28 11.5 48t34.5 37t56 30v4q-28 9 -47 31.5t-19 47.5t15 53t55 64v3q-40 20 -60.5 54.5t-20.5 83.5q0 57 29.5 97.5t81.5 62.5t121 22q26 0 49.5 -3t45.5 -9.5t42 -17.5q20 48 50.5 74t71.5 26q20 0 37 -7.5
t26.5 -20t9.5 -30.5q0 -24 -19 -41.5t-43 -17.5q-15 0 -26 7t-19 20l-11 20q-9 -13 -17 -27.5t-16 -33.5q22 -23 34 -52t12 -64q0 -53 -27.5 -93t-78 -62.5t-119.5 -22.5q-25 0 -49 3t-37 7q-18 -17 -27 -32.5t-9 -28.5q0 -16 9.5 -25t26.5 -12t38 -3h149q90 0 140.5 -29.5
t50.5 -99.5q0 -33 -12 -61.5t-35.5 -52t-59.5 -40.5t-84 -26t-108 -9zM295 -155q52 0 89.5 11t58 30.5t20.5 44.5q0 29 -24.5 43t-70.5 14h-177q-23 -16 -35 -34.5t-12 -41.5q0 -32 35.5 -49.5t115.5 -17.5zM287 253q55 0 83.5 26.5t28.5 74.5q0 49 -31 78t-86 29
q-52 0 -79.5 -29t-27.5 -76q0 -46 30.5 -74.5t81.5 -28.5zM283 626q-35 0 -56.5 20t-21.5 52t21.5 52.5t56.5 20.5q36 0 57.5 -20t21.5 -52t-21.5 -52.5t-57.5 -20.5z" />
    <glyph glyph-name="uni0122" unicode="&#x122;" horiz-adv-x="827" 
d="M407 -14q-109 0 -186.5 45.5t-118.5 127t-41 186.5q0 87 25 155.5t70.5 116.5t109 72.5t141.5 24.5q64 0 109.5 -15.5t80.5 -42.5l11 58h55l42 -229l-65 -14q-22 60 -54 96t-74.5 52.5t-98.5 16.5q-53 0 -93.5 -17.5t-69 -51t-43 -83.5t-14.5 -116q0 -67 16 -120.5
t46.5 -92t75.5 -59t102 -20.5q34 0 62.5 5.5t51.5 16t40 26.5v104q0 23 -5.5 34.5t-30.5 12.5l-62 4v60h297v-60l-50 -4q-17 -1 -24.5 -11.5t-7.5 -39.5v-227h-63l-27 55q-25 -19 -57.5 -34t-70 -23.5t-79.5 -8.5zM380 -287l-30 35q19 16 30 29.5t16.5 27t5.5 25.5h-11
q-27 0 -39 14t-12 36q0 20 8.5 34t24.5 21t37 7q24 0 40.5 -10.5t25 -28t8.5 -39.5q0 -26 -11.5 -54t-34.5 -53t-58 -44z" />
    <glyph glyph-name="uni0123" unicode="&#x123;" horiz-adv-x="623" 
d="M284 -231q-62 0 -109.5 8t-79 24t-47.5 39.5t-16 54.5q0 28 11.5 48t34.5 37t56 30v4q-28 9 -47 31.5t-19 47.5t15 53t55 64v3q-40 20 -60.5 54.5t-20.5 83.5q0 57 29.5 97.5t81.5 62.5t121 22q26 0 49.5 -3t45.5 -9.5t42 -17.5q20 48 50.5 74t71.5 26q20 0 37 -7.5
t26.5 -20t9.5 -30.5q0 -24 -19 -41.5t-43 -17.5q-15 0 -26 7t-19 20l-11 20q-9 -13 -17 -27.5t-16 -33.5q22 -23 34 -52t12 -64q0 -53 -27.5 -93t-78 -62.5t-119.5 -22.5q-25 0 -49 3t-37 7q-18 -17 -27 -32.5t-9 -28.5q0 -16 9.5 -25t26.5 -12t38 -3h149q90 0 140.5 -29.5
t50.5 -99.5q0 -33 -12 -61.5t-35.5 -52t-59.5 -40.5t-84 -26t-108 -9zM295 -155q52 0 89.5 11t58 30.5t20.5 44.5q0 29 -24.5 43t-70.5 14h-177q-23 -16 -35 -34.5t-12 -41.5q0 -32 35.5 -49.5t115.5 -17.5zM287 253q55 0 83.5 26.5t28.5 74.5q0 49 -31 78t-86 29
q-52 0 -79.5 -29t-27.5 -76q0 -46 30.5 -74.5t81.5 -28.5zM284 589q-36 0 -55 23t-19 53q0 26 11 53.5t33 52t56 43.5l31 -38q-19 -15 -29.5 -28t-14.5 -25t-4 -24h8q29 0 40 -14t11 -35q0 -19 -8.5 -33t-23.5 -21t-36 -7z" />
    <glyph glyph-name="Hcircumflex" unicode="&#x124;" horiz-adv-x="919" 
d="M66 0v60l63 4q17 1 25.5 10.5t8.5 40.5v474q0 21 -6 33.5t-30 13.5l-61 4v60h312v-60l-63 -4q-18 -1 -25.5 -12t-7.5 -39v-188h357v192q0 19 -4.5 32.5t-31.5 14.5l-59 4v60h310v-60l-63 -4q-19 -1 -25.5 -11.5t-6.5 -39.5v-474q0 -20 5 -32.5t30 -14.5l60 -4v-60h-310
v60l62 4q19 2 26 12t7 39v207h-357v-211q0 -25 7 -35t28 -12l61 -4v-60h-312zM318 744l-29 38l125 130q12 13 23 19.5t26 6.5q13 0 24 -7t27 -24l119 -124l-30 -39l-141 83z" />
    <glyph glyph-name="hcircumflex" unicode="&#x125;" horiz-adv-x="736" 
d="M58 0v60l52 4q19 1 24.5 11t5.5 35v524q0 34 -8 46.5t-38 14.5l-55 3l6 62l196 6l13 -11v-311h2q26 41 74.5 65.5t105.5 24.5q58 0 97.5 -20t61 -58t21.5 -93v-259q0 -16 4 -27.5t29 -13.5l53 -3v-60h-272v60l39 3q20 1 26.5 9t6.5 32v221q0 41 -9.5 67.5t-32.5 40
t-64 13.5q-43 0 -75 -15.5t-49.5 -45.5t-17.5 -72v-205q0 -21 5.5 -31t21.5 -12l48 -5v-60h-271zM5 797l-29 38l125 130q12 13 23 19.5t26 6.5q13 0 24 -7t27 -24l119 -124l-30 -39l-141 83z" />
    <glyph glyph-name="Hbar" unicode="&#x126;" horiz-adv-x="905" 
d="M64 0v60l62 5q20 2 26.5 12t6.5 39v358h-101l9 65h92v50q0 26 -7 36t-29 12l-59 4v59h309v-59l-63 -5q-17 -1 -24 -11.5t-7 -39.5v-46h349v50q0 21 -5 33.5t-30 13.5l-58 5v59h306v-59l-61 -4q-18 -2 -25 -12.5t-7 -38.5v-47h94v-65h-94v-362q0 -22 5.5 -33.5t29.5 -13.5
l58 -5v-60h-306v60l61 5q19 2 25.5 12t6.5 39v195h-349v-199q0 -26 7 -35.5t27 -11.5l60 -5v-60h-309zM279 382h349v92h-349v-92z" />
    <glyph glyph-name="hbar" unicode="&#x127;" horiz-adv-x="736" 
d="M58 0v60l52 4q19 1 24.5 11t5.5 35v456h-112l9 60h103v16q0 30 -8 40.5t-38 12.5l-55 4l6 61l196 6l13 -11v-129h127v-60h-127v-122h2q26 41 74.5 65.5t105.5 24.5q58 0 97.5 -20t61 -58t21.5 -93v-259q0 -16 4 -27.5t29 -13.5l53 -3v-60h-272v60l39 3q20 1 26.5 9
t6.5 32v221q0 41 -9.5 67.5t-32.5 40t-64 13.5q-43 0 -75 -15.5t-49.5 -45.5t-17.5 -72v-205q0 -21 5.5 -31t21.5 -12l48 -5v-60h-271z" />
    <glyph glyph-name="Itilde" unicode="&#x128;" horiz-adv-x="445" 
d="M66 0v60l64 4q17 1 25 11t8 40v474q0 22 -6 34t-31 13l-60 4v60h313v-60l-64 -4q-19 -1 -26 -12t-7 -39v-474q0 -23 6.5 -34t28.5 -13l62 -4v-60h-313zM302 776q-21 0 -41.5 5.5t-46.5 17.5q-22 10 -37 15.5t-24 7.5t-17 2q-12 0 -21.5 -7.5t-23.5 -30.5l-44 26
q18 39 34 60t33 28.5t38 7.5t41 -5.5t50 -18.5q29 -13 46 -18t26 -5q11 0 19.5 8t21.5 30l44 -25q-18 -39 -33.5 -60t-31 -29.5t-33.5 -8.5z" />
    <glyph glyph-name="itilde" unicode="&#x129;" horiz-adv-x="382" 
d="M47 0v60l63 4q20 1 26.5 11.5t6.5 38.5v276q0 35 -7 47.5t-32 13.5l-56 3l8 63l187 11l14 -8v-409q0 -20 5 -33t29 -14l62 -4v-60h-306zM238 614q-20 0 -40.5 6t-47.5 18q-21 10 -36 15.5t-24.5 7.5t-16.5 2q-12 0 -21.5 -8t-24.5 -31l-44 27q19 39 34.5 59.5t32.5 28.5
t38 8q22 0 42 -5.5t49 -18.5t46.5 -18.5t26.5 -5.5q11 0 19.5 8.5t21.5 30.5l44 -26q-18 -38 -33.5 -59.5t-31 -30t-34.5 -8.5z" />
    <glyph glyph-name="Imacron" unicode="&#x12a;" horiz-adv-x="445" 
d="M66 0v60l64 4q17 1 25 11t8 40v474q0 22 -6 34t-31 13l-60 4v60h313v-60l-64 -4q-19 -1 -26 -12t-7 -39v-474q0 -23 6.5 -34t28.5 -13l62 -4v-60h-313zM71 794v89h304v-89h-304z" />
    <glyph glyph-name="imacron" unicode="&#x12b;" horiz-adv-x="382" 
d="M47 0v60l63 4q20 1 26.5 11.5t6.5 38.5v276q0 35 -7 47.5t-32 13.5l-56 3l8 63l187 11l14 -8v-409q0 -20 5 -33t29 -14l62 -4v-60h-306zM10 634v89h302v-89h-302z" />
    <glyph glyph-name="Ibreve" unicode="&#x12c;" horiz-adv-x="445" 
d="M66 0v60l64 4q17 1 25 11t8 40v474q0 22 -6 34t-31 13l-60 4v60h313v-60l-64 -4q-19 -1 -26 -12t-7 -39v-474q0 -23 6.5 -34t28.5 -13l62 -4v-60h-313zM223 758q-53 0 -88 23.5t-54.5 63t-24.5 87.5l58 14q14 -50 39.5 -74.5t73.5 -24.5q50 0 76 26.5t37 70.5l56 -12
q-4 -44 -24.5 -84t-57.5 -65t-91 -25z" />
    <glyph glyph-name="ibreve" unicode="&#x12d;" horiz-adv-x="382" 
d="M47 0v60l63 4q20 1 26.5 11.5t6.5 38.5v276q0 35 -7 47.5t-32 13.5l-56 3l8 63l187 11l14 -8v-409q0 -20 5 -33t29 -14l62 -4v-60h-306zM158 597q-51 0 -85.5 25t-53 65.5t-23.5 88.5l53 12q12 -50 40 -76t74 -26q47 0 74.5 29t37.5 73l51 -12q-4 -44 -24 -85.5
t-56 -67.5t-88 -26z" />
    <glyph glyph-name="Iogonek" unicode="&#x12e;" horiz-adv-x="445" 
d="M215 -233q-33 0 -56 12t-34.5 31.5t-11.5 43.5q0 34 19.5 60.5t48 47.5t56.5 38h-171v60l64 4q17 1 25 11t8 40v474q0 22 -6 34t-31 13l-60 4v60h313v-60l-64 -4q-19 -1 -26 -12t-7 -39v-474q0 -23 6.5 -34t28.5 -13l62 -4v-60h-78q-44 -36 -66.5 -64t-22.5 -58
q0 -20 11 -30.5t34 -10.5q15 0 31 4.5t28 10.5l17 -46q-13 -9 -31 -18.5t-40 -15t-47 -5.5z" />
    <glyph glyph-name="iogonek" unicode="&#x12f;" horiz-adv-x="376" 
d="M190 -233q-34 0 -57 12t-34.5 31.5t-11.5 43.5q0 34 19.5 60.5t48.5 47.5t56 38h-164v60l63 4q20 1 26.5 11.5t6.5 38.5v276q0 35 -7 47.5t-32 13.5l-56 3l8 63l187 11l14 -8v-409q0 -20 5 -33t29 -14l62 -4v-60h-77q-45 -36 -67 -64t-22 -58q0 -20 10.5 -30.5
t33.5 -10.5q15 0 31.5 4.5t27.5 10.5l18 -46q-13 -9 -31.5 -18.5t-40.5 -15t-46 -5.5zM185 616q-35 0 -57 19.5t-22 52.5q0 32 22 52t57 20q36 0 57.5 -19.5t21.5 -52.5q0 -32 -22 -52t-57 -20z" />
    <glyph glyph-name="Idotaccent" unicode="&#x130;" horiz-adv-x="445" 
d="M66 0v60l64 4q17 1 25 11t8 40v474q0 22 -6 34t-31 13l-60 4v60h313v-60l-64 -4q-19 -1 -26 -12t-7 -39v-474q0 -23 6.5 -34t28.5 -13l62 -4v-60h-313zM222 767q-35 0 -56.5 20t-21.5 52t21.5 52t56.5 20q36 0 57.5 -19.5t21.5 -51.5q0 -33 -21.5 -53t-57.5 -20z" />
    <glyph glyph-name="dotlessi" unicode="&#x131;" horiz-adv-x="382" 
d="M47 0v60l63 4q20 1 26.5 11.5t6.5 38.5v276q0 35 -7 47.5t-32 13.5l-56 3l8 63l187 11l14 -8v-409q0 -20 5 -33t29 -14l62 -4v-60h-306z" />
    <glyph glyph-name="IJ" unicode="&#x132;" horiz-adv-x="1041" 
d="M66 0v60l64 4q17 1 25 11t8 40v474q0 22 -6 34t-31 13l-60 4v60h313v-60l-64 -4q-19 -1 -26 -12t-7 -39v-474q0 -23 6.5 -34t28.5 -13l62 -4v-60h-313zM674 -14q-59 0 -104.5 16.5t-71.5 46.5t-26 68q0 27 11 47.5t30.5 32t44.5 11.5q31 0 48.5 -14t17.5 -36
q0 -14 -6.5 -29.5t-25.5 -46.5q14 -10 37.5 -17t45.5 -7q37 0 61 16.5t36 49.5t12 81v381q0 23 -6 35.5t-30 13.5l-73 4v61h327v-60l-65 -4q-19 -1 -26 -13t-7 -38v-353q0 -117 -56.5 -181.5t-173.5 -64.5z" />
    <glyph glyph-name="ij" unicode="&#x133;" horiz-adv-x="721" 
d="M47 0v60l63 4q20 1 26.5 11.5t6.5 38.5v276q0 35 -7 47.5t-32 13.5l-56 3l8 63l187 11l14 -8v-409q0 -20 5 -33t29 -14l62 -4v-60h-306zM185 616q-35 0 -57 19.5t-22 52.5q0 32 22 52t57 20q36 0 57.5 -19.5t21.5 -52.5q0 -32 -22 -52t-57 -20zM453 -229l-34 46
q25 19 42 40.5t28 47t16 57t5 71.5v357q0 34 -7.5 47t-31.5 14l-56 3l7 63l188 11l14 -8v-424q0 -67 -9.5 -117.5t-29 -88.5t-52.5 -66.5t-80 -52.5zM552 616q-35 0 -57 19.5t-22 52.5q0 32 22 52t57 20t57 -19.5t22 -52.5q0 -32 -22 -52t-57 -20z" />
    <glyph glyph-name="Jcircumflex" unicode="&#x134;" horiz-adv-x="596" 
d="M229 -14q-59 0 -104.5 16.5t-71.5 46.5t-26 68q0 27 11 47.5t30.5 32t44.5 11.5q31 0 48.5 -14t17.5 -36q0 -14 -6.5 -29.5t-25.5 -46.5q14 -10 37.5 -17t45.5 -7q37 0 61 16.5t36 49.5t12 81v381q0 23 -6 35.5t-30 13.5l-73 4v61h327v-60l-65 -4q-19 -1 -26 -13t-7 -38
v-353q0 -117 -56.5 -181.5t-173.5 -64.5zM251 744l-29 38l125 130q12 13 23 19.5t26 6.5q13 0 24 -7t27 -24l119 -124l-30 -39l-141 83z" />
    <glyph glyph-name="jcircumflex" unicode="&#x135;" horiz-adv-x="339" 
d="M79 -229l-34 46q25 19 42 40.5t28 47t16 57t5 71.5v357q0 35 -7.5 47.5t-31.5 13.5l-56 3l7 63l188 11l14 -8v-424q0 -67 -9.5 -117.5t-29 -88.5t-52.5 -66.5t-80 -52.5zM29 591l-36 34l116 146q12 14 25 21t30 7q12 0 20.5 -3t17 -10.5t19.5 -21.5l111 -138l-36 -35
l-132 99z" />
    <glyph glyph-name="uni0136" unicode="&#x136;" horiz-adv-x="799" 
d="M672 -14q-35 0 -61.5 9t-46.5 24.5t-36 35t-29 38.5l-156 226l-61 -59v-149q0 -25 7 -35t28 -12l61 -4v-60h-312v60l63 4q17 1 25.5 10.5t8.5 40.5v474q0 26 -7 36t-29 11l-61 4v60h312v-60l-64 -4q-18 -1 -25 -12t-7 -39v-231l248 234q12 10 15.5 21t-2 18.5t-22.5 8.5
l-47 3l10 61h255v-61l-42 -5q-12 -1 -19.5 -4.5t-18 -13t-30.5 -28.5l-198 -187l182 -255q21 -29 37 -47t33.5 -26.5t41.5 -8.5q12 0 25.5 2t27.5 6l13 -45q-20 -19 -51 -30t-68 -11zM385 -287l-30 35q19 16 30 29.5t16.5 27t5.5 25.5h-11q-27 0 -39 14t-12 36q0 20 8.5 34
t24.5 21t37 7q24 0 40.5 -10.5t25 -28t8.5 -39.5q0 -26 -11.5 -54t-34.5 -53t-58 -44z" />
    <glyph glyph-name="uni0137" unicode="&#x137;" horiz-adv-x="685" 
d="M579 -10q-32 0 -55 8t-43 24.5t-43 44.5l-175 202l1 11l173 137q14 11 14 25t-15 15l-42 4l13 60h239v-59l-34 -4q-19 -2 -38 -12t-37 -24l-155 -125l167 -185q20 -24 38.5 -34.5t42.5 -10.5q9 0 18 2t23 6l13 -44q-22 -19 -50 -30t-55 -11zM58 0v60l52 4q19 1 24.5 11
t5.5 35v524q0 34 -8 46.5t-38 14.5l-55 3l6 62l196 6l13 -11v-645q0 -24 6 -34t24 -12l42 -4v-60h-268zM316 -287l-30 35q19 16 30 29.5t16.5 27t5.5 25.5h-11q-27 0 -39 14t-12 36q0 20 8.5 34t24.5 21t37 7q24 0 40.5 -10.5t25 -28t8.5 -39.5q0 -26 -11.5 -54t-34.5 -53
t-58 -44z" />
    <glyph glyph-name="kgreenlandic" unicode="&#x138;" horiz-adv-x="686" 
d="M580 -10q-30 0 -52 7t-42.5 23.5t-46.5 46.5l-175 202l1 11l173 137q14 11 14 25t-15 15l-42 4l13 60h239v-59l-34 -4q-19 -1 -38 -11.5t-37 -24.5l-155 -125l167 -185q20 -24 39 -34.5t42 -10.5q9 0 18 2t23 6l13 -44q-22 -19 -49.5 -30t-55.5 -11zM58 0v60l53 4
q19 1 24.5 11.5t5.5 35.5v277q0 36 -7 49t-33 14l-55 3l8 63l187 11l14 -8v-410q0 -24 6 -34t23 -12l43 -4v-60h-269z" />
    <glyph glyph-name="Lacute" unicode="&#x139;" horiz-adv-x="666" 
d="M66 0v60l63 4q17 1 25.5 10.5t8.5 40.5v474q0 25 -6.5 35.5t-29.5 11.5l-61 4v60h321v-60l-69 -5q-21 -1 -28.5 -10.5t-7.5 -35.5v-519h113q35 0 58.5 4.5t40.5 20t31.5 46t30.5 82.5h68l-24 -223h-534zM159 750l-27 39l137 123q14 12 24 17t19 5q22 0 35.5 -18.5
t13.5 -38.5q0 -21 -11.5 -35.5t-34.5 -23.5z" />
    <glyph glyph-name="lacute" unicode="&#x13a;" horiz-adv-x="379" 
d="M58 0v60l50 4q19 1 25.5 10t6.5 37v523q0 34 -8.5 46.5t-37.5 14.5l-55 3l6 62l196 6l13 -11v-647q0 -23 5.5 -33t27.5 -12l53 -3v-60h-282zM84 803l-27 39l137 123q14 12 24 17t19 5q22 0 35.5 -18.5t13.5 -38.5q0 -21 -11.5 -35.5t-34.5 -23.5z" />
    <glyph glyph-name="uni013B" unicode="&#x13b;" horiz-adv-x="666" 
d="M66 0v60l63 4q17 1 25.5 10.5t8.5 40.5v474q0 25 -6.5 35.5t-29.5 11.5l-61 4v60h321v-60l-69 -5q-21 -1 -28.5 -10.5t-7.5 -35.5v-519h113q35 0 58.5 4.5t40.5 20t31.5 46t30.5 82.5h68l-24 -223h-534zM323 -287l-30 35q19 16 30 29.5t16.5 27t5.5 25.5h-11
q-27 0 -39 14t-12 36q0 20 8.5 34t24.5 21t37 7q24 0 40.5 -10.5t25 -28t8.5 -39.5q0 -26 -11.5 -54t-34.5 -53t-58 -44z" />
    <glyph glyph-name="uni013C" unicode="&#x13c;" horiz-adv-x="379" 
d="M58 0v60l50 4q19 1 25.5 10t6.5 37v523q0 34 -8.5 46.5t-37.5 14.5l-55 3l6 62l196 6l13 -11v-647q0 -23 5.5 -33t27.5 -12l53 -3v-60h-282zM164 -287l-30 35q19 16 30 29.5t16.5 27t5.5 25.5h-11q-27 0 -39 14t-12 36q0 20 8.5 34t24.5 21t37 7q24 0 40.5 -10.5t25 -28
t8.5 -39.5q0 -26 -11.5 -54t-34.5 -53t-58 -44z" />
    <glyph glyph-name="Lcaron" unicode="&#x13d;" horiz-adv-x="666" 
d="M66 0v60l63 4q17 1 25.5 10.5t8.5 40.5v474q0 25 -6.5 35.5t-29.5 11.5l-61 4v60h321v-60l-69 -5q-21 -1 -28.5 -10.5t-7.5 -35.5v-519h113q35 0 58.5 4.5t40.5 20t31.5 46t30.5 82.5h68l-24 -223h-534zM476 523l-35 36q22 26 32 48.5t10 38.5q0 12 -4 20t-15 19
q-10 9 -14.5 17.5t-4.5 20.5q0 27 19.5 39t40.5 12q39 0 56.5 -23.5t17.5 -51.5q0 -24 -12 -54t-35 -61.5t-56 -60.5z" />
    <glyph glyph-name="lcaron" unicode="&#x13e;" horiz-adv-x="460" 
d="M58 0v60l50 4q19 1 25.5 10t6.5 37v523q0 34 -8.5 46.5t-37.5 14.5l-55 3l6 62l196 6l13 -11v-647q0 -23 5.5 -33t27.5 -12l53 -3v-60h-282zM350 521l-35 36q22 26 32 48.5t10 38.5q0 12 -4 20t-15 19q-10 9 -14.5 17.5t-4.5 20.5q0 27 19.5 39t40.5 12q39 0 56.5 -23.5
t17.5 -51.5q0 -24 -12 -54t-35 -61.5t-56 -60.5z" />
    <glyph glyph-name="Ldot" unicode="&#x13f;" horiz-adv-x="666" 
d="M66 0v60l63 4q17 1 25.5 10.5t8.5 40.5v474q0 25 -6.5 35.5t-29.5 11.5l-61 4v60h321v-60l-69 -5q-21 -1 -28.5 -10.5t-7.5 -35.5v-519h113q35 0 58.5 4.5t40.5 20t31.5 46t30.5 82.5h68l-24 -223h-534zM539 319q-35 0 -56.5 20t-21.5 52t21.5 52.5t56.5 20.5
q36 0 57.5 -20t21.5 -52t-21.5 -52.5t-57.5 -20.5z" />
    <glyph glyph-name="ldot" unicode="&#x140;" horiz-adv-x="435" 
d="M58 0v60l50 4q19 1 25.5 10t6.5 37v523q0 34 -8.5 46.5t-37.5 14.5l-55 3l6 62l196 6l13 -11v-647q0 -23 5.5 -33t27.5 -12l53 -3v-60h-282zM411 346q-35 0 -56.5 20t-21.5 52t21.5 52.5t56.5 20.5q36 0 57.5 -20t21.5 -52t-21.5 -52.5t-57.5 -20.5z" />
    <glyph glyph-name="Lslash" unicode="&#x141;" horiz-adv-x="666" 
d="M556 223h68l-24 -223h-534v60l63 4q17 1 25.5 10.5t8.5 40.5v178l-107 -56v79l107 55v218q0 25 -6.5 35.5t-29.5 11.5l-61 4v60h321v-60l-69 -5q-21 -1 -28.5 -10.5t-7.5 -35.5v-175l177 93v-78l-177 -92v-267h113q35 0 58.5 4.5t40.5 20t31.5 46t30.5 82.5z" />
    <glyph glyph-name="lslash" unicode="&#x142;" horiz-adv-x="379" 
d="M58 0v60l50 4q19 1 25.5 10t6.5 37v235l-105 -56v81l105 55v208q0 34 -8.5 46.5t-37.5 14.5l-55 3l6 62l196 6l13 -11v-291l104 55v-81l-104 -54v-276q0 -23 5.5 -33t27.5 -12l53 -3v-60h-282z" />
    <glyph glyph-name="Nacute" unicode="&#x143;" horiz-adv-x="910" 
d="M66 0v60l64 4q19 1 26 12t7 39v474q0 25 -6.5 35.5t-28.5 11.5l-62 4v60h248l350 -538h4v427q0 25 -7 35.5t-29 11.5l-59 4v60h277v-60l-61 -4q-20 -1 -27 -12t-7 -39v-585h-122l-380 568h-5v-457q0 -20 5 -32.5t30 -14.5l62 -4v-60h-279zM384 750l-27 39l137 123
q14 12 24 17t19 5q22 0 35.5 -18.5t13.5 -38.5q0 -21 -11.5 -35.5t-34.5 -23.5z" />
    <glyph glyph-name="nacute" unicode="&#x144;" horiz-adv-x="737" 
d="M60 0v60l54 4q14 1 21 10t7 38v282q0 31 -7 43.5t-30 13.5l-55 3l8 62l161 12l14 -8l8 -90h6q29 48 80.5 76t111.5 28q57 0 97 -20t60.5 -58t20.5 -93v-259q0 -20 6 -29.5t28 -11.5l52 -3v-60h-271v60l40 3q17 1 24 9t7 32v221q0 41 -9 67.5t-31.5 40t-63.5 13.5
q-43 0 -75.5 -16t-50 -45.5t-17.5 -71.5v-205q0 -24 5.5 -33.5t21.5 -11.5l47 -3v-60h-270zM337 592l-32 33l109 139q12 16 22.5 23t22.5 7q17 0 28.5 -8.5t17 -21.5t5.5 -26q0 -16 -9 -29.5t-27 -25.5z" />
    <glyph glyph-name="uni0145" unicode="&#x145;" horiz-adv-x="910" 
d="M66 0v60l64 4q19 1 26 12t7 39v474q0 25 -6.5 35.5t-28.5 11.5l-62 4v60h248l350 -538h4v427q0 25 -7 35.5t-29 11.5l-59 4v60h277v-60l-61 -4q-20 -1 -27 -12t-7 -39v-585h-122l-380 568h-5v-457q0 -20 5 -32.5t30 -14.5l62 -4v-60h-279zM413 -287l-30 35q19 16 30 29.5
t16.5 27t5.5 25.5h-11q-27 0 -39 14t-12 36q0 20 8.5 34t24.5 21t37 7q24 0 40.5 -10.5t25 -28t8.5 -39.5q0 -26 -11.5 -54t-34.5 -53t-58 -44z" />
    <glyph glyph-name="uni0146" unicode="&#x146;" horiz-adv-x="737" 
d="M60 0v60l54 4q14 1 21 10t7 38v282q0 31 -7 43.5t-30 13.5l-55 3l8 62l161 12l14 -8l8 -90h6q29 48 80.5 76t111.5 28q57 0 97 -20t60.5 -58t20.5 -93v-259q0 -20 6 -29.5t28 -11.5l52 -3v-60h-271v60l40 3q17 1 24 9t7 32v221q0 41 -9 67.5t-31.5 40t-63.5 13.5
q-43 0 -75.5 -16t-50 -45.5t-17.5 -71.5v-205q0 -24 5.5 -33.5t21.5 -11.5l47 -3v-60h-270zM345 -287l-30 35q19 16 30 29.5t16.5 27t5.5 25.5h-11q-27 0 -39 14t-12 36q0 20 8.5 34t24.5 21t37 7q24 0 40.5 -10.5t25 -28t8.5 -39.5q0 -26 -11.5 -54t-34.5 -53t-58 -44z" />
    <glyph glyph-name="Ncaron" unicode="&#x147;" horiz-adv-x="910" 
d="M66 0v60l64 4q19 1 26 12t7 39v474q0 25 -6.5 35.5t-28.5 11.5l-62 4v60h248l350 -538h4v427q0 25 -7 35.5t-29 11.5l-59 4v60h277v-60l-61 -4q-20 -1 -27 -12t-7 -39v-585h-122l-380 568h-5v-457q0 -20 5 -32.5t30 -14.5l62 -4v-60h-279zM447 758q-12 0 -23.5 7
t-28.5 24l-121 124l30 40l144 -84l146 84l28 -39l-127 -130q-12 -13 -23 -19.5t-25 -6.5z" />
    <glyph glyph-name="ncaron" unicode="&#x148;" horiz-adv-x="737" 
d="M60 0v60l54 4q14 1 21 10t7 38v282q0 31 -7 43.5t-30 13.5l-55 3l8 62l161 12l14 -8l8 -90h6q29 48 80.5 76t111.5 28q57 0 97 -20t60.5 -58t20.5 -93v-259q0 -20 6 -29.5t28 -11.5l52 -3v-60h-271v60l40 3q17 1 24 9t7 32v221q0 41 -9 67.5t-31.5 40t-63.5 13.5
q-43 0 -75.5 -16t-50 -45.5t-17.5 -71.5v-205q0 -24 5.5 -33.5t21.5 -11.5l47 -3v-60h-270zM376 593q-13 0 -22 3t-17 11t-18 20l-110 139l39 35l128 -99l132 99l38 -34l-118 -147q-11 -13 -23 -20t-29 -7z" />
    <glyph glyph-name="napostrophe" unicode="&#x149;" horiz-adv-x="902" 
d="M225 0v60l54 4q14 1 21 10t7 38v282q0 31 -7 43.5t-30 13.5l-55 3l8 62l161 12l14 -8l8 -90h6q29 48 80.5 76t111.5 28q57 0 97 -20t60.5 -58t20.5 -93v-259q0 -20 6 -29.5t28 -11.5l52 -3v-60h-271v60l40 3q17 1 24 9t7 32v221q0 41 -9 67.5t-31.5 40t-63.5 13.5
q-43 0 -75.5 -16t-50 -45.5t-17.5 -71.5v-205q0 -24 5.5 -33.5t21.5 -11.5l47 -3v-60h-270zM68 491l-30 41q43 28 62 54.5t20 52.5h-20q-19 0 -33.5 7t-21.5 19.5t-7 29.5q0 31 20.5 52.5t55.5 21.5q49 0 68.5 -26.5t19.5 -63.5q0 -30 -15.5 -64.5t-45 -67t-73.5 -56.5z" />
    <glyph glyph-name="Eng" unicode="&#x14a;" horiz-adv-x="910" 
d="M66 0v60l64 5q19 1 26 11.5t7 39.5v472q0 26 -6.5 36t-28.5 12l-62 4v60h248l348 -536h5v424q0 26 -7 36t-29 11l-59 5v60h278v-60l-61 -4q-20 -1 -27 -12t-7 -39v-490q0 -67 -10 -117.5t-31 -88t-55 -66t-82 -52.5l-33 46q23 17 39.5 36t27 41t16.5 48.5t7 58.5v1
l-379 564h-5v-454q0 -21 4.5 -33t30.5 -14l61 -5v-60h-280z" />
    <glyph glyph-name="eng" unicode="&#x14b;" horiz-adv-x="706" 
d="M438 534q58 0 98 -20t60.5 -58t20.5 -93v-268q0 -67 -9 -117.5t-29 -88t-53 -66.5t-80 -53l-34 47q25 18 42 39.5t28 47t16 57.5t5 71v293q0 41 -9 67.5t-31.5 40t-63.5 13.5q-44 0 -76 -16t-49.5 -45.5t-17.5 -71.5v-205q0 -23 5 -32.5t22 -11.5l48 -4v-60h-271v60l54 4
q14 2 21 11t7 37v282q0 31 -7 43t-30 14l-55 4l8 61l160 12l15 -8l8 -90h5q30 48 81.5 76t110.5 28z" />
    <glyph glyph-name="Omacron" unicode="&#x14c;" horiz-adv-x="840" 
d="M415 -14q-109 0 -188.5 44.5t-122.5 123t-43 183.5q0 117 44.5 201t126.5 130t195 46q106 0 185.5 -42.5t123 -120t43.5 -183.5q0 -84 -25.5 -154t-73.5 -121t-115 -79t-150 -28zM428 67q53 0 94 17.5t69 52t42.5 87.5t14.5 125q0 69 -16.5 123t-46.5 90t-73.5 54
t-99.5 18q-52 0 -93 -17.5t-69 -52t-42.5 -87t-14.5 -121.5q0 -70 16 -124t47 -90.5t74.5 -55.5t97.5 -19zM269 794v89h304v-89h-304z" />
    <glyph glyph-name="omacron" unicode="&#x14d;" horiz-adv-x="656" 
d="M319 -14q-81 0 -139.5 31.5t-90 90t-31.5 140.5q0 91 34.5 154.5t97 97.5t146.5 34q81 0 140.5 -30.5t92 -89t32.5 -143.5q0 -90 -33 -154t-96 -97.5t-153 -33.5zM335 60q48 0 80 21t48.5 62.5t16.5 102.5q0 54 -11 94.5t-32 67t-50.5 39.5t-66.5 13q-44 0 -75.5 -20.5
t-48.5 -62t-17 -105.5q0 -68 19 -116t54 -72t83 -24zM176 635v89h302v-89h-302z" />
    <glyph glyph-name="Obreve" unicode="&#x14e;" horiz-adv-x="840" 
d="M415 -14q-109 0 -188.5 44.5t-122.5 123t-43 183.5q0 117 44.5 201t126.5 130t195 46q106 0 185.5 -42.5t123 -120t43.5 -183.5q0 -84 -25.5 -154t-73.5 -121t-115 -79t-150 -28zM428 67q53 0 94 17.5t69 52t42.5 87.5t14.5 125q0 69 -16.5 123t-46.5 90t-73.5 54
t-99.5 18q-52 0 -93 -17.5t-69 -52t-42.5 -87t-14.5 -121.5q0 -70 16 -124t47 -90.5t74.5 -55.5t97.5 -19zM421 758q-53 0 -88 23.5t-54.5 63t-24.5 87.5l58 14q14 -50 39.5 -74.5t73.5 -24.5q50 0 76 26.5t37 70.5l56 -12q-4 -44 -24.5 -84t-57.5 -65t-91 -25z" />
    <glyph glyph-name="obreve" unicode="&#x14f;" horiz-adv-x="656" 
d="M319 -14q-81 0 -139.5 31.5t-90 90t-31.5 140.5q0 91 34.5 154.5t97 97.5t146.5 34q81 0 140.5 -30.5t92 -89t32.5 -143.5q0 -90 -33 -154t-96 -97.5t-153 -33.5zM335 60q48 0 80 21t48.5 62.5t16.5 102.5q0 54 -11 94.5t-32 67t-50.5 39.5t-66.5 13q-44 0 -75.5 -20.5
t-48.5 -62t-17 -105.5q0 -68 19 -116t54 -72t83 -24zM324 598q-51 0 -85.5 25t-53 65.5t-23.5 88.5l53 12q12 -50 40 -76t74 -26q47 0 74.5 29t37.5 73l51 -12q-4 -44 -24 -85.5t-56 -67.5t-88 -26z" />
    <glyph glyph-name="Ohungarumlaut" unicode="&#x150;" horiz-adv-x="840" 
d="M415 -14q-109 0 -188.5 44.5t-122.5 123t-43 183.5q0 117 44.5 201t126.5 130t195 46q106 0 185.5 -42.5t123 -120t43.5 -183.5q0 -84 -25.5 -154t-73.5 -121t-115 -79t-150 -28zM428 67q53 0 94 17.5t69 52t42.5 87.5t14.5 125q0 69 -16.5 123t-46.5 90t-73.5 54
t-99.5 18q-52 0 -93 -17.5t-69 -52t-42.5 -87t-14.5 -121.5q0 -70 16 -124t47 -90.5t74.5 -55.5t97.5 -19zM312 749l-28 39l120 126q12 13 22 19t20 6q22 0 33 -15.5t11 -33.5q0 -21 -11.5 -34.5t-32.5 -25.5zM500 749l-27 40l125 114q14 13 23.5 19t19.5 6q21 0 34 -15.5
t13 -35.5q0 -21 -12 -35t-33 -24z" />
    <glyph glyph-name="ohungarumlaut" unicode="&#x151;" horiz-adv-x="656" 
d="M319 -14q-81 0 -139.5 31.5t-90 90t-31.5 140.5q0 91 34.5 154.5t97 97.5t146.5 34q81 0 140.5 -30.5t92 -89t32.5 -143.5q0 -90 -33 -154t-96 -97.5t-153 -33.5zM335 60q48 0 80 21t48.5 62.5t16.5 102.5q0 54 -11 94.5t-32 67t-50.5 39.5t-66.5 13q-44 0 -75.5 -20.5
t-48.5 -62t-17 -105.5q0 -68 19 -116t54 -72t83 -24zM407 591l-32 33l105 137q12 17 22 23.5t21 6.5q16 0 26 -8t15 -20t5 -25q0 -15 -9 -31t-26 -28zM242 591l-32 33l93 142q11 17 20.5 23.5t21.5 6.5q14 0 24.5 -8t16 -20t5.5 -26t-7.5 -28t-24.5 -28z" />
    <glyph glyph-name="OE" unicode="&#x152;" horiz-adv-x="1183" 
d="M409 -14q-104 0 -182.5 44.5t-122 123t-43.5 183.5q0 117 44 201t124.5 130t190.5 46q70 0 129.5 -24t104.5 -73v83h415l37 -174l-66 -17q-16 42 -30 66t-32 36.5t-42 16t-60 3.5h-109v-242h85q33 0 49 5.5t24 22.5t18 53l55 6v-232l-56 -9q-6 39 -15 57.5t-26 23.5
t-51 5h-83v-252h136q37 0 62 5.5t42 19t29 39t23 65.5h68l-24 -198h-449v89q-45 -55 -107.5 -79t-137.5 -24zM428 67q54 0 95 17.5t68.5 52t42 87.5t14.5 124t-16 124.5t-46.5 89.5t-74 54t-98.5 18q-53 0 -93.5 -17.5t-69 -52t-43 -86.5t-14.5 -122t16 -124t47 -90.5
t74.5 -55.5t97.5 -19z" />
    <glyph glyph-name="oe" unicode="&#x153;" horiz-adv-x="1012" 
d="M316 -14q-79 0 -137 31.5t-89.5 90t-31.5 140.5q0 91 34.5 154.5t96 97.5t144.5 34q46 0 85.5 -13t71 -35.5t53.5 -52.5q35 50 87 75.5t119 25.5q63 0 109 -22.5t71 -64.5t25 -101q0 -26 -1.5 -51t-6.5 -51h-346q3 -55 24 -92t59 -56t88 -19q43 0 81.5 15.5t70.5 42.5
l41 -46q-38 -46 -96 -74.5t-124 -28.5q-46 0 -86 12t-71 34t-53 55q-33 -48 -88 -74.5t-130 -26.5zM335 59q48 0 80 21t49 62.5t17 103.5q0 54 -11 94.5t-32.5 67t-51 39.5t-66.5 13q-44 0 -75.5 -20.5t-48.5 -62t-17 -105.5q0 -51 11 -91t31 -67t49 -41t65 -14zM600 313
h238q2 11 3 22t1 22q0 51 -26.5 78.5t-77.5 27.5q-39 0 -68.5 -17.5t-47 -50.5t-22.5 -82z" />
    <glyph glyph-name="Racute" unicode="&#x154;" horiz-adv-x="772" 
d="M650 -14q-40 0 -69.5 12.5t-51.5 41t-42 74.5l-49 117q-11 26 -22.5 44.5t-30.5 28.5t-55 10q-13 0 -25 -0.5t-23 -2.5v-197q0 -28 7.5 -37.5t32.5 -12.5l65 -3v-61h-321v60l63 4q17 1 25.5 10.5t8.5 40.5v474q0 21 -6 33.5t-31 13.5l-60 4v60h293q67 0 120 -10t90 -31
t56.5 -55t19.5 -82q0 -31 -10 -58t-28.5 -48t-42.5 -37t-53 -27t-61 -15v-3q47 -11 73.5 -29t45.5 -62l35 -76q18 -39 31 -61.5t29.5 -31.5t41.5 -9q10 0 21 1.5t27 6.5l13 -46q-23 -19 -52 -30t-65 -11zM341 374q54 0 92.5 16t59 47.5t20.5 75.5q0 48 -22 74t-60.5 36
t-90.5 10h-57v-257q14 -1 31 -1.5t27 -0.5zM285 750l-27 39l137 123q14 12 24 17t19 5q22 0 35.5 -18.5t13.5 -38.5q0 -21 -11.5 -35.5t-34.5 -23.5z" />
    <glyph glyph-name="racute" unicode="&#x155;" horiz-adv-x="544" 
d="M60 0v60l52 4q18 1 24 11t6 37v281q0 33 -7 45t-30 13l-55 3l8 62l161 12l14 -8l8 -91h6q30 51 72 78.5t91 27.5q52 0 81.5 -27t29.5 -73q0 -28 -8 -48t-24.5 -30.5t-41.5 -10.5q-32 0 -48 13.5t-16 34.5q0 8 2 15.5t6 18t11 25.5q-24 10 -49.5 2.5t-47.5 -27.5
t-35.5 -49.5t-13.5 -63.5v-205q0 -24 5 -34.5t24 -11.5l89 -5v-59h-314zM261 592l-32 33l109 139q12 16 22.5 23t22.5 7q17 0 28.5 -8.5t17 -21.5t5.5 -26q0 -16 -9 -29.5t-27 -25.5z" />
    <glyph glyph-name="uni0156" unicode="&#x156;" horiz-adv-x="772" 
d="M650 -14q-40 0 -69.5 12.5t-51.5 41t-42 74.5l-49 117q-11 26 -22.5 44.5t-30.5 28.5t-55 10q-13 0 -25 -0.5t-23 -2.5v-197q0 -28 7.5 -37.5t32.5 -12.5l65 -3v-61h-321v60l63 4q17 1 25.5 10.5t8.5 40.5v474q0 21 -6 33.5t-31 13.5l-60 4v60h293q67 0 120 -10t90 -31
t56.5 -55t19.5 -82q0 -31 -10 -58t-28.5 -48t-42.5 -37t-53 -27t-61 -15v-3q47 -11 73.5 -29t45.5 -62l35 -76q18 -39 31 -61.5t29.5 -31.5t41.5 -9q10 0 21 1.5t27 6.5l13 -46q-23 -19 -52 -30t-65 -11zM341 374q54 0 92.5 16t59 47.5t20.5 75.5q0 48 -22 74t-60.5 36
t-90.5 10h-57v-257q14 -1 31 -1.5t27 -0.5zM366 -287l-30 35q19 16 30 29.5t16.5 27t5.5 25.5h-11q-27 0 -39 14t-12 36q0 20 8.5 34t24.5 21t37 7q24 0 40.5 -10.5t25 -28t8.5 -39.5q0 -26 -11.5 -54t-34.5 -53t-58 -44z" />
    <glyph glyph-name="uni0157" unicode="&#x157;" horiz-adv-x="544" 
d="M60 0v60l52 4q18 1 24 11t6 37v281q0 33 -7 45t-30 13l-55 3l8 62l161 12l14 -8l8 -91h6q30 51 72 78.5t91 27.5q52 0 81.5 -27t29.5 -73q0 -28 -8 -48t-24.5 -30.5t-41.5 -10.5q-32 0 -48 13.5t-16 34.5q0 8 2 15.5t6 18t11 25.5q-24 10 -49.5 2.5t-47.5 -27.5
t-35.5 -49.5t-13.5 -63.5v-205q0 -24 5 -34.5t24 -11.5l89 -5v-59h-314zM175 -287l-30 35q19 16 30 29.5t16.5 27t5.5 25.5h-11q-27 0 -39 14t-12 36q0 20 8.5 34t24.5 21t37 7q24 0 40.5 -10.5t25 -28t8.5 -39.5q0 -26 -11.5 -54t-34.5 -53t-58 -44z" />
    <glyph glyph-name="Rcaron" unicode="&#x158;" horiz-adv-x="772" 
d="M650 -14q-40 0 -69.5 12.5t-51.5 41t-42 74.5l-49 117q-11 26 -22.5 44.5t-30.5 28.5t-55 10q-13 0 -25 -0.5t-23 -2.5v-197q0 -28 7.5 -37.5t32.5 -12.5l65 -3v-61h-321v60l63 4q17 1 25.5 10.5t8.5 40.5v474q0 21 -6 33.5t-31 13.5l-60 4v60h293q67 0 120 -10t90 -31
t56.5 -55t19.5 -82q0 -31 -10 -58t-28.5 -48t-42.5 -37t-53 -27t-61 -15v-3q47 -11 73.5 -29t45.5 -62l35 -76q18 -39 31 -61.5t29.5 -31.5t41.5 -9q10 0 21 1.5t27 6.5l13 -46q-23 -19 -52 -30t-65 -11zM341 374q54 0 92.5 16t59 47.5t20.5 75.5q0 48 -22 74t-60.5 36
t-90.5 10h-57v-257q14 -1 31 -1.5t27 -0.5zM348 758q-12 0 -23.5 7t-28.5 24l-121 124l30 40l144 -84l146 84l28 -39l-127 -130q-12 -13 -23 -19.5t-25 -6.5z" />
    <glyph glyph-name="rcaron" unicode="&#x159;" horiz-adv-x="544" 
d="M60 0v60l52 4q18 1 24 11t6 37v281q0 33 -7 45t-30 13l-55 3l8 62l161 12l14 -8l8 -91h6q30 51 72 78.5t91 27.5q52 0 81.5 -27t29.5 -73q0 -28 -8 -48t-24.5 -30.5t-41.5 -10.5q-32 0 -48 13.5t-16 34.5q0 8 2 15.5t6 18t11 25.5q-24 10 -49.5 2.5t-47.5 -27.5
t-35.5 -49.5t-13.5 -63.5v-205q0 -24 5 -34.5t24 -11.5l89 -5v-59h-314zM300 593q-13 0 -22 3t-17 11t-18 20l-110 139l39 35l128 -99l132 99l38 -34l-118 -147q-11 -13 -23 -20t-29 -7z" />
    <glyph glyph-name="Sacute" unicode="&#x15a;" horiz-adv-x="659" 
d="M350 -14q-56 0 -109 18t-87 47l-17 -57h-53l-22 221l63 7q16 -42 38 -72t50 -48t61 -26.5t69 -8.5q42 0 72.5 10.5t46 32.5t15.5 54q0 35 -16 59t-52 43t-99 36q-60 17 -102 36.5t-68.5 44.5t-39 57t-12.5 74q0 33 10.5 62.5t30 54.5t49 43.5t66.5 29t82 10.5
q46 0 87.5 -13.5t73.5 -37.5l15 51h54l20 -203l-62 -13q-17 53 -44 84t-62 44.5t-78 13.5q-55 0 -89.5 -23.5t-34.5 -69.5q0 -32 16 -54.5t51.5 -40.5t96.5 -36t104.5 -38t71 -44.5t40 -56t12.5 -74.5q0 -49 -19 -89t-53 -69t-78.5 -44t-97.5 -15zM264 750l-27 39l137 123
q14 12 24 17t19 5q22 0 35.5 -18.5t13.5 -38.5q0 -21 -11.5 -35.5t-34.5 -23.5z" />
    <glyph glyph-name="sacute" unicode="&#x15b;" horiz-adv-x="516" 
d="M65 -14l-12 174l67 5q14 -35 36 -59.5t51 -37t63 -12.5q46 0 72 20.5t26 53.5q0 23 -11 38t-37.5 26.5t-76.5 22.5q-45 10 -79 23.5t-56 32t-32.5 43.5t-10.5 59q0 50 25 86t68 54.5t97 18.5q35 0 69.5 -9.5t54.5 -23.5l8 33h57l10 -165l-67 5q-12 43 -47 70t-81 27
q-45 0 -68.5 -17t-23.5 -50q0 -24 11.5 -39t38.5 -25.5t71 -21.5q49 -13 83.5 -27t56.5 -32t32 -43t10 -59q0 -51 -26 -89.5t-70.5 -60t-102.5 -21.5q-44 0 -79 10.5t-59 26.5l-13 -37h-55zM215 592l-32 33l109 139q12 16 22.5 23t22.5 7q17 0 28.5 -8.5t17 -21.5t5.5 -26
q0 -16 -9 -29.5t-27 -25.5z" />
    <glyph glyph-name="Scircumflex" unicode="&#x15c;" horiz-adv-x="659" 
d="M350 -14q-56 0 -109 18t-87 47l-17 -57h-53l-22 221l63 7q16 -42 38 -72t50 -48t61 -26.5t69 -8.5q42 0 72.5 10.5t46 32.5t15.5 54q0 35 -16 59t-52 43t-99 36q-60 17 -102 36.5t-68.5 44.5t-39 57t-12.5 74q0 33 10.5 62.5t30 54.5t49 43.5t66.5 29t82 10.5
q46 0 87.5 -13.5t73.5 -37.5l15 51h54l20 -203l-62 -13q-17 53 -44 84t-62 44.5t-78 13.5q-55 0 -89.5 -23.5t-34.5 -69.5q0 -32 16 -54.5t51.5 -40.5t96.5 -36t104.5 -38t71 -44.5t40 -56t12.5 -74.5q0 -49 -19 -89t-53 -69t-78.5 -44t-97.5 -15zM185 744l-29 38l125 130
q12 13 23 19.5t26 6.5q13 0 24 -7t27 -24l119 -124l-30 -39l-141 83z" />
    <glyph glyph-name="scircumflex" unicode="&#x15d;" horiz-adv-x="516" 
d="M65 -14l-12 174l67 5q14 -35 36 -59.5t51 -37t63 -12.5q46 0 72 20.5t26 53.5q0 23 -11 38t-37.5 26.5t-76.5 22.5q-45 10 -79 23.5t-56 32t-32.5 43.5t-10.5 59q0 50 25 86t68 54.5t97 18.5q35 0 69.5 -9.5t54.5 -23.5l8 33h57l10 -165l-67 5q-12 43 -47 70t-81 27
q-45 0 -68.5 -17t-23.5 -50q0 -24 11.5 -39t38.5 -25.5t71 -21.5q49 -13 83.5 -27t56.5 -32t32 -43t10 -59q0 -51 -26 -89.5t-70.5 -60t-102.5 -21.5q-44 0 -79 10.5t-59 26.5l-13 -37h-55zM121 592l-36 34l116 146q12 14 25 21t30 7q12 0 20.5 -3t17 -10.5t19.5 -21.5
l111 -138l-36 -35l-132 99z" />
    <glyph glyph-name="Scedilla" unicode="&#x15e;" horiz-adv-x="659" 
d="M329 -234q-42 0 -71.5 13t-42.5 24l25 48q15 -9 36 -16t37 -7q21 0 37 9.5t16 30.5q0 19 -13.5 27.5t-40.5 8.5q-11 0 -18 -1t-14 -3l-9 27l25 63q-42 8 -79 23.5t-63 37.5l-17 -57h-53l-22 221l63 7q16 -42 38 -72t50 -48t61 -26.5t69 -8.5q42 0 72.5 10.5t46 32.5
t15.5 54q0 35 -16 59t-52 43t-99 36q-60 17 -102 36.5t-68.5 44.5t-39 57t-12.5 74q0 33 10.5 62.5t30 54.5t49 43.5t66.5 29t82 10.5q46 0 87.5 -13.5t73.5 -37.5l15 51h54l20 -203l-62 -13q-17 53 -44 84t-62 44.5t-78 13.5q-55 0 -89.5 -23.5t-34.5 -69.5q0 -32 16 -54.5
t51.5 -40.5t96.5 -36t104.5 -38t71 -44.5t40 -56t12.5 -74.5q0 -49 -18.5 -88.5t-52 -68.5t-77.5 -44t-97 -16l-15 -37q35 3 59.5 -6.5t38.5 -28.5t14 -48q0 -30 -14 -52.5t-41 -35t-66 -12.5z" />
    <glyph glyph-name="scedilla" unicode="&#x15f;" horiz-adv-x="516" 
d="M258 -234q-43 0 -72.5 13t-42.5 23l25 49q15 -9 36 -16t38 -7q20 0 36 9.5t16 30.5q0 19 -13 27.5t-41 8.5q-10 0 -17.5 -1t-14.5 -3l-9 26l25 64q-28 4 -51 12.5t-40 20.5l-13 -37h-55l-12 174l67 5q14 -35 36 -59.5t51 -37t63 -12.5q46 0 72 20.5t26 53.5q0 23 -11 38
t-37.5 26.5t-76.5 22.5q-45 10 -79 23.5t-56 32t-32.5 43.5t-10.5 59q0 50 25 86t68 54.5t97 18.5q35 0 69.5 -9.5t54.5 -23.5l8 33h57l10 -165l-67 5q-12 43 -47 70t-81 27q-45 0 -68.5 -17t-23.5 -50q0 -24 11.5 -39t38.5 -25.5t71 -21.5q49 -13 83.5 -27t56.5 -32t32 -43
t10 -59q0 -37 -14 -68t-39.5 -53.5t-60 -35t-74.5 -14.5l-15 -37q34 2 59 -7t38.5 -28t13.5 -48q0 -31 -14 -53t-40.5 -34.5t-65.5 -12.5z" />
    <glyph glyph-name="Scaron" unicode="&#x160;" horiz-adv-x="659" 
d="M350 -14q-56 0 -109 18t-87 47l-17 -57h-53l-22 221l63 7q16 -42 38 -72t50 -48t61 -26.5t69 -8.5q42 0 72.5 10.5t46 32.5t15.5 54q0 35 -16 59t-52 43t-99 36q-60 17 -102 36.5t-68.5 44.5t-39 57t-12.5 74q0 33 10.5 62.5t30 54.5t49 43.5t66.5 29t82 10.5
q46 0 87.5 -13.5t73.5 -37.5l15 51h54l20 -203l-62 -13q-17 53 -44 84t-62 44.5t-78 13.5q-55 0 -89.5 -23.5t-34.5 -69.5q0 -32 16 -54.5t51.5 -40.5t96.5 -36t104.5 -38t71 -44.5t40 -56t12.5 -74.5q0 -49 -19 -89t-53 -69t-78.5 -44t-97.5 -15zM327 758q-12 0 -23.5 7
t-28.5 24l-121 124l30 40l144 -84l146 84l28 -39l-127 -130q-12 -13 -23 -19.5t-25 -6.5z" />
    <glyph glyph-name="scaron" unicode="&#x161;" horiz-adv-x="516" 
d="M65 -14l-12 174l67 5q14 -35 36 -59.5t51 -37t63 -12.5q46 0 72 20.5t26 53.5q0 23 -11 38t-37.5 26.5t-76.5 22.5q-45 10 -79 23.5t-56 32t-32.5 43.5t-10.5 59q0 50 25 86t68 54.5t97 18.5q35 0 69.5 -9.5t54.5 -23.5l8 33h57l10 -165l-67 5q-12 43 -47 70t-81 27
q-45 0 -68.5 -17t-23.5 -50q0 -24 11.5 -39t38.5 -25.5t71 -21.5q49 -13 83.5 -27t56.5 -32t32 -43t10 -59q0 -51 -26 -89.5t-70.5 -60t-102.5 -21.5q-44 0 -79 10.5t-59 26.5l-13 -37h-55zM254 593q-13 0 -22 3t-17 11t-18 20l-110 139l39 35l128 -99l132 99l38 -34
l-118 -147q-11 -13 -23 -20t-29 -7z" />
    <glyph glyph-name="uni0162" unicode="&#x162;" horiz-adv-x="785" 
d="M388 -234q-43 0 -72.5 13t-41.5 24l25 48q15 -9 35.5 -16t37.5 -7q20 0 36 9.5t16 30.5q0 19 -13 27.5t-41 8.5q-10 0 -17 -1t-15 -3l-9 27l29 73h-145v60l85 7q20 2 28 13t8 37v514h-64q-33 0 -55.5 -3.5t-39.5 -18t-31.5 -45t-33.5 -83.5l-65 14l37 205h622l36 -205
l-66 -14q-17 53 -32 83t-32 45t-39 18.5t-55 3.5h-63v-517q0 -25 7 -35t29 -12l85 -7v-60h-156l-21 -51q34 3 59 -6.5t38.5 -28.5t13.5 -48q0 -30 -13.5 -52.5t-40.5 -35t-66 -12.5z" />
    <glyph glyph-name="uni0163" unicode="&#x163;" horiz-adv-x="455" 
d="M273 -234q-42 0 -71.5 13t-42.5 23l25 49q15 -9 36 -16t37 -7q21 0 37 9.5t16 30.5q0 19 -13.5 27.5t-41.5 8.5q-10 0 -17 -1t-14 -3l-9 26l24 63q-60 9 -87 47.5t-27 100.5v313h-84v59q44 4 69 20.5t37.5 51.5t17.5 94l59 8l15 -7v-155h166v-71h-166v-299
q0 -40 17.5 -60.5t55.5 -20.5q27 0 49.5 9t45.5 25l32 -50q-31 -28 -66.5 -45.5t-75.5 -21.5l-15 -38q35 2 59.5 -7t38 -28t13.5 -48q0 -31 -13.5 -53t-40.5 -34.5t-66 -12.5z" />
    <glyph glyph-name="Tcaron" unicode="&#x164;" horiz-adv-x="785" 
d="M213 0v60l85 7q20 2 28 13t8 37v514h-64q-33 0 -55.5 -3.5t-39.5 -18t-31.5 -45t-33.5 -83.5l-65 14l37 205h622l36 -205l-66 -14q-17 53 -32 83t-32 45t-39 18.5t-55 3.5h-63v-517q0 -25 7 -35t29 -12l85 -7v-60h-361zM389 758q-12 0 -23.5 7t-28.5 24l-121 124l30 40
l144 -84l146 84l28 -39l-127 -130q-12 -13 -23 -19.5t-25 -6.5z" />
    <glyph glyph-name="tcaron" unicode="&#x165;" horiz-adv-x="455" 
d="M275 -14q-53 0 -86 18t-48.5 52t-15.5 81v313h-84v59q44 4 69 20.5t37.5 51.5t17.5 94l59 8l15 -7v-155h166v-71h-166v-299q0 -40 17.5 -60.5t55.5 -20.5q27 0 49.5 9t45.5 25l32 -50q-34 -33 -76 -50.5t-88 -17.5zM334 568l-35 36q22 26 32 48.5t10 38.5q0 12 -4 20
t-15 19q-10 9 -14.5 17.5t-4.5 20.5q0 27 19.5 39t40.5 12q39 0 56.5 -23.5t17.5 -51.5q0 -24 -12 -54t-35 -61.5t-56 -60.5z" />
    <glyph glyph-name="Tbar" unicode="&#x166;" horiz-adv-x="785" 
d="M213 0v60l85 7q20 2 28 13t8 37v187h-162l9 79h153v248h-64q-33 0 -55.5 -3.5t-39.5 -18t-31.5 -45t-33.5 -83.5l-65 14l37 205h622l36 -205l-66 -14q-17 53 -32 83t-32 45t-39 18.5t-55 3.5h-63v-248h159v-79h-159v-190q0 -25 7 -35t29 -12l85 -7v-60h-361z" />
    <glyph glyph-name="tbar" unicode="&#x167;" horiz-adv-x="455" 
d="M275 -14q-53 0 -86 18t-48.5 52t-15.5 81v119h-87l9 71h78v123h-84v59q44 4 69 20.5t37.5 51.5t17.5 94l59 8l15 -7v-155h166v-71h-166v-123h164v-71h-164v-105q0 -40 17.5 -60.5t55.5 -20.5q27 0 49.5 9t45.5 25l32 -50q-34 -33 -76 -50.5t-88 -17.5z" />
    <glyph glyph-name="Utilde" unicode="&#x168;" horiz-adv-x="884" 
d="M441 -14q-77 0 -132 18t-90.5 53t-53 87t-17.5 119v326q0 26 -7 36t-29 11l-56 4v60h306v-60l-58 -4q-17 -1 -25 -11.5t-8 -39.5v-317q0 -64 17.5 -108t58.5 -67t112 -23q68 0 111 22t64 67.5t21 113.5v316q0 26 -7 36t-29 11l-56 4v60h267v-60l-59 -4q-16 -1 -24 -11.5
t-8 -39.5v-300q0 -99 -33.5 -166t-99.5 -100t-165 -33zM535 776q-21 0 -41.5 5.5t-46.5 17.5q-22 10 -37 15.5t-24 7.5t-17 2q-12 0 -21.5 -7.5t-23.5 -30.5l-44 26q18 39 34 60t33 28.5t38 7.5t41 -5.5t50 -18.5q29 -13 46 -18t26 -5q11 0 19.5 8t21.5 30l44 -25
q-18 -39 -33.5 -60t-31 -29.5t-33.5 -8.5z" />
    <glyph glyph-name="utilde" unicode="&#x169;" horiz-adv-x="716" 
d="M297 -14q-84 0 -128.5 44t-44.5 127v232q0 35 -6.5 47.5t-30.5 14.5l-45 4l9 61l173 12l14 -8v-330q0 -39 7.5 -66.5t29 -41t62.5 -13.5q42 0 73 18.5t48 51.5t17 73v177q0 32 -5.5 46t-31.5 16l-46 4l10 61l173 12l14 -8v-407q0 -25 7 -35.5t27 -13.5l52 -4v-60l-178 -6
l-15 82h-3q-27 -29 -55 -49t-59 -30.5t-68 -10.5zM420 615q-20 0 -40.5 6t-47.5 18q-21 10 -36 15.5t-24.5 7.5t-16.5 2q-12 0 -21.5 -8t-24.5 -31l-44 27q19 39 34.5 59.5t32.5 28.5t38 8q22 0 42 -5.5t49 -18.5t46.5 -18.5t26.5 -5.5q11 0 19.5 8.5t21.5 30.5l44 -26
q-18 -38 -33.5 -59.5t-31 -30t-34.5 -8.5z" />
    <glyph glyph-name="Umacron" unicode="&#x16a;" horiz-adv-x="884" 
d="M441 -14q-77 0 -132 18t-90.5 53t-53 87t-17.5 119v326q0 26 -7 36t-29 11l-56 4v60h306v-60l-58 -4q-17 -1 -25 -11.5t-8 -39.5v-317q0 -64 17.5 -108t58.5 -67t112 -23q68 0 111 22t64 67.5t21 113.5v316q0 26 -7 36t-29 11l-56 4v60h267v-60l-59 -4q-16 -1 -24 -11.5
t-8 -39.5v-300q0 -99 -33.5 -166t-99.5 -100t-165 -33zM304 794v89h304v-89h-304z" />
    <glyph glyph-name="umacron" unicode="&#x16b;" horiz-adv-x="716" 
d="M297 -14q-84 0 -128.5 44t-44.5 127v232q0 35 -6.5 47.5t-30.5 14.5l-45 4l9 61l173 12l14 -8v-330q0 -39 7.5 -66.5t29 -41t62.5 -13.5q42 0 73 18.5t48 51.5t17 73v177q0 32 -5.5 46t-31.5 16l-46 4l10 61l173 12l14 -8v-407q0 -25 7 -35.5t27 -13.5l52 -4v-60l-178 -6
l-15 82h-3q-27 -29 -55 -49t-59 -30.5t-68 -10.5zM192 635v89h302v-89h-302z" />
    <glyph glyph-name="Ubreve" unicode="&#x16c;" horiz-adv-x="884" 
d="M441 -14q-77 0 -132 18t-90.5 53t-53 87t-17.5 119v326q0 26 -7 36t-29 11l-56 4v60h306v-60l-58 -4q-17 -1 -25 -11.5t-8 -39.5v-317q0 -64 17.5 -108t58.5 -67t112 -23q68 0 111 22t64 67.5t21 113.5v316q0 26 -7 36t-29 11l-56 4v60h267v-60l-59 -4q-16 -1 -24 -11.5
t-8 -39.5v-300q0 -99 -33.5 -166t-99.5 -100t-165 -33zM456 758q-53 0 -88 23.5t-54.5 63t-24.5 87.5l58 14q14 -50 39.5 -74.5t73.5 -24.5q50 0 76 26.5t37 70.5l56 -12q-4 -44 -24.5 -84t-57.5 -65t-91 -25z" />
    <glyph glyph-name="ubreve" unicode="&#x16d;" horiz-adv-x="716" 
d="M297 -14q-84 0 -128.5 44t-44.5 127v232q0 35 -6.5 47.5t-30.5 14.5l-45 4l9 61l173 12l14 -8v-330q0 -39 7.5 -66.5t29 -41t62.5 -13.5q42 0 73 18.5t48 51.5t17 73v177q0 32 -5.5 46t-31.5 16l-46 4l10 61l173 12l14 -8v-407q0 -25 7 -35.5t27 -13.5l52 -4v-60l-178 -6
l-15 82h-3q-27 -29 -55 -49t-59 -30.5t-68 -10.5zM345 598q-50 0 -85 25t-53.5 65.5t-23.5 88.5l57 13q13 -50 39 -76.5t71 -26.5q47 0 72.5 29t35.5 73l56 -12q-5 -44 -25 -85.5t-55.5 -67.5t-88.5 -26z" />
    <glyph glyph-name="Uring" unicode="&#x16e;" horiz-adv-x="884" 
d="M441 -14q-77 0 -132 18t-90.5 53t-53 87t-17.5 119v326q0 26 -7 36t-29 11l-56 4v60h306v-60l-58 -4q-17 -1 -25 -11.5t-8 -39.5v-317q0 -64 17.5 -108t58.5 -67t112 -23q68 0 111 22t64 67.5t21 113.5v316q0 26 -7 36t-29 11l-56 4v60h267v-60l-59 -4q-16 -1 -24 -11.5
t-8 -39.5v-300q0 -99 -33.5 -166t-99.5 -100t-165 -33zM455 744q-68 0 -102 30t-34 83q0 33 16.5 59t47.5 41t76 15q65 0 99 -29.5t34 -82.5q0 -35 -16.5 -61.5t-47 -40.5t-73.5 -14zM457 800q31 0 43 14.5t12 44.5q0 20 -6 33t-18 19.5t-33 6.5q-31 0 -44 -15.5t-13 -43.5
q0 -19 6 -32.5t18.5 -20t34.5 -6.5z" />
    <glyph glyph-name="uring" unicode="&#x16f;" horiz-adv-x="716" 
d="M297 -14q-84 0 -128.5 44t-44.5 127v232q0 35 -6.5 47.5t-30.5 14.5l-45 4l9 61l173 12l14 -8v-330q0 -39 7.5 -66.5t29 -41t62.5 -13.5q42 0 73 18.5t48 51.5t17 73v177q0 32 -5.5 46t-31.5 16l-46 4l10 61l173 12l14 -8v-407q0 -25 7 -35.5t27 -13.5l52 -4v-60l-178 -6
l-15 82h-3q-27 -29 -55 -49t-59 -30.5t-68 -10.5zM341 592q-67 0 -101 30t-34 83q0 34 16.5 59.5t47.5 40.5t75 15q66 0 100 -29.5t34 -81.5q0 -36 -16.5 -62.5t-47 -40.5t-74.5 -14zM344 648q21 0 33 6t17 19.5t5 33.5t-6 33t-18.5 20t-32.5 7q-21 0 -33 -7.5t-18 -20.5
t-6 -32t6 -32.5t18.5 -20t34.5 -6.5z" />
    <glyph glyph-name="Uhungarumlaut" unicode="&#x170;" horiz-adv-x="884" 
d="M441 -14q-77 0 -132 18t-90.5 53t-53 87t-17.5 119v326q0 26 -7 36t-29 11l-56 4v60h306v-60l-58 -4q-17 -1 -25 -11.5t-8 -39.5v-317q0 -64 17.5 -108t58.5 -67t112 -23q68 0 111 22t64 67.5t21 113.5v316q0 26 -7 36t-29 11l-56 4v60h267v-60l-59 -4q-16 -1 -24 -11.5
t-8 -39.5v-300q0 -99 -33.5 -166t-99.5 -100t-165 -33zM347 749l-28 39l120 126q12 13 22 19t20 6q22 0 33 -15.5t11 -33.5q0 -21 -11.5 -34.5t-32.5 -25.5zM535 749l-27 40l125 114q14 13 23.5 19t19.5 6q21 0 34 -15.5t13 -35.5q0 -21 -12 -35t-33 -24z" />
    <glyph glyph-name="uhungarumlaut" unicode="&#x171;" horiz-adv-x="716" 
d="M297 -14q-84 0 -128.5 44t-44.5 127v232q0 35 -6.5 47.5t-30.5 14.5l-45 4l9 61l173 12l14 -8v-330q0 -39 7.5 -66.5t29 -41t62.5 -13.5q42 0 73 18.5t48 51.5t17 73v177q0 32 -5.5 46t-31.5 16l-46 4l10 61l173 12l14 -8v-407q0 -25 7 -35.5t27 -13.5l52 -4v-60l-178 -6
l-15 82h-3q-27 -29 -55 -49t-59 -30.5t-68 -10.5zM423 591l-32 33l105 137q12 17 22 23.5t21 6.5q16 0 26 -8t15 -20t5 -25q0 -15 -9 -31t-26 -28zM258 591l-32 33l93 142q11 17 20.5 23.5t21.5 6.5q14 0 24.5 -8t16 -20t5.5 -26t-7.5 -28t-24.5 -28z" />
    <glyph glyph-name="Uogonek" unicode="&#x172;" horiz-adv-x="884" 
d="M473 -233q-34 0 -56.5 12t-33.5 31.5t-11 43.5q0 29 15 53.5t39 44.5t50 36q-10 -1 -20.5 -1.5t-21.5 -0.5q-74 1 -128 19t-89 53t-52 86.5t-17 118.5v326q0 26 -7 36t-29 11l-56 4v60h306v-60l-58 -4q-17 -1 -25 -11.5t-8 -39.5v-317q0 -64 17.5 -108t58.5 -67t112 -23
q68 0 111 22t64 67.5t21 113.5v316q0 26 -7 36t-29 11l-56 4v60h267v-60l-59 -4q-16 -1 -24 -11.5t-8 -39.5v-300q0 -113 -43 -183t-128 -97q-50 -35 -73.5 -65.5t-23.5 -61.5q0 -20 10 -30.5t33 -10.5q13 0 29 4t28 11l17 -46q-13 -9 -31 -18.5t-39.5 -15t-44.5 -5.5z" />
    <glyph glyph-name="uogonek" unicode="&#x173;" horiz-adv-x="716" 
d="M556 -233q-33 0 -56 12t-34.5 31.5t-11.5 43.5q0 32 18 58t45 47t54 38l-74 -3l-15 82h-3q-27 -29 -55 -49t-59 -30.5t-68 -10.5q-84 0 -128.5 44t-44.5 127v232q0 35 -6.5 47.5t-30.5 14.5l-45 4l9 61l173 12l14 -8v-330q0 -39 7.5 -66.5t29 -41t62.5 -13.5
q42 0 73 18.5t48 51.5t17 73v177q0 32 -5.5 46t-31.5 16l-46 4l10 61l173 12l14 -8v-407q0 -25 7 -35.5t27 -13.5l52 -4v-60l-35 -1q-43 -36 -65 -63.5t-22 -57.5q0 -20 11 -30.5t34 -10.5q15 0 31 4.5t28 10.5l17 -46q-13 -9 -31 -18.5t-40 -15t-47 -5.5z" />
    <glyph glyph-name="Wcircumflex" unicode="&#x174;" horiz-adv-x="1181" 
d="M275 0l-159 585q-6 25 -15.5 36t-33.5 14l-43 5v60h300v-61l-54 -2q-20 -1 -26 -11.5t1 -38.5l121 -472h4l164 585h142l180 -587h5l112 470q6 26 1.5 38t-27.5 13l-53 6v60h263v-61l-51 -2q-13 -1 -23 -6t-16.5 -16t-11.5 -31l-142 -584h-147l-179 570h-3l-161 -570h-148
zM460 744l-29 38l125 130q12 13 23 19.5t26 6.5q13 0 24 -7t27 -24l119 -124l-30 -39l-141 83z" />
    <glyph glyph-name="wcircumflex" unicode="&#x175;" horiz-adv-x="954" 
d="M233 0l-135 403q-6 18 -11 29t-13 17t-24 7l-39 3l11 62h263v-59l-47 -2q-20 -1 -24.5 -12.5t3.5 -38.5l94 -303h5l123 415h123l123 -413h6l91 295q8 26 3 39t-28 15l-35 5l7 59h220v-60l-40 -3q-18 -1 -29.5 -12.5t-23.5 -44.5l-130 -401h-123l-119 404h-4l-116 -404
h-131zM368 592l-36 34l116 146q12 14 25 21t30 7q12 0 20.5 -3t17 -10.5t19.5 -21.5l111 -138l-36 -35l-132 99z" />
    <glyph glyph-name="Ycircumflex" unicode="&#x176;" horiz-adv-x="770" 
d="M222 0v60l67 4q17 1 25 10t8 41v166l-201 303q-14 20 -26.5 33.5t-38.5 16.5l-41 6v60h315v-60l-59 -3q-22 -1 -28.5 -14t9.5 -36l151 -225h5l143 220q12 18 12 33.5t-31 18.5l-50 6v60h273v-60l-54 -3q-18 0 -31.5 -14.5t-30.5 -41.5l-198 -304v-166q0 -25 7 -35t28 -12
l66 -4v-60h-320zM257 744l-29 38l125 130q12 13 23 19.5t26 6.5q13 0 24 -7t27 -24l119 -124l-30 -39l-141 83z" />
    <glyph glyph-name="ycircumflex" unicode="&#x177;" horiz-adv-x="643" 
d="M136 -231q-54 0 -86.5 23t-32.5 63q0 30 21 50.5t51 20.5q26 0 42.5 -10t17.5 -28q1 -8 -0.5 -18.5t-6.5 -38.5q24 -1 42 9.5t36 38t40 75.5l25 51l-180 400q-13 30 -21 39.5t-25 10.5l-43 4l11 62h272v-59l-50 -2q-17 -1 -24.5 -11t5.5 -41l116 -274h5l115 268
q12 25 6.5 39t-29.5 17l-43 4l9 59h229v-60l-42 -3q-18 -2 -27 -12t-24 -44l-203 -448q-22 -48 -43 -83t-44.5 -57.5t-53 -33.5t-65.5 -11zM211 592l-36 34l116 146q12 14 25 21t30 7q12 0 20.5 -3t17 -10.5t19.5 -21.5l111 -138l-36 -35l-132 99z" />
    <glyph glyph-name="Ydieresis" unicode="&#x178;" horiz-adv-x="770" 
d="M222 0v60l67 4q17 1 25 10t8 41v166l-201 303q-14 20 -26.5 33.5t-38.5 16.5l-41 6v60h315v-60l-59 -3q-22 -1 -28.5 -14t9.5 -36l151 -225h5l143 220q12 18 12 33.5t-31 18.5l-50 6v60h273v-60l-54 -3q-18 0 -31.5 -14.5t-30.5 -41.5l-198 -304v-166q0 -25 7 -35t28 -12
l66 -4v-60h-320zM505 771q-31 0 -51 19t-20 50q0 30 20 49.5t51 19.5q34 0 53 -19t19 -49q0 -31 -20 -50.5t-52 -19.5zM292 771q-31 0 -51 19t-20 50q0 30 20 49.5t51 19.5q33 0 53 -19t20 -49q0 -31 -20.5 -50.5t-52.5 -19.5z" />
    <glyph glyph-name="Zacute" unicode="&#x179;" horiz-adv-x="718" 
d="M60 0v58l438 573h-219q-27 0 -46.5 -4.5t-35 -19t-29.5 -42.5t-30 -74l-69 -6l13 215h566v-59l-435 -572h205q32 0 57 5.5t44 21t36 45.5t35 80h68l-21 -221h-577zM292 750l-27 39l137 123q14 12 24 17t19 5q22 0 35.5 -18.5t13.5 -38.5q0 -21 -11.5 -35.5t-34.5 -23.5z
" />
    <glyph glyph-name="zacute" unicode="&#x17a;" horiz-adv-x="551" 
d="M50 0v51l309 404h-118q-39 0 -61.5 -7t-36 -32t-28.5 -78l-62 -5l13 186h435v-52l-307 -402h119q30 0 50 2.5t34.5 14.5t28 38.5t31.5 75.5h59l-15 -196h-451zM241 592l-32 33l109 139q12 16 22.5 23t22.5 7q17 0 28.5 -8.5t17 -21.5t5.5 -26q0 -16 -9 -29.5t-27 -25.5z
" />
    <glyph glyph-name="Zdotaccent" unicode="&#x17b;" horiz-adv-x="718" 
d="M60 0v58l438 573h-219q-27 0 -46.5 -4.5t-35 -19t-29.5 -42.5t-30 -74l-69 -6l13 215h566v-59l-435 -572h205q32 0 57 5.5t44 21t36 45.5t35 80h68l-21 -221h-577zM355 767q-35 0 -56.5 20t-21.5 52t21.5 52t56.5 20q36 0 57.5 -19.5t21.5 -51.5q0 -33 -21.5 -53
t-57.5 -20z" />
    <glyph glyph-name="zdotaccent" unicode="&#x17c;" horiz-adv-x="551" 
d="M50 0v51l309 404h-118q-39 0 -61.5 -7t-36 -32t-28.5 -78l-62 -5l13 186h435v-52l-307 -402h119q30 0 50 2.5t34.5 14.5t28 38.5t31.5 75.5h59l-15 -196h-451zM279 618q-35 0 -56.5 20t-21.5 52t21.5 52.5t56.5 20.5q36 0 57.5 -20t21.5 -52t-21.5 -52.5t-57.5 -20.5z
" />
    <glyph glyph-name="Zcaron" unicode="&#x17d;" horiz-adv-x="718" 
d="M60 0v58l438 573h-219q-27 0 -46.5 -4.5t-35 -19t-29.5 -42.5t-30 -74l-69 -6l13 215h566v-59l-435 -572h205q32 0 57 5.5t44 21t36 45.5t35 80h68l-21 -221h-577zM355 758q-12 0 -23.5 7t-28.5 24l-121 124l30 40l144 -84l146 84l28 -39l-127 -130q-12 -13 -23 -19.5
t-25 -6.5z" />
    <glyph glyph-name="zcaron" unicode="&#x17e;" horiz-adv-x="551" 
d="M50 0v51l309 404h-118q-39 0 -61.5 -7t-36 -32t-28.5 -78l-62 -5l13 186h435v-52l-307 -402h119q30 0 50 2.5t34.5 14.5t28 38.5t31.5 75.5h59l-15 -196h-451zM279 593q-13 0 -22 3t-17 11t-18 20l-110 139l39 35l128 -99l132 99l38 -34l-118 -147q-11 -13 -23 -20
t-29 -7z" />
    <glyph glyph-name="uni018F" unicode="&#x18f;" horiz-adv-x="761" 
d="M352 -14q-82 0 -146 29.5t-101.5 86t-37.5 138.5q0 28 5 60.5t11 58.5h484q-3 77 -31 136t-81 92.5t-132 33.5q-41 0 -78 -10.5t-71.5 -30t-67.5 -49.5l-42 44q28 37 70 68.5t99.5 51t127.5 19.5q105 0 181 -44t117 -125t41 -192q0 -91 -27 -159t-74.5 -114.5t-110.5 -70
t-136 -23.5zM360 60q67 0 110.5 31t67.5 82t30 109h-367q-1 -10 -2.5 -26.5t-1.5 -31.5q0 -57 21.5 -93t58.5 -53.5t83 -17.5z" />
    <glyph glyph-name="florin" unicode="&#x192;" horiz-adv-x="629" 
d="M98 -193q-44 0 -77.5 13.5t-52.5 37.5t-19 56q0 31 17 50t48 19q28 0 44 -11.5t16 -31.5q0 -10 -6 -23.5t-19 -36.5q13 -7 26.5 -11t27.5 -4q27 0 45.5 13t30.5 41.5t18 74.5l51 378h-86l8 64h86l7 39q8 54 26 98.5t46 75.5t66 48t84 17t81 -13.5t54.5 -37t19.5 -56.5
q0 -30 -17.5 -49.5t-48.5 -19.5q-27 0 -43 11.5t-16 31.5q0 11 5.5 24t19.5 36q-13 6 -27.5 10.5t-32.5 4.5q-28 0 -47.5 -13t-30.5 -41t-18 -74l-13 -90h157l-9 -66h-157l-44 -325q-10 -72 -39 -126t-75 -84t-106 -30z" />
    <glyph glyph-name="Ohorn" unicode="&#x1a0;" horiz-adv-x="915" 
d="M410 -14q-107 0 -185.5 44.5t-121 123t-42.5 183.5q0 87 25 157t72 119t114 75t151 26q77 0 139.5 -23.5t108.5 -67t71 -104.5q33 14 52.5 32t28.5 39t10 43h-7q-33 0 -48 16.5t-15 42.5q0 24 10 39.5t26.5 24t35.5 8.5q29 0 46.5 -12.5t25.5 -33.5t8 -49q0 -36 -17 -79
t-50.5 -79t-86.5 -53q5 -21 7 -43.5t2 -46.5q0 -84 -25 -154t-72.5 -121t-114 -79t-148.5 -28zM423 67q52 0 92.5 17t67.5 52t41.5 88t14.5 124t-16 124.5t-45.5 89.5t-72.5 54t-97 18q-52 0 -92 -17.5t-67.5 -52t-41.5 -86.5t-14 -122t16 -124t46 -90.5t72.5 -55.5
t95.5 -19z" />
    <glyph glyph-name="ohorn" unicode="&#x1a1;" horiz-adv-x="708" 
d="M317 -14q-81 0 -139 31t-89 89.5t-31 140.5q0 91 34 154.5t96 97.5t145 34q72 0 127.5 -25.5t89.5 -73.5q27 13 44 29.5t25 36t10 40.5h-8q-34 0 -49.5 15.5t-15.5 42.5q0 23 10 39t26.5 24.5t36.5 8.5q28 0 45.5 -12.5t25.5 -34t8 -48.5q0 -34 -14 -72t-42.5 -72
t-72.5 -54q8 -24 12 -50.5t4 -55.5q0 -90 -32.5 -154t-95 -97.5t-150.5 -33.5zM332 59q47 0 78.5 21t47.5 62.5t16 102.5q0 54 -10.5 94.5t-31.5 66.5t-50 39.5t-65 13.5q-43 0 -74 -20.5t-47.5 -62t-16.5 -104.5q0 -52 10.5 -91.5t30.5 -66.5t48.5 -41t63.5 -14z" />
    <glyph glyph-name="Uhorn" unicode="&#x1af;" horiz-adv-x="947" 
d="M435 -14q-75 0 -129.5 18t-89.5 53t-52.5 87t-17.5 119v325q0 25 -6.5 35.5t-28.5 12.5l-55 4v60h303v-60l-58 -5q-17 -1 -24 -11.5t-7 -38.5v-317q0 -64 16.5 -108t57 -67t110.5 -23q66 0 108.5 22t63 67.5t20.5 113.5v315q0 25 -6.5 35.5t-29.5 12.5l-54 4v60h174v-187
q40 10 66 23.5t41 29t21.5 33t7.5 34.5h-8q-33 0 -48 16.5t-15 42.5q0 24 10 39.5t26.5 24t36.5 8.5q28 0 45.5 -12.5t25.5 -33.5t8 -49q0 -30 -11.5 -64t-37 -65.5t-67 -55t-101.5 -33.5v-166q0 -99 -33 -166t-98 -100t-164 -33z" />
    <glyph glyph-name="uhorn" unicode="&#x1b0;" horiz-adv-x="776" 
d="M293 -14q-54 0 -92.5 19.5t-58 57.5t-19.5 94v230q0 36 -7 48t-29 14l-45 4l9 61l172 12l14 -8v-328q0 -40 7.5 -67t28.5 -40.5t61 -13.5q42 0 72 18.5t46.5 51t16.5 73.5v175q0 36 -6.5 48t-29.5 14l-45 4l9 61l173 12l13 -8v-96q42 14 66 32t35.5 40t13.5 46h-8
q-35 0 -50 15.5t-15 42.5q0 23 10 39t26.5 24.5t35.5 8.5q28 0 45.5 -12.5t25.5 -34t8 -48.5q0 -40 -20 -85t-62.5 -80.5t-110.5 -49.5v-247q0 -25 7 -35.5t27 -12.5l51 -5v-60l-177 -6l-15 82h-3q-26 -30 -53.5 -49.5t-58 -30t-68.5 -10.5z" />
    <glyph glyph-name="uni01C4" unicode="&#x1c4;" horiz-adv-x="1540" 
d="M66 0v60l63 4q20 2 27 12.5t7 38.5v474q0 25 -6.5 35.5t-29.5 11.5l-61 4v60h322q73 0 134 -12.5t109 -38t80.5 -65t49.5 -92t17 -120.5q0 -89 -29 -158.5t-84 -117t-133.5 -72t-178.5 -24.5h-287zM360 71q76 0 130 17.5t89 53t51.5 91t16.5 131.5q0 90 -30 148.5
t-88.5 87.5t-147.5 29h-99v-557q13 -1 35 -1h43zM882 0v58l438 573h-219q-27 0 -46.5 -4.5t-35 -19t-29.5 -42.5t-30 -74l-69 -6l13 215h566v-59l-435 -572h205q32 0 57 5.5t44 21t36 45.5t35 80h68l-21 -221h-577zM1177 758q-12 0 -23.5 7t-28.5 24l-121 124l30 40l144 -84
l146 84l28 -39l-127 -130q-12 -13 -23 -19.5t-25 -6.5z" />
    <glyph glyph-name="uni01C5" unicode="&#x1c5;" horiz-adv-x="1388" 
d="M66 0v60l63 4q20 2 27 12.5t7 38.5v474q0 25 -6.5 35.5t-29.5 11.5l-61 4v60h322q73 0 134 -12.5t109 -38t80.5 -65t49.5 -92t17 -120.5q0 -89 -29 -158.5t-84 -117t-133.5 -72t-178.5 -24.5h-287zM360 71q76 0 130 17.5t89 53t51.5 91t16.5 131.5q0 90 -30 148.5
t-88.5 87.5t-147.5 29h-99v-557q13 -1 35 -1h43zM888 0v51l309 404h-118q-39 0 -61.5 -7t-36 -32t-28.5 -78l-62 -5l13 186h435v-52l-307 -402h119q30 0 50 2.5t34.5 14.5t28 38.5t31.5 75.5h59l-15 -196h-451zM1117 593q-13 0 -22 3t-17 11t-18 20l-110 139l39 35l128 -99
l132 99l38 -34l-118 -147q-11 -13 -23 -20t-29 -7z" />
    <glyph glyph-name="uni01C6" unicode="&#x1c6;" horiz-adv-x="1239" 
d="M281 -14q-70 0 -120.5 30t-77 88.5t-26.5 140.5q0 90 32.5 154.5t92.5 99.5t142 35q36 0 71.5 -8.5t60.5 -22.5v134q0 33 -8 45t-38 14l-57 4l7 61l197 5l13 -12v-648q0 -19 5 -30.5t30 -13.5l54 -5v-60l-175 -6l-15 80h-7q-23 -28 -50 -47.5t-59 -28.5t-72 -9zM317 71
q42 0 73 18t48.5 49.5t17.5 73.5v206q-26 19 -59.5 28.5t-69.5 9.5q-49 0 -82 -22.5t-50 -67t-17 -111.5q0 -60 16 -101t48 -62t75 -21zM738 0v51l309 404h-118q-39 0 -61.5 -7t-36 -32t-28.5 -78l-62 -5l13 186h435v-52l-307 -402h119q30 0 50 2.5t34.5 14.5t28 38.5
t31.5 75.5h59l-15 -196h-451zM967 593q-13 0 -22 3t-17 11t-18 20l-110 139l39 35l128 -99l132 99l38 -34l-118 -147q-11 -13 -23 -20t-29 -7z" />
    <glyph glyph-name="uni01C7" unicode="&#x1c7;" horiz-adv-x="1262" 
d="M66 0v60l63 4q17 1 25.5 10.5t8.5 40.5v474q0 25 -6.5 35.5t-29.5 11.5l-61 4v60h321v-60l-69 -5q-21 -1 -28.5 -10.5t-7.5 -35.5v-519h113q35 0 58.5 4.5t40.5 20t31.5 46t30.5 82.5h68l-24 -223h-534zM895 -14q-59 0 -104.5 16.5t-71.5 46.5t-26 68q0 27 11 47.5
t30.5 32t44.5 11.5q31 0 48.5 -14t17.5 -36q0 -14 -6.5 -29.5t-25.5 -46.5q14 -10 37.5 -17t45.5 -7q37 0 61 16.5t36 49.5t12 81v381q0 23 -6 35.5t-30 13.5l-73 4v61h327v-60l-65 -4q-19 -1 -26 -13t-7 -38v-353q0 -117 -56.5 -181.5t-173.5 -64.5z" />
    <glyph glyph-name="uni01C8" unicode="&#x1c8;" horiz-adv-x="992" 
d="M66 0v60l63 4q17 1 25.5 10.5t8.5 40.5v474q0 25 -6.5 35.5t-29.5 11.5l-61 4v60h321v-60l-69 -5q-21 -1 -28.5 -10.5t-7.5 -35.5v-519h113q35 0 58.5 4.5t40.5 20t31.5 46t30.5 82.5h68l-24 -223h-534zM724 -229l-34 46q25 19 42 40.5t28 47t16 57t5 71.5v357
q0 34 -7.5 47t-31.5 14l-56 3l7 63l188 11l14 -8v-424q0 -67 -9.5 -117.5t-29 -88.5t-52.5 -66.5t-80 -52.5zM823 616q-35 0 -57 19.5t-22 52.5q0 32 22 52t57 20t57 -19.5t22 -52.5q0 -32 -22 -52t-57 -20z" />
    <glyph glyph-name="uni01C9" unicode="&#x1c9;" horiz-adv-x="726" 
d="M58 0v60l50 4q19 1 25.5 10t6.5 37v523q0 34 -8.5 46.5t-37.5 14.5l-55 3l6 62l196 6l13 -11v-647q0 -23 5.5 -33t27.5 -12l53 -3v-60h-282zM458 -229l-34 46q25 19 42 40.5t28 47t16 57t5 71.5v357q0 34 -7.5 47t-31.5 14l-56 3l7 63l188 11l14 -8v-424
q0 -67 -9.5 -117.5t-29 -88.5t-52.5 -66.5t-80 -52.5zM557 616q-35 0 -57 19.5t-22 52.5q0 32 22 52t57 20t57 -19.5t22 -52.5q0 -32 -22 -52t-57 -20z" />
    <glyph glyph-name="uni01CA" unicode="&#x1ca;" horiz-adv-x="1448" 
d="M66 0v60l64 4q19 1 26 12t7 39v474q0 25 -6.5 35.5t-28.5 11.5l-62 4v60h248l350 -538h4v427q0 25 -7 35.5t-29 11.5l-59 4v60h277v-60l-61 -4q-20 -1 -27 -12t-7 -39v-585h-122l-380 568h-5v-457q0 -20 5 -32.5t30 -14.5l62 -4v-60h-279zM1081 -14q-59 0 -104.5 16.5
t-71.5 46.5t-26 68q0 27 11 47.5t30.5 32t44.5 11.5q31 0 48.5 -14t17.5 -36q0 -14 -6.5 -29.5t-25.5 -46.5q14 -10 37.5 -17t45.5 -7q37 0 61 16.5t36 49.5t12 81v381q0 23 -6 35.5t-30 13.5l-73 4v61h327v-60l-65 -4q-19 -1 -26 -13t-7 -38v-353q0 -117 -56.5 -181.5
t-173.5 -64.5z" />
    <glyph glyph-name="uni01CB" unicode="&#x1cb;" horiz-adv-x="1248" 
d="M66 0v60l64 4q19 1 26 12t7 39v474q0 25 -6.5 35.5t-28.5 11.5l-62 4v60h248l350 -538h4v427q0 25 -7 35.5t-29 11.5l-59 4v60h277v-60l-61 -4q-20 -1 -27 -12t-7 -39v-585h-122l-380 568h-5v-457q0 -20 5 -32.5t30 -14.5l62 -4v-60h-279zM980 -229l-34 46q25 19 42 40.5
t28 47t16 57t5 71.5v357q0 34 -7.5 47t-31.5 14l-56 3l7 63l188 11l14 -8v-424q0 -67 -9.5 -117.5t-29 -88.5t-52.5 -66.5t-80 -52.5zM1079 616q-35 0 -57 19.5t-22 52.5q0 32 22 52t57 20t57 -19.5t22 -52.5q0 -32 -22 -52t-57 -20z" />
    <glyph glyph-name="uni01CC" unicode="&#x1cc;" horiz-adv-x="1075" 
d="M60 0v60l54 4q14 1 21 10t7 38v282q0 31 -7 43.5t-30 13.5l-55 3l8 62l161 12l14 -8l8 -90h6q29 48 80.5 76t111.5 28q57 0 97 -20t60.5 -58t20.5 -93v-259q0 -20 6 -29.5t28 -11.5l52 -3v-60h-271v60l40 3q17 1 24 9t7 32v221q0 41 -9 67.5t-31.5 40t-63.5 13.5
q-43 0 -75.5 -16t-50 -45.5t-17.5 -71.5v-205q0 -24 5.5 -33.5t21.5 -11.5l47 -3v-60h-270zM807 -229l-34 46q25 19 42 40.5t28 47t16 57t5 71.5v357q0 34 -7.5 47t-31.5 14l-56 3l7 63l188 11l14 -8v-424q0 -67 -9.5 -117.5t-29 -88.5t-52.5 -66.5t-80 -52.5zM906 616
q-35 0 -57 19.5t-22 52.5q0 32 22 52t57 20t57 -19.5t22 -52.5q0 -32 -22 -52t-57 -20z" />
    <glyph glyph-name="uni01CD" unicode="&#x1cd;" 
d="M15 0v61l54 5q17 2 27 11t22 41l228 582h130l225 -584q8 -24 17.5 -36t30.5 -14l46 -5v-61h-306v61l59 4q17 1 24.5 11t-3.5 39l-40 106h-286l-39 -104q-8 -20 -5 -36t30 -18l57 -3v-60h-271zM268 292h237l-113 310h-7zM410 758q-12 0 -23.5 7t-28.5 24l-121 124l30 40
l144 -84l146 84l28 -39l-127 -130q-12 -13 -23 -19.5t-25 -6.5z" />
    <glyph glyph-name="uni01CE" unicode="&#x1ce;" horiz-adv-x="609" 
d="M216 -14q-70 0 -112.5 38t-42.5 100q0 58 30 93.5t99 53t185 22.5v70q0 34 -9.5 58t-35 37.5t-70.5 13.5q-27 0 -52.5 -7t-38.5 -18q10 -15 16 -27t9 -20t3 -13q0 -23 -19 -37t-47 -14q-32 0 -49 16t-17 46q0 37 28.5 68t77.5 49.5t108 18.5q72 0 118.5 -20.5t69 -61.5
t22.5 -102v-237q0 -22 11.5 -33.5t35.5 -11.5q14 0 26.5 2.5t25.5 7.5l13 -51q-18 -16 -49 -28.5t-63 -12.5q-47 0 -71.5 22t-32.5 63q-19 -27 -44 -46t-56.5 -29t-68.5 -10zM262 65q31 0 56.5 13t41 35t15.5 48v67q-68 0 -111.5 -9t-64 -28.5t-20.5 -51.5q0 -35 22.5 -54.5
t60.5 -19.5zM279 593q-13 0 -22 3t-17 11t-18 20l-110 139l39 35l128 -99l132 99l38 -34l-118 -147q-11 -13 -23 -20t-29 -7z" />
    <glyph glyph-name="uni01CF" unicode="&#x1cf;" horiz-adv-x="445" 
d="M66 0v60l64 4q17 1 25 11t8 40v474q0 22 -6 34t-31 13l-60 4v60h313v-60l-64 -4q-19 -1 -26 -12t-7 -39v-474q0 -23 6.5 -34t28.5 -13l62 -4v-60h-313zM222 758q-12 0 -23.5 7t-28.5 24l-121 124l30 40l144 -84l146 84l28 -39l-127 -130q-12 -13 -23 -19.5t-25 -6.5z" />
    <glyph glyph-name="uni01D0" unicode="&#x1d0;" horiz-adv-x="382" 
d="M47 0v60l63 4q20 1 26.5 11.5t6.5 38.5v276q0 35 -7 47.5t-32 13.5l-56 3l8 63l187 11l14 -8v-409q0 -20 5 -33t29 -14l62 -4v-60h-306zM160 592q-13 0 -22 3t-17 11t-18 20l-110 139l39 35l128 -99l132 99l38 -34l-118 -147q-11 -13 -23 -20t-29 -7z" />
    <glyph glyph-name="uni01D1" unicode="&#x1d1;" horiz-adv-x="840" 
d="M415 -14q-109 0 -188.5 44.5t-122.5 123t-43 183.5q0 117 44.5 201t126.5 130t195 46q106 0 185.5 -42.5t123 -120t43.5 -183.5q0 -84 -25.5 -154t-73.5 -121t-115 -79t-150 -28zM428 67q53 0 94 17.5t69 52t42.5 87.5t14.5 125q0 69 -16.5 123t-46.5 90t-73.5 54
t-99.5 18q-52 0 -93 -17.5t-69 -52t-42.5 -87t-14.5 -121.5q0 -70 16 -124t47 -90.5t74.5 -55.5t97.5 -19zM420 758q-12 0 -23.5 7t-28.5 24l-121 124l30 40l144 -84l146 84l28 -39l-127 -130q-12 -13 -23 -19.5t-25 -6.5z" />
    <glyph glyph-name="uni01D2" unicode="&#x1d2;" horiz-adv-x="656" 
d="M319 -14q-81 0 -139.5 31.5t-90 90t-31.5 140.5q0 91 34.5 154.5t97 97.5t146.5 34q81 0 140.5 -30.5t92 -89t32.5 -143.5q0 -90 -33 -154t-96 -97.5t-153 -33.5zM335 60q48 0 80 21t48.5 62.5t16.5 102.5q0 54 -11 94.5t-32 67t-50.5 39.5t-66.5 13q-44 0 -75.5 -20.5
t-48.5 -62t-17 -105.5q0 -68 19 -116t54 -72t83 -24zM327 593q-13 0 -22 3t-17 11t-18 20l-110 139l39 35l128 -99l132 99l38 -34l-118 -147q-11 -13 -23 -20t-29 -7z" />
    <glyph glyph-name="uni01D3" unicode="&#x1d3;" horiz-adv-x="884" 
d="M441 -14q-77 0 -132 18t-90.5 53t-53 87t-17.5 119v326q0 26 -7 36t-29 11l-56 4v60h306v-60l-58 -4q-17 -1 -25 -11.5t-8 -39.5v-317q0 -64 17.5 -108t58.5 -67t112 -23q68 0 111 22t64 67.5t21 113.5v316q0 26 -7 36t-29 11l-56 4v60h267v-60l-59 -4q-16 -1 -24 -11.5
t-8 -39.5v-300q0 -99 -33.5 -166t-99.5 -100t-165 -33zM455 758q-12 0 -23.5 7t-28.5 24l-121 124l30 40l144 -84l146 84l28 -39l-127 -130q-12 -13 -23 -19.5t-25 -6.5z" />
    <glyph glyph-name="uni01D4" unicode="&#x1d4;" horiz-adv-x="716" 
d="M297 -14q-84 0 -128.5 44t-44.5 127v232q0 35 -6.5 47.5t-30.5 14.5l-45 4l9 61l173 12l14 -8v-330q0 -39 7.5 -66.5t29 -41t62.5 -13.5q42 0 73 18.5t48 51.5t17 73v177q0 32 -5.5 46t-31.5 16l-46 4l10 61l173 12l14 -8v-407q0 -25 7 -35.5t27 -13.5l52 -4v-60l-178 -6
l-15 82h-3q-27 -29 -55 -49t-59 -30.5t-68 -10.5zM342 593q-13 0 -22 3t-17 11t-18 20l-110 139l39 35l128 -99l132 99l38 -34l-118 -147q-11 -13 -23 -20t-29 -7z" />
    <glyph glyph-name="uni01D5" unicode="&#x1d5;" horiz-adv-x="884" 
d="M441 -14q-77 0 -132 18t-90.5 53t-53 87t-17.5 119v326q0 26 -7 36t-29 11l-56 4v60h306v-60l-58 -4q-17 -1 -25 -11.5t-8 -39.5v-317q0 -64 17.5 -108t58.5 -67t112 -23q68 0 111 22t64 67.5t21 113.5v316q0 26 -7 36t-29 11l-56 4v60h267v-60l-59 -4q-16 -1 -24 -11.5
t-8 -39.5v-300q0 -99 -33.5 -166t-99.5 -100t-165 -33zM561 771q-31 0 -51 19t-20 50q0 30 20 49.5t51 19.5q34 0 53 -19t19 -49q0 -31 -20 -50.5t-52 -19.5zM348 771q-31 0 -51 19t-20 50q0 30 20 49.5t51 19.5q33 0 53 -19t20 -49q0 -31 -20.5 -50.5t-52.5 -19.5zM301 979
v89h304v-89h-304z" />
    <glyph glyph-name="uni01D6" unicode="&#x1d6;" horiz-adv-x="716" 
d="M297 -14q-84 0 -128.5 44t-44.5 127v232q0 35 -6.5 47.5t-30.5 14.5l-45 4l9 61l173 12l14 -8v-330q0 -39 7.5 -66.5t29 -41t62.5 -13.5q42 0 73 18.5t48 51.5t17 73v177q0 32 -5.5 46t-31.5 16l-46 4l10 61l173 12l14 -8v-407q0 -25 7 -35.5t27 -13.5l52 -4v-60l-178 -6
l-15 82h-3q-27 -29 -55 -49t-59 -30.5t-68 -10.5zM447 620q-31 0 -51 18.5t-20 48.5t20 49t51 19q32 0 51.5 -18.5t19.5 -48.5t-20 -49t-51 -19zM232 620q-30 0 -50 18.5t-20 48.5t20 49t50 19q34 0 53 -18.5t19 -48.5t-20 -49t-52 -19zM188 829v89h304v-89h-304z" />
    <glyph glyph-name="uni01D7" unicode="&#x1d7;" horiz-adv-x="884" 
d="M441 -14q-77 0 -132 18t-90.5 53t-53 87t-17.5 119v326q0 26 -7 36t-29 11l-56 4v60h306v-60l-58 -4q-17 -1 -25 -11.5t-8 -39.5v-317q0 -64 17.5 -108t58.5 -67t112 -23q68 0 111 22t64 67.5t21 113.5v316q0 26 -7 36t-29 11l-56 4v60h267v-60l-59 -4q-16 -1 -24 -11.5
t-8 -39.5v-300q0 -99 -33.5 -166t-99.5 -100t-165 -33zM372 950l-27 39l137 123q14 12 24 17t19 5q22 0 35.5 -18.5t13.5 -38.5q0 -21 -11.5 -35.5t-34.5 -23.5zM561 771q-31 0 -51 19t-20 50q0 30 20 49.5t51 19.5q34 0 53 -19t19 -49q0 -31 -20 -50.5t-52 -19.5zM348 771
q-31 0 -51 19t-20 50q0 30 20 49.5t51 19.5q33 0 53 -19t20 -49q0 -31 -20.5 -50.5t-52.5 -19.5z" />
    <glyph glyph-name="uni01D8" unicode="&#x1d8;" horiz-adv-x="716" 
d="M297 -14q-84 0 -128.5 44t-44.5 127v232q0 35 -6.5 47.5t-30.5 14.5l-45 4l9 61l173 12l14 -8v-330q0 -39 7.5 -66.5t29 -41t62.5 -13.5q42 0 73 18.5t48 51.5t17 73v177q0 32 -5.5 46t-31.5 16l-46 4l10 61l173 12l14 -8v-407q0 -25 7 -35.5t27 -13.5l52 -4v-60l-178 -6
l-15 82h-3q-27 -29 -55 -49t-59 -30.5t-68 -10.5zM269 805l-27 39l137 123q14 12 24 17t19 5q22 0 35.5 -18.5t13.5 -38.5q0 -21 -11.5 -35.5t-34.5 -23.5zM443 620q-31 0 -51 18.5t-20 48.5t20 49t51 19q32 0 51.5 -18.5t19.5 -48.5t-20 -49t-51 -19zM228 620
q-30 0 -50 18.5t-20 48.5t20 49t50 19q34 0 53 -18.5t19 -48.5t-20 -49t-52 -19z" />
    <glyph glyph-name="uni01D9" unicode="&#x1d9;" horiz-adv-x="884" 
d="M441 -14q-77 0 -132 18t-90.5 53t-53 87t-17.5 119v326q0 26 -7 36t-29 11l-56 4v60h306v-60l-58 -4q-17 -1 -25 -11.5t-8 -39.5v-317q0 -64 17.5 -108t58.5 -67t112 -23q68 0 111 22t64 67.5t21 113.5v316q0 26 -7 36t-29 11l-56 4v60h267v-60l-59 -4q-16 -1 -24 -11.5
t-8 -39.5v-300q0 -99 -33.5 -166t-99.5 -100t-165 -33zM447 952q-12 0 -23.5 7t-28.5 24l-121 124l30 40l144 -84l146 84l28 -39l-127 -130q-12 -13 -23 -19.5t-25 -6.5zM556 771q-31 0 -51 19t-20 50q0 30 20 49.5t51 19.5q34 0 53 -19t19 -49q0 -31 -20 -50.5t-52 -19.5z
M343 771q-31 0 -51 19t-20 50q0 30 20 49.5t51 19.5q33 0 53 -19t20 -49q0 -31 -20.5 -50.5t-52.5 -19.5z" />
    <glyph glyph-name="uni01DA" unicode="&#x1da;" horiz-adv-x="716" 
d="M297 -14q-84 0 -128.5 44t-44.5 127v232q0 35 -6.5 47.5t-30.5 14.5l-45 4l9 61l173 12l14 -8v-330q0 -39 7.5 -66.5t29 -41t62.5 -13.5q42 0 73 18.5t48 51.5t17 73v177q0 32 -5.5 46t-31.5 16l-46 4l10 61l173 12l14 -8v-407q0 -25 7 -35.5t27 -13.5l52 -4v-60l-178 -6
l-15 82h-3q-27 -29 -55 -49t-59 -30.5t-68 -10.5zM334 812q-12 0 -23.5 7t-28.5 24l-121 124l30 40l144 -84l146 84l28 -39l-127 -130q-12 -13 -23 -19.5t-25 -6.5zM443 620q-31 0 -51 18.5t-20 48.5t20 49t51 19q32 0 51.5 -18.5t19.5 -48.5t-20 -49t-51 -19zM228 620
q-30 0 -50 18.5t-20 48.5t20 49t50 19q34 0 53 -18.5t19 -48.5t-20 -49t-52 -19z" />
    <glyph glyph-name="uni01DB" unicode="&#x1db;" horiz-adv-x="884" 
d="M441 -14q-77 0 -132 18t-90.5 53t-53 87t-17.5 119v326q0 26 -7 36t-29 11l-56 4v60h306v-60l-58 -4q-17 -1 -25 -11.5t-8 -39.5v-317q0 -64 17.5 -108t58.5 -67t112 -23q68 0 111 22t64 67.5t21 113.5v316q0 26 -7 36t-29 11l-56 4v60h267v-60l-59 -4q-16 -1 -24 -11.5
t-8 -39.5v-300q0 -99 -33.5 -166t-99.5 -100t-165 -33zM508 946l-157 68q-22 9 -33.5 23.5t-11.5 35.5q0 20 13 38.5t35 18.5q10 0 20 -5t24 -17l137 -123zM561 771q-31 0 -51 19t-20 50q0 30 20 49.5t51 19.5q34 0 53 -19t19 -49q0 -31 -20 -50.5t-52 -19.5zM348 771
q-31 0 -51 19t-20 50q0 30 20 49.5t51 19.5q33 0 53 -19t20 -49q0 -31 -20.5 -50.5t-52.5 -19.5z" />
    <glyph glyph-name="uni01DC" unicode="&#x1dc;" horiz-adv-x="716" 
d="M297 -14q-84 0 -128.5 44t-44.5 127v232q0 35 -6.5 47.5t-30.5 14.5l-45 4l9 61l173 12l14 -8v-330q0 -39 7.5 -66.5t29 -41t62.5 -13.5q42 0 73 18.5t48 51.5t17 73v177q0 32 -5.5 46t-31.5 16l-46 4l10 61l173 12l14 -8v-407q0 -25 7 -35.5t27 -13.5l52 -4v-60l-178 -6
l-15 82h-3q-27 -29 -55 -49t-59 -30.5t-68 -10.5zM405 806l-157 68q-22 9 -33.5 23.5t-11.5 35.5q0 20 13 38.5t35 18.5q10 0 20 -5t24 -17l137 -123zM444 620q-31 0 -51 18.5t-20 48.5t20 49t51 19q32 0 51.5 -18.5t19.5 -48.5t-20 -49t-51 -19zM229 620q-30 0 -50 18.5
t-20 48.5t20 49t50 19q34 0 53 -18.5t19 -48.5t-20 -49t-52 -19z" />
    <glyph glyph-name="Gcaron" unicode="&#x1e6;" horiz-adv-x="827" 
d="M407 -14q-109 0 -186.5 45.5t-118.5 127t-41 186.5q0 87 25 155.5t70.5 116.5t109 72.5t141.5 24.5q64 0 109.5 -15.5t80.5 -42.5l11 58h55l42 -229l-65 -14q-22 60 -54 96t-74.5 52.5t-98.5 16.5q-53 0 -93.5 -17.5t-69 -51t-43 -83.5t-14.5 -116q0 -67 16 -120.5
t46.5 -92t75.5 -59t102 -20.5q34 0 62.5 5.5t51.5 16t40 26.5v104q0 23 -5.5 34.5t-30.5 12.5l-62 4v60h297v-60l-50 -4q-17 -1 -24.5 -11.5t-7.5 -39.5v-227h-63l-27 55q-25 -19 -57.5 -34t-70 -23.5t-79.5 -8.5zM407 758q-12 0 -23.5 7t-28.5 24l-121 124l30 40l144 -84
l146 84l28 -39l-127 -130q-12 -13 -23 -19.5t-25 -6.5z" />
    <glyph glyph-name="gcaron" unicode="&#x1e7;" horiz-adv-x="623" 
d="M284 -231q-62 0 -109.5 8t-79 24t-47.5 39.5t-16 54.5q0 28 11.5 48t34.5 37t56 30v4q-28 9 -47 31.5t-19 47.5t15 53t55 64v3q-40 20 -60.5 54.5t-20.5 83.5q0 57 29.5 97.5t81.5 62.5t121 22q26 0 49.5 -3t45.5 -9.5t42 -17.5q20 48 50.5 74t71.5 26q20 0 37 -7.5
t26.5 -20t9.5 -30.5q0 -24 -19 -41.5t-43 -17.5q-15 0 -26 7t-19 20l-11 20q-9 -13 -17 -27.5t-16 -33.5q22 -23 34 -52t12 -64q0 -53 -27.5 -93t-78 -62.5t-119.5 -22.5q-25 0 -49 3t-37 7q-18 -17 -27 -32.5t-9 -28.5q0 -16 9.5 -25t26.5 -12t38 -3h149q90 0 140.5 -29.5
t50.5 -99.5q0 -33 -12 -61.5t-35.5 -52t-59.5 -40.5t-84 -26t-108 -9zM295 -155q52 0 89.5 11t58 30.5t20.5 44.5q0 29 -24.5 43t-70.5 14h-177q-23 -16 -35 -34.5t-12 -41.5q0 -32 35.5 -49.5t115.5 -17.5zM287 253q55 0 83.5 26.5t28.5 74.5q0 49 -31 78t-86 29
q-52 0 -79.5 -29t-27.5 -76q0 -46 30.5 -74.5t81.5 -28.5zM283 601q-13 0 -22 3t-17 11t-18 20l-110 139l39 35l128 -99l132 99l38 -34l-118 -147q-11 -13 -23 -20t-29 -7z" />
    <glyph glyph-name="uni01EA" unicode="&#x1ea;" horiz-adv-x="840" 
d="M443 -233q-33 0 -56 12t-34.5 31.5t-11.5 43.5q0 30 15 54t38.5 43.5t48.5 35.5q-7 -1 -14 -1h-14q-109 0 -188.5 44.5t-122.5 123t-43 183.5q0 117 44.5 201t126.5 130t195 46q107 0 186 -42.5t122.5 -120t43.5 -183.5q0 -91 -30 -165.5t-85 -125.5t-132 -74
q-31 -25 -51 -46t-30.5 -40t-10.5 -39t11 -30.5t34 -10.5q15 0 31 4.5t28 10.5l17 -46q-13 -9 -31 -18.5t-40 -15t-47 -5.5zM428 67q53 0 94 17.5t69 52t42.5 87.5t14.5 124t-16.5 124.5t-46.5 89.5t-73.5 54t-99.5 18q-52 0 -93 -17.5t-69 -52t-42.5 -87t-14.5 -121.5
q0 -70 16 -124t47 -90.5t74.5 -55.5t97.5 -19z" />
    <glyph glyph-name="uni01EB" unicode="&#x1eb;" horiz-adv-x="656" 
d="M338 -233q-33 0 -56.5 12t-34.5 31.5t-11 43.5q0 29 15 53t38.5 44t48.5 36q-6 -1 -12.5 -1h-12.5q-79 1 -136.5 32.5t-88 90t-30.5 139.5q0 91 34.5 154.5t97 97.5t146.5 34q81 0 140.5 -30.5t92 -89t32.5 -143.5q0 -105 -45.5 -175t-130.5 -96q-45 -35 -67.5 -63.5
t-22.5 -58.5q0 -20 10.5 -30.5t34.5 -10.5q15 0 31 4.5t28 10.5l17 -46q-13 -9 -31 -18.5t-40 -15t-47 -5.5zM335 60q48 0 80 21t48.5 62.5t16.5 102.5q0 54 -11 94.5t-32 67t-50.5 39.5t-66.5 13q-44 0 -75.5 -20.5t-48.5 -62t-17 -105.5q0 -68 19 -116t54 -72t83 -24z" />
    <glyph glyph-name="Aringacute" unicode="&#x1fa;" 
d="M15 0v61l54 5q17 2 27 11t22 41l215 548q-26 14 -37.5 38t-11.5 55q0 32 15 57t44.5 39t71.5 14q63 0 94.5 -29t31.5 -79q0 -32 -13 -56.5t-39 -38.5l212 -550q8 -24 17.5 -36t30.5 -14l46 -5v-61h-306v61l59 4q17 1 24.5 11t-3.5 39l-40 106h-286l-39 -104
q-8 -20 -5 -36t30 -18l57 -3v-60h-271zM268 292h237l-113 310h-7zM414 702q19 0 30 6.5t15.5 19.5t4.5 31t-5.5 30.5t-17 19t-29.5 6.5q-19 0 -30 -6.5t-16 -19t-5 -30.5q0 -17 5 -30t16.5 -20t31.5 -7zM340 896l-27 38l137 123q14 12 24 17t20 5q22 0 35 -18.5t13 -38.5
q0 -21 -11.5 -35.5t-33.5 -23.5z" />
    <glyph glyph-name="aringacute" unicode="&#x1fb;" horiz-adv-x="613" 
d="M216 -14q-70 0 -112.5 38t-42.5 100q0 58 30 93.5t99 53t185 22.5v70q0 34 -9.5 58t-35 37.5t-70.5 13.5q-27 0 -52.5 -7t-38.5 -18q10 -15 16 -27t9 -20t3 -13q0 -23 -19 -37t-47 -14q-32 0 -49 16t-17 46q0 37 28.5 68t77.5 49.5t108 18.5q72 0 118.5 -20.5t69 -61.5
t22.5 -102v-237q0 -22 11.5 -33.5t35.5 -11.5q14 0 26.5 2.5t25.5 7.5l13 -51q-18 -16 -49 -28.5t-63 -12.5q-47 0 -71.5 22t-32.5 63q-19 -27 -44 -46t-56.5 -29t-68.5 -10zM262 65q31 0 56.5 13t41 35t15.5 48v67q-68 0 -111.5 -9t-64 -28.5t-20.5 -51.5q0 -35 22.5 -54.5
t60.5 -19.5zM277 591q-64 0 -95.5 31t-31.5 81q0 31 15 56t44.5 39.5t72.5 14.5q63 0 94.5 -29.5t31.5 -79.5q0 -34 -15.5 -59t-45 -39.5t-70.5 -14.5zM280 646q19 0 30 6.5t15.5 19.5t4.5 31t-5.5 30.5t-16.5 19t-30 6.5t-30 -6.5t-16 -19t-5 -30.5t5 -31t16.5 -19.5
t31.5 -6.5zM199 836l-27 39l137 123q14 12 24 17t19 5q22 0 35.5 -18.5t13.5 -38.5q0 -21 -11.5 -35.5t-34.5 -23.5z" />
    <glyph glyph-name="AEacute" unicode="&#x1fc;" horiz-adv-x="1049" 
d="M15 0v61l44 5q8 1 15.5 4t15.5 13.5t19 33.5l259 519l-82 5v59h650l37 -174l-66 -17q-16 42 -30 66t-31.5 36.5t-41.5 16t-61 3.5h-109v-255h86q24 0 39 2.5t23 10.5t14.5 24.5t12.5 42.5l55 6v-231l-55 -9q-6 39 -15 57.5t-26 23.5t-50 5h-84v-239h137q36 0 61 5.5
t42 19t29 39t23 65.5h67l-23 -198h-552v60l63 4q19 1 26.5 11t7.5 40v193h-224l-91 -189q-7 -14 -9 -24t0.5 -16.5t10.5 -10.5t21 -5l51 -3l-1 -60h-258zM324 376h191v255h-69zM588 750l-27 39l137 123q14 12 24 17t19 5q22 0 35.5 -18.5t13.5 -38.5q0 -21 -11.5 -35.5
t-34.5 -23.5z" />
    <glyph glyph-name="aeacute" unicode="&#x1fd;" horiz-adv-x="900" 
d="M216 -14q-46 0 -81 17t-54.5 48.5t-19.5 72.5q0 67 38.5 103.5t132.5 52.5q28 5 64.5 8.5t78.5 4.5v70q0 34 -9.5 58t-35 37.5t-70.5 13.5q-27 0 -52.5 -7t-38.5 -18q10 -15 16 -27t9 -20t3 -13q0 -23 -19 -37t-47 -14q-32 0 -49 16t-17 46q0 37 28.5 68t77.5 49.5
t108 18.5q63 0 106 -18.5t70 -55.5q33 36 79 55t102 19q63 0 109.5 -22.5t71.5 -64.5t25 -101q0 -27 -1.5 -51.5t-6.5 -50.5h-345q3 -54 22.5 -91.5t56.5 -56.5t91 -19q43 0 82 15.5t70 42.5l41 -46q-38 -47 -96.5 -75t-124.5 -28q-73 0 -127 25t-87 74q-22 -32 -49.5 -54
t-65 -33.5t-86.5 -11.5zM262 65q31 0 56.5 13t41 35t15.5 48v67q-32 0 -59 -1.5t-48 -6.5q-46 -10 -67.5 -29t-21.5 -52q0 -35 22.5 -54.5t60.5 -19.5zM489 313h238q2 11 2.5 21.5t0.5 22.5q0 51 -26.5 78.5t-77.5 27.5q-39 0 -68 -17t-46 -50.5t-23 -82.5zM412 592l-32 33
l109 139q12 16 22.5 23t22.5 7q17 0 28.5 -8.5t17 -21.5t5.5 -26q0 -16 -9 -29.5t-27 -25.5z" />
    <glyph glyph-name="Oslashacute" unicode="&#x1fe;" horiz-adv-x="843" 
d="M65 -14l88 103q-43 46 -66.5 109t-23.5 139q0 117 44.5 201t126 130t195.5 46q61 0 114 -14.5t95 -41.5l47 56h99l-89 -104q41 -45 63.5 -106t22.5 -136q0 -84 -25.5 -154t-74 -121t-115.5 -79t-150 -28q-60 0 -112 14.5t-93 40.5l-47 -55h-99zM429 67q54 0 95 17.5
t68.5 52t42 87.5t14.5 124q0 51 -9.5 93t-26.5 74l-334 -395q19 -17 42.5 -29t51 -18t56.5 -6zM235 182l334 397q-19 19 -43 30.5t-52 18t-60 6.5q-53 0 -93.5 -17.5t-68.5 -52t-42.5 -87t-14.5 -121.5q0 -52 10.5 -96t29.5 -78zM358 750l-27 39l137 123q14 12 24 17t19 5
q22 0 35.5 -18.5t13.5 -38.5q0 -21 -11.5 -35.5t-34.5 -23.5z" />
    <glyph glyph-name="oslashacute" unicode="&#x1ff;" horiz-adv-x="656" 
d="M40 -16l77 84q-28 33 -43.5 78.5t-15.5 101.5q0 91 34.5 154.5t97 97.5t146.5 34q49 0 90 -11t73 -35l34 38h89l-74 -82q26 -32 39.5 -75.5t13.5 -97.5q0 -90 -33 -154t-96 -97.5t-153 -33.5q-45 0 -83.5 10t-68.5 30l-38 -42h-89zM335 60q48 0 80 21t48.5 62.5
t16.5 102.5q0 31 -4 57.5t-13 47.5l-229 -252q13 -12 28.5 -21t34 -13.5t38.5 -4.5zM199 159l232 255q-14 16 -31 26t-37 15t-43 5q-44 0 -75.5 -20.5t-48.5 -62t-17 -105.5q0 -33 5 -61t15 -52zM288 592l-32 33l109 139q12 16 22.5 23t22.5 7q17 0 28.5 -8.5t17 -21.5
t5.5 -26q0 -16 -9 -29.5t-27 -25.5z" />
    <glyph glyph-name="uni0200" unicode="&#x200;" 
d="M15 0v61l54 5q17 2 27 11t22 41l228 582h130l225 -584q8 -24 17.5 -36t30.5 -14l46 -5v-61h-306v61l59 4q17 1 24.5 11t-3.5 39l-40 106h-286l-39 -104q-8 -20 -5 -36t30 -18l57 -3v-60h-271zM268 292h237l-113 310h-7zM509 752l-134 81q-21 13 -32.5 26t-11.5 34
q0 19 11 34t33 15q10 0 20 -5.5t22 -19.5l120 -126zM322 752l-143 69q-21 10 -33 24t-12 36q0 19 13 34.5t34 15.5q10 0 19.5 -6t22.5 -19l126 -114z" />
    <glyph glyph-name="uni0201" unicode="&#x201;" horiz-adv-x="609" 
d="M216 -14q-70 0 -112.5 38t-42.5 100q0 58 30 93.5t99 53t185 22.5v70q0 34 -9.5 58t-35 37.5t-70.5 13.5q-27 0 -52.5 -7t-38.5 -18q10 -15 16 -27t9 -20t3 -13q0 -23 -19 -37t-47 -14q-32 0 -49 16t-17 46q0 37 28.5 68t77.5 49.5t108 18.5q72 0 118.5 -20.5t69 -61.5
t22.5 -102v-237q0 -22 11.5 -33.5t35.5 -11.5q14 0 26.5 2.5t25.5 7.5l13 -51q-18 -16 -49 -28.5t-63 -12.5q-47 0 -71.5 22t-32.5 63q-19 -27 -44 -46t-56.5 -29t-68.5 -10zM262 65q31 0 56.5 13t41 35t15.5 48v67q-68 0 -111.5 -9t-64 -28.5t-20.5 -51.5q0 -35 22.5 -54.5
t60.5 -19.5zM207 591l-127 88q-17 12 -26 28t-9 31q0 13 5 25t15.5 20t25.5 8q12 0 21.5 -6.5t21.5 -23.5l105 -137zM374 591l-118 95q-16 14 -24 28t-8 28t5.5 26t16 20t25.5 8q12 0 21.5 -6.5t19.5 -23.5l94 -142z" />
    <glyph glyph-name="uni0202" unicode="&#x202;" 
d="M15 0v61l54 5q17 2 27 11t22 41l228 582h130l225 -584q8 -24 17.5 -36t30.5 -14l46 -5v-61h-306v61l59 4q17 1 24.5 11t-3.5 39l-40 106h-286l-39 -104q-8 -20 -5 -36t30 -18l57 -3v-60h-271zM268 292h237l-113 310h-7zM413 933q54 0 89 -23.5t54.5 -63t23.5 -86.5
l-53 -13q-14 51 -41.5 74t-76.5 23q-48 0 -76.5 -25.5t-40.5 -69.5l-51 10q4 45 24 84.5t57.5 64.5t90.5 25z" />
    <glyph glyph-name="uni0203" unicode="&#x203;" horiz-adv-x="609" 
d="M216 -14q-70 0 -112.5 38t-42.5 100q0 58 30 93.5t99 53t185 22.5v70q0 34 -9.5 58t-35 37.5t-70.5 13.5q-27 0 -52.5 -7t-38.5 -18q10 -15 16 -27t9 -20t3 -13q0 -23 -19 -37t-47 -14q-32 0 -49 16t-17 46q0 37 28.5 68t77.5 49.5t108 18.5q72 0 118.5 -20.5t69 -61.5
t22.5 -102v-237q0 -22 11.5 -33.5t35.5 -11.5q14 0 26.5 2.5t25.5 7.5l13 -51q-18 -16 -49 -28.5t-63 -12.5q-47 0 -71.5 22t-32.5 63q-19 -27 -44 -46t-56.5 -29t-68.5 -10zM262 65q31 0 56.5 13t41 35t15.5 48v67q-68 0 -111.5 -9t-64 -28.5t-20.5 -51.5q0 -35 22.5 -54.5
t60.5 -19.5zM283 784q52 0 86 -24.5t53 -65t23 -89.5l-51 -12q-9 35 -25 57.5t-38 33.5t-52 11q-47 0 -75 -27.5t-38 -73.5l-51 10q5 46 25 87t55.5 67t87.5 26z" />
    <glyph glyph-name="uni0204" unicode="&#x204;" horiz-adv-x="698" 
d="M66 0v60l63 4q18 1 26 11t8 40v474q0 25 -7 35.5t-29 11.5l-61 4v60h518l37 -174l-66 -17q-15 41 -29 65.5t-31.5 37t-42 16t-60.5 3.5h-110v-242h86q33 0 49 5t24 22t17 54l55 6v-232l-56 -9q-6 39 -15 57.5t-25.5 23.5t-50.5 5h-84v-252h137q37 0 62.5 5.5t42 19.5
t28.5 39.5t22 64.5h68l-24 -198h-552zM449 752l-134 81q-21 13 -32.5 26t-11.5 34q0 19 11 34t33 15q10 0 20 -5.5t22 -19.5l120 -126zM262 752l-143 69q-21 10 -33 24t-12 36q0 19 13 34.5t34 15.5q10 0 19.5 -6t22.5 -19l126 -114z" />
    <glyph glyph-name="uni0205" unicode="&#x205;" horiz-adv-x="590" 
d="M321 -14q-82 0 -140.5 32t-90.5 91t-32 138q0 90 34 154.5t94 98.5t140 34q63 0 109.5 -22.5t72 -64.5t25.5 -101q0 -26 -2 -51t-7 -51h-345q2 -55 23.5 -92.5t59 -56t87.5 -18.5q43 0 82 15.5t70 42.5l42 -46q-39 -47 -97.5 -75t-124.5 -28zM178 313h239q2 11 2.5 22
t0.5 22q0 51 -26.5 78.5t-77.5 27.5q-39 0 -68 -17.5t-46.5 -50.5t-23.5 -82zM242 591l-127 88q-17 12 -26 28t-9 31q0 13 5 25t15.5 20t25.5 8q12 0 21.5 -6.5t21.5 -23.5l105 -137zM409 591l-118 95q-16 14 -24 28t-8 28t5.5 26t16 20t25.5 8q12 0 21.5 -6.5t19.5 -23.5
l94 -142z" />
    <glyph glyph-name="uni0206" unicode="&#x206;" horiz-adv-x="698" 
d="M66 0v60l63 4q18 1 26 11t8 40v474q0 25 -7 35.5t-29 11.5l-61 4v60h518l37 -174l-66 -17q-15 41 -29 65.5t-31.5 37t-42 16t-60.5 3.5h-110v-242h86q33 0 49 5t24 22t17 54l55 6v-232l-56 -9q-6 39 -15 57.5t-25.5 23.5t-50.5 5h-84v-252h137q37 0 62.5 5.5t42 19.5
t28.5 39.5t22 64.5h68l-24 -198h-552zM353 933q54 0 89 -23.5t54.5 -63t23.5 -86.5l-53 -13q-14 51 -41.5 74t-76.5 23q-48 0 -76.5 -25.5t-40.5 -69.5l-51 10q4 45 24 84.5t57.5 64.5t90.5 25z" />
    <glyph glyph-name="uni0207" unicode="&#x207;" horiz-adv-x="590" 
d="M321 -14q-82 0 -140.5 32t-90.5 91t-32 138q0 90 34 154.5t94 98.5t140 34q63 0 109.5 -22.5t72 -64.5t25.5 -101q0 -26 -2 -51t-7 -51h-345q2 -55 23.5 -92.5t59 -56t87.5 -18.5q43 0 82 15.5t70 42.5l42 -46q-39 -47 -97.5 -75t-124.5 -28zM178 313h239q2 11 2.5 22
t0.5 22q0 51 -26.5 78.5t-77.5 27.5q-39 0 -68 -17.5t-46.5 -50.5t-23.5 -82zM318 784q52 0 86 -24.5t53 -65t23 -89.5l-51 -12q-9 35 -25 57.5t-38 33.5t-52 11q-47 0 -75 -27.5t-38 -73.5l-51 10q5 46 25 87t55.5 67t87.5 26z" />
    <glyph glyph-name="uni0208" unicode="&#x208;" horiz-adv-x="445" 
d="M66 0v60l64 4q17 1 25 11t8 40v474q0 22 -6 34t-31 13l-60 4v60h313v-60l-64 -4q-19 -1 -26 -12t-7 -39v-474q0 -23 6.5 -34t28.5 -13l62 -4v-60h-313zM321 752l-134 81q-21 13 -32.5 26t-11.5 34q0 19 11 34t33 15q10 0 20 -5.5t22 -19.5l120 -126zM134 752l-143 69
q-21 10 -33 24t-12 36q0 19 13 34.5t34 15.5q10 0 19.5 -6t22.5 -19l126 -114z" />
    <glyph glyph-name="uni0209" unicode="&#x209;" horiz-adv-x="382" 
d="M47 0v60l63 4q20 1 26.5 11.5t6.5 38.5v276q0 35 -7 47.5t-32 13.5l-56 3l8 63l187 11l14 -8v-409q0 -20 5 -33t29 -14l62 -4v-60h-306zM89 590l-127 88q-17 12 -26 28t-9 31q0 13 5 25t15.5 20t25.5 8q12 0 21.5 -6.5t21.5 -23.5l105 -137zM256 590l-118 95
q-16 14 -24 28t-8 28t5.5 26t16 20t25.5 8q12 0 21.5 -6.5t19.5 -23.5l94 -142z" />
    <glyph glyph-name="uni020A" unicode="&#x20a;" horiz-adv-x="445" 
d="M66 0v60l64 4q17 1 25 11t8 40v474q0 22 -6 34t-31 13l-60 4v60h313v-60l-64 -4q-19 -1 -26 -12t-7 -39v-474q0 -23 6.5 -34t28.5 -13l62 -4v-60h-313zM225 933q54 0 89 -23.5t54.5 -63t23.5 -86.5l-53 -13q-14 51 -41.5 74t-76.5 23q-48 0 -76.5 -25.5t-40.5 -69.5
l-51 10q4 45 24 84.5t57.5 64.5t90.5 25z" />
    <glyph glyph-name="uni020B" unicode="&#x20b;" horiz-adv-x="382" 
d="M47 0v60l63 4q20 1 26.5 11.5t6.5 38.5v276q0 35 -7 47.5t-32 13.5l-56 3l8 63l187 11l14 -8v-409q0 -20 5 -33t29 -14l62 -4v-60h-306zM165 783q52 0 86 -24.5t53 -65t23 -89.5l-51 -12q-9 35 -25 57.5t-38 33.5t-52 11q-47 0 -75 -27.5t-38 -73.5l-51 10q5 46 25 87
t55.5 67t87.5 26z" />
    <glyph glyph-name="uni020C" unicode="&#x20c;" horiz-adv-x="840" 
d="M415 -14q-109 0 -188.5 44.5t-122.5 123t-43 183.5q0 117 44.5 201t126.5 130t195 46q106 0 185.5 -42.5t123 -120t43.5 -183.5q0 -84 -25.5 -154t-73.5 -121t-115 -79t-150 -28zM428 67q53 0 94 17.5t69 52t42.5 87.5t14.5 125q0 69 -16.5 123t-46.5 90t-73.5 54
t-99.5 18q-52 0 -93 -17.5t-69 -52t-42.5 -87t-14.5 -121.5q0 -70 16 -124t47 -90.5t74.5 -55.5t97.5 -19zM519 752l-134 81q-21 13 -32.5 26t-11.5 34q0 19 11 34t33 15q10 0 20 -5.5t22 -19.5l120 -126zM332 752l-143 69q-21 10 -33 24t-12 36q0 19 13 34.5t34 15.5
q10 0 19.5 -6t22.5 -19l126 -114z" />
    <glyph glyph-name="uni020D" unicode="&#x20d;" horiz-adv-x="656" 
d="M319 -14q-81 0 -139.5 31.5t-90 90t-31.5 140.5q0 91 34.5 154.5t97 97.5t146.5 34q81 0 140.5 -30.5t92 -89t32.5 -143.5q0 -90 -33 -154t-96 -97.5t-153 -33.5zM335 60q48 0 80 21t48.5 62.5t16.5 102.5q0 54 -11 94.5t-32 67t-50.5 39.5t-66.5 13q-44 0 -75.5 -20.5
t-48.5 -62t-17 -105.5q0 -68 19 -116t54 -72t83 -24zM255 591l-127 88q-17 12 -26 28t-9 31q0 13 5 25t15.5 20t25.5 8q12 0 21.5 -6.5t21.5 -23.5l105 -137zM422 591l-118 95q-16 14 -24 28t-8 28t5.5 26t16 20t25.5 8q12 0 21.5 -6.5t19.5 -23.5l94 -142z" />
    <glyph glyph-name="uni020E" unicode="&#x20e;" horiz-adv-x="840" 
d="M415 -14q-109 0 -188.5 44.5t-122.5 123t-43 183.5q0 117 44.5 201t126.5 130t195 46q106 0 185.5 -42.5t123 -120t43.5 -183.5q0 -84 -25.5 -154t-73.5 -121t-115 -79t-150 -28zM428 67q53 0 94 17.5t69 52t42.5 87.5t14.5 125q0 69 -16.5 123t-46.5 90t-73.5 54
t-99.5 18q-52 0 -93 -17.5t-69 -52t-42.5 -87t-14.5 -121.5q0 -70 16 -124t47 -90.5t74.5 -55.5t97.5 -19zM423 933q54 0 89 -23.5t54.5 -63t23.5 -86.5l-53 -13q-14 51 -41.5 74t-76.5 23q-48 0 -76.5 -25.5t-40.5 -69.5l-51 10q4 45 24 84.5t57.5 64.5t90.5 25z" />
    <glyph glyph-name="uni020F" unicode="&#x20f;" horiz-adv-x="656" 
d="M319 -14q-81 0 -139.5 31.5t-90 90t-31.5 140.5q0 91 34.5 154.5t97 97.5t146.5 34q81 0 140.5 -30.5t92 -89t32.5 -143.5q0 -90 -33 -154t-96 -97.5t-153 -33.5zM335 60q48 0 80 21t48.5 62.5t16.5 102.5q0 54 -11 94.5t-32 67t-50.5 39.5t-66.5 13q-44 0 -75.5 -20.5
t-48.5 -62t-17 -105.5q0 -68 19 -116t54 -72t83 -24zM331 784q52 0 86 -24.5t53 -65t23 -89.5l-51 -12q-9 35 -25 57.5t-38 33.5t-52 11q-47 0 -75 -27.5t-38 -73.5l-51 10q5 46 25 87t55.5 67t87.5 26z" />
    <glyph glyph-name="uni0210" unicode="&#x210;" horiz-adv-x="772" 
d="M650 -14q-40 0 -69.5 12.5t-51.5 41t-42 74.5l-49 117q-11 26 -22.5 44.5t-30.5 28.5t-55 10q-13 0 -25 -0.5t-23 -2.5v-197q0 -28 7.5 -37.5t32.5 -12.5l65 -3v-61h-321v60l63 4q17 1 25.5 10.5t8.5 40.5v474q0 21 -6 33.5t-31 13.5l-60 4v60h293q67 0 120 -10t90 -31
t56.5 -55t19.5 -82q0 -31 -10 -58t-28.5 -48t-42.5 -37t-53 -27t-61 -15v-3q47 -11 73.5 -29t45.5 -62l35 -76q18 -39 31 -61.5t29.5 -31.5t41.5 -9q10 0 21 1.5t27 6.5l13 -46q-23 -19 -52 -30t-65 -11zM341 374q54 0 92.5 16t59 47.5t20.5 75.5q0 48 -22 74t-60.5 36
t-90.5 10h-57v-257q14 -1 31 -1.5t27 -0.5zM447 752l-134 81q-21 13 -32.5 26t-11.5 34q0 19 11 34t33 15q10 0 20 -5.5t22 -19.5l120 -126zM260 752l-143 69q-21 10 -33 24t-12 36q0 19 13 34.5t34 15.5q10 0 19.5 -6t22.5 -19l126 -114z" />
    <glyph glyph-name="uni0211" unicode="&#x211;" horiz-adv-x="544" 
d="M60 0v60l52 4q18 1 24 11t6 37v281q0 33 -7 45t-30 13l-55 3l8 62l161 12l14 -8l8 -91h6q30 51 72 78.5t91 27.5q52 0 81.5 -27t29.5 -73q0 -28 -8 -48t-24.5 -30.5t-41.5 -10.5q-32 0 -48 13.5t-16 34.5q0 8 2 15.5t6 18t11 25.5q-24 10 -49.5 2.5t-47.5 -27.5
t-35.5 -49.5t-13.5 -63.5v-205q0 -24 5 -34.5t24 -11.5l89 -5v-59h-314zM228 591l-127 88q-17 12 -26 28t-9 31q0 13 5 25t15.5 20t25.5 8q12 0 21.5 -6.5t21.5 -23.5l105 -137zM395 591l-118 95q-16 14 -24 28t-8 28t5.5 26t16 20t25.5 8q12 0 21.5 -6.5t19.5 -23.5
l94 -142z" />
    <glyph glyph-name="uni0212" unicode="&#x212;" horiz-adv-x="772" 
d="M650 -14q-40 0 -69.5 12.5t-51.5 41t-42 74.5l-49 117q-11 26 -22.5 44.5t-30.5 28.5t-55 10q-13 0 -25 -0.5t-23 -2.5v-197q0 -28 7.5 -37.5t32.5 -12.5l65 -3v-61h-321v60l63 4q17 1 25.5 10.5t8.5 40.5v474q0 21 -6 33.5t-31 13.5l-60 4v60h293q67 0 120 -10t90 -31
t56.5 -55t19.5 -82q0 -31 -10 -58t-28.5 -48t-42.5 -37t-53 -27t-61 -15v-3q47 -11 73.5 -29t45.5 -62l35 -76q18 -39 31 -61.5t29.5 -31.5t41.5 -9q10 0 21 1.5t27 6.5l13 -46q-23 -19 -52 -30t-65 -11zM341 374q54 0 92.5 16t59 47.5t20.5 75.5q0 48 -22 74t-60.5 36
t-90.5 10h-57v-257q14 -1 31 -1.5t27 -0.5zM351 933q54 0 89 -23.5t54.5 -63t23.5 -86.5l-53 -13q-14 51 -41.5 74t-76.5 23q-48 0 -76.5 -25.5t-40.5 -69.5l-51 10q4 45 24 84.5t57.5 64.5t90.5 25z" />
    <glyph glyph-name="uni0213" unicode="&#x213;" horiz-adv-x="544" 
d="M60 0v60l52 4q18 1 24 11t6 37v281q0 33 -7 45t-30 13l-55 3l8 62l161 12l14 -8l8 -91h6q30 51 72 78.5t91 27.5q52 0 81.5 -27t29.5 -73q0 -28 -8 -48t-24.5 -30.5t-41.5 -10.5q-32 0 -48 13.5t-16 34.5q0 8 2 15.5t6 18t11 25.5q-24 10 -49.5 2.5t-47.5 -27.5
t-35.5 -49.5t-13.5 -63.5v-205q0 -24 5 -34.5t24 -11.5l89 -5v-59h-314zM304 784q52 0 86 -24.5t53 -65t23 -89.5l-51 -12q-9 35 -25 57.5t-38 33.5t-52 11q-47 0 -75 -27.5t-38 -73.5l-51 10q5 46 25 87t55.5 67t87.5 26z" />
    <glyph glyph-name="uni0214" unicode="&#x214;" horiz-adv-x="884" 
d="M441 -14q-77 0 -132 18t-90.5 53t-53 87t-17.5 119v326q0 26 -7 36t-29 11l-56 4v60h306v-60l-58 -4q-17 -1 -25 -11.5t-8 -39.5v-317q0 -64 17.5 -108t58.5 -67t112 -23q68 0 111 22t64 67.5t21 113.5v316q0 26 -7 36t-29 11l-56 4v60h267v-60l-59 -4q-16 -1 -24 -11.5
t-8 -39.5v-300q0 -99 -33.5 -166t-99.5 -100t-165 -33zM554 752l-134 81q-21 13 -32.5 26t-11.5 34q0 19 11 34t33 15q10 0 20 -5.5t22 -19.5l120 -126zM367 752l-143 69q-21 10 -33 24t-12 36q0 19 13 34.5t34 15.5q10 0 19.5 -6t22.5 -19l126 -114z" />
    <glyph glyph-name="uni0215" unicode="&#x215;" horiz-adv-x="716" 
d="M297 -14q-84 0 -128.5 44t-44.5 127v232q0 35 -6.5 47.5t-30.5 14.5l-45 4l9 61l173 12l14 -8v-330q0 -39 7.5 -66.5t29 -41t62.5 -13.5q42 0 73 18.5t48 51.5t17 73v177q0 32 -5.5 46t-31.5 16l-46 4l10 61l173 12l14 -8v-407q0 -25 7 -35.5t27 -13.5l52 -4v-60l-178 -6
l-15 82h-3q-27 -29 -55 -49t-59 -30.5t-68 -10.5zM271 591l-127 88q-17 12 -26 28t-9 31q0 13 5 25t15.5 20t25.5 8q12 0 21.5 -6.5t21.5 -23.5l105 -137zM438 591l-118 95q-16 14 -24 28t-8 28t5.5 26t16 20t25.5 8q12 0 21.5 -6.5t19.5 -23.5l94 -142z" />
    <glyph glyph-name="uni0216" unicode="&#x216;" horiz-adv-x="884" 
d="M441 -14q-77 0 -132 18t-90.5 53t-53 87t-17.5 119v326q0 26 -7 36t-29 11l-56 4v60h306v-60l-58 -4q-17 -1 -25 -11.5t-8 -39.5v-317q0 -64 17.5 -108t58.5 -67t112 -23q68 0 111 22t64 67.5t21 113.5v316q0 26 -7 36t-29 11l-56 4v60h267v-60l-59 -4q-16 -1 -24 -11.5
t-8 -39.5v-300q0 -99 -33.5 -166t-99.5 -100t-165 -33zM458 933q54 0 89 -23.5t54.5 -63t23.5 -86.5l-53 -13q-14 51 -41.5 74t-76.5 23q-48 0 -76.5 -25.5t-40.5 -69.5l-51 10q4 45 24 84.5t57.5 64.5t90.5 25z" />
    <glyph glyph-name="uni0217" unicode="&#x217;" horiz-adv-x="716" 
d="M297 -14q-84 0 -128.5 44t-44.5 127v232q0 35 -6.5 47.5t-30.5 14.5l-45 4l9 61l173 12l14 -8v-330q0 -39 7.5 -66.5t29 -41t62.5 -13.5q42 0 73 18.5t48 51.5t17 73v177q0 32 -5.5 46t-31.5 16l-46 4l10 61l173 12l14 -8v-407q0 -25 7 -35.5t27 -13.5l52 -4v-60l-178 -6
l-15 82h-3q-27 -29 -55 -49t-59 -30.5t-68 -10.5zM347 784q52 0 86 -24.5t53 -65t23 -89.5l-51 -12q-9 35 -25 57.5t-38 33.5t-52 11q-47 0 -75 -27.5t-38 -73.5l-51 10q5 46 25 87t55.5 67t87.5 26z" />
    <glyph glyph-name="uni0218" unicode="&#x218;" horiz-adv-x="659" 
d="M350 -14q-56 0 -109 18t-87 47l-17 -57h-53l-22 221l63 7q16 -42 38 -72t50 -48t61 -26.5t69 -8.5q42 0 72.5 10.5t46 32.5t15.5 54q0 35 -16 59t-52 43t-99 36q-60 17 -102 36.5t-68.5 44.5t-39 57t-12.5 74q0 33 10.5 62.5t30 54.5t49 43.5t66.5 29t82 10.5
q46 0 87.5 -13.5t73.5 -37.5l15 51h54l20 -203l-62 -13q-17 53 -44 84t-62 44.5t-78 13.5q-55 0 -89.5 -23.5t-34.5 -69.5q0 -32 16 -54.5t51.5 -40.5t96.5 -36t104.5 -38t71 -44.5t40 -56t12.5 -74.5q0 -49 -19 -89t-53 -69t-78.5 -44t-97.5 -15zM300 -287l-30 35
q19 16 30 29.5t16.5 27t5.5 25.5h-11q-27 0 -39 14t-12 36q0 20 8.5 34t24.5 21t37 7q24 0 40.5 -10.5t25 -28t8.5 -39.5q0 -26 -11.5 -54t-34.5 -53t-58 -44z" />
    <glyph glyph-name="uni0219" unicode="&#x219;" horiz-adv-x="516" 
d="M65 -14l-12 174l67 5q14 -35 36 -59.5t51 -37t63 -12.5q46 0 72 20.5t26 53.5q0 23 -11 38t-37.5 26.5t-76.5 22.5q-45 10 -79 23.5t-56 32t-32.5 43.5t-10.5 59q0 50 25 86t68 54.5t97 18.5q35 0 69.5 -9.5t54.5 -23.5l8 33h57l10 -165l-67 5q-12 43 -47 70t-81 27
q-45 0 -68.5 -17t-23.5 -50q0 -24 11.5 -39t38.5 -25.5t71 -21.5q49 -13 83.5 -27t56.5 -32t32 -43t10 -59q0 -51 -26 -89.5t-70.5 -60t-102.5 -21.5q-44 0 -79 10.5t-59 26.5l-13 -37h-55zM228 -287l-30 35q19 16 30 29.5t16.5 27t5.5 25.5h-11q-27 0 -39 14t-12 36
q0 20 8.5 34t24.5 21t37 7q24 0 40.5 -10.5t25 -28t8.5 -39.5q0 -26 -11.5 -54t-34.5 -53t-58 -44z" />
    <glyph glyph-name="uni021A" unicode="&#x21a;" horiz-adv-x="785" 
d="M213 0v60l85 7q20 2 28 13t8 37v514h-64q-33 0 -55.5 -3.5t-39.5 -18t-31.5 -45t-33.5 -83.5l-65 14l37 205h622l36 -205l-66 -14q-17 53 -32 83t-32 45t-39 18.5t-55 3.5h-63v-517q0 -25 7 -35t29 -12l85 -7v-60h-361zM359 -287l-30 35q19 16 30 29.5t16.5 27t5.5 25.5
h-11q-27 0 -39 14t-12 36q0 20 8.5 34t24.5 21t37 7q24 0 40.5 -10.5t25 -28t8.5 -39.5q0 -26 -11.5 -54t-34.5 -53t-58 -44z" />
    <glyph glyph-name="uni021B" unicode="&#x21b;" horiz-adv-x="455" 
d="M275 -14q-53 0 -86 18t-48.5 52t-15.5 81v313h-84v59q44 4 69 20.5t37.5 51.5t17.5 94l59 8l15 -7v-155h166v-71h-166v-299q0 -40 17.5 -60.5t55.5 -20.5q27 0 49.5 9t45.5 25l32 -50q-34 -33 -76 -50.5t-88 -17.5zM244 -287l-30 35q19 16 30 29.5t16.5 27t5.5 25.5h-11
q-27 0 -39 14t-12 36q0 20 8.5 34t24.5 21t37 7q24 0 40.5 -10.5t25 -28t8.5 -39.5q0 -26 -11.5 -54t-34.5 -53t-58 -44z" />
    <glyph glyph-name="uni022A" unicode="&#x22a;" horiz-adv-x="840" 
d="M415 -14q-109 0 -188.5 44.5t-122.5 123t-43 183.5q0 117 44.5 201t126.5 130t195 46q106 0 185.5 -42.5t123 -120t43.5 -183.5q0 -84 -25.5 -154t-73.5 -121t-115 -79t-150 -28zM428 67q53 0 94 17.5t69 52t42.5 87.5t14.5 125q0 69 -16.5 123t-46.5 90t-73.5 54
t-99.5 18q-52 0 -93 -17.5t-69 -52t-42.5 -87t-14.5 -121.5q0 -70 16 -124t47 -90.5t74.5 -55.5t97.5 -19zM526 771q-31 0 -51 19t-20 50q0 30 20 49.5t51 19.5q34 0 53 -19t19 -49q0 -31 -20 -50.5t-52 -19.5zM313 771q-31 0 -51 19t-20 50q0 30 20 49.5t51 19.5
q33 0 53 -19t20 -49q0 -31 -20.5 -50.5t-52.5 -19.5zM269 975v89h304v-89h-304z" />
    <glyph glyph-name="uni022B" unicode="&#x22b;" horiz-adv-x="656" 
d="M319 -14q-81 0 -139.5 31.5t-90 90t-31.5 140.5q0 91 34.5 154.5t97 97.5t146.5 34q81 0 140.5 -30.5t92 -89t32.5 -143.5q0 -90 -33 -154t-96 -97.5t-153 -33.5zM335 60q48 0 80 21t48.5 62.5t16.5 102.5q0 54 -11 94.5t-32 67t-50.5 39.5t-66.5 13q-44 0 -75.5 -20.5
t-48.5 -62t-17 -105.5q0 -68 19 -116t54 -72t83 -24zM433 620q-31 0 -51 18.5t-20 48.5t20 49t51 19q32 0 51.5 -18.5t19.5 -48.5t-20 -49t-51 -19zM218 620q-30 0 -50 18.5t-20 48.5t20 49t50 19q34 0 53 -18.5t19 -48.5t-20 -49t-52 -19zM175 814v89h304v-89h-304z" />
    <glyph glyph-name="uni022C" unicode="&#x22c;" horiz-adv-x="840" 
d="M415 -14q-109 0 -188.5 44.5t-122.5 123t-43 183.5q0 117 44.5 201t126.5 130t195 46q106 0 185.5 -42.5t123 -120t43.5 -183.5q0 -84 -25.5 -154t-73.5 -121t-115 -79t-150 -28zM428 67q53 0 94 17.5t69 52t42.5 87.5t14.5 125q0 69 -16.5 123t-46.5 90t-73.5 54
t-99.5 18q-52 0 -93 -17.5t-69 -52t-42.5 -87t-14.5 -121.5q0 -70 16 -124t47 -90.5t74.5 -55.5t97.5 -19zM500 776q-21 0 -41.5 5.5t-46.5 17.5q-22 10 -37 15.5t-24 7.5t-17 2q-12 0 -21.5 -7.5t-23.5 -30.5l-44 26q18 39 34 60t33 28.5t38 7.5t41 -5.5t50 -18.5
q29 -13 46 -18t26 -5q11 0 19.5 8t21.5 30l44 -25q-18 -39 -33.5 -60t-31 -29.5t-33.5 -8.5zM268 981v89h304v-89h-304z" />
    <glyph glyph-name="uni022D" unicode="&#x22d;" horiz-adv-x="656" 
d="M319 -14q-81 0 -139.5 31.5t-90 90t-31.5 140.5q0 91 34.5 154.5t97 97.5t146.5 34q81 0 140.5 -30.5t92 -89t32.5 -143.5q0 -90 -33 -154t-96 -97.5t-153 -33.5zM335 60q48 0 80 21t48.5 62.5t16.5 102.5q0 54 -11 94.5t-32 67t-50.5 39.5t-66.5 13q-44 0 -75.5 -20.5
t-48.5 -62t-17 -105.5q0 -68 19 -116t54 -72t83 -24zM174 824v89h304v-89h-304zM406 615q-21 0 -41.5 6t-46.5 18q-22 10 -37 15.5t-24 7.5t-17 2q-12 0 -21.5 -8t-23.5 -31l-44 27q18 39 34 59.5t33 28.5t38 8t41.5 -5.5t49.5 -18.5t46 -18.5t26 -5.5q11 0 20 8.5t21 30.5
l44 -26q-18 -38 -33.5 -59.5t-31 -30t-33.5 -8.5z" />
    <glyph glyph-name="uni0230" unicode="&#x230;" horiz-adv-x="840" 
d="M415 -14q-109 0 -188.5 44.5t-122.5 123t-43 183.5q0 117 44.5 201t126.5 130t195 46q106 0 185.5 -42.5t123 -120t43.5 -183.5q0 -84 -25.5 -154t-73.5 -121t-115 -79t-150 -28zM428 67q53 0 94 17.5t69 52t42.5 87.5t14.5 125q0 69 -16.5 123t-46.5 90t-73.5 54
t-99.5 18q-52 0 -93 -17.5t-69 -52t-42.5 -87t-14.5 -121.5q0 -70 16 -124t47 -90.5t74.5 -55.5t97.5 -19zM420 767q-35 0 -56.5 20t-21.5 52t21.5 52t56.5 20q36 0 57.5 -19.5t21.5 -51.5q0 -33 -21.5 -53t-57.5 -20zM267 974v89h304v-89h-304z" />
    <glyph glyph-name="uni0231" unicode="&#x231;" horiz-adv-x="656" 
d="M319 -14q-81 0 -139.5 31.5t-90 90t-31.5 140.5q0 91 34.5 154.5t97 97.5t146.5 34q81 0 140.5 -30.5t92 -89t32.5 -143.5q0 -90 -33 -154t-96 -97.5t-153 -33.5zM335 60q48 0 80 21t48.5 62.5t16.5 102.5q0 54 -11 94.5t-32 67t-50.5 39.5t-66.5 13q-44 0 -75.5 -20.5
t-48.5 -62t-17 -105.5q0 -68 19 -116t54 -72t83 -24zM327 618q-35 0 -56.5 20t-21.5 52t21.5 52.5t56.5 20.5q36 0 57.5 -20t21.5 -52t-22 -52.5t-57 -20.5zM175 814v89h304v-89h-304z" />
    <glyph glyph-name="uni0232" unicode="&#x232;" horiz-adv-x="770" 
d="M222 0v60l67 4q17 1 25 10t8 41v166l-201 303q-14 20 -26.5 33.5t-38.5 16.5l-41 6v60h315v-60l-59 -3q-22 -1 -28.5 -14t9.5 -36l151 -225h5l143 220q12 18 12 33.5t-31 18.5l-50 6v60h273v-60l-54 -3q-18 0 -31.5 -14.5t-30.5 -41.5l-198 -304v-166q0 -25 7 -35t28 -12
l66 -4v-60h-320zM248 794v89h304v-89h-304z" />
    <glyph glyph-name="uni0233" unicode="&#x233;" horiz-adv-x="643" 
d="M136 -231q-54 0 -86.5 23t-32.5 63q0 30 21 50.5t51 20.5q26 0 42.5 -10t17.5 -28q1 -8 -0.5 -18.5t-6.5 -38.5q24 -1 42 9.5t36 38t40 75.5l25 51l-180 400q-13 30 -21 39.5t-25 10.5l-43 4l11 62h272v-59l-50 -2q-17 -1 -24.5 -11t5.5 -41l116 -274h5l115 268
q12 25 6.5 39t-29.5 17l-43 4l9 59h229v-60l-42 -3q-18 -2 -27 -12t-24 -44l-203 -448q-22 -48 -43 -83t-44.5 -57.5t-53 -33.5t-65.5 -11zM193 635v84h302v-84h-302z" />
    <glyph glyph-name="uni0237" unicode="&#x237;" horiz-adv-x="339" 
d="M79 -229l-34 46q25 19 42 40.5t28 47t16 57t5 71.5v357q0 35 -7.5 47.5t-31.5 13.5l-56 3l7 63l188 11l14 -8v-424q0 -67 -9.5 -117.5t-29 -88.5t-52.5 -66.5t-80 -52.5z" />
    <glyph glyph-name="uni0251" unicode="&#x251;" horiz-adv-x="695" 
d="M282 -14q-71 0 -121 30.5t-77 88.5t-27 141q0 91 33 155.5t93 99t142 34.5q30 0 57.5 -6t52.5 -16t45 -25l49 45l41 -9v-411q0 -23 11.5 -34t34.5 -11q14 0 26.5 2.5t25.5 7.5l12 -51q-17 -16 -48 -28.5t-63 -12.5q-31 0 -53.5 9.5t-35 29t-17.5 47.5l-3 1
q-35 -49 -79 -68t-99 -19zM319 71q40 0 71 18t48.5 49.5t17.5 72.5v207q-25 18 -58 28t-71 10q-48 0 -81 -22t-50.5 -66t-17.5 -110q0 -61 16.5 -103t48.5 -63t76 -21z" />
    <glyph glyph-name="uni0259" unicode="&#x259;" horiz-adv-x="598" 
d="M275 -14q-62 0 -109 23t-72.5 65t-25.5 101q0 25 2.5 50t6.5 51h345q-2 57 -23.5 93.5t-59 55.5t-87.5 19q-42 0 -81 -15.5t-71 -42.5l-42 45q39 47 97.5 75.5t124.5 28.5q82 0 140.5 -32.5t90.5 -91t32 -137.5q0 -90 -34 -154.5t-93.5 -99t-140.5 -34.5zM285 58
q39 0 68 17.5t47 51t23 80.5h-239q-1 -11 -2 -21.5t-1 -22.5q0 -50 26.5 -77.5t77.5 -27.5z" />
    <glyph glyph-name="uni0261" unicode="&#x261;" horiz-adv-x="660" 
d="M300 -231q-55 0 -95 7.5t-66 21.5t-39 32.5t-13 39.5q0 22 9.5 37.5t26 24.5t36.5 9q29 0 42.5 -12.5t13.5 -33.5q0 -10 -2 -19.5t-10 -27.5q19 -8 44 -11.5t49 -3.5q47 0 83 15.5t56.5 53.5t20.5 104v61l-2 1q-21 -29 -47.5 -47.5t-57.5 -26.5t-68 -8q-70 0 -120 30.5
t-77 88.5t-27 141q0 91 33 155.5t93 99t142 34.5q30 0 57.5 -6t52.5 -16t45 -25l49 45l41 -9v-487q0 -66 -16.5 -113t-45.5 -77t-64 -47t-72 -24t-72 -7zM319 71q40 0 71 18t48.5 49.5t17.5 72.5v207q-25 18 -58 28t-71 10q-48 0 -81 -22t-50.5 -66t-17.5 -110
q0 -61 16.5 -103t48.5 -63t76 -21z" />
    <glyph glyph-name="uni02B9" unicode="&#x2b9;" horiz-adv-x="249" 
d="M113 563l-46 11l14 169q2 29 15.5 50t44.5 21q13 0 26.5 -5.5t23 -14.5t9.5 -24q0 -8 -3.5 -17t-8.5 -19z" />
    <glyph glyph-name="uni02BA" unicode="&#x2ba;" horiz-adv-x="428" 
d="M113 563l-46 11l14 169q2 29 15.5 50t44.5 21q13 0 26.5 -5.5t23 -14.5t9.5 -24q0 -8 -3.5 -17t-8.5 -19zM295 563l-46 11l14 169q3 29 16 50t45 21q12 0 25.5 -5.5t23 -14.5t9.5 -24q0 -8 -3.5 -17t-8.5 -19z" />
    <glyph glyph-name="uni02BB" unicode="&#x2bb;" horiz-adv-x="0" 
d="M0 579q-36 0 -55 23t-19 53q0 26 11 53.5t33 52t56 43.5l31 -38q-19 -15 -29.5 -28t-14.5 -25t-4 -24h8q29 0 40 -14t11 -35q0 -19 -8.5 -33t-23.5 -21t-36 -7z" />
    <glyph glyph-name="uni02BC" unicode="&#x2bc;" horiz-adv-x="342" 
d="M120 491l-30 41q43 28 62 54.5t20 52.5h-20q-19 0 -33.5 7t-21.5 19.5t-7 29.5q0 31 20.5 52.5t55.5 21.5q49 0 68.5 -26.5t19.5 -63.5q0 -30 -15.5 -64.5t-45 -67t-73.5 -56.5z" />
    <glyph glyph-name="uni02BE" unicode="&#x2be;" horiz-adv-x="500" 
d="M215 583v55h11q26 0 38 16.5t12 39.5q0 24 -13 39t-39 15h-9v56h12q69 0 98.5 -32t29.5 -78q0 -29 -14 -54.5t-43 -41t-73 -15.5h-10z" />
    </font>
</defs>
</svg>
